<svg xmlns="http://www.w3.org/2000/svg" width="86.369" height="86.369" viewBox="0 0 86.369 86.369">
  <g id="Grupo_1213279" data-name="Grupo 1213279" transform="translate(-431.449 -3613.006)">
    <g id="Grupo_1211741" data-name="Grupo 1211741" transform="translate(431.449 3613.006)">
      <g id="Grupo_1099347" data-name="Grupo 1099347" transform="translate(0 0)">
        <g id="Grupo_1099341" data-name="Grupo 1099341" transform="translate(0 0)">
          <g id="Rectángulo_402588" data-name="Rectángulo 402588" transform="translate(0 0)" fill="#f4c5c5" stroke="#fff" stroke-width="5">
            <rect width="86.369" height="86.369" rx="14" stroke="none"/>
            <rect x="2.5" y="2.5" width="81.369" height="81.369" rx="11.5" fill="none"/>
          </g>
        </g>
      </g>
    </g>
    <g id="vaca_1_" data-name="vaca (1)" transform="translate(446.018 3627.402)">
      <path id="Trazado_1037986" data-name="Trazado 1037986" d="M99.086,27.389s-7.5-3.7-6.572-13.9a15.2,15.2,0,0,1,1.528-5.364l.385-.778a.627.627,0,0,1,1.174.137c.785,3.414,3.252,10.464,10.331,11.261l1.776.252Zm0,0" transform="translate(-82.04 -6.212)" fill="#bc7d53"/>
      <path id="Trazado_1037987" data-name="Trazado 1037987" d="M101.341,27.186l-2.258,2.2s-7.5-3.7-6.572-13.9a15.175,15.175,0,0,1,1.528-5.364l.386-.778a.568.568,0,0,1,.059-.1A17.653,17.653,0,0,0,94.2,11.17c-.913,10.1,5.179,14.782,7.142,16.015Zm0,0" transform="translate(-82.037 -8.207)" fill="#af663e"/>
      <path id="Trazado_1037988" data-name="Trazado 1037988" d="M20.306,163.312s-3.952-4.551-12.436-2.773a1.083,1.083,0,0,0-.838,1.314c.622,2.54,3.013,8.781,11.558,9.581Zm0,0" transform="translate(-6.213 -142.121)" fill="#ffc1b8"/>
      <path id="Trazado_1037989" data-name="Trazado 1037989" d="M19.057,171.757l-.468,2.215c-8.545-.8-10.935-7.042-11.558-9.581a1.085,1.085,0,0,1,.838-1.315c.156-.033.31-.063.463-.091a12.243,12.243,0,0,0,10.725,8.772Zm0,0" transform="translate(-6.213 -144.656)" fill="#ffb3a8"/>
      <path id="Trazado_1037990" data-name="Trazado 1037990" d="M286.02,27.389s7.5-3.7,6.572-13.9a15.2,15.2,0,0,0-1.528-5.364l-.385-.778a.627.627,0,0,0-1.174.137c-.785,3.414-3.252,10.464-10.332,11.261L277.4,19Zm0,0" transform="translate(-246.203 -6.212)" fill="#bc7d53"/>
      <path id="Trazado_1037991" data-name="Trazado 1037991" d="M333.992,27.186l2.258,2.2s7.5-3.7,6.572-13.9a15.186,15.186,0,0,0-1.528-5.364l-.386-.778a.568.568,0,0,0-.059-.1,17.653,17.653,0,0,1,.285,1.924c.913,10.1-5.179,14.782-7.142,16.015Zm0,0" transform="translate(-296.433 -8.207)" fill="#af663e"/>
      <path id="Trazado_1037992" data-name="Trazado 1037992" d="M380.332,163.312s3.952-4.551,12.436-2.773a1.083,1.083,0,0,1,.838,1.314c-.622,2.54-3.013,8.781-11.558,9.581Zm0,0" transform="translate(-337.562 -142.121)" fill="#ffc1b8"/>
      <path id="Trazado_1037993" data-name="Trazado 1037993" d="M391.438,171.757l.467,2.215c8.545-.8,10.935-7.042,11.558-9.581a1.085,1.085,0,0,0-.838-1.315c-.156-.033-.31-.063-.463-.091a12.242,12.242,0,0,1-10.725,8.772Zm0,0" transform="translate(-347.419 -144.656)" fill="#ffb3a8"/>
      <path id="Trazado_1037994" data-name="Trazado 1037994" d="M121.356,88.963a17.516,17.516,0,0,0-12.9,4.9c-4.85,4.952-4.923,12.073-3.683,18.257.1.485.222.964.365,1.437.555,1.832,2.094,7.159,2.094,9.83,0,3.54.526,7.208,3.675,9.708a10.6,10.6,0,0,0,4.283,1.963,16.308,16.308,0,0,0,3.077.366c4.045.121,8.682.388,12.1-2.02a9.891,9.891,0,0,0,3.864-6.264,18.477,18.477,0,0,0,.224-3.752c0-2.67,1.538-7.993,2.094-9.827a16.354,16.354,0,0,0,.4-1.629c1.414-7.325.742-15.806-6.629-20.385a17.857,17.857,0,0,0-8.966-2.582Zm0,0" transform="translate(-92.393 -78.954)" fill="#e7e7e7"/>
      <path id="Trazado_1037995" data-name="Trazado 1037995" d="M260.137,111.93a16.485,16.485,0,0,1-.4,1.628c-.556,1.835-2.094,7.158-2.094,9.827a18.5,18.5,0,0,1-.224,3.752,9.889,9.889,0,0,1-3.865,6.264c-2.852,2.01-6.555,2.156-10.055,2.08a13.794,13.794,0,0,0,7.7-2.08,9.887,9.887,0,0,0,3.865-6.264,18.5,18.5,0,0,0,.224-3.752c0-2.669,1.538-7.993,2.093-9.827a16,16,0,0,0,.4-1.628c1.414-7.325.743-15.806-6.628-20.385a17.722,17.722,0,0,0-8.261-2.552q.822-.05,1.648-.031a17.857,17.857,0,0,1,8.966,2.583C260.88,96.123,261.551,104.6,260.137,111.93Zm0,0" transform="translate(-215.58 -78.953)" fill="#cecece"/>
      <path id="Trazado_1037996" data-name="Trazado 1037996" d="M148.836,338.567a13.6,13.6,0,0,0-5.032-2.409,23.351,23.351,0,0,0-12.632,0,13.594,13.594,0,0,0-5.032,2.409,9.653,9.653,0,0,0-2.733,10.336c1.586,4.191,5.3,5.387,9.065,5.436,3.36.043,6.67.044,10.031,0,3.769-.049,7.48-1.245,9.066-5.436A9.654,9.654,0,0,0,148.836,338.567Zm0,0" transform="translate(-109.056 -297.583)" fill="#ffc1b8"/>
      <path id="Trazado_1037997" data-name="Trazado 1037997" d="M258.577,348.907c-1.586,4.19-5.3,5.387-9.065,5.436-2.035.026-4.052.037-6.071.03,1.317,0,2.633-.013,3.959-.03,3.769-.049,7.48-1.246,9.067-5.436a9.654,9.654,0,0,0-2.734-10.337,13.588,13.588,0,0,0-5.031-2.409,23.82,23.82,0,0,0-5.26-.845,23.491,23.491,0,0,1,7.372.845,13.593,13.593,0,0,1,5.032,2.409A9.656,9.656,0,0,1,258.577,348.907Zm0,0" transform="translate(-216.065 -297.586)" fill="#ffb3a8"/>
      <path id="Trazado_1037998" data-name="Trazado 1037998" d="M120.389,100.216c-1.491,1.23-3.746.666-5.572,1.293a7.355,7.355,0,0,0-3.546,3.274,21.322,21.322,0,0,1-2.785,4.043,6,6,0,0,1-4.032,1.432c-.852-5.711-.361-11.932,4.008-16.392a17.489,17.489,0,0,1,12.729-4.9q-.034.125-.064.246a10.609,10.609,0,0,0,.147,5.614c.465,1.87.6,4.169-.885,5.393Zm0,0" transform="translate(-92.398 -78.956)" fill="#5a5c5e"/>
      <path id="Trazado_1037999" data-name="Trazado 1037999" d="M56.575,18.488a1.89,1.89,0,0,0-1.208-.839,19.536,19.536,0,0,0-3.784-.428h-.329a.787.787,0,0,0,.007,1.573h.31a17.941,17.941,0,0,1,3.473.394.308.308,0,0,1,.2.137.282.282,0,0,1,.036.221,11.462,11.462,0,0,1-9.365,8.774,23.24,23.24,0,0,0-.615-6.759q-.143-.565-.317-1.105a11.145,11.145,0,0,1,2.771-1.183.787.787,0,0,0-.422-1.516,12.833,12.833,0,0,0-2.908,1.2c-.08-.187-.164-.371-.25-.554a15.437,15.437,0,0,0,3-11.2,15.92,15.92,0,0,0-1.606-5.642L45.182.787a1.414,1.414,0,0,0-2.646.311,18.546,18.546,0,0,1-2.684,6.337,10.293,10.293,0,0,1-3.7,3.341,18.611,18.611,0,0,0-4.013-1.222A18.857,18.857,0,0,0,25.5,9.432a21.789,21.789,0,0,0-4.693,1.392,10.261,10.261,0,0,1-3.794-3.389A18.555,18.555,0,0,1,14.327,1.1,1.414,1.414,0,0,0,11.682.787l-.385.778A15.923,15.923,0,0,0,9.69,7.207,15.452,15.452,0,0,0,12.655,18.36a5.284,5.284,0,0,0-.279.553c-2.11-1.187-5.693-2.351-10.88-1.264a1.893,1.893,0,0,0-1.208.839,1.844,1.844,0,0,0-.233,1.433A13.93,13.93,0,0,0,3.037,25.7a13.182,13.182,0,0,0,8.051,4.246c.032.3.066.6.106.9a25.084,25.084,0,0,0,.8,3.986,54.568,54.568,0,0,1,2.032,8.943,10.426,10.426,0,0,0-.411,7.826c1.224,3.234,3.735,5.171,7.463,5.757a.787.787,0,1,0,.244-1.555c-3.173-.5-5.212-2.055-6.235-4.759a8.914,8.914,0,0,1,2.493-9.447,12.762,12.762,0,0,1,4.745-2.261,22.7,22.7,0,0,1,12.214,0,12.756,12.756,0,0,1,4.745,2.261,8.914,8.914,0,0,1,2.493,9.447c-1.233,3.259-3.961,4.871-8.34,4.928-2.832.037-5.588.043-8.425.018H25A.787.787,0,0,0,25,57.561c1.161.01,2.308.015,3.452.015,1.664,0,3.323-.011,5.008-.033,5.029-.066,8.323-2.066,9.791-5.945a10.424,10.424,0,0,0-.405-7.813.81.81,0,0,0,.05-.21,55.142,55.142,0,0,1,2.015-8.743,17.185,17.185,0,0,0,.422-1.708q.315-1.635.469-3.187A13.175,13.175,0,0,0,53.827,25.7a13.936,13.936,0,0,0,2.982-5.776,1.843,1.843,0,0,0-.233-1.433ZM41.142,8.337A19.839,19.839,0,0,0,43.967,1.88l.19.383a14.351,14.351,0,0,1,1.449,5.086,13.992,13.992,0,0,1-2.261,9.528,15.26,15.26,0,0,0-5-4.954c-.168-.1-.339-.205-.511-.3a12.284,12.284,0,0,0,3.309-3.284ZM11.258,7.349a14.347,14.347,0,0,1,1.45-5.086l.19-.383a19.837,19.837,0,0,0,2.824,6.457A12.24,12.24,0,0,0,19.1,11.663a15.335,15.335,0,0,0-5.476,5.04l-.093.145-.008.014a14.019,14.019,0,0,1-2.263-9.513Zm-9.675,12.2a.281.281,0,0,1,.036-.22.308.308,0,0,1,.2-.137A17.615,17.615,0,0,1,5.437,18.8a12.953,12.953,0,0,1,5.217,1.024,10.548,10.548,0,0,1,1.192.613c-.051.177-.1.352-.15.518a19.4,19.4,0,0,0-.633,3.22,24.658,24.658,0,0,0-.13,3.552c.007.2.017.4.028.6a11.464,11.464,0,0,1-9.377-8.776ZM12.732,30.452A23.279,23.279,0,0,1,13,22.231a14.368,14.368,0,0,1,4.959-7.874,15.711,15.711,0,0,1,4.166-2.4,16.479,16.479,0,0,1,5.605-1.148l.081,0a11.652,11.652,0,0,0,.307,5.252c.7,2.8.047,4.046-.622,4.6a4.993,4.993,0,0,1-2.823.744,9.95,9.95,0,0,0-2.5.412,8.177,8.177,0,0,0-3.955,3.6c-.221.349-.434.707-.639,1.053a13.652,13.652,0,0,1-2.032,2.848,4.65,4.65,0,0,1-2.8,1.149s0,0,0,0Zm31.052,2.375a15.563,15.563,0,0,1-.382,1.55,70.134,70.134,0,0,0-1.832,7.313,8.558,8.558,0,0,0-1.295-1.316,14.273,14.273,0,0,0-5.319-2.557,24.264,24.264,0,0,0-13.05,0,14.269,14.269,0,0,0-5.319,2.557,8.532,8.532,0,0,0-1.263,1.277A70.55,70.55,0,0,0,13.5,34.374c-.146-.481-.26-.928-.347-1.364-.067-.337-.128-.669-.185-1a6.122,6.122,0,0,0,3.671-1.581,15.016,15.016,0,0,0,2.282-3.167c.2-.337.408-.686.617-1.017a6.468,6.468,0,0,1,3.136-2.95,8.649,8.649,0,0,1,2.113-.331,6.2,6.2,0,0,0,3.7-1.1c1.459-1.2,1.856-3.343,1.148-6.19a9.959,9.959,0,0,1-.232-4.862,16.915,16.915,0,0,1,8.105,2.446,13.866,13.866,0,0,1,6.261,8.687,25.126,25.126,0,0,1,.01,10.88Zm0,0" transform="translate(0)"/>
      <g id="Grupo_1213278" data-name="Grupo 1213278" transform="translate(20.409 31.096)">
        <path id="Trazado_1038000" data-name="Trazado 1038000" d="M183.963,277.768a1.241,1.241,0,1,1-1.241-1.241A1.241,1.241,0,0,1,183.963,277.768Zm0,0" transform="translate(-181.481 -276.527)" fill="#111"/>
        <path id="Trazado_1038001" data-name="Trazado 1038001" d="M304.576,277.768a1.241,1.241,0,1,1-1.241-1.241A1.241,1.241,0,0,1,304.576,277.768Zm0,0" transform="translate(-288.53 -276.527)" fill="#111"/>
        <path id="Trazado_1038002" data-name="Trazado 1038002" d="M215.31,411.692c0-.964-.457-1.746-1.022-1.746s-1.022.782-1.022,1.746.457,1.746,1.022,1.746S215.31,412.656,215.31,411.692Zm0,0" transform="translate(-209.692 -394.942)" fill="#111"/>
        <path id="Trazado_1038003" data-name="Trazado 1038003" d="M276.255,411.692c0-.964-.457-1.746-1.022-1.746s-1.022.782-1.022,1.746.458,1.746,1.022,1.746S276.255,412.656,276.255,411.692Zm0,0" transform="translate(-263.783 -394.942)" fill="#111"/>
      </g>
    </g>
  </g>
</svg>
