<svg xmlns="http://www.w3.org/2000/svg" width="86.369" height="86.369" viewBox="0 0 86.369 86.369">
  <g id="Grupo_1213276" data-name="Grupo 1213276" transform="translate(-7105.398 7982.566)">
    <g id="Grupo_1211744" data-name="Grupo 1211744" transform="translate(7105.398 -7982.566)">
      <g id="Grupo_1099347" data-name="Grupo 1099347" transform="translate(0 0)">
        <g id="Grupo_1099341" data-name="Grupo 1099341" transform="translate(0 0)">
          <g id="Rectángulo_402588" data-name="Rectángulo 402588" transform="translate(0 0)" fill="#f4c5c5" stroke="#fff" stroke-width="5">
            <rect width="86.369" height="86.369" rx="14" stroke="none"/>
            <rect x="2.5" y="2.5" width="81.369" height="81.369" rx="11.5" fill="none"/>
          </g>
        </g>
      </g>
    </g>
    <g id="herd_17466045" transform="translate(7100.499 -7984.899)">
      <g id="Grupo_1213275" data-name="Grupo 1213275" transform="translate(23.585 20.771)">
        <path id="Trazado_1037901" data-name="Trazado 1037901" d="M273.34,95.8c0-6.694,4.39-12.118,9.808-12.118s9.808,5.424,9.808,12.118c0,4.124-1.31,8.589-1.31,14.044h-17C274.646,104.387,273.34,99.922,273.34,95.8Z" transform="translate(-246.482 -77.423)" fill="#d7b2ad" fill-rule="evenodd"/>
        <path id="Trazado_1037902" data-name="Trazado 1037902" d="M281.841,108.665c-4.806-.785-8.511-5.866-8.511-12.013s3.7-11.231,8.511-12.013c4.8.782,8.511,5.862,8.511,12.013S286.643,107.881,281.841,108.665Z" transform="translate(-246.474 -78.277)" fill="#f0d6d4" fill-rule="evenodd"/>
        <path id="Trazado_1037903" data-name="Trazado 1037903" d="M65.655,87.82c5.268,0,9.536,5.274,9.536,11.781,0,4.121-1.035,8.814-1.035,13.926h-17c0-5.112-1.038-9.8-1.038-13.926,0-6.506,4.271-11.781,9.535-11.781Z" transform="translate(-53.221 -81.107)" fill="#d7b2ad" fill-rule="evenodd"/>
        <path id="Trazado_1037904" data-name="Trazado 1037904" d="M87.831,88.81c4.656.779,8.241,5.706,8.241,11.672s-3.586,10.893-8.241,11.675c-4.656-.782-8.241-5.709-8.241-11.675S83.176,89.589,87.831,88.81Z" transform="translate(-74.103 -81.987)" fill="#f0d6d4" fill-rule="evenodd"/>
        <path id="Trazado_1037905" data-name="Trazado 1037905" d="M50.873,71.641q.754-2.518,1.163-2.614a5.381,5.381,0,0,0-6.525-2.614A5.423,5.423,0,0,0,50.873,71.641Z" transform="translate(-43.782 -61.801)" fill="#c58988" fill-rule="evenodd"/>
        <path id="Trazado_1037906" data-name="Trazado 1037906" d="M60.134,70.108c.266-.688.484-1.05.656-1.091a5.38,5.38,0,0,0-5.44-2.867A5.421,5.421,0,0,0,60.134,70.108Z" transform="translate(-52.536 -61.791)" fill="#f9bdad" fill-rule="evenodd"/>
        <path id="Trazado_1037907" data-name="Trazado 1037907" d="M181.673,71.641q-.754-2.518-1.163-2.614a5.378,5.378,0,0,1,6.522-2.614A5.422,5.422,0,0,1,181.673,71.641Z" transform="translate(-163.891 -61.801)" fill="#c58988" fill-rule="evenodd"/>
        <path id="Trazado_1037908" data-name="Trazado 1037908" d="M181.156,70.108c-.266-.688-.484-1.05-.656-1.091a5.377,5.377,0,0,1,5.437-2.867A5.417,5.417,0,0,1,181.156,70.108Z" transform="translate(-163.883 -61.791)" fill="#f9bdad" fill-rule="evenodd"/>
        <path id="Trazado_1037909" data-name="Trazado 1037909" d="M88.7,68.69c-.007-5.24-4.533-9.871.763-12.6a8.328,8.328,0,0,1,.935-.288,3.941,3.941,0,0,0-1.573-1.619,3.3,3.3,0,0,1,2.5,1.013,3.255,3.255,0,0,1,2.335-1.472,3.973,3.973,0,0,0-1.273,1.817,11.686,11.686,0,0,1,3.771.55c6.45,2.827.559,7.054.419,12.29C96.453,72.948,88.7,71.873,88.7,68.69Z" transform="translate(-80.595 -50.768)" fill="#d7b2ad" fill-rule="evenodd"/>
        <path id="Trazado_1037910" data-name="Trazado 1037910" d="M100.14,56.8a6.758,6.758,0,0,1,1.11-.709,8.328,8.328,0,0,1,.935-.288,3.941,3.941,0,0,0-1.573-1.619,3.3,3.3,0,0,1,2.5,1.013,3.255,3.255,0,0,1,2.335-1.472,3.973,3.973,0,0,0-1.273,1.817,11.686,11.686,0,0,1,3.771.55c6.363,2.786.719,6.938.428,12.074-3.667.066-7.188-4.018-8.054-9.53a15.348,15.348,0,0,1-.184-1.835Z" transform="translate(-92.386 -50.768)" fill="#f0d6d4" fill-rule="evenodd"/>
        <path id="Trazado_1037911" data-name="Trazado 1037911" d="M99.723,170.024a9.427,9.427,0,0,1,6.244,0,1.589,1.589,0,0,1,1.254,1.535v1.06c0,3.865-8.751,3.752-8.751,0v-1.06A1.629,1.629,0,0,1,99.723,170.024Z" transform="translate(-90.9 -153.768)" fill="#c58988" fill-rule="evenodd"/>
        <path id="Trazado_1037912" data-name="Trazado 1037912" d="M107.668,170.024a9.427,9.427,0,0,1,6.244,0,1.589,1.589,0,0,1,1.254,1.535v1.06a2.311,2.311,0,0,1-.113.716c-2.348,1.651-7.654.935-7.654-1.985v-1.06a1.457,1.457,0,0,1,.009-.157C107.494,170.092,107.581,170.058,107.668,170.024Z" transform="translate(-98.845 -153.768)" fill="#f9bdad" fill-rule="evenodd"/>
        <path id="Trazado_1037913" data-name="Trazado 1037913" d="M274.554,77.359q.759-2.533,1.169-2.623a5.4,5.4,0,0,0-6.553-2.629A5.447,5.447,0,0,0,274.554,77.359Z" transform="translate(-242.772 -66.866)" fill="#c58988" fill-rule="evenodd"/>
        <path id="Trazado_1037914" data-name="Trazado 1037914" d="M283.862,75.841c.266-.69.488-1.057.66-1.094a5.4,5.4,0,0,0-5.462-2.88,5.45,5.45,0,0,0,4.8,3.974Z" transform="translate(-251.572 -66.877)" fill="#f9bdad" fill-rule="evenodd"/>
        <path id="Trazado_1037915" data-name="Trazado 1037915" d="M405.919,77.359q-.759-2.533-1.169-2.623a5.4,5.4,0,0,1,6.553-2.629A5.447,5.447,0,0,1,405.919,77.359Z" transform="translate(-363.398 -66.866)" fill="#c58988" fill-rule="evenodd"/>
        <path id="Trazado_1037916" data-name="Trazado 1037916" d="M405.41,75.841c-.266-.69-.488-1.057-.66-1.094a5.4,5.4,0,0,1,5.462-2.88A5.448,5.448,0,0,1,405.41,75.841Z" transform="translate(-363.398 -66.877)" fill="#f9bdad" fill-rule="evenodd"/>
        <path id="Trazado_1037917" data-name="Trazado 1037917" d="M312.557,74.414c0-5.262-4.552-9.911.769-12.657a8.118,8.118,0,0,1,.938-.291,3.947,3.947,0,0,0-1.579-1.622,3.307,3.307,0,0,1,2.514,1.013,3.273,3.273,0,0,1,2.345-1.476,3.948,3.948,0,0,0-1.276,1.823,11.7,11.7,0,0,1,3.787.554c6.476,2.836.563,7.084.419,12.343C320.349,78.694,312.56,77.612,312.557,74.414Z" transform="translate(-279.76 -55.804)" fill="#d7b2ad" fill-rule="evenodd"/>
        <path id="Trazado_1037918" data-name="Trazado 1037918" d="M324.05,62.476a6.557,6.557,0,0,1,1.116-.709,8.115,8.115,0,0,1,.938-.291,3.947,3.947,0,0,0-1.579-1.622,3.307,3.307,0,0,1,2.514,1.013,3.273,3.273,0,0,1,2.345-1.476,3.949,3.949,0,0,0-1.276,1.823,11.7,11.7,0,0,1,3.787.554c6.387,2.8.722,6.969.428,12.128-3.68.066-7.219-4.037-8.088-9.571A15.843,15.843,0,0,1,324.05,62.476Z" transform="translate(-291.599 -55.812)" fill="#f0d6d4" fill-rule="evenodd"/>
        <path id="Trazado_1037919" data-name="Trazado 1037919" d="M323.6,176.183a9.487,9.487,0,0,1,6.272,0,1.6,1.6,0,0,1,1.26,1.541v1.063c0,3.884-8.792,3.771-8.792,0v-1.063A1.647,1.647,0,0,1,323.6,176.183Z" transform="translate(-290.078 -159.246)" fill="#c58988" fill-rule="evenodd"/>
        <path id="Trazado_1037920" data-name="Trazado 1037920" d="M331.6,176.183a9.487,9.487,0,0,1,6.272,0,1.6,1.6,0,0,1,1.26,1.541v1.063a2.339,2.339,0,0,1-.112.722c-2.36,1.657-7.688.938-7.688-2v-1.063c0-.056,0-.109.007-.16C331.424,176.253,331.512,176.218,331.6,176.183Z" transform="translate(-298.076 -159.246)" fill="#f9bdad" fill-rule="evenodd"/>
        <path id="Trazado_1037921" data-name="Trazado 1037921" d="M300.949,34.19a1.714,1.714,0,0,0,2.345-.629l1.244-2.151,2.151,1.241a1.718,1.718,0,1,0,1.711-2.98,1.719,1.719,0,1,0-2.889-1.857l-1.322,2.292L301.9,28.784a1.719,1.719,0,1,0-1.573,3.052A1.718,1.718,0,0,0,300.949,34.19Z" transform="translate(-269.596 -26.954)" fill="#f598a2" fill-rule="evenodd"/>
        <path id="Trazado_1037922" data-name="Trazado 1037922" d="M301.11,56.917a1.714,1.714,0,0,0,2.345-.629l1.123-1.945-2.8-1.614a1.715,1.715,0,0,0-2.282.525,1.711,1.711,0,0,0,.985,1.307A1.715,1.715,0,0,0,301.11,56.917Z" transform="translate(-269.757 -49.681)" fill="#df5356" fill-rule="evenodd"/>
        <path id="Trazado_1037923" data-name="Trazado 1037923" d="M352.8,39.436a1.718,1.718,0,0,1-2.348.629l-1.945-1.123,1.616-2.8a1.721,1.721,0,0,1,2.239-.685,1.716,1.716,0,0,1-.2,1.626,1.718,1.718,0,0,1,.637,2.352Z" transform="translate(-313.361 -34.367)" fill="#df5356" fill-rule="evenodd"/>
        <path id="Trazado_1037924" data-name="Trazado 1037924" d="M197.782,138.48a13.825,13.825,0,0,1,1.423,6.193,14.309,14.309,0,0,1-.141,2.023c-.382-.119-.69-.275-.8-.15-1.3,1.457-3.667-.535-2.382-2.413C197.261,142.107,194.881,138.845,197.782,138.48Z" transform="translate(-177.235 -126.179)" fill="#c58988" fill-rule="evenodd"/>
        <path id="Trazado_1037925" data-name="Trazado 1037925" d="M57.17,176.378A13.984,13.984,0,0,1,56.12,171a14.532,14.532,0,0,1,.3-2.93c.4.184,1.932.554,1.932,1.263,0,1.27.525.585.607,3.1.012.416,1.8,1.4.876,3.067C59.549,176.008,58.409,176.39,57.17,176.378Z" transform="translate(-53.221 -152.505)" fill="#c58988" fill-rule="evenodd"/>
        <path id="Trazado_1037926" data-name="Trazado 1037926" d="M422.53,158.43a14.84,14.84,0,0,1-.237,8.526.338.338,0,0,1-.087-.082c-.738-.9-3.3.973-2.495-3.185.319-1.638,1.013-2.6.973-3.489C420.633,159.152,421.53,159.077,422.53,158.43Z" transform="translate(-376.57 -143.928)" fill="#c58988" fill-rule="evenodd"/>
        <path id="Trazado_1037927" data-name="Trazado 1037927" d="M330.427,45.9a1.817,1.817,0,1,1-1.817,1.817A1.816,1.816,0,0,1,330.427,45.9Z" transform="translate(-295.656 -43.81)" fill="#ffcd05" fill-rule="evenodd"/>
        <path id="Trazado_1037928" data-name="Trazado 1037928" d="M276.464,212.81c-.169-1.241-.35-2.435-.494-3.592.413-.191.538-.31,1.142-1.394.416-.753,1.588-1.663,1.994-.416.666,2.045-.419,2.316-1.663,4.015A6.146,6.146,0,0,1,276.464,212.81Z" transform="translate(-248.822 -186.955)" fill="#c58988" fill-rule="evenodd"/>
        <path id="Trazado_1037929" data-name="Trazado 1037929" d="M46.05,292.17H92.364v3.9H46.05Z" transform="translate(-44.262 -262.917)" fill="#9e4623" fill-rule="evenodd"/>
        <path id="Trazado_1037930" data-name="Trazado 1037930" d="M46.05,292.17H92.364v1.948H46.05Z" transform="translate(-44.262 -262.917)" fill="#eaa377" fill-rule="evenodd"/>
        <path id="Trazado_1037931" data-name="Trazado 1037931" d="M46.05,354.42H92.364v3.9H46.05Z" transform="translate(-44.262 -318.301)" fill="#9e4623" fill-rule="evenodd"/>
        <path id="Trazado_1037932" data-name="Trazado 1037932" d="M46.05,354.42H92.364v1.951H46.05Z" transform="translate(-44.262 -318.301)" fill="#eaa377" fill-rule="evenodd"/>
        <path id="Trazado_1037933" data-name="Trazado 1037933" d="M46.05,416.7H92.364v3.9H46.05Z" transform="translate(-44.262 -373.712)" fill="#9e4623" fill-rule="evenodd"/>
        <path id="Trazado_1037934" data-name="Trazado 1037934" d="M46.05,416.7H92.364v1.948H46.05Z" transform="translate(-44.262 -373.712)" fill="#eaa377" fill-rule="evenodd"/>
        <path id="Trazado_1037935" data-name="Trazado 1037935" d="M75.522,268.33h3.952v22.861H75.522Zm-45.682,0h3.952v22.861H29.84Zm22.839,0h3.952v22.861H52.679Z" transform="translate(-29.84 -241.707)" fill="#9e4623" fill-rule="evenodd"/>
        <path id="Trazado_1037936" data-name="Trazado 1037936" d="M96.3,268.33h1.663v21.795H96.3Zm-44.019,21.8H50.62V268.331h1.66Zm22.839,0h-1.66V268.331h1.66Z" transform="translate(-48.328 -241.707)" fill="#eaa377" fill-rule="evenodd"/>
      </g>
      <path id="Trazado_1037937" data-name="Trazado 1037937" d="M70.046,46.622h3.17a.772.772,0,0,1,.772.772V70.259a.772.772,0,0,1-.772.772H69.264a.774.774,0,0,1-.772-.772V68.43H51.149v1.829a.774.774,0,0,1-.772.772H46.425a.772.772,0,0,1-.772-.772V68.43H28.306v1.829a.772.772,0,0,1-.772.772H23.582a.774.774,0,0,1-.772-.772V47.394a.774.774,0,0,1,.772-.772h2.73a70.744,70.744,0,0,1-.6-7.354,14.219,14.219,0,0,1,2.62-8.366,6.2,6.2,0,0,1-3.783-5.428.768.768,0,0,1,.516-.82,6.139,6.139,0,0,1,6.144,1.276,9.291,9.291,0,0,1,.925-.54,3.622,3.622,0,0,0-.713-.54.77.77,0,0,1,.407-1.432,4.381,4.381,0,0,1,2.379.675,4.389,4.389,0,0,1,2.316-1.125.771.771,0,0,1,.619,1.351,3.943,3.943,0,0,0-.494.494,12.557,12.557,0,0,1,2.732.547l.075.029a10.687,10.687,0,0,1,1.266.647,6.15,6.15,0,0,1,6.253-1.379.772.772,0,0,1,.516.82A6.195,6.195,0,0,1,43.7,30.9a14.231,14.231,0,0,1,2.623,8.369c0,3.035-.588,6.74-.86,9.983h.184V47.4a.772.772,0,0,1,.772-.772h3.952c.025,0,.047,0,.072,0-.595-4.346-1.382-8.088-.041-12.224a13.708,13.708,0,0,1,1.619-3.374,6.2,6.2,0,0,1-2.81-4.924.774.774,0,0,1,.516-.82,6.181,6.181,0,0,1,2.989-.254,2.486,2.486,0,0,1,3.608-3.057l.769.445a2.547,2.547,0,0,1,1.247-.325c.522-.9.857-1.7,2-2a2.491,2.491,0,0,1,3,3.189,2.478,2.478,0,0,1,.494,2.636l.341.109,0,0a10.96,10.96,0,0,1,1.273.653,6.175,6.175,0,0,1,6.278-1.389.774.774,0,0,1,.516.82,6.178,6.178,0,0,1-1.6,3.884,6.24,6.24,0,0,1-1.929,1.445,14.825,14.825,0,0,1,2.1,7.716,56.946,56.946,0,0,1-.78,7.472ZM68.492,66.885V64.533H51.149v2.352Zm0-3.9V61.564H51.149V62.99H68.492Zm0-2.97V57.665H51.149v2.354Zm0-3.9V54.695H51.149v1.426Zm0-2.97V50.8H51.149v2.354Zm3.952-4.984H70.036V69.486h2.408ZM27.868,46.7a.773.773,0,0,1,.438.7v1.857H31.4c.094-1.27.275-2.6.484-4a.772.772,0,1,1,1.527.228c-.206,1.367-.368,2.561-.465,3.768h6.135c-.147-1.2-.356-2.376-.613-3.8a.769.769,0,0,1,1.513-.272c.266,1.466.506,2.827.647,4.071h3.3c.2-2.427.532-4.794.726-7.147-2.011,1.241-4.705-1.4-3.057-3.811,1.045-1.532-.863-4.715,1.389-5.712-.157-.256-.325-.506-.5-.747-.25.6-1.563,3.715-1.632,4.008s-.235.731-.319,1.116l-.106.54a2.245,2.245,0,0,1,.256,1.067v1.057c0,4.9-10.3,4.78-10.3,0V38.566A2.162,2.162,0,0,1,30.8,37.25c-.329-2.007-.913-3.389-1.379-5.218a11.915,11.915,0,0,0-1.735,3.821c.782.291,1.8.769,1.8,1.75,0,.938.522.494.6,3.076.007.162.056-.094.131-.007a2.722,2.722,0,0,1,.651,3.47c-.51.919-2.038,1.247-3.139,1.273.041.409.088.822.138,1.282Zm.438,4.1V53.15H45.653V50.8Zm0,3.9v1.426H45.653V54.695Zm0,2.97v2.354H45.653V57.665Zm0,3.9V62.99H45.653V61.564Zm0,2.97v2.352H45.653V64.535ZM26.765,48.166H24.354V69.486h2.41V48.166Zm22.839,0H47.2V69.486H49.6Zm2.71,1.085h3.314c.094-1.27.275-2.6.484-4a.773.773,0,1,1,1.53.228c-.21,1.367-.372,2.561-.469,3.768h6.135c-.143-1.2-.356-2.376-.613-3.8a.769.769,0,0,1,1.513-.272c.266,1.466.51,2.827.651,4.071h3.32c.165-1.713.4-3.264.629-4.881-.315-.2.05-.169-.685-.181a4.729,4.729,0,0,1-.782-.063c-1.091-.213-1.923-.919-1.375-3.739a12.6,12.6,0,0,1,.619-2.052,3.68,3.68,0,0,0,.341-1.26c-.063-1.367.741-1.66,1.707-2.166a12.288,12.288,0,0,0-1.285-2.78c-.237.7-.55,1.423-.879,2.176a16.35,16.35,0,0,0-1.314,3.877,2.283,2.283,0,0,1,.254,1.069v1.063c0,4.912-10.334,4.794-10.334,0V39.253a2.165,2.165,0,0,1,.419-1.319,23.7,23.7,0,0,0-.854-3.395,25.916,25.916,0,0,1-.713-2.682c-.169-.041-.338-.09-.5-.147a13.08,13.08,0,0,0-2.217,7.438c0,.641.031,1.288.087,1.951.982-1.507,2.751-1.8,3.3-.113.838,2.567-.5,2.974-1.776,4.709-.269.363-.422.8-.782,1.22.1.76.2,1.539.274,2.336ZM51.721,44.6c.285-.375.554-.672.791-.938a1.867,1.867,0,0,0,.607-2.245,1.649,1.649,0,0,0-.572.595,5.009,5.009,0,0,1-.988,1.423C51.612,43.817,51.665,44.206,51.721,44.6ZM59.85,22.566a2.591,2.591,0,0,1,.91,3.064,1.2,1.2,0,0,0,1.022.266.94.94,0,0,0,.576-.441.953.953,0,0,0-.356-1.3.77.77,0,0,1-.232-1.125.949.949,0,1,0-1.6-1.009Zm-.072,4.271a2.577,2.577,0,0,1-1.541.426l-.288.5a2.479,2.479,0,0,1-2.27,1.244c-.707,1.329-.169,3.1.435,5.087.281.919.572,1.882.775,2.877a10.277,10.277,0,0,1,6.709,0c.072.022.143.047.216.075a22.111,22.111,0,0,1,1.241-3.355c1.116-2.563,2.045-4.7-1.46-6.247l-.929-.244a2.5,2.5,0,0,1-2.435-.1Zm-3-.113a2.586,2.586,0,0,1-.757-3.158c-.441-.254-.757-.52-1.239-.39a.95.95,0,0,0-.15,1.779.767.767,0,0,1,.334,1.1.951.951,0,0,0,1.075,1.375c.422-.113.545-.382.736-.71Zm2.316-2.785a1.043,1.043,0,1,0,0,1.476A1.044,1.044,0,0,0,59.09,23.939Zm9.937,12.5c-.341.175-.576.319-.563.572.05,1.069-.7,2.192-.985,3.664-.3,1.551-.122,1.885.153,1.938.382.072.9-.007,1.394.119A19.684,19.684,0,0,0,69.027,36.439ZM27.559,43.877a4.558,4.558,0,0,0,1.416-.206,1.194,1.194,0,0,0,.544-.275,1.435,1.435,0,0,0-.453-1.7,1.519,1.519,0,0,1-.52-.963c-.075-2.389-.61-1.57-.61-3.127a3.543,3.543,0,0,0-.554-.222A28.506,28.506,0,0,0,27.559,43.877Zm16.476-3.248a.766.766,0,0,1,.722-.244,13.751,13.751,0,0,0-1.031-6.363c-.938.719.472,3.183-.863,5.137C42.117,40.254,43.379,41.36,44.036,40.629ZM62.889,31.6a.774.774,0,1,1-1.013-1.166,2.386,2.386,0,0,1,3.361.053v0a.772.772,0,1,1-1.091,1.091h0A.86.86,0,0,0,62.889,31.6Zm-5.59,0a.774.774,0,1,1-1.013-1.166,2.385,2.385,0,0,1,3.361.053l0,0a.772.772,0,1,1-1.091,1.091A.86.86,0,0,0,57.3,31.6ZM38.13,31a.769.769,0,1,1-1.065-1.11,2.348,2.348,0,0,1,3.374.031.769.769,0,1,1-1.11,1.065A.824.824,0,0,0,38.13,31Zm-5.438.007a.774.774,0,1,1-1.013-1.166,2.345,2.345,0,0,1,3.3.053.772.772,0,1,1-1.091,1.091v0A.817.817,0,0,0,32.693,31.008Zm21.532-2.558a2.485,2.485,0,0,1-.907-1.679,4.587,4.587,0,0,0-2.507-.184A4.681,4.681,0,0,0,53.79,30.2,4.409,4.409,0,0,1,54.225,28.451Zm3.287,11.433a.769.769,0,0,1,1.435-.553l.435,1.113A.769.769,0,0,1,57.946,41Zm4.027-.553a.769.769,0,0,1,1.435.553L62.539,41a.769.769,0,0,1-1.435-.556Zm-1.186-1.385a7.914,7.914,0,0,0-2.986.488c-.387.143-.747.356-.747.82v1.063c0,1.532,2.217,2.1,3.659,2.1s3.586-.532,3.586-2.1V39.253c0-.445-.3-.678-.707-.8A10.759,10.759,0,0,0,60.353,37.946ZM66.7,27.619a3.369,3.369,0,0,1,1.041,2.561,4.675,4.675,0,0,0,2.917-3.592A4.627,4.627,0,0,0,66.7,27.619ZM32.805,39.2a.769.769,0,1,1,1.435-.556l.435,1.11a.77.77,0,0,1-1.438.553Zm4.012-.557a.769.769,0,1,1,1.435.556L37.82,40.3a.77.77,0,0,1-1.438-.553Zm-4.624-2.35a10.227,10.227,0,0,1,6.679,0c.072.022.143.047.213.075a24.5,24.5,0,0,1,1.345-3.586c1.057-2.442,1.81-4.48-1.563-5.968a11.6,11.6,0,0,0-1.716-.39,10.311,10.311,0,0,0-1.7-.109.763.763,0,0,1-.76-.435.79.79,0,0,1-.544.075c-.131.675-.84.61-1.37.844-2.67,1.394-2.279,3.5-1.547,5.975C31.568,33.935,31.939,35.047,32.193,36.289Zm3.445.978a7.91,7.91,0,0,0-2.97.484c-.119.044-.516.235-.516.288a.65.65,0,0,0-.228.525v1.057c0,1.525,2.207,2.086,3.64,2.089s3.57-.532,3.57-2.089V38.565c0-.441-.3-.675-.7-.8A10.8,10.8,0,0,0,35.638,37.268Zm-6.565-7.729a4.057,4.057,0,0,1,.966-2.586,4.629,4.629,0,0,0-3.9-1A4.654,4.654,0,0,0,29.073,29.539Zm12.891-2.554A3.347,3.347,0,0,1,43,29.527a4.654,4.654,0,0,0,2.9-3.57A4.6,4.6,0,0,0,41.963,26.985Zm-.578,7.456c-.015.041-.034.085-.05.125m-.489,1.276c-.015.044-.028.087-.044.131m-.041.128c-.015.044-.029.087-.041.131" transform="translate(0 0)"/>
    </g>
  </g>
</svg>
