<svg xmlns="http://www.w3.org/2000/svg" width="86.369" height="86.369" viewBox="0 0 86.369 86.369">
  <g id="Grupo_1213271" data-name="Grupo 1213271" transform="translate(-7420.398 7573.566)">
    <g id="Grupo_1211747" data-name="Grupo 1211747" transform="translate(7420.399 -7573.566)">
      <g id="Grupo_1099347" data-name="Grupo 1099347" transform="translate(0 0)">
        <g id="Grupo_1099341" data-name="Grupo 1099341" transform="translate(0 0)">
          <g id="Rectángulo_402588" data-name="Rectángulo 402588" transform="translate(0 0)" fill="#f4c5c5" stroke="#fff" stroke-width="5">
            <rect width="86.369" height="86.369" rx="14" stroke="none"/>
            <rect x="2.5" y="2.5" width="81.369" height="81.369" rx="11.5" fill="none"/>
          </g>
        </g>
      </g>
    </g>
    <g id="vaca" transform="translate(7434.927 -7569.905)">
      <g id="Grupo_1213269" data-name="Grupo 1213269" transform="translate(0.739 13.272)">
        <path id="Trazado_1037861" data-name="Trazado 1037861" d="M59.419,90.128v3.388a2.855,2.855,0,0,1-1.133,2.277L54.819,98.42a2.839,2.839,0,0,1-1.264.542l-4.693.77a16.4,16.4,0,0,0-13.6,14l-.317,2.359c-13.372-2.955-20.551-10.077-24.33-17.682l-.023-.046C6.622,90.335,6.429,81.776,6.732,77.014l9.738.028,17.7-4.658,5.062.822a2.869,2.869,0,0,1,2.158,1.668l.824,1.87a6.163,6.163,0,0,0,2.433,2.777l6.787,4.134,6.616,4.028a2.865,2.865,0,0,1,1.373,2.444Z" transform="translate(-6.635 -66.541)" fill="#fff2e3"/>
        <path id="Trazado_1037862" data-name="Trazado 1037862" d="M58.462,135.438,55.54,133.66a3.009,3.009,0,0,1,.314,1.34v3.584a3.02,3.02,0,0,1-1.2,2.409l-3.668,2.778a2.993,2.993,0,0,1-1.337.574l-4.964.814A17.357,17.357,0,0,0,31.362,155.9a35.932,35.932,0,0,1-3.376-1.525l.917-.917a1.062,1.062,0,0,0,0-1.5l-9.266-9.266a1.062,1.062,0,0,0-1.5,0l-1.583,1.583a32.32,32.32,0,0,1-2.675-4.826,36.34,36.34,0,0,1-3.052-12.3,1.062,1.062,0,0,0-1.045-1l-1.6-.023A1.061,1.061,0,0,0,7.1,127.241a39.675,39.675,0,0,0,3.316,13.58,35.9,35.9,0,0,0,3.459,6.122l-.467.467a1.062,1.062,0,0,0,0,1.5l9.266,9.266a1.062,1.062,0,0,0,1.5,0l1.057-1.057a38.353,38.353,0,0,0,3.8,1.848,1.872,1.872,0,0,1,1.129,1.978h0l-.185,1.38a47.092,47.092,0,0,0,5.376,1.516l.316-2.358a16.4,16.4,0,0,1,13.6-14l4.694-.77a2.831,2.831,0,0,0,1.263-.541l3.467-2.627a2.856,2.856,0,0,0,1.133-2.277v-3.388a2.865,2.865,0,0,0-1.372-2.444Z" transform="translate(-7.051 -114.295)" fill="#fee7c9"/>
        <path id="Trazado_1037863" data-name="Trazado 1037863" d="M51.431,83.656c-4.622,15.553-17.259,3.5-25.253,10.9-5.023,4.649-11.148,4.768-15.475,4.015l-.084-.166-.023-.046C6.622,90.335,6.429,81.776,6.732,77.015l9.738.028,17.7-4.658,5.062.822a2.869,2.869,0,0,1,2.158,1.668l.824,1.87a6.163,6.163,0,0,0,2.433,2.777Z" transform="translate(-6.635 -66.541)" fill="#3f5959"/>
        <path id="Trazado_1037864" data-name="Trazado 1037864" d="M22.034,134.412a18.091,18.091,0,0,1-8.518,1.4A35.923,35.923,0,0,1,10.274,130a39.676,39.676,0,0,1-3.316-13.579c-.007-.134-.014-.6-.02-1.238.016-.435.038-.847.063-1.235l3.719.011c-.023,1.207-.053,2.18-.041,2.368a36.366,36.366,0,0,0,3.052,12.3,32.34,32.34,0,0,0,2.675,4.826l1.583-1.584a1.063,1.063,0,0,1,1.5,0Z" transform="translate(-6.904 -103.474)" fill="#384848"/>
        <path id="Trazado_1037865" data-name="Trazado 1037865" d="M114.715,125.79H111.3a2.367,2.367,0,0,1-2.367-2.367v-5.106a2.367,2.367,0,0,1,2.367-2.367h3.412a2.367,2.367,0,0,1,2.367,2.367v5.106A2.367,2.367,0,0,1,114.715,125.79Z" transform="translate(-97.539 -105.253)" fill="#384848"/>
        <path id="Trazado_1037866" data-name="Trazado 1037866" d="M407.616,180.031v3.387a2.859,2.859,0,0,1-1.134,2.277l-3.465,2.627c0-3.8-1-4.437-3.39-7.383-1.622-2-1.415-5.136,0-7.383l6.616,4.029A2.865,2.865,0,0,1,407.616,180.031Z" transform="translate(-354.833 -156.443)" fill="#fcac8d"/>
        <path id="Trazado_1037867" data-name="Trazado 1037867" d="M433.988,197.981v3.387a2.859,2.859,0,0,1-1.133,2.277l-3.466,2.627a7.206,7.206,0,0,0-1.223-4.694l.644-.488a3.02,3.02,0,0,0,1.2-2.409V195.1a3.009,3.009,0,0,0-.314-1.34h0l2.92,1.778A2.864,2.864,0,0,1,433.988,197.981Z" transform="translate(-381.205 -174.393)" fill="#fb946d"/>
        <g id="Grupo_1213263" data-name="Grupo 1213263" transform="translate(11.397 0)">
          <g id="Grupo_1213261" data-name="Grupo 1213261" transform="translate(2.74)">
            <path id="Trazado_1037868" data-name="Trazado 1037868" d="M143.85,23.676a8.413,8.413,0,0,1,.749,7.99,2.812,2.812,0,0,1-2.545,1.7,8.423,8.423,0,0,1-7.85-11.728,2.812,2.812,0,0,1,2.545-1.7,8.413,8.413,0,0,1,7.1,3.738Z" transform="translate(-133.527 -19.937)" fill="#3f5959"/>
            <path id="Trazado_1037869" data-name="Trazado 1037869" d="M161.561,31.663a2.809,2.809,0,0,1-2.545,1.7,8.392,8.392,0,0,1-2.259-.282,2.811,2.811,0,0,0,1.448-1.465,8.423,8.423,0,0,0-5.589-11.446,2.781,2.781,0,0,1,1.094-.24,8.426,8.426,0,0,1,7.851,11.729Z" transform="translate(-150.489 -19.933)" fill="#384848"/>
          </g>
          <g id="Grupo_1213262" data-name="Grupo 1213262" transform="translate(0 7.383)">
            <path id="Trazado_1037870" data-name="Trazado 1037870" d="M114.715,96.048H111.3a2.367,2.367,0,0,1-2.367-2.367V88.575a2.367,2.367,0,0,1,2.367-2.367h3.412a2.367,2.367,0,0,1,2.367,2.367v5.106A2.367,2.367,0,0,1,114.715,96.048Z" transform="translate(-108.936 -86.208)" fill="#fcc16d"/>
            <path id="Trazado_1037871" data-name="Trazado 1037871" d="M137.572,88.58v5.106a2.366,2.366,0,0,1-2.367,2.367h-2.88a2.163,2.163,0,0,1-.329-.024,2.368,2.368,0,0,0,2.036-2.343V88.58A2.366,2.366,0,0,0,132,86.237a2.148,2.148,0,0,1,.329-.024h2.88A2.365,2.365,0,0,1,137.572,88.58Z" transform="translate(-129.427 -86.212)" fill="#fca62f"/>
          </g>
        </g>
        <g id="Grupo_1213266" data-name="Grupo 1213266" transform="translate(37.095 38.395)">
          <g id="Grupo_1213264" data-name="Grupo 1213264" transform="translate(0 0)">
            <path id="Trazado_1037872" data-name="Trazado 1037872" d="M355.338,371.9a4.376,4.376,0,0,0,0-6.066,4.09,4.09,0,0,0-5.9,0l-1.322,1.36-1.322-1.36a4.162,4.162,0,0,0-5.136-.523l-.137.094a4.131,4.131,0,0,0-.625,6.5l6.155,6.33a1.479,1.479,0,0,0,2.133,0Z" transform="translate(-339.601 -364.575)" fill="#fb6a3b"/>
          </g>
          <g id="Grupo_1213265" data-name="Grupo 1213265" transform="translate(6.46)">
            <path id="Trazado_1037873" data-name="Trazado 1037873" d="M406.863,371.9l-6.156,6.329a1.48,1.48,0,0,1-2.132,0l-.989-1.017,5.8-5.958a4.378,4.378,0,0,0,0-6.067,4.01,4.01,0,0,0-.538-.465,4.051,4.051,0,0,1,1.071-.144,4.1,4.1,0,0,1,2.95,1.256A4.378,4.378,0,0,1,406.863,371.9Z" transform="translate(-397.586 -364.575)" fill="#fb5532"/>
          </g>
        </g>
        <g id="Grupo_1213267" data-name="Grupo 1213267" transform="translate(2.302 9.581)">
          <path id="Trazado_1037874" data-name="Trazado 1037874" d="M55.573,139.768a1.06,1.06,0,0,1-1.311.76,37.552,37.552,0,0,1-15.308-8.237,34.593,34.593,0,0,1-8.34-11.662A39.67,39.67,0,0,1,27.3,107.05a1.062,1.062,0,0,1,1.076-1.117l1.6.023a1.062,1.062,0,0,1,1.045,1,36.337,36.337,0,0,0,3.052,12.3A30.86,30.86,0,0,0,41.522,129.6a33.9,33.9,0,0,0,13.7,7.335,1.064,1.064,0,0,1,.745,1.287Z" transform="translate(-27.297 -105.933)" fill="#fc7d4b"/>
        </g>
        <path id="Trazado_1037875" data-name="Trazado 1037875" d="M156.394,335.524l-2.8,2.8a35.754,35.754,0,0,1-6.8-4.255l2.647-2.647A32.654,32.654,0,0,0,156.394,335.524Z" transform="translate(-131.175 -296.724)" fill="#fb5532"/>
        <g id="Grupo_1213268" data-name="Grupo 1213268" transform="translate(8.301 25.834)">
          <path id="Trazado_1037876" data-name="Trazado 1037876" d="M90.721,267.62l-9.266-9.266a1.062,1.062,0,0,1,0-1.5l4.722-4.722a1.062,1.062,0,0,1,1.5,0l9.266,9.266a1.062,1.062,0,0,1,0,1.5l-4.722,4.722A1.062,1.062,0,0,1,90.721,267.62Z" transform="translate(-81.144 -251.819)" fill="#a9d3d8"/>
          <path id="Trazado_1037877" data-name="Trazado 1037877" d="M155.006,320.961l-4.721,4.721a1.062,1.062,0,0,1-1.5,0l-2.3-2.3a1.061,1.061,0,0,0,1.5,0l4.721-4.721a1.061,1.061,0,0,0,0-1.5l2.3,2.3A1.062,1.062,0,0,1,155.006,320.961Z" transform="translate(-139.206 -309.881)" fill="#90bac4"/>
        </g>
      </g>
      <g id="Grupo_1213270" data-name="Grupo 1213270" transform="translate(0 12.437)">
        <path id="Trazado_1037878" data-name="Trazado 1037878" d="M43.665,33.036c-2.7,5.317-7.159,5.206-11.757,4.9a.836.836,0,1,0-.11,1.667c1.043.069,2.117.14,3.192.14,3.18,0,6.367-.621,8.779-3.75a5.852,5.852,0,0,0,1.116,2.3c.312.385.605.736.864,1.045,1.645,1.969,2.268,2.717,2.333,5.35a1.992,1.992,0,0,1-.558.177l-4.693.77a17.259,17.259,0,0,0-11.548,7.444c-.029-.01-.057-.021-.087-.029a37.61,37.61,0,0,1-5.859-2.183l.095-.095a1.9,1.9,0,0,0,0-2.684L23.644,46.3a.836.836,0,0,0-1.182,1.182l1.788,1.788a.227.227,0,0,1,0,.32l-4.722,4.722a.227.227,0,0,1-.32,0L9.942,45.05a.226.226,0,0,1,0-.32l4.722-4.722a.226.226,0,0,1,.32,0l4.648,4.648a.836.836,0,1,0,1.182-1.182l-.825-.825c.293-.238.581-.486.86-.744,1.77-1.639,3.934-2.4,7.018-2.453a.836.836,0,0,0-.015-1.671h-.016a11.615,11.615,0,0,0-8.121,2.9c-.3.274-.6.536-.912.783l-2.635-2.635a1.9,1.9,0,0,0-2.684,0l-.853.853a31.9,31.9,0,0,1-2.051-3.848A35.863,35.863,0,0,1,7.655,24.6l2.916.008h0a.835.835,0,0,0,.213-.028l.514-.135v3.682a3.206,3.206,0,0,0,3.2,3.2h3.412a3.206,3.206,0,0,0,3.2-3.2V23.022a3.206,3.206,0,0,0-3.2-3.2H15.868a7.65,7.65,0,0,1,.453-4.515,1.966,1.966,0,0,1,1.786-1.2,7.585,7.585,0,0,1,7.474,9.333.835.835,0,1,0,1.626.385,9.257,9.257,0,0,0,.127-3.6l.977-.257,4.887.794a2.025,2.025,0,0,1,1.527,1.181l.824,1.87a6.965,6.965,0,0,0,2.763,3.154l1.159.706a.836.836,0,1,0,.869-1.427l-1.159-.706a5.3,5.3,0,0,1-2.1-2.4l-.826-1.873a3.692,3.692,0,0,0-2.788-2.153L28.4,18.291a.838.838,0,0,0-.347.017l-1.134.3A9.237,9.237,0,0,0,18.2,12.437h-.11a3.637,3.637,0,0,0-3.3,2.212,9.336,9.336,0,0,0-.612,5.187,3.208,3.208,0,0,0-2.856,2.877l-.849.223-3.16-.009A1.9,1.9,0,0,0,5.73,22.04l-1.6-.023H4.1a1.89,1.89,0,0,0-1.612.9l-1.653,0h0a.836.836,0,0,0,0,1.671l1.411,0a41.038,41.038,0,0,0,3.351,13.3,37.027,37.027,0,0,0,3.141,5.686,1.881,1.881,0,0,0-.528,1.235,22.345,22.345,0,0,1-3.26-.327.836.836,0,0,0-.286,1.646,23.7,23.7,0,0,0,4.05.36l.3,0L18.026,55.5a1.9,1.9,0,0,0,2.684,0l.616-.616a41.729,41.729,0,0,0,7.69,3.147,17.342,17.342,0,0,0-.477,2.323l-.317,2.359a.836.836,0,0,0,.717.939.85.85,0,0,0,.112.007.836.836,0,0,0,.827-.725l.317-2.359a15.646,15.646,0,0,1,.485-2.291A1.9,1.9,0,0,0,32.127,56.9l.4-1.544a1.9,1.9,0,0,0-.033-1.062,15.587,15.587,0,0,1,10.611-7l4.69-.769a3.68,3.68,0,0,0,1.637-.7l3.466-2.627a3.709,3.709,0,0,0,1.465-2.944V36.859A3.724,3.724,0,0,0,52.584,33.7L43.763,28.33a.836.836,0,1,0-.869,1.427l1.52.926a8.283,8.283,0,0,0-.749,2.353Zm2.518,4.207a5.507,5.507,0,0,1-.335-5.687l5.866,3.572a2.042,2.042,0,0,1,.973,1.731v3.388a2.029,2.029,0,0,1-.8,1.611l-2.2,1.67c-.259-2.394-1.165-3.48-2.65-5.258C46.764,37.95,46.488,37.618,46.183,37.243ZM12.972,23.022A1.533,1.533,0,0,1,14.5,21.491h3.412a1.533,1.533,0,0,1,1.531,1.532v5.106a1.533,1.533,0,0,1-1.531,1.531H14.5a1.533,1.533,0,0,1-1.531-1.531Zm-9.095.9a.222.222,0,0,1,.063-.169.216.216,0,0,1,.167-.069l1.6.023a.227.227,0,0,1,.223.213A37.39,37.39,0,0,0,9.053,36.516a33.465,33.465,0,0,0,2.365,4.374L9.939,42.369a35.465,35.465,0,0,1-2.817-5.158A39.05,39.05,0,0,1,3.877,23.927ZM30.9,54.937l-.4,1.544a.229.229,0,0,1-.108.142.213.213,0,0,1-.168.022,40.684,40.684,0,0,1-7.67-3l1.525-1.525a38.949,38.949,0,0,0,6.654,2.541.228.228,0,0,1,.163.275Z" transform="translate(0 -12.437)"/>
        <path id="Trazado_1037879" data-name="Trazado 1037879" d="M346.232,364.295h-.92a5.229,5.229,0,0,0-1.019-5.71,4.926,4.926,0,0,0-7.1,0l-.723.744-.723-.744a5.019,5.019,0,0,0-6.207-.63l-.137.094a4.962,4.962,0,0,0-.776,7.741h-1.3a.836.836,0,0,0,0,1.671h2.919l4.555,4.684a2.314,2.314,0,0,0,3.331,0l6.009-6.18h2.085a.836.836,0,0,0,0-1.671Zm-16.381.356a3.45,3.45,0,0,1-1.043-2.757,3.4,3.4,0,0,1,1.542-2.467l.137-.094a3.077,3.077,0,0,1,1.737-.507,3.271,3.271,0,0,1,2.327.923l1.322,1.36a.836.836,0,0,0,1.2,0l1.322-1.36a3.255,3.255,0,0,1,4.7,0,3.544,3.544,0,0,1,.3,4.546h-5.3a.835.835,0,0,0-.765.5l-.2.463-.621-2.153A.836.836,0,0,0,335,362.9l-1.789,2.893h-2.248Zm7.089,6.33a.643.643,0,0,1-.934,0l-3.422-3.519h1.089a.836.836,0,0,0,.711-.4l1.042-1.686.738,2.558a.836.836,0,0,0,.747.6l.056,0a.835.835,0,0,0,.764-.5l.913-2.075h3.173Z" transform="translate(-290.124 -318.68)"/>
        <path id="Trazado_1037880" data-name="Trazado 1037880" d="M134.768,286.138l-4.3-4.3a.836.836,0,1,0-1.182,1.182l4.3,4.3a.836.836,0,1,0,1.182-1.182Z" transform="translate(-114.668 -251.61)"/>
        <path id="Trazado_1037881" data-name="Trazado 1037881" d="M148.7,339.572a.838.838,0,1,0,1.185.012l-.008-.008A.831.831,0,0,0,148.7,339.572Z" transform="translate(-131.914 -302.912)"/>
        <path id="Trazado_1037882" data-name="Trazado 1037882" d="M165.132,356a.838.838,0,1,0,1.185.012l-.008-.008A.831.831,0,0,0,165.132,356Z" transform="translate(-146.515 -317.513)"/>
        <path id="Trazado_1037883" data-name="Trazado 1037883" d="M257.659,137.875a2.818,2.818,0,0,0-2.757,2.26.836.836,0,1,0,1.639.326,1.14,1.14,0,0,1,2.236,0,.836.836,0,0,0,1.639-.326A2.818,2.818,0,0,0,257.659,137.875Z" transform="translate(-226.49 -123.9)"/>
        <path id="Trazado_1037884" data-name="Trazado 1037884" d="M431.819,215.879a.836.836,0,0,0-.307-1.141l-.871-.5a.836.836,0,1,0-.834,1.448l.871.5a.835.835,0,0,0,1.141-.307Z" transform="translate(-381.552 -191.655)"/>
      </g>
    </g>
  </g>
</svg>
