<svg xmlns="http://www.w3.org/2000/svg" width="100" height="100" viewBox="0 0 100 100">
  <g id="Grupo_1211824" data-name="Grupo 1211824" transform="translate(-180 -843)">
    <g id="Grupo_1111650" data-name="Grupo 1111650" transform="translate(180 843.006)">
      <g id="Grupo_1112424" data-name="Grupo 1112424">
        <g id="Grupo_1112415" data-name="Grupo 1112415">
          <g id="Grupo_1098742" data-name="Grupo 1098742" transform="translate(0 0)">
            <rect id="Rect치ngulo_400898" data-name="Rect치ngulo 400898" width="100" height="100" rx="50" transform="translate(0 -0.006)" fill="#0a3adb"/>
            <rect id="Rect치ngulo_400907" data-name="Rect치ngulo 400907" width="100" height="100" rx="50" transform="translate(0 -0.006)" fill="none"/>
          </g>
        </g>
      </g>
    </g>
    <g id="pick-up-truck_4168873" transform="translate(192.508 783.394)">
      <g id="Grupo_1211822" data-name="Grupo 1211822" transform="translate(1.098 85.587)">
        <g id="Grupo_1211821" data-name="Grupo 1211821">
          <path id="Trazado_1034225" data-name="Trazado 1034225" d="M119.006,116.582a9.161,9.161,0,0,0-9.83,9.683l18.195,1.465C127.371,122.3,124.435,116.582,119.006,116.582Z" transform="translate(-94.285 -112.97)" fill="#b98080"/>
          <path id="Trazado_1034226" data-name="Trazado 1034226" d="M163.492,115.648a9.853,9.853,0,0,0-2.2.25,9.831,9.831,0,0,1,7.633,9.58l1.783,1.465,2.611-1.465A9.83,9.83,0,0,0,163.492,115.648Z" transform="translate(-138.771 -112.183)" fill="#ae6c6c"/>
          <path id="Trazado_1034227" data-name="Trazado 1034227" d="M79.283,136.79a7.01,7.01,0,0,0-2.2.06,6.978,6.978,0,0,0-4.778,6.622l12.486,1.464C84.794,141.084,83.135,136.79,79.283,136.79Z" transform="translate(-62.817 -130.177)" fill="#b98080"/>
          <path id="Trazado_1034228" data-name="Trazado 1034228" d="M107.133,135.139a6.967,6.967,0,0,0-2.2.355,6.977,6.977,0,0,1,4.778,6.62l1.936,1.465,2.458-1.465A6.975,6.975,0,0,0,107.133,135.139Z" transform="translate(-90.666 -128.82)" fill="#ae6c6c"/>
          <path id="Trazado_1034229" data-name="Trazado 1034229" d="M51.825,182.767H77.656l1.465,9.576-1.465,8.112H51.825a1.464,1.464,0,0,1-1.465-1.465V184.232A1.464,1.464,0,0,1,51.825,182.767Z" transform="translate(-44.083 -169.472)" fill="#c3ddff"/>
          <path id="Trazado_1034230" data-name="Trazado 1034230" d="M236.742,182.767v17.688h4.394l1.465-12.966-1.465-4.722Z" transform="translate(-203.169 -169.472)" fill="#a4ccff"/>
          <path id="Trazado_1034231" data-name="Trazado 1034231" d="M293.82,121.507V108.945a3.661,3.661,0,0,0-3.661-3.661H285.4l-4.9-11.11a3.661,3.661,0,0,0-3.351-2.185H269.67a2.929,2.929,0,0,0-2.929,2.929v28.054h25.614A1.464,1.464,0,0,0,293.82,121.507Z" transform="translate(-228.775 -91.989)" fill="#edf4ff"/>
          <path id="Trazado_1034232" data-name="Trazado 1034232" d="M321.177,94.174l4.9,11.11H329L326.685,96.7l-1.114-2.529a3.661,3.661,0,0,0-3.35-2.185h-4.394A3.661,3.661,0,0,1,321.177,94.174Z" transform="translate(-272.379 -91.989)" fill="#dbeaff"/>
          <path id="Trazado_1034233" data-name="Trazado 1034233" d="M411.034,182.767H406.64a3.661,3.661,0,0,1,3.661,3.661v12.562a1.465,1.465,0,0,1-1.465,1.465h4.394a1.464,1.464,0,0,0,1.465-1.465V188.913l-1.465-.838,1.465-1.358v-.288A3.661,3.661,0,0,0,411.034,182.767Z" transform="translate(-348.185 -169.472)" fill="#dbeaff"/>
          <path id="Trazado_1034234" data-name="Trazado 1034234" d="M317.1,124.175h-5.778a1.464,1.464,0,0,0-1.465,1.465v5.652a1.464,1.464,0,0,0,1.465,1.465h9.56Z" transform="translate(-265.576 -119.461)" fill="#c3ddff"/>
          <path id="Trazado_1034235" data-name="Trazado 1034235" d="M352.707,124.175h-4.394l3.781,8.581h4.394Z" transform="translate(-298.4 -119.461)" fill="#a4ccff"/>
          <path id="Trazado_1034236" data-name="Trazado 1034236" d="M332.24,260.318c0-4.153-1.9-7.373-6.054-7.373a7.665,7.665,0,0,0-1.465,0,7.521,7.521,0,0,0,0,14.753,7.668,7.668,0,0,0,1.465,0C330.338,267.69,332.24,264.47,332.24,260.318Z" transform="translate(-273.096 -229.335)" fill="#7a6d79"/>
          <path id="Trazado_1034237" data-name="Trazado 1034237" d="M361.472,252.2a7.549,7.549,0,0,0-1.465.144,7.519,7.519,0,0,1,0,14.751,7.519,7.519,0,1,0,1.465-14.894Z" transform="translate(-308.382 -228.74)" fill="#685e68"/>
          <path id="Trazado_1034238" data-name="Trazado 1034238" d="M102.438,260.318c0-4.153-1.9-7.373-6.054-7.373a7.664,7.664,0,0,0-1.465,0,7.521,7.521,0,0,0,0,14.753,7.667,7.667,0,0,0,1.465,0C100.537,267.69,102.438,264.47,102.438,260.318Z" transform="translate(-76.949 -229.335)" fill="#7a6d79"/>
          <path id="Trazado_1034239" data-name="Trazado 1034239" d="M131.671,252.2a7.549,7.549,0,0,0-1.465.144,7.519,7.519,0,0,1,0,14.751,7.519,7.519,0,1,0,1.465-14.894Z" transform="translate(-112.235 -228.74)" fill="#685e68"/>
          <ellipse id="Elipse_12156" data-name="Elipse 12156" cx="3.496" cy="3.496" rx="3.496" ry="3.496" transform="matrix(0.987, -0.16, 0.16, 0.987, 49.067, 28.097)" fill="#edf4ff"/>
          <ellipse id="Elipse_12157" data-name="Elipse 12157" cx="3.496" cy="3.496" rx="3.496" ry="3.496" transform="matrix(0.987, -0.16, 0.16, 0.987, 15.415, 28.091)" fill="#edf4ff"/>
          <path id="Trazado_1034240" data-name="Trazado 1034240" d="M75.161,354.887h-64A3.661,3.661,0,0,0,7.5,358.548v4.412a1.464,1.464,0,0,0,1.465,1.465H77.358a1.464,1.464,0,0,0,1.465-1.465v-4.412A3.661,3.661,0,0,0,75.161,354.887Z" transform="translate(-7.5 -316.385)" fill="#bbf49b"/>
          <path id="Trazado_1034241" data-name="Trazado 1034241" d="M453.894,354.887H449.5a3.661,3.661,0,0,1,3.661,3.661v4.412a1.464,1.464,0,0,1-1.465,1.465h4.394a1.465,1.465,0,0,0,1.465-1.465v-4.412A3.661,3.661,0,0,0,453.894,354.887Z" transform="translate(-384.768 -316.385)" fill="#9be69d"/>
        </g>
      </g>
      <g id="Grupo_1211823" data-name="Grupo 1211823" transform="translate(0 84.488)">
        <path id="Trazado_1034242" data-name="Trazado 1034242" d="M343.229,272.172a4.595,4.595,0,1,0,4.595,4.595A4.6,4.6,0,0,0,343.229,272.172Zm0,6.993a2.4,2.4,0,1,1,2.4-2.4A2.4,2.4,0,0,1,343.229,279.165Z" transform="translate(-289.04 -244.685)"/>
        <path id="Trazado_1034243" data-name="Trazado 1034243" d="M113.427,272.172a4.595,4.595,0,1,0,4.595,4.595A4.6,4.6,0,0,0,113.427,272.172Zm0,6.993a2.4,2.4,0,1,1,2.4-2.4A2.4,2.4,0,0,1,113.427,279.165Z" transform="translate(-92.893 -244.685)"/>
        <path id="Trazado_1034244" data-name="Trazado 1034244" d="M55.3,87.329a4.762,4.762,0,0,0-4.356-2.841H41.994a4.032,4.032,0,0,0-4.027,4.027v9.267H36.692a10.925,10.925,0,0,0-18.282-6.931,8.071,8.071,0,0,0-8.841,6.931H8.84a2.566,2.566,0,0,0-2.563,2.563v2.735a1.1,1.1,0,0,0,2.2,0v-2.735a.367.367,0,0,1,.366-.366H37.967v15.492H29.078a8.615,8.615,0,0,0-17.09,0H8.84a.367.367,0,0,1-.366-.366v-7.237a1.1,1.1,0,1,0-2.2,0V115.1a2.566,2.566,0,0,0,2.563,2.563h3.149a8.606,8.606,0,0,0,2.805,5.322H4.76A4.765,4.765,0,0,0,0,127.75v4.412a2.566,2.566,0,0,0,2.563,2.563H72.42a2.566,2.566,0,0,0,2.563-2.563V127.75a4.765,4.765,0,0,0-4.76-4.76h-10.3a8.606,8.606,0,0,0,2.805-5.322h3.41a2.566,2.566,0,0,0,2.563-2.563V102.542a4.765,4.765,0,0,0-4.76-4.76H59.9ZM25.819,90.15a8.743,8.743,0,0,1,8.66,7.633H25.562a8.093,8.093,0,0,0-4.543-6.2A8.672,8.672,0,0,1,25.819,90.15ZM17.565,93a5.886,5.886,0,0,1,5.773,4.778H11.793A5.885,5.885,0,0,1,17.565,93ZM54.188,122.99a6.421,6.421,0,1,1,6.421-6.421A6.428,6.428,0,0,1,54.188,122.99ZM40.163,88.516a1.833,1.833,0,0,1,1.831-1.831H50.94a2.564,2.564,0,0,1,2.345,1.529l.435.988H46.844a2.566,2.566,0,0,0-2.563,2.563v5.652a2.566,2.566,0,0,0,2.563,2.563h1.332a1.1,1.1,0,1,0,0-2.2H46.844a.367.367,0,0,1-.366-.366V91.765a.367.367,0,0,1,.366-.366h7.845L57.5,97.783H52.963a1.1,1.1,0,1,0,0,2.2H63.947a2.566,2.566,0,0,1,2.563,2.563v.288h-4.8a1.1,1.1,0,0,0,0,2.2h4.8V115.1a.367.367,0,0,1-.366.366h-3.41a8.615,8.615,0,0,0-17.09,0h-5.48ZM14.113,116.569a6.421,6.421,0,1,1,6.421,6.421A6.428,6.428,0,0,1,14.113,116.569Zm31.531,1.1a8.606,8.606,0,0,0,2.805,5.322h-10.6a1.1,1.1,0,0,0,0,2.2H70.224a2.566,2.566,0,0,1,2.563,2.563v4.412a.367.367,0,0,1-.366.366H2.563a.367.367,0,0,1-.366-.366V127.75a2.566,2.566,0,0,1,2.563-2.563H33.094a1.1,1.1,0,0,0,0-2.2H26.273a8.606,8.606,0,0,0,2.805-5.322Z" transform="translate(0 -84.488)"/>
        <path id="Trazado_1034245" data-name="Trazado 1034245" d="M363.605,296.046a1.1,1.1,0,1,0,1.1,1.1A1.1,1.1,0,0,0,363.605,296.046Z" transform="translate(-309.417 -265.063)"/>
        <path id="Trazado_1034246" data-name="Trazado 1034246" d="M133.8,296.046a1.1,1.1,0,1,0,1.1,1.1A1.1,1.1,0,0,0,133.8,296.046Z" transform="translate(-113.271 -265.063)"/>
      </g>
    </g>
  </g>
</svg>
