<svg xmlns="http://www.w3.org/2000/svg" xmlns:xlink="http://www.w3.org/1999/xlink" width="259.002" height="191" viewBox="0 0 259.002 191">
  <defs>
    <filter id="Rectángulo_408557" x="0" y="0" width="259.002" height="191" filterUnits="userSpaceOnUse">
      <feOffset dx="6" dy="7" input="SourceAlpha"/>
      <feGaussianBlur stdDeviation="3" result="blur"/>
      <feFlood flood-opacity="0.161"/>
      <feComposite operator="in" in2="blur"/>
      <feComposite in="SourceGraphic"/>
    </filter>
    <clipPath id="clip-path">
      <rect id="Rectángulo_409006" data-name="Rectángulo 409006" width="241" height="173" rx="7" transform="translate(256 -10757)" fill="#fff" stroke="#707070" stroke-width="1" opacity="0.78"/>
    </clipPath>
  </defs>
  <g id="Grupo_1212499" data-name="Grupo 1212499" transform="translate(-1122 -849)">
    <g id="Grupo_1211660" data-name="Grupo 1211660" transform="translate(-54.233 -5689.934)">
      <g transform="matrix(1, 0, 0, 1, 1176.23, 6538.93)" filter="url(#Rectángulo_408557)">
        <rect id="Rectángulo_408557-2" data-name="Rectángulo 408557" width="241.002" height="173" rx="8" transform="translate(3 2)" fill="#afa491"/>
      </g>
    </g>
    <g id="Enmascarar_grupo_1098818" data-name="Enmascarar grupo 1098818" transform="translate(869.051 11608)" clip-path="url(#clip-path)">
      <g id="_12831738_1821" data-name="12831738_1821" transform="translate(230 -10785.703)">
        <rect id="Rectángulo_408965" data-name="Rectángulo 408965" width="302.669" height="186.362" fill="#f7f1da"/>
        <circle id="Elipse_12188" data-name="Elipse 12188" cx="27.667" cy="27.667" r="27.667" transform="translate(187.403 35.175)" fill="#fff" opacity="0.39"/>
        <circle id="Elipse_12189" data-name="Elipse 12189" cx="33.83" cy="33.83" r="33.83" transform="translate(181.24 29.012)" fill="#fff" opacity="0.39"/>
        <circle id="Elipse_12190" data-name="Elipse 12190" cx="21.641" cy="21.641" r="21.641" transform="translate(193.429 41.201)" fill="#fff"/>
        <path id="Trazado_1036963" data-name="Trazado 1036963" d="M279.271,389.5V376.795h-8.4V389.5h-2.734v-4.658l-3.915-3.97V340.814H261.28v2.85H236.787v-2.85h-2.945v30l-4.557,3.717v8.952H224V364.286l-4.2-1.915V351.739H207.95v5.225l-4.2-1.915v28.433h-2.037v-2.434h-3.828v2.434h-4.611v-5.469h-1.441V372.07h-5.99v-1.579h-3.334v1.579h-1.3v5.942h-1.441V403.4h-2.7v-4.808H173.8V403.4h-1.579V364.874H169.85v-2.923h-4.508v2.923h-2.789v-24.58l-28.272,14.754v43.539h-4.323V380h-1.146v-1.244H125.54V380h-1.108V355.064h-4.01v-7.481H119.3v7.481h-4.01v16.113h-3.7v5.94h-3.675v-60.64h-3.788v-1.234H98.28v1.234H94.492v4.151h-11.3v-2.455H79.92v2.455H77.532V389.5H72.718v-2.971h-3.4V380H67.16v-1.628h-2.1V380H62.9V343.664H60.645v-1.351H57.372v1.351H46.906v-4.631h-7.04v-6.709H38.261v6.709H36.594v4.631H32.519v42.869H28.69V389.5H24.842V381.7H0v45.092H302.555V389.5Z" transform="translate(0 -283.45)" fill="#e5dbcf"/>
        <g id="Grupo_1212454" data-name="Grupo 1212454" transform="translate(261.995 113.991)">
          <path id="Trazado_1036964" data-name="Trazado 1036964" d="M2603.965,1159.2a16.484,16.484,0,0,1-2.266,5.729l10.144.937a10.388,10.388,0,0,1-1.206-2.163l-.006-.014-.017-.047a14.722,14.722,0,0,1-.8-3.537c-.57-5.712-.584-10.2-.584-10.2a8.434,8.434,0,0,1,.308-1.661c1.131-3.433,7.133-9.4,7.227-9.491h0q.74-.744,1.479-1.49l-.337-.541a24.9,24.9,0,0,0-3.447,2.412,29.065,29.065,0,0,1,1.27-6.17l-.438-.342a45.871,45.871,0,0,0-2.269,7.7c-1.443,1.221-2.728,2.38-3.452,2.948a6.27,6.27,0,0,1-.5.406l-.134.095-.005,0,.955-13.483c-.243.154-.485.306-.726.461a1.329,1.329,0,0,1-1.545-.142l-1.541,13.4c-.455,2.634-.99,2.546-1.185,2.407l-.076-.072a15.845,15.845,0,0,0-1.734-1.4c-.136-1.356-.634-4.562-2.4-6.66l-.237.342a9.032,9.032,0,0,1,1.193,5.385,29.117,29.117,0,0,0-3.389-1.712c-.17-.073-.427.713-.427.713,4.538,2.912,6.037,6.315,6.53,8.343A21.863,21.863,0,0,1,2603.965,1159.2Z" transform="translate(-2597.823 -1130.284)" fill="#664334"/>
        </g>
        <path id="Trazado_1036965" data-name="Trazado 1036965" d="M2479.031,895.708a2.248,2.248,0,0,0,.282.631.9.9,0,0,0-.151,0,2.274,2.274,0,0,0-1.308.911,2.463,2.463,0,0,0,1.024.614q0,.056-.006.112a2.243,2.243,0,0,0,.572,1.563,2.622,2.622,0,0,0-.22,1.306,2.109,2.109,0,0,0,1.525-.461.881.881,0,0,0,.089-.111c.073.009.146.015.221.017a2.246,2.246,0,0,0,.832-.134,4.487,4.487,0,0,0,.52,1.205,2.677,2.677,0,0,0-.2,1.265,2.5,2.5,0,0,0,1.131-.185,4.479,4.479,0,0,0,1.137.7,1.884,1.884,0,0,0-.316.87,1.5,1.5,0,0,0,1.127-.12.826.826,0,0,0,.3-.443,4.531,4.531,0,0,0,.519.045,4.473,4.473,0,0,0,1.658-.267,2.1,2.1,0,0,0,.492.491,1.566,1.566,0,0,0,.448-.965,4.527,4.527,0,0,0,.777-.65.6.6,0,0,0,.037.072,1.618,1.618,0,0,0,.994.545,1.5,1.5,0,0,0-.046-1.133.818.818,0,0,0-.367-.3,4.456,4.456,0,0,0,.4-.874,3.5,3.5,0,0,0,2.309.288.829.829,0,0,0,.487.338,1.617,1.617,0,0,0,1.079-.346,1.877,1.877,0,0,0-.381-.492,3.521,3.521,0,0,0,.528-.427l.076-.013a.6.6,0,0,0,.029.053,1.618,1.618,0,0,0,.994.545,1.67,1.67,0,0,0,.039-.948,3.851,3.851,0,0,0,1.219-.965,1.9,1.9,0,0,0,.836.362,1.5,1.5,0,0,0-.046-1.132.753.753,0,0,0-.194-.2,1.054,1.054,0,1,1,1.986-.7,3.849,3.849,0,0,0,.847-.071.694.694,0,0,0,.073.166,1.617,1.617,0,0,0,.994.545,1.55,1.55,0,0,0-.017-1.082,3.849,3.849,0,0,0,.646-.43,1.618,1.618,0,0,0,.993.544,1.5,1.5,0,0,0-.046-1.132.758.758,0,0,0-.212-.216,3.817,3.817,0,0,0,.659-1.966,2.163,2.163,0,0,0,.4.11,1.5,1.5,0,0,0-.046-1.132.775.775,0,0,0-.233-.231c.114-.036.226-.077.336-.123a2.973,2.973,0,0,0,.521,1.215.865.865,0,0,0-.063.074,2.274,2.274,0,0,0-.2,1.581,2.109,2.109,0,0,0,1.459-.64c.008-.011.016-.023.024-.035a2.975,2.975,0,0,0,.947.24,3.842,3.842,0,0,0,.446,3.361,1.166,1.166,0,0,0,.161.808,1.593,1.593,0,0,0,.767.543,2.177,2.177,0,0,0-.057.525,1.5,1.5,0,0,0,1.1-.259.649.649,0,0,0,.077-.085,3.839,3.839,0,0,0,2.222.017,1.021,1.021,0,0,0,.185.279,2.275,2.275,0,0,0,1.525.463,2.183,2.183,0,0,0-.333-1.48,3.851,3.851,0,0,0,.565-.583,3,3,0,0,0,.652,1.135,1.782,1.782,0,0,0,.221.986,1.851,1.851,0,0,0,.6-.354,2.98,2.98,0,0,0,.91.305.812.812,0,0,0,.056.692,1.618,1.618,0,0,0,.994.545,1.5,1.5,0,0,0-.046-1.132.68.68,0,0,0-.075-.1,3,3,0,0,0,.351-.073,2.489,2.489,0,0,0,1.288.631,2.289,2.289,0,0,0,.038-1.4,3,3,0,0,0,.237-.264,3.07,3.07,0,0,0,.652.2,2.662,2.662,0,0,0,.133-.671,1.167,1.167,0,0,0,.766.041c.68-.223,1.074-1.178,1.074-1.178a2.11,2.11,0,0,0-1.563-.313,1.1,1.1,0,0,0-.423.272c0-.042.006-.084.007-.126a2.97,2.97,0,0,0-.009-.32,2.71,2.71,0,0,0,.775-.982,2.372,2.372,0,0,0-1.242-.406,3.017,3.017,0,0,0-.52-.61q.16-.153.309-.319a1.146,1.146,0,0,0,.85.462,2.275,2.275,0,0,0,1.41-.744,2.109,2.109,0,0,0-1.364-.824.882.882,0,0,0-.12.005,5.655,5.655,0,0,0,.47-1.164,1.072,1.072,0,0,0,.432-.028c.687-.2,1.107-1.146,1.107-1.146a2.667,2.667,0,0,0-.624-.3,2.258,2.258,0,0,0,1.219-1.221.948.948,0,0,0,.2-.035c.686-.2,1.107-1.146,1.107-1.146a2.363,2.363,0,0,0-1.254-.405,2.253,2.253,0,0,0-.159-.359,1.587,1.587,0,0,0,.212-.847,1.635,1.635,0,0,0-.76.19c-.037-.03-.075-.06-.114-.088a1.056,1.056,0,0,0,.213-.33,2.274,2.274,0,0,0-.231-1.577,2.109,2.109,0,0,0-1.231,1.012,1.088,1.088,0,0,0-.06.476,2.246,2.246,0,0,0-.668.1,3.828,3.828,0,0,0,.344-1.487,3.885,3.885,0,0,0-.013-.441.677.677,0,0,0,.453-.589,1.365,1.365,0,0,0-.571-.08,3.812,3.812,0,0,0-.325-.815,1.478,1.478,0,0,0,.815-.12,1.14,1.14,0,0,0-.986-.661.872.872,0,0,0,.386-.513,2.357,2.357,0,0,0-1.112-.057l.015-.019a2.274,2.274,0,0,0,.219-1.579,2.108,2.108,0,0,0-1.465.627.9.9,0,0,0-.1.159,2.955,2.955,0,0,0-.434-.879,2.247,2.247,0,0,0-1.016,1.032l-.064.005a2.873,2.873,0,0,0-.3-1.039,2.11,2.11,0,0,0-1.231,1.012,1.074,1.074,0,0,0-.063.417,3.06,3.06,0,0,0-.355-.646,2.5,2.5,0,0,0-.868.745l-.024-.04a.806.806,0,1,0-1.022-1.1,6.092,6.092,0,0,0,1.078-.867,1.163,1.163,0,0,0,.871.118c.686-.2,1.107-1.146,1.107-1.146a2.579,2.579,0,0,0-.935-.384,5.962,5.962,0,0,0,.357-.8.919.919,0,0,0,.093.071,2.274,2.274,0,0,0,1.59.1,2.192,2.192,0,0,0-.652-1.358,2.839,2.839,0,0,0,.859-.724,2.125,2.125,0,0,0-1.413-.705,1.135,1.135,0,0,0,.295-.524,2.273,2.273,0,0,0-.47-1.523,2.6,2.6,0,0,0-.414.268,6.061,6.061,0,0,0-.628-1.14,3,3,0,0,0,.75-.494,2.109,2.109,0,0,0-1.3-.928,1.153,1.153,0,0,0-.656.147l-.042-.033a.993.993,0,0,0,.441-.432,1.95,1.95,0,0,0-.094-1.363,1.808,1.808,0,0,0-1.119.783.959.959,0,0,0-.081.456c-.155-.083-.313-.161-.475-.231a3.373,3.373,0,0,0,.7-1.832.9.9,0,0,0,.306-.123,1.949,1.949,0,0,0,.619-1.217,2.041,2.041,0,0,0-1.11-.024,3.4,3.4,0,0,0-.967-1.426.944.944,0,0,0,.022-.172,2.274,2.274,0,0,0-.745-1.409,2.536,2.536,0,0,0-.692.843,3.372,3.372,0,0,0-.4-.074,2.676,2.676,0,0,0-.7-1.069,2.228,2.228,0,0,0-.81,1.223l-.125.046a.992.992,0,0,0,.038-.236,2.275,2.275,0,0,0-.745-1.409,2.369,2.369,0,0,0-.773,1.06,2.994,2.994,0,0,0-.81-.442,2.549,2.549,0,0,0-.292,1.025,9.009,9.009,0,0,0-.916-.859,1.081,1.081,0,0,0,.116-.437,2.274,2.274,0,0,0-.745-1.409,2.471,2.471,0,0,0-.729.931,8.852,8.852,0,0,0-.85-.408,3.023,3.023,0,0,0-.14-.835,2.568,2.568,0,0,0-.968.372.776.776,0,0,0-.076-.663,1.545,1.545,0,0,0-.968-.484,1.481,1.481,0,0,0,.053,1.028,9.061,9.061,0,0,0-1.079-.1c-.216-.006-.43,0-.642.005a2.784,2.784,0,0,0-.116-1.173,2.213,2.213,0,0,0-1.312.695,2.887,2.887,0,0,0-.926-.542,2.165,2.165,0,0,0-.226,1.519,8.9,8.9,0,0,0-1.058.452,2.964,2.964,0,0,0-.584-.771,2.385,2.385,0,0,0-.767,1.039,2.914,2.914,0,0,0-1.022-.159,2.279,2.279,0,0,0,.252,1.389q-.285.27-.545.565a3,3,0,0,0-.561-.725,2.109,2.109,0,0,0-.823,1.365,1.115,1.115,0,0,0,.127.519,3.018,3.018,0,0,0-.508-.009,2.631,2.631,0,0,0,.088.9,3.032,3.032,0,0,0-.836-.061,2.11,2.11,0,0,0,.445,1.53.933.933,0,0,0,.129.1c-.009.035-.018.071-.027.107a.974.974,0,0,0-.255-.027,2.275,2.275,0,0,0-1.359.832,2.147,2.147,0,0,0,1.369.735c-.009.128-.016.256-.02.385a8.976,8.976,0,0,0,.057,1.294,3,3,0,0,0-.905.091,2.212,2.212,0,0,0,.625,1.349,2.252,2.252,0,0,0-2.017,1.44,1.137,1.137,0,0,0-.381-.463,2.276,2.276,0,0,0-1.59-.115,2.586,2.586,0,0,0,.3.956,5.294,5.294,0,0,0-2.152.62.815.815,0,0,0-.038-.085,2.275,2.275,0,0,0-1.338-.866,2.331,2.331,0,0,0-.146,1.348l-.01,0a2.274,2.274,0,0,0-1.539.414,2.185,2.185,0,0,0,1.063,1.079,5.289,5.289,0,0,0-.742,2.029,2.412,2.412,0,0,0-1.493-.059,2.11,2.11,0,0,0,.721,1.421,1.166,1.166,0,0,0,.767.162q.031.219.078.432a2.273,2.273,0,0,0-.357.372.823.823,0,0,0-.243-.158,1.81,1.81,0,0,0-1.258.166,1.928,1.928,0,0,0,.534.837,1.839,1.839,0,0,0-.7.662,1.5,1.5,0,0,0,1.066.385.711.711,0,0,0,.191-.064,2.251,2.251,0,0,0,3.308,1.5,1.778,1.778,0,0,0,.083,1.012,1.5,1.5,0,0,0,.954-.611.7.7,0,0,0,.064-.182,5.346,5.346,0,0,0,3.269-.048,2.3,2.3,0,0,0-.018.23,2.24,2.24,0,0,0,.414,1.363,2.1,2.1,0,0,0-.643.265,1.879,1.879,0,0,0,.332.511,4.741,4.741,0,0,0-1.542.283c0-.013.009-.026.012-.039a1.619,1.619,0,0,0-.3-1.093,1.5,1.5,0,0,0-.781.822.823.823,0,0,0,.052.507,3.817,3.817,0,0,0-2.221-.97,1.869,1.869,0,0,0-.323-.88,1.5,1.5,0,0,0-.781.822.674.674,0,0,0-.018.122,3.8,3.8,0,0,0-.809.263,2.782,2.782,0,0,0-.832-.838,2.11,2.11,0,0,0-.567,1.49,1.02,1.02,0,0,0,.1.308l-.031.036a.759.759,0,0,0-.16-.09,1.81,1.81,0,0,0-1.258.166,1.7,1.7,0,0,0,.771.983,3.838,3.838,0,0,0,1.282,4.527,2.236,2.236,0,0,0-.231.44c-.019-.015-.039-.029-.058-.042a2.274,2.274,0,0,0-1.59-.115,2.11,2.11,0,0,0,.721,1.421A1.163,1.163,0,0,0,2479.031,895.708Zm25.877-30.157a.609.609,0,0,0,.092,0l-.047.068C2504.938,865.6,2504.922,865.574,2504.908,865.551Z" transform="translate(-2227.447 -773.549)" fill="#3db038"/>
        <g id="Grupo_1212455" data-name="Grupo 1212455" transform="translate(23.393 109.735)">
          <path id="Trazado_1036966" data-name="Trazado 1036966" d="M244.464,1114.391a14.933,14.933,0,0,0,1.941,5.235l-9.209.65a9.412,9.412,0,0,0,1.135-1.937l.005-.013.016-.042a13.338,13.338,0,0,0,.793-3.189c.628-5.164.729-9.231.729-9.233a7.626,7.626,0,0,0-.246-1.51c-.957-3.132-6.278-8.654-6.362-8.74h0q-.656-.689-1.31-1.379l.316-.483a22.5,22.5,0,0,1,3.075,2.252,26.344,26.344,0,0,0-1.03-5.615l.4-.3a41.574,41.574,0,0,1,1.9,7.018c1.284,1.134,2.425,2.209,3.07,2.738a5.676,5.676,0,0,0,.443.378l.119.088,0,0-.6-12.234c.217.144.434.287.649.432a1.2,1.2,0,0,0,1.4-.1l1.134,12.166c.36,2.4.847,2.326,1.026,2.2l.07-.063a14.345,14.345,0,0,1,1.6-1.235,11.83,11.83,0,0,1,2.3-5.986l.208.315a8.183,8.183,0,0,0-1.187,4.855,26.428,26.428,0,0,1,3.1-1.484c.156-.063.373.654.373.654-4.168,2.55-5.593,5.6-6.08,7.43A19.8,19.8,0,0,0,244.464,1114.391Z" transform="translate(-231.956 -1088.08)" fill="#664334"/>
        </g>
        <path id="Trazado_1036967" data-name="Trazado 1036967" d="M141.636,847.728a1.912,1.912,0,0,0,.6-1.315,2.061,2.061,0,0,0-1.435.166c-.017.013-.034.026-.051.041a2.044,2.044,0,0,0-.226-.389,3.478,3.478,0,0,0,.987-4.148,1.538,1.538,0,0,0,.661-.92,1.64,1.64,0,0,0-1.145-.1.7.7,0,0,0-.141.088l-.03-.032a.923.923,0,0,0,.082-.283,1.912,1.912,0,0,0-.571-1.327,2.519,2.519,0,0,0-.721.79,3.448,3.448,0,0,0-.742-.207.6.6,0,0,0-.021-.11,1.36,1.36,0,0,0-.739-.714,1.7,1.7,0,0,0-.259.809,3.459,3.459,0,0,0-1.973.964.747.747,0,0,0,.028-.461,1.36,1.36,0,0,0-.739-.714,1.465,1.465,0,0,0-.231,1c0,.012.008.023.012.035a4.3,4.3,0,0,0-1.406-.2,1.709,1.709,0,0,0,.281-.475,1.906,1.906,0,0,0-.592-.215,2.029,2.029,0,0,0,.322-1.25,2.054,2.054,0,0,0-.025-.208,4.845,4.845,0,0,0,2.962-.083.638.638,0,0,0,.065.163,1.36,1.36,0,0,0,.888.517,1.609,1.609,0,0,0,.035-.919,2.039,2.039,0,0,0,2.938-1.484.645.645,0,0,0,.175.05,1.36,1.36,0,0,0,.95-.39,1.664,1.664,0,0,0-.663-.572,1.747,1.747,0,0,0,.451-.778,1.64,1.64,0,0,0-1.145-.1.748.748,0,0,0-.214.153,2.051,2.051,0,0,0-.338-.323c.024-.13.041-.261.054-.394a1.056,1.056,0,0,0,.688-.177,1.912,1.912,0,0,0,.6-1.314,2.184,2.184,0,0,0-1.349.111,4.8,4.8,0,0,0-.75-1.808,1.98,1.98,0,0,0,.921-1.018,2.06,2.06,0,0,0-1.409-.316l-.009,0a2.111,2.111,0,0,0-.184-1.215,2.06,2.06,0,0,0-1.178.835.8.8,0,0,0-.031.078,4.8,4.8,0,0,0-1.972-.479,2.345,2.345,0,0,0,.235-.877,2.06,2.06,0,0,0-1.435.166,1.029,1.029,0,0,0-.327.434,2.041,2.041,0,0,0-1.882-1.226,2,2,0,0,0,.513-1.245,2.72,2.72,0,0,0-.823-.048,8.14,8.14,0,0,0,0-1.174c-.008-.117-.019-.233-.033-.348a1.946,1.946,0,0,0,1.212-.718,2.061,2.061,0,0,0-1.263-.7.889.889,0,0,0-.23.034c-.009-.032-.019-.064-.029-.1a.834.834,0,0,0,.113-.1,1.912,1.912,0,0,0,.344-1.4,2.749,2.749,0,0,0-.755.088,2.386,2.386,0,0,0,.045-.82,2.722,2.722,0,0,0-.459.028,1.01,1.01,0,0,0,.095-.475,1.912,1.912,0,0,0-.8-1.2,2.713,2.713,0,0,0-.479.678q-.247-.256-.515-.491a2.066,2.066,0,0,0,.175-1.267,2.638,2.638,0,0,0-.919.183,2.162,2.162,0,0,0-.735-.911,2.685,2.685,0,0,0-.5.721,8.046,8.046,0,0,0-.975-.369,1.962,1.962,0,0,0-.263-1.367,2.612,2.612,0,0,0-.818.526,2.006,2.006,0,0,0-1.214-.578,2.524,2.524,0,0,0-.06,1.066q-.289,0-.582.02a8.151,8.151,0,0,0-.973.128,1.345,1.345,0,0,0,.008-.932,1.4,1.4,0,0,0-.858.476.7.7,0,0,0-.044.6,2.328,2.328,0,0,0-.891-.3,2.747,2.747,0,0,0-.094.762,8.03,8.03,0,0,0-.754.4,2.239,2.239,0,0,0-.7-.815,2.061,2.061,0,0,0-.62,1.3.981.981,0,0,0,.122.391,8.141,8.141,0,0,0-.8.813,2.311,2.311,0,0,0-.3-.916,2.711,2.711,0,0,0-.716.431,2.146,2.146,0,0,0-.741-.93,2.06,2.06,0,0,0-.62,1.3.873.873,0,0,0,.044.212l-.115-.037a2.021,2.021,0,0,0-.78-1.076,2.425,2.425,0,0,0-.593.995,3.038,3.038,0,0,0-.357.082,2.3,2.3,0,0,0-.659-.737,2.061,2.061,0,0,0-.62,1.3.841.841,0,0,0,.026.155,3.079,3.079,0,0,0-.821,1.329,1.85,1.85,0,0,0-1,.064,1.766,1.766,0,0,0,.608,1.078.815.815,0,0,0,.282.1,3.056,3.056,0,0,0,.7,1.631c-.144.07-.285.146-.421.228a.866.866,0,0,0-.091-.41,1.639,1.639,0,0,0-1.044-.666,1.766,1.766,0,0,0-.032,1.237.9.9,0,0,0,.416.374l-.036.031a1.044,1.044,0,0,0-.6-.108,1.911,1.911,0,0,0-1.137.89,2.721,2.721,0,0,0,.7.418,5.492,5.492,0,0,0-.525,1.056,2.364,2.364,0,0,0-.386-.227,2.061,2.061,0,0,0-.367,1.4,1.029,1.029,0,0,0,.287.463,1.925,1.925,0,0,0-1.252.693,2.573,2.573,0,0,0,.806.622,1.987,1.987,0,0,0-.538,1.255,2.061,2.061,0,0,0,1.436-.155.793.793,0,0,0,.082-.068,5.451,5.451,0,0,0,.354.713,2.338,2.338,0,0,0-.832.383s.417.837,1.047.995a1.054,1.054,0,0,0,.784-.14,5.53,5.53,0,0,0,1.01.743,2.227,2.227,0,0,0-1.054-.262,2.246,2.246,0,0,0,.171,1.3l-.02.037a2.264,2.264,0,0,0-.815-.641,2.78,2.78,0,0,0-.3.6.969.969,0,0,0-.073-.375,1.911,1.911,0,0,0-1.154-.869,2.6,2.6,0,0,0-.235.953l-.058,0a2.037,2.037,0,0,0-.96-.9,2.679,2.679,0,0,0-.359.813.842.842,0,0,0-.093-.14,1.911,1.911,0,0,0-1.351-.511,2.061,2.061,0,0,0,.259,1.421l.015.017a2.135,2.135,0,0,0-1,.094.789.789,0,0,0,.369.449,1.033,1.033,0,0,0-.867.636,1.339,1.339,0,0,0,.742.077,3.456,3.456,0,0,0-.263.75,1.236,1.236,0,0,0-.514.095.613.613,0,0,0,.432.516,3.507,3.507,0,0,0,.005.4,3.467,3.467,0,0,0,.369,1.333,2.036,2.036,0,0,0-.608-.066.991.991,0,0,0-.073-.428,1.911,1.911,0,0,0-1.154-.869,2.06,2.06,0,0,0-.149,1.436.954.954,0,0,0,.206.291c-.034.027-.067.055-.1.084a1.478,1.478,0,0,0-.7-.143,1.438,1.438,0,0,0,.225.759,2.038,2.038,0,0,0-.131.331,2.142,2.142,0,0,0-1.12.415s.417.837,1.047.995a.86.86,0,0,0,.179.024,2.047,2.047,0,0,0,1.15,1.058,2.422,2.422,0,0,0-.553.3s.417.837,1.047.995a.972.972,0,0,0,.392.009,5.134,5.134,0,0,0,.471,1.036.813.813,0,0,0-.109,0,1.912,1.912,0,0,0-1.2.8,2.061,2.061,0,0,0,1.3.619,1.039,1.039,0,0,0,.752-.451q.141.144.292.277a2.737,2.737,0,0,0-.447.572,2.15,2.15,0,0,0-1.109.415,2.454,2.454,0,0,0,.739.859,2.773,2.773,0,0,0,0,.29c0,.038.007.076.011.114a1,1,0,0,0-.394-.23,1.911,1.911,0,0,0-1.4.343s.393.849,1.018,1.025a1.056,1.056,0,0,0,.692-.066,2.417,2.417,0,0,0,.146.6,2.785,2.785,0,0,0,.583-.2,2.721,2.721,0,0,0,.225.23,2.074,2.074,0,0,0,.088,1.267,2.254,2.254,0,0,0,1.142-.621,2.7,2.7,0,0,0,.32.052.607.607,0,0,0-.064.091,1.36,1.36,0,0,0,0,1.027,1.465,1.465,0,0,0,.879-.532.736.736,0,0,0,.024-.629,2.7,2.7,0,0,0,.812-.311,1.68,1.68,0,0,0,.553.3,1.615,1.615,0,0,0,.162-.9,2.721,2.721,0,0,0,.547-1.052,3.508,3.508,0,0,0,.534.506,1.978,1.978,0,0,0-.245,1.353,2.061,2.061,0,0,0,1.363-.477.932.932,0,0,0,.156-.26,3.48,3.48,0,0,0,2.011-.1.6.6,0,0,0,.073.074,1.359,1.359,0,0,0,1.009.192,1.974,1.974,0,0,0-.072-.473,1.444,1.444,0,0,0,.674-.522,1.056,1.056,0,0,0,.114-.738,3.479,3.479,0,0,0,.274-3.06,2.687,2.687,0,0,0,.848-.254c.008.01.015.021.023.031a1.911,1.911,0,0,0,1.346.523,2.061,2.061,0,0,0-.246-1.423.774.774,0,0,0-.06-.065,2.7,2.7,0,0,0,.425-1.12c.1.038.2.07.309.1a.7.7,0,0,0-.2.218,1.36,1.36,0,0,0,0,1.027,1.972,1.972,0,0,0,.355-.115,3.458,3.458,0,0,0,.672,1.755.689.689,0,0,0-.183.2,1.36,1.36,0,0,0,0,1.027,1.466,1.466,0,0,0,.878-.531,3.486,3.486,0,0,0,.6.365,1.4,1.4,0,0,0,.026.98,1.465,1.465,0,0,0,.879-.531.628.628,0,0,0,.06-.153,3.473,3.473,0,0,0,2.292-.442,3.457,3.457,0,0,0,.3,1.036.68.68,0,0,0-.168.192,1.36,1.36,0,0,0,0,1.027,1.724,1.724,0,0,0,.743-.36,3.491,3.491,0,0,0,1.141.827,1.513,1.513,0,0,0,.072.857,1.465,1.465,0,0,0,.879-.531c.009-.016.017-.032.024-.049l.069.009a3.2,3.2,0,0,0,.494.367,1.7,1.7,0,0,0-.326.46,1.465,1.465,0,0,0,.99.272.751.751,0,0,0,.428-.325,3.172,3.172,0,0,0,2.08-.349,4.049,4.049,0,0,0,.393.776.742.742,0,0,0-.321.288,1.36,1.36,0,0,0,0,1.027,1.465,1.465,0,0,0,.879-.531.6.6,0,0,0,.031-.066,4.087,4.087,0,0,0,.728.559,1.419,1.419,0,0,0,.443.856,1.906,1.906,0,0,0,.427-.464,4.067,4.067,0,0,0,1.979.117.75.75,0,0,0,.284.39,1.359,1.359,0,0,0,1.025.065,1.708,1.708,0,0,0-.32-.776,4.061,4.061,0,0,0,1-.676,2.262,2.262,0,0,0,1.031.124,2.424,2.424,0,0,0-.228-1.137,4.053,4.053,0,0,0,.424-1.111,2.034,2.034,0,0,0,.758.09c.067,0,.134-.013.2-.024a.822.822,0,0,0,.085.1,1.912,1.912,0,0,0,1.4.359,2.378,2.378,0,0,0-.249-1.174,2.032,2.032,0,0,0,.458-1.437c0-.034-.006-.068-.01-.1a2.231,2.231,0,0,0,.9-.6,2.061,2.061,0,0,0-1.219-.774.828.828,0,0,0-.137.005,2.033,2.033,0,0,0,.231-.582A1.062,1.062,0,0,0,141.636,847.728Zm-25.39-26.077-.046-.06a.546.546,0,0,0,.083,0Z" transform="translate(-90.566 -734.189)" fill="#3db038"/>
        <path id="Trazado_1036968" data-name="Trazado 1036968" d="M302.555,1284.064v21.079H0v-25.28a7.739,7.739,0,0,1,2.5,3.5,4.059,4.059,0,0,1,6.107.691,5.977,5.977,0,0,1,8.831-3.369A4.724,4.724,0,0,1,25,1275.264a12.749,12.749,0,0,1,19.851-4.245,4.721,4.721,0,0,1,7.052.957,2.821,2.821,0,0,1,4.151,3.773,4.971,4.971,0,0,1,6.959,2.8,4.723,4.723,0,0,1,8.132-1.821,3.723,3.723,0,0,1-.055-.628,3.64,3.64,0,0,1,6.057-2.724,9.818,9.818,0,0,1,15.052-.725,3.641,3.641,0,0,1,6.183,1.925,7.007,7.007,0,0,1,10.214,7.842,3.639,3.639,0,0,1,4.878-.982,5.671,5.671,0,0,1,9.944-4.767,6,6,0,0,1,11.4,2.483,3.641,3.641,0,0,1,4.68,5.033,6.058,6.058,0,0,1,1.778-.266,5.974,5.974,0,0,1,2.127.39,4.969,4.969,0,0,1,7.56-1.905,7.723,7.723,0,0,1,14.158.96,4.059,4.059,0,0,1,6.107.691,5.977,5.977,0,0,1,8.831-3.369,4.7,4.7,0,0,1-.464-1.932c0-.036,0-.072,0-.108v-.008a4.709,4.709,0,0,1,1.021-2.933c.067-.084.136-.166.209-.246a4.722,4.722,0,0,1,6.8-.191,12.75,12.75,0,0,1,19.559-4.49c.1.08.2.162.292.244.091-.079.184-.155.28-.226a4.629,4.629,0,0,1,1.332-.7,4.731,4.731,0,0,1,3.108.04,4.738,4.738,0,0,1,2.331,1.842,2.821,2.821,0,0,1,4.151,3.773,4.975,4.975,0,0,1,6.959,2.8,4.729,4.729,0,0,1,5.524-3.363c.129.027.256.059.38.1a4.729,4.729,0,0,1,2.227,1.445,3.723,3.723,0,0,1-.055-.628,3.64,3.64,0,0,1,6.057-2.724,9.814,9.814,0,0,1,15.052-.725,3.641,3.641,0,0,1,6.183,1.925,7.076,7.076,0,0,1,1.017-.468,7.008,7.008,0,0,1,9.2,8.31,3.639,3.639,0,0,1,4.878-.982,5.687,5.687,0,0,1-.126-1.187c0-.118,0-.234.01-.35a5.672,5.672,0,0,1,10.059-3.23,6,6,0,0,1,11.4,2.483,3.64,3.64,0,0,1,4.68,5.033C302.262,1284.138,302.408,1284.1,302.555,1284.064Z" transform="translate(0 -1140.063)" fill="#3db038"/>
        <rect id="Rectángulo_408966" data-name="Rectángulo 408966" width="302.555" height="48.036" transform="translate(0 153.668)" fill="#88d643"/>
        <path id="Trazado_1036969" data-name="Trazado 1036969" d="M2124.155,125.454h-13.587s-.514-.5-.38-.9a2.162,2.162,0,0,1,1.917-.953,1.424,1.424,0,0,1-.334-1.445,1.464,1.464,0,0,1,2.209-.461,1.835,1.835,0,0,1,.769,1.322s-.769-1.967.738-2.49a1.949,1.949,0,0,1,2.613,1.875,1.55,1.55,0,0,1,1.845-.892,1.166,1.166,0,0,1,.83,1.776s.185-.658,1.506-.356a.938.938,0,0,1,.707,1.439,1.651,1.651,0,0,1,1.506.387C2125.108,125.388,2124.155,125.454,2124.155,125.454Z" transform="translate(-1897.352 -108.271)" fill="#fff"/>
        <path id="Trazado_1036970" data-name="Trazado 1036970" d="M2458.84,229.92h-23.7s-.9-.865-.662-1.562,1.573-1.608,3.343-1.662a2.483,2.483,0,0,1-.583-2.52c.529-1.447,2.566-1.715,3.853-.8a3.2,3.2,0,0,1,1.34,2.305s-1.34-3.431,1.287-4.342a3.4,3.4,0,0,1,4.557,3.27,2.7,2.7,0,0,1,3.217-1.555c2.412.536,1.662,2.6,1.448,3.1,0,0,.321-1.147,2.626-.621a1.635,1.635,0,0,1,1.233,2.51,2.879,2.879,0,0,1,2.627.675C2460.5,229.8,2458.84,229.92,2458.84,229.92Z" transform="translate(-2188.927 -198.831)" fill="#fff"/>
        <path id="Trazado_1036971" data-name="Trazado 1036971" d="M414.3,200.6H387.62s-1.009-.974-.746-1.759,1.772-1.811,3.763-1.871a2.8,2.8,0,0,1-.656-2.837c.6-1.63,2.889-1.931,4.338-.905a3.6,3.6,0,0,1,1.509,2.6s-1.509-3.863,1.449-4.889,5.432,1.63,5.13,3.682a3.043,3.043,0,0,1,3.621-1.75c2.716.6,1.871,2.929,1.63,3.486,0,0,.362-1.291,2.957-.7A1.841,1.841,0,0,1,412,198.477a3.242,3.242,0,0,1,2.957.76C416.168,200.469,414.3,200.6,414.3,200.6Z" transform="translate(-347.818 -171.472)" fill="#fff"/>
        <path id="Trazado_1036972" data-name="Trazado 1036972" d="M2047.49,468.213h-19.9s-.752-.727-.556-1.312a3.166,3.166,0,0,1,2.807-1.4,2.086,2.086,0,0,1-.489-2.116c.444-1.216,2.155-1.441,3.236-.675a2.688,2.688,0,0,1,1.126,1.936s-1.126-2.882,1.081-3.647a2.855,2.855,0,0,1,3.827,2.747,2.271,2.271,0,0,1,2.7-1.306,1.707,1.707,0,0,1,1.216,2.6s.27-.963,2.206-.521a1.373,1.373,0,0,1,1.036,2.108,2.418,2.418,0,0,1,2.206.567C2048.885,468.116,2047.49,468.213,2047.49,468.213Z" transform="translate(-1822.574 -414.357)" fill="#fff"/>
        <path id="Trazado_1036973" data-name="Trazado 1036973" d="M1441.473,205.146h-40.741s-1.54-1.488-1.139-2.686,2.706-2.765,5.748-2.857a4.269,4.269,0,0,1-1-4.332c.909-2.489,4.412-2.95,6.624-1.383a5.5,5.5,0,0,1,2.3,3.963s-2.3-5.9,2.212-7.466,8.3,2.489,7.835,5.623a4.648,4.648,0,0,1,5.53-2.673c4.148.922,2.857,4.473,2.489,5.324,0,0,.553-1.972,4.516-1.067a2.812,2.812,0,0,1,2.12,4.315,4.951,4.951,0,0,1,4.517,1.161C1444.33,204.949,1441.473,205.146,1441.473,205.146Z" transform="translate(-1258.382 -170.872)" fill="#fff"/>
        <path id="Trazado_1036974" data-name="Trazado 1036974" d="M1013.651,82.356H999.5s-.535-.517-.4-.933a2.251,2.251,0,0,1,2-.992,1.483,1.483,0,0,1-.348-1.5,1.525,1.525,0,0,1,2.3-.48,1.911,1.911,0,0,1,.8,1.377s-.8-2.049.768-2.593a2.03,2.03,0,0,1,2.721,1.953,1.614,1.614,0,0,1,1.921-.928,1.214,1.214,0,0,1,.864,1.849s.192-.685,1.569-.371a.976.976,0,0,1,.736,1.5,1.719,1.719,0,0,1,1.568.4C1014.643,82.288,1013.651,82.356,1013.651,82.356Z" transform="translate(-898.324 -69.333)" fill="#fff"/>
        <path id="Trazado_1036975" data-name="Trazado 1036975" d="M109.009,1592.746c0,.179.614.323,1.37.323s1.37-.145,1.37-.323-.614-.323-1.37-.323S109.009,1592.567,109.009,1592.746Z" transform="translate(-98.015 -1431.825)" fill="#7a6a67"/>
        <path id="Trazado_1036976" data-name="Trazado 1036976" d="M2553.76,1699.466c0,.179.614.323,1.37.323s1.371-.145,1.371-.323-.614-.323-1.371-.323S2553.76,1699.288,2553.76,1699.466Z" transform="translate(-2296.209 -1527.781)" fill="#7a6a67"/>
        <rect id="Rectángulo_408967" data-name="Rectángulo 408967" width="302.555" height="23.415" transform="translate(0 178.288)" fill="#4c4c68"/>
        <path id="Trazado_1036977" data-name="Trazado 1036977" d="M625.45,1462.081a.609.609,0,0,1-.464.395c-.405.059-.891-.14-1.588-1.018,0,0,1.308-.535,1.886.064l.025.026c-.094-.328-.158-.619-.2-.864a.617.617,0,0,1-.5-.259c-.246-.357-.284-.912.225-1.986,0,0,1.12.992.822,1.822a.532.532,0,0,1-.327.376c.04.22.1.479.177.771.1-.38.469-.736,1.5-1.028,0,0-.011,1.374-.765,1.667a.508.508,0,0,1-.56-.058,10.482,10.482,0,0,0,.6,1.4.5.5,0,0,1,.012-.08c.09-.366.427-.71,1.417-1,0,0,0,1.3-.706,1.585a.462.462,0,0,1-.445,0,11.573,11.573,0,0,0,.935,1.362l-.178.141a11.729,11.729,0,0,1-.96-1.4c0,.027,0,.056,0,.087a.576.576,0,0,1-.368.443c-.368.121-.854.014-1.647-.692,0,0,1.133-.712,1.769-.247l.025.019a10.733,10.733,0,0,1-.685-1.579C625.457,1462.043,625.454,1462.061,625.45,1462.081Z" transform="translate(-560.527 -1311.353)" fill="#88d643"/>
        <path id="Trazado_1036978" data-name="Trazado 1036978" d="M2436.246,1474.507a.484.484,0,0,0,.369.314c.323.047.708-.112,1.263-.81,0,0-1.04-.426-1.5.051l-.02.021c.074-.261.125-.492.161-.687a.491.491,0,0,0,.4-.206c.2-.284.226-.725-.179-1.58,0,0-.891.79-.653,1.449a.423.423,0,0,0,.26.3c-.031.175-.077.381-.141.614-.083-.3-.373-.585-1.2-.818,0,0,.008,1.093.608,1.326a.405.405,0,0,0,.445-.046,8.386,8.386,0,0,1-.479,1.114.4.4,0,0,0-.01-.063c-.071-.291-.34-.565-1.127-.8,0,0,0,1.034.562,1.26a.368.368,0,0,0,.354,0,9.245,9.245,0,0,1-.744,1.083l.141.113a9.331,9.331,0,0,0,.764-1.114c0,.021,0,.044,0,.069a.458.458,0,0,0,.292.352c.293.1.679.011,1.31-.55,0,0-.9-.566-1.407-.2l-.02.015a8.554,8.554,0,0,0,.545-1.256C2436.241,1474.476,2436.244,1474.491,2436.246,1474.507Z" transform="translate(-2188.926 -1323.195)" fill="#88d643"/>
        <path id="Trazado_1036979" data-name="Trazado 1036979" d="M1898.2,1595.17v5.539l-123.582-4.784S1854.442,1597.1,1898.2,1595.17Z" transform="translate(-1595.647 -1434.294)" fill="#adea71"/>
        <path id="Trazado_1036980" data-name="Trazado 1036980" d="M2743.136,1662.632a5.22,5.22,0,0,1-.687,2.3,1.84,1.84,0,0,0-.2.368,3.59,3.59,0,0,0-.09-1.547,3.693,3.693,0,0,1,.709-2.573s-1.857,1.395-1.464,2.706a5.344,5.344,0,0,1,.2,2.135,9.223,9.223,0,0,1-.385-.983,3.067,3.067,0,0,0-1.746-1.6,2.671,2.671,0,0,1,1.137,1.614,1.938,1.938,0,0,0,.736,1.5h1.191a1.378,1.378,0,0,1,.045-.688,6.451,6.451,0,0,0,.729-1.894A3.968,3.968,0,0,0,2743.136,1662.632Z" transform="translate(-2463.198 -1493.651)" fill="#3db038"/>
        <path id="Trazado_1036981" data-name="Trazado 1036981" d="M2317.289,1491.488a3.4,3.4,0,0,1-.448,1.5,1.192,1.192,0,0,0-.128.24,2.334,2.334,0,0,0-.059-1.007,2.4,2.4,0,0,1,.462-1.675s-1.209.908-.953,1.761a3.477,3.477,0,0,1,.132,1.39,5.891,5.891,0,0,1-.25-.64,2,2,0,0,0-1.136-1.042,1.739,1.739,0,0,1,.74,1.05,1.261,1.261,0,0,0,.479.974h.776a.9.9,0,0,1,.029-.448,4.194,4.194,0,0,0,.474-1.232A2.582,2.582,0,0,0,2317.289,1491.488Z" transform="translate(-2081.447 -1340.222)" fill="#88d643"/>
        <g id="Grupo_1212456" data-name="Grupo 1212456" transform="translate(79.98 64.377)">
          <path id="Trazado_1036982" data-name="Trazado 1036982" d="M793.824,638.767q-.372-.185-.782-.435Q793.421,638.541,793.824,638.767Z" transform="translate(-793.042 -638.332)" fill="#2aab28"/>
        </g>
        <g id="Grupo_1212457" data-name="Grupo 1212457" transform="translate(167.509 103.429)">
          <path id="Trazado_1036983" data-name="Trazado 1036983" d="M1660.95,1025.587l.041-.035Z" transform="translate(-1660.95 -1025.552)" fill="#f9a78f"/>
        </g>
        <g id="Grupo_1212458" data-name="Grupo 1212458" transform="translate(167.551 103.389)">
          <path id="Trazado_1036984" data-name="Trazado 1036984" d="M1661.36,1025.2l.045-.039Z" transform="translate(-1661.36 -1025.165)" fill="#f9a78f"/>
        </g>
        <rect id="Rectángulo_408968" data-name="Rectángulo 408968" width="3.005" height="4.907" transform="translate(96.719 46.643)" fill="#fff"/>
        <rect id="Rectángulo_408969" data-name="Rectángulo 408969" width="3.005" height="4.907" transform="translate(118.374 109.391)" fill="#fff"/>
        <rect id="Rectángulo_408970" data-name="Rectángulo 408970" width="3.005" height="4.907" transform="translate(239.914 65.497)" fill="#fff"/>
        <rect id="Rectángulo_408971" data-name="Rectángulo 408971" width="3.005" height="4.907" transform="translate(292.16 115.851)" fill="#fff"/>
        <rect id="Rectángulo_408972" data-name="Rectángulo 408972" width="3.005" height="4.907" transform="translate(91.313 53.505)" fill="#fff"/>
        <path id="Trazado_1036985" data-name="Trazado 1036985" d="M2439.585,693.837h-3.005V688.93h3.005v4.907Z" transform="translate(-2190.847 -619.45)" fill="#fff"/>
        <rect id="Rectángulo_408973" data-name="Rectángulo 408973" width="3.005" height="4.907" transform="translate(207.708 82.658)" fill="#fff"/>
        <rect id="Rectángulo_408974" data-name="Rectángulo 408974" width="3.005" height="4.907" transform="translate(216.841 109.391)" fill="#fff"/>
        <rect id="Rectángulo_408975" data-name="Rectángulo 408975" width="3.005" height="4.907" transform="translate(81.569 71.933)" fill="#fff"/>
        <rect id="Rectángulo_408976" data-name="Rectángulo 408976" width="3.005" height="4.907" transform="translate(37.987 66.96)" fill="#fff"/>
        <rect id="Rectángulo_408977" data-name="Rectángulo 408977" width="3.005" height="4.907" transform="translate(8.656 125.252)" fill="#fff"/>
        <path id="Trazado_1036986" data-name="Trazado 1036986" d="M103.364,1569.322,0,1581.6v-7.12l47.378-3.64L6.841,1566.22Z" transform="translate(0 -1408.264)" fill="#adea71"/>
        <path id="Trazado_1036987" data-name="Trazado 1036987" d="M429.553,1653.269a7.168,7.168,0,0,1-.943,3.161,2.526,2.526,0,0,0-.27.505,4.921,4.921,0,0,0-.123-2.122c-.449-1.544.974-3.531.974-3.531s-2.549,1.914-2.009,3.713a7.336,7.336,0,0,1,.278,2.93,12.646,12.646,0,0,1-.528-1.349,4.209,4.209,0,0,0-2.4-2.2,3.664,3.664,0,0,1,1.559,2.214,2.659,2.659,0,0,0,1.011,2.053h1.635a1.89,1.89,0,0,1,.062-.945,8.87,8.87,0,0,0,1-2.6A5.459,5.459,0,0,0,429.553,1653.269Z" transform="translate(-381.72 -1484.748)" fill="#3db038"/>
        <g id="Grupo_1212459" data-name="Grupo 1212459" transform="translate(35.517 188.309)" opacity="0.74">
          <path id="Trazado_1036988" data-name="Trazado 1036988" d="M352.292,1869.728c-6.219,3.385,237.519,3.385,231.284,0C589.8,1866.343,346.058,1866.343,352.292,1869.728Z" transform="translate(-352.175 -1867.189)" fill="#313151"/>
        </g>
        <g id="Grupo_1212497" data-name="Grupo 1212497" transform="translate(44.156 58.413)">
          <path id="Trazado_1036989" data-name="Trazado 1036989" d="M592.2,1709.929c0,.2.7.369,1.564.369s1.564-.165,1.564-.369-.7-.369-1.564-.369S592.2,1709.724,592.2,1709.929Z" transform="translate(-576.631 -1595.561)" fill="#7a6a67"/>
          <path id="Trazado_1036990" data-name="Trazado 1036990" d="M541.616,1401.359a.694.694,0,0,1-.529.45c-.463.067-1.016-.16-1.812-1.162,0,0,1.492-.611,2.152.073l.028.029c-.107-.374-.18-.706-.231-.985a.7.7,0,0,1-.569-.3c-.28-.408-.324-1.041.256-2.266,0,0,1.279,1.133.937,2.079a.607.607,0,0,1-.373.429c.045.251.11.547.2.88.119-.434.535-.839,1.717-1.173,0,0-.012,1.568-.872,1.9a.581.581,0,0,1-.638-.066,11.975,11.975,0,0,0,.688,1.6.587.587,0,0,1,.014-.091c.1-.417.488-.811,1.617-1.143,0,0,0,1.483-.806,1.808a.529.529,0,0,1-.508,0,13.213,13.213,0,0,0,1.067,1.554l-.2.162a13.4,13.4,0,0,1-1.1-1.6c0,.031,0,.063,0,.1a.657.657,0,0,1-.42.506c-.42.138-.974.016-1.88-.789,0,0,1.293-.812,2.019-.282l.029.021a12.258,12.258,0,0,1-.782-1.8C541.624,1401.316,541.621,1401.337,541.616,1401.359Z" transform="translate(-529.044 -1314.705)" fill="#88d643"/>
          <path id="Trazado_1036991" data-name="Trazado 1036991" d="M602.255,1440.12H552.99v24.72h46.157a3.108,3.108,0,0,0,3.108-3.108Z" transform="translate(-541.376 -1353.295)" fill="#ef4b42"/>
          <path id="Trazado_1036992" data-name="Trazado 1036992" d="M459.9,945.842V982.2a3.417,3.417,0,0,0,3.417,3.417h5.971a20.878,20.878,0,0,1,39.336-6.27h9.929V911.541a4.395,4.395,0,0,0-4.395-4.395H486.347a4.395,4.395,0,0,0-3.554,1.81l-19.7,27.094A16.648,16.648,0,0,0,459.9,945.842Z" transform="translate(-457.678 -874.071)" fill="#ff8500"/>
          <g id="Grupo_1212461" data-name="Grupo 1212461" transform="translate(12.106 65.065)">
            <g id="Grupo_1212460" data-name="Grupo 1212460">
              <path id="Trazado_1036993" data-name="Trazado 1036993" d="M558.823,1225.309l38.012.024v30.956H562.914a4.1,4.1,0,0,1-4.091-4.091v-26.889m-.959-.959V1252.2a5.05,5.05,0,0,0,5.05,5.05h34.88v-32.873l-39.93-.025Z" transform="translate(-557.864 -1224.35)" fill="#ef4714"/>
            </g>
          </g>
          <path id="Trazado_1036994" data-name="Trazado 1036994" d="M565.976,1018.837a2.347,2.347,0,0,1-1.918-3.7l8.72-12.366,4.577-6.489,1.5-2.135a2.352,2.352,0,0,1,1.921-1h19.268a2.284,2.284,0,0,1,.742.121,2.344,2.344,0,0,1,1.6,2.226v21a2.35,2.35,0,0,1-2.114,2.336,2.2,2.2,0,0,1-.233.012H565.976Z" transform="translate(-550.94 -951.399)" fill="#8bb8c6"/>
          <path id="Trazado_1036995" data-name="Trazado 1036995" d="M859.307,1338.729a.35.35,0,0,0-.064,0l-3.8.572c-.684.14-.956.428-.956.956v.933a.956.956,0,0,0,.956.957h3.83a.956.956,0,0,0,.956-.957v-1.51A.957.957,0,0,0,859.307,1338.729Z" transform="translate(-812.468 -1262.128)" fill="#282f39"/>
          <rect id="Rectángulo_408978" data-name="Rectángulo 408978" width="153.365" height="12.131" transform="translate(60.879 93.144)" fill="#282f39"/>
          <rect id="Rectángulo_408979" data-name="Rectángulo 408979" width="153.365" height="5.055" transform="translate(60.879 90.617)" fill="#444c56"/>
          <circle id="Elipse_12191" data-name="Elipse 12191" cx="17.506" cy="17.506" r="17.506" transform="translate(165.122 115.012) rotate(-45)" fill="#16272f"/>
          <g id="Grupo_1212462" data-name="Grupo 1212462" transform="translate(176.064 101.19)" opacity="0.25">
            <circle id="Elipse_12192" data-name="Elipse 12192" cx="10.749" cy="10.749" r="10.749" transform="translate(0 20.162) rotate(-69.702)" fill="#fff"/>
          </g>
          <ellipse id="Elipse_12193" data-name="Elipse 12193" cx="8.172" cy="8.172" rx="8.172" ry="8.172" transform="translate(178.323 115.012) rotate(-45)" fill="#8e9ba3"/>
          <path id="Trazado_1036996" data-name="Trazado 1036996" d="M2294.29,1695.931a2.655,2.655,0,1,0,2.655-2.655A2.655,2.655,0,0,0,2294.29,1695.931Z" transform="translate(-2107.063 -1580.919)" fill="#fff"/>
          <circle id="Elipse_12194" data-name="Elipse 12194" cx="17.506" cy="17.506" r="17.506" transform="translate(120.294 115.012) rotate(-45)" fill="#16272f"/>
          <g id="Grupo_1212463" data-name="Grupo 1212463" transform="translate(129.85 99.811)" opacity="0.25">
            <circle id="Elipse_12195" data-name="Elipse 12195" cx="10.749" cy="10.749" r="10.749" transform="translate(0 15.201) rotate(-45)" fill="#fff"/>
          </g>
          <ellipse id="Elipse_12196" data-name="Elipse 12196" cx="8.172" cy="8.172" rx="8.172" ry="8.172" transform="translate(133.494 115.012) rotate(-45)" fill="#8e9ba3"/>
          <path id="Trazado_1036997" data-name="Trazado 1036997" d="M1849.79,1695.931a2.655,2.655,0,1,0,2.655-2.655A2.655,2.655,0,0,0,1849.79,1695.931Z" transform="translate(-1707.391 -1580.919)" fill="#fff"/>
          <path id="Trazado_1036998" data-name="Trazado 1036998" d="M1672.906,1530.272a19.668,19.668,0,0,1,38.336,0h6.2a19.668,19.668,0,0,1,38.336,0h1.556a21.222,21.222,0,0,0-20.724-16.779h-44.54a21.222,21.222,0,0,0-20.724,16.779Z" transform="translate(-1546.947 -1419.268)" fill="#b1c1c9"/>
          <path id="Trazado_1036999" data-name="Trazado 1036999" d="M468.933,1477.71a13.067,13.067,0,0,0-11.368,6.623l-4.021,7.093a4.228,4.228,0,0,1-3.678,2.143h-1.028a4.227,4.227,0,0,1-4.133-3.341l-.093-.436a4.373,4.373,0,0,0-4.276-3.456h-.282a2.226,2.226,0,0,0-2.227,2.227v7.849a2.226,2.226,0,0,0,2.227,2.227h0l3.8-.019H495.58a3.108,3.108,0,0,0,3.127-3.108v-17.8Z" transform="translate(-437.828 -1387.093)" fill="#444c56"/>
          <path id="Trazado_1037000" data-name="Trazado 1037000" d="M462.065,1436.894a3.047,3.047,0,0,0-2.16-.895v12.776a3.054,3.054,0,0,0,3.054-3.054v-6.666A3.046,3.046,0,0,0,462.065,1436.894Z" transform="translate(-457.678 -1349.589)" fill="#cecece"/>
          <circle id="Elipse_12197" data-name="Elipse 12197" cx="17.506" cy="17.506" r="17.506" transform="translate(8.095 115.011) rotate(-45)" fill="#16272f"/>
          <g id="Grupo_1212464" data-name="Grupo 1212464" transform="translate(18.75 100.912)" opacity="0.25">
            <circle id="Elipse_12198" data-name="Elipse 12198" cx="10.749" cy="10.749" r="10.749" transform="translate(0 19.784) rotate(-66.976)" fill="#fff"/>
          </g>
          <ellipse id="Elipse_12199" data-name="Elipse 12199" cx="8.172" cy="8.172" rx="8.172" ry="8.172" transform="translate(22.608 109.665) rotate(-17.428)" fill="#8e9ba3"/>
          <path id="Trazado_1037001" data-name="Trazado 1037001" d="M737.267,1695.931a2.655,2.655,0,1,0,2.655-2.655A2.655,2.655,0,0,0,737.267,1695.931Z" transform="translate(-707.068 -1580.919)" fill="#fff"/>
          <path id="Trazado_1037002" data-name="Trazado 1037002" d="M596.843,1044.359a2.706,2.706,0,0,1-.289.015l-35.211-.656-1.6-2.3,13.645-20.517Z" transform="translate(-547.446 -976.355)" fill="#fff" opacity="0.36"/>
          <path id="Trazado_1037003" data-name="Trazado 1037003" d="M594.866,988.549a1.7,1.7,0,0,1,.554.09h.009a1.762,1.762,0,0,1,1.2,1.673v21a1.769,1.769,0,0,1-1.59,1.758h-.01a1.554,1.554,0,0,1-.167.008H560.795a1.766,1.766,0,0,1-1.444-2.785l8.72-12.366,4.577-6.49,1.448-2.055.038-.054.015-.021,0,0,0,0a1.768,1.768,0,0,1,1.443-.749h19.267m0-1.161H575.6a2.932,2.932,0,0,0-2.393,1.242l-.06.083h0l-1.448,2.055-4.577,6.489-8.72,12.366a2.928,2.928,0,0,0,2.393,4.616h34.072a2.737,2.737,0,0,0,.289-.014,2.931,2.931,0,0,0,2.638-2.914v-21a2.923,2.923,0,0,0-2-2.775,2.869,2.869,0,0,0-.931-.152Z" transform="translate(-545.758 -946.22)" fill="#444c56"/>
          <path id="Trazado_1037004" data-name="Trazado 1037004" d="M596.9,1075.959a.9.9,0,0,0-.9.9v11.924a.9.9,0,0,0,.9.9h1.786v-13.724H596.9Z" transform="translate(-580.048 -1025.859)" fill="#282f39"/>
          <g id="Grupo_1212465" data-name="Grupo 1212465" transform="translate(26.29 108.447)">
            <path id="Trazado_1037005" data-name="Trazado 1037005" d="M753.326,1654.51a1.151,1.151,0,1,0,1.151,1.151A1.151,1.151,0,0,0,753.326,1654.51Z" transform="translate(-746.762 -1654.51)" fill="#16272f"/>
            <path id="Trazado_1037006" data-name="Trazado 1037006" d="M714.564,1670.569a1.151,1.151,0,1,0,1.628,0A1.151,1.151,0,0,0,714.564,1670.569Z" transform="translate(-712.641 -1668.647)" fill="#16272f"/>
            <path id="Trazado_1037007" data-name="Trazado 1037007" d="M700.81,1709.335a1.151,1.151,0,1,0-1.151,1.152A1.151,1.151,0,0,0,700.81,1709.335Z" transform="translate(-698.507 -1702.771)" fill="#16272f"/>
            <path id="Trazado_1037008" data-name="Trazado 1037008" d="M714.564,1746.469a1.151,1.151,0,1,0,1.628,0A1.151,1.151,0,0,0,714.564,1746.469Z" transform="translate(-712.641 -1736.892)" fill="#16272f"/>
            <path id="Trazado_1037009" data-name="Trazado 1037009" d="M753.326,1761.85a1.151,1.151,0,1,0,1.151,1.151A1.151,1.151,0,0,0,753.326,1761.85Z" transform="translate(-746.762 -1751.025)" fill="#16272f"/>
            <path id="Trazado_1037010" data-name="Trazado 1037010" d="M790.462,1746.469a1.151,1.151,0,1,0,1.628,0A1.151,1.151,0,0,0,790.462,1746.469Z" transform="translate(-780.885 -1736.892)" fill="#16272f"/>
            <path id="Trazado_1037011" data-name="Trazado 1037011" d="M806.994,1708.18a1.151,1.151,0,1,0,1.151,1.151A1.151,1.151,0,0,0,806.994,1708.18Z" transform="translate(-795.018 -1702.767)" fill="#16272f"/>
            <path id="Trazado_1037012" data-name="Trazado 1037012" d="M792.09,1672.2a1.151,1.151,0,1,0-1.628,0A1.151,1.151,0,0,0,792.09,1672.2Z" transform="translate(-780.885 -1668.646)" fill="#16272f"/>
          </g>
          <g id="Grupo_1212466" data-name="Grupo 1212466" transform="translate(138.489 108.447)">
            <path id="Trazado_1037013" data-name="Trazado 1037013" d="M1865.845,1654.51a1.151,1.151,0,1,0,1.151,1.151A1.151,1.151,0,0,0,1865.845,1654.51Z" transform="translate(-1859.282 -1654.51)" fill="#16272f"/>
            <path id="Trazado_1037014" data-name="Trazado 1037014" d="M1827.084,1670.569a1.151,1.151,0,1,0,1.628,0A1.151,1.151,0,0,0,1827.084,1670.569Z" transform="translate(-1825.161 -1668.647)" fill="#16272f"/>
            <path id="Trazado_1037015" data-name="Trazado 1037015" d="M1813.331,1709.335a1.151,1.151,0,1,0-1.151,1.152A1.151,1.151,0,0,0,1813.331,1709.335Z" transform="translate(-1811.028 -1702.771)" fill="#16272f"/>
            <path id="Trazado_1037016" data-name="Trazado 1037016" d="M1827.084,1746.469a1.151,1.151,0,1,0,1.628,0A1.151,1.151,0,0,0,1827.084,1746.469Z" transform="translate(-1825.161 -1736.892)" fill="#16272f"/>
            <path id="Trazado_1037017" data-name="Trazado 1037017" d="M1865.845,1761.85A1.151,1.151,0,1,0,1867,1763,1.151,1.151,0,0,0,1865.845,1761.85Z" transform="translate(-1859.282 -1751.025)" fill="#16272f"/>
            <path id="Trazado_1037018" data-name="Trazado 1037018" d="M1902.984,1746.469a1.151,1.151,0,1,0,1.628,0A1.152,1.152,0,0,0,1902.984,1746.469Z" transform="translate(-1893.407 -1736.892)" fill="#16272f"/>
            <path id="Trazado_1037019" data-name="Trazado 1037019" d="M1919.515,1708.18a1.151,1.151,0,1,0,1.151,1.151A1.151,1.151,0,0,0,1919.515,1708.18Z" transform="translate(-1907.539 -1702.767)" fill="#16272f"/>
            <path id="Trazado_1037020" data-name="Trazado 1037020" d="M1904.608,1672.2a1.151,1.151,0,1,0-1.628,0A1.151,1.151,0,0,0,1904.608,1672.2Z" transform="translate(-1893.403 -1668.646)" fill="#16272f"/>
          </g>
          <g id="Grupo_1212467" data-name="Grupo 1212467" transform="translate(183.318 108.447)">
            <path id="Trazado_1037021" data-name="Trazado 1037021" d="M2310.345,1654.51a1.151,1.151,0,1,0,1.151,1.151A1.151,1.151,0,0,0,2310.345,1654.51Z" transform="translate(-2303.782 -1654.51)" fill="#16272f"/>
            <path id="Trazado_1037022" data-name="Trazado 1037022" d="M2271.584,1670.569a1.151,1.151,0,1,0,1.628,0A1.151,1.151,0,0,0,2271.584,1670.569Z" transform="translate(-2269.661 -1668.647)" fill="#16272f"/>
            <path id="Trazado_1037023" data-name="Trazado 1037023" d="M2257.831,1709.335a1.151,1.151,0,1,0-1.152,1.152A1.151,1.151,0,0,0,2257.831,1709.335Z" transform="translate(-2255.528 -1702.771)" fill="#16272f"/>
            <path id="Trazado_1037024" data-name="Trazado 1037024" d="M2271.584,1746.469a1.151,1.151,0,1,0,1.628,0A1.151,1.151,0,0,0,2271.584,1746.469Z" transform="translate(-2269.661 -1736.892)" fill="#16272f"/>
            <path id="Trazado_1037025" data-name="Trazado 1037025" d="M2310.345,1761.85A1.151,1.151,0,1,0,2311.5,1763,1.151,1.151,0,0,0,2310.345,1761.85Z" transform="translate(-2303.782 -1751.025)" fill="#16272f"/>
            <circle id="Elipse_12200" data-name="Elipse 12200" cx="1.151" cy="1.151" r="1.151" transform="translate(9.24 9.24)" fill="#16272f"/>
            <path id="Trazado_1037026" data-name="Trazado 1037026" d="M2364.015,1708.18a1.151,1.151,0,1,0,1.152,1.151A1.151,1.151,0,0,0,2364.015,1708.18Z" transform="translate(-2352.039 -1702.767)" fill="#16272f"/>
            <path id="Trazado_1037027" data-name="Trazado 1037027" d="M2349.107,1672.2a1.151,1.151,0,1,0-1.628,0A1.151,1.151,0,0,0,2349.107,1672.2Z" transform="translate(-2337.903 -1668.646)" fill="#16272f"/>
          </g>
          <path id="Trazado_1037028" data-name="Trazado 1037028" d="M1160.452,1566.93h-39.573a.682.682,0,0,1-.682-.682v-11.925a.682.682,0,0,1,.682-.682h39.573a.682.682,0,0,1,.682.682v11.925A.683.683,0,0,1,1160.452,1566.93Z" transform="translate(-1051.379 -1455.367)" fill="#b1c1c9"/>
          <path id="Trazado_1037029" data-name="Trazado 1037029" d="M478.962,1650.265h-3.419a.5.5,0,0,1-.495-.495V1649a.5.5,0,0,1,.495-.495h3.419a.5.5,0,0,1,.495.495v.767A.5.5,0,0,1,478.962,1650.265Z" transform="translate(-471.294 -1540.666)" fill="#ff8500"/>
          <path id="Trazado_1037030" data-name="Trazado 1037030" d="M1120.19,1619.53v5.835a.809.809,0,0,0,.809.81h39.318a.809.809,0,0,0,.81-.81v-5.835Z" transform="translate(-1051.373 -1514.61)" fill="#8e9fa5"/>
          <g id="Grupo_1212468" data-name="Grupo 1212468" transform="translate(73.763 98.274)">
            <rect id="Rectángulo_408980" data-name="Rectángulo 408980" width="1.842" height="13.221" transform="translate(0 0)" fill="#444c56"/>
            <rect id="Rectángulo_408981" data-name="Rectángulo 408981" width="1.842" height="13.221" transform="translate(29.205 0)" fill="#444c56"/>
          </g>
          <path id="Trazado_1037031" data-name="Trazado 1037031" d="M569.421,1161.59h-3.277a1.2,1.2,0,0,0-1.2,1.2v5.757" transform="translate(-552.127 -1102.855)" fill="none" stroke="#282f39" stroke-linecap="round" stroke-miterlimit="10" stroke-width="10"/>
          <path id="Trazado_1037032" data-name="Trazado 1037032" d="M459.9,1512.38v5.072a3.054,3.054,0,0,0,3.054-3.054v-2.018Z" transform="translate(-457.678 -1418.267)" fill="#ef4714"/>
          <rect id="Rectángulo_408982" data-name="Rectángulo 408982" width="0.487" height="13.723" transform="translate(18.637 50.1)" fill="#42a1e2"/>
          <rect id="Rectángulo_408983" data-name="Rectángulo 408983" width="137.423" height="82.639" transform="translate(71.837 2.91)" fill="#380401"/>
          <g id="Grupo_1212494" data-name="Grupo 1212494" transform="translate(100.369 9.047)">
            <g id="Grupo_1212469" data-name="Grupo 1212469" transform="translate(42.844 28.257)">
              <path id="Trazado_1037033" data-name="Trazado 1037033" d="M1857.87,949.1l.023-.02Z" transform="translate(-1857.87 -949.084)" fill="#f9a78f"/>
            </g>
            <g id="Grupo_1212470" data-name="Grupo 1212470" transform="translate(42.868 28.235)">
              <path id="Trazado_1037034" data-name="Trazado 1037034" d="M1858.1,948.89l.025-.022Z" transform="translate(-1858.1 -948.868)" fill="#f9a78f"/>
            </g>
            <rect id="Rectángulo_408984" data-name="Rectángulo 408984" width="1.684" height="2.751" transform="translate(15.302 31.599)" fill="#fff"/>
            <g id="Grupo_1212471" data-name="Grupo 1212471" transform="translate(7.723 41.771)">
              <path id="Trazado_1037035" data-name="Trazado 1037035" d="M1521.119,1084.1l-.924,26.469h-4.257l-.878,2.335-.878-2.335h-.92l-3.642-27.492Z" transform="translate(-1509.62 -1083.08)" fill="#ccd9dd"/>
            </g>
            <g id="Grupo_1212472" data-name="Grupo 1212472" transform="translate(39.741 41.771)">
              <path id="Trazado_1037036" data-name="Trazado 1037036" d="M1838.6,1084.1l-.939,26.469H1833.4l-.878,2.335-.877-2.335h-.921l-3.626-27.492Z" transform="translate(-1827.1 -1083.08)" fill="#ccd9dd"/>
            </g>
            <g id="Grupo_1212474" data-name="Grupo 1212474" transform="translate(59.587 31.947)">
              <g id="Grupo_1212473" data-name="Grupo 1212473">
                <path id="Trazado_1037037" data-name="Trazado 1037037" d="M2023.88,985.725l.173-.017.156-.012q.154-.01.306-.016c.2-.007.4-.011.6-.009q.6.009,1.2.069c.4.041.8.1,1.2.182a10.984,10.984,0,0,1,1.19.3,9.645,9.645,0,0,1,2.281,1.053,8.215,8.215,0,0,1,1.029.78,7.78,7.78,0,0,1,.895.95,7.925,7.925,0,0,1,1.25,2.268,9.824,9.824,0,0,1,.523,2.46,13.49,13.49,0,0,1-.016,2.432c-.018.2-.04.4-.065.595l-.073.553q-.071.547-.133,1.093a41.876,41.876,0,0,0-.292,4.348,19.394,19.394,0,0,0,.1,2.13,11.218,11.218,0,0,0,.371,2.032,6.889,6.889,0,0,0,.342.932,5.175,5.175,0,0,0,.468.837,4.116,4.116,0,0,0,.617.7c.057.052.118.1.177.149s.122.1.188.137.128.089.2.128l.1.061.1.056a4.372,4.372,0,0,0,.9.355,6.385,6.385,0,0,0,.989.186,8.107,8.107,0,0,0,1.041.043c.352,0,.708-.03,1.065-.065l.174,1.06a10.273,10.273,0,0,1-2.355.257,7,7,0,0,1-1.226-.122,5.81,5.81,0,0,1-1.218-.372,5.117,5.117,0,0,1-1.124-.661,5.714,5.714,0,0,1-.931-.914,6.743,6.743,0,0,1-.7-1.07,8.676,8.676,0,0,1-.495-1.143,15.931,15.931,0,0,1-.774-4.677,37.656,37.656,0,0,1,.141-4.595q.049-.568.107-1.134l.059-.559c.019-.173.036-.347.048-.519a12.087,12.087,0,0,0-.01-2.041,7.979,7.979,0,0,0-.409-1.909,6.327,6.327,0,0,0-.381-.864,5.789,5.789,0,0,0-.507-.781,6.693,6.693,0,0,0-3.119-2.149,10.885,10.885,0,0,0-1.974-.5c-.34-.055-.683-.1-1.028-.122-.172-.013-.344-.025-.515-.031-.085,0-.17-.005-.254-.006h-.231Z" transform="translate(-2023.88 -985.672)" fill="#ccd9dd"/>
              </g>
            </g>
            <g id="Grupo_1212475" data-name="Grupo 1212475" transform="translate(43.14 55.776)">
              <path id="Trazado_1037038" data-name="Trazado 1037038" d="M1862.926,1221.95l2.006,2.381-2.205,1.436a1.243,1.243,0,0,1-1.629-.241h0a1.243,1.243,0,0,1,.039-1.646Z" transform="translate(-1860.806 -1221.95)" fill="#f22a2a"/>
            </g>
            <g id="Grupo_1212476" data-name="Grupo 1212476" transform="translate(46.444 58.495)">
              <path id="Trazado_1037039" data-name="Trazado 1037039" d="M1894.439,1248.91l2.818,1.324-1.4,2.226a1.243,1.243,0,0,1-1.58.463h0a1.243,1.243,0,0,1-.653-1.512Z" transform="translate(-1893.56 -1248.91)" fill="#f22a2a"/>
            </g>
            <g id="Grupo_1212477" data-name="Grupo 1212477" transform="translate(50.271 59.557)">
              <path id="Trazado_1037040" data-name="Trazado 1037040" d="M1931.51,1259.572l3.111-.135-.209,2.623a1.243,1.243,0,0,1-1.185,1.143h0a1.243,1.243,0,0,1-1.28-1.036Z" transform="translate(-1931.51 -1259.437)" fill="#f22a2a"/>
            </g>
            <g id="Grupo_1212478" data-name="Grupo 1212478" transform="translate(43.368 42.963)">
              <path id="Trazado_1037041" data-name="Trazado 1037041" d="M1881.055,1103.9a9,9,0,0,1-17.92,1.147,9.107,9.107,0,0,1-.073-1.147,9,9,0,1,1,17.993,0Z" transform="translate(-1863.062 -1094.906)" fill="#f55"/>
            </g>
            <g id="Grupo_1212479" data-name="Grupo 1212479" transform="translate(43.368 44.066)">
              <path id="Trazado_1037042" data-name="Trazado 1037042" d="M1881.055,1113.737a9,9,0,0,1-6.38,8.609c-1.748-8.176-10.648-7.547-11.541-7.462a9.106,9.106,0,0,1-.073-1.147,8.973,8.973,0,0,1,2.969-6.679l10.347-1.215A8.993,8.993,0,0,1,1881.055,1113.737Z" transform="translate(-1863.062 -1105.844)" fill="#f22a2a"/>
            </g>
            <path id="Trazado_1037043" data-name="Trazado 1037043" d="M1566.842,914.876c-.035.324-.066.505-.066.505l-6.729,5.264-1.071.837s-.936.3-2.636.744l-.017,0a123.035,123.035,0,0,1-22.127,3.557h0c-2.541.175-5.207.277-7.964.276q-.835,0-1.62-.033-.946-.039-1.823-.124a25.12,25.12,0,0,1-3.834-.651c-6.184-1.587-8.885-5.369-9.28-10.05a19.472,19.472,0,0,1,.153-4.278,32.386,32.386,0,0,1,1.326-5.564c.177-.543.362-1.066.546-1.563a41.745,41.745,0,0,1,2.251-5.064s10.9-4.176,12.257-3.138c.814.623,2,2.522,4.669,3.939a13.605,13.605,0,0,0,3.589,1.278,19.434,19.434,0,0,0,4.04.395,32.38,32.38,0,0,0,5.116-.4l.36-.058c4.569-.758,7.43-2.014,14.288-.152a11.086,11.086,0,0,1,6.043,3.846,10.811,10.811,0,0,1,1.013,1.559A16.142,16.142,0,0,1,1566.842,914.876Z" transform="translate(-1501.895 -872.588)" fill="#fff"/>
            <g id="Grupo_1212480" data-name="Grupo 1212480" transform="translate(21.165 41.771)">
              <path id="Trazado_1037044" data-name="Trazado 1037044" d="M1654.409,1084.1l-.919,26.469h-4.257l-.877,2.335-.879-2.335h-.92l-3.648-27.492Z" transform="translate(-1642.91 -1083.08)" fill="#fff"/>
            </g>
            <g id="Grupo_1212481" data-name="Grupo 1212481" transform="translate(53.381 41.771)">
              <path id="Trazado_1037045" data-name="Trazado 1037045" d="M1973.85,1084.1l-.572,16.306-.361,10.164h-4.257l-.878,2.335-.877-2.335h-.92l-2.588-19.62-1.047-7.872,3.484.31Z" transform="translate(-1962.35 -1083.08)" fill="#fff"/>
            </g>
            <g id="Grupo_1212482" data-name="Grupo 1212482" transform="translate(55.898 40.99)">
              <path id="Trazado_1037046" data-name="Trazado 1037046" d="M1996.354,1076.635c-.034.324-.065.505-.065.505l-.572,16.305a7.384,7.384,0,0,1-2.453-1.181,5.192,5.192,0,0,1-2.045-4.491c.07-3.437-.729-4.535-1.66-5.369a7.488,7.488,0,0,1-1.744-1.8,3.381,3.381,0,0,1,.458-4.176c2.007-1.735,4.836-1.037,6.825-.374A5.726,5.726,0,0,1,1996.354,1076.635Z" transform="translate(-1987.305 -1075.337)" fill="#3a2e2c"/>
            </g>
            <g id="Grupo_1212483" data-name="Grupo 1212483" transform="translate(7.722 38.162)">
              <path id="Trazado_1037047" data-name="Trazado 1037047" d="M1518.2,1060.781l.754,1.02c-6.183-1.587-8.885-5.369-9.28-10.05a19.463,19.463,0,0,1,.152-4.278c2.793-.605,6.729.315,8.372,2.814C1520.913,1054.415,1515.648,1057.328,1518.2,1060.781Z" transform="translate(-1509.615 -1047.293)" fill="#3a2e2c"/>
            </g>
            <g id="Grupo_1212484" data-name="Grupo 1212484" transform="translate(42.086 27.044)">
              <path id="Trazado_1037048" data-name="Trazado 1037048" d="M1870.678,941.874c-.869-.612-3.822-.612-6.234,1.606-6.644,6.109-10.692,5.618-11.649,4.865-2.779-2.188.452-4.965,1.042-6.684,1.167-3.395-3.491-3.482-3.491-3.482,4.569-.758,7.43-2.014,14.288-.151A11.085,11.085,0,0,1,1870.678,941.874Z" transform="translate(-1850.347 -937.057)" fill="#3a2e2c"/>
            </g>
            <g id="Grupo_1212485" data-name="Grupo 1212485" transform="translate(20.995 37.248)">
              <path id="Trazado_1037049" data-name="Trazado 1037049" d="M1652.4,1042.76c.446,1.74.081,3.651-3.053,4.441s-6.81.116-7.787-2.213c-1.132-2.7.643-5.822,3.777-6.612S1651.773,1040.314,1652.4,1042.76Z" transform="translate(-1641.217 -1038.238)" fill="#3a2e2c"/>
            </g>
            <g id="Grupo_1212486" data-name="Grupo 1212486" transform="translate(34.584 44.819)">
              <path id="Trazado_1037050" data-name="Trazado 1037050" d="M1779.559,1115.2a1.844,1.844,0,0,1-3.591,0,1.8,1.8,0,1,1,3.591,0Z" transform="translate(-1775.968 -1113.305)" fill="#3a2e2c"/>
            </g>
            <g id="Grupo_1212487" data-name="Grupo 1212487" transform="translate(56.418 33.824)">
              <ellipse id="Elipse_12201" data-name="Elipse 12201" cx="2.301" cy="1.826" rx="2.301" ry="1.826" transform="matrix(0.543, -0.84, 0.84, 0.543, 0, 3.865)" fill="#3a2e2c"/>
            </g>
            <path id="Trazado_1037051" data-name="Trazado 1037051" d="M1548.152,900.818c-1.908,3.132-4.813,5.919-8.105,6.861-7.92,2.265-12.889.128-15.206-2.312.177-.543.362-1.066.546-1.563a41.714,41.714,0,0,1,2.251-5.064s10.9-4.176,12.257-3.138c.815.623,2,2.522,4.669,3.939A13.6,13.6,0,0,0,1548.152,900.818Z" transform="translate(-1515.582 -872.589)" fill="#afbbc0" opacity="0.58"/>
            <path id="Trazado_1037052" data-name="Trazado 1037052" d="M1901.62,1236.971c-.146.232-.976-.029-1.852-.583s-1.469-1.191-1.322-1.423.976.029,1.852.583S1901.766,1236.74,1901.62,1236.971Z" transform="translate(-1851.489 -1177.801)" fill="#ff8787"/>
            <g id="Grupo_1212488" data-name="Grupo 1212488" transform="translate(22.624 5.483)">
              <path id="Trazado_1037053" data-name="Trazado 1037053" d="M1657.528,726.6c-.779.891,1.738,4.4,1.738,4.4s3.795.982,6.243-1.88a11.049,11.049,0,0,0,2.362-5.5C1663.148,722.9,1660.662,723.01,1657.528,726.6Z" transform="translate(-1657.378 -723.267)" fill="#fff"/>
            </g>
            <g id="Grupo_1212489" data-name="Grupo 1212489" transform="translate(0 5.483)">
              <path id="Trazado_1037054" data-name="Trazado 1037054" d="M1443.242,728.236a16.885,16.885,0,0,1-1.593,2.765s-3.795.982-6.243-1.88a11.043,11.043,0,0,1-2.361-5.5,16.19,16.19,0,0,1,5.457-.2,8.531,8.531,0,0,1,4.886,3.174C1443.659,726.91,1443.528,727.543,1443.242,728.236Z" transform="translate(-1433.044 -723.265)" fill="#fff"/>
            </g>
            <path id="Trazado_1037055" data-name="Trazado 1037055" d="M1491.894,729.646a3.434,3.434,0,0,1-.511-.038c-2.831-.415-3.858-3.012-4.23-4.774a8.53,8.53,0,0,1,4.886,3.174C1492.311,728.319,1492.18,728.953,1491.894,729.646Z" transform="translate(-1481.696 -719.192)" fill="#afbbc0"/>
            <path id="Trazado_1037056" data-name="Trazado 1037056" d="M1657.67,729.646a3.43,3.43,0,0,0,.511-.038c2.831-.415,3.858-3.012,4.23-4.774a8.53,8.53,0,0,0-4.886,3.174C1657.251,728.319,1657.384,728.953,1657.67,729.646Z" transform="translate(-1634.751 -719.192)" fill="#afbbc0"/>
            <path id="Trazado_1037057" data-name="Trazado 1037057" d="M1474.674,741.507a9.185,9.185,0,0,0-4.633-3.627.189.189,0,0,0-.148.346,8.754,8.754,0,0,1,4.074,4.241Z" transform="translate(-1466.082 -730.912)" fill="#889ca0"/>
            <path id="Trazado_1037058" data-name="Trazado 1037058" d="M1676.2,741.507a9.187,9.187,0,0,1,4.633-3.627.189.189,0,0,1,.148.346,8.754,8.754,0,0,0-4.074,4.241Z" transform="translate(-1651.679 -730.912)" fill="#889ca0"/>
            <path id="Trazado_1037059" data-name="Trazado 1037059" d="M1493.509,753.564v0l-.082,0-.082,0v0c-6.26-.127-12.667-3.614-11.4-11.819,2.01-13.017,4.746-15.687,9.882-16.1.112-.009.225-.017.339-.024.38-.023.772-.035,1.178-.04h.163q.252,0,.5.01c4.805.138,7.66,1.624,9.716,10,.427,1.738.818,3.773,1.187,6.155C1506.176,749.95,1499.768,753.437,1493.509,753.564Z" transform="translate(-1476.869 -719.864)" fill="#fff"/>
            <path id="Trazado_1037060" data-name="Trazado 1037060" d="M1493.812,847.16a12.091,12.091,0,0,1-3.531,1.67c-.441.132-.9.249-1.388.348a20.454,20.454,0,0,1-3.877.4q-.435.005-.886-.005c-13.3.312-16.461-9.9-7.963-13.016h0l.019-.007a25.675,25.675,0,0,1,15.906,0l0,0C1497.839,838.663,1498.255,844.012,1493.812,847.16Z" transform="translate(-1467.572 -818.502)" fill="#c17b5f"/>
            <g id="Grupo_1212490" data-name="Grupo 1212490" transform="translate(7.067 21.014)">
              <path id="Trazado_1037061" data-name="Trazado 1037061" d="M1510.057,879.76c-.127-.08-3.211-2.141-3.206-2.131h0c-4.191-1.728-5.4,4.654-.744,4.716h2.771C1510.623,882.349,1511.3,880.562,1510.057,879.76Z" transform="translate(-1503.119 -877.326)" fill="#3a2e2c"/>
              <path id="Trazado_1037062" data-name="Trazado 1037062" d="M1621.116,877.265a2.225,2.225,0,0,0-1.139.3h0c.214-.211-3.231,2.2-3.206,2.131a1.369,1.369,0,0,0-.59,1.5c.471,1.553,3.325.985,4.541,1.082C1624.376,882.4,1624.892,877.344,1621.116,877.265Z" transform="translate(-1604.726 -877.265)" fill="#3a2e2c"/>
            </g>
            <path id="Trazado_1037063" data-name="Trazado 1037063" d="M1583.552,725.589h-.009l-.153,0-.093,0-.241,0h-.163c-.406,0-.8.016-1.178.04-.114.007-.228.015-.339.024v3.218h0c-.13,4.788,4.476,9.394,11.622,6.83.091-.032.181-.067.269-.1C1591.213,727.213,1588.356,725.727,1583.552,725.589Z" transform="translate(-1566.415 -719.862)" fill="#3a2e2c"/>
            <g id="Grupo_1212491" data-name="Grupo 1212491" transform="translate(9.447 11.151)">
              <path id="Trazado_1037064" data-name="Trazado 1037064" d="M1531.414,782.013a.48.48,0,0,1-.45-.313,1.723,1.723,0,0,0-3.323,0,.48.48,0,1,1-.9-.334,2.679,2.679,0,0,1,5.122,0,.48.48,0,0,1-.45.647Z" transform="translate(-1526.712 -779.473)" fill="#3a2e2c"/>
            </g>
            <g id="Grupo_1212492" data-name="Grupo 1212492" transform="translate(18.487 11.151)">
              <path id="Trazado_1037065" data-name="Trazado 1037065" d="M1621.054,782.013a.48.48,0,0,1-.45-.313,1.723,1.723,0,0,0-3.323,0,.48.48,0,0,1-.9-.334,2.679,2.679,0,0,1,5.122,0,.48.48,0,0,1-.45.647Z" transform="translate(-1616.352 -779.473)" fill="#fff"/>
            </g>
            <path id="Trazado_1037066" data-name="Trazado 1037066" d="M1503.73,674.591h0a5.848,5.848,0,0,1-4.449-5.249.492.492,0,0,0-.928-.172c-1.026,2-2.133,5.691,1.5,8.519a2.168,2.168,0,0,0,1.322.4,3.106,3.106,0,0,0,1.4-.43,3.578,3.578,0,0,0,1.457-1.553C1504.634,674.951,1503.967,674.665,1503.73,674.591Z" transform="translate(-1490.866 -668.901)" fill="#c17b5f"/>
            <path id="Trazado_1037067" data-name="Trazado 1037067" d="M1634.377,669.169a.492.492,0,0,0-.928.172A5.848,5.848,0,0,1,1629,674.59h0c-.238.074-.9.359-.295,1.518a3.578,3.578,0,0,0,1.457,1.553,3.105,3.105,0,0,0,1.4.43,2.169,2.169,0,0,0,1.322-.4C1636.51,674.859,1635.4,671.172,1634.377,669.169Z" transform="translate(-1608.747 -668.9)" fill="#c17b5f"/>
            <path id="Trazado_1037068" data-name="Trazado 1037068" d="M1511.275,675.879h0a1.208,1.208,0,0,1,.3.136c.525-1.081-.111-1.353-.342-1.425h0a5.848,5.848,0,0,1-4.449-5.249.492.492,0,0,0-.928-.172c-.053.1-.107.212-.159.325A7.344,7.344,0,0,0,1511.275,675.879Z" transform="translate(-1498.367 -668.901)" fill="#f6dbbe" opacity="0.42"/>
            <path id="Trazado_1037069" data-name="Trazado 1037069" d="M1628.964,675.879h0a1.2,1.2,0,0,0-.3.136c-.526-1.081.11-1.353.342-1.425h0a5.848,5.848,0,0,0,4.449-5.249.492.492,0,0,1,.928-.172c.053.1.106.212.159.325A7.347,7.347,0,0,1,1628.964,675.879Z" transform="translate(-1608.755 -668.901)" fill="#f6dbbe" opacity="0.42"/>
            <path id="Trazado_1037070" data-name="Trazado 1037070" d="M1511.611,846.558a37.155,37.155,0,0,1,9.6.912c-3.685-2.948-15.521-2.948-19.207,0A37.152,37.152,0,0,1,1511.611,846.558Z" transform="translate(-1495.053 -827.473)" fill="#f6dbbe" opacity="0.42"/>
            <g id="Grupo_1212493" data-name="Grupo 1212493" transform="translate(17.443 20.212)">
              <path id="Trazado_1037071" data-name="Trazado 1037071" d="M1616.046,874.108c-.007.044-.015.088-.023.134q-.06.334-.131.649v.005a7.054,7.054,0,0,1-3.255,4.044h0a14.074,14.074,0,0,1-1.364.485c-.441.132-.9.249-1.388.348a20.456,20.456,0,0,1-3.877.4,5.355,5.355,0,0,0,2.575-2.209c.655-1.164,1.077-2.37.7-5.324a2.635,2.635,0,0,1,.505-2.069,4.081,4.081,0,0,1,3.268-1.239,4,4,0,0,1,2.213,1.234A4.126,4.126,0,0,1,1616.046,874.108Z" transform="translate(-1606.005 -869.31)" fill="#f22a2a"/>
            </g>
            <path id="Trazado_1037072" data-name="Trazado 1037072" d="M1648.795,890.731c.046.543-.2,1.007-.556,1.037s-.676-.386-.723-.929.2-1.007.555-1.037S1648.749,890.188,1648.795,890.731Z" transform="translate(-1625.882 -867.523)" fill="#ff8787"/>
            <path id="Trazado_1037073" data-name="Trazado 1037073" d="M1650.846,917.2c-.18-.026-.29-.293-.247-.6s.224-.529.4-.5.29.293.247.6S1651.026,917.223,1650.846,917.2Z" transform="translate(-1628.65 -891.166)" fill="#ff8787"/>
            <path id="Trazado_1037074" data-name="Trazado 1037074" d="M1648.213,896.882a5.92,5.92,0,0,0-.25-1.8.336.336,0,1,0-.635.22,6.2,6.2,0,0,1-.088,3.551,8.2,8.2,0,0,1-2.79,3.891c.2-.041.4-.087.595-.134C1645.045,902.611,1648.171,900.308,1648.213,896.882Z" transform="translate(-1623.129 -872.069)" fill="#c60e0e"/>
            <path id="Trazado_1037075" data-name="Trazado 1037075" d="M1548.406,1355.68l-.878,2.335-.878-2.335h-.92l.431,3.448h6.4l.107-3.448Z" transform="translate(-1534.365 -1286.417)" fill="#3a2e2c"/>
            <path id="Trazado_1037076" data-name="Trazado 1037076" d="M1681.755,1355.68l-.877,2.335-.878-2.335h-.92l.43,3.448h6.4l.106-3.448Z" transform="translate(-1654.267 -1286.417)" fill="#3a2e2c"/>
            <path id="Trazado_1037077" data-name="Trazado 1037077" d="M1865.737,1355.68l-.878,2.335-.877-2.335h-.921l.431,3.448h6.4l.106-3.448Z" transform="translate(-1819.692 -1286.417)" fill="#3a2e2c"/>
            <path id="Trazado_1037078" data-name="Trazado 1037078" d="M2001.066,1355.68l-.878,2.335-.877-2.335h-.92l.43,3.448h6.4l.106-3.448Z" transform="translate(-1941.374 -1286.417)" fill="#3a2e2c"/>
            <path id="Trazado_1037079" data-name="Trazado 1037079" d="M1775.449,1085.713a122.93,122.93,0,0,1-22.128,3.557l.15-4.3,2.134,1.626,16.655-2.378s1.443-5.265,3.2-6.96A38.457,38.457,0,0,0,1775.449,1085.713Z" transform="translate(-1721.021 -1036.07)" fill="#afbbc0"/>
            <path id="Trazado_1037080" data-name="Trazado 1037080" d="M2173.108,1215.627a2.335,2.335,0,0,1,2.237-2.554c1.759-.3,3.45.784,4.752,2.131a4.02,4.02,0,0,0-2.251.9c-.877.6-1.532,1.4-3.1,1.233A1.7,1.7,0,0,1,2173.108,1215.627Z" transform="translate(-2098.464 -1158.148)" fill="#3a2e2c"/>
            <path id="Trazado_1037081" data-name="Trazado 1037081" d="M1642.041,1164.789q-.945-.039-1.823-.124l1.315-3.694Z" transform="translate(-1619.324 -1111.345)" fill="#afbbc0"/>
          </g>
          <g id="Grupo_1212495" data-name="Grupo 1212495" transform="translate(83.516 2.91)">
            <rect id="Rectángulo_408985" data-name="Rectángulo 408985" width="2.518" height="82.901" fill="#b1c1c9"/>
            <rect id="Rectángulo_408986" data-name="Rectángulo 408986" width="2.518" height="82.901" transform="translate(15.936)" fill="#b1c1c9"/>
            <rect id="Rectángulo_408987" data-name="Rectángulo 408987" width="2.518" height="82.901" transform="translate(31.87)" fill="#b1c1c9"/>
            <rect id="Rectángulo_408988" data-name="Rectángulo 408988" width="2.518" height="82.901" transform="translate(47.806)" fill="#b1c1c9"/>
            <rect id="Rectángulo_408989" data-name="Rectángulo 408989" width="2.518" height="82.901" transform="translate(63.74)" fill="#b1c1c9"/>
            <rect id="Rectángulo_408990" data-name="Rectángulo 408990" width="2.518" height="82.901" transform="translate(79.676)" fill="#b1c1c9"/>
            <rect id="Rectángulo_408991" data-name="Rectángulo 408991" width="2.518" height="82.901" transform="translate(95.611)" fill="#b1c1c9"/>
            <rect id="Rectángulo_408992" data-name="Rectángulo 408992" width="2.518" height="82.901" transform="translate(111.546)" fill="#b1c1c9"/>
          </g>
          <g id="Grupo_1212496" data-name="Grupo 1212496" transform="translate(84.775 2.91)">
            <rect id="Rectángulo_408993" data-name="Rectángulo 408993" width="1.26" height="82.901" fill="#899ca3"/>
            <rect id="Rectángulo_408994" data-name="Rectángulo 408994" width="1.259" height="82.901" transform="translate(15.936)" fill="#899ca3"/>
            <rect id="Rectángulo_408995" data-name="Rectángulo 408995" width="1.26" height="82.901" transform="translate(31.87)" fill="#899ca3"/>
            <rect id="Rectángulo_408996" data-name="Rectángulo 408996" width="1.26" height="82.901" transform="translate(47.806)" fill="#899ca3"/>
            <rect id="Rectángulo_408997" data-name="Rectángulo 408997" width="1.259" height="82.901" transform="translate(63.741)" fill="#899ca3"/>
            <rect id="Rectángulo_408998" data-name="Rectángulo 408998" width="1.26" height="82.901" transform="translate(79.676)" fill="#899ca3"/>
            <rect id="Rectángulo_408999" data-name="Rectángulo 408999" width="1.259" height="82.901" transform="translate(95.611)" fill="#899ca3"/>
            <rect id="Rectángulo_409000" data-name="Rectángulo 409000" width="1.26" height="82.901" transform="translate(111.546)" fill="#899ca3"/>
          </g>
          <rect id="Rectángulo_409001" data-name="Rectángulo 409001" width="140.201" height="3.791" transform="translate(70.563 81.758)" fill="#282f39"/>
          <rect id="Rectángulo_409002" data-name="Rectángulo 409002" width="5.067" height="82.901" transform="translate(70.563 2.91)" fill="#ff8500"/>
          <rect id="Rectángulo_409003" data-name="Rectángulo 409003" width="5.067" height="84.535" transform="translate(206.046 2.91)" fill="#ff8500"/>
          <rect id="Rectángulo_409004" data-name="Rectángulo 409004" width="5.067" height="140.55" transform="translate(70.563 5.067) rotate(-90)" fill="#ff8500"/>
          <rect id="Rectángulo_409005" data-name="Rectángulo 409005" width="5.067" height="140.55" transform="translate(70.563 90.617) rotate(-90)" fill="#ff8500"/>
        </g>
      </g>
    </g>
  </g>
</svg>
