<svg xmlns="http://www.w3.org/2000/svg" xmlns:xlink="http://www.w3.org/1999/xlink" width="103" height="103" viewBox="0 0 103 103">
  <defs>
    <filter id="Trazado_896985" x="0" y="0" width="103" height="103" filterUnits="userSpaceOnUse">
      <feOffset dy="3" input="SourceAlpha"/>
      <feGaussianBlur stdDeviation="3" result="blur"/>
      <feFlood flood-opacity="0.161"/>
      <feComposite operator="in" in2="blur"/>
      <feComposite in="SourceGraphic"/>
    </filter>
  </defs>
  <g id="Grupo_1213735" data-name="Grupo 1213735" transform="translate(-831.009 -3367)">
    <g id="Grupo_1200184" data-name="Grupo 1200184" transform="translate(840.009 3372.999)">
      <g id="Grupo_1198723" data-name="Grupo 1198723" transform="translate(0 0.001)">
        <g id="Grupo_1198139" data-name="Grupo 1198139" transform="translate(0 0)">
          <g id="Grupo_1111318" data-name="Grupo 1111318">
            <g id="Grupo_1109826" data-name="Grupo 1109826">
              <g id="Grupo_1098742" data-name="Grupo 1098742">
                <g transform="matrix(1, 0, 0, 1, -9, -6)" filter="url(#Trazado_896985)">
                  <g id="Trazado_896985-2" data-name="Trazado 896985" transform="translate(9 6)" fill="#efd026" opacity="0.859">
                    <path d="M 42.49993133544922 84.5 C 36.82975387573242 84.5 31.32945442199707 83.38959503173828 26.15182113647461 81.19963836669922 C 21.15055274963379 79.08428192138672 16.65886497497559 76.05586242675781 12.80149841308594 72.19849395751953 C 8.944130897521973 68.34113311767578 5.915709018707275 63.84943008422852 3.800353527069092 58.84817504882812 C 1.610398054122925 53.67052841186523 0.4999980032444 48.17023086547852 0.4999980032444 42.50005340576172 C 0.4999980032444 36.82976150512695 1.610398054122925 31.3294620513916 3.800353527069092 26.15181922912598 C 5.915709018707275 21.15056228637695 8.944130897521973 16.65886306762695 12.80149841308594 12.8014965057373 C 16.65886497497559 8.944129943847656 21.15055274963379 5.915707111358643 26.15182113647461 3.800351858139038 C 31.32945442199707 1.610396146774292 36.82975387573242 0.4999961853027344 42.49993133544922 0.4999961853027344 C 48.17010879516602 0.4999961853027344 53.67041015625 1.610396146774292 58.84804153442383 3.800351858139038 C 63.84930801391602 5.915707111358643 68.34101104736328 8.944129943847656 72.1983642578125 12.8014965057373 C 76.05573272705078 16.65886306762695 79.08415222167969 21.15056228637695 81.19950866699219 26.15181922912598 C 83.38946533203125 31.3294620513916 84.49986267089844 36.82976150512695 84.49986267089844 42.49993896484375 C 84.49986267089844 48.17023086547852 83.38946533203125 53.67052841186523 81.19950866699219 58.84817504882812 C 79.08415222167969 63.84943008422852 76.05573272705078 68.34113311767578 72.1983642578125 72.19849395751953 C 68.34101104736328 76.05586242675781 63.84930801391602 79.08428192138672 58.84804153442383 81.19963836669922 C 53.67041015625 83.38959503173828 48.17010879516602 84.5 42.49993133544922 84.5 Z" stroke="none"/>
                    <path d="M 42.49993133544922 0.9999923706054688 C 36.89703750610352 0.9999923706054688 31.46227264404297 2.097114562988281 26.34659194946289 4.260856628417969 C 21.40493011474609 6.351005554199219 16.96665954589844 9.34344482421875 13.15505218505859 13.15504455566406 C 9.343452453613281 16.96665191650391 6.35101318359375 21.40492630004883 4.2608642578125 26.34659576416016 C 2.097122192382812 31.46226501464844 1 36.89704513549805 1 42.50005340576172 C 1 48.10294723510742 2.097122192382812 53.53772735595703 4.2608642578125 58.65339660644531 C 6.35101318359375 63.59506607055664 9.343452453613281 68.03334045410156 13.15505218505859 71.84494781494141 C 16.96665954589844 75.65654754638672 21.40493011474609 78.64898681640625 26.34659194946289 80.7391357421875 C 31.46227264404297 82.90287780761719 36.89703750610352 84 42.49993133544922 84 C 48.10282516479492 84 53.53760147094727 82.90287780761719 58.65327453613281 80.7391357421875 C 63.59493255615234 78.64898681640625 68.03321838378906 75.65654754638672 71.84481048583984 71.84494781494141 C 75.65641784667969 68.03334045410156 78.64886474609375 63.59506607055664 80.73899841308594 58.65339660644531 C 82.90275573730469 53.53772735595703 83.99986267089844 48.10294723510742 83.99986267089844 42.49993896484375 C 83.99986267089844 36.89704513549805 82.90275573730469 31.46226501464844 80.73899841308594 26.34659576416016 C 78.64886474609375 21.40492630004883 75.65641784667969 16.96665191650391 71.84481048583984 13.15504455566406 C 68.03321838378906 9.34344482421875 63.59493255615234 6.351005554199219 58.65327453613281 4.260856628417969 C 53.53760147094727 2.097114562988281 48.10282516479492 0.9999923706054688 42.49993133544922 0.9999923706054688 M 42.49993133544922 -7.62939453125e-06 C 65.97200012207031 -7.62939453125e-06 84.99986267089844 19.02787017822266 84.99986267089844 42.49993896484375 L 84.99986267089844 42.50005340576172 C 84.99986267089844 65.97212219238281 65.97200012207031 85 42.49993133544922 85 C 19.02787017822266 85 0 65.97212219238281 0 42.50005340576172 L 0 42.49993896484375 C 0 19.02787017822266 19.02787017822266 -7.62939453125e-06 42.49993133544922 -7.62939453125e-06 Z" stroke="none" fill="#fff"/>
                  </g>
                </g>
                <g id="Rectángulo_400907" data-name="Rectángulo 400907" fill="none" stroke="#fff" stroke-width="1">
                  <rect width="85" height="85" rx="42.5" stroke="none"/>
                  <rect x="0.5" y="0.5" width="84" height="84" rx="42" fill="none"/>
                </g>
              </g>
            </g>
          </g>
        </g>
      </g>
    </g>
    <g id="ox_11879939" transform="translate(851.774 3392)">
      <g id="Grupo_1211850" data-name="Grupo 1211850" transform="translate(2.32 0.926)">
        <path id="Trazado_1034275" data-name="Trazado 1034275" d="M176.152,319.294a23.4,23.4,0,0,1-1.586,3.988l1.8,7.639,1.292,1.806a.6.6,0,0,1-.489.951H175a1.084,1.084,0,0,1-1.04-.778l-2.74-9.309v-4.97Z" transform="translate(-138.012 -288.105)" fill="#918291"/>
        <path id="Trazado_1034276" data-name="Trazado 1034276" d="M7.535,112.121s4.078-.556,4.833-1.771a14.124,14.124,0,0,0,1.389-3.1.229.229,0,0,1,.447.045c.173,1.6.326,4.482-.608,5.668a13.305,13.305,0,0,1-3.925,2.951Z" transform="translate(45.642 -102.693)" fill="#fce1be"/>
        <path id="Trazado_1034277" data-name="Trazado 1034277" d="M390.716,258.536a31.875,31.875,0,0,1-3.531,6.669l2.339,8.466,1.533,2.255a.58.58,0,0,1-.48.906h-2.367a.909.909,0,0,1-.858-.609l-4.076-11.669,3.657-10.786Z" transform="translate(-377.578 -231.26)" fill="#918291"/>
        <path id="Trazado_1034278" data-name="Trazado 1034278" d="M26.932,124.869a25.738,25.738,0,0,1-2.408-14.758c.321-2.569,4.9-3.853,6.741-4.5s6.1,1.848,10.434,1.859,15.437-8.086,19.931-7.844,7.121,6.774,9.688,6.532l6.143-.553a2.141,2.141,0,0,1,2.1,1.732l.991,5.082,1.425,2.362a1.477,1.477,0,0,1-.306,1.887l-1.359,1.161a1.479,1.479,0,0,1-1.732.135l-1.517-.931-1.1-.674a9.856,9.856,0,0,0-2.327.963c-1.525.8-2.167,9.229-6.581,10.914-1.587.606-4.347.392-7.313-.13a18.663,18.663,0,0,1-2.113,2.384l-.958,7.795.539,2.545a.736.736,0,0,1-.72.888H54.028a.736.736,0,0,1-.731-.82l1.332-11.5c-.149-.819-.259-1.649-.34-2.476-3.339-.828-6.151-1.65-6.893-1.65-1.766,0-2.77,2.3-5.377.76-1.994-1.176-7.384-3.569-7.384-3.569a74.49,74.49,0,0,1-4.654,6.983l.415,8.828,1.268,2.616a.58.58,0,0,1-.522.833h-2.32a.909.909,0,0,1-.891-.73l-2.084-10.347a3.91,3.91,0,0,1,.047-1.748Z" transform="translate(-24.284 -96.148)" fill="#b5adb6"/>
        <path id="Trazado_1034279" data-name="Trazado 1034279" d="M415.176,170.665a3.89,3.89,0,0,0-.047,1.748l2.083,10.346a.909.909,0,0,0,.892.73h2.32a.579.579,0,0,0,.522-.833l-.079-.163-1.189-2.452-.405-8.619-.01-.209h0l.517-3.848a2.6,2.6,0,0,0-.2-1.377,25.537,25.537,0,0,1-2.115-14.108c.28-2.247,3.819-3.512,5.934-4.224a5.368,5.368,0,0,0-2.857-.273c-1.846.645-6.421,1.929-6.742,4.5a25.751,25.751,0,0,0,2.408,14.758Z" transform="translate(-413.565 -137.916)" fill="#a79ba7"/>
        <path id="Trazado_1034280" data-name="Trazado 1034280" d="M433.077,432.642l-.079-.163.009.267a.9.9,0,0,0,.112.289A.578.578,0,0,0,433.077,432.642Z" transform="translate(-425.696 -387.903)" fill="#a79ba7"/>
        <path id="Trazado_1034281" data-name="Trazado 1034281" d="M447.046,341.338l-.01-.209A.354.354,0,0,0,447.046,341.338Z" transform="translate(-441.339 -307.833)" fill="#a79ba7"/>
        <path id="Trazado_1034282" data-name="Trazado 1034282" d="M83.79,71.827a.517.517,0,0,1,1,.087c.344,2.087,1,5.329,1.885,6.3,1.339,1.465,5.653,1.633,6.6,2.74s-.151,3.211-1.88,3.128c-1.578-.076-5.946-2.26-7.263-3.99C82.227,77.6,83.041,73.963,83.79,71.827Z" transform="translate(-42.957 -71.481)" fill="#ffefd2"/>
        <path id="Trazado_1034283" data-name="Trazado 1034283" d="M89.286,80.087c1.318,1.73,5.685,3.914,7.263,3.99a2.057,2.057,0,0,0,1.592-.649,14.341,14.341,0,0,1-5.052-3.34,5.335,5.335,0,0,1-.8-1.49,2.5,2.5,0,0,1-.463-.388c-.885-.969-1.542-4.211-1.886-6.3a.517.517,0,0,0-1-.088C88.2,73.959,87.386,77.592,89.286,80.087Z" transform="translate(-48.115 -71.478)" fill="#fce1be"/>
        <path id="Trazado_1034284" data-name="Trazado 1034284" d="M28.893,207.524l-1.359,1.161a1.479,1.479,0,0,1-1.732.135l-1.517-.931,3.489-4.614,1.425,2.362A1.477,1.477,0,0,1,28.893,207.524Z" transform="translate(28.496 -187.002)" fill="#a8d3d8"/>
      </g>
      <g id="Grupo_1211851" data-name="Grupo 1211851" transform="translate(0 0)">
        <path id="Trazado_1034285" data-name="Trazado 1034285" d="M.135,87.64c.217-6.064,1.177-8.411,1.538-9.091.522-2.768,4.41-4.074,6.757-4.861,1.592-.69,2.985-.236,5.325.452a21.678,21.678,0,0,0,5.98,1.165h.007c1.872,0,5.542-1.886,9.091-3.711,3.2-1.643,6.5-3.342,8.968-3.922a.926.926,0,0,1,1.127.757.945.945,0,0,1-.727,1.051c-2.244.534-5.435,2.174-8.521,3.76-3.917,2.014-7.617,3.916-9.939,3.916H19.73a23.452,23.452,0,0,1-6.5-1.241c-1.925-.537-3.044-1.019-4.21-.471-1.728.579-5.323,1.785-5.542,3.539,0,.023-.007.047-.011.069A25.127,25.127,0,0,0,5.8,93.236a.926.926,0,0,1,.057.622L4.825,97.885a2.982,2.982,0,0,0-.035,1.333l2.08,10.333H8.624L7.6,107.433a.926.926,0,0,1-.092-.361L7.09,98.244a.942.942,0,0,1,.184-.6,73.945,73.945,0,0,0,4.581-6.869.926.926,0,0,1,1.19-.4c.222.1,5.462,2.428,7.479,3.617a2.213,2.213,0,0,0,2.706-.148,4.387,4.387,0,0,1,2.2-.74,24.472,24.472,0,0,1,4.165.922c.531.138,1.106.288,1.705.442a48.519,48.519,0,0,1,0-5.63.926.926,0,1,1,1.849.1,40.3,40.3,0,0,0,.426,9.047.935.935,0,0,1,.009.275l-1.307,11.292h2.016l-.49-2.315a.926.926,0,0,1-.013-.3l.958-7.795a.929.929,0,0,1,.3-.573,17.267,17.267,0,0,0,4.519-7.174.926.926,0,0,1,1.242-.62.946.946,0,0,1,.539,1.128,15.514,15.514,0,0,1-1.959,4.286c1.915.309,4.472.37,5.376-.053,2.4-.917,3.612-4.511,4.5-7.136.663-1.968,1.1-3.269,1.984-3.733a10.6,10.6,0,0,1,2.576-1.052.928.928,0,0,1,.666.119l.383.235L57.6,80.951l-.911-4.678a1.216,1.216,0,0,0-1.157-.982l-1.625.146a3.139,3.139,0,0,1-3.2,2.991c-1.9-.091-6.5-2.442-7.955-4.354-2.191-2.876-1.238-6.955-.475-9.131h0a1.443,1.443,0,0,1,2.785.243c.594,3.608,1.244,5.374,1.655,5.823.53.579,2.047.981,3.265,1.3a7.655,7.655,0,0,1,3.228,1.326c1.687-.033,5.894-.813,6.33-1.566a13.233,13.233,0,0,0,1.293-2.892,1.156,1.156,0,0,1,2.251.225c.335,3.107.065,5.24-.8,6.341a12.409,12.409,0,0,1-3.288,2.683l.469,2.407,1.342,2.223a2.408,2.408,0,0,1-.5,3.069l-.939.8a2.568,2.568,0,0,1-3.238.579l-2.268-1.391a12.1,12.1,0,0,0-1.737.768,11.334,11.334,0,0,0-1.113,2.7c-1,2.974-2.374,7.047-5.591,8.275a11.472,11.472,0,0,1-4.7.342,16.084,16.084,0,0,1-.864,2.029l1.676,7.1,1.188,1.659a1.525,1.525,0,0,1,.046,1.707,1.567,1.567,0,0,1-1.331.708H39.3a2.022,2.022,0,0,1-1.928-1.443l-1.477-5.02L35.646,107l.507,2.394a1.657,1.657,0,0,1-.411,1.479,1.717,1.717,0,0,1-1.261.527H32.1a1.723,1.723,0,0,1-.787-.178,1.664,1.664,0,0,1-.9-1.675l1.316-11.369c-.1-.585-.186-1.174-.254-1.762-.833-.21-1.628-.417-2.345-.6a34.054,34.054,0,0,0-3.7-.862,2.876,2.876,0,0,0-1.29.5,3.986,3.986,0,0,1-4.556.13c-.84-.5-2.325-1.224-3.737-1.89a38.294,38.294,0,0,1-2.918,5.312L14,102.87a.926.926,0,1,1-1.785.493L11.032,99.1a.926.926,0,0,1,.119-.756,37.274,37.274,0,0,0,3.014-5.429c-.423-.194-.8-.366-1.106-.5-1.317,2.247-3.269,4.945-4.008,5.95l3.911,11.194h1.7l-1.148-1.69a.947.947,0,0,1,.132-1.238.926.926,0,0,1,1.382.171l1.532,2.256a1.5,1.5,0,0,1,.01,1.678,1.55,1.55,0,0,1-1.3.675H12.95a1.836,1.836,0,0,1-1.732-1.231l-1.978-5.662.107,2.283,1.185,2.445a1.5,1.5,0,0,1-.128,1.529,1.554,1.554,0,0,1-1.274.634H6.856a1.84,1.84,0,0,1-1.8-1.473L2.974,99.585a4.841,4.841,0,0,1,.058-2.163l.955-3.708a29.619,29.619,0,0,1-2-6.073h0c-.122,3.39-.142,5.124-.137,5.988a.912.912,0,0,1-.78.908l-.027,0A.911.911,0,0,1,0,93.646C-.008,92.7.017,90.933.135,87.64ZM57.1,85.934a.552.552,0,0,0,.647-.049l1.36-1.163a.548.548,0,0,0,.114-.7L58.5,82.829l-2.048,2.709ZM44.024,65.557h0Zm5.484,8.548c-1.6-.425-3.261-.864-4.158-1.845-.267-.292-1.016-1.112-1.8-5.056-.419,1.82-.562,4.118.68,5.748,1.151,1.511,5.3,3.564,6.571,3.626.849.019,1.54-.922,1.132-1.6A7.974,7.974,0,0,0,49.508,74.105Zm11.319.5a3.822,3.822,0,0,0,.507-1.92q-.106.186-.22.369a5.474,5.474,0,0,1-3.1,1.714,3.988,3.988,0,0,1,.6,1.722A9.515,9.515,0,0,0,60.827,74.6ZM39.152,109.439a.159.159,0,0,0,.152.114h1.544l-.925-1.292a.922.922,0,0,1-.148-.326l-1.8-7.64a.925.925,0,0,1,.131-.727,9.406,9.406,0,0,0,.729-1.593q-.321-.048-.656-.1a20.2,20.2,0,0,1-1.63,1.82l-.076.62Z" transform="translate(0.002 -63.979)"/>
        <path id="Trazado_1034286" data-name="Trazado 1034286" d="M68.1,184.763v.459a.926.926,0,0,1-1.852,0v-.459a.926.926,0,0,1,1.852,0Z" transform="translate(-13.056 -169.037)"/>
      </g>
    </g>
  </g>
</svg>
