<svg xmlns="http://www.w3.org/2000/svg" xmlns:xlink="http://www.w3.org/1999/xlink" width="363.455" height="160.795" viewBox="0 0 363.455 160.795">
  <defs>
    <filter id="Rectángulo_408557" x="0" y="0" width="363.455" height="160.795" filterUnits="userSpaceOnUse">
      <feOffset dx="6" dy="7" input="SourceAlpha"/>
      <feGaussianBlur stdDeviation="3" result="blur"/>
      <feFlood flood-opacity="0.161"/>
      <feComposite operator="in" in2="blur"/>
      <feComposite in="SourceGraphic"/>
    </filter>
    <clipPath id="clip-path">
      <rect id="Rectángulo_408938" data-name="Rectángulo 408938" width="346" height="146" rx="6" transform="translate(-5796.614 13777.655)" fill="#fff" stroke="#707070" stroke-width="1"/>
    </clipPath>
    <clipPath id="clip-path-2">
      <rect id="Rectángulo_408937" data-name="Rectángulo 408937" width="346" height="237" transform="translate(0 -0.111)" fill="none"/>
    </clipPath>
    <clipPath id="clip-path-5">
      <rect id="Rectángulo_408886" data-name="Rectángulo 408886" width="171.311" height="22.723" fill="none"/>
    </clipPath>
    <clipPath id="clip-path-6">
      <rect id="Rectángulo_408887" data-name="Rectángulo 408887" width="21.208" height="18.738" fill="none"/>
    </clipPath>
    <clipPath id="clip-path-7">
      <rect id="Rectángulo_408888" data-name="Rectángulo 408888" width="48.656" height="37.217" fill="none"/>
    </clipPath>
    <clipPath id="clip-path-8">
      <rect id="Rectángulo_408889" data-name="Rectángulo 408889" width="16.978" height="54.617" fill="none"/>
    </clipPath>
    <clipPath id="clip-path-9">
      <rect id="Rectángulo_408890" data-name="Rectángulo 408890" width="31.644" height="89.944" fill="none"/>
    </clipPath>
    <clipPath id="clip-path-10">
      <rect id="Rectángulo_408891" data-name="Rectángulo 408891" width="106.03" height="93.298" fill="none"/>
    </clipPath>
    <clipPath id="clip-path-11">
      <rect id="Rectángulo_408892" data-name="Rectángulo 408892" width="10.582" height="54.709" fill="none"/>
    </clipPath>
    <clipPath id="clip-path-12">
      <rect id="Rectángulo_408893" data-name="Rectángulo 408893" width="21.525" height="65.092" fill="none"/>
    </clipPath>
    <clipPath id="clip-path-13">
      <rect id="Rectángulo_408894" data-name="Rectángulo 408894" width="26.887" height="30.703" fill="none"/>
    </clipPath>
    <clipPath id="clip-path-14">
      <rect id="Rectángulo_408895" data-name="Rectángulo 408895" width="23.317" height="8.513" fill="none"/>
    </clipPath>
    <clipPath id="clip-path-15">
      <rect id="Rectángulo_408896" data-name="Rectángulo 408896" width="58.031" height="58.852" fill="none"/>
    </clipPath>
    <clipPath id="clip-path-17">
      <rect id="Rectángulo_408898" data-name="Rectángulo 408898" width="28.634" height="30.97" fill="none"/>
    </clipPath>
    <clipPath id="clip-path-18">
      <rect id="Rectángulo_408899" data-name="Rectángulo 408899" width="15.853" height="15.703" fill="none"/>
    </clipPath>
    <clipPath id="clip-path-19">
      <rect id="Rectángulo_408900" data-name="Rectángulo 408900" width="17.818" height="17.593" fill="none"/>
    </clipPath>
    <clipPath id="clip-path-20">
      <rect id="Rectángulo_408901" data-name="Rectángulo 408901" width="15.029" height="16.27" fill="none"/>
    </clipPath>
    <clipPath id="clip-path-21">
      <rect id="Rectángulo_408902" data-name="Rectángulo 408902" width="45.04" height="30.694" fill="none"/>
    </clipPath>
    <clipPath id="clip-path-22">
      <rect id="Rectángulo_408903" data-name="Rectángulo 408903" width="16.377" height="52.687" fill="none"/>
    </clipPath>
    <clipPath id="clip-path-23">
      <rect id="Rectángulo_408904" data-name="Rectángulo 408904" width="27.932" height="79.395" fill="none"/>
    </clipPath>
    <clipPath id="clip-path-24">
      <rect id="Rectángulo_408905" data-name="Rectángulo 408905" width="81.854" height="69.25" fill="none"/>
    </clipPath>
    <clipPath id="clip-path-25">
      <rect id="Rectángulo_408906" data-name="Rectángulo 408906" width="10.209" height="52.775" fill="none"/>
    </clipPath>
    <clipPath id="clip-path-26">
      <rect id="Rectángulo_408907" data-name="Rectángulo 408907" width="19" height="57.457" fill="none"/>
    </clipPath>
    <clipPath id="clip-path-27">
      <rect id="Rectángulo_408908" data-name="Rectángulo 408908" width="36.516" height="51.519" fill="none"/>
    </clipPath>
    <clipPath id="clip-path-28">
      <rect id="Rectángulo_408909" data-name="Rectángulo 408909" width="7.281" height="7.588" fill="none"/>
    </clipPath>
    <clipPath id="clip-path-29">
      <rect id="Rectángulo_408910" data-name="Rectángulo 408910" width="21.994" height="18.441" fill="none"/>
    </clipPath>
    <clipPath id="clip-path-30">
      <rect id="Rectángulo_408911" data-name="Rectángulo 408911" width="17.155" height="14.798" fill="none"/>
    </clipPath>
    <clipPath id="clip-path-31">
      <rect id="Rectángulo_408912" data-name="Rectángulo 408912" width="23.54" height="9.878" fill="none"/>
    </clipPath>
    <clipPath id="clip-path-32">
      <rect id="Rectángulo_408913" data-name="Rectángulo 408913" width="6.702" height="15.682" fill="none"/>
    </clipPath>
    <clipPath id="clip-path-36">
      <rect id="Rectángulo_408917" data-name="Rectángulo 408917" width="20.327" height="22.551" fill="none"/>
    </clipPath>
    <clipPath id="clip-path-37">
      <rect id="Rectángulo_408918" data-name="Rectángulo 408918" width="10.105" height="6.679" fill="none"/>
    </clipPath>
    <clipPath id="clip-path-38">
      <rect id="Rectángulo_408919" data-name="Rectángulo 408919" width="5.317" height="14.28" fill="none"/>
    </clipPath>
    <clipPath id="clip-path-42">
      <rect id="Rectángulo_408923" data-name="Rectángulo 408923" width="33.322" height="28.92" fill="none"/>
    </clipPath>
    <clipPath id="clip-path-43">
      <rect id="Rectángulo_408924" data-name="Rectángulo 408924" width="6.11" height="23.976" fill="none"/>
    </clipPath>
    <clipPath id="clip-path-44">
      <rect id="Rectángulo_408925" data-name="Rectángulo 408925" width="5.649" height="22.576" fill="none"/>
    </clipPath>
    <clipPath id="clip-path-45">
      <rect id="Rectángulo_408926" data-name="Rectángulo 408926" width="22.433" height="38.831" fill="none"/>
    </clipPath>
    <clipPath id="clip-path-46">
      <rect id="Rectángulo_408927" data-name="Rectángulo 408927" width="2.259" height="6.447" fill="none"/>
    </clipPath>
    <clipPath id="clip-path-47">
      <rect id="Rectángulo_408928" data-name="Rectángulo 408928" width="2.182" height="6.487" fill="none"/>
    </clipPath>
    <clipPath id="clip-path-48">
      <rect id="Rectángulo_408929" data-name="Rectángulo 408929" width="22.953" height="22.5" fill="none"/>
    </clipPath>
    <clipPath id="clip-path-49">
      <rect id="Rectángulo_408930" data-name="Rectángulo 408930" width="7.181" height="9.495" fill="none"/>
    </clipPath>
    <clipPath id="clip-path-50">
      <rect id="Rectángulo_408931" data-name="Rectángulo 408931" width="11.049" height="17.326" fill="none"/>
    </clipPath>
    <clipPath id="clip-path-51">
      <rect id="Rectángulo_408932" data-name="Rectángulo 408932" width="14.536" height="12.442" fill="none"/>
    </clipPath>
    <clipPath id="clip-path-52">
      <rect id="Rectángulo_408933" data-name="Rectángulo 408933" width="2.688" height="1.313" fill="none"/>
    </clipPath>
    <clipPath id="clip-path-53">
      <rect id="Rectángulo_408934" data-name="Rectángulo 408934" width="6.595" height="9.355" fill="none"/>
    </clipPath>
    <clipPath id="clip-path-54">
      <rect id="Rectángulo_408935" data-name="Rectángulo 408935" width="2.395" height="2.62" fill="none"/>
    </clipPath>
  </defs>
  <g id="Grupo_1212396" data-name="Grupo 1212396" transform="translate(-1017.573 -23453.598)">
    <g id="Grupo_1211641" data-name="Grupo 1211641" transform="translate(-158.66 16914.664)">
      <g transform="matrix(1, 0, 0, 1, 1176.23, 6538.93)" filter="url(#Rectángulo_408557)">
        <rect id="Rectángulo_408557-2" data-name="Rectángulo 408557" width="345.455" height="142.796" rx="8" transform="translate(3 2)" fill="#afa491"/>
      </g>
    </g>
    <g id="Enmascarar_grupo_1098815" data-name="Enmascarar grupo 1098815" transform="translate(6816.665 9676.345)" clip-path="url(#clip-path)">
      <g id="Grupo_1212394" data-name="Grupo 1212394" transform="translate(-5796.614 13711.768)">
        <g id="Grupo_1212393" data-name="Grupo 1212393" transform="translate(0 0)" clip-path="url(#clip-path-2)">
          <rect id="Rectángulo_408884" data-name="Rectángulo 408884" width="346" height="237" transform="translate(0 -0.111)" fill="#b2e6e6"/>
          <g id="Grupo_1212240" data-name="Grupo 1212240" transform="translate(0)">
            <g id="Grupo_1212239" data-name="Grupo 1212239" clip-path="url(#clip-path-2)">
              <path id="Trazado_1036255" data-name="Trazado 1036255" d="M0,82.229s98.268,34.153,179.669,28.982-72.977-23.943-72.977-32.9,62.428,23.462,156.515-33.368C329.6,4.839,346.583,0,346.583,0V237.658H0Z" transform="translate(-0.611 0.092)" fill="#88d8d2"/>
              <path id="Trazado_1036256" data-name="Trazado 1036256" d="M1524.481,199.118a1.9,1.9,0,0,0,1.36.872c7.483,1.716,15.077.941,22.648,1.427-1.206.208-2.713.748-2.746,2.005-.036,1.36,1.661,1.922,2.977,2.05a163.444,163.444,0,0,0,38.682-1.116c1.53-.217,3.259-.584,4.051-1.947,2.005-3.45-4.4-3.642-5.934-3.851,1.8-1.38,3.761-3.039,3.956-5.34.275-3.254-3.059-5.517-6.058-6.594A25.032,25.032,0,0,0,1567.3,186a17.03,17.03,0,0,0-3.8,1.785c-.748.479-2.475,2.6-3.191,2.706-1.843.264-5.489-3.342-7.62-3.832a8.469,8.469,0,0,0-7.013,1.263,6.107,6.107,0,0,0-2.161,6.678,52.562,52.562,0,0,0-14.56,1.541,8.709,8.709,0,0,0-4.1,1.911,1.263,1.263,0,0,0-.42.682.736.736,0,0,0,.042.383" transform="translate(-1348.927 -162.875)" fill="#ebfbfa"/>
              <path id="Trazado_1036257" data-name="Trazado 1036257" d="M109.716,510.618c0,1.813,3.356,1.763,5.276,1.835l26.916,1.012c-1.157-.141-1.7,1.687-.984,2.629a4.382,4.382,0,0,0,3.163,1.276,160.854,160.854,0,0,0,40.31-.708,4.767,4.767,0,0,0,3.319-1.45c1.019-1.373.332-3.5-1-4.55a9.533,9.533,0,0,0-4.744-1.55c1.439.2,3.663-5.787-4.152-8.973-4.657-1.4-9.718-1-13.351,2.677.926-.938-3.259-4.367-3.863-4.684a8.793,8.793,0,0,0-6.995-.471,18.216,18.216,0,0,0-4.061,1.909c-.8.512-2.647,2.784-3.413,2.894-1.971.282-5.871-3.574-8.15-4.1a9.059,9.059,0,0,0-7.5,1.351,6.532,6.532,0,0,0-2.311,7.142c-1.836-1.308-18.461,1.944-18.461,3.757" transform="translate(-97.652 -437.986)" fill="#ebfbfa"/>
              <path id="Trazado_1036258" data-name="Trazado 1036258" d="M2209.946,768.683c6.828-.283,13.8-.83,20.085-3.582,1.522-.666,3.24-1.921,2.965-3.6l-6.3-.782c-.2-8.046-7.253-14.883-15.013-15.914s-15.631,2.987-20.7,9.122c-5.673-3.59-14.112-1.1-17.074,5.034a10.4,10.4,0,0,1-1.28,2.343c-2.053,2.393-11.7-.087-12.215,3.118-.564,3.511,10.332,3.376,12.159,3.524a306.247,306.247,0,0,0,37.369.737" transform="translate(-1911.421 -656.066)" fill="#ebfbfa"/>
              <path id="Trazado_1036259" data-name="Trazado 1036259" d="M346.583,968.58c-.414.186-.826.376-1.234.578-9.031,4.456-16.5,13.081-18.676,23.475a17.883,17.883,0,0,0-17.344,9.013,40.3,40.3,0,0,0-25.892,4.939c-2.69,1.543-4.467,6.944-1.415,6.918l-119.357,5.589c-5.652.265-11.424.515-16.857-1.175-4.936-1.535-9.321-4.589-14.008-6.849a46.848,46.848,0,0,0-33.449-2.76c-4.325,1.279-8.806,3.206-13.152,2.011-3.183-.875-5.753-3.3-8.324-5.494a77.246,77.246,0,0,0-26.27-14.606A80.855,80.855,0,0,0,0,990.435v100.708H346.583Z" transform="translate(-0.611 -853.392)" fill="#ebfbfa"/>
              <path id="Trazado_1036260" data-name="Trazado 1036260" d="M2172.986,1290.507c-4.779-.991-9.311-.008-10.374,5.1-5.294-3.292-13.178-1.928-16.051,4.151a19.964,19.964,0,0,0-14.035,2.883,9.057,9.057,0,0,0-11.374-.981c-2.537-1.841-5.148-3.718-8.157-4.5s-6.549-.256-8.6,2.138c-.65.757-1.206,1.723-2.152,1.992a4.366,4.366,0,0,1-2.59-.482c-3.43-1.237-7.212-.545-10.742.348a103.253,103.253,0,0,0-23.943,9.37c3.864-2.1,14.609.195,19.057.333q9.879.307,19.747.892,20.086,1.191,40.086,3.532,10.171,1.19,20.305,2.678c1.879.276,5.281,1.267,8.827,2.158Z" transform="translate(-1827.013 -1136.762)" fill="#ac9f1d"/>
              <path id="Trazado_1036261" data-name="Trazado 1036261" d="M60,1284.236c-1.509.071-3.161.213-4.391-.691-1.33-.977-1.68-2.812-2.435-4.3-2.369-4.678-9.863-5.176-12.8-.85a16.685,16.685,0,0,0-3.443-5.9c-1.644-1.575-4.224-2.363-6.185-1.234-1.219.7-2,2-3.12,2.861s-3.01,1.067-3.693-.187c-.473-.867-.11-1.937-.062-2.929.172-3.641-4.3-5.963-7.715-4.97s-5.823,4.031-8,6.9A8.451,8.451,0,0,0,0,1267.259v26.964q41.2-2.509,82.5-2a32.047,32.047,0,0,0-22.5-7.983" transform="translate(-0.611 -1115.298)" fill="#c2b526"/>
              <path id="Trazado_1036262" data-name="Trazado 1036262" d="M346.583,1444.843C260.431,1403.068,55.4,1403.86,0,1404.89v70.448H346.583Z" transform="translate(-0.611 -1237.588)" fill="#99992b"/>
              <path id="Trazado_1036263" data-name="Trazado 1036263" d="M0,1425.741v52.692H346.583v-67.511c-96.126-10.035-304.856,9.49-346.583,14.819" transform="translate(-0.611 -1240.683)" fill="#aab134"/>
              <path id="Trazado_1036264" data-name="Trazado 1036264" d="M0,1548.984v46.239H346.583v-46.488c-130.755-16.229-297.025-3.712-346.583.249" transform="translate(-0.611 -1357.473)" fill="#bacd47"/>
              <path id="Trazado_1036265" data-name="Trazado 1036265" d="M2608.279,1674.827c-2.512-3.555-5.468-5.873-8.809-5.358-11.553,1.782-6.932,23.172-6.932,23.172s-10.4-17.824-16.174-13.665,2.311,22.578,2.311,22.578-15.019-11.289-20.218-4.753c-2.315,2.911-1.307,7.589.522,11.883h49.3Z" transform="translate(-2262.307 -1470.932)" fill="#7f6f0e"/>
              <path id="Trazado_1036266" data-name="Trazado 1036266" d="M28.738,1705.425s8.087-10.1,1.733-16.636-17.329,7.13-17.329,7.13,7.509-19.607-2.888-21.983c-3.827-.875-7.34,2.355-10.253,6.786v31.833H57.1c-2.047-15.651-28.366-7.13-28.366-7.13" transform="translate(-0.611 -1474.805)" fill="#7f6f0e"/>
            </g>
          </g>
          <g id="Grupo_1212392" data-name="Grupo 1212392" transform="translate(0)">
            <g id="Grupo_1212391" data-name="Grupo 1212391" clip-path="url(#clip-path-2)">
              <g id="Grupo_1212243" data-name="Grupo 1212243" transform="translate(85.417 191.976)" opacity="0.19">
                <g id="Grupo_1212242" data-name="Grupo 1212242">
                  <g id="Grupo_1212241" data-name="Grupo 1212241" clip-path="url(#clip-path-5)">
                    <path id="Trazado_1036267" data-name="Trazado 1036267" d="M915.962,1626.15c0,6.275-38.349,11.361-85.655,11.361s-85.656-5.087-85.656-11.361,38.349-11.361,85.656-11.361,85.655,5.087,85.655,11.361" transform="translate(-744.651 -1614.789)"/>
                  </g>
                </g>
              </g>
              <path id="Trazado_1036268" data-name="Trazado 1036268" d="M498.538,712.145s-4.733,13.691-10.649,16.278-12.128-.608-12.867-1.673,3.106-6.541,4.733-8.823,22.777-14,18.783-5.781" transform="translate(-420.672 -624.888)" fill="#7b422a"/>
              <g id="Grupo_1212246" data-name="Grupo 1212246" transform="translate(57.159 84.373)" opacity="0.19">
                <g id="Grupo_1212245" data-name="Grupo 1212245">
                  <g id="Grupo_1212244" data-name="Grupo 1212244" clip-path="url(#clip-path-6)">
                    <path id="Trazado_1036269" data-name="Trazado 1036269" d="M520.761,712.145c3.282-6.753-10.423-.04-16.31,3.831-2.371,3.067-3.6,7.418-4.4,11.094,3.451,1.42,7.3,1.014,10.945.1a11.046,11.046,0,0,0,1.6-.5c4.7-4.518,8.163-14.528,8.163-14.528" transform="translate(-500.054 -709.261)"/>
                  </g>
                </g>
              </g>
              <path id="Trazado_1036270" data-name="Trazado 1036270" d="M527.362,747.778s-5.356,9.352-9.032,11.074-7.227,1.617-7.537.556,3.16-7.5,4.776-8.431,13.23-6.565,11.793-3.2" transform="translate(-452.377 -657.893)" fill="#e39333"/>
              <path id="Trazado_1036271" data-name="Trazado 1036271" d="M1473.717,753.088s7.745-12.591,22.673-8.222,24.989,1.58,24.314-5.735-14.8-14-8.449-20.757c0,0,3.264-.294,2.224,2.379,0,0-2.762,1.441,3.064,7.183s11.218,15.905.065,21.067-27.37-4.859-36.014,6.038c0,0-6.265,2.088-7.876-1.954" transform="translate(-1304.073 -632.91)" fill="#7b422a"/>
              <g id="Grupo_1212249" data-name="Grupo 1212249" transform="translate(169.644 85.454)" opacity="0.19">
                <g id="Grupo_1212248" data-name="Grupo 1212248">
                  <g id="Grupo_1212247" data-name="Grupo 1212247" clip-path="url(#clip-path-7)">
                    <path id="Trazado_1036272" data-name="Trazado 1036272" d="M1496.39,744.866c14.929,4.37,24.989,1.58,24.314-5.735s-14.8-14-8.449-20.757c0,0,3.264-.294,2.224,2.379,0,0-1,.524-.524,2.2-.822.011-1.332.333-1.242,1.166.372,3.419,11.265,8.844,9.459,16.617s-9.649,9.456-16.65,8.193a15.976,15.976,0,0,0-7.428.9c-6.321-.44-12.3-.08-16.5,5.211,0,0-6.265,2.088-7.876-1.954,0,0,7.745-12.592,22.673-8.222" transform="translate(-1473.718 -718.364)"/>
                  </g>
                </g>
              </g>
              <path id="Trazado_1036273" data-name="Trazado 1036273" d="M1795.39,639.435s1.147-.957,1.279-.512-.461,1.355-.461,1.355.814-.868,1.345-.442-.082,1.064-.082,1.064.3-.3,1.145.257,5.834,2.371,9.078.971a8.12,8.12,0,0,0,4.272-4.267s-3.66.7-5.052-.2c0,0,4.2-1,5.468-3.716a7.837,7.837,0,0,0,.214-5.532s.07,3.933-1.676,5.609c0,0,2.156-4.7.294-6.761a3.311,3.311,0,0,1-1.954,2.79c-1.8.609-5.81-.389-8.79,2.977a6.578,6.578,0,0,1,4.577-3.441,6.8,6.8,0,0,0-7.4.651c-3.908,2.82-2.487,8.491-2.257,9.194" transform="translate(-1588.195 -552.635)" fill="#bb6643"/>
              <path id="Trazado_1036274" data-name="Trazado 1036274" d="M1795.39,652.418c-.23-.7-1.65-6.374,2.257-9.194A7.645,7.645,0,0,1,1800.19,642a7.413,7.413,0,0,0-3.178,7.547,3.239,3.239,0,0,1,1.65-2.63,4.071,4.071,0,0,0-.841,2.946c2.447-3.243,6.826-4.052,10.674-4.453a26.618,26.618,0,0,0-5.258,2.677c2.029.4,4.256,1.073,6.221.245a16.065,16.065,0,0,1-7.287,2.277,7.883,7.883,0,0,0,9.1,1.532,8.234,8.234,0,0,1-3.574,2.972c-3.244,1.4-8.229-.411-9.078-.971s-1.145-.258-1.145-.258.613-.638.082-1.064-1.345.442-1.345.442.592-.91.461-1.355-1.279.512-1.279.512" transform="translate(-1588.195 -565.618)" fill="#914f34"/>
              <path id="Trazado_1036275" data-name="Trazado 1036275" d="M895.232,1232.082s8.135,1.931,6.414,14-4.693,39.262-6.258,40.228a2.818,2.818,0,0,1-2.972,0s-5.945-18.827-7.2-34.274,1.1-20.6,10.012-19.953" transform="translate(-783.287 -1085.536)" fill="#62341d"/>
              <path id="Trazado_1036276" data-name="Trazado 1036276" d="M946.15,1660.251c-.391,1.863-.747,3.04-1.051,3.227a2.817,2.817,0,0,1-2.972,0s-.4-1.27-1.016-3.417a8.55,8.55,0,0,0,5.039.19" transform="translate(-832.998 -1462.706)"/>
              <g id="Grupo_1212252" data-name="Grupo 1212252" transform="translate(101.62 146.493)" opacity="0.19">
                <g id="Grupo_1212251" data-name="Grupo 1212251">
                  <g id="Grupo_1212250" data-name="Grupo 1212250" clip-path="url(#clip-path-8)">
                    <path id="Trazado_1036277" data-name="Trazado 1036277" d="M895.232,1232.082s8.135,1.931,6.414,14c-.724,5.077-1.669,12.829-2.638,20.181-3.662-1.227-7.38-2.574-9.723-5.9a10.8,10.8,0,0,0,0,2.094,194,194,0,0,1,3.8,23.033c.045.39.085.776.125,1.159a2.747,2.747,0,0,1-.794-.337s-5.945-18.827-7.2-34.274,1.1-20.6,10.012-19.953" transform="translate(-884.908 -1232.029)"/>
                  </g>
                </g>
              </g>
              <path id="Trazado_1036278" data-name="Trazado 1036278" d="M1360.667,939.854s-4.787-7.21-11.8-.176-14.19,29.543-11.626,43.435a37.907,37.907,0,0,0,15.729,24.091c3.932,2.814-5.129,14.947-4.958,18.816,0,0,1.026,1.583,4.1-.352,0,0,3.078-7.562,6.326-10.2s8.548-11.079,8.035-13.54-4.1-4.572-4.1-4.572,14.532-35.7-1.71-57.5" transform="translate(-1182.897 -825.21)" fill="#62341d"/>
              <path id="Trazado_1036279" data-name="Trazado 1036279" d="M1439.833,1663.833c-.748,1.532-1.205,2.655-1.205,2.655-3.078,1.934-4.1.352-4.1.352a7.309,7.309,0,0,1,.612-2.624,12.413,12.413,0,0,0,4.7-.383" transform="translate(-1269.406 -1466.029)"/>
              <g id="Grupo_1212255" data-name="Grupo 1212255" transform="translate(153.816 111.387)" opacity="0.19">
                <g id="Grupo_1212254" data-name="Grupo 1212254">
                  <g id="Grupo_1212253" data-name="Grupo 1212253" clip-path="url(#clip-path-9)">
                    <path id="Trazado_1036280" data-name="Trazado 1036280" d="M1348.87,939.678c7.01-7.034,11.8.176,11.8.176,16.242,21.805,1.71,57.5,1.71,57.5s3.59,2.11,4.1,4.572c.2.953-.474,2.8-1.561,4.862a33.277,33.277,0,0,1-6.386,1.357c-1.78,5.187-4.6,9.305-7.86,14.034a13.807,13.807,0,0,0-1.865,4.359,1.471,1.471,0,0,1-.792-.521c-.171-3.868,8.89-16,4.958-18.816a37.907,37.907,0,0,1-15.729-24.091c-2.564-13.892,4.616-36.4,11.626-43.435" transform="translate(-1336.713 -936.597)"/>
                  </g>
                </g>
              </g>
              <path id="Trazado_1036281" data-name="Trazado 1036281" d="M764.573,774.981s-13.3,18.911-18.426,25.769,3.332,42.414,20.6,58.416,66.676,8.089,76.763-2.11,8.548-58.03,6.668-59.613-7.693-1.934-10.429-.528c0,0-3.932-5.1-11.968-2.813s-35.341,8.488-63.208-19.121" transform="translate(-659.244 -682.799)" fill="#7b422a"/>
              <g id="Grupo_1212258" data-name="Grupo 1212258" transform="translate(85.418 92.182)" opacity="0.19">
                <g id="Grupo_1212257" data-name="Grupo 1212257">
                  <g id="Grupo_1212256" data-name="Grupo 1212256" clip-path="url(#clip-path-10)">
                    <path id="Trazado_1036282" data-name="Trazado 1036282" d="M746.147,800.75c5.129-6.858,18.426-25.769,18.426-25.769a78.238,78.238,0,0,0,21.476,15.427,4.869,4.869,0,0,1-2.241.995,28.93,28.93,0,0,1-10.668-1c1.185,11.638-7.651,20.173-13.578,28.929a29.245,29.245,0,0,0,5.927,24.717c.646.776,1.509-.443,2.047-1,3.556-3.214,5.711-7.426,9.914-10.086,3.017-2,6.9-1.441,9.914.665a13.8,13.8,0,0,1,5.257,8.155c.749,3.657-.842,8.046-1.488,11.691a6.366,6.366,0,0,0,.154,3.98A5.158,5.158,0,0,0,793.9,859.6c5.836,2.658,12.546,1.784,18.865.858a131.493,131.493,0,0,0,14.229-2.625c4.132-1.079,8.934-2.276,11.88-5.581a67.219,67.219,0,0,0,7.328-10.2,66.379,66.379,0,0,0,4.49-9.275c-1.061,10.505-3.229,20.279-7.181,24.275-10.087,10.2-59.5,18.113-76.763,2.11s-25.729-51.558-20.6-58.416" transform="translate(-744.662 -774.981)"/>
                  </g>
                </g>
              </g>
              <path id="Trazado_1036283" data-name="Trazado 1036283" d="M981.157,1252.15s8.89,2.11,7.01,15.3-5.129,42.907-6.839,43.962a3.079,3.079,0,0,1-3.248,0s-6.5-20.574-7.864-37.456,1.2-22.509,10.942-21.805" transform="translate(-858.437 -1103.215)" fill="#7b422a"/>
              <path id="Trazado_1036284" data-name="Trazado 1036284" d="M1036.8,1720.068c-.427,2.036-.817,3.322-1.149,3.527a3.08,3.08,0,0,1-3.249,0s-.438-1.388-1.11-3.735a9.343,9.343,0,0,0,5.507.208" transform="translate(-912.762 -1515.399)"/>
              <g id="Grupo_1212261" data-name="Grupo 1212261" transform="translate(112.258 148.263)" opacity="0.19">
                <g id="Grupo_1212260" data-name="Grupo 1212260">
                  <g id="Grupo_1212259" data-name="Grupo 1212259" clip-path="url(#clip-path-11)">
                    <path id="Trazado_1036285" data-name="Trazado 1036285" d="M987.314,1246.978s.094.022.258.077a7.823,7.823,0,0,0-4.493,3.539c-5.564,9.911-2.714,21.5-.407,32.525.543,2.931,1.086,5.583,1.629,8.375.543,3.35,1.221,6.282,1.628,9.492q.054.325.109.648a2.9,2.9,0,0,1-1.54-.428s-5.945-18.827-7.2-34.274,1.1-20.6,10.012-19.953" transform="translate(-976.99 -1246.925)"/>
                  </g>
                </g>
              </g>
              <path id="Trazado_1036286" data-name="Trazado 1036286" d="M1508.653,960.572s-4.787-7.21-11.8-.176-14.19,29.543-11.626,43.435a37.908,37.908,0,0,0,15.729,24.092c3.932,2.813-5.129,14.947-4.958,18.816,0,0,1.026,1.583,4.1-.352,0,0,3.077-7.562,6.326-10.2s8.548-11.078,8.035-13.54-4.1-4.572-4.1-4.572,14.532-35.7-1.71-57.5" transform="translate(-1313.787 -843.466)" fill="#7b422a"/>
              <path id="Trazado_1036287" data-name="Trazado 1036287" d="M1587.819,1684.551c-.748,1.531-1.205,2.655-1.205,2.655-3.077,1.934-4.1.352-4.1.352a7.306,7.306,0,0,1,.612-2.624,12.415,12.415,0,0,0,4.7-.383" transform="translate(-1400.296 -1484.285)"/>
              <g id="Grupo_1212264" data-name="Grupo 1212264" transform="translate(170.913 138.789)" opacity="0.19">
                <g id="Grupo_1212263" data-name="Grupo 1212263">
                  <g id="Grupo_1212262" data-name="Grupo 1212262" clip-path="url(#clip-path-12)">
                    <path id="Trazado_1036288" data-name="Trazado 1036288" d="M1486.733,1167.2c-.923,16.746,3.862,34.364,18.857,43.844,1.038.61.594,1.983.148,2.746a60.142,60.142,0,0,0-7.878,18.47,1.826,1.826,0,0,1-1.858-.576c-.171-3.869,8.89-16,4.958-18.816a37.908,37.908,0,0,1-15.729-24.091c-1.143-6.192-.349-14.094,1.5-21.576" transform="translate(-1484.701 -1167.198)"/>
                  </g>
                </g>
              </g>
              <path id="Trazado_1036289" data-name="Trazado 1036289" d="M489.311,522.755s-11.24-5.172-14.642-12.322,13.311-9.584,13.163-12.018-22.037-1.673-24.552,8.975S478,528.012,485.135,527.97s4.175-5.215,4.175-5.215" transform="translate(-410.15 -438.084)" fill="#f9dfbb"/>
              <g id="Grupo_1212267" data-name="Grupo 1212267" transform="translate(52.882 59.182)" opacity="0.19">
                <g id="Grupo_1212266" data-name="Grupo 1212266">
                  <g id="Grupo_1212265" data-name="Grupo 1212265" clip-path="url(#clip-path-13)">
                    <path id="Trazado_1036290" data-name="Trazado 1036290" d="M463.28,507.39c2.514-10.649,24.4-11.409,24.552-8.975a.749.749,0,0,1-.212.522c-5.192-.01-10.149,1.853-15.024,3.8a9.122,9.122,0,0,0-5.621,6.8c-.887,5.274,2.958,9.23,7.1,11.562,1.578.811,3.057,1.623,4.634,2.434a3.759,3.759,0,0,0,2.662.406,15.252,15.252,0,0,1,6.033-2.155c1.162.63,1.907.972,1.907.972s2.958,5.172-4.175,5.215-24.37-9.931-21.855-20.58" transform="translate(-463.032 -497.266)"/>
                  </g>
                </g>
              </g>
              <path id="Trazado_1036291" data-name="Trazado 1036291" d="M510.593,757.2a11.511,11.511,0,0,0-4.339-6.491,2.809,2.809,0,0,0-1.085-.609c-4.733-1.318-9.367-1.42-14.2-1.826a10.166,10.166,0,0,1-2.366-.608,3.621,3.621,0,0,0-1.007-.172c.258-.308.533-.612.832-.907,0,0,6.154-39.478,21.9-44.224,0,0,12.486,2.513,21.171,2.513s14.386,21.5,9.771,31.268a51.7,51.7,0,0,1-22.687,23.623c-2.308,1.195-4.9,2.62-7.6,3.947a33.75,33.75,0,0,0-.386-6.515" transform="translate(-431.877 -618.812)" fill="#7b422a"/>
              <path id="Trazado_1036292" data-name="Trazado 1036292" d="M513.268,1172.537s-2.662,4.412-5.177,5.477-4.585-1.978-11.092-1.673-7.4-2.738-6.951-6.693,17.748-1.369,23.22,2.89" transform="translate(-433.96 -1028.841)" fill="#fcb554"/>
              <g id="Grupo_1212270" data-name="Grupo 1212270" transform="translate(55.992 138.847)" opacity="0.19">
                <g id="Grupo_1212269" data-name="Grupo 1212269">
                  <g id="Grupo_1212268" data-name="Grupo 1212268" clip-path="url(#clip-path-14)">
                    <path id="Trazado_1036293" data-name="Trazado 1036293" d="M490.049,1169.647c.444-3.955,17.748-1.369,23.22,2.89a25,25,0,0,1-2.13,2.929c-4.551.115-8.939-1.954-13.549-2.657-1.479-.2-2.958-.507-4.141.406a1.438,1.438,0,0,0-.2,1.826,12.541,12.541,0,0,0,.808,1.161c-3.838-.659-4.376-3.3-4.01-6.555" transform="translate(-489.952 -1167.689)"/>
                  </g>
                </g>
              </g>
              <path id="Trazado_1036294" data-name="Trazado 1036294" d="M464.7,1085.4a11.828,11.828,0,0,1,2.871-12.327.148.148,0,0,0,.043-.1v0a.144.144,0,0,1,.182-.136c5.241,1.482,10.854.736,16.373,1.431,6.758.656,8.364,9.32,7.183,15.343a.145.145,0,0,1-.094.11c-1.127.4-2.247.848-3.36,1.3a7.2,7.2,0,0,1-5.428.014c-2.386-.966-4.721-2.148-6.992-3.131a10.95,10.95,0,0,0-7.019-.363,3.146,3.146,0,0,1-3.76-2.141" transform="translate(-411.065 -945.254)" fill="#fcb554"/>
              <g id="Grupo_1212273" data-name="Grupo 1212273" transform="translate(53.001 83.554)" opacity="0.19">
                <g id="Grupo_1212272" data-name="Grupo 1212272">
                  <g id="Grupo_1212271" data-name="Grupo 1212271" clip-path="url(#clip-path-15)">
                    <path id="Trazado_1036295" data-name="Trazado 1036295" d="M467.616,746.589s6.154-39.478,21.9-44.224c0,0,12.486,2.513,21.171,2.513,7.817,0,13.215,17.41,10.854,28.016a31.671,31.671,0,0,0-4.74-8.756c-1.874-2.434-4.141-4.767-7.3-5.274a18.744,18.744,0,0,1-5.916,6.288c-5.423,3.347-12.227,4.463-17.946,1.521-2.366-1.217-3.648-3.651-4.733-6.187-1.479,2.434-1.873,5.274-2.958,7.911-.3.71-.789,1.42-1.085,2.13a58.318,58.318,0,0,0-2.169,8.418,71.023,71.023,0,0,0-.986,8.012,10.932,10.932,0,0,0-4.832,10.649,17.176,17.176,0,0,0,.743,3.247q-.619.1-1.234.264a3.007,3.007,0,0,1-3.62-1.972,11.85,11.85,0,0,1,2.85-12.558" transform="translate(-464.066 -702.365)"/>
                  </g>
                </g>
              </g>
              <path id="Trazado_1036296" data-name="Trazado 1036296" d="M905.584,755.672s4.733,13.692,10.649,16.278,12.128-.608,12.867-1.673-3.106-6.541-4.733-8.823-22.777-14-18.783-5.781" transform="translate(-801.132 -663.243)" fill="#7b422a"/>
              <g id="Grupo_1212276" data-name="Grupo 1212276" transform="translate(103.951 89.545)" opacity="0.19">
                <g id="Grupo_1212275" data-name="Grupo 1212275">
                  <g id="Grupo_1212274" data-name="Grupo 1212274" clip-path="url(#clip-path-6)">
                    <path id="Trazado_1036297" data-name="Trazado 1036297" d="M905.583,755.672c-3.282-6.752,10.423-.04,16.31,3.831,2.371,3.067,3.6,7.418,4.4,11.094-3.451,1.42-7.3,1.014-10.945.1a11.04,11.04,0,0,1-1.6-.5c-4.7-4.518-8.163-14.528-8.163-14.528" transform="translate(-905.082 -752.788)"/>
                  </g>
                </g>
              </g>
              <path id="Trazado_1036298" data-name="Trazado 1036298" d="M933.412,791.306s5.356,9.352,9.032,11.074,7.227,1.617,7.537.556-3.16-7.5-4.776-8.431-13.23-6.565-11.793-3.2" transform="translate(-826.079 -696.248)" fill="#e39333"/>
              <path id="Trazado_1036299" data-name="Trazado 1036299" d="M867.113,555.821s-2.958.456-2.662,4.107,5.324,3.955,9.022,4.107,27.805-.913,31.207-10.8-18.34-21.6-20.854-20.233,7.247,10.04,4.881,15.365-21.594,7.454-21.594,7.454" transform="translate(-765.175 -469.477)" fill="#f9dfbb"/>
              <g id="Grupo_1212279" data-name="Grupo 1212279" transform="translate(99.255 63.415)" opacity="0.19">
                <g id="Grupo_1212278" data-name="Grupo 1212278">
                  <g id="Grupo_1212277" data-name="Grupo 1212277" clip-path="url(#clip-path-17)">
                    <path id="Trazado_1036300" data-name="Trazado 1036300" d="M867.113,555.821s19.227-2.13,21.594-7.454-7.4-14-4.881-15.365c.872-.475,4.058.625,7.7,2.676a1.735,1.735,0,0,0-1.591,2.207c1.38,3.854,4.24,8.012,2.662,12.069-2.367,6.288-9.663,7.607-15.777,8.317-2.169.2-4.634.71-5.62,2.941a5.26,5.26,0,0,0-.475,2.65c-3.053-.305-6.053-1.139-6.279-3.934-.3-3.651,2.662-4.107,2.662-4.107" transform="translate(-864.43 -532.892)"/>
                  </g>
                </g>
              </g>
              <path id="Trazado_1036301" data-name="Trazado 1036301" d="M565.278,1122.649s2.714-9.213,6.786-6.7-2.443,8.655-6.786,6.7" transform="translate(-500.584 -982.867)" fill="#23211e"/>
              <path id="Trazado_1036302" data-name="Trazado 1036302" d="M481.5,1118.305s-1.629-6.98-4.071-6.421-2.986,8.655,4.071,6.421" transform="translate(-421.42 -979.64)" fill="#23211e"/>
              <path id="Trazado_1036303" data-name="Trazado 1036303" d="M770,892.291c0,1.677.729,3.036,1.628,3.036s1.628-1.359,1.628-3.036-.729-3.036-1.628-3.036S770,890.614,770,892.291" transform="translate(-681.657 -783.494)" fill="#23211e"/>
              <path id="Trazado_1036304" data-name="Trazado 1036304" d="M583.231,874.671c0,1.677.729,3.036,1.628,3.036s1.628-1.359,1.628-3.036-.729-3.036-1.628-3.036-1.628,1.359-1.628,3.036" transform="translate(-516.463 -767.967)" fill="#23211e"/>
              <path id="Trazado_1036305" data-name="Trazado 1036305" d="M2274.574,883.5s9.1-13.984,13.765-9.268-10.231,15.242-13.765,9.268" transform="translate(-2012.409 -769.402)" fill="#f9dfbb"/>
              <path id="Trazado_1036306" data-name="Trazado 1036306" d="M2305.16,904.511s5.529-9.924,8.694-6.548-6.851,7.316-8.694,6.548" transform="translate(-2039.461 -790.549)" fill="#ba9868"/>
              <path id="Trazado_1036307" data-name="Trazado 1036307" d="M1986.463,819.434s-12.289-3.712-12.971-8.025-5.949-.8-6.145,4.113,5.852,8.928,10.241,9.53,9.948-1.2,8.875-5.618" transform="translate(-1740.671 -713.181)" fill="#f9dfbb"/>
              <g id="Grupo_1212282" data-name="Grupo 1212282" transform="translate(230.073 96.279)" opacity="0.19">
                <g id="Grupo_1212281" data-name="Grupo 1212281">
                  <g id="Grupo_1212280" data-name="Grupo 1212280" clip-path="url(#clip-path-18)">
                    <path id="Trazado_1036308" data-name="Trazado 1036308" d="M2012.506,819.437s-12.289-3.712-12.972-8.025c-.3-1.9-1.492-2.282-2.747-1.693a2.12,2.12,0,0,1,.966,1.071,11.007,11.007,0,0,0,5.779,6.9.791.791,0,0,1,.231.951,9.831,9.831,0,0,0-2.622,5.774,11.932,11.932,0,0,0,2.49.644c4.389.6,9.948-1.2,8.875-5.618" transform="translate(-1996.787 -809.464)"/>
                  </g>
                </g>
              </g>
              <path id="Trazado_1036309" data-name="Trazado 1036309" d="M2211.847,795.577s11.016-6.72,10.641-11.073,5.572-2.29,6.942,2.424-3.526,10.138-7.634,11.837-9.929,1.362-9.949-3.188" transform="translate(-1956.929 -689.084)" fill="#f9dfbb"/>
              <g id="Grupo_1212285" data-name="Grupo 1212285" transform="translate(254.919 93.031)" opacity="0.19">
                <g id="Grupo_1212284" data-name="Grupo 1212284">
                  <g id="Grupo_1212283" data-name="Grupo 1212283" clip-path="url(#clip-path-19)">
                    <path id="Trazado_1036310" data-name="Trazado 1036310" d="M2229.43,786.935c-1.059-3.644-4.853-5.7-6.347-4.439,2.375-.289,4.442,1.924,4.645,4.32a9.257,9.257,0,0,1-4.277,8.679c-1.9-1.281-4.225-3.038-6.583-3.458a54.649,54.649,0,0,1-5.021,3.548c.021,4.55,5.841,4.887,9.949,3.188s9-7.124,7.634-11.837" transform="translate(-2211.847 -782.122)"/>
                  </g>
                </g>
              </g>
              <path id="Trazado_1036311" data-name="Trazado 1036311" d="M2351.222,1091.087a14.42,14.42,0,0,1-.895,4.621,32.075,32.075,0,0,1,8.908-8.708c-2.391,3.552-4.81,7.159-6.209,11.233a27.433,27.433,0,0,1,9.533-7.655l-7.888,9.8,6.424-.907a30.257,30.257,0,0,0-8.8,5.825,17.829,17.829,0,0,1-3.48,2.928,12.487,12.487,0,0,1-5.711,1.15,2.746,2.746,0,0,1-1.556-.266,2.024,2.024,0,0,1-.753-2.038c.446-2.763,3.118-6.027,4.616-8.3q1.352-2.059,2.839-4.019c.468-.618,2.988-2.972,2.969-3.663" transform="translate(-2070.955 -957.74)" fill="#cfbc17"/>
              <g id="Grupo_1212288" data-name="Grupo 1212288" transform="translate(269.813 135.373)" opacity="0.19">
                <g id="Grupo_1212287" data-name="Grupo 1212287">
                  <g id="Grupo_1212286" data-name="Grupo 1212286" clip-path="url(#clip-path-20)">
                    <path id="Trazado_1036312" data-name="Trazado 1036312" d="M2355.162,1142.533a11.147,11.147,0,0,1-5.548,4.28c1.156-2.378,2.659-4.636,3.7-7.133a27.381,27.381,0,0,1-4.508,4.518,8.117,8.117,0,0,1,.962-5.745c-.641.692-1.3,1.35-1.513,1.636q-1.485,1.959-2.839,4.019c-1.5,2.278-4.17,5.542-4.616,8.3a2.024,2.024,0,0,0,.753,2.038,2.747,2.747,0,0,0,1.556.266,12.482,12.482,0,0,0,5.711-1.15,17.811,17.811,0,0,0,3.48-2.928,30.409,30.409,0,0,1,3.5-2.858,14.745,14.745,0,0,0-4.564.815c1.387-2.021,2.658-4.042,3.93-6.063" transform="translate(-2340.768 -1138.453)"/>
                  </g>
                </g>
              </g>
              <path id="Trazado_1036313" data-name="Trazado 1036313" d="M1181.475,1003.208a17.947,17.947,0,0,0-17.176,12.819c-4.4,13.346-11.415,19.464-16.242,15.292s-2.467-18.083-10.424-16.722c0,0-1.844,2.292.565,2.855,0,0,2.4-1.341,3.537,5.891s5.608,16.358,14.847,10.613,10.293-22.888,22.324-23.883c0,0,4.617-3.634,2.569-6.865" transform="translate(-1006.219 -883.903)" fill="#f9dfbb"/>
              <g id="Grupo_1212291" data-name="Grupo 1212291" transform="translate(130.739 119.302)" opacity="0.19">
                <g id="Grupo_1212290" data-name="Grupo 1212290">
                  <g id="Grupo_1212289" data-name="Grupo 1212289" clip-path="url(#clip-path-21)">
                    <path id="Trazado_1036314" data-name="Trazado 1036314" d="M1164.3,1016.028c-4.4,13.346-11.415,19.464-16.242,15.292s-2.467-18.083-10.424-16.722c0,0-1.844,2.292.565,2.854,0,0,.873-.486,1.815.71.42-.608.9-.828,1.446-.343,2.228,1.992.6,12.852,6.994,15.4s11.517-2.468,14.135-8.333a14.774,14.774,0,0,1,4.363-5.1c2.859-4.944,6.113-9.233,11.954-9.716,0,0,4.617-3.634,2.569-6.865a17.947,17.947,0,0,0-17.176,12.819" transform="translate(-1136.958 -1003.205)"/>
                  </g>
                </g>
              </g>
              <path id="Trazado_1036315" data-name="Trazado 1036315" d="M1028.689,1074.287s-1.251.378-1,.7,1.188.335,1.188.335-1.021.173-.986.783.793.472.793.472-.362.069-.392.985-1.251,5.549-3.866,7.27a6.874,6.874,0,0,1-5.156,1.052s2.333-2.381,2.394-3.874c0,0-2.81,2.638-5.366,2.223a6.556,6.556,0,0,1-4.014-2.614s2.743,2.025,4.8,1.56c0,0-4.4-.747-4.923-3.17a2.768,2.768,0,0,0,2.95-.061c1.332-1.039,2.639-4.536,6.511-5.075a5.656,5.656,0,0,0-4.725,1.695,6.307,6.307,0,0,1,4.17-5.2c3.951-1.506,7.245,2.4,7.625,2.923" transform="translate(-895.837 -943.66)" fill="#bb6643"/>
              <path id="Trazado_1036316" data-name="Trazado 1036316" d="M1067.031,1074.288c-.381-.524-3.674-4.429-7.625-2.923a6.8,6.8,0,0,0-2.141,1.285,6.161,6.161,0,0,1,6.924,1.41,2.706,2.706,0,0,0-2.685-.086,3.364,3.364,0,0,1,2.5.848c-3.517.2-6.285,3.069-8.5,5.743a23.59,23.59,0,0,1,4.527-2.587c-.735,1.716-1.376,3.718-2.946,4.771a14.552,14.552,0,0,0,5.262-4.3,7.381,7.381,0,0,1-3.479,7.566,7.073,7.073,0,0,0,3.891-1.18c2.615-1.722,3.836-6.355,3.866-7.271s.392-.985.392-.985-.758.138-.793-.472.986-.783.986-.783-.94-.014-1.188-.335,1-.7,1-.7" transform="translate(-934.179 -943.661)" fill="#914f34"/>
              <path id="Trazado_1036317" data-name="Trazado 1036317" d="M1970.057,1265.324s-7.847,1.863-6.187,13.5,4.527,37.875,6.037,38.806a2.718,2.718,0,0,0,2.867,0s5.735-18.161,6.942-33.063-1.056-19.869-9.658-19.248" transform="translate(-1737.396 -1114.83)" fill="#edd4b2"/>
              <path id="Trazado_1036318" data-name="Trazado 1036318" d="M2009.108,1678.359c.377,1.8.721,2.933,1.014,3.113a2.718,2.718,0,0,0,2.867,0s.387-1.225.98-3.3a8.246,8.246,0,0,1-4.861.184" transform="translate(-1777.612 -1478.668)" fill="#574d41"/>
              <g id="Grupo_1212294" data-name="Grupo 1212294" transform="translate(226.244 150.443)" opacity="0.19">
                <g id="Grupo_1212293" data-name="Grupo 1212293">
                  <g id="Grupo_1212292" data-name="Grupo 1212292" clip-path="url(#clip-path-22)">
                    <path id="Trazado_1036319" data-name="Trazado 1036319" d="M1970.057,1265.324s-7.847,1.863-6.187,13.5c.7,4.9,1.61,12.376,2.545,19.467,3.532-1.184,7.119-2.483,9.379-5.693a10.409,10.409,0,0,1,0,2.02,187.107,187.107,0,0,0-3.666,22.219c-.043.376-.082.748-.121,1.118a2.652,2.652,0,0,0,.766-.325s5.735-18.161,6.942-33.063-1.056-19.869-9.658-19.248" transform="translate(-1963.639 -1265.273)"/>
                  </g>
                </g>
              </g>
              <path id="Trazado_1036320" data-name="Trazado 1036320" d="M1457.771,1004.026s4.226-6.364,10.413-.155,12.526,26.078,10.262,38.341a33.46,33.46,0,0,1-13.884,21.266c-3.471,2.484,4.527,13.194,4.376,16.609,0,0-.905,1.4-3.622-.31,0,0-2.716-6.675-5.584-9s-7.546-9.779-7.093-11.952,3.622-4.036,3.622-4.036-12.828-31.511,1.509-50.759" transform="translate(-1283.965 -882.093)" fill="#edd4b2"/>
              <path id="Trazado_1036321" data-name="Trazado 1036321" d="M1565.846,1643.09c.66,1.352,1.064,2.344,1.064,2.344,2.716,1.708,3.622.31,3.622.31a6.445,6.445,0,0,0-.54-2.316,10.967,10.967,0,0,1-4.146-.338" transform="translate(-1385.558 -1447.751)" fill="#574d41"/>
              <g id="Grupo_1212297" data-name="Grupo 1212297" transform="translate(167.017 119.058)" opacity="0.19">
                <g id="Grupo_1212296" data-name="Grupo 1212296">
                  <g id="Grupo_1212295" data-name="Grupo 1212295" clip-path="url(#clip-path-23)">
                    <path id="Trazado_1036322" data-name="Trazado 1036322" d="M1468.184,1003.87c-6.187-6.209-10.413.155-10.413.155-14.336,19.248-1.509,50.759-1.509,50.759s-3.169,1.863-3.622,4.036c-.175.841.418,2.473,1.378,4.292a29.361,29.361,0,0,0,5.637,1.2c1.571,4.578,4.058,8.214,6.938,12.389a12.191,12.191,0,0,1,1.646,3.847,1.3,1.3,0,0,0,.7-.46c.151-3.415-7.847-14.126-4.376-16.609a33.46,33.46,0,0,0,13.884-21.266c2.264-12.263-4.075-32.132-10.262-38.341" transform="translate(-1450.982 -1001.15)"/>
                  </g>
                </g>
              </g>
              <path id="Trazado_1036323" data-name="Trazado 1036323" d="M1471.234,969.91s3.924-3.725,8.451,2.328,9.055,43.618-6.187,57.743-58.856,7.14-67.76-1.863-7.545-51.224-5.885-52.621,6.791-1.707,9.206-.466c0,0,3.471-4.5,10.564-2.484s27.013,21.732,51.612-2.639" transform="translate(-1237.667 -853.565)" fill="#f9dfbb"/>
              <g id="Grupo_1212300" data-name="Grupo 1212300" transform="translate(164.498 115.211)" opacity="0.19">
                <g id="Grupo_1212299" data-name="Grupo 1212299">
                  <g id="Grupo_1212298" data-name="Grupo 1212298" clip-path="url(#clip-path-24)">
                    <path id="Trazado_1036324" data-name="Trazado 1036324" d="M1506.688,972.238c-4.527-6.054-8.451-2.328-8.451-2.328q-.83.822-1.652,1.577c.143.663.319,1.315.461,1.949,1.833,6.464,4.058,12.254,5.5,19.121.393,1.616.786,3.1,1.178,4.713,1.309,5.521.655,10.773-.393,16.294-.131.539-.393,1.077-.524,1.616-1.047,4.04-1.178,9.7-5.237,10.638-2.618.673-4.189-3.636-5.629-6.329-2.357-4.444-3.982-8.048-4.244-13.165-11.652,2.154-8.455,15.05-9.9,24.207-.393,2.559-3.535,3.232-5.76,3.366-10.866.539-22.125-.135-32.074-4.848a17.078,17.078,0,0,0-2.487-.673c-3.34-1.374-5.923-4.112-8.312-6.971a17.281,17.281,0,0,0,3.574,6.714c8.9,9,52.517,15.988,67.76,1.863s10.715-51.69,6.187-57.743" transform="translate(-1429.167 -968.777)"/>
                  </g>
                </g>
              </g>
              <path id="Trazado_1036325" data-name="Trazado 1036325" d="M1546.662,1028.187c1.309,2.155,4.713,1.481,5.76,3.367,2.618,4.04.917,9.157,3.535,13.466,2.618,4.578,6.938,7.945,12.175,7a15.879,15.879,0,0,0,11.652-8.618c4.682-8.928,7.473-19.053,6.7-28.982-15.946,6.556-28.7-2.964-35.31-6.281-4.906,5.356-8.577,13.232-4.509,20.046" transform="translate(-1367.046 -888.253)" fill="#bb6643"/>
              <path id="Trazado_1036326" data-name="Trazado 1036326" d="M1881.229,1279.694s-7.848,1.863-6.187,13.5,4.527,37.875,6.036,38.806a2.718,2.718,0,0,0,2.867,0s5.735-18.161,6.942-33.063-1.057-19.869-9.658-19.248" transform="translate(-1658.829 -1127.492)" fill="#f9dfbb"/>
              <path id="Trazado_1036327" data-name="Trazado 1036327" d="M1920.281,1692.73c.377,1.8.721,2.933,1.014,3.113a2.718,2.718,0,0,0,2.867,0s.387-1.225.98-3.3a8.247,8.247,0,0,1-4.861.183" transform="translate(-1699.047 -1491.331)" fill="#574d41"/>
              <g id="Grupo_1212303" data-name="Grupo 1212303" transform="translate(222.151 152.151)" opacity="0.19">
                <g id="Grupo_1212302" data-name="Grupo 1212302">
                  <g id="Grupo_1212301" data-name="Grupo 1212301" clip-path="url(#clip-path-25)">
                    <path id="Trazado_1036328" data-name="Trazado 1036328" d="M1928.461,1279.693s-.09.021-.249.074a7.545,7.545,0,0,1,4.334,3.414c5.368,9.561,2.618,20.737.393,31.375-.524,2.828-1.047,5.386-1.571,8.079-.524,3.232-1.178,6.06-1.571,9.157-.035.209-.07.417-.105.625a2.8,2.8,0,0,0,1.486-.413s5.735-18.161,6.942-33.063-1.056-19.869-9.658-19.248" transform="translate(-1928.212 -1279.642)"/>
                  </g>
                </g>
              </g>
              <path id="Trazado_1036329" data-name="Trazado 1036329" d="M1327.143,1022.314s4.226-6.364,10.413-.155,12.526,26.078,10.262,38.34a33.458,33.458,0,0,1-13.884,21.266c-3.471,2.484,4.527,13.194,4.376,16.609,0,0-.905,1.4-3.622-.311,0,0-2.717-6.674-5.584-9s-7.546-9.779-7.093-11.952,3.622-4.036,3.622-4.036-12.827-31.511,1.509-50.759" transform="translate(-1168.428 -898.208)" fill="#f9dfbb"/>
              <path id="Trazado_1036330" data-name="Trazado 1036330" d="M1435.217,1661.378c.66,1.352,1.064,2.344,1.064,2.344,2.716,1.707,3.622.311,3.622.311a6.45,6.45,0,0,0-.54-2.316,10.958,10.958,0,0,1-4.146-.338" transform="translate(-1270.021 -1463.866)" fill="#574d41"/>
              <g id="Grupo_1212306" data-name="Grupo 1212306" transform="translate(160.859 143.246)" opacity="0.19">
                <g id="Grupo_1212305" data-name="Grupo 1212305">
                  <g id="Grupo_1212304" data-name="Grupo 1212304" clip-path="url(#clip-path-26)">
                    <path id="Trazado_1036331" data-name="Trazado 1036331" d="M1414.873,1204.7c.815,14.782-3.409,30.333-16.645,38.7-.916.539-.524,1.751-.131,2.424a53.1,53.1,0,0,1,6.954,16.3,1.611,1.611,0,0,0,1.64-.509c.151-3.415-7.847-14.125-4.376-16.609a33.461,33.461,0,0,0,13.884-21.266c1.009-5.465.308-12.441-1.325-19.046" transform="translate(-1397.667 -1204.705)"/>
                  </g>
                </g>
              </g>
              <path id="Trazado_1036332" data-name="Trazado 1036332" d="M1341.891,1058.47c.785-3.1-.917-6.868-4.058-7.541.916-4.713,2.618-9.426,1.178-14.274a53.079,53.079,0,0,0-3.927-9.426,12.327,12.327,0,0,0-4.8-4.741,7.41,7.41,0,0,0-3.144,2.513c-8.837,11.865-7.353,28.389-4.914,39.32a22.231,22.231,0,0,0,8.273,3.305c5.629.539,10.211-3.636,11.39-9.157" transform="translate(-1168.427 -900.895)" fill="#bb6643"/>
              <path id="Trazado_1036333" data-name="Trazado 1036333" d="M2043.8,869.8s-10.634,2.14-18.031,2.14-12.252,18.308-8.322,26.63,9.478,16.406,16.413,17.6,13.639,6.657,19.88,4.755,10.634-11.651,4.392-17.833c0,0-.925-29.246-14.332-33.288" transform="translate(-1783.754 -766.352)" fill="#f9dfbb"/>
              <path id="Trazado_1036334" data-name="Trazado 1036334" d="M2045.959,883.931c2.659,1.427,5.779,2.259,8.669.832,2.889-1.308,4.161,2.853,5.779,5.231,1.849,2.734,4.392,5.112,7.744,4.161,3.583-1.189,3.583-5.825,3.814-9.154,0-.713.231-1.545.231-2.378a30.941,30.941,0,0,0-.524-8.542,12.629,12.629,0,0,0-6.065-4.279s-10.634,2.14-18.031,2.14c-2.749,0-5.146,2.529-6.872,6.133a10.88,10.88,0,0,0,5.254,5.855" transform="translate(-1805.558 -766.352)" fill="#bb6643"/>
              <g id="Grupo_1212309" data-name="Grupo 1212309" transform="translate(240.89 103.45)" opacity="0.19">
                <g id="Grupo_1212308" data-name="Grupo 1212308">
                  <g id="Grupo_1212307" data-name="Grupo 1212307" clip-path="url(#clip-path-27)">
                    <path id="Trazado_1036335" data-name="Trazado 1036335" d="M2123.913,903.09s-.925-29.246-14.332-33.288c0,0-10.634,2.14-18.031,2.14a4.54,4.54,0,0,0-1.129.146c5.788,2.866,12.437,1.291,18.7,1.618,11.327,5.944,11.558,20.567,12.136,32.1,0,.476.578.951.578,1.427.115,2.14-2.2,3.685-3.814,4.637-3.121,1.9-6.82,3.567-10.287,1.783-2.2-1.07-3.005-3.923-2.774-6.42-.693.238-1.155.951-1.733,1.427a18.122,18.122,0,0,0-1.271,1.9c-.694,1.546-1.5,3.448-3.005,3.8-.838.215-1.714.47-2.605.689a11.684,11.684,0,0,0,3.3,1.113c6.935,1.189,13.639,6.657,19.88,4.755s10.634-11.651,4.392-17.833" transform="translate(-2090.421 -869.802)"/>
                  </g>
                </g>
              </g>
              <path id="Trazado_1036336" data-name="Trazado 1036336" d="M2223.215,1148.379s0-.073-.008-.21c-4.506,1.319-9.34.663-14.093,1.261-5.781.561-7.136,8.005-6.1,13.138,5.489,1.945,10.8,5.172,15.813,3.644,6.242-1.9,10.634-11.651,4.392-17.833" transform="translate(-1948.833 -1011.641)" fill="#d87139"/>
              <g id="Grupo_1212312" data-name="Grupo 1212312" transform="translate(259.83 140.463)" opacity="0.19">
                <g id="Grupo_1212311" data-name="Grupo 1212311">
                  <g id="Grupo_1212310" data-name="Grupo 1212310" clip-path="url(#clip-path-28)">
                    <path id="Trazado_1036337" data-name="Trazado 1036337" d="M2254.912,1182.241a2.768,2.768,0,0,0-.467,1.189,4.658,4.658,0,0,0,1.84,4.77,6.583,6.583,0,0,0,3.573.671,2.753,2.753,0,0,0,1.158-.188,1.026,1.026,0,0,0,.624-.944,1.54,1.54,0,0,0-.2-.567c-.878-1.718-3.938-8.324-6.527-4.93" transform="translate(-2254.362 -1181.286)"/>
                  </g>
                </g>
              </g>
              <g id="Grupo_1212315" data-name="Grupo 1212315" transform="translate(255.412 136.528)" opacity="0.19">
                <g id="Grupo_1212314" data-name="Grupo 1212314">
                  <g id="Grupo_1212313" data-name="Grupo 1212313" clip-path="url(#clip-path-29)">
                    <path id="Trazado_1036338" data-name="Trazado 1036338" d="M2235.091,1148.379s0-.073-.008-.21c-4.506,1.319-9.34.663-14.093,1.261a6.167,6.167,0,0,0-4.869,3.258,15.822,15.822,0,0,1,16.312-.88c-.925,2.259-2.2,4.874-.694,7.133.347.594,1.156.119,1.734.594-2.2.713-3.814,2.615-6.01,3.091a33.249,33.249,0,0,1-10.324.8c4.691,1.884,9.237,4.1,13.561,2.785,6.242-1.9,10.634-11.651,4.392-17.833" transform="translate(-2216.121 -1148.169)"/>
                  </g>
                </g>
              </g>
              <path id="Trazado_1036339" data-name="Trazado 1036339" d="M1938.107,923.908s-12.021-11.413-15.488-5.707,13.407,12.364,15.488,5.707" transform="translate(-1700.701 -807.592)" fill="#f9dfbb"/>
              <path id="Trazado_1036340" data-name="Trazado 1036340" d="M1951.644,944.126s-7.628-8.322-9.94-4.28,8.322,5.469,9.94,4.28" transform="translate(-1717.705 -827.097)" fill="#ba9868"/>
              <path id="Trazado_1036341" data-name="Trazado 1036341" d="M2267.666,1190.919s-2.312-7.846-5.779-5.706,2.08,7.371,5.779,5.706" transform="translate(-2000.219 -1043.957)" fill="#23211e"/>
              <path id="Trazado_1036342" data-name="Trazado 1036342" d="M2354.313,1187.219s1.387-5.944,3.467-5.469,2.543,7.371-3.467,5.469" transform="translate(-2082.936 -1041.208)" fill="#23211e"/>
              <path id="Trazado_1036343" data-name="Trazado 1036343" d="M2115.52,1234.593a11.7,11.7,0,0,1,5.2,1.16,20.027,20.027,0,0,0-8.418,8.988l7.179-4.262a29.73,29.73,0,0,0-3.564,9.894,41.744,41.744,0,0,1,7.088-7.594,28.544,28.544,0,0,0-2.155,9.254l3.988-7.073-.2,4.937a22.14,22.14,0,0,1,1.553-6.858,2.818,2.818,0,0,1,.686-1.118,2.868,2.868,0,0,1,1.6-.519l4.578-.518c1.452-.164,3.909-.848,2.115-2.509-1.258-1.165-4.971-1.571-6.625-2.077a40.478,40.478,0,0,0-13.029-1.706" transform="translate(-1868.886 -1087.791)" fill="#cfbc17"/>
              <g id="Grupo_1212318" data-name="Grupo 1212318" transform="translate(249.763 147.308)" opacity="0.19">
                <g id="Grupo_1212317" data-name="Grupo 1212317">
                  <g id="Grupo_1212316" data-name="Grupo 1212316" clip-path="url(#clip-path-30)">
                    <path id="Trazado_1036344" data-name="Trazado 1036344" d="M2183.747,1242.165c-1.257-1.164-4.971-1.571-6.625-2.076a37.905,37.905,0,0,0-5.151-1.2,11.868,11.868,0,0,1,1.608.943,11.305,11.305,0,0,0-6.357,3.21c1.734-.238,3.468-.951,5.2-1.308a15.306,15.306,0,0,0-4.162,6.265c1.727-1.175,2.974-2.734,4.856-3.531a32.791,32.791,0,0,0-1.243,7.012l1.539-2.73q-.1,2.469-.2,4.937a22.125,22.125,0,0,1,1.553-6.857,2.816,2.816,0,0,1,.686-1.118,2.868,2.868,0,0,1,1.6-.519l4.578-.518c1.452-.165,3.909-.848,2.115-2.509" transform="translate(-2167.223 -1238.889)"/>
                  </g>
                </g>
              </g>
              <path id="Trazado_1036345" data-name="Trazado 1036345" d="M2238.257,1245.931s3.468,8.8,10.865,4.042c0,0,3.93,0,7.4.238s6.7-6.9,4.623-8.56-11.558,3.8-22.885,4.28" transform="translate(-1980.287 -1093.738)" fill="#f9dfbb"/>
              <g id="Grupo_1212321" data-name="Grupo 1212321" transform="translate(257.97 147.599)" opacity="0.19">
                <g id="Grupo_1212320" data-name="Grupo 1212320">
                  <g id="Grupo_1212319" data-name="Grupo 1212319" clip-path="url(#clip-path-31)">
                    <path id="Trazado_1036346" data-name="Trazado 1036346" d="M2261.143,1241.651c-2.081-1.664-11.558,3.8-22.885,4.28a11.624,11.624,0,0,0,2.028,3.177,31.84,31.84,0,0,1,2.249-2.483c.115.951-.347,1.9-.231,2.853,1.387-.951,2.2-2.5,3.7-2.972a51.072,51.072,0,0,1,12.483-2.734,4.662,4.662,0,0,1-3.7,4.518c-2.312.594-4.623.119-6.935-.119a13.284,13.284,0,0,1-1.525,3.044,9,9,0,0,0,2.8-1.242s3.93,0,7.4.238,6.7-6.9,4.623-8.56" transform="translate(-2238.257 -1241.337)"/>
                  </g>
                </g>
              </g>
              <path id="Trazado_1036347" data-name="Trazado 1036347" d="M2162.068,1031.556c0,1.428-.621,2.586-1.387,2.586s-1.387-1.158-1.387-2.586.621-2.586,1.387-2.586,1.387,1.158,1.387,2.586" transform="translate(-1910.447 -906.607)" fill="#23211e"/>
              <path id="Trazado_1036348" data-name="Trazado 1036348" d="M2321.136,1016.549c0,1.428-.621,2.586-1.387,2.586s-1.387-1.158-1.387-2.586.621-2.586,1.387-2.586,1.387,1.158,1.387,2.586" transform="translate(-2051.139 -893.383)" fill="#23211e"/>
              <path id="Trazado_1036349" data-name="Trazado 1036349" d="M1596.452,1633.378s3.459,14.231,4.756,14.231.973.334,1.405-.445.541-13.786.541-13.786-2.27-3.224-6.7,0" transform="translate(-1412.629 -1437.931)" fill="#edd4b2"/>
              <path id="Trazado_1036350" data-name="Trazado 1036350" d="M1626.935,1746.276c.484,1.252.922,2.078,1.234,2.078,1.3,0,.973.333,1.405-.445a6.083,6.083,0,0,0,.2-1.474,6.705,6.705,0,0,1-2.843-.16" transform="translate(-1439.59 -1538.676)" fill="#574d41"/>
              <g id="Grupo_1212324" data-name="Grupo 1212324" transform="translate(183.823 194.014)" opacity="0.19">
                <g id="Grupo_1212323" data-name="Grupo 1212323">
                  <g id="Grupo_1212322" data-name="Grupo 1212322" clip-path="url(#clip-path-32)">
                    <path id="Trazado_1036351" data-name="Trazado 1036351" d="M1601.527,1640.617c.381,2.272.411,4.7.817,7.01a3.009,3.009,0,0,0,.27-.462c.432-.778.541-13.786.541-13.786s-2.27-3.224-6.7,0c0,0,.449,1.848,1.084,4.211,1,1.506,2.114,3.12,3.991,3.028" transform="translate(-1596.452 -1631.945)"/>
                  </g>
                </g>
              </g>
              <path id="Trazado_1036352" data-name="Trazado 1036352" d="M1660.075,1629.636s3.459,14.231,4.756,14.231.973.333,1.405-.445.541-13.786.541-13.786-2.27-3.224-6.7,0" transform="translate(-1468.901 -1434.633)" fill="#edd4b2"/>
              <path id="Trazado_1036353" data-name="Trazado 1036353" d="M1690.559,1742.533c.484,1.252.922,2.078,1.234,2.078,1.3,0,.973.333,1.405-.445a6.085,6.085,0,0,0,.2-1.474,6.7,6.7,0,0,1-2.844-.16" transform="translate(-1495.864 -1535.377)" fill="#574d41"/>
              <g id="Grupo_1212327" data-name="Grupo 1212327" transform="translate(191.173 193.57)" opacity="0.19">
                <g id="Grupo_1212326" data-name="Grupo 1212326">
                  <g id="Grupo_1212325" data-name="Grupo 1212325" clip-path="url(#clip-path-32)">
                    <path id="Trazado_1036354" data-name="Trazado 1036354" d="M1665.15,1636.875c.381,2.272.411,4.7.817,7.01a3.039,3.039,0,0,0,.27-.463c.432-.778.54-13.786.54-13.786s-2.27-3.224-6.7,0c0,0,.449,1.847,1.084,4.211,1,1.506,2.114,3.12,3.991,3.028" transform="translate(-1660.074 -1628.203)"/>
                  </g>
                </g>
              </g>
              <path id="Trazado_1036355" data-name="Trazado 1036355" d="M1784.515,1647.413s3.459,14.231,4.756,14.231.973.333,1.405-.445.541-13.786.541-13.786-2.27-3.224-6.7,0" transform="translate(-1578.965 -1450.298)" fill="#edd4b2"/>
              <path id="Trazado_1036356" data-name="Trazado 1036356" d="M1815,1760.311c.484,1.252.922,2.078,1.234,2.078,1.3,0,.973.333,1.405-.445a6.094,6.094,0,0,0,.2-1.474,6.7,6.7,0,0,1-2.844-.16" transform="translate(-1605.927 -1551.043)" fill="#574d41"/>
              <g id="Grupo_1212330" data-name="Grupo 1212330" transform="translate(205.549 195.682)" opacity="0.19">
                <g id="Grupo_1212329" data-name="Grupo 1212329">
                  <g id="Grupo_1212328" data-name="Grupo 1212328" clip-path="url(#clip-path-32)">
                    <path id="Trazado_1036357" data-name="Trazado 1036357" d="M1789.59,1654.651c.381,2.272.411,4.7.817,7.01a3.036,3.036,0,0,0,.27-.462c.432-.778.54-13.786.54-13.786s-2.27-3.224-6.7,0c0,0,.449,1.848,1.084,4.211,1,1.506,2.114,3.12,3.991,3.028" transform="translate(-1784.515 -1645.98)"/>
                  </g>
                </g>
              </g>
              <path id="Trazado_1036358" data-name="Trazado 1036358" d="M1848.138,1643.671s3.459,14.231,4.756,14.231.973.333,1.405-.445.541-13.786.541-13.786-2.27-3.224-6.7,0" transform="translate(-1635.238 -1447)" fill="#edd4b2"/>
              <path id="Trazado_1036359" data-name="Trazado 1036359" d="M1878.622,1756.568c.484,1.252.922,2.078,1.234,2.078,1.3,0,.973.334,1.405-.445a6.1,6.1,0,0,0,.2-1.474,6.7,6.7,0,0,1-2.843-.16" transform="translate(-1662.2 -1547.745)" fill="#574d41"/>
              <g id="Grupo_1212333" data-name="Grupo 1212333" transform="translate(212.9 195.237)" opacity="0.19">
                <g id="Grupo_1212332" data-name="Grupo 1212332">
                  <g id="Grupo_1212331" data-name="Grupo 1212331" clip-path="url(#clip-path-32)">
                    <path id="Trazado_1036360" data-name="Trazado 1036360" d="M1853.214,1650.91c.381,2.272.411,4.7.817,7.01a3.032,3.032,0,0,0,.269-.462c.432-.778.541-13.786.541-13.786s-2.27-3.224-6.7,0c0,0,.449,1.848,1.084,4.211,1,1.506,2.114,3.12,3.991,3.028" transform="translate(-1848.139 -1642.238)"/>
                  </g>
                </g>
              </g>
              <path id="Trazado_1036361" data-name="Trazado 1036361" d="M1519.486,1417.565a7.073,7.073,0,0,1-4.114-3.653,6.108,6.108,0,0,0-.68-1.276,1.1,1.1,0,0,0-2.055.636,3.8,3.8,0,0,0,.282,1.477c-.831-.444-1.849.578-1.732,1.534a2.793,2.793,0,0,0,1.817,2.026,1.252,1.252,0,0,0-1.046,1.41,1.915,1.915,0,0,0,1.189,1.455,4.12,4.12,0,0,0,1.907.226.741.741,0,0,0-.505.6c3.132.552,6.514,1.071,9.356-.391a3.971,3.971,0,0,0,1.987-1.981c.525-1.367-.13-2.557-1.477-2.338-1.779.289-3.082.881-4.93.275" transform="translate(-1337.206 -1244.199)" fill="#eed4cd"/>
              <path id="Trazado_1036362" data-name="Trazado 1036362" d="M1989.074,1348.292s2.378,2.78-.108,4.114-6.27-3.447-7.242-4.225,1.838-4.447,7.35.111" transform="translate(-1753.223 -1186.006)" fill="#d0b29a"/>
              <path id="Trazado_1036363" data-name="Trazado 1036363" d="M1995.163,1352.968s-1.838-.778-1.729.556,2.054,3.224,4,3.669,3.783-2.89-2.27-4.225" transform="translate(-1763.744 -1191.905)" fill="#a47759"/>
              <path id="Trazado_1036364" data-name="Trazado 1036364" d="M1597.764,1268.534c-.106-.768-.713-1.559-1.461-1.461a6.506,6.506,0,0,0-.1-4.054,3.042,3.042,0,0,0-3.189-1.957,3.638,3.638,0,0,0-.659-3.736,3.394,3.394,0,0,0-3.59-.886,4.278,4.278,0,0,0-8.306-.226,6.351,6.351,0,0,0-5.16,2.11,6.756,6.756,0,0,0-1.568,5.479,5.276,5.276,0,0,0-1.826,6.454c-1.265.438-1.583,2.095-1.693,3.463a3.979,3.979,0,0,0-3.609-1.741,4.029,4.029,0,0,0-3.237,2.393,2.889,2.889,0,0,0-4.048.019,1.523,1.523,0,0,1-.644.519,1.3,1.3,0,0,1-.888-.242,6.335,6.335,0,0,0-6.581.5,6.758,6.758,0,0,0-2.6,6.239c-2.342-.66-4.872,1.259-5.484,3.676a8.034,8.034,0,0,0,1.942,6.92,6.219,6.219,0,0,0-.206,6.452,5.849,5.849,0,0,0,5.645,2.822,6.179,6.179,0,0,0,8.562,3.624,16.552,16.552,0,0,0,6.164,2.858,8.366,8.366,0,0,0,6.516-1.239,6.867,6.867,0,0,0,4.693.91,4.2,4.2,0,0,0,3.3-3.271,6.157,6.157,0,0,0,5.5,1,6.379,6.379,0,0,0,4.048-3.955c1.512.291,2.86-1.083,3.521-2.512a9.439,9.439,0,0,0,.143-7.471,4.685,4.685,0,0,0-1.876-6.352c1.057.5,2.329-3.838,2.382-4.435.129-1.465.042-2.375,1.259-3.325.972-.759,1.977-1.149,2.568-2.339a5.53,5.53,0,0,0,.386-2.849c-.038-1.108.249-2.3.1-3.384" transform="translate(-1365.295 -1104.076)" fill="#fdece4"/>
              <path id="Trazado_1036365" data-name="Trazado 1036365" d="M1597.764,1292.346c-.106-.768-.713-1.559-1.461-1.461a6.506,6.506,0,0,0-.1-4.054,3.043,3.043,0,0,0-3.189-1.957,3.637,3.637,0,0,0-.659-3.736,3.371,3.371,0,0,0-1.752-.994,4.61,4.61,0,0,1,.116,3.946c-.925-.832-2.658-.714-3.005.594,0-1.783-.462-3.8-2.081-4.517-.462-.238-1.04.119-1.271.713-1.849-1.427-4.276-.356-5.317,1.545a2.712,2.712,0,0,0,1.387,3.329c-2.658.951-4.623,4.042-3.583,6.9-2.427,3.685-1.965,9.511,1.618,12.364a5.41,5.41,0,0,1-1.387,0,2.781,2.781,0,0,1-1.965-2.259c-.925,1.9.809,3.685,2.312,4.518-2.312.595-4.508-1.546-4.97-3.8-1.387,2.14.462,5.112,1.965,6.776,1.04,1.07,2.543,2.021,4.045,1.189a1.661,1.661,0,0,0,.925-1.665c.462.951.924,2.021,1.849,2.259,1.849.713,4.508.832,5.779-1.07-.116,3.329.347,7.133-2.081,9.749a5.438,5.438,0,0,1-6.7.594c.116,2.259-.925,4.993-3.236,5.231a10.632,10.632,0,0,1-9.593-3.8c-1.04,1.308-2.2,2.616-3.814,2.735a6.979,6.979,0,0,1-7.513-4.518c-1.156,1.783-3.468,1.783-5.2,1.07-3.236-1.308-3-6.776-.462-8.916-2.658-.594-3.467-3.923-3.121-6.42a6.655,6.655,0,0,1,.27-1,5.32,5.32,0,0,0-2.442,3.214,8.034,8.034,0,0,0,1.942,6.92,6.219,6.219,0,0,0-.206,6.452,5.85,5.85,0,0,0,5.645,2.822,6.179,6.179,0,0,0,8.562,3.624,16.555,16.555,0,0,0,6.164,2.858,8.367,8.367,0,0,0,6.516-1.239,6.867,6.867,0,0,0,4.693.91,4.2,4.2,0,0,0,3.3-3.271,6.157,6.157,0,0,0,5.5,1,6.38,6.38,0,0,0,4.048-3.955c1.512.291,2.86-1.083,3.521-2.512a9.439,9.439,0,0,0,.143-7.471,4.685,4.685,0,0,0-1.876-6.351c1.057.5,2.329-3.838,2.382-4.435.129-1.465.042-2.375,1.259-3.325.972-.759,1.977-1.149,2.568-2.339a5.531,5.531,0,0,0,.386-2.849c-.038-1.108.249-2.3.1-3.384" transform="translate(-1365.295 -1127.887)" fill="#eed4cd"/>
              <path id="Trazado_1036366" data-name="Trazado 1036366" d="M1764.5,1365.386s-2.378,2.78.108,4.114,6.269-3.447,7.242-4.225-1.838-4.447-7.35.111" transform="translate(-1560.355 -1201.069)" fill="#d0b29a"/>
              <path id="Trazado_1036367" data-name="Trazado 1036367" d="M1779.042,1370.061s1.838-.778,1.729.556-2.054,3.224-4,3.669-3.783-2.891,2.27-4.225" transform="translate(-1570.466 -1206.967)" fill="#a47759"/>
              <path id="Trazado_1036368" data-name="Trazado 1036368" d="M1842.237,1338.875a7.277,7.277,0,0,0-7.08,7.56c-.135,7.421,4.855,12.415,12.2,14.426s8.968-3.537,7.754-7.213.472-16.368-12.879-14.773" transform="translate(-1623.754 -1179.564)" fill="#d0b29a"/>
              <g id="Grupo_1212336" data-name="Grupo 1212336" transform="translate(211.401 159.173)" opacity="0.19">
                <g id="Grupo_1212335" data-name="Grupo 1212335">
                  <g id="Grupo_1212334" data-name="Grupo 1212334" clip-path="url(#clip-path-36)">
                    <path id="Trazado_1036369" data-name="Trazado 1036369" d="M1855.117,1353.648c-1.214-3.676.472-16.368-12.879-14.773a7.277,7.277,0,0,0-7.08,7.56c-.007.379,0,.751.02,1.117a7.575,7.575,0,0,1,2.888-5.565c3.957-3.1,11.112-2.417,12.615,2.7,1.04,3.21,1.04,6.658,2.774,9.749,1.04,1.783.809,4.874-1.618,5.231a12.923,12.923,0,0,1-12.483-5.944,37.751,37.751,0,0,0,4.6,5.917,22.468,22.468,0,0,0,3.41,1.227c7.35,2.011,8.968-3.537,7.755-7.213" transform="translate(-1835.155 -1338.737)"/>
                  </g>
                </g>
              </g>
              <path id="Trazado_1036370" data-name="Trazado 1036370" d="M1906.635,1406.385c0,.938-.317,1.7-.708,1.7s-.708-.761-.708-1.7.317-1.7.708-1.7.708.761.708,1.7" transform="translate(-1685.724 -1237.676)" fill="#574d41"/>
              <path id="Trazado_1036371" data-name="Trazado 1036371" d="M1969.672,1404.634c0,.939-.317,1.7-.708,1.7s-.708-.761-.708-1.7.317-1.7.708-1.7.708.761.708,1.7" transform="translate(-1741.479 -1236.134)" fill="#574d41"/>
              <path id="Trazado_1036372" data-name="Trazado 1036372" d="M1954.186,1482.343c-.265.044-.452.271-.707.351-.208.065-.609-.033-.682-.286a1.333,1.333,0,0,0,.024-.281.149.149,0,0,0-.067-.128,6.218,6.218,0,0,0,.015-1.516c.741-.3,1.958-1.919.8-2.17,0,0-2.9-.624-3.3.208-.372.764,1.3,1.819,2.1,1.988.018.186.035.371.05.557a9.133,9.133,0,0,0,.091,1.174c-.129,1.054-1.407.977-2.155.683a4.909,4.909,0,0,1-1.659-1.212.1.1,0,0,0-.153.122,3.589,3.589,0,0,0,2.464,1.6,1.629,1.629,0,0,0,1.675-.678.715.715,0,0,0,.495.318,1.113,1.113,0,0,0,1.126-.616c.027-.073-.051-.124-.111-.114" transform="translate(-1724.025 -1302.357)" fill="#624737"/>
              <path id="Trazado_1036373" data-name="Trazado 1036373" d="M1214.471,1501.31s1.849.476,4.8-1.546,5.317-2.5,5.721-2.2-1.5,1.843-1.5,1.843,2.6-.416,3.063.238-2.948,1.605-2.948,1.605,2.716,1.01,2.832,1.783-6.126-.416-9.189,1.129a3.888,3.888,0,0,1-2.774-2.853" transform="translate(-1074.777 -1319.448)" fill="#f6e3af"/>
              <g id="Grupo_1212339" data-name="Grupo 1212339" transform="translate(141.71 178.037)" opacity="0.19">
                <g id="Grupo_1212338" data-name="Grupo 1212338">
                  <g id="Grupo_1212337" data-name="Grupo 1212337" clip-path="url(#clip-path-37)">
                    <path id="Trazado_1036374" data-name="Trazado 1036374" d="M1241.984,1499.648c-.462-.654-3.063-.238-3.063-.238s1.907-1.545,1.5-1.843a2.2,2.2,0,0,0-1.428.087c-.161,1.08-2.118,2.055-2.849,2.807a4.868,4.868,0,0,1,1.849.119v.475a9.916,9.916,0,0,1-2.392,1.3c.363-.085,1.109.256.774.486a27.819,27.819,0,0,1-4.457,1.026,4.056,4.056,0,0,0,.758.3c3.063-1.546,9.3-.357,9.189-1.129s-2.832-1.783-2.832-1.783,3.41-.951,2.947-1.605" transform="translate(-1231.921 -1497.487)"/>
                  </g>
                </g>
              </g>
              <path id="Trazado_1036375" data-name="Trazado 1036375" d="M1070.4,1645.189l3.005,13.077a1.874,1.874,0,0,0,2.08-.238l.231-13.077a3.992,3.992,0,0,0-5.317.238" transform="translate(-947.352 -1448.585)" fill="#574d41"/>
              <path id="Trazado_1036376" data-name="Trazado 1036376" d="M1093.9,1752.385l.29,1.263a1.875,1.875,0,0,0,2.081-.238l.02-1.13a7.5,7.5,0,0,1-2.391.105" transform="translate(-968.137 -1543.966)" fill="#2b2620"/>
              <g id="Grupo_1212342" data-name="Grupo 1212342" transform="translate(123.05 195.451)" opacity="0.19">
                <g id="Grupo_1212341" data-name="Grupo 1212341">
                  <g id="Grupo_1212340" data-name="Grupo 1212340" clip-path="url(#clip-path-38)">
                    <path id="Trazado_1036377" data-name="Trazado 1036377" d="M1075.719,1644.951a3.992,3.992,0,0,0-5.317.238l1.188,5.169a3.418,3.418,0,0,0,3.089.519c0,2.538.08,5,.3,7.439a2.541,2.541,0,0,0,.509-.288Z" transform="translate(-1070.402 -1644.036)"/>
                  </g>
                </g>
              </g>
              <path id="Trazado_1036378" data-name="Trazado 1036378" d="M1025.88,1641.187l3.005,13.077a1.875,1.875,0,0,0,2.081-.238l.231-13.078a3.992,3.992,0,0,0-5.317.238" transform="translate(-907.973 -1445.058)" fill="#574d41"/>
              <path id="Trazado_1036379" data-name="Trazado 1036379" d="M1049.381,1748.383l.29,1.263a1.875,1.875,0,0,0,2.081-.238l.02-1.13a7.5,7.5,0,0,1-2.391.105" transform="translate(-928.759 -1540.44)" fill="#2b2620"/>
              <g id="Grupo_1212345" data-name="Grupo 1212345" transform="translate(117.907 194.976)" opacity="0.19">
                <g id="Grupo_1212344" data-name="Grupo 1212344">
                  <g id="Grupo_1212343" data-name="Grupo 1212343" clip-path="url(#clip-path-38)">
                    <path id="Trazado_1036380" data-name="Trazado 1036380" d="M1031.2,1640.949a3.992,3.992,0,0,0-5.317.238l1.188,5.169a3.417,3.417,0,0,0,3.089.519c0,2.538.08,5,.3,7.44a2.554,2.554,0,0,0,.509-.288Z" transform="translate(-1025.88 -1640.034)"/>
                  </g>
                </g>
              </g>
              <path id="Trazado_1036381" data-name="Trazado 1036381" d="M1207.968,1645.189l3.005,13.077a1.875,1.875,0,0,0,2.081-.238l.231-13.077a3.992,3.992,0,0,0-5.317.238" transform="translate(-1069.025 -1448.585)" fill="#574d41"/>
              <path id="Trazado_1036382" data-name="Trazado 1036382" d="M1231.468,1752.385l.29,1.263a1.874,1.874,0,0,0,2.081-.238l.02-1.13a7.5,7.5,0,0,1-2.391.105" transform="translate(-1089.81 -1543.966)" fill="#2b2620"/>
              <g id="Grupo_1212348" data-name="Grupo 1212348" transform="translate(138.943 195.451)" opacity="0.19">
                <g id="Grupo_1212347" data-name="Grupo 1212347">
                  <g id="Grupo_1212346" data-name="Grupo 1212346" clip-path="url(#clip-path-38)">
                    <path id="Trazado_1036383" data-name="Trazado 1036383" d="M1213.284,1644.951a3.992,3.992,0,0,0-5.317.238l1.188,5.169a3.419,3.419,0,0,0,3.089.519c0,2.538.08,5,.3,7.439a2.554,2.554,0,0,0,.509-.288Z" transform="translate(-1207.967 -1644.036)"/>
                  </g>
                </g>
              </g>
              <path id="Trazado_1036384" data-name="Trazado 1036384" d="M1163.446,1641.187l3.005,13.077a1.875,1.875,0,0,0,2.081-.238l.231-13.078a3.992,3.992,0,0,0-5.317.238" transform="translate(-1029.647 -1445.058)" fill="#574d41"/>
              <path id="Trazado_1036385" data-name="Trazado 1036385" d="M1186.947,1748.383l.29,1.263a1.875,1.875,0,0,0,2.081-.238l.02-1.13a7.5,7.5,0,0,1-2.39.105" transform="translate(-1050.433 -1540.44)" fill="#2b2620"/>
              <g id="Grupo_1212351" data-name="Grupo 1212351" transform="translate(133.8 194.976)" opacity="0.19">
                <g id="Grupo_1212350" data-name="Grupo 1212350">
                  <g id="Grupo_1212349" data-name="Grupo 1212349" clip-path="url(#clip-path-38)">
                    <path id="Trazado_1036386" data-name="Trazado 1036386" d="M1168.763,1640.949a3.992,3.992,0,0,0-5.317.238l1.188,5.169a3.417,3.417,0,0,0,3.089.519c0,2.538.08,5,.3,7.44a2.558,2.558,0,0,0,.509-.288Z" transform="translate(-1163.447 -1640.034)"/>
                  </g>
                </g>
              </g>
              <path id="Trazado_1036387" data-name="Trazado 1036387" d="M979.284,1455.536a37.829,37.829,0,0,0,3.121,15.336c3.467,7.847,6.473,3.329,6.473,3.329s3.583,3.923,5.664,3.091,1.618-2.259,1.618-2.259,2.08,2.853,4.392,2.5,1.5-2.734,1.5-2.734,1.965,3.448,3.93,2.5a1.962,1.962,0,0,0,1.04-2.734s2.427,2.14,4.392.238,1.734-13.315-2.658-16.168-21.036-.594-23.463-9.986a7.632,7.632,0,0,0-6.01,6.9" transform="translate(-866.752 -1276.408)" fill="#f6e3af"/>
              <g id="Grupo_1212354" data-name="Grupo 1212354" transform="translate(112.522 172.233)" opacity="0.19">
                <g id="Grupo_1212353" data-name="Grupo 1212353">
                  <g id="Grupo_1212352" data-name="Grupo 1212352" clip-path="url(#clip-path-42)">
                    <path id="Trazado_1036388" data-name="Trazado 1036388" d="M1008.758,1458.627c-4.392-2.853-21.036-.594-23.463-9.986a7.632,7.632,0,0,0-6.01,6.9,37.436,37.436,0,0,0,1.675,11.439,3.555,3.555,0,0,0,3.527,1.263c1.5-3.685.694-7.847,1.387-11.77,3.468,4.755,9.825,2.853,15.026,3.923,2.312.476,4.508.832,6.126,2.378,2.774,2.5,3.7,6.9,2.774,10.462-.231.832-1.5.594-2.312.594a3.52,3.52,0,0,1-1.965-1.545c-.231,1.07,0,3.685-1.156,3.21-1.271-.476-1.849-2.14-2.774-3.329-.578,1.308-.462,4.042-2.427,3.448-1.734-.476-2.427-2.378-3.352-3.8-1.04,1.07-.578,3.21-1.965,3.8-1.849.594-2.774-2.14-4.045-3.329a.717.717,0,0,0-.693,0c-.746.932-1.345,2.115-2.045,3.179a3.176,3.176,0,0,0,1.814-1.259s3.583,3.923,5.664,3.091,1.618-2.259,1.618-2.259,2.08,2.853,4.392,2.5,1.5-2.734,1.5-2.734,1.965,3.448,3.93,2.5a1.962,1.962,0,0,0,1.04-2.734s2.427,2.14,4.392.238,1.734-13.315-2.658-16.168" transform="translate(-979.275 -1448.641)"/>
                  </g>
                </g>
              </g>
              <path id="Trazado_1036389" data-name="Trazado 1036389" d="M886.009,1154.881s-3.717-4.6-4.627-12.874,2.2-14.669,2.731-14.591-3.793,13.889,4.551,25.67c0,0-.834,2.653-2.655,1.795" transform="translate(-780.022 -993.354)" fill="#bab09b"/>
              <g id="Grupo_1212357" data-name="Grupo 1212357" transform="translate(102.531 137.722)" opacity="0.19">
                <g id="Grupo_1212356" data-name="Grupo 1212356">
                  <g id="Grupo_1212355" data-name="Grupo 1212355" clip-path="url(#clip-path-43)">
                    <path id="Trazado_1036390" data-name="Trazado 1036390" d="M893.96,1158.219c-1.606,5.414-1.36,11.494-.411,17.253a3.369,3.369,0,0,1-.035,1.453,20.958,20.958,0,0,0,2.736,5.1c1.82.858,2.655-1.795,2.655-1.795-5.72-8.076-5.487-17.1-4.946-22.01" transform="translate(-892.796 -1158.219)"/>
                  </g>
                </g>
              </g>
              <path id="Trazado_1036391" data-name="Trazado 1036391" d="M973.338,1163.417s-3.717-4.6-4.627-12.874,2.2-14.669,2.731-14.59-3.793,13.888,4.551,25.67c0,0-.834,2.653-2.655,1.795" transform="translate(-857.262 -1000.876)" fill="#bab09b"/>
              <g id="Grupo_1212360" data-name="Grupo 1212360" transform="translate(113.081 140.136)" opacity="0.19">
                <g id="Grupo_1212359" data-name="Grupo 1212359">
                  <g id="Grupo_1212358" data-name="Grupo 1212358" clip-path="url(#clip-path-44)">
                    <path id="Trazado_1036392" data-name="Trazado 1036392" d="M984.68,1178.536a41.119,41.119,0,0,0,1.307,19.119,2.86,2.86,0,0,1-.8.059,18.219,18.219,0,0,0,1.919,3.227c1.82.858,2.655-1.795,2.655-1.795-5.212-7.359-5.482-15.509-5.079-20.611" transform="translate(-984.109 -1178.536)"/>
                  </g>
                </g>
              </g>
              <path id="Trazado_1036393" data-name="Trazado 1036393" d="M877.279,1349.232s-3.11-3.745-6.448-1.716c0,0,.379,2.5,5.31,3.589,0,0,1.365-.7,1.138-1.873" transform="translate(-770.837 -1186.769)" fill="#d1c195"/>
              <path id="Trazado_1036394" data-name="Trazado 1036394" d="M885.308,1356.259s-3.338-3.121-4.627-1.717c0,0,1.138,2.575,4.627,1.717" transform="translate(-779.549 -1193.171)" fill="#ba9868"/>
              <path id="Trazado_1036395" data-name="Trazado 1036395" d="M857.979,1276.031s-7.358,12.094-8.268,18.024c-.6,3.9,1.583,7.066,4.25,9.687a.342.342,0,0,0,.231.129c.152-.005.221-.193.253-.346l.275-1.341a5.873,5.873,0,0,0,2.225,2.548.274.274,0,0,0,.214.059c.129-.039.135-.223.114-.36l-.4-2.583a6.891,6.891,0,0,0,3.139.814,3.592,3.592,0,0,0-1.151-1.847,8.687,8.687,0,0,0,1.29.11c-.9-2.43,3.849-2.94,5.376-3.707,2.3-1.157,4.645-2.82,5.648-5.348,2.352-5.93,2.276-14.356.152-15.683s-7.889-1.249-7.889-1.249-1.365-4.213-.683-5.7a3.922,3.922,0,0,0-1.972,3.355s-1.214-4.6.076-6.632a6.267,6.267,0,0,0-2.352,7.49,13.173,13.173,0,0,1-1.972-3.433s-2.048,3.979,1.441,6.008" transform="translate(-752.068 -1115.44)" fill="#f6e3af"/>
              <g id="Grupo_1212363" data-name="Grupo 1212363" transform="translate(98.431 150.526)" opacity="0.19">
                <g id="Grupo_1212362" data-name="Grupo 1212362">
                  <g id="Grupo_1212361" data-name="Grupo 1212361" clip-path="url(#clip-path-45)">
                    <path id="Trazado_1036396" data-name="Trazado 1036396" d="M878.131,1276.187c-2.124-1.327-7.889-1.248-7.889-1.248s-1.365-4.213-.683-5.7a3.922,3.922,0,0,0-1.972,3.355s-1.214-4.6.076-6.632a5.225,5.225,0,0,0-.8.633c-1.3,3.135-1.2,7.17,1.3,9.642,2.312-.594,4.97-.476,6.819,1.07,3.468,2.734,2.312,8.084.809,11.77-1.734,4.042-4.854,8.2-9.247,8.441-1.5.119-1.156-2.853-1.271-4.4-1.734,1.07-3.236,3.091-5.432,2.616-.809-.238-.462-1.308-.693-2.14a3.487,3.487,0,0,0-.693,3.329c0,.238-.694.238-1.156.238.115,1.783,1.618,2.734,2.543,4.161a2.06,2.06,0,0,1,.325,1.813q.292.306.593.6a.342.342,0,0,0,.231.129c.152-.005.221-.193.253-.346l.275-1.341a5.872,5.872,0,0,0,2.225,2.548.273.273,0,0,0,.214.058c.129-.039.135-.223.114-.36l-.4-2.583a6.892,6.892,0,0,0,3.139.814,3.591,3.591,0,0,0-1.15-1.847,8.684,8.684,0,0,0,1.29.11c-.9-2.43,3.849-2.94,5.376-3.707,2.3-1.157,4.646-2.82,5.648-5.348,2.352-5.93,2.276-14.356.152-15.683" transform="translate(-857.3 -1265.966)"/>
                  </g>
                </g>
              </g>
              <path id="Trazado_1036397" data-name="Trazado 1036397" d="M860.391,1496.448s-2.579-.858-3.034-.39.379,2.809.986,2.809,2.276-1.326,2.048-2.419" transform="translate(-758.804 -1318.067)" fill="#bb6643"/>
              <path id="Trazado_1036398" data-name="Trazado 1036398" d="M864.922,1509.141s4.172-1.092,6.3-3.511c0,0,.683,2.575-.834,3.823s-5.462-.312-5.462-.312" transform="translate(-765.611 -1326.625)"/>
              <path id="Trazado_1036399" data-name="Trazado 1036399" d="M897.128,1518.84a2.735,2.735,0,0,0,1.741-.483,3.218,3.218,0,0,0,.986-2.622,3.755,3.755,0,0,0-2.727,3.106" transform="translate(-794.096 -1335.529)" fill="#e06a2b"/>
              <path id="Trazado_1036400" data-name="Trazado 1036400" d="M911.428,1394.683c-.186.752-.567,1.3-.852,1.226s-.364-.744-.178-1.5.567-1.3.852-1.226.364.744.178,1.5" transform="translate(-805.744 -1227.538)" fill="#574d41"/>
              <path id="Trazado_1036401" data-name="Trazado 1036401" d="M949.37,1398.443c-.186.752-.568,1.3-.852,1.226s-.364-.744-.178-1.5.567-1.3.852-1.226.364.744.178,1.5" transform="translate(-839.303 -1230.851)" fill="#574d41"/>
              <path id="Trazado_1036402" data-name="Trazado 1036402" d="M1025.817,1349.232s3.11-3.745,6.448-1.716c0,0-.379,2.5-5.31,3.589,0,0-1.365-.7-1.138-1.873" transform="translate(-907.895 -1186.769)" fill="#d1c195"/>
              <path id="Trazado_1036403" data-name="Trazado 1036403" d="M1031.923,1356.259s3.338-3.121,4.627-1.717c0,0-1.138,2.575-4.627,1.717" transform="translate(-913.318 -1193.171)" fill="#ba9868"/>
              <path id="Trazado_1036404" data-name="Trazado 1036404" d="M1383.373,1703.29l-.791,3.634s-1.687.163-1.9.868,1.371-.163,1.371-.163-1.371.922-.949,1.247,1.635-.922,1.635-.922-.422,1.139,0,1.193.738-2.224.738-2.224l1.529-4.285Z" transform="translate(-1221.771 -1500.224)" fill="#fca854"/>
              <g id="Grupo_1212366" data-name="Grupo 1212366" transform="translate(160.979 202.415)" opacity="0.19">
                <g id="Grupo_1212365" data-name="Grupo 1212365">
                  <g id="Grupo_1212364" data-name="Grupo 1212364" clip-path="url(#clip-path-46)">
                    <path id="Trazado_1036405" data-name="Trazado 1036405" d="M1399.339,1703.291l-.624,2.864a.58.58,0,0,1,.143-.056,3.574,3.574,0,0,0-.028.524.212.212,0,0,0,.154.175c.06.013.266-.113.266-.042a6.935,6.935,0,0,1-.41,2.331,6.8,6.8,0,0,0,.6-2.162l1.529-4.285Z" transform="translate(-1398.714 -1702.64)"/>
                  </g>
                </g>
              </g>
              <path id="Trazado_1036406" data-name="Trazado 1036406" d="M1377.592,1654.386s-.633,2.224.949,3.363a3.277,3.277,0,0,1,1.266,3.037s-.738.542-.316.651.844-.38.844-.38-.316.759.053.759.422-.759.422-.759.158.976.475.6a.983.983,0,0,0,.158-.868s4.482-4.5,2.848-7.051-6.381-2.061-6.7.651" transform="translate(-1218.942 -1455.66)" fill="#cfbb70"/>
              <path id="Trazado_1036407" data-name="Trazado 1036407" d="M1409.391,1711.05l-.791,3.634s-1.687.163-1.9.868,1.371-.163,1.371-.163-1.371.922-.949,1.248,1.635-.922,1.635-.922-.422,1.139,0,1.193.738-2.224.738-2.224l1.529-4.285Z" transform="translate(-1244.783 -1507.062)" fill="#fca854"/>
              <g id="Grupo_1212369" data-name="Grupo 1212369" transform="translate(164.061 203.337)" opacity="0.19">
                <g id="Grupo_1212368" data-name="Grupo 1212368">
                  <g id="Grupo_1212367" data-name="Grupo 1212367" clip-path="url(#clip-path-47)">
                    <path id="Trazado_1036408" data-name="Trazado 1036408" d="M1425.938,1711.05l-.48,2.2a1.064,1.064,0,0,0,.226-.191c-.129.4.129.531.516.531-.636.935-.442,2.264-.81,3.293.379-.228.653-2.2.653-2.2l1.529-4.285Z" transform="translate(-1425.391 -1710.399)"/>
                  </g>
                </g>
              </g>
              <path id="Trazado_1036409" data-name="Trazado 1036409" d="M1325.012,1544.841s-3.111,6.075,2.162,10.523,13.078,1.573,17.982-4.827c0,0,3.744-1.085,4.008-2.332s-1.74-1.193-1.582-1.193,4.113-1.573,4.43-3.8a1.468,1.468,0,0,0-1.793-1.844s1.319-3.688.317-4.339-2.8,1.79-2.8,1.79.527-4.773-1.371-3.634-3.8,7.919-3.8,7.919l-9.334.542s-6.328-1.464-8.226,1.193" transform="translate(-1171.741 -1352.515)" fill="#edd780"/>
              <g id="Grupo_1212372" data-name="Grupo 1212372" transform="translate(157.35 182.496)" opacity="0.19">
                <g id="Grupo_1212371" data-name="Grupo 1212371">
                  <g id="Grupo_1212370" data-name="Grupo 1212370" clip-path="url(#clip-path-48)">
                    <path id="Trazado_1036410" data-name="Trazado 1036410" d="M1388.428,1541.37s1.318-3.688.316-4.339-2.795,1.79-2.795,1.79.527-4.773-1.371-3.634c-.822.493-1.644,2.043-2.312,3.643a3.286,3.286,0,0,1,1.078-.5c1.42-.4,1.679,1.594,1.291,2.656.775-.531,1.55-1.594,2.2-1.063,1.292,1.2.388,3.188-.9,4.25.517-.133,2.066-.4,1.55.4-.775,1.328-2.453,1.594-3.487,2.657.775.133,1.421.8.775,1.328-.775.93-2.2,1.063-2.841,2.125-2.583,4.383-7.619,6.375-12.138,6.375a10.531,10.531,0,0,1-2.485-.439c5.118,2.486,11.726-.416,16.065-6.078,0,0,3.744-1.085,4.008-2.332.243-1.15-1.439-1.194-1.58-1.194h0c-.012,0-.01,0,0,0,.174-.007,4.112-1.577,4.428-3.8a1.468,1.468,0,0,0-1.793-1.844" transform="translate(-1367.3 -1535.011)"/>
                  </g>
                </g>
              </g>
              <path id="Trazado_1036411" data-name="Trazado 1036411" d="M1405.893,1655.3s-.633,2.224.949,3.363a3.277,3.277,0,0,1,1.266,3.037s-.738.543-.316.651.844-.38.844-.38-.316.759.053.759.422-.759.422-.759.158.976.475.6a.983.983,0,0,0,.158-.868s4.482-4.5,2.847-7.051-6.38-2.061-6.7.651" transform="translate(-1243.974 -1456.464)" fill="#edd780"/>
              <g id="Grupo_1212375" data-name="Grupo 1212375" transform="translate(161.794 196.514)" opacity="0.19">
                <g id="Grupo_1212374" data-name="Grupo 1212374">
                  <g id="Grupo_1212373" data-name="Grupo 1212373" clip-path="url(#clip-path-49)">
                    <path id="Trazado_1036412" data-name="Trazado 1036412" d="M1409.742,1661.7s4.482-4.5,2.848-7.051-6.381-2.061-6.7.651c0,0-.633,2.224.949,3.363a3.119,3.119,0,0,1,.338.282,6.032,6.032,0,0,0,3.732-.332c-.258,1.2-1.291,2.125-1.291,3.321,0,.18.013.361.031.541a1.014,1.014,0,0,0,.092-.774" transform="translate(-1405.768 -1652.978)"/>
                  </g>
                </g>
              </g>
              <path id="Trazado_1036413" data-name="Trazado 1036413" d="M1319.843,1504.64s-.158,5.153-1.582,7.485,2.637-.108,2.637-.108.686,1.9,1.688,1.627,1.055-2.115,1.055-2.115,1.424,1.193,2.268.868.263-1.79.263-1.79,2.373,1.464,2.795.054-.949-7-1.16-9.709-1.318-5.749-4.852-4.176-3.48,5.641-3.111,7.865" transform="translate(-1166.309 -1318.443)" fill="#ffd48a"/>
              <g id="Grupo_1212378" data-name="Grupo 1212378" transform="translate(151.688 177.901)" opacity="0.19">
                <g id="Grupo_1212377" data-name="Grupo 1212377">
                  <g id="Grupo_1212376" data-name="Grupo 1212376" clip-path="url(#clip-path-50)">
                    <path id="Trazado_1036414" data-name="Trazado 1036414" d="M1328.1,1500.952c-.211-2.712-1.318-5.75-4.851-4.177-2.969,1.322-3.406,4.406-3.25,6.676,1.18-2.493,2.392-5.446,4.632-4.244,2.841,1.461,3.615,5.977,2.841,9.43-.129.8-1.162.8-1.937.4,0,.8.258,2.391-.9,2.258-.775,0-1.162-.8-1.679-1.328-.387.531.129,1.461-.516,1.86-.775.266-1.033-.664-1.162-1.328a4.793,4.793,0,0,1-2.982,2.525c.343.532,2.9-1.005,2.9-1.005s.686,1.9,1.687,1.627,1.055-2.115,1.055-2.115,1.424,1.193,2.267.868.264-1.79.264-1.79,2.373,1.464,2.795.054-.949-7-1.16-9.709" transform="translate(-1318.29 -1496.344)"/>
                  </g>
                </g>
              </g>
              <path id="Trazado_1036415" data-name="Trazado 1036415" d="M1374.958,1598.371s-3.059,3.737-1.805,6.685,3.7,4.674,7.588,3.5,6.166-2.7,4.735-3.276c0,0,2.57-2.554,2.308-3.746a2.129,2.129,0,0,0-1.578-1.472s2.982-2.325,2.182-3.287-6.516.76-8.473.666-4.16-.124-4.957.925" transform="translate(-1214.859 -1406.686)" fill="#ffe78a"/>
              <g id="Grupo_1212381" data-name="Grupo 1212381" transform="translate(159.129 189.801)" opacity="0.19">
                <g id="Grupo_1212380" data-name="Grupo 1212380">
                  <g id="Grupo_1212379" data-name="Grupo 1212379" clip-path="url(#clip-path-51)">
                    <path id="Trazado_1036416" data-name="Trazado 1036416" d="M1396.495,1601.538a2.13,2.13,0,0,0-1.578-1.472s2.982-2.325,2.182-3.286c-.509-.611-3.007-.138-5.261.264a1.833,1.833,0,0,1,.866.766c.9,1.594-1.55,2.391-2.712,3.32,1.55-.266,3.1.93,2.453,2.258-.646,1.594-2.583,1.859-4.132,2.258.387.4,1.033,1.063.517,1.328a5.085,5.085,0,0,1-6.13-.4c1.388,1.971,3.592,2.93,6.752,1.981,3.893-1.169,6.166-2.7,4.735-3.276,0,0,2.57-2.554,2.308-3.746" transform="translate(-1382.7 -1596.486)"/>
                  </g>
                </g>
              </g>
              <path id="Trazado_1036417" data-name="Trazado 1036417" d="M1322.066,1566.1s-2.215,2.441-1.424,3.2,2.742-3.417,1.424-3.2" transform="translate(-1168.531 -1379.901)" fill="#e06a2b"/>
              <path id="Trazado_1036418" data-name="Trazado 1036418" d="M1332.267,1565.3s-.738,3.092.264,3.255.9-4.123-.264-3.255" transform="translate(-1178.732 -1379.101)" fill="#e06a2b"/>
              <path id="Trazado_1036419" data-name="Trazado 1036419" d="M1322.405,1557.007s1.108,1.248,1.793.922a2.13,2.13,0,0,0,.9-1.356Z" transform="translate(-1170.242 -1371.515)" fill="#fca854"/>
              <g id="Grupo_1212384" data-name="Grupo 1212384" transform="translate(152.164 185.058)" opacity="0.19">
                <g id="Grupo_1212383" data-name="Grupo 1212383">
                  <g id="Grupo_1212382" data-name="Grupo 1212382" clip-path="url(#clip-path-52)">
                    <path id="Trazado_1036420" data-name="Trazado 1036420" d="M1325.094,1556.573l-2.689.434a4.873,4.873,0,0,0,.5.477c.564-.163,1.168-.414,1.357-.025a.482.482,0,0,1,.008.427,2.219,2.219,0,0,0,.82-1.313" transform="translate(-1322.406 -1556.573)"/>
                  </g>
                </g>
              </g>
              <path id="Trazado_1036421" data-name="Trazado 1036421" d="M1325.328,1474.821s-1.108-3.58-.633-5.261,1.424-.325,1.424-.325,1.319-3.417,2.162-3.688.58,1.682.58,1.682,1.793-2.17,2.426-1.248-4.9,5.587-5.221,8.9Z" transform="translate(-1172.162 -1291.281)" fill="#e06a2b"/>
              <g id="Grupo_1212387" data-name="Grupo 1212387" transform="translate(152.579 174.238)" opacity="0.19">
                <g id="Grupo_1212386" data-name="Grupo 1212386">
                  <g id="Grupo_1212385" data-name="Grupo 1212385" clip-path="url(#clip-path-53)">
                    <path id="Trazado_1036422" data-name="Trazado 1036422" d="M1332.547,1465.979c-.633-.922-2.426,1.248-2.426,1.248s.264-1.953-.58-1.681-2.162,3.688-2.162,3.688-.89-1.272-1.377.175c.54-.164.844.734,1.058,1.175.517-.531.775-1.461,1.421-1.594.775-.266.516.93.258,1.461a8.508,8.508,0,0,0-1.748,4.4l.335.025c.316-3.309,5.853-7.973,5.22-8.9" transform="translate(-1326.002 -1465.52)"/>
                  </g>
                </g>
              </g>
              <path id="Trazado_1036423" data-name="Trazado 1036423" d="M1319.5,1541.289s-.9-2.061-1.582-2.061-2.109,2.115-1.793,2.549,3.375-.488,3.375-.488" transform="translate(-1164.646 -1356.231)" fill="#fcd554"/>
              <g id="Grupo_1212390" data-name="Grupo 1212390" transform="translate(152.457 182.997)" opacity="0.19">
                <g id="Grupo_1212389" data-name="Grupo 1212389">
                  <g id="Grupo_1212388" data-name="Grupo 1212388" clip-path="url(#clip-path-54)">
                    <path id="Trazado_1036424" data-name="Trazado 1036424" d="M1325.763,1539.228a.445.445,0,0,0-.136.024,1.31,1.31,0,0,1,.245,1.994,4.815,4.815,0,0,1-.922.6,19.841,19.841,0,0,0,2.4-.559s-.9-2.061-1.582-2.061" transform="translate(-1324.95 -1539.228)"/>
                  </g>
                </g>
              </g>
              <path id="Trazado_1036425" data-name="Trazado 1036425" d="M1348.565,1528.576c0,.419-.236.759-.527.759s-.527-.34-.527-.759.236-.759.527-.759.527.34.527.759" transform="translate(-1192.446 -1346.176)" fill="#574d41"/>
            </g>
          </g>
        </g>
      </g>
    </g>
  </g>
</svg>
