<svg xmlns="http://www.w3.org/2000/svg" width="127" height="184" viewBox="0 0 127 184">
  <g id="Grupo_1213732" data-name="Grupo 1213732" transform="translate(-180 -531)">
    <rect id="Rectángulo_404080" data-name="Rectángulo 404080" width="127" height="184" rx="12" transform="translate(180 531)" fill="#afa491"/>
    <g id="Grupo_1111646" data-name="Grupo 1111646" transform="translate(201 580.7)">
      <g id="Grupo_1111383" data-name="Grupo 1111383" transform="translate(1.382 1.382)">
        <g id="Grupo_1111351" data-name="Grupo 1111351" transform="translate(63.583 71.877)">
          <path id="Trazado_900117" data-name="Trazado 900117" d="M376,424h13.822v5.529H376Z" transform="translate(-376 -424)" fill="#cf9e76"/>
        </g>
        <g id="Grupo_1111352" data-name="Grupo 1111352" transform="translate(63.583 58.054)">
          <path id="Trazado_900118" data-name="Trazado 900118" d="M376,344h13.822v5.529H376Z" transform="translate(-376 -344)" fill="#cf9e76"/>
        </g>
        <g id="Grupo_1111353" data-name="Grupo 1111353" transform="translate(63.583 44.232)">
          <path id="Trazado_900119" data-name="Trazado 900119" d="M376,264h13.822v5.529H376Z" transform="translate(-376 -264)" fill="#cf9e76"/>
        </g>
        <g id="Grupo_1111354" data-name="Grupo 1111354" transform="translate(52.537 58.054)">
          <path id="Trazado_900120" data-name="Trazado 900120" d="M317.587,344v5.529H312.07a19.244,19.244,0,0,1,1-5.529Z" transform="translate(-312.07 -344)" fill="#cf9e76"/>
        </g>
        <g id="Grupo_1111355" data-name="Grupo 1111355" transform="translate(51.143 71.877)">
          <path id="Trazado_900121" data-name="Trazado 900121" d="M310.911,424v5.529H304l.536-2.142.27-1.075a19.515,19.515,0,0,0,.43-2.312Z" transform="translate(-304 -424)" fill="#cf9e76"/>
        </g>
        <g id="Grupo_1111356" data-name="Grupo 1111356" transform="translate(24.88 71.877)">
          <path id="Trazado_900122" data-name="Trazado 900122" d="M158.376,427.387l.536,2.142H152V424h5.676a19.512,19.512,0,0,0,.43,2.312Z" transform="translate(-152 -424)" fill="#cf9e76"/>
        </g>
        <g id="Grupo_1111357" data-name="Grupo 1111357" transform="translate(24.88 58.054)">
          <path id="Trazado_900123" data-name="Trazado 900123" d="M157.517,349.529H152V344h4.518A19.246,19.246,0,0,1,157.517,349.529Z" transform="translate(-152 -344)" fill="#cf9e76"/>
        </g>
        <g id="Grupo_1111358" data-name="Grupo 1111358" transform="translate(5.529 71.877)">
          <path id="Trazado_900124" data-name="Trazado 900124" d="M40,424H53.822v5.529H40Z" transform="translate(-40 -424)" fill="#cf9e76"/>
        </g>
        <g id="Grupo_1111359" data-name="Grupo 1111359" transform="translate(5.529 58.054)">
          <path id="Trazado_900125" data-name="Trazado 900125" d="M40,344H53.822v5.529H40Z" transform="translate(-40 -344)" fill="#cf9e76"/>
        </g>
        <g id="Grupo_1111360" data-name="Grupo 1111360" transform="translate(5.529 44.232)">
          <path id="Trazado_900126" data-name="Trazado 900126" d="M40,264H53.822v5.529H40Z" transform="translate(-40 -264)" fill="#cf9e76"/>
        </g>
        <g id="Grupo_1111361" data-name="Grupo 1111361" transform="translate(77.406 33.174)">
          <path id="Trazado_900127" data-name="Trazado 900127" d="M461.529,201.382v48.379H456V201.382A1.382,1.382,0,0,1,457.382,200h2.765A1.382,1.382,0,0,1,461.529,201.382Z" transform="translate(-456 -200)" fill="#d3a06c"/>
        </g>
        <g id="Grupo_1111362" data-name="Grupo 1111362" transform="translate(58.054 33.174)">
          <path id="Trazado_900128" data-name="Trazado 900128" d="M349.529,244.232v5.529H344V201.382A1.382,1.382,0,0,1,345.382,200h2.765a1.382,1.382,0,0,1,1.382,1.382v42.85Z" transform="translate(-344 -200)" fill="#d3a06c"/>
        </g>
        <g id="Grupo_1111363" data-name="Grupo 1111363" transform="translate(19.351 33.174)">
          <path id="Trazado_900129" data-name="Trazado 900129" d="M125.529,244.232v5.529H120V201.382A1.382,1.382,0,0,1,121.382,200h2.764a1.382,1.382,0,0,1,1.382,1.382v42.85Z" transform="translate(-120 -200)" fill="#d3a06c"/>
        </g>
        <g id="Grupo_1111364" data-name="Grupo 1111364" transform="translate(0 33.174)">
          <path id="Trazado_900130" data-name="Trazado 900130" d="M13.529,244.232v5.529H8V201.382A1.382,1.382,0,0,1,9.382,200h2.764a1.382,1.382,0,0,1,1.382,1.382v42.85Z" transform="translate(-8 -200)" fill="#d3a06c"/>
        </g>
        <g id="Grupo_1111365" data-name="Grupo 1111365" transform="translate(44.232 69.75)">
          <path id="Trazado_900131" data-name="Trazado 900131" d="M272.057,421.639a2.235,2.235,0,0,1-2,3.236h-3.822a2.235,2.235,0,0,1-2-3.236l1.146-2.293-.957-7.656.9,1.355a7.538,7.538,0,0,0,3.893,2.974,7.56,7.56,0,0,1,2.225,1.185l-.536,2.142Z" transform="translate(-264 -411.69)" fill="#969faa"/>
        </g>
        <g id="Grupo_1111366" data-name="Grupo 1111366" transform="translate(30.409 69.75)">
          <path id="Trazado_900132" data-name="Trazado 900132" d="M192.057,421.639a2.235,2.235,0,0,1-2,3.236h-3.822a2.235,2.235,0,0,1-2-3.236l1.146-2.293-.536-2.142a7.561,7.561,0,0,1,2.225-1.185,7.538,7.538,0,0,0,3.893-2.974l.9-1.355-.957,7.656Z" transform="translate(-184 -411.69)" fill="#969faa"/>
        </g>
        <g id="Grupo_1111367" data-name="Grupo 1111367" transform="translate(24.88 36.776)">
          <path id="Trazado_900133" data-name="Trazado 900133" d="M157.517,247.657a19.245,19.245,0,0,0-1-5.529c-.05-.147-.1-.294-.154-.439l-3.378-9.289a16.391,16.391,0,0,1,.131-11.55l2.2,1.65a5.528,5.528,0,0,1,2.212,4.423v.845a5.532,5.532,0,0,0,4.62,5.455l1.381.23h0a9.989,9.989,0,0,0,2.291,3.869v4.807a4.9,4.9,0,0,0-4.829,4.09l-.245,1.477a3.265,3.265,0,0,1-3.219,2.726V248.3C157.529,248.087,157.526,247.871,157.517,247.657Z" transform="translate(-152 -220.85)" fill="#969faa"/>
        </g>
        <g id="Grupo_1111368" data-name="Grupo 1111368" transform="translate(25.998 30.397)">
          <path id="Trazado_900134" data-name="Trazado 900134" d="M168.884,202.912h0l-1.381-.23a5.532,5.532,0,0,1-4.62-5.455v-.845a5.528,5.528,0,0,0-2.212-4.423l-2.2-1.65a16.374,16.374,0,0,1,3.682-5.638l.741-.741c-.009.142-.012.283-.012.425a7.668,7.668,0,0,0,6.41,7.566l1.883.314V195H176.7v-2.764l1.883-.314a7.641,7.641,0,0,0,4.05-2.03,9.07,9.07,0,0,1,2.36,6.1,9.067,9.067,0,0,0,3.628,7.257l.321.24-2.785,7.658c-.054.145-.1.292-.154.439a19.246,19.246,0,0,0-1,5.529c-.009.214-.012.43-.012.644v3.5l-.549-.275a5.386,5.386,0,0,1-2.816-3.511,4.126,4.126,0,0,0-4-3.126H176.7V206.78a10.014,10.014,0,0,1-2.764,2.042,9.99,9.99,0,0,1-5.056-5.911Z" transform="translate(-158.47 -183.93)" fill="#969faa"/>
        </g>
        <g id="Grupo_1111369" data-name="Grupo 1111369" transform="translate(50.165 30.397)">
          <path id="Trazado_900135" data-name="Trazado 900135" d="M306.229,196.26a16.411,16.411,0,0,1-.987,5.6l-.593,1.631-.321-.24a9.067,9.067,0,0,1-3.628-7.257,9.07,9.07,0,0,0-2.36-6.1,7.8,7.8,0,0,0,.543-.577,7.656,7.656,0,0,0,1.818-4.959c0-.142,0-.283-.012-.425l.741.741A16.386,16.386,0,0,1,306.229,196.26Z" transform="translate(-298.34 -183.93)" fill="#ccd1d9"/>
        </g>
        <g id="Grupo_1111370" data-name="Grupo 1111370" transform="translate(44.232 60.819)">
          <path id="Trazado_900136" data-name="Trazado 900136" d="M272.293,366.911v1.764a19.26,19.26,0,0,1-.147,2.383,19.515,19.515,0,0,1-.43,2.312l-.27,1.075a7.559,7.559,0,0,0-2.225-1.185,7.538,7.538,0,0,1-3.893-2.974l-.9-1.355-.276-2.206a19.564,19.564,0,0,1-.149-2.4V360h.924a4.125,4.125,0,0,1,4,3.126,5.386,5.386,0,0,0,2.816,3.511Z" transform="translate(-264 -360)" fill="#ccd1d9"/>
        </g>
        <g id="Grupo_1111371" data-name="Grupo 1111371" transform="translate(30.409 58.054)">
          <path id="Trazado_900137" data-name="Trazado 900137" d="M192.293,344v7.089a19.562,19.562,0,0,1-.149,2.4l-.276,2.206-.9,1.355a7.538,7.538,0,0,1-3.893,2.974,7.56,7.56,0,0,0-2.225,1.185l-.27-1.075a19.508,19.508,0,0,1-.43-2.312A19.262,19.262,0,0,1,184,355.44v-3.146a3.265,3.265,0,0,0,3.219-2.727l.245-1.477a4.9,4.9,0,0,1,4.829-4.09Z" transform="translate(-184 -344)" fill="#ccd1d9"/>
        </g>
        <g id="Grupo_1111372" data-name="Grupo 1111372" transform="translate(49.491)">
          <path id="Trazado_900138" data-name="Trazado 900138" d="M308.532,8l-2.267.971a24.929,24.929,0,0,0-9.138,6.726,7.106,7.106,0,0,0-1.743-2.842,7.288,7.288,0,0,0-.943-.795A11.04,11.04,0,0,1,303,8Z" transform="translate(-294.44 -8)" fill="#aab2bd"/>
        </g>
        <g id="Grupo_1111373" data-name="Grupo 1111373" transform="translate(19.351 0)">
          <path id="Trazado_900139" data-name="Trazado 900139" d="M134.092,12.06a7.137,7.137,0,0,0-2.687,3.637,24.929,24.929,0,0,0-9.138-6.726L120,8h5.529A11.04,11.04,0,0,1,134.092,12.06Z" transform="translate(-120 -8)" fill="#aab2bd"/>
        </g>
        <g id="Grupo_1111374" data-name="Grupo 1111374" transform="translate(52.178 0)">
          <path id="Trazado_900140" data-name="Trazado 900140" d="M321.4,8l-1.717,6.87a5.528,5.528,0,0,1-5.363,4.188h-4.073a7.008,7.008,0,0,0,.1-1.158,7.087,7.087,0,0,0-.347-2.2,24.929,24.929,0,0,1,9.138-6.726Z" transform="translate(-309.99 -8)" fill="#ccd1d9"/>
        </g>
        <g id="Grupo_1111375" data-name="Grupo 1111375" transform="translate(19.351 0)">
          <path id="Trazado_900141" data-name="Trazado 900141" d="M131.153,19.058h-4.072a5.528,5.528,0,0,1-5.363-4.188L120,8l2.267.971a24.929,24.929,0,0,1,9.138,6.726,7.085,7.085,0,0,0-.347,2.2A7.008,7.008,0,0,0,131.153,19.058Z" transform="translate(-120 -8)" fill="#ccd1d9"/>
        </g>
        <g id="Grupo_1111376" data-name="Grupo 1111376" transform="translate(31.33 2.764)">
          <path id="Trazado_900142" data-name="Trazado 900142" d="M210.525,31.136a7.008,7.008,0,0,1-.1,1.158,7.136,7.136,0,0,1-.271,1.1L206.9,43.158a5.529,5.529,0,0,0-7.436-1.83,5.529,5.529,0,0,0-7.436,1.83l-2.7-8.1h4.833a5.3,5.3,0,0,0,4.413-8.249L196.7,24h6.687a7.1,7.1,0,0,1,4.1,1.3,7.29,7.29,0,0,1,.943.795,7.116,7.116,0,0,1,2.091,5.045Z" transform="translate(-189.33 -24)" fill="#ccd1d9"/>
        </g>
        <g id="Grupo_1111377" data-name="Grupo 1111377" transform="translate(30.409 2.764)">
          <path id="Trazado_900143" data-name="Trazado 900143" d="M194.166,26.809a5.3,5.3,0,0,1-4.413,8.249h-4.833l-.555-1.666a7.137,7.137,0,0,1-.271-1.1,7.009,7.009,0,0,1-.1-1.158A7.134,7.134,0,0,1,191.136,24h1.158Z" transform="translate(-184 -24)" fill="#969faa"/>
        </g>
        <g id="Grupo_1111378" data-name="Grupo 1111378" transform="translate(33.174 19.351)">
          <path id="Trazado_900144" data-name="Trazado 900144" d="M215.73,122.571a5.529,5.529,0,0,1-4.672,8.487h-5.529a5.529,5.529,0,1,1,2.764-10.317,5.529,5.529,0,0,1,7.436,1.83Z" transform="translate(-200 -120)" fill="#969faa"/>
        </g>
        <g id="Grupo_1111379" data-name="Grupo 1111379" transform="translate(34.936 28.929)">
          <path id="Trazado_900145" data-name="Trazado 900145" d="M223.262,175.43l-.325,2.263a5.528,5.528,0,0,1-5.472,4.746H216a5.528,5.528,0,0,1-5.472-4.746l-.325-2.263a5.505,5.505,0,0,0,3.767,1.481H219.5A5.505,5.505,0,0,0,223.262,175.43Z" transform="translate(-210.2 -175.43)" fill="#ff826e"/>
        </g>
        <g id="Grupo_1111380" data-name="Grupo 1111380" transform="translate(41.467 24.88)">
          <path id="Trazado_900146" data-name="Trazado 900146" d="M259.046,157.517c.009.142.012.283.012.425a7.656,7.656,0,0,1-1.818,4.959,7.79,7.79,0,0,1-.543.577,7.641,7.641,0,0,1-4.05,2.03l-1.883.314A2.761,2.761,0,0,0,248,163.058h.734a5.528,5.528,0,0,0,5.472-4.746l.325-2.263A5.521,5.521,0,0,0,256.293,152l.518.518A7.671,7.671,0,0,1,259.046,157.517Z" transform="translate(-248 -152)" fill="#ffeaa7"/>
        </g>
        <g id="Grupo_1111381" data-name="Grupo 1111381" transform="translate(30.409 24.88)">
          <path id="Trazado_900147" data-name="Trazado 900147" d="M194.324,163.058h.734a2.764,2.764,0,0,0-2.764,2.765l-1.883-.314a7.668,7.668,0,0,1-6.41-7.566c0-.142,0-.283.012-.425a7.671,7.671,0,0,1,2.234-5l.518-.518a5.521,5.521,0,0,0,1.762,4.048l.325,2.263A5.528,5.528,0,0,0,194.324,163.058Z" transform="translate(-184 -152)" fill="#ffeaa7"/>
        </g>
        <g id="Grupo_1111382" data-name="Grupo 1111382" transform="translate(38.703 35.938)">
          <path id="Trazado_900148" data-name="Trazado 900148" d="M237.529,218.764v2.764H232v-2.764a2.764,2.764,0,1,1,5.529,0Z" transform="translate(-232 -216)" fill="#fcd770"/>
        </g>
      </g>
      <g id="Grupo_1111384" data-name="Grupo 1111384" transform="translate(0 0)">
        <circle id="Elipse_11584" data-name="Elipse 11584" cx="1.304" cy="1.304" r="1.304" transform="translate(36.524 8.739)"/>
        <circle id="Elipse_11585" data-name="Elipse 11585" cx="1.304" cy="1.304" r="1.304" transform="translate(46.959 8.739)"/>
        <circle id="Elipse_11586" data-name="Elipse 11586" cx="1.304" cy="1.304" r="1.304" transform="translate(39.133 24.392)"/>
        <circle id="Elipse_11587" data-name="Elipse 11587" cx="1.304" cy="1.304" r="1.304" transform="translate(44.35 24.392)"/>
        <path id="Trazado_900149" data-name="Trazado 900149" d="M82.935,33.174H80.17a2.768,2.768,0,0,0-2.764,2.764v8.293H66.348V35.938a2.768,2.768,0,0,0-2.764-2.764H60.819A2.767,2.767,0,0,0,58.257,34.9a17.9,17.9,0,0,0-2.643-3.362l-.386-.386a8.982,8.982,0,0,0-2.59-5.354l-.141-.141a6.856,6.856,0,0,0-.708-2.5l3.063-9.19c.017-.051.032-.1.048-.153h2.984a6.9,6.9,0,0,0,6.7-5.235L66.736,0h-7.3a12.389,12.389,0,0,0-8.829,3.681,8.463,8.463,0,0,0-3.836-.916H38.927a8.463,8.463,0,0,0-3.836.916A12.389,12.389,0,0,0,26.263,0h-7.3L21.11,8.588a6.9,6.9,0,0,0,6.7,5.235H30.8c.016.051.031.1.048.153l3.063,9.19a6.855,6.855,0,0,0-.708,2.5l-.14.14a8.983,8.983,0,0,0-2.59,5.354l-.386.386A17.887,17.887,0,0,0,27.442,34.9a2.767,2.767,0,0,0-2.562-1.731H22.116a2.768,2.768,0,0,0-2.764,2.764v8.293H8.293V35.938a2.768,2.768,0,0,0-2.764-2.764H2.764A2.768,2.768,0,0,0,0,35.938V85.7H85.7V35.938A2.768,2.768,0,0,0,82.935,33.174ZM5.529,82.935H2.764v-47H5.529ZM77.406,47v2.764H66.348V47ZM66.348,71.877V66.348H77.406v5.529Zm11.058,2.764v2.764H66.348V74.641ZM66.348,63.583V60.819H77.406v2.764Zm0-5.529V52.525H77.406v5.529ZM60.819,35.938h2.764v47H60.819Zm-30.3,47H27.645V80.17h3.292l-.146.292a3.64,3.64,0,0,0-.382,1.618,3.6,3.6,0,0,0,.106.854Zm-1.765-42.02a4.167,4.167,0,0,1,1.659,3.317v.845a6.89,6.89,0,0,0,5.775,6.817l.573.1A11.265,11.265,0,0,0,38.7,55.175v3.032a6.255,6.255,0,0,0-4.81,5.093l-.246,1.476a1.879,1.879,0,0,1-.473.967V65.61a20.673,20.673,0,0,0-1.248-7.086l-3.377-9.287a15.084,15.084,0,0,1-.45-8.812Zm2.278,34.991.375,1.5H27.645V74.641h3.11Q30.872,75.277,31.028,75.905ZM27.645,60.819h2.112a17.874,17.874,0,0,1,.535,2.764H27.645Zm0,5.529h2.764v4.529c0,.333.01.667.027,1H27.645Zm1.168-8.293H27.645V54.842ZM33.545,74.5a17.992,17.992,0,0,1-.371-3.621V68.9a4.627,4.627,0,0,0,3.2-3.67l.246-1.476A3.5,3.5,0,0,1,38.7,61.1v5.422a18.034,18.034,0,0,1-.139,2.229l-.235,1.883-.722,1.082a6.2,6.2,0,0,1-3.18,2.429A8.939,8.939,0,0,0,33.545,74.5Zm7.541,5.964-.959-1.918L41.307,69.1a20.809,20.809,0,0,0,.16-2.572V57.489q.372.222.764.42l.618.309.618-.309q.392-.2.764-.42v9.036a20.81,20.81,0,0,0,.16,2.572l1.181,9.447-.959,1.918a3.64,3.64,0,0,0-.382,1.618,3.6,3.6,0,0,0,.106.854H41.361a3.6,3.6,0,0,0,.106-.854A3.64,3.64,0,0,0,41.085,80.462Zm6.05-11.708A18.034,18.034,0,0,1,47,66.525v-2.9A2.741,2.741,0,0,1,49.2,65.663a6.757,6.757,0,0,0,3.324,4.3v.918a17.991,17.991,0,0,1-.371,3.621,8.926,8.926,0,0,0-.882-.349,6.2,6.2,0,0,1-3.18-2.429l-.722-1.083Zm10.919,8.652H54.3l.375-1.5q.157-.628.274-1.264h3.11Zm0-5.529H55.263c.016-.333.027-.666.027-1V66.348h2.764Zm0-17.034v3.212H56.886Zm-2.112,5.976h2.112v2.764H55.408A17.874,17.874,0,0,1,55.943,60.819ZM54.908,80.462l-.146-.292h3.293v2.764H55.184a3.6,3.6,0,0,0,.106-.854A3.64,3.64,0,0,0,54.908,80.462Zm3.147-36.353a14.958,14.958,0,0,1-.809,4.85,7.729,7.729,0,0,1-1.956-5.116A10.427,10.427,0,0,0,53.364,37.8a9.009,9.009,0,0,0,1.522-2.91,14.889,14.889,0,0,1,3.169,9.219Zm-11.371-5.6a4.156,4.156,0,0,0-.215-.443,6.943,6.943,0,0,0,3.957-5.294l.26-1.817A6.941,6.941,0,0,0,51.818,29.3a6.292,6.292,0,0,1-4.548,9.1Zm3.078-12.243a4.151,4.151,0,0,1-4.147,4.147H40.085a4.147,4.147,0,1,1,2.072-7.738l.692.4.692-.4a4.146,4.146,0,0,1,6.219,3.591Zm-9.676,6.911h5.529a6.885,6.885,0,0,0,1.964-.286,4.168,4.168,0,0,1-3.995,3.05H42.116a4.168,4.168,0,0,1-3.995-3.05A6.885,6.885,0,0,0,40.085,33.174Zm1.382,6.911a1.382,1.382,0,0,1,2.764,0v1.382H41.467ZM53.921,6.66a8.572,8.572,0,0,0-1.054-1.319,9.629,9.629,0,0,1,5.994-2.558A26.538,26.538,0,0,0,53.921,6.66Zm7.986,1.257a4.141,4.141,0,0,1-4.023,3.141h-2.6a8.514,8.514,0,0,0-.2-1.619,23.69,23.69,0,0,1,7.861-5.683Zm-9.382,3.365a5.743,5.743,0,0,1-.3,1.819L49.7,20.693a6.9,6.9,0,0,0-6.85-.764,6.9,6.9,0,0,0-6.85.764l-1.369-4.106h2.914a6.687,6.687,0,0,0,5.564-10.4l-.441-.661h4.1A5.76,5.76,0,0,1,52.525,11.282Zm-25.687-8.5A9.629,9.629,0,0,1,32.832,5.34,8.581,8.581,0,0,0,31.779,6.66a26.552,26.552,0,0,0-4.94-3.878ZM39.345,5.529l1.463,2.195a3.923,3.923,0,0,1-3.264,6.1H33.71l-.24-.721a5.753,5.753,0,0,1,5.458-7.573ZM23.792,7.917l-1.04-4.161a23.69,23.69,0,0,1,7.861,5.683,8.5,8.5,0,0,0-.2,1.619h-2.6a4.141,4.141,0,0,1-4.023-3.141ZM33.881,29.3a6.941,6.941,0,0,0,1.134,1.649l.26,1.817a6.943,6.943,0,0,0,3.957,5.294,4.155,4.155,0,0,0-.215.443l-.587-.1a6.292,6.292,0,0,1-4.548-9.1ZM30.813,34.89a9.021,9.021,0,0,0,7.161,6.245l.729.121v2.976H47V41.256l.729-.121a9.069,9.069,0,0,0,3.591-1.429,7.67,7.67,0,0,1,1.209,4.138,10.51,10.51,0,0,0,3.689,7.969l-2.441,6.713a20.673,20.673,0,0,0-1.248,7.086v.76a4,4,0,0,1-.642-1.378A5.5,5.5,0,0,0,47,60.838V55.175a11.33,11.33,0,0,0,2.764-7.448V47H47v.73A8.567,8.567,0,0,1,42.849,55.1,8.567,8.567,0,0,1,38.7,47.726V47H35.938v.73a11.6,11.6,0,0,0,.072,1.283,4.13,4.13,0,0,1-2.836-3.932v-.845A6.944,6.944,0,0,0,30.409,38.7l-1.336-1a14.9,14.9,0,0,1,1.74-2.811ZM24.88,35.938v47H22.116v-47ZM19.351,58.054H8.293V52.525H19.351Zm0,2.764v2.764H8.293V60.819Zm0,5.529v5.529H8.293V66.348Zm0,8.293v2.764H8.293V74.641Zm0-27.645v2.764H8.293V47ZM8.293,80.17H19.351v2.764H8.293Zm25.735,2.764a.854.854,0,0,1-.764-1.236l1.375-2.75-.423-1.693a6.156,6.156,0,0,1,1.086-.484,8.921,8.921,0,0,0,2.417-1.246l-.438,3.507L38.612,81.7a.854.854,0,0,1-.764,1.236h-3.82Zm13.822,0a.855.855,0,0,1-.764-1.236l1.333-2.667-.438-3.507A8.931,8.931,0,0,0,50.4,76.771a6.157,6.157,0,0,1,1.086.484l-.423,1.693,1.375,2.75a.854.854,0,0,1-.764,1.236Zm18.5,0V80.17H77.406v2.764Zm16.587,0H80.17v-47h2.764Z" transform="translate(0 0)"/>
      </g>
    </g>
  </g>
</svg>
