<svg xmlns="http://www.w3.org/2000/svg" width="86.369" height="86.369" viewBox="0 0 86.369 86.369">
  <g id="Grupo_1211871" data-name="Grupo 1211871" transform="translate(-336.5 -5599.097)">
    <g id="Grupo_1200193" data-name="Grupo 1200193" transform="translate(12017 17501.447)">
      <g id="Grupo_1099347" data-name="Grupo 1099347" transform="translate(-11585.5 -12119)">
        <g id="Grupo_1099341" data-name="Grupo 1099341" transform="translate(-95 216.65)">
          <g id="Rect치ngulo_402588" data-name="Rect치ngulo 402588" transform="translate(0 0)" fill="#efd026" stroke="#fff" stroke-width="5">
            <rect width="86.369" height="86.369" rx="14" stroke="none"/>
            <rect x="2.5" y="2.5" width="81.369" height="81.369" rx="11.5" fill="none"/>
          </g>
        </g>
      </g>
    </g>
    <g id="contract_6226173" transform="translate(343.086 5613.14)">
      <g id="Grupo_1213729" data-name="Grupo 1213729" transform="translate(14.487 0.797)">
        <path id="Trazado_1039401" data-name="Trazado 1039401" d="M59.663,58.44H15.44V1.75H52.314L59.663,9.1Z" transform="translate(-15.44 -1.75)" fill="#ecf4ff"/>
        <path id="Trazado_1039402" data-name="Trazado 1039402" d="M92.065,1.75,88.424,12.512,99.414,9.1Z" transform="translate(-55.191 -1.75)" fill="#057096"/>
        <circle id="Elipse_12185" data-name="Elipse 12185" cx="10.029" cy="10.029" r="10.029" transform="translate(4.199 4.199)" fill="#055e7f"/>
        <rect id="Rect치ngulo_409249" data-name="Rect치ngulo 409249" width="36.183" height="5.187" transform="translate(4.02 35.262)" fill="#cbe2ff"/>
        <path id="Trazado_1039403" data-name="Trazado 1039403" d="M37.981,32.005,33.42,27.445,36,24.869l1.985,1.985,4.945-4.945L45.5,24.485Z" transform="translate(-25.233 -12.73)" fill="#ade092"/>
      </g>
      <g id="Grupo_1213730" data-name="Grupo 1213730" transform="translate(13.69 0)">
        <path id="Trazado_1039404" data-name="Trazado 1039404" d="M59.506,8.138a.84.84,0,0,0-.233-.556L51.924.234A.847.847,0,0,0,51.361,0H14.487a.8.8,0,0,0-.8.8v56.69a.8.8,0,0,0,.8.8H58.71a.8.8,0,0,0,.8-.8V8.146Zm-2.293-.362-8.238,2.56,2.732-8.067ZM15.284,56.69V1.594H50.251L46.965,11.3a.8.8,0,0,0,.991,1.016l9.957-3.093V56.69Z" transform="translate(-13.69 0)"/>
        <path id="Trazado_1039405" data-name="Trazado 1039405" d="M33.738,30.869A10.837,10.837,0,0,0,44.563,20.045a.8.8,0,1,0-1.594,0,9.225,9.225,0,1,1-.826-3.825.8.8,0,0,0,1.451-.661,10.826,10.826,0,1,0-9.857,15.309Z" transform="translate(-18.713 -5.019)"/>
        <path id="Trazado_1039406" data-name="Trazado 1039406" d="M82.647,77.44a.8.8,0,0,0,0,1.594H84.91a.8.8,0,1,0,0-1.594Z" transform="translate(-50.814 -42.178)"/>
        <path id="Trazado_1039407" data-name="Trazado 1039407" d="M59.5,77.44H56.746a.8.8,0,0,0,0,1.594H58.7v3.594H24.113V79.034H46.181a.8.8,0,1,0,0-1.594H23.316a.8.8,0,0,0-.8.8v5.188a.8.8,0,0,0,.8.8H59.5a.8.8,0,0,0,.8-.8V78.237a.8.8,0,0,0-.8-.8Z" transform="translate(-18.499 -42.178)"/>
        <path id="Trazado_1039408" data-name="Trazado 1039408" d="M81.747,101.422l-2.561.256a.806.806,0,0,0-.343.117l-1.569.981-1.152-.926a.8.8,0,0,0-1.016.015l-.683.583.783-3.472a.8.8,0,0,0-1.419-.648l-4.262,5.787-.342-2.3a.8.8,0,0,0-1.234-.544l-2.447,1.65a.8.8,0,0,0,.891,1.32l1.4-.944.44,2.96a.8.8,0,0,0,1.43.356l3.151-4.28-.472,2.095a.8.8,0,0,0,1.294.782l2-1.707,1.08.867a.8.8,0,0,0,.922.055l1.891-1.184L81.909,103a.8.8,0,1,0-.158-1.586Z" transform="translate(-41.729 -53.378)"/>
        <path id="Trazado_1039409" data-name="Trazado 1039409" d="M41.647,100H29.609a.8.8,0,1,0,0,1.594H41.647a.8.8,0,1,0,0-1.594Z" transform="translate(-21.926 -54.465)"/>
        <path id="Trazado_1039410" data-name="Trazado 1039410" d="M41.647,111.69H29.609a.8.8,0,1,0,0,1.594H41.647a.8.8,0,1,0,0-1.594Z" transform="translate(-21.926 -60.833)"/>
        <path id="Trazado_1039411" data-name="Trazado 1039411" d="M23.71,65.847H59.266a.8.8,0,1,0,0-1.594H23.71a.8.8,0,1,0,0,1.594Z" transform="translate(-18.713 -34.996)"/>
        <path id="Trazado_1039412" data-name="Trazado 1039412" d="M72.047,52.094H85.593a.8.8,0,0,0,0-1.594H72.047a.8.8,0,0,0,0,1.594Z" transform="translate(-45.04 -27.505)"/>
        <path id="Trazado_1039413" data-name="Trazado 1039413" d="M79.047,38.662H89.406a.8.8,0,1,0,0-1.594H79.047a.8.8,0,0,0,0,1.594Z" transform="translate(-48.853 -20.189)"/>
        <path id="Trazado_1039414" data-name="Trazado 1039414" d="M41.409,20.392l-4.381,4.381-1.421-1.421a.8.8,0,0,0-1.127,0L31.9,25.927a.8.8,0,0,0,0,1.127l4.561,4.561a.8.8,0,0,0,1.127,0l7.52-7.522a.8.8,0,0,0,0-1.127L42.536,20.39a.8.8,0,0,0-1.127,0Zm-4.381,9.533L33.6,26.49l1.449-1.448,1.419,1.421a.8.8,0,0,0,1.127,0l4.383-4.381,1.449,1.448Z" transform="translate(-23.483 -10.979)"/>
      </g>
    </g>
  </g>
</svg>
