<svg xmlns="http://www.w3.org/2000/svg" width="86.369" height="86.369" viewBox="0 0 86.369 86.369">
  <g id="Grupo_1211903" data-name="Grupo 1211903" transform="translate(-766.782 -8299.702)">
    <g id="Grupo_1211899" data-name="Grupo 1211899">
      <g id="Grupo_1200216" data-name="Grupo 1200216" transform="translate(12447.281 20202.051)">
        <g id="Grupo_1099347" data-name="Grupo 1099347" transform="translate(-11585.5 -12119)">
          <g id="Grupo_1099341" data-name="Grupo 1099341" transform="translate(-95 216.65)">
            <g id="Rectángulo_402588" data-name="Rectángulo 402588" transform="translate(0 0)" fill="#f4c5c5" stroke="#fff" stroke-width="5">
              <rect width="86.369" height="86.369" rx="14" stroke="none"/>
              <rect x="2.5" y="2.5" width="81.369" height="81.369" rx="11.5" fill="none"/>
            </g>
          </g>
        </g>
      </g>
    </g>
    <g id="temperature_8841424" transform="translate(776.303 8310.378)">
      <path id="Trazado_1034462" data-name="Trazado 1034462" d="M250.9,80.909v24.253a2.379,2.379,0,0,1-2.379,2.379H227.786a2.379,2.379,0,0,1-2.379-2.379v-4.574a.789.789,0,0,0-.451-.713L221.837,98.4a.446.446,0,0,1,0-.807l3.119-1.478a.789.789,0,0,0,.451-.713V80.909a2.379,2.379,0,0,1,2.379-2.379h20.731A2.379,2.379,0,0,1,250.9,80.909Z" transform="translate(-191.9 -63.67)" fill="#eaf9fa"/>
      <path id="Trazado_1034463" data-name="Trazado 1034463" d="M454.649,78.53h-3.108a2.379,2.379,0,0,1,2.379,2.379v24.253a2.379,2.379,0,0,1-2.379,2.379h3.108a2.379,2.379,0,0,0,2.379-2.379V80.909A2.379,2.379,0,0,0,454.649,78.53Z" transform="translate(-398.033 -63.67)" fill="#d4f2f6"/>
      <path id="Trazado_1034464" data-name="Trazado 1034464" d="M27.394,49.048a9.947,9.947,0,1,1-15.369-8.34,1.681,1.681,0,0,0,.76-1.409V12.163A4.662,4.662,0,0,1,17.447,7.5h0a4.662,4.662,0,0,1,4.663,4.663V39.3a1.682,1.682,0,0,0,.761,1.41A9.938,9.938,0,0,1,27.394,49.048Z" transform="translate(0 0)" fill="#b4d2e2"/>
      <path id="Trazado_1034465" data-name="Trazado 1034465" d="M95.477,40.709a1.682,1.682,0,0,1-.761-1.41V12.163A4.662,4.662,0,0,0,90.054,7.5h0a4.654,4.654,0,0,0-1.554.266,4.663,4.663,0,0,1,3.108,4.4V39.3a8.186,8.186,0,0,0,.714,2.974c2.993,3.592,4.57,3.282,4.57,6.775A9.949,9.949,0,0,1,88.5,58.873a9.947,9.947,0,0,0,6.974-18.164Z" transform="translate(-72.607 0)" fill="#8abbd5"/>
      <path id="Trazado_1034466" data-name="Trazado 1034466" d="M44.239,82.777A6.839,6.839,0,0,1,40.612,70.2a4.772,4.772,0,0,0,2.171-4.014V39.054a1.554,1.554,0,1,1,3.108,0V66.19A4.773,4.773,0,0,0,48.064,70.2a6.839,6.839,0,0,1-3.726,12.574Z" transform="translate(-26.891 -26.892)" fill="#685e68"/>
      <path id="Trazado_1034467" data-name="Trazado 1034467" d="M48.065,226.026a4.773,4.773,0,0,1-2.172-4.014V211.333H42.785v10.679a4.772,4.772,0,0,1-2.171,4.014A6.839,6.839,0,0,0,44.24,238.6h.1a6.839,6.839,0,0,0,3.726-12.574Z" transform="translate(-26.892 -182.714)" fill="#62dbfb"/>
      <path id="Trazado_1034468" data-name="Trazado 1034468" d="M93.78,226.026a4.773,4.773,0,0,1-2.172-4.014V211.333H88.5v10.679a4.773,4.773,0,0,0,2.172,4.014A6.838,6.838,0,0,1,88.5,238.419a6.723,6.723,0,0,0,1.451.181h.1a6.839,6.839,0,0,0,3.726-12.574Z" transform="translate(-72.607 -182.714)" fill="#01d0fb"/>
      <g id="Grupo_1211902" data-name="Grupo 1211902" transform="translate(7.5 7.5)">
        <path id="Trazado_1034469" data-name="Trazado 1034469" d="M250.9,103.963v1.2a2.379,2.379,0,0,1-2.379,2.379H227.786a2.379,2.379,0,0,1-2.379-2.379v-4.574a.789.789,0,0,0-.451-.713L221.837,98.4a.446.446,0,0,1,0-.807l3.119-1.478a.789.789,0,0,0,.451-.713V80.909a2.379,2.379,0,0,1,2.379-2.379h20.731a2.379,2.379,0,0,1,2.379,2.379v19.417" transform="translate(-199.401 -71.17)" fill="none" stroke="#000" stroke-linecap="round" stroke-linejoin="round" stroke-miterlimit="10" stroke-width="1.5"/>
        <path id="Trazado_1034470" data-name="Trazado 1034470" d="M12.784,14.86v-2.7A4.662,4.662,0,0,1,17.447,7.5h0a4.662,4.662,0,0,1,4.663,4.663V39.3a1.682,1.682,0,0,0,.761,1.41,9.947,9.947,0,1,1-10.845,0,1.681,1.681,0,0,0,.76-1.409V18.4" transform="translate(-7.5 -7.5)" fill="none" stroke="#000" stroke-linecap="round" stroke-linejoin="round" stroke-miterlimit="10" stroke-width="1.5"/>
        <path id="Trazado_1034471" data-name="Trazado 1034471" d="M44.239,82.777A6.839,6.839,0,0,1,40.612,70.2a4.772,4.772,0,0,0,2.171-4.014V39.054a1.554,1.554,0,1,1,3.108,0V66.19A4.773,4.773,0,0,0,48.064,70.2a6.839,6.839,0,0,1-3.726,12.574Z" transform="translate(-34.391 -34.392)" fill="none" stroke="#000" stroke-linecap="round" stroke-linejoin="round" stroke-miterlimit="10" stroke-width="1.5"/>
        <line id="Línea_641" data-name="Línea 641" x2="2.452" transform="translate(8.79 21.119)" fill="none" stroke="#000" stroke-linecap="round" stroke-linejoin="round" stroke-miterlimit="10" stroke-width="1.5"/>
        <g id="Grupo_1211901" data-name="Grupo 1211901" transform="translate(31.434 14.743)">
          <line id="Línea_642" data-name="Línea 642" x2="15.519" transform="translate(0 0)" fill="none" stroke="#000" stroke-linecap="round" stroke-linejoin="round" stroke-miterlimit="10" stroke-width="1.5"/>
          <line id="Línea_643" data-name="Línea 643" x2="15.519" transform="translate(0 3.36)" fill="none" stroke="#000" stroke-linecap="round" stroke-linejoin="round" stroke-miterlimit="10" stroke-width="1.5"/>
          <line id="Línea_644" data-name="Línea 644" x2="4.674" transform="translate(0 6.72)" fill="none" stroke="#000" stroke-linecap="round" stroke-linejoin="round" stroke-miterlimit="10" stroke-width="1.5"/>
          <line id="Línea_645" data-name="Línea 645" x2="4.674" transform="translate(0 10.08)" fill="none" stroke="#000" stroke-linecap="round" stroke-linejoin="round" stroke-miterlimit="10" stroke-width="1.5"/>
          <line id="Línea_646" data-name="Línea 646" x2="4.674" transform="translate(0 13.44)" fill="none" stroke="#000" stroke-linecap="round" stroke-linejoin="round" stroke-miterlimit="10" stroke-width="1.5"/>
          <path id="Trazado_1034472" data-name="Trazado 1034472" d="M385.778,224.976l2.3,2.533,3.822-3.96" transform="translate(-378.019 -215.906)" fill="none" stroke="#000" stroke-linecap="round" stroke-linejoin="round" stroke-miterlimit="10" stroke-width="1.5"/>
        </g>
      </g>
    </g>
  </g>
</svg>
