<svg xmlns="http://www.w3.org/2000/svg" width="86.369" height="86.369" viewBox="0 0 86.369 86.369">
  <g id="Grupo_1211962" data-name="Grupo 1211962" transform="translate(-1177.5 -10380.266)">
    <g id="Grupo_1200231" data-name="Grupo 1200231" transform="translate(12858 22282.615)">
      <g id="Grupo_1099347" data-name="Grupo 1099347" transform="translate(-11585.5 -12119)">
        <g id="Grupo_1099341" data-name="Grupo 1099341" transform="translate(-95 216.65)">
          <g id="Rectángulo_402588" data-name="Rectángulo 402588" transform="translate(0 0)" fill="#efd026" stroke="#fff" stroke-width="5">
            <rect width="86.369" height="86.369" rx="14" stroke="none"/>
            <rect x="2.5" y="2.5" width="81.369" height="81.369" rx="11.5" fill="none"/>
          </g>
        </g>
      </g>
    </g>
    <g id="obediente_20_" data-name="obediente (20)" transform="translate(1188.048 10396.911)">
      <g id="Grupo_1211952" data-name="Grupo 1211952" transform="translate(9.524 0.778)">
        <g id="Grupo_1211950" data-name="Grupo 1211950" transform="translate(0)">
          <g id="Grupo_1211947" data-name="Grupo 1211947" transform="translate(0 20.313)">
            <g id="Grupo_1211940" data-name="Grupo 1211940" transform="translate(0 0)">
              <path id="Trazado_1034509" data-name="Trazado 1034509" d="M39.2,203.907l1.867,3.234a.311.311,0,0,0,.269.156H54.134a.311.311,0,0,0,.269-.156l1.867-3.234A.311.311,0,0,0,56,203.44H39.472A.311.311,0,0,0,39.2,203.907Z" transform="translate(-39.16 -203.44)" fill="#fed402"/>
            </g>
            <g id="Grupo_1211946" data-name="Grupo 1211946">
              <g id="Grupo_1211941" data-name="Grupo 1211941" transform="translate(27.806 0)">
                <path id="Trazado_1034510" data-name="Trazado 1034510" d="M307.424,203.907l1.867,3.234a.311.311,0,0,0,.269.156h12.8a.311.311,0,0,0,.269-.156l1.867-3.234a.311.311,0,0,0-.269-.467h-16.53A.311.311,0,0,0,307.424,203.907Z" transform="translate(-307.382 -203.44)" fill="#fed402"/>
              </g>
              <g id="Grupo_1211942" data-name="Grupo 1211942" transform="translate(0 0)">
                <path id="Trazado_1034511" data-name="Trazado 1034511" d="M39.2,203.907l1.867,3.234a.311.311,0,0,0,.269.156H54.134a.311.311,0,0,0,.269-.156l1.867-3.234A.311.311,0,0,0,56,203.44H39.472A.311.311,0,0,0,39.2,203.907Z" transform="translate(-39.16 -203.44)" fill="#ca6e59"/>
              </g>
              <g id="Grupo_1211943" data-name="Grupo 1211943" transform="translate(0)">
                <path id="Trazado_1034512" data-name="Trazado 1034512" d="M45.464,207.14,43.6,203.906a.311.311,0,0,1,.269-.467H39.472a.311.311,0,0,0-.269.467l1.867,3.234a.311.311,0,0,0,.269.156h4.394A.311.311,0,0,1,45.464,207.14Z" transform="translate(-39.161 -203.439)" fill="#bb5d4c"/>
              </g>
              <g id="Grupo_1211944" data-name="Grupo 1211944" transform="translate(27.806 0)">
                <path id="Trazado_1034513" data-name="Trazado 1034513" d="M307.424,203.907l1.867,3.234a.311.311,0,0,0,.269.156h12.8a.311.311,0,0,0,.269-.156l1.867-3.234a.311.311,0,0,0-.269-.467h-16.53A.311.311,0,0,0,307.424,203.907Z" transform="translate(-307.382 -203.44)" fill="#ca6e59"/>
              </g>
              <g id="Grupo_1211945" data-name="Grupo 1211945" transform="translate(27.806)">
                <path id="Trazado_1034514" data-name="Trazado 1034514" d="M314.229,207.14l-1.867-3.234a.311.311,0,0,1,.269-.467h-4.936a.311.311,0,0,0-.269.467l1.867,3.234a.311.311,0,0,0,.269.156H314.5A.311.311,0,0,1,314.229,207.14Z" transform="translate(-307.383 -203.439)" fill="#bb5d4c"/>
              </g>
            </g>
          </g>
          <path id="Trazado_1034515" data-name="Trazado 1034515" d="M240.12,122.65V103.641a.518.518,0,0,0-.518-.518h-3.117a.518.518,0,0,0-.518.518V122.65h4.154Z" transform="translate(-215.563 -93.21)" fill="#bb5d4c"/>
          <path id="Trazado_1034516" data-name="Trazado 1034516" d="M237.725,122.65V103.641a.518.518,0,0,1,.518-.518h-1.759a.518.518,0,0,0-.518.518V122.65h1.759Z" transform="translate(-215.563 -93.21)" fill="#a44f3e"/>
          <g id="Grupo_1211948" data-name="Grupo 1211948" transform="translate(19.577 0)">
            <circle id="Elipse_12170" data-name="Elipse 12170" cx="2.902" cy="2.902" r="2.902" fill="#883f2e"/>
          </g>
          <g id="Grupo_1211949" data-name="Grupo 1211949" transform="translate(19.577)">
            <path id="Trazado_1034517" data-name="Trazado 1034517" d="M230.6,10.4a2.9,2.9,0,0,1,1.606-2.6,2.9,2.9,0,1,0,0,5.193A2.9,2.9,0,0,1,230.6,10.4Z" transform="translate(-228.005 -7.5)" fill="#6d3326"/>
          </g>
        </g>
        <g id="Grupo_1211951" data-name="Grupo 1211951" transform="translate(3.996 29.44)">
          <path id="Trazado_1034518" data-name="Trazado 1034518" d="M218.948,295.94v-2.381a2.073,2.073,0,0,0-2.073-2.073h-5.545a2.073,2.073,0,0,0-2.073,2.073v2.381Z" transform="translate(-195.618 -291.485)" fill="#883f2e"/>
          <path id="Trazado_1034519" data-name="Trazado 1034519" d="M212.753,295.94v-2.381a2.073,2.073,0,0,1,2.073-2.073h-3.5a2.073,2.073,0,0,0-2.073,2.073v2.381Z" transform="translate(-195.617 -291.485)" fill="#6d3326"/>
          <path id="Trazado_1034520" data-name="Trazado 1034520" d="M188.76,339.179v-2.945a1.777,1.777,0,0,0-1.777-1.777H172.949a1.777,1.777,0,0,0-1.777,1.777v2.945Z" transform="translate(-161.482 -330.002)" fill="#bb5d4c"/>
          <path id="Trazado_1034521" data-name="Trazado 1034521" d="M175.545,339.179v-2.945a1.777,1.777,0,0,1,1.777-1.777H172.95a1.777,1.777,0,0,0-1.777,1.777v2.945Z" transform="translate(-161.483 -330.002)" fill="#a44f3e"/>
          <path id="Trazado_1034522" data-name="Trazado 1034522" d="M80.472,379.006a2.769,2.769,0,0,0-2.769,2.769v5.261a2.769,2.769,0,0,0,2.769,2.769h1.122v-7.338h5.662v7.338h31.706v-10.8Z" transform="translate(-77.703 -369.933)" fill="#fff3de"/>
        </g>
      </g>
      <g id="Grupo_1211961" data-name="Grupo 1211961" transform="translate(6.873 39.291)">
        <g id="Grupo_1211956" data-name="Grupo 1211956" transform="translate(0)">
          <g id="Grupo_1211953" data-name="Grupo 1211953">
            <path id="Trazado_1034523" data-name="Trazado 1034523" d="M23.011,389.805a2.769,2.769,0,0,1-2.769-2.769v-5.261a2.769,2.769,0,0,1,2.769-2.769H19a5.4,5.4,0,0,0,0,10.8h4.015Z" transform="translate(-13.596 -379.006)" fill="#3675bb"/>
          </g>
          <g id="Grupo_1211954" data-name="Grupo 1211954">
            <path id="Trazado_1034524" data-name="Trazado 1034524" d="M16.219,384.406a5.4,5.4,0,0,1,5.4-5.4H19a5.4,5.4,0,0,0,0,10.8h2.623A5.4,5.4,0,0,1,16.219,384.406Z" transform="translate(-13.596 -379.006)" fill="#2b68b6"/>
          </g>
          <g id="Grupo_1211955" data-name="Grupo 1211955" transform="translate(6.646 0.004)">
            <path id="Trazado_1034525" data-name="Trazado 1034525" d="M81.594,386.8a2.766,2.766,0,0,1-1.269-2.327v-5.261c0-.058,0-.116.006-.173a2.769,2.769,0,0,0-2.628,2.766v5.261a2.769,2.769,0,0,0,2.769,2.769h1.122Z" transform="translate(-77.703 -379.041)" fill="#ffe5c2"/>
            <path id="Trazado_1034526" data-name="Trazado 1034526" d="M169.857,458.174h31.706v2.592H169.857Z" transform="translate(-160.304 -449.97)" fill="#ffe5c2"/>
          </g>
        </g>
        <g id="Grupo_1211960" data-name="Grupo 1211960" transform="translate(10.537 3.461)">
          <g id="Grupo_1211957" data-name="Grupo 1211957">
            <path id="Trazado_1034527" data-name="Trazado 1034527" d="M120.9,421.632v-9.237H115.24v9.237a.311.311,0,0,0,.488.256l2.343-1.621,2.343,1.621A.311.311,0,0,0,120.9,421.632Z" transform="translate(-115.24 -412.395)" fill="#fb2b3a"/>
          </g>
          <g id="Grupo_1211959" data-name="Grupo 1211959" transform="translate(0)">
            <g id="Grupo_1211958" data-name="Grupo 1211958">
              <path id="Trazado_1034528" data-name="Trazado 1034528" d="M117.847,412.395H115.24v9.237a.311.311,0,0,0,.488.256l2.119-1.466Z" transform="translate(-115.24 -412.395)" fill="#e41f2d"/>
            </g>
          </g>
        </g>
      </g>
      <path id="Trazado_1034529" data-name="Trazado 1034529" d="M57.133,49.313H55.557V40.069h1.576a.778.778,0,0,0,0-1.555H41.575V36.45A2.557,2.557,0,0,0,39.02,33.9H37.627v-1.6a2.854,2.854,0,0,0-2.769-2.849V16.9a.778.778,0,0,0-1.555,0V29.44H30.7V11.468h2.6v1.8a.778.778,0,0,0,1.555,0V11.209a1.3,1.3,0,0,0-1.3-1.3h-.781V7.276A3.69,3.69,0,0,0,35.6,4.457h9.529V5.875l-7.6,14.445a1.087,1.087,0,0,0-.828,1.625l1.867,3.234a1.091,1.091,0,0,0,.943.544h7.319a.778.778,0,1,0,0-1.555h-7.05l-1.329-2.3H53.363l-1.329,2.3H50.456a.778.778,0,0,0,0,1.555H52.3a1.091,1.091,0,0,0,.943-.544l1.867-3.235a1.087,1.087,0,0,0-.828-1.625l-7.6-14.445V4.457h2.91a.778.778,0,1,0,0-1.555H35.6a3.679,3.679,0,0,0-7.193,0H14.412a.778.778,0,0,0,0,1.555h2.91V5.875L9.72,20.32a1.087,1.087,0,0,0-.828,1.625h0L10.76,25.18a1.092,1.092,0,0,0,.943.544H24.5a1.091,1.091,0,0,0,.943-.544l1.867-3.234a1.087,1.087,0,0,0-.828-1.625l-7.6-14.445V4.457h9.529a3.69,3.69,0,0,0,2.819,2.819V9.913h-.781a1.3,1.3,0,0,0-1.3,1.3V29.442a2.854,2.854,0,0,0-2.769,2.849v1.6H24.986a2.557,2.557,0,0,0-2.554,2.554v2.064H12.273a6.177,6.177,0,1,0,0,12.354h4.36v1.121a1.088,1.088,0,0,0,1.708.9l1.9-1.315,1.9,1.315a1.089,1.089,0,0,0,1.708-.9V50.868H57.133a.777.777,0,1,0,0-1.555Zm-12-29H39.288l5.841-11.1Zm1.555-11.1,5.841,11.1H46.684Zm-29.361,0v11.1H11.481Zm6.906,14.955H11.972l-1.329-2.3H25.557Zm.491-3.856H18.878V9.214ZM29.878,3.68A2.125,2.125,0,1,1,32,5.8,2.127,2.127,0,0,1,29.878,3.68ZM27.935,32.291a1.3,1.3,0,0,1,1.3-1.3h5.545a1.3,1.3,0,0,1,1.3,1.3v1.6H27.935ZM12.273,49.313a4.622,4.622,0,1,1,0-9.244h1.082a3.526,3.526,0,0,0-.614,1.992v5.261a3.525,3.525,0,0,0,.614,1.992ZM22.3,51.1l-1.611-1.115a.777.777,0,0,0-.885,0L18.188,51.1V43.53H22.3ZM54,41.975H37.2a.778.778,0,1,0,0,1.555H54v2.322H37.2a.778.778,0,1,0,0,1.555H54v1.906H23.85V43.53h6.561a.778.778,0,1,0,0-1.555H16.288a.778.778,0,1,0,0,1.555h.345v5.783h-.345A1.994,1.994,0,0,1,14.3,47.321V42.06a1.994,1.994,0,0,1,1.992-1.992h12.5a.778.778,0,1,0,0-1.555h-4.8V36.45a1,1,0,0,1,1-1H39.02a1,1,0,0,1,1,1v2.064h-7.6a.778.778,0,1,0,0,1.555H54Z"/>
    </g>
  </g>
</svg>
