<svg xmlns="http://www.w3.org/2000/svg" width="86.369" height="86.369" viewBox="0 0 86.369 86.369">
  <g id="Grupo_1212013" data-name="Grupo 1212013" transform="translate(-599.738 -12573.919)">
    <g id="Grupo_1211571" data-name="Grupo 1211571" transform="translate(599.737 12573.92)">
      <g id="Grupo_1099347" data-name="Grupo 1099347" transform="translate(0 0)">
        <g id="Grupo_1099341" data-name="Grupo 1099341">
          <g id="Rectángulo_402588" data-name="Rectángulo 402588" transform="translate(0 0)" fill="#efd026" stroke="#fff" stroke-width="5">
            <rect width="86.369" height="86.369" rx="14" stroke="none"/>
            <rect x="2.5" y="2.5" width="81.369" height="81.369" rx="11.5" fill="none"/>
          </g>
        </g>
      </g>
    </g>
    <g id="chick_14823470" transform="translate(545.368 12580.18)">
      <g id="Grupo_1212009" data-name="Grupo 1212009" transform="translate(76.274 7.5)">
        <g id="Grupo_1212008" data-name="Grupo 1212008" transform="translate(0 0)">
          <g id="Grupo_1212007" data-name="Grupo 1212007" transform="translate(0 17.94)">
            <path id="Trazado_1034605" data-name="Trazado 1034605" d="M88.63,171.884c-3.474,1.069-11.16.352-12.229-3.122s4.883-8.389,8.357-9.459a6.581,6.581,0,0,1,3.873,12.58Z" transform="translate(-76.274 -159.011)" fill="#ffa93f"/>
            <path id="Trazado_1034606" data-name="Trazado 1034606" d="M296.778,171.885c3.474,1.069,11.16.352,12.229-3.122s-4.883-8.389-8.357-9.459a6.581,6.581,0,0,0-3.873,12.58Z" transform="translate(-266.572 -159.011)" fill="#fdc072"/>
          </g>
          <path id="Trazado_1034607" data-name="Trazado 1034607" d="M222.578,162.35a10.5,10.5,0,0,1-1.574,5.5c-18.932,2.386-23.192-10.245-16.088-20.072a11.782,11.782,0,0,1,3.2-.446C216.1,147.33,222.578,155.662,222.578,162.35Z" transform="translate(-186.832 -130.773)" fill="#fbf198"/>
          <path id="Trazado_1034608" data-name="Trazado 1034608" d="M161.188,171.172c-2.394,3.923-7.268,6.609-12.892,6.609-7.99,0-14.466-5.422-14.466-12.108,0-5.769,4.818-12.761,11.27-14.573C141.725,162.373,146.208,171.782,161.188,171.172Z" transform="translate(-127.015 -134.097)" fill="#fad989"/>
          <path id="Trazado_1034609" data-name="Trazado 1034609" d="M251.957,281.3a19.92,19.92,0,0,1-9.931,17.244c-15.223-.976-15.537-19.458-9.733-24.607a1.777,1.777,0,0,1,.617.211l4.9,2.755a1.8,1.8,0,0,0,1.763,0l4.874-2.743a1.794,1.794,0,0,1,1.8.019l4.279,2.526a2.645,2.645,0,0,1,1.289,1.981A24.07,24.07,0,0,1,251.957,281.3Z" transform="translate(-210.748 -242.38)" fill="#f3f5fc"/>
          <path id="Trazado_1034610" data-name="Trazado 1034610" d="M117.617,298.46A19.935,19.935,0,0,1,87.69,281.217a24.07,24.07,0,0,1,.15-2.616,2.643,2.643,0,0,1,1.291-1.981l4.279-2.526a1.794,1.794,0,0,1,1.8-.019l4.875,2.743a1.8,1.8,0,0,0,1.763,0l4.9-2.755a1.792,1.792,0,0,1,1.145-.211C104.386,280.6,105.627,294.817,117.617,298.46Z" transform="translate(-86.338 -242.298)" fill="#d7ddf5"/>
          <path id="Trazado_1034611" data-name="Trazado 1034611" d="M241.915,21.148a8.115,8.115,0,0,1-2.63,6.132c-15.495,2.285-18.2-14.526-11.59-19.774.124,0,.249-.006.373-.006C235.716,7.5,241.915,14.746,241.915,21.148Z" transform="translate(-206.788 -7.5)" fill="#fbf198"/>
          <path id="Trazado_1034612" data-name="Trazado 1034612" d="M164.123,27.324c-2.515,2.354-6.6,3.547-11.217,3.547-7.648,0-13.846-3.279-13.846-9.68,0-6.3,6-13.412,13.473-13.642C149.348,13.355,150.429,26.315,164.123,27.324Z" transform="translate(-131.626 -7.544)" fill="#fad989"/>
          <path id="Trazado_1034613" data-name="Trazado 1034613" d="M217.878,132.78c0-1.492,1.317-2.831,2.529-3.747a3.29,3.29,0,0,1,3.971,0c1.211.916,2.529,2.255,2.529,3.747,0,1.892-2.119,4.612-3.453,6.137a1.408,1.408,0,0,1-2.122,0C220,137.392,217.878,134.672,217.878,132.78Z" transform="translate(-201.111 -114.055)" fill="#ff758f"/>
        </g>
      </g>
      <g id="Grupo_1212012" data-name="Grupo 1212012" transform="translate(76.278 7.5)">
        <g id="Grupo_1212010" data-name="Grupo 1212010" transform="translate(0 18.169)">
          <path id="Trazado_1034614" data-name="Trazado 1034614" d="M85.021,160.945c-3.565.985-9.644,5.976-8.585,9.523.639,2.076,3.642,3.168,6.7,3.481" transform="translate(-76.314 -160.945)" fill="none" stroke="#000" stroke-linecap="round" stroke-linejoin="round" stroke-miterlimit="10" stroke-width="2"/>
        </g>
        <g id="Grupo_1212011" data-name="Grupo 1212011" transform="translate(33.845 18.169)">
          <path id="Trazado_1034615" data-name="Trazado 1034615" d="M364.038,173.949c3.054-.314,6.057-1.4,6.7-3.481,1.059-3.547-5.02-8.537-8.585-9.523" transform="translate(-362.149 -160.945)" fill="none" stroke="#000" stroke-linecap="round" stroke-linejoin="round" stroke-miterlimit="10" stroke-width="2"/>
        </g>
        <path id="Trazado_1034616" data-name="Trazado 1034616" d="M217.878,132.78c0-1.492,1.317-2.831,2.529-3.747a3.29,3.29,0,0,1,3.971,0c1.211.916,2.529,2.255,2.529,3.747,0,1.892-2.119,4.612-3.453,6.137a1.408,1.408,0,0,1-2.122,0C220,137.392,217.878,134.672,217.878,132.78Z" transform="translate(-201.116 -114.055)" fill="none" stroke="#000" stroke-linecap="round" stroke-linejoin="round" stroke-miterlimit="10" stroke-width="2"/>
        <line id="Línea_647" data-name="Línea 647" y2="1.343" transform="translate(14.288 11.738)" fill="none" stroke="#000" stroke-linecap="round" stroke-linejoin="round" stroke-miterlimit="10" stroke-width="2"/>
        <line id="Línea_648" data-name="Línea 648" y2="1.343" transform="translate(28.264 11.738)" fill="none" stroke="#000" stroke-linecap="round" stroke-linejoin="round" stroke-miterlimit="10" stroke-width="2"/>
        <path id="Trazado_1034617" data-name="Trazado 1034617" d="M123.608,293.109a19.84,19.84,0,0,0,3.939-11.9,24.056,24.056,0,0,0-.151-2.615,2.643,2.643,0,0,0-1.289-1.981l-4.279-2.526a1.8,1.8,0,0,0-1.795-.018l-4.874,2.743a1.8,1.8,0,0,1-1.762,0l-4.9-2.755a1.8,1.8,0,0,0-1.762,0l-4.9,2.755a1.8,1.8,0,0,1-1.762,0L95.2,274.072a1.8,1.8,0,0,0-1.794.018l-4.28,2.526a2.643,2.643,0,0,0-1.29,1.982,24.084,24.084,0,0,0-.151,2.615A19.928,19.928,0,0,0,120.8,296.16" transform="translate(-86.342 -242.294)" fill="none" stroke="#000" stroke-linecap="round" stroke-linejoin="round" stroke-miterlimit="10" stroke-width="2"/>
        <path id="Trazado_1034618" data-name="Trazado 1034618" d="M142.24,53.21a13.457,13.457,0,0,0-3.183,8.235c0,5.716,4.944,8.942,11.447,9.568" transform="translate(-131.628 -47.798)" fill="none" stroke="#000" stroke-linecap="round" stroke-linejoin="round" stroke-miterlimit="10" stroke-width="2"/>
        <path id="Trazado_1034619" data-name="Trazado 1034619" d="M201.441,30.715c6.5-.625,11.447-3.852,11.447-9.568,0-6.4-6.2-13.647-13.847-13.647a13.128,13.128,0,0,0-7.65,2.565" transform="translate(-177.765 -7.5)" fill="none" stroke="#000" stroke-linecap="round" stroke-linejoin="round" stroke-miterlimit="10" stroke-width="2"/>
        <path id="Trazado_1034620" data-name="Trazado 1034620" d="M342.454,195.532c.117-3.755-1.75-7.868-4.789-10.979" transform="translate(-306.719 -163.589)" fill="none" stroke="#000" stroke-linecap="round" stroke-linejoin="round" stroke-miterlimit="10" stroke-width="2"/>
        <path id="Trazado_1034621" data-name="Trazado 1034621" d="M138.638,184.553c-3.04,3.112-4.906,7.224-4.789,10.98" transform="translate(-127.031 -163.589)" fill="none" stroke="#000" stroke-linecap="round" stroke-linejoin="round" stroke-miterlimit="10" stroke-width="2"/>
      </g>
    </g>
  </g>
</svg>
