<svg xmlns="http://www.w3.org/2000/svg" width="86.369" height="86.369" viewBox="0 0 86.369 86.369">
  <g id="Grupo_1212020" data-name="Grupo 1212020" transform="translate(-914.738 -12574.624)">
    <g id="Grupo_1211573" data-name="Grupo 1211573" transform="translate(914.737 12574.624)">
      <g id="Grupo_1099347" data-name="Grupo 1099347" transform="translate(0 0)">
        <g id="Grupo_1099341" data-name="Grupo 1099341">
          <g id="Rectángulo_402588" data-name="Rectángulo 402588" transform="translate(0 0)" fill="#efd026" stroke="#fff" stroke-width="5">
            <rect width="86.369" height="86.369" rx="14" stroke="none"/>
            <rect x="2.5" y="2.5" width="81.369" height="81.369" rx="11.5" fill="none"/>
          </g>
        </g>
      </g>
    </g>
    <g id="gallo-galo" transform="translate(907.992 12587.459)">
      <g id="Grupo_1212018" data-name="Grupo 1212018" transform="translate(23.103 0.891)">
        <path id="Trazado_1034622" data-name="Trazado 1034622" d="M35.47,64.591a3.8,3.8,0,0,0-.919-2.039l-.493-.217a3.626,3.626,0,0,0-4.337,3.393.35.35,0,0,0,.5.359c2.082-.961,4.8.32,4.8.32l.242-.108A2.372,2.372,0,0,0,35.47,64.591Z" transform="translate(-29.718 -55.805)" fill="#ffe07d"/>
        <path id="Trazado_1034623" data-name="Trazado 1034623" d="M42.243,75.52a3.722,3.722,0,0,0-.107-.527A3.534,3.534,0,0,0,37.4,76.859a6.961,6.961,0,0,1,4.391.478l.242-.108A2.372,2.372,0,0,0,42.243,75.52Z" transform="translate(-36.491 -66.735)" fill="#ffd064"/>
        <path id="Trazado_1034624" data-name="Trazado 1034624" d="M71.188,8.882A1.11,1.11,0,0,0,69.9,7.9a7.235,7.235,0,0,1-3.015-.231,3.338,3.338,0,0,0-3.588.925,1.314,1.314,0,0,1-1.094.465,2.593,2.593,0,0,0-2.668,1.411,3.112,3.112,0,0,0,.479,3.573h.4a3.551,3.551,0,0,1,2.993-1.414,4.761,4.761,0,0,1,3.309,1.289l.713.09h0C71.189,13.994,71.4,10.783,71.188,8.882Z" transform="translate(-55.676 -7.514)" fill="#f87c68"/>
        <g id="Grupo_1212015" data-name="Grupo 1212015" transform="translate(3.491 0)">
          <g id="Grupo_1212014" data-name="Grupo 1212014">
            <path id="Trazado_1034625" data-name="Trazado 1034625" d="M63,10.687a2.593,2.593,0,0,1,2.668-1.411,1.314,1.314,0,0,0,1.094-.465A3.082,3.082,0,0,1,68.1,7.906a10.2,10.2,0,0,1-1.21-.237,3.338,3.338,0,0,0-3.588.925,1.314,1.314,0,0,1-1.094.465,2.593,2.593,0,0,0-2.668,1.411,3.112,3.112,0,0,0,.479,3.573h.4a3.426,3.426,0,0,1,2.26-1.353,3.021,3.021,0,0,1,.317-2Z" transform="translate(-59.167 -7.514)" fill="#ec625e"/>
          </g>
        </g>
        <path id="Trazado_1034626" data-name="Trazado 1034626" d="M58.966,98.648a4.361,4.361,0,0,0-1.675-2.608l-.479.108a6.024,6.024,0,0,1-1.7,3.643,2.357,2.357,0,0,0,1.449,4,4.81,4.81,0,0,0,1.114-.035l.576-.377A15.265,15.265,0,0,0,58.966,98.648Z" transform="translate(-51.511 -85.545)" fill="#f87c68"/>
        <path id="Trazado_1034627" data-name="Trazado 1034627" d="M57.032,99.822a6.189,6.189,0,0,0,.781-3.324,4.242,4.242,0,0,0-.522-.458l-.479.108a6.024,6.024,0,0,1-1.7,3.643,2.357,2.357,0,0,0,1.449,4,4.81,4.81,0,0,0,1.114-.035l.576-.377s.017-.056.045-.155A2.373,2.373,0,0,1,57.032,99.822Z" transform="translate(-51.511 -85.545)" fill="#ec625e"/>
        <path id="Trazado_1034628" data-name="Trazado 1034628" d="M201.639,414.608h-.272l-3.356.711-.119.222a29.021,29.021,0,0,1-1.558,9.23,8.077,8.077,0,0,0,1.478.163,11.889,11.889,0,0,0,1.359-.084C200.569,422.127,201.964,417.42,201.639,414.608Z" transform="translate(-176.581 -366.347)" fill="#eaae8e"/>
        <path id="Trazado_1034629" data-name="Trazado 1034629" d="M197.81,427.278h0a43.148,43.148,0,0,0,2.065-10.01l-1.868.4-.119.222a29.021,29.021,0,0,1-1.558,9.23A8.089,8.089,0,0,0,197.81,427.278Z" transform="translate(-176.58 -368.692)" fill="#e39b74"/>
        <path id="Trazado_1034630" data-name="Trazado 1034630" d="M68.409,82.845A23.152,23.152,0,0,0,64.4,81.839c-8.986-1.516-18.172-7.646-14.744-12.986a7.164,7.164,0,0,1,6.493-3.267,10.111,10.111,0,0,1,4.165.993A13.7,13.7,0,0,1,56.6,59.164c-1.362-8-2.56-11.7-6.152-11.7s-4.136,1.793-4.136,1.793a3.583,3.583,0,0,1,.962,4.073c3.868,2.309.823,8.531-1.88,12.723a10.991,10.991,0,0,0,3.336,15.284c3.623,2.267,7.81,3.113,9.626,3.885,2.346,1,3.75,4.054,4.424,5.974a1.649,1.649,0,0,0,2.141,1,.917.917,0,0,1,.707-.025.871.871,0,0,0,1.072-.445,5.657,5.657,0,0,0-.255-6.153C65.413,83.83,66.868,83.125,68.409,82.845Z" transform="translate(-41.969 -42.728)" fill="#e39b74"/>
        <g id="Grupo_1212016" data-name="Grupo 1212016" transform="translate(1.648 21.238)">
          <path id="Trazado_1034631" data-name="Trazado 1034631" d="M65.632,211.431c-.7-2.006-2.17-5.2-4.621-6.241-1.9-.807-6.271-1.69-10.055-4.058a11.464,11.464,0,0,1-4.3-14.472c-.411.73-.841,1.434-1.263,2.088a10.991,10.991,0,0,0,3.336,15.284c3.623,2.267,7.81,3.113,9.626,3.885,2.346,1,3.75,4.054,4.424,5.974a1.649,1.649,0,0,0,2.141,1,.918.918,0,0,1,.707-.025.871.871,0,0,0,1.072-.445,8.23,8.23,0,0,0,.678-1.838A1.725,1.725,0,0,1,65.632,211.431Z" transform="translate(-43.617 -186.66)" fill="#dd8858"/>
        </g>
        <path id="Trazado_1034632" data-name="Trazado 1034632" d="M256.486,59.642c-2.2,3.026-3.489,7.429-1.945,13.76l.409.526,8.569,3.418.832-.139a8.289,8.289,0,0,1,8.182,3.543.414.414,0,0,0,.745-.269,10.409,10.409,0,0,0-3-7,.548.548,0,0,1,.527-.916,13.514,13.514,0,0,1,5.833,3.411.413.413,0,0,0,.7-.256,9.473,9.473,0,0,0-5.081-9.416.547.547,0,0,1,.135-1.009,8.864,8.864,0,0,1,7.866,2.235.415.415,0,0,0,.688-.336A13.494,13.494,0,0,0,256.486,59.642Z" transform="translate(-227.292 -48.515)" fill="#5895b7"/>
        <path id="Trazado_1034633" data-name="Trazado 1034633" d="M263.3,63.548a13.549,13.549,0,0,1,14.042-5.272,13.58,13.58,0,0,0-20.854,1.372c-2.2,3.026-3.489,7.429-1.945,13.76l.409.526,6.2,2.474C259.937,70.558,261.2,66.429,263.3,63.548Z" transform="translate(-227.292 -48.522)" fill="#477b9e"/>
        <path id="Trazado_1034634" data-name="Trazado 1034634" d="M122.21,212.626a11.969,11.969,0,0,0-5.333-7.6.414.414,0,0,1,.081-.751,6.669,6.669,0,0,1,1.319-.286.415.415,0,0,0,.149-.782,12.734,12.734,0,0,0-8.256-1.266c-4.907,1.043-4.106,3.2-9.389-.059a10.276,10.276,0,0,0-5.212-1.56,7.164,7.164,0,0,0-6.493,3.267c-3.428,5.339,5.758,11.469,14.744,12.986,6.452,1.089,7.9,3.265,8.2,4.405a.414.414,0,0,0,.708.171,4.434,4.434,0,0,0,1.152-2.873.413.413,0,0,1,.638-.328,6.821,6.821,0,0,1,2.835,3.151.413.413,0,0,0,.676.167,6.643,6.643,0,0,0,1.577-7.4.414.414,0,0,1,.225-.515,3.515,3.515,0,0,1,1.913-.232.414.414,0,0,0,.465-.5Z" transform="translate(-81.393 -177.467)" fill="#dd8858"/>
        <g id="Grupo_1212017" data-name="Grupo 1212017" transform="translate(6.95 24.696)">
          <path id="Trazado_1034635" data-name="Trazado 1034635" d="M113.746,232.1c-.3-1.141-1.748-3.317-8.2-4.405-8.364-1.411-16.9-6.82-15.276-11.868a7.274,7.274,0,0,0-1.192,1.43c-3.428,5.339,5.758,11.469,14.744,12.986,6.452,1.089,7.9,3.265,8.2,4.405a.414.414,0,0,0,.708.171,4.4,4.4,0,0,0,1.125-2.529A.411.411,0,0,1,113.746,232.1Z" transform="translate(-88.344 -215.83)" fill="#cb6c35"/>
          <path id="Trazado_1034636" data-name="Trazado 1034636" d="M315.92,330.2a6.82,6.82,0,0,0-2.835-3.151.414.414,0,0,0-.638.328,4.479,4.479,0,0,1-.789,2.418,6.457,6.457,0,0,1,2.537,2.953.413.413,0,0,0,.676.167,6.629,6.629,0,0,0,1.666-2.5A.412.412,0,0,1,315.92,330.2Z" transform="translate(-285.184 -313.808)" fill="#cb6c35"/>
        </g>
      </g>
      <g id="Grupo_1212019" data-name="Grupo 1212019" transform="translate(22.214 0)">
        <path id="Trazado_1034637" data-name="Trazado 1034637" d="M22.226,10.692A1.24,1.24,0,0,0,23.98,11.98a5,5,0,0,1,3.436.084,5.331,5.331,0,0,1-1.346,2.453,3.242,3.242,0,0,0-.72,3.406A3.2,3.2,0,0,0,27.9,20a34.448,34.448,0,0,1-2.121,3.74,11.891,11.891,0,0,0-1.629,9.1c1.929,8.649,11.405,9.848,14.99,11.372,2.066.879,3.351,3.792,3.933,5.45a2.549,2.549,0,0,0,.479.825,31.213,31.213,0,0,1-1.264,7.8,26.837,26.837,0,0,1-3.468-1.167.89.89,0,0,0-.883.107l-2.057,1.545a.889.889,0,0,0,1.068,1.422L38.6,58.944a18.4,18.4,0,0,0,5.732,1.421,16.6,16.6,0,0,0,4.262-.648l.612.684a.889.889,0,1,0,1.326-1.185l-.989-1.106a.889.889,0,0,0-.945-.25c-.011,0-.574.19-1.4.373,1.169-2.827,2.071-6.485,1.863-8.956a6.36,6.36,0,0,0-.726-5.992c-.189-.321-.262-.585-.2-.722.084-.184.482-.45,1.324-.634,2.718,1.041,3.289,2.26,3.407,2.7a1.3,1.3,0,0,0,2.223.544,5.252,5.252,0,0,0,1.293-2.606,5.088,5.088,0,0,1,1.83,2.231,1.3,1.3,0,0,0,2.131.54,7.475,7.475,0,0,0,1.956-7.88,2.839,2.839,0,0,1,1.026-.032,1.3,1.3,0,0,0,1.454-1.582h0a13.964,13.964,0,0,0-2.636-5.478,7.758,7.758,0,0,1,5.482,3.285,1.3,1.3,0,0,0,2.347-.844A11.4,11.4,0,0,0,67.574,26.2a12.888,12.888,0,0,1,4.248,2.79,1.3,1.3,0,0,0,2.213-.812,10.3,10.3,0,0,0-4.752-9.792,8.189,8.189,0,0,1,6.2,2.194,1.3,1.3,0,0,0,2.162-1.058c-.475-7.866-5.8-12.91-12.224-13.846a.889.889,0,1,0-.256,1.76,12.365,12.365,0,0,1,10.6,11.1,9.339,9.339,0,0,0-7.774-1.722,1.437,1.437,0,0,0-.357,2.651A8.575,8.575,0,0,1,72.3,27.014a14.205,14.205,0,0,0-5.456-2.929,1.437,1.437,0,0,0-1.387,2.4,9.338,9.338,0,0,1,2.564,4.893,8.785,8.785,0,0,0-7.594-2.738c-.112-.091-.3-.237-.432-.332a1.305,1.305,0,0,0,.543-2.47,15.2,15.2,0,0,0-4.251-1.41c-1.624-6.23,1.2-9.82,1.325-9.979a.889.889,0,0,0-1.374-1.129c-.144.175-3.339,4.154-1.825,10.927a12,12,0,0,0-3.4.41C48.881,14.314,55.031,8.441,61.28,7.454A.889.889,0,0,0,61,5.7c-7.287,1.152-14.142,8.04-11.691,19.508-2.021.783-1.957,1.029-3.234.878-1.282-.272-2.971-1.518-4.1-2.073a12.823,12.823,0,0,1-3.4-7.021.889.889,0,1,0-1.753.3,15.429,15.429,0,0,0,2.126,5.727c-3.466-.6-6.905.4-8.909,3.519-2.743,4.273,1.288,8.479,5.717,10.975a34.138,34.138,0,0,0,11.215,3.68,2.324,2.324,0,0,0-.163,3,4.792,4.792,0,0,1,.227,5.3,1.8,1.8,0,0,0-1.324.047.761.761,0,0,1-.963-.473c-.829-2.364-2.355-5.409-4.915-6.5-3.827-1.628-12.268-2.579-13.95-10.123A10.125,10.125,0,0,1,27.273,24.7c2.608-4.045,5.919-10.5,2.191-13.547a4.375,4.375,0,0,0-.88-3.815,4.676,4.676,0,0,1,2.995-.82,3,3,0,0,1,2.613,1.452,16.073,16.073,0,0,1,1.842,5.217.889.889,0,1,0,1.736-.387A22.415,22.415,0,0,0,36.292,8.11,4.016,4.016,0,0,0,38.383,6.89,6.134,6.134,0,0,0,39.5,2.162,2,2,0,0,0,37.177.4,6.384,6.384,0,0,1,34.535.184a4.2,4.2,0,0,0-4.48,1.2.432.432,0,0,1-.351.161,3.474,3.474,0,0,0-3.529,1.89,3.909,3.909,0,0,0-.249,3.128,4.393,4.393,0,0,0-3.7,4.125ZM47.353,39.455a32.655,32.655,0,0,1-10.724-3.493c-3.35-1.888-7.17-5.229-5.093-8.465,2.278-3.548,7.031-3.562,10.489-1.43a13.346,13.346,0,0,0,3.634,1.738,19.3,19.3,0,0,1,8.09,8.561.889.889,0,0,0,1.624-.725,20.458,20.458,0,0,0-6.874-8.16c2.263-.936,5.24-2.408,9.921-.632l-.025.008a1.3,1.3,0,0,0-.254,2.366,10.737,10.737,0,0,1,4.748,6.4,4.24,4.24,0,0,0-1.706.347,1.31,1.31,0,0,0-.705,1.621,5.787,5.787,0,0,1-.869,5.954,8.349,8.349,0,0,0-2.9-2.914A1.3,1.3,0,0,0,54.7,41.671a3.662,3.662,0,0,1-.453,1.66c-1.207-2.215-4.424-3.315-6.9-3.876ZM45.3,51.352a2.583,2.583,0,0,0,1.132-.186,2,2,0,0,0,.824.1,24.8,24.8,0,0,1-2.136,7.294,8.262,8.262,0,0,1-1.059.023,34.421,34.421,0,0,0,1.24-7.226ZM28.922,13.225c.824,1.416.289,3.5-.282,5.035a1.5,1.5,0,0,1-1.622-.953,1.458,1.458,0,0,1,.329-1.552A7.063,7.063,0,0,0,28.922,13.225Zm-1.167-8.97a1.663,1.663,0,0,1,1.806-.933A2.216,2.216,0,0,0,31.4,2.553a2.49,2.49,0,0,1,2.7-.646,8.181,8.181,0,0,0,3.388.245.221.221,0,0,1,.249.2,4.606,4.606,0,0,1-.675,3.351,2.546,2.546,0,0,1-1.768.773,4.664,4.664,0,0,0-4.17-1.73,6.116,6.116,0,0,0-3.56,1.113,2.162,2.162,0,0,1,.2-1.606Zm-.7,4.026a2.711,2.711,0,0,1,.755,2.041,7.308,7.308,0,0,0-3.613-.273,2.571,2.571,0,0,1,2.858-1.768Z" transform="translate(-22.214 0)"/>
        <path id="Trazado_1034638" data-name="Trazado 1034638" d="M94.609,69.707a.889.889,0,0,0,0,1.778H95a.889.889,0,1,0,0-1.778Z" transform="translate(-85.243 -61.443)"/>
      </g>
    </g>
  </g>
</svg>
