<svg xmlns="http://www.w3.org/2000/svg" width="90" height="90" viewBox="0 0 90 90">
  <g id="Grupo_1212053" data-name="Grupo 1212053" transform="translate(-201.051 -12929)">
    <g id="Grupo_1111411" data-name="Grupo 1111411" transform="translate(201.051 12929)">
      <circle id="Elipse_11588" data-name="Elipse 11588" cx="45" cy="45" r="45" fill="#f4c5c5"/>
    </g>
    <g id="cow_5863676" transform="translate(212.93 12950.688)">
      <g id="Grupo_1212051" data-name="Grupo 1212051" transform="translate(1.606 1.06)">
        <g id="Grupo_1212027" data-name="Grupo 1212027" transform="translate(4.238 38.145)">
          <path id="Trazado_1034656" data-name="Trazado 1034656" d="M5.516,37h25.43v4.238H5.516Z" transform="translate(-5.516 -37)" fill="#dfb28b"/>
        </g>
        <g id="Grupo_1212028" data-name="Grupo 1212028" transform="translate(33.907 38.145)">
          <path id="Trazado_1034657" data-name="Trazado 1034657" d="M33.516,37h25.43v4.238H33.516Z" transform="translate(-33.516 -37)" fill="#dfb28b"/>
        </g>
        <g id="Grupo_1212029" data-name="Grupo 1212029" transform="translate(33.907 29.669)">
          <path id="Trazado_1034658" data-name="Trazado 1034658" d="M58.946,29v4.238H33.516V29h25.43Z" transform="translate(-33.516 -29)" fill="#dfb28b"/>
        </g>
        <g id="Grupo_1212030" data-name="Grupo 1212030" transform="translate(4.238 29.669)">
          <path id="Trazado_1034659" data-name="Trazado 1034659" d="M30.946,29v4.238H5.516V29h25.43Z" transform="translate(-5.516 -29)" fill="#dfb28b"/>
        </g>
        <g id="Grupo_1212031" data-name="Grupo 1212031" transform="translate(59.337 27.549)">
          <path id="Trazado_1034660" data-name="Trazado 1034660" d="M61.754,28.06V42.894a1.063,1.063,0,0,1-1.06,1.06H58.576a1.063,1.063,0,0,1-1.06-1.06V28.06A1.063,1.063,0,0,1,58.576,27h2.119A1.063,1.063,0,0,1,61.754,28.06Z" transform="translate(-57.516 -27)" fill="#d3a06c"/>
        </g>
        <g id="Grupo_1212032" data-name="Grupo 1212032" transform="translate(29.669 27.549)">
          <path id="Trazado_1034661" data-name="Trazado 1034661" d="M33.754,41.834v1.06a1.063,1.063,0,0,1-1.06,1.06H30.576a1.063,1.063,0,0,1-1.06-1.06V28.06A1.063,1.063,0,0,1,30.576,27h2.119a1.063,1.063,0,0,1,1.06,1.06V41.834Z" transform="translate(-29.516 -27)" fill="#d3a06c"/>
        </g>
        <g id="Grupo_1212033" data-name="Grupo 1212033" transform="translate(0 27.549)">
          <path id="Trazado_1034662" data-name="Trazado 1034662" d="M5.754,41.834v1.06a1.063,1.063,0,0,1-1.06,1.06H2.576a1.063,1.063,0,0,1-1.06-1.06V28.06A1.063,1.063,0,0,1,2.576,27H4.695a1.063,1.063,0,0,1,1.06,1.06V41.834Z" transform="translate(-1.516 -27)" fill="#d3a06c"/>
        </g>
        <g id="Grupo_1212034" data-name="Grupo 1212034" transform="translate(33.515 9.536)">
          <path id="Trazado_1034663" data-name="Trazado 1034663" d="M60.293,16.9a9.513,9.513,0,0,1,.795,3.8v7.311h-1.06a1.063,1.063,0,0,0-1.06,1.06v1.06H38.836l.911-1.812a10.164,10.164,0,0,1,3.465-3.931A2.071,2.071,0,0,0,42.068,20.6h-.254a2.078,2.078,0,0,0-1.462.6l-.212.212a4.434,4.434,0,0,1-5.595.562l-1.4-.932c2.14-.742,3.571-2.087,3.571-3.624a3.028,3.028,0,0,0-1.06-2.183V12.119L40.955,10l4.355.456.54,2.162a3.06,3.06,0,0,0,1.992,2.151,3.06,3.06,0,0,1,1.992,2.151l.106.392a2.914,2.914,0,0,0,2.84,2.225,2.975,2.975,0,0,0,1.632-.487l1.324-.89a4.384,4.384,0,0,1,2.458-.742,4.447,4.447,0,0,0,2.087-.519Z" transform="translate(-33.146 -10)" fill="#969faa"/>
        </g>
        <g id="Grupo_1212035" data-name="Grupo 1212035" transform="translate(15.502 13.775)">
          <path id="Trazado_1034664" data-name="Trazado 1034664" d="M23.955,15a3.01,3.01,0,0,0-1.06,2.183c0,2.342,3.317,4.238,7.417,4.238l2.119,6.358h-1.06a1.063,1.063,0,0,0-1.06,1.06v1.06H24.432a10.539,10.539,0,0,1,1.78-1.5A2.071,2.071,0,0,0,25.068,24.6h-.254a2.078,2.078,0,0,0-1.462.6l-.212.212a4.434,4.434,0,0,1-5.595.562l-1.4-.932c2.14-.742,3.571-2.087,3.571-3.624a3.028,3.028,0,0,0-1.06-2.183V16.119L23.955,14Z" transform="translate(-16.146 -14)" fill="#969faa"/>
        </g>
        <g id="Grupo_1212036" data-name="Grupo 1212036" transform="translate(31.247)">
          <path id="Trazado_1034665" data-name="Trazado 1034665" d="M35.785,2.356V7.389a6.44,6.44,0,0,0-.646-.032h-.975c-.085-.085-.159-.17-.244-.254A6.268,6.268,0,0,0,31.006,5.44l2.268-3.783a1.352,1.352,0,0,1,2.511.7Z" transform="translate(-31.006 -1)" fill="#aab2bd"/>
        </g>
        <g id="Grupo_1212037" data-name="Grupo 1212037" transform="translate(34.405 6.358)">
          <path id="Trazado_1034666" data-name="Trazado 1034666" d="M35.607,7.032a7.151,7.151,0,0,1,5.3,3.147l-5.3,2.119v-1.06A6.327,6.327,0,0,0,33.986,7h.975A6.44,6.44,0,0,1,35.607,7.032Z" transform="translate(-33.986 -7)" fill="#aab2bd"/>
        </g>
        <g id="Grupo_1212038" data-name="Grupo 1212038" transform="translate(23.311 0)">
          <path id="Trazado_1034667" data-name="Trazado 1034667" d="M24.162,7.358a6.44,6.44,0,0,0-.646.032V2.356a1.352,1.352,0,0,1,2.511-.7L28.295,5.44a6.363,6.363,0,0,0-3.158,1.918Z" transform="translate(-23.516 -1)" fill="#aab2bd"/>
        </g>
        <g id="Grupo_1212039" data-name="Grupo 1212039" transform="translate(18.013 6.358)">
          <path id="Trazado_1034668" data-name="Trazado 1034668" d="M24.46,7h.975a6.327,6.327,0,0,0-1.621,4.238V12.3l-5.3-2.119a7.151,7.151,0,0,1,5.3-3.147A6.44,6.44,0,0,1,24.46,7Z" transform="translate(-18.516 -7)" fill="#aab2bd"/>
        </g>
        <g id="Grupo_1212040" data-name="Grupo 1212040" transform="translate(13.234 4.238)">
          <path id="Trazado_1034669" data-name="Trazado 1034669" d="M18.785,10.3v1.091a6.44,6.44,0,0,0-.646-.032h-.975c-.085-.085-.159-.17-.244-.254A21.169,21.169,0,0,0,14.006,9.44l2.268-3.783a1.352,1.352,0,0,1,2.511.7Z" transform="translate(-14.006 -5)" fill="#aab2bd"/>
        </g>
        <g id="Grupo_1212041" data-name="Grupo 1212041" transform="translate(5.298 4.238)">
          <path id="Trazado_1034670" data-name="Trazado 1034670" d="M11.295,9.44a6.363,6.363,0,0,0-3.158,1.918H7.162a6.44,6.44,0,0,0-.646.032V6.356a1.352,1.352,0,0,1,2.511-.7Z" transform="translate(-6.516 -5)" fill="#aab2bd"/>
        </g>
        <g id="Grupo_1212042" data-name="Grupo 1212042" transform="translate(0 10.596)">
          <path id="Trazado_1034671" data-name="Trazado 1034671" d="M7.46,11h.975a6.327,6.327,0,0,0-1.621,4.238V16.3l-5.3-2.119a7.151,7.151,0,0,1,5.3-3.147A6.44,6.44,0,0,1,7.46,11Z" transform="translate(-1.516 -11)" fill="#aab2bd"/>
        </g>
        <g id="Grupo_1212043" data-name="Grupo 1212043" transform="translate(16.392 10.596)">
          <path id="Trazado_1034672" data-name="Trazado 1034672" d="M18.607,11.032a7.151,7.151,0,0,1,5.3,3.147l-5.3,2.119v-1.06A6.327,6.327,0,0,0,16.986,11h.975A6.44,6.44,0,0,1,18.607,11.032Z" transform="translate(-16.986 -11)" fill="#aab2bd"/>
        </g>
        <g id="Grupo_1212044" data-name="Grupo 1212044" transform="translate(23.311 4.238)">
          <path id="Trazado_1034673" data-name="Trazado 1034673" d="M31.452,5.2a6.268,6.268,0,0,1,2.914,1.664c.085.085.159.17.244.254a6.327,6.327,0,0,1,1.621,4.238v4.175a9.482,9.482,0,0,0-6.358-2.056,9.482,9.482,0,0,0-6.358,2.056V11.358A6.358,6.358,0,0,1,28.295,5.2,6.029,6.029,0,0,1,29.874,5Z" transform="translate(-23.516 -5)" fill="#ccd1d9"/>
        </g>
        <g id="Grupo_1212045" data-name="Grupo 1212045" transform="translate(5.298 8.477)">
          <path id="Trazado_1034674" data-name="Trazado 1034674" d="M14.452,9.2a21.17,21.17,0,0,1,2.914,1.664c.085.085.159.17.244.254a6.327,6.327,0,0,1,1.621,4.238v4.175a9.482,9.482,0,0,0-6.358-2.056,9.482,9.482,0,0,0-6.358,2.056V15.358A6.358,6.358,0,0,1,11.295,9.2,6.029,6.029,0,0,1,12.874,9Z" transform="translate(-6.516 -9)" fill="#ccd1d9"/>
        </g>
        <g id="Grupo_1212046" data-name="Grupo 1212046" transform="translate(22.251 12.715)">
          <path id="Trazado_1034675" data-name="Trazado 1034675" d="M36.291,15.056a3.028,3.028,0,0,1,1.06,2.183c0,1.536-1.43,2.882-3.571,3.624a11.666,11.666,0,0,1-3.846.615c-4.1,0-7.417-1.9-7.417-4.238a3.01,3.01,0,0,1,1.06-2.183A9.482,9.482,0,0,1,29.933,13a9.482,9.482,0,0,1,6.358,2.056Z" transform="translate(-22.516 -13)" fill="#aab2bd"/>
        </g>
        <g id="Grupo_1212047" data-name="Grupo 1212047" transform="translate(4.238 16.954)">
          <path id="Trazado_1034676" data-name="Trazado 1034676" d="M19.291,19.056a3.028,3.028,0,0,1,1.06,2.183c0,1.536-1.43,2.882-3.571,3.624a11.666,11.666,0,0,1-3.846.615c-4.1,0-7.417-1.9-7.417-4.238a3.028,3.028,0,0,1,1.06-2.183A9.482,9.482,0,0,1,12.933,17a9.482,9.482,0,0,1,6.358,2.056Z" transform="translate(-5.516 -17)" fill="#aab2bd"/>
        </g>
        <g id="Grupo_1212048" data-name="Grupo 1212048" transform="translate(45.679 9.992)">
          <path id="Trazado_1034677" data-name="Trazado 1034677" d="M51.863,11.193a9.547,9.547,0,0,1,7.746,5.679H59.6a4.447,4.447,0,0,1-2.087.519,4.384,4.384,0,0,0-2.458.742l-1.324.89a2.975,2.975,0,0,1-1.632.487,2.914,2.914,0,0,1-2.84-2.225l-.106-.392a3.06,3.06,0,0,0-1.992-2.151,3.06,3.06,0,0,1-1.992-2.151l-.54-2.162Z" transform="translate(-44.626 -10.43)" fill="#e6e9ed"/>
        </g>
        <g id="Grupo_1212049" data-name="Grupo 1212049" transform="translate(29.669 20.132)">
          <path id="Trazado_1034678" data-name="Trazado 1034678" d="M42.284,20a2.071,2.071,0,0,1,1.144,3.793,10.164,10.164,0,0,0-3.465,3.931l-.911,1.812h-5.3v-1.06a1.063,1.063,0,0,0-1.06-1.06h-1.06L29.516,21.06a11.666,11.666,0,0,0,3.846-.615l1.4.932a4.434,4.434,0,0,0,5.595-.562l.212-.212A2.078,2.078,0,0,1,42.03,20Z" transform="translate(-29.516 -20)" fill="#e6e9ed"/>
        </g>
        <g id="Grupo_1212050" data-name="Grupo 1212050" transform="translate(11.656 24.371)">
          <path id="Trazado_1034679" data-name="Trazado 1034679" d="M20.219,26.119a4.427,4.427,0,0,0,3.136-1.3l.212-.212A2.078,2.078,0,0,1,25.03,24h.254a2.071,2.071,0,0,1,1.144,3.793,10.539,10.539,0,0,0-1.78,1.5H13.925L12.516,25.06a11.666,11.666,0,0,0,3.846-.615l1.4.932a4.384,4.384,0,0,0,2.458.742Z" transform="translate(-12.516 -24)" fill="#e6e9ed"/>
        </g>
      </g>
      <g id="Grupo_1212052" data-name="Grupo 1212052" transform="translate(0 0)">
        <path id="Trazado_1034680" data-name="Trazado 1034680" d="M64.122,27.549V21.3a10.573,10.573,0,0,0-9.487-10.538L43.494,9.589a8.153,8.153,0,0,0-4.8-3.041V2.413A2.413,2.413,0,0,0,34.21,1.171L32.321,4.32a7.567,7.567,0,0,0-1.046-.082,7.394,7.394,0,0,0-1.046.083L28.34,1.173a2.412,2.412,0,0,0-4.482,1.24V6.548a8.163,8.163,0,0,0-3.179,1.429V6.651A2.413,2.413,0,0,0,16.2,5.409L14.308,8.558a7.568,7.568,0,0,0-1.046-.082,7.394,7.394,0,0,0-1.046.083L10.326,5.41A2.412,2.412,0,0,0,5.845,6.651v4.136a8.167,8.167,0,0,0-5.12,3.46L0,15.333l5.845,2.337v1.983a3.9,3.9,0,0,0-1.06,2.6c0,2.808,3.327,5.038,7.705,5.275l.714,2.142H6.9a2.121,2.121,0,0,0-2.119-2.119H2.666A2.121,2.121,0,0,0,.547,29.669V44.5a2.121,2.121,0,0,0,2.119,2.119H4.785A2.121,2.121,0,0,0,6.9,44.5H30.215a2.121,2.121,0,0,0,2.119,2.119h2.119A2.121,2.121,0,0,0,36.573,44.5H59.884A2.121,2.121,0,0,0,62,46.622h2.119A2.121,2.121,0,0,0,66.242,44.5V29.669A2.122,2.122,0,0,0,64.122,27.549Zm-3.359-10.67a3.351,3.351,0,0,1-.6.074,5.469,5.469,0,0,0-3.046.923l-1.324.883a1.874,1.874,0,0,1-2.856-1.1l-.1-.393a4.094,4.094,0,0,0-2.688-2.9,1.985,1.985,0,0,1-1.3-1.406l-.172-.687,5.737.6a8.453,8.453,0,0,1,6.349,4.008Zm-22.1-5.72a7.344,7.344,0,0,0-.654-2.585,6.053,6.053,0,0,1,3.17,1.578ZM35.928,23.448a5.491,5.491,0,0,0,6.931-.687l.214-.214a1.022,1.022,0,0,1,.715-.3h.25A1.011,1.011,0,0,1,44.6,24.1a11.291,11.291,0,0,0-3.829,4.338l-.614,1.227H36.572a2.121,2.121,0,0,0-2.119-2.119h-.3l-1.439-4.318a12.386,12.386,0,0,0,2.235-.434Zm.645,12.578H59.884v2.119H36.573Zm0-2.119V31.788H59.884v2.119Zm-6.358-4.238H28.269a3.119,3.119,0,0,0-2.243-5.3h-.25a3.11,3.11,0,0,0-2.213.917l-.214.214a3.433,3.433,0,0,1-4.076.519,4.576,4.576,0,0,0,2.467-3.769,3.9,3.9,0,0,0-1.06-2.6V17.671l2.373-.949a3.559,3.559,0,0,0-.254,1.292c0,2.808,3.327,5.038,7.705,5.275l1.434,4.3A2.12,2.12,0,0,0,30.215,29.669ZM20.654,15.4A7.344,7.344,0,0,0,20,12.813a6.053,6.053,0,0,1,3.17,1.578Zm10.621,5.794c-3.747,0-6.358-1.675-6.358-3.179s2.611-3.179,6.358-3.179,6.358,1.675,6.358,3.179S35.022,21.192,31.275,21.192ZM36.027,2.261a.305.305,0,0,1,.546.152V6.358h-.118a7.456,7.456,0,0,0-2.039-1.411Zm.546,9.394v2.2a12.063,12.063,0,0,0-5.3-1.138,12.063,12.063,0,0,0-5.3,1.138v-2.2a5.3,5.3,0,1,1,10.6,0ZM26.522,2.262l1.611,2.685a7.446,7.446,0,0,0-2.039,1.41h-.118V2.413a.3.3,0,0,1,.546-.15ZM24.536,8.575a7.367,7.367,0,0,0-.654,2.585l-2.517-1.007A6.031,6.031,0,0,1,24.536,8.575ZM18.014,6.5a.305.305,0,0,1,.546.152v3.624l-.177.266A7.451,7.451,0,0,0,16.4,9.185Zm.546,9.394v2.2a12.063,12.063,0,0,0-5.3-1.138,12.063,12.063,0,0,0-5.3,1.138v-2.2a5.3,5.3,0,0,1,10.6,0ZM8.509,6.5l1.611,2.685A7.446,7.446,0,0,0,8.08,10.6H7.964V6.651a.3.3,0,0,1,.545-.15ZM6.523,12.814A7.367,7.367,0,0,0,5.869,15.4L3.353,14.392a6.031,6.031,0,0,1,3.17-1.579ZM6.9,22.251c0-1.5,2.611-3.179,6.358-3.179s6.358,1.675,6.358,3.179-2.611,3.179-6.358,3.179S6.9,23.755,6.9,22.251Zm7.8,5.219a12.387,12.387,0,0,0,2.235-.434l.975.648A5.486,5.486,0,0,0,24.845,27l.214-.214a1.022,1.022,0,0,1,.715-.3h.25a1.011,1.011,0,0,1,.561,1.852,11.238,11.238,0,0,0-1.611,1.327H15.436Zm15.51,4.318v2.119H6.9V31.788Zm0,4.238v2.119H6.9V36.026ZM2.666,44.5V29.669H4.785l0,14.834ZM6.9,42.384V40.265H30.215v2.119ZM32.335,44.5V29.669h2.119l0,14.834Zm4.238-2.119V40.265H59.884v2.119ZM59.884,29.669H42.526l.14-.28a9.171,9.171,0,0,1,3.11-3.522,3.13,3.13,0,0,0-1.737-5.735h-.25a3.11,3.11,0,0,0-2.213.917l-.214.214a3.436,3.436,0,0,1-4.076.52,4.577,4.577,0,0,0,2.468-3.77,3.9,3.9,0,0,0-1.06-2.6V13.432l4.388-1.756,3.356.353.358,1.437a4.094,4.094,0,0,0,2.688,2.9,1.981,1.981,0,0,1,1.3,1.405l.1.393a3.992,3.992,0,0,0,6.088,2.354l1.323-.883a3.363,3.363,0,0,1,1.87-.566,5.5,5.5,0,0,0,1.479-.211A8.507,8.507,0,0,1,62,21.3v6.249a2.121,2.121,0,0,0-2.119,2.119ZM62,44.5V29.669h2.119l0,14.834Z" transform="translate(0 0)"/>
        <circle id="Elipse_12171" data-name="Elipse 12171" cx="1.06" cy="1.06" r="1.06" transform="translate(27.037 9.536)"/>
        <circle id="Elipse_12172" data-name="Elipse 12172" cx="1.06" cy="1.06" r="1.06" transform="translate(28.096 16.954)"/>
        <circle id="Elipse_12173" data-name="Elipse 12173" cx="1.06" cy="1.06" r="1.06" transform="translate(32.335 16.954)"/>
        <circle id="Elipse_12174" data-name="Elipse 12174" cx="1.06" cy="1.06" r="1.06" transform="translate(33.394 9.536)"/>
        <circle id="Elipse_12175" data-name="Elipse 12175" cx="1.06" cy="1.06" r="1.06" transform="translate(9.024 13.775)"/>
        <circle id="Elipse_12176" data-name="Elipse 12176" cx="1.06" cy="1.06" r="1.06" transform="translate(10.083 21.192)"/>
        <circle id="Elipse_12177" data-name="Elipse 12177" cx="1.06" cy="1.06" r="1.06" transform="translate(14.321 21.192)"/>
        <circle id="Elipse_12178" data-name="Elipse 12178" cx="1.06" cy="1.06" r="1.06" transform="translate(15.381 13.775)"/>
      </g>
    </g>
  </g>
</svg>
