<svg xmlns="http://www.w3.org/2000/svg" width="86.369" height="86.369" viewBox="0 0 86.369 86.369">
  <g id="Grupo_1212105" data-name="Grupo 1212105" transform="translate(6589 -3459.779)">
    <g id="Grupo_1211587" data-name="Grupo 1211587" transform="translate(5091.5 15362.129)">
      <g id="Grupo_1099347" data-name="Grupo 1099347" transform="translate(-11585.5 -12119)">
        <g id="Grupo_1099341" data-name="Grupo 1099341" transform="translate(-95 216.65)">
          <g id="Rectángulo_402588" data-name="Rectángulo 402588" transform="translate(0 0)" fill="#f4c5c5" stroke="#fff" stroke-width="5">
            <rect width="86.369" height="86.369" rx="14" stroke="none"/>
            <rect x="2.5" y="2.5" width="81.369" height="81.369" rx="11.5" fill="none"/>
          </g>
        </g>
      </g>
    </g>
    <g id="truck_1681704" transform="translate(-6573.339 3476.945)">
      <path id="Trazado_1035905" data-name="Trazado 1035905" d="M432,248.5h4.64v4.64H432Zm0,0" transform="translate(-381.89 -219.233)" fill="#ff3051"/>
      <path id="Trazado_1035906" data-name="Trazado 1035906" d="M303.775,114.131H291.712V101.14H288V96.5h9.827a3.7,3.7,0,0,1,3.276,1.986l8.24,15.645Zm0,0" transform="translate(-254.593 -84.864)" fill="#57a4ff"/>
      <path id="Trazado_1035907" data-name="Trazado 1035907" d="M340.991,327a6.5,6.5,0,1,1-6.5-6.5A6.5,6.5,0,0,1,340.991,327Zm0,0" transform="translate(-289.954 -282.881)" fill="#c0ab91"/>
      <path id="Trazado_1035908" data-name="Trazado 1035908" d="M371.712,362.356a1.856,1.856,0,1,1-1.856-1.856A1.856,1.856,0,0,1,371.712,362.356Zm0,0" transform="translate(-325.314 -318.242)" fill="#898890"/>
      <path id="Trazado_1035909" data-name="Trazado 1035909" d="M288,136.5h3.712v12.992H288Zm0,0" transform="translate(-254.593 -120.225)" fill="#898890"/>
      <path id="Trazado_1035910" data-name="Trazado 1035910" d="M36.767,64.5V83.987H8V64.5Zm0,0" transform="translate(-7.072 -56.576)" fill="#57a4ff"/>
      <path id="Trazado_1035911" data-name="Trazado 1035911" d="M57.182,62.195v-4.64h-16.7V32.5H8v3.712H36.767V55.7H8V72.4h3.712a6.5,6.5,0,0,1,12.992,0H45.119a6.5,6.5,0,1,1,12.991,0h3.712V62.195Zm0,0" transform="translate(-7.072 -28.288)" fill="#c6c5ca"/>
      <path id="Trazado_1035912" data-name="Trazado 1035912" d="M52.992,327a6.5,6.5,0,1,1-6.5-6.5A6.5,6.5,0,0,1,52.992,327Zm0,0" transform="translate(-35.36 -282.881)" fill="#c0ab91"/>
      <path id="Trazado_1035913" data-name="Trazado 1035913" d="M83.712,362.356a1.856,1.856,0,1,1-1.856-1.856A1.856,1.856,0,0,1,83.712,362.356Zm0,0" transform="translate(-70.721 -318.242)" fill="#898890"/>
      <path id="Trazado_1035914" data-name="Trazado 1035914" d="M74.784,352.5a2.784,2.784,0,1,0,2.784,2.784A2.784,2.784,0,0,0,74.784,352.5Zm0,3.712a.928.928,0,1,1,.928-.928A.928.928,0,0,1,74.784,356.212Zm0,0" transform="translate(-63.648 -311.17)"/>
      <path id="Trazado_1035915" data-name="Trazado 1035915" d="M55.561,50.056l.01-.005L47.335,34.4a4.628,4.628,0,0,0-4.106-2.479H34.334v-6.5a.928.928,0,0,0-.928-.928H.928A.928.928,0,0,0,0,25.428v39.9a.928.928,0,0,0,.928.928H3.776a7.417,7.417,0,0,0,14.72,0H37.182a7.417,7.417,0,0,0,14.72,0H54.75a.928.928,0,0,0,.928-.928V50.483a.9.9,0,0,0-.117-.427Zm-4.523,1.355h2.784v2.784H51.038ZM43.229,33.78a2.778,2.778,0,0,1,2.464,1.485l7.516,14.291H49.563l-3.991-3.99,1.543-1.928-1.449-1.16-3.712,4.64,1.449,1.16,1-1.253,2.536,2.532h-8.9V37.492a.928.928,0,0,0-.928-.928H34.335V33.78Zm-8.895,4.64H36.19V49.555H34.334ZM1.856,30.068H28.767V47.7H1.856Zm9.28,40.83A5.568,5.568,0,1,1,16.7,65.331,5.568,5.568,0,0,1,11.135,70.9Zm33.407,0a5.568,5.568,0,1,1,5.568-5.568A5.568,5.568,0,0,1,44.542,70.9Zm7.36-6.5a7.417,7.417,0,0,0-14.72,0H18.5a7.417,7.417,0,0,0-14.72,0H1.856v-9.28H20.415V53.267H1.856V49.555H29.695a.928.928,0,0,0,.928-.928V29.14a.928.928,0,0,0-.928-.928H1.856V26.356H32.479V50.483a.928.928,0,0,0,.928.928H49.182v3.712a.928.928,0,0,0,.928.928h3.712V64.4Zm0,0" transform="translate(0 -21.216)"/>
      <path id="Trazado_1035916" data-name="Trazado 1035916" d="M425.856,72.5v1.856H424v1.856h1.856v1.856h1.856V76.212h1.856V74.356h-1.856V72.5Zm0,0" transform="translate(-374.818 -63.648)"/>
      <path id="Trazado_1035917" data-name="Trazado 1035917" d="M329.856,22.068h1.856V20.212h1.856V18.356h-1.856V16.5h-1.856v1.856H328v1.856h1.856Zm0,0" transform="translate(-289.954 -14.144)"/>
      <path id="Trazado_1035918" data-name="Trazado 1035918" d="M401.856,6.068h1.856V4.212h1.856V2.356h-1.856V.5h-1.856V2.356H400V4.212h1.856Zm0,0" transform="translate(-353.602)"/>
      <path id="Trazado_1035919" data-name="Trazado 1035919" d="M362.784,352.5a2.784,2.784,0,1,0,2.784,2.784A2.784,2.784,0,0,0,362.784,352.5Zm0,3.712a.928.928,0,1,1,.928-.928A.928.928,0,0,1,362.784,356.212Zm0,0" transform="translate(-318.242 -311.17)"/>
      <path id="Trazado_1035920" data-name="Trazado 1035920" d="M243.656,250.844l-1.312,1.312,2.128,2.128-2.128,2.128,1.312,1.312,2.784-2.784a.928.928,0,0,0,0-1.312Zm0,0" transform="translate(-214.233 -221.305)"/>
      <path id="Trazado_1035921" data-name="Trazado 1035921" d="M214.44,253.628l-2.784-2.784-1.312,1.312,2.128,2.128-2.128,2.128,1.312,1.312,2.784-2.784a.928.928,0,0,0,0-1.312Zm0,0" transform="translate(-185.945 -221.305)"/>
      <path id="Trazado_1035922" data-name="Trazado 1035922" d="M182.44,253.628l-2.784-2.784-1.312,1.312,2.128,2.128-2.128,2.128,1.312,1.312,2.784-2.784a.928.928,0,0,0,0-1.312Zm0,0" transform="translate(-157.657 -221.305)"/>
    </g>
  </g>
</svg>
