<svg xmlns="http://www.w3.org/2000/svg" width="86.369" height="86.369" viewBox="0 0 86.369 86.369">
  <g id="Grupo_1212111" data-name="Grupo 1212111" transform="translate(6904 -3830.779)">
    <g id="Grupo_1211588" data-name="Grupo 1211588" transform="translate(4776.5 15733.129)">
      <g id="Grupo_1099347" data-name="Grupo 1099347" transform="translate(-11585.5 -12119)">
        <g id="Grupo_1099341" data-name="Grupo 1099341" transform="translate(-95 216.65)">
          <g id="Rect치ngulo_402588" data-name="Rect치ngulo 402588" transform="translate(0 0)" fill="#f4c5c5" stroke="#fff" stroke-width="5">
            <rect width="86.369" height="86.369" rx="14" stroke="none"/>
            <rect x="2.5" y="2.5" width="81.369" height="81.369" rx="11.5" fill="none"/>
          </g>
        </g>
      </g>
    </g>
    <g id="Grupo_1212110" data-name="Grupo 1212110" transform="translate(0.836 2.327)">
      <g id="landscape_183160" transform="translate(-6884.583 3846)">
        <rect id="Rect치ngulo_408877" data-name="Rect치ngulo 408877" width="42.856" height="30.23" transform="translate(0.889 0.889)" fill="#0071bc"/>
        <path id="Trazado_1035931" data-name="Trazado 1035931" d="M60.807,114.645a5.513,5.513,0,0,1,3.156-4.984,5.513,5.513,0,1,0,0,9.969A5.513,5.513,0,0,1,60.807,114.645Z" transform="translate(-51.205 -102.908)" fill="#fbb03b"/>
        <g id="Grupo_1212108" data-name="Grupo 1212108" transform="translate(10.225 3.823)">
          <path id="Trazado_1035932" data-name="Trazado 1035932" d="M199.109,192.5h-.356a.889.889,0,1,1,0-1.778h.356a.889.889,0,0,1,0,1.778Z" transform="translate(-190.84 -181.212)" fill="#f2f2f2"/>
          <path id="Trazado_1035933" data-name="Trazado 1035933" d="M307.221,144.567h-.356a.889.889,0,0,1,0-1.778h.356a.889.889,0,0,1,0,1.778Z" transform="translate(-289.527 -137.454)" fill="#f2f2f2"/>
          <path id="Trazado_1035934" data-name="Trazado 1035934" d="M350.319,144.567h-2.084a.889.889,0,0,1,0-1.778h2.084a.889.889,0,1,1,0,1.778Z" transform="translate(-327.291 -137.454)" fill="#f2f2f2"/>
          <path id="Trazado_1035935" data-name="Trazado 1035935" d="M203.594,344.472h-4.84a.889.889,0,1,1,0-1.778h4.84a.889.889,0,0,1,0,1.778Z" transform="translate(-190.841 -319.932)" fill="#f2f2f2"/>
          <path id="Trazado_1035936" data-name="Trazado 1035936" d="M277.643,244.519h-.356a.889.889,0,0,1,0-1.778h.356a.889.889,0,1,1,0,1.778Z" transform="translate(-262.528 -228.693)" fill="#f2f2f2"/>
          <path id="Trazado_1035937" data-name="Trazado 1035937" d="M374.536,201.683h-.356a.889.889,0,1,1,0-1.778h.356a.889.889,0,0,1,0,1.778Z" transform="translate(-350.974 -189.591)" fill="#f2f2f2"/>
          <path id="Trazado_1035938" data-name="Trazado 1035938" d="M400.034,295.515h-.356a.889.889,0,1,1,0-1.778h.356a.889.889,0,1,1,0,1.778Z" transform="translate(-374.249 -275.243)" fill="#f2f2f2"/>
          <path id="Trazado_1035939" data-name="Trazado 1035939" d="M424.512,103.77h-.356a.889.889,0,1,1,0-1.778h.356a.889.889,0,1,1,0,1.778Z" transform="translate(-396.593 -100.214)" fill="#f2f2f2"/>
          <path id="Trazado_1035940" data-name="Trazado 1035940" d="M118.536,298.575h-.356a.889.889,0,0,1,0-1.778h.356a.889.889,0,1,1,0,1.778Z" transform="translate(-117.291 -278.036)" fill="#f2f2f2"/>
          <path id="Trazado_1035941" data-name="Trazado 1035941" d="M284.783,344.472h-.356a.889.889,0,1,1,0-1.778h.356a.889.889,0,0,1,0,1.778Z" transform="translate(-269.045 -319.932)" fill="#f2f2f2"/>
          <path id="Trazado_1035942" data-name="Trazado 1035942" d="M233.787,83.372h-.356a.889.889,0,1,1,0-1.778h.356a.889.889,0,0,1,0,1.778Z" transform="translate(-222.495 -81.594)" fill="#f2f2f2"/>
        </g>
        <path id="Trazado_1035943" data-name="Trazado 1035943" d="M287.214,422.247H272.188a.889.889,0,0,0,0,1.778h15.026a.889.889,0,1,0,0-1.778Z" transform="translate(-247.648 -388.727)"/>
        <path id="Trazado_1035944" data-name="Trazado 1035944" d="M108.457,453.865H95.742a.889.889,0,1,0,0,1.778h12.714a.889.889,0,1,0,0-1.778Z" transform="translate(-86.584 -417.589)"/>
        <path id="Trazado_1035945" data-name="Trazado 1035945" d="M46.655,453.865h-.889a.889.889,0,1,0,0,1.778h.889a.889.889,0,1,0,0-1.778Z" transform="translate(-40.965 -417.589)"/>
        <path id="Trazado_1035946" data-name="Trazado 1035946" d="M55.035,101.153a.889.889,0,0,0,0-1.607,6.4,6.4,0,1,0,0,11.575.889.889,0,0,0,0-1.607,4.624,4.624,0,0,1,0-8.361Zm-4.426,4.181a6.432,6.432,0,0,0,1.97,4.615q-.14.008-.281.008a4.623,4.623,0,1,1,0-9.247q.141,0,.281.008A6.431,6.431,0,0,0,50.609,105.334Z" transform="translate(-41.896 -93.597)"/>
        <path id="Trazado_1035947" data-name="Trazado 1035947" d="M414.627,386.288a.889.889,0,1,0,0-1.778h-1.689a.889.889,0,0,0,0,1.778Z" transform="translate(-376.127 -354.28)"/>
        <path id="Trazado_1035948" data-name="Trazado 1035948" d="M43.745,37.737H.889A.889.889,0,0,0,0,38.626v30.23a.889.889,0,0,0,.889.889H32.72a.889.889,0,0,0,0-1.778H1.778V39.515H42.856V67.967h-.445a.889.889,0,0,0,0,1.778h1.334a.889.889,0,0,0,.889-.889V38.626A.889.889,0,0,0,43.745,37.737Z" transform="translate(0 -37.737)"/>
      </g>
      <g id="camion" transform="translate(-6891.257 3865.914)">
        <g id="Grupo_1212023" data-name="Grupo 1212023" transform="translate(0.862 0.862)">
          <g id="Grupo_1212021" data-name="Grupo 1212021">
            <path id="Trazado_1034639" data-name="Trazado 1034639" d="M7.5,127.072H46.079v22.739H7.5Z" transform="translate(-7.5 -127.072)" fill="#fec463" fill-rule="evenodd"/>
            <path id="Trazado_1034640" data-name="Trazado 1034640" d="M26.5,176.362a3.448,3.448,0,0,1,3.448,3.448H53.413a3.448,3.448,0,0,1,6.9,0h4.31v-11.5H52.974v-6.291H63.756l-5.807-4.946H49.526v19.291H7.5v3.448h5.213a3.448,3.448,0,0,1,6.9,0h3.448A3.448,3.448,0,0,1,26.5,176.362Z" transform="translate(-7.5 -153.623)" fill="#f05776" fill-rule="evenodd"/>
            <path id="Trazado_1034641" data-name="Trazado 1034641" d="M93.561,328.376a3.448,3.448,0,1,0,3.448-3.448A3.448,3.448,0,0,0,93.561,328.376ZM56.31,331.824a3.448,3.448,0,1,0-3.448-3.448A3.448,3.448,0,0,0,56.31,331.824ZM70.1,328.376a3.448,3.448,0,1,0-3.448,3.448A3.448,3.448,0,0,0,70.1,328.376Z" transform="translate(-47.649 -302.189)" fill="#acc5e3" fill-rule="evenodd"/>
            <path id="Trazado_1034642" data-name="Trazado 1034642" d="M403.185,206.4h11.644l-.862-6.291H403.185Z" transform="translate(-357.711 -191.711)" fill="#acf3f9" fill-rule="evenodd"/>
            <path id="Trazado_1034643" data-name="Trazado 1034643" d="M7.5,127.072h2.586v22.739H7.5Z" transform="translate(-7.5 -127.072)" fill="#fb8e4b" fill-rule="evenodd"/>
            <path id="Trazado_1034644" data-name="Trazado 1034644" d="M52.112,157.071H49.526v20.153h2.586ZM10.086,176.362H7.5v3.448h2.586Z" transform="translate(-7.5 -153.623)" fill="#df1843" fill-rule="evenodd"/>
            <path id="Trazado_1034645" data-name="Trazado 1034645" d="M93.561,328.376a3.449,3.449,0,0,0,4.741,3.2,3.449,3.449,0,0,1,0-6.394,3.449,3.449,0,0,0-4.741,3.2ZM56.31,331.824a3.437,3.437,0,0,0,1.293-.251,3.449,3.449,0,0,1,0-6.394,3.448,3.448,0,1,0-1.293,6.645Zm11.636-6.645a3.448,3.448,0,1,0,0,6.394,3.449,3.449,0,0,1,0-6.394Z" transform="translate(-47.649 -302.189)" fill="#6696c4" fill-rule="evenodd"/>
            <path id="Trazado_1034646" data-name="Trazado 1034646" d="M403.185,200.1h2.586V206.4h-2.586Z" transform="translate(-357.711 -191.711)" fill="#5ceaee" fill-rule="evenodd"/>
          </g>
          <g id="Grupo_1212022" data-name="Grupo 1212022" transform="translate(34.269 2.586)">
            <path id="Trazado_1034647" data-name="Trazado 1034647" d="M307.41,154.743h-1.724v-1.724h1.724Zm0-3.448h-1.724v-1.724h1.724Z" transform="translate(-305.686 -149.571)" fill="#fff"/>
          </g>
        </g>
        <g id="Grupo_1212024" data-name="Grupo 1212024">
          <path id="Trazado_1034648" data-name="Trazado 1034648" d="M58.842,135.06l-.915-6.676-6.3-5.364h-9.6v19.291H40.3V119.572H0v5.172H1.724V121.3H38.579v21.015H1.724V126.467H0v21.015H5.3a4.31,4.31,0,0,0,8.446,0h1.9a4.31,4.31,0,0,0,8.446,0H40.741v-1.724H24.089a4.293,4.293,0,0,0-.778-1.724H43.75V124.744h7.243l3.783,3.222h-9.3v8.015H57.118v4.606H54.532v1.724h2.586v3.448H54.445a4.31,4.31,0,0,0-8.446,0H42.465v1.724H46a4.31,4.31,0,0,0,8.446,0h4.4ZM1.724,144.035H6.078a4.291,4.291,0,0,0-.778,1.724H1.724Zm7.8,5.172a2.586,2.586,0,1,1,2.586-2.586A2.589,2.589,0,0,1,9.523,149.206Zm10.343,0a2.586,2.586,0,1,1,2.586-2.586A2.589,2.589,0,0,1,19.866,149.206Zm-4.223-3.448h-1.9a4.293,4.293,0,0,0-.778-1.724h3.453A4.291,4.291,0,0,0,15.643,145.758Zm34.579,3.448a2.586,2.586,0,1,1,2.586-2.586A2.589,2.589,0,0,1,50.222,149.206ZM47.2,129.689h9.168l.626,4.568H47.2Z" transform="translate(0 -119.572)"/>
          <path id="Trazado_1034649" data-name="Trazado 1034649" d="M395.685,277.348h3.448v1.724h-3.448Z" transform="translate(-350.211 -259.216)"/>
          <path id="Trazado_1034650" data-name="Trazado 1034650" d="M186.593,165.666h1.724v13.868h-1.724Z" transform="translate(-165.149 -160.369)"/>
          <path id="Trazado_1034651" data-name="Trazado 1034651" d="M224.093,165.666h1.724v13.868h-1.724Z" transform="translate(-198.339 -160.369)"/>
          <path id="Trazado_1034652" data-name="Trazado 1034652" d="M261.592,165.666h1.724v13.868h-1.724Z" transform="translate(-231.528 -160.369)"/>
          <path id="Trazado_1034653" data-name="Trazado 1034653" d="M149.093,165.666h1.724v13.868h-1.724Z" transform="translate(-131.958 -160.369)"/>
          <path id="Trazado_1034654" data-name="Trazado 1034654" d="M111.593,165.666h1.724v13.868h-1.724Z" transform="translate(-98.768 -160.369)"/>
          <path id="Trazado_1034655" data-name="Trazado 1034655" d="M74.094,165.666h1.724v13.868H74.094Z" transform="translate(-65.579 -160.369)"/>
        </g>
      </g>
    </g>
  </g>
</svg>
