<svg xmlns="http://www.w3.org/2000/svg" xmlns:xlink="http://www.w3.org/1999/xlink" width="103" height="103" viewBox="0 0 103 103">
  <defs>
    <filter id="Trazado_896985" x="0" y="0" width="103" height="103" filterUnits="userSpaceOnUse">
      <feOffset dy="3" input="SourceAlpha"/>
      <feGaussianBlur stdDeviation="3" result="blur"/>
      <feFlood flood-opacity="0.161"/>
      <feComposite operator="in" in2="blur"/>
      <feComposite in="SourceGraphic"/>
    </filter>
  </defs>
  <g id="Grupo_1213733" data-name="Grupo 1213733" transform="translate(-304.148 -3221.999)">
    <g id="Grupo_1200181" data-name="Grupo 1200181" transform="translate(104.308 -5649.137)">
      <g id="Grupo_1198723" data-name="Grupo 1198723" transform="translate(208.84 8877.136)">
        <g id="Grupo_1198139" data-name="Grupo 1198139" transform="translate(0 0)">
          <g id="Grupo_1111318" data-name="Grupo 1111318" transform="translate(0 0)">
            <g id="Grupo_1109826" data-name="Grupo 1109826" transform="translate(0)">
              <g id="Grupo_1098742" data-name="Grupo 1098742" transform="translate(0)">
                <g transform="matrix(1, 0, 0, 1, -9, -6)" filter="url(#Trazado_896985)">
                  <g id="Trazado_896985-2" data-name="Trazado 896985" transform="translate(9 6)" fill="#efd026" opacity="0.859">
                    <path d="M 42.49993133544922 84.49998474121094 C 36.82975387573242 84.49998474121094 31.32945442199707 83.38957977294922 26.15180969238281 81.19962310791016 C 21.15055274963379 79.08426666259766 16.65885353088379 76.05584716796875 12.80149841308594 72.19849395751953 C 8.944130897521973 68.34112548828125 5.915709018707275 63.84943771362305 3.800353527069092 58.84817123413086 C 1.610398054122925 53.67052459716797 0.4999980032444 48.17022705078125 0.4999980032444 42.50004959106445 C 0.4999980032444 36.82975769042969 1.610398054122925 31.32945823669434 3.800353527069092 26.15181541442871 C 5.915709018707275 21.15055847167969 8.944130897521973 16.65885925292969 12.80149841308594 12.80150318145752 C 16.65885353088379 8.944136619567871 21.15055274963379 5.915714740753174 26.15180969238281 3.800359010696411 C 31.32945442199707 1.610403537750244 36.82975387573242 0.500003457069397 42.49993133544922 0.500003457069397 C 48.17010879516602 0.500003457069397 53.67041015625 1.610403537750244 58.84805297851562 3.800359010696411 C 63.84930801391602 5.915714740753174 68.34101104736328 8.944136619567871 72.1983642578125 12.80150318145752 C 76.05573272705078 16.65885925292969 79.08415222167969 21.15055847167969 81.19950866699219 26.15181541442871 C 83.38946533203125 31.32945823669434 84.49986267089844 36.82975769042969 84.49986267089844 42.49993515014648 C 84.49986267089844 48.17022705078125 83.38946533203125 53.67052459716797 81.19950866699219 58.84817123413086 C 79.08415222167969 63.84943771362305 76.05573272705078 68.34112548828125 72.1983642578125 72.19849395751953 C 68.34101104736328 76.05584716796875 63.84930801391602 79.08426666259766 58.84805297851562 81.19962310791016 C 53.67041015625 83.38957977294922 48.17010879516602 84.49998474121094 42.49993133544922 84.49998474121094 Z" stroke="none"/>
                    <path d="M 42.49993133544922 1.000007629394531 C 36.89703750610352 1.000007629394531 31.46226119995117 2.097122192382812 26.34659194946289 4.2608642578125 C 21.40493011474609 6.35101318359375 16.96665191650391 9.343452453613281 13.15505218505859 13.15505218505859 C 9.343452453613281 16.96665954589844 6.351005554199219 21.40493392944336 4.2608642578125 26.34659194946289 C 2.09710693359375 31.46227645874023 1 36.89704132080078 1 42.50004959106445 C 1 48.10294342041016 2.09710693359375 53.5377197265625 4.2608642578125 58.65339279174805 C 6.351005554199219 63.59505081176758 9.343452453613281 68.03333282470703 13.15505218505859 71.84493255615234 C 16.96665191650391 75.65653228759766 21.40493011474609 78.64897918701172 26.34659194946289 80.73912048339844 C 31.46226119995117 82.90287780761719 36.89703750610352 83.99997711181641 42.49993133544922 83.99997711181641 C 48.10282516479492 83.99997711181641 53.53759002685547 82.90287780761719 58.65327453613281 80.73912048339844 C 63.59493255615234 78.64897918701172 68.033203125 75.65653228759766 71.84481048583984 71.84493255615234 C 75.65641784667969 68.03333282470703 78.64884948730469 63.59505081176758 80.73899841308594 58.65339279174805 C 82.90274047851562 53.5377197265625 83.99986267089844 48.10294342041016 83.99986267089844 42.49993515014648 C 83.99986267089844 36.89704132080078 82.90274047851562 31.46227645874023 80.73899841308594 26.34659194946289 C 78.64884948730469 21.40493392944336 75.65641784667969 16.96665954589844 71.84481048583984 13.15505218505859 C 68.033203125 9.343452453613281 63.59493255615234 6.35101318359375 58.65327453613281 4.2608642578125 C 53.53759002685547 2.097122192382812 48.10282516479492 1.000007629394531 42.49993133544922 1.000007629394531 M 42.49993133544922 7.62939453125e-06 C 65.97199249267578 7.62939453125e-06 84.99986267089844 19.02787780761719 84.99986267089844 42.49993515014648 L 84.99986267089844 42.50004959106445 C 84.99986267089844 65.97212219238281 65.97199249267578 84.99997711181641 42.49993133544922 84.99997711181641 C 19.02786254882812 84.99997711181641 0 65.97212219238281 0 42.50004959106445 L 0 42.49993515014648 C 0 19.02787780761719 19.02786254882812 7.62939453125e-06 42.49993133544922 7.62939453125e-06 Z" stroke="none" fill="#fff"/>
                  </g>
                </g>
                <g id="Rectángulo_400907" data-name="Rectángulo 400907" transform="translate(0)" fill="none" stroke="#fff" stroke-width="1">
                  <rect width="85" height="85" rx="42.5" stroke="none"/>
                  <rect x="0.5" y="0.5" width="84" height="84" rx="42" fill="none"/>
                </g>
              </g>
            </g>
          </g>
        </g>
      </g>
    </g>
    <g id="cow_9220479" transform="translate(324.107 3181.621)">
      <path id="Trazado_1034300" data-name="Trazado 1034300" d="M252,287.273a4.153,4.153,0,0,1-4.151-4.089,64.375,64.375,0,0,0-.938-11.6,4.153,4.153,0,1,1,8.192-1.372,71.825,71.825,0,0,1,1.051,12.843,4.153,4.153,0,0,1-4.089,4.217H252Z" transform="translate(-215.086 -176.326)" fill="#de8957"/>
      <path id="Trazado_1034301" data-name="Trazado 1034301" d="M17.139,164.612a2.765,2.765,0,0,1-.8-.12,12.369,12.369,0,0,1-5.617-3.712,13.582,13.582,0,0,1-3.188-7,2.769,2.769,0,1,1,5.48-.8,7.52,7.52,0,0,0,4.93,6.212,2.769,2.769,0,0,1-.8,5.42Z" transform="translate(-6.535 -75.134)" fill="#e9a982"/>
      <path id="Trazado_1034302" data-name="Trazado 1034302" d="M78.77,180.45a9.725,9.725,0,0,0-8.187-7.611,74.669,74.669,0,0,0-9.441-.709,69.974,69.974,0,0,0-7.022.416,12.425,12.425,0,0,0-11.136,11.977c0,.1,0,.186,0,.27a22.89,22.89,0,0,0,.534,4.342,9.7,9.7,0,0,0,3.037,5.23,29.835,29.835,0,0,1-.893,7.122,4.153,4.153,0,1,0,8.071,1.962,39.932,39.932,0,0,0,1.024-6.345c2.269.223,4.533.351,6.389.351.747,0,1.562-.021,2.415-.061.156,1.518.168,3.041.2,5.138a4.153,4.153,0,0,0,4.151,4.089h.065a4.153,4.153,0,0,0,4.089-4.217c-.032-2.22-.046-4.012-.244-5.912a9.725,9.725,0,0,0,6.953-7.358,17.9,17.9,0,0,0,0-8.683Z" transform="translate(-37.448 -93.885)" fill="#e9a982"/>
      <path id="Trazado_1034303" data-name="Trazado 1034303" d="M54.483,175.071l-.361.037a12.425,12.425,0,0,0-11.136,11.977c0,.1,0,.186,0,.27a22.89,22.89,0,0,0,.534,4.342,9.7,9.7,0,0,0,3.037,5.23,29.835,29.835,0,0,1-.893,7.122,4.153,4.153,0,1,0,8.071,1.962,39.933,39.933,0,0,0,1.024-6.345c1.941.191,3.877.312,5.559.343C53.256,197.234,50.474,182.085,54.483,175.071Z" transform="translate(-37.448 -96.448)" fill="#de8957"/>
      <path id="Trazado_1034304" data-name="Trazado 1034304" d="M414.5,137.039a13.619,13.619,0,0,0,7.809,4.372,5.246,5.246,0,0,1,3,1.723,3,3,0,0,1-.236,3.947,4.388,4.388,0,0,1-3.335,1.36c-1.753-.011-4.092-.029-5.668-1.892a7.822,7.822,0,0,1-1.586-4.125A23.434,23.434,0,0,1,414.5,137.039Z" transform="translate(-361.016 -63.31)" fill="#c7856a"/>
      <path id="Trazado_1034305" data-name="Trazado 1034305" d="M185.75,137.039a13.619,13.619,0,0,1-7.809,4.372,5.246,5.246,0,0,0-3,1.723,3,3,0,0,0,.236,3.947,4.388,4.388,0,0,0,3.335,1.36c1.753-.011,4.092-.029,5.667-1.892a7.823,7.823,0,0,0,1.586-4.125A23.436,23.436,0,0,0,185.75,137.039Z" transform="translate(-151.877 -63.31)" fill="#c7856a"/>
      <path id="Trazado_1034306" data-name="Trazado 1034306" d="M387.441,77.121a9.153,9.153,0,0,0,4.726-1.6,9.019,9.019,0,0,0,2.5-2.68,2.044,2.044,0,0,1,3.558.181,7.838,7.838,0,0,1,.7,5.537,6.018,6.018,0,0,1-1.906,2.986,8.363,8.363,0,0,1-3.507,1.713Z" transform="translate(-337.582 -6.546)" fill="#d3d3ff"/>
      <path id="Trazado_1034307" data-name="Trazado 1034307" d="M212.029,77.121a9.153,9.153,0,0,1-4.726-1.6,9.02,9.02,0,0,1-2.5-2.68,2.044,2.044,0,0,0-3.558.181,7.838,7.838,0,0,0-.7,5.537,6.018,6.018,0,0,0,1.906,2.986,8.363,8.363,0,0,0,3.507,1.713Z" transform="translate(-174.533 -6.546)" fill="#d3d3ff"/>
      <path id="Trazado_1034308" data-name="Trazado 1034308" d="M237.729,101.675a15.99,15.99,0,0,1,4.465.631,14.6,14.6,0,0,1,9.836,9.107,13.17,13.17,0,0,1,.715,4.288,11.741,11.741,0,0,1-.792,4.329c-1.593,4.046-5.447,6.726-10.265,7.663a21.281,21.281,0,0,1-7.918,0c-4.818-.937-8.672-3.617-10.265-7.663a11.74,11.74,0,0,1-.792-4.329,13.173,13.173,0,0,1,.715-4.288,14.6,14.6,0,0,1,9.836-9.107A15.991,15.991,0,0,1,237.729,101.675Z" transform="translate(-194.052 -32.497)" fill="#e9a982"/>
      <path id="Trazado_1034309" data-name="Trazado 1034309" d="M241.688,132.038q.844-.164,1.646-.4C226.32,127,228.48,112.391,233.227,106.663a14.6,14.6,0,0,0-9.8,9.1,13.17,13.17,0,0,0-.715,4.288,11.74,11.74,0,0,0,.792,4.329c1.593,4.046,5.447,6.726,10.265,7.663a21.281,21.281,0,0,0,7.918,0Z" transform="translate(-194.052 -36.843)" fill="#de8957"/>
      <path id="Trazado_1034310" data-name="Trazado 1034310" d="M288,229.634a9.377,9.377,0,0,0,3.386-.618,6.881,6.881,0,0,0,3.592-2.952,4.784,4.784,0,0,0,.616-2.332,5.753,5.753,0,0,0-.6-2.461,8.167,8.167,0,0,0-3.976-3.832,7.28,7.28,0,0,0-6.04,0A8.167,8.167,0,0,0,281,221.271a5.753,5.753,0,0,0-.6,2.461,4.784,4.784,0,0,0,.616,2.332,6.879,6.879,0,0,0,3.592,2.952A9.374,9.374,0,0,0,288,229.634Z" transform="translate(-244.318 -132.793)" fill="#fff0ce"/>
      <path id="Trazado_1034311" data-name="Trazado 1034311" d="M291.38,248.956a7.691,7.691,0,0,0,2.329-1.4c-6.1-1.64-9.758-4.555-11.72-7.89A7.626,7.626,0,0,0,281,241.21a5.753,5.753,0,0,0-.6,2.461,4.784,4.784,0,0,0,.616,2.332,6.88,6.88,0,0,0,3.592,2.952,9.588,9.588,0,0,0,6.771,0Z" transform="translate(-244.317 -152.732)" fill="#ffddb9"/>
      <path id="Trazado_1034312" data-name="Trazado 1034312" d="M35.642,78.841a.965.965,0,0,0-.965.965V81.35a.965.965,0,1,0,1.93,0V79.806A.965.965,0,0,0,35.642,78.841Zm29.413.392a6.241,6.241,0,0,0-3.533-2.07,23.565,23.565,0,0,1-2.442-.71,7.865,7.865,0,0,0,.985-.72,6.939,6.939,0,0,0,2.207-3.46,8.8,8.8,0,0,0-.762-6.223,3.008,3.008,0,0,0-5.243-.261,7.855,7.855,0,0,1-5.946,3.776,16.6,16.6,0,0,0-1.908-.684,17.088,17.088,0,0,0-9.469,0,16.6,16.6,0,0,0-1.908.684,7.856,7.856,0,0,1-5.946-3.776,3.008,3.008,0,0,0-5.243.261,8.8,8.8,0,0,0-.762,6.223,7.075,7.075,0,0,0,3.194,4.18c-1.225.447-2.307.652-2.963.855-.577-.019-1.123-.029-1.62-.029a70.722,70.722,0,0,0-7.123.421,13.408,13.408,0,0,0-7.664,3.466A6.831,6.831,0,0,1,8.056,79.8a.965.965,0,0,0-1.745.824A8.72,8.72,0,0,0,7.574,82.58a13.4,13.4,0,0,0-1.937,3.189c-.253-.242-.5-.495-.727-.758A12.618,12.618,0,0,1,1.951,78.5a1.8,1.8,0,0,1,2.874-1.7.965.965,0,0,0,1.165-1.539,3.734,3.734,0,0,0-5.95,3.514,14.545,14.545,0,0,0,3.416,7.5,13.949,13.949,0,0,0,1.508,1.482,13.158,13.158,0,0,0-.393,2.847,23.19,23.19,0,0,0,.551,4.838A10.6,10.6,0,0,0,8.137,100.9a29.154,29.154,0,0,1-.864,6.476,5.118,5.118,0,1,0,9.947,2.418,41.494,41.494,0,0,0,.96-5.523c2,.173,3.928.267,5.515.267.477,0,.989-.009,1.532-.026.081,1.206.094,2.526.117,4.152a5.14,5.14,0,0,0,5.116,5.04h.08a5.1,5.1,0,0,0,4.183-2.283,5.116,5.116,0,0,0,7.311-4.7l0-.27a.965.965,0,1,0-1.93.03l0,.27a3.187,3.187,0,0,1-4.634,2.889,5.152,5.152,0,0,0,.108-1.13c-.026-1.823-.04-3.526-.177-5.211a10.683,10.683,0,0,0,4.461-3.038c.044.553.081,1.108.11,1.677a.965.965,0,0,0,1.928-.1c-.074-1.417-.189-2.754-.361-4.181l.025-.055a10.541,10.541,0,0,0,5.847-.472,8.671,8.671,0,0,0,2.571-1.535,13.463,13.463,0,0,0,8.816-7.7,12.093,12.093,0,0,0,.552-1.824c.433.026.967.035,1.4.035a5.383,5.383,0,0,0,4.017-1.678A3.947,3.947,0,0,0,65.054,79.233ZM26.944,71.758a6.886,6.886,0,0,1,.631-4.851,1.079,1.079,0,0,1,1.873-.1,10.008,10.008,0,0,0,2.769,2.963,9.668,9.668,0,0,0,2.269,1.169,15.474,15.474,0,0,0-4.361,4.316,6.476,6.476,0,0,1-1.576-.983,5.041,5.041,0,0,1-1.606-2.512Zm-3.116,8.655a4.376,4.376,0,0,1,2.467-1.375c.83-.2,1.56-.4,2.238-.628a14.018,14.018,0,0,0-.8,5.733c-.347.017-.819.024-1.131.024a3.41,3.41,0,0,1-2.584-1.043A2.042,2.042,0,0,1,23.828,80.413Zm10.287,21.261a.965.965,0,0,0-.706,1.032c.2,1.9.21,3.738.239,5.826a3.188,3.188,0,0,1-6.375.1c-.026-1.823-.037-3.6-.2-5.223a.965.965,0,0,0-1-.866c-.861.04-1.659.06-2.371.06-1.781,0-4.017-.123-6.295-.347a.965.965,0,0,0-1.057.886,39,39,0,0,1-1,6.191,3.188,3.188,0,1,1-6.2-1.506,30.707,30.707,0,0,0,.921-7.355.965.965,0,0,0-.322-.716,8.694,8.694,0,0,1-2.735-4.711,21.268,21.268,0,0,1-.51-4.385A11.485,11.485,0,0,1,16.774,79.62c1.939-.205,3.851-.339,5.528-.388l0,0a3.947,3.947,0,0,0,.284,5.185A5.383,5.383,0,0,0,26.642,86.1c.4,0,.87-.006,1.361-.035a12.1,12.1,0,0,0,.552,1.824,13.463,13.463,0,0,0,8.816,7.7,8.6,8.6,0,0,0,2.33,1.436,8.752,8.752,0,0,1-5.586,4.65ZM49.81,92.8a5.914,5.914,0,0,1-3.1,2.52,8.609,8.609,0,0,1-6.073,0,5.915,5.915,0,0,1-3.1-2.52,4.087,4.087,0,0,1,.007-3.909,7.247,7.247,0,0,1,3.5-3.367,6.314,6.314,0,0,1,5.252,0,7.247,7.247,0,0,1,3.5,3.368A4.087,4.087,0,0,1,49.81,92.8ZM57,87.178a10.782,10.782,0,0,1-5.038,5.482,6.153,6.153,0,0,0-.421-4.6,9.1,9.1,0,0,0-4.452-4.3,8.242,8.242,0,0,0-6.829,0,9.106,9.106,0,0,0-4.453,4.3,6.153,6.153,0,0,0-.421,4.6,10.783,10.783,0,0,1-5.038-5.482,11.717,11.717,0,0,1-.063-7.95,13.613,13.613,0,0,1,9.193-8.493,15.159,15.159,0,0,1,8.392,0,13.613,13.613,0,0,1,9.193,8.493A11.716,11.716,0,0,1,57,87.178Zm.227-11.925a15.474,15.474,0,0,0-4.363-4.317,9.67,9.67,0,0,0,2.271-1.168,10.01,10.01,0,0,0,2.769-2.963,1.079,1.079,0,0,1,1.873.1,6.885,6.885,0,0,1,.631,4.851,5.041,5.041,0,0,1-1.605,2.512A6.471,6.471,0,0,1,57.23,75.253Zm6.109,7.87a3.428,3.428,0,0,1-2.613,1.043c-.347,0-.72-.005-1.1-.023a14.019,14.019,0,0,0-.8-5.733c.678.227,1.408.425,2.238.629a4.377,4.377,0,0,1,2.467,1.375A2.042,2.042,0,0,1,63.339,83.123ZM46.43,89.463a.965.965,0,0,0-1.362.093,1.843,1.843,0,0,1-2.782,0,.965.965,0,1,0-1.455,1.268,3.773,3.773,0,0,0,5.692,0,.965.965,0,0,0-.093-1.362Zm5.283-10.622a.965.965,0,0,0-.965.965V81.35a.965.965,0,1,0,1.93,0V79.806A.965.965,0,0,0,51.714,78.841Z" transform="translate(0 0)"/>
    </g>
  </g>
</svg>
