<svg xmlns="http://www.w3.org/2000/svg" width="90" height="90" viewBox="0 0 90 90">
  <g id="Grupo_1212154" data-name="Grupo 1212154" transform="translate(-201.051 -17037.124)">
    <g id="Grupo_1212138" data-name="Grupo 1212138">
      <g id="Grupo_1211599" data-name="Grupo 1211599" transform="translate(201.051 17037.125)">
        <circle id="Elipse_11588" data-name="Elipse 11588" cx="45" cy="45" r="45" fill="#0a3adb"/>
      </g>
    </g>
    <g id="ley_13_" data-name="ley (13)" transform="translate(216.288 17037.586)">
      <g id="Grupo_1212145" data-name="Grupo 1212145" transform="translate(12.796 47.987)">
        <g id="Grupo_1212140" data-name="Grupo 1212140" transform="translate(0 3.137)">
          <path id="Trazado_1035982" data-name="Trazado 1035982" d="M147.626,357.162a9.987,9.987,0,0,0,2.4,6.577H113.885a1.143,1.143,0,0,1-.933-.477,11.642,11.642,0,0,1,0-12.2,1.143,1.143,0,0,1,.933-.477h36.139A9.988,9.988,0,0,0,147.626,357.162Z" transform="translate(-111.226 -350.585)" fill="#fb3a82"/>
          <path id="Trazado_1035983" data-name="Trazado 1035983" d="M122.255,350.587l-10.191,11.039a11.548,11.548,0,0,1-.834-4.462,10.437,10.437,0,0,1,1.726-6.1,1.142,1.142,0,0,1,.933-.477Z" transform="translate(-111.23 -350.587)" fill="#fb1466"/>
          <path id="Trazado_1035984" data-name="Trazado 1035984" d="M182.191,357.162a9.987,9.987,0,0,0,2.4,6.577H147.9s-2.109-2.135-2.109-6.577,2.109-6.577,2.109-6.577h36.689A9.988,9.988,0,0,0,182.191,357.162Z" transform="translate(-141.814 -350.585)" fill="#e0d3ce"/>
          <g id="Grupo_1212139" data-name="Grupo 1212139" transform="translate(3.977 0)">
            <path id="Trazado_1035985" data-name="Trazado 1035985" d="M152.839,350.587l-7.011,7.594c-.024-.324-.038-.664-.038-1.017,0-4.442,2.109-6.577,2.109-6.577Z" transform="translate(-145.79 -350.587)" fill="#cdbfbb"/>
            <path id="Trazado_1035986" data-name="Trazado 1035986" d="M428.746,357.169a9.985,9.985,0,0,0,2.4,6.577H426.8a10.219,10.219,0,0,1,0-13.153h4.347A9.983,9.983,0,0,0,428.746,357.169Z" transform="translate(-392.346 -350.591)" fill="#cdbfbb"/>
          </g>
        </g>
        <g id="Grupo_1212144" data-name="Grupo 1212144" transform="translate(4.951)">
          <g id="Grupo_1212142" data-name="Grupo 1212142" transform="translate(0)">
            <path id="Trazado_1035987" data-name="Trazado 1035987" d="M194.553,325.227a1.909,1.909,0,0,1-1.909,1.909H156.169a1.909,1.909,0,0,1,0-3.818h36.476A1.909,1.909,0,0,1,194.553,325.227Z" transform="translate(-154.26 -323.317)" fill="#fb3a82"/>
            <g id="Grupo_1212141" data-name="Grupo 1212141">
              <path id="Trazado_1035988" data-name="Trazado 1035988" d="M163.23,323.317l-3.524,3.818h-3.538a1.909,1.909,0,0,1,0-3.818Z" transform="translate(-154.26 -323.317)" fill="#fb1466"/>
              <path id="Trazado_1035989" data-name="Trazado 1035989" d="M461.326,325.229a1.911,1.911,0,0,1-1.91,1.91h-3.7a1.909,1.909,0,0,0,0-3.819h3.7A1.91,1.91,0,0,1,461.326,325.229Z" transform="translate(-421.031 -323.321)" fill="#fb1466"/>
            </g>
          </g>
          <g id="Grupo_1212143" data-name="Grupo 1212143" transform="translate(0 15.61)">
            <path id="Trazado_1035990" data-name="Trazado 1035990" d="M192.642,462.814H156.166a1.909,1.909,0,1,1,0-3.818h36.476a1.909,1.909,0,1,1,0,3.818Z" transform="translate(-154.257 -458.996)" fill="#fb3a82"/>
            <path id="Trazado_1035991" data-name="Trazado 1035991" d="M461.326,460.908a1.908,1.908,0,0,1-1.91,1.909h-3.7a1.909,1.909,0,1,0,0-3.817h3.7A1.91,1.91,0,0,1,461.326,460.908Z" transform="translate(-421.031 -458.999)" fill="#fb1466"/>
          </g>
        </g>
      </g>
      <g id="Grupo_1212153" data-name="Grupo 1212153" transform="translate(-0.001 12.193)">
        <g id="Grupo_1212148" data-name="Grupo 1212148" transform="translate(0.863 22.801)">
          <g id="Grupo_1212146" data-name="Grupo 1212146" transform="translate(0 7.303)">
            <path id="Trazado_1035992" data-name="Trazado 1035992" d="M32.632,276.939l-3.082-3.082L8.569,293.225a3.322,3.322,0,1,0,4.695,4.695Z" transform="translate(-7.5 -273.857)" fill="#873f30"/>
            <path id="Trazado_1035993" data-name="Trazado 1035993" d="M14.426,305.308a3.324,3.324,0,0,1-4.7,0,3.29,3.29,0,0,1-.81-1.324,3.317,3.317,0,0,0,3.371-.807c.032-.032.064-.066.095-.1L31.752,282.1l2.134,2.134L14.518,305.211C14.487,305.244,14.456,305.277,14.426,305.308Z" transform="translate(-8.755 -281.148)" fill="#6c3328"/>
          </g>
          <path id="Trazado_1035994" data-name="Trazado 1035994" d="M197.733,210.382l-7.1,8.466,2.9,2.9,8.466-7.1Z" transform="translate(-169.567 -210.382)" fill="#873f30"/>
          <path id="Trazado_1035995" data-name="Trazado 1035995" d="M206.517,210.382l-2.293,2.736.688.688a1.3,1.3,0,0,1,0,1.834l-4.35,4.35,1.757,1.757,8.466-7.1Z" transform="translate(-178.351 -210.382)" fill="#6c3328"/>
          <g id="Grupo_1212147" data-name="Grupo 1212147" transform="translate(18.721 6.732)">
            <path id="Trazado_1035996" data-name="Trazado 1035996" d="M173.647,275.27l-2.814-2.814a2.083,2.083,0,0,1,2.946-2.946l2.814,2.814a2.083,2.083,0,1,1-2.946,2.946Z" transform="translate(-170.222 -268.899)" fill="#ba5d4f"/>
            <path id="Trazado_1035997" data-name="Trazado 1035997" d="M186.52,285.2a2.083,2.083,0,0,1-2.946,0l-2.133-2.133a2.083,2.083,0,0,0,2.946-2.946l2.133,2.133a2.082,2.082,0,0,1,0,2.946Z" transform="translate(-180.15 -278.832)" fill="#a34f41"/>
          </g>
        </g>
        <g id="Grupo_1212149" data-name="Grupo 1212149" transform="translate(22.896 3.452)">
          <path id="Trazado_1035998" data-name="Trazado 1035998" d="M0,0H8.839V13.876H0Z" transform="translate(9.81 0) rotate(45)" fill="#ba5d4f"/>
          <path id="Trazado_1035999" data-name="Trazado 1035999" d="M0,0H8.839V13.876H0Z" transform="translate(19.937 29.756) rotate(-135)" fill="#a34f41"/>
        </g>
        <g id="Grupo_1212152" data-name="Grupo 1212152" transform="translate(0 0)">
          <path id="Trazado_1036000" data-name="Trazado 1036000" d="M177.314,34.247l-.217-.217a2.108,2.108,0,0,1,0-2.981l10.738-10.738a2.108,2.108,0,0,1,2.981,0l.217.217a2.108,2.108,0,0,1,0,2.981L180.3,34.247A2.108,2.108,0,0,1,177.314,34.247Z" transform="translate(-156.176 -18.831)" fill="#873f30"/>
          <path id="Trazado_1036001" data-name="Trazado 1036001" d="M348.861,205.793l.217.217a2.108,2.108,0,0,0,2.981,0L362.8,195.272a2.108,2.108,0,0,0,0-2.981l-.217-.217a2.108,2.108,0,0,0-2.981,0l-10.738,10.738A2.108,2.108,0,0,0,348.861,205.793Z" transform="translate(-308.179 -170.833)" fill="#6c3328"/>
          <g id="Grupo_1212151" data-name="Grupo 1212151">
            <path id="Trazado_1036002" data-name="Trazado 1036002" d="M0,0H9.926V20.957H0Z" transform="translate(41.667 7.406) rotate(45)" fill="#fcc16d"/>
            <path id="Trazado_1036003" data-name="Trazado 1036003" d="M0,0H20.957V5.024H0Z" transform="translate(30.312 25.696) rotate(-45)" fill="#fca62f"/>
            <path id="Trazado_1036004" data-name="Trazado 1036004" d="M239.623,67.686l-1.719-.7a1.581,1.581,0,0,0-1.716.345L224.115,79.4a1.581,1.581,0,0,0-.345,1.716l.7,1.719a1.054,1.054,0,0,0,1.721.346l13.776-13.776A1.054,1.054,0,0,0,239.623,67.686Z" transform="translate(-197.921 -60.576)" fill="#873f30"/>
            <path id="Trazado_1036005" data-name="Trazado 1036005" d="M304.226,132.291l.7,1.719a1.581,1.581,0,0,1-.346,1.716L292.511,147.8a1.581,1.581,0,0,1-1.716.345l-1.719-.7a1.054,1.054,0,0,1-.346-1.721l13.776-13.776A1.054,1.054,0,0,1,304.226,132.291Z" transform="translate(-255.238 -117.894)" fill="#6c3328"/>
            <g id="Grupo_1212150" data-name="Grupo 1212150">
              <path id="Trazado_1036006" data-name="Trazado 1036006" d="M56.132,62.734H55.49a8.923,8.923,0,0,1-.743-1.417.863.863,0,0,0-1.595.66c.107.258.226.509.352.757H19.656a2.761,2.761,0,0,0-.752.1A10.03,10.03,0,0,1,17.635,57.7c0-.376.017-.747.049-1.111H34.216a.863.863,0,0,0,0-1.726H18.411l2.027-2.2H53.5a10.771,10.771,0,0,0-.831,2.2H41.326a.863.863,0,1,0,0,1.726h11.04c-.034.351-.053.7-.055,1.062a.863.863,0,0,0,.859.867h0a.863.863,0,0,0,.863-.859,9.233,9.233,0,0,1,1.451-4.991h.644a2.772,2.772,0,0,0,0-5.544H45.345l9.882-9.883a2.97,2.97,0,0,0,0-4.2l-.217-.217a2.969,2.969,0,0,0-4.048-.141l-1.527-1.527.52-.52a2.438,2.438,0,0,0,.534-2.653l-.7-1.719A1.912,1.912,0,0,0,48.4,25.111l-1.2-1.2a.863.863,0,0,0-1.22,1.22l.59.59-13.6,13.6-4-4,13.6-13.6.529.529a.863.863,0,1,0,1.22-1.22L43.18,19.893A1.913,1.913,0,0,0,42.028,18.5h0l-1.719-.7a2.439,2.439,0,0,0-2.653.534l-.52.52-1.528-1.527a2.969,2.969,0,0,0-.141-4.048l-.217-.217a2.971,2.971,0,0,0-4.2,0L20.31,23.8a2.97,2.97,0,0,0,0,4.2l.217.217a2.969,2.969,0,0,0,4.048.141L26.1,29.888l-.52.52a2.438,2.438,0,0,0-.534,2.653l.7,1.719a1.912,1.912,0,0,0,1.368,1.147l-4.326,5.161A2.948,2.948,0,0,0,18.9,44.826l-1.962,1.811a.863.863,0,0,0,1.171,1.268l1.813-1.674,2.138,2.138L5.992,65.774A2.459,2.459,0,1,1,2.516,62.3l12.6-11.635A.863.863,0,0,0,13.949,49.4L1.346,61.031a4.185,4.185,0,0,0,2.836,7.26h.087A4.149,4.149,0,0,0,7.26,66.945l5.171-5.6A9.945,9.945,0,0,0,13.818,64.3a2.009,2.009,0,0,0,1.636.84h1.454a2.767,2.767,0,0,0,2.747,3.137H56.132a2.772,2.772,0,1,0,0-5.544ZM57.178,49.9a1.047,1.047,0,0,1-1.046,1.046h-34.1l1.434-1.554a2.949,2.949,0,0,0,2.943-.539H56.132A1.047,1.047,0,0,1,57.178,49.9ZM31.147,39.939l-5,4.189-1.987-1.986,4.189-5Zm-3.764,7.186A2.963,2.963,0,0,0,27.2,45.5l5.161-4.326a1.912,1.912,0,0,0,1.147,1.368l1.719.7a2.439,2.439,0,0,0,2.653-.534l.52-.52,1.527,1.527a2.976,2.976,0,0,0-.343,3.41h-12.2ZM52.91,33.68a1.237,1.237,0,0,1,.88.364l.217.217a1.245,1.245,0,0,1,0,1.76L43.269,46.76a1.245,1.245,0,0,1-1.76,0l-.217-.217a1.246,1.246,0,0,1,0-1.76L52.03,34.044a1.236,1.236,0,0,1,.88-.365Zm-3.174.218-8.592,8.592-1.522-1.522,8.592-8.592ZM34.1,40.63,47.877,26.854a.182.182,0,0,1,.132-.056.211.211,0,0,1,.041,0,.184.184,0,0,1,.139.115l.7,1.719a.716.716,0,0,1-.157.779L36.662,41.488a.716.716,0,0,1-.779.157l-1.719-.7a.191.191,0,0,1-.063-.312ZM22.628,27.364a1.236,1.236,0,0,1-.88-.365l-.217-.217a1.245,1.245,0,0,1,0-1.76L32.269,14.284a1.245,1.245,0,0,1,1.76,0l.217.217a1.245,1.245,0,0,1,0,1.76L23.508,27a1.238,1.238,0,0,1-.88.364Zm3.174-.218,8.592-8.592,1.522,1.522-8.592,8.592Zm1,4.482L38.876,19.556a.716.716,0,0,1,.779-.157l1.719.7a.191.191,0,0,1,.063.312L27.661,34.19a.191.191,0,0,1-.312-.063l-.7-1.719a.716.716,0,0,1,.157-.779ZM20.446,43.81a1.22,1.22,0,0,1,2.084-.863l2.814,2.814a1.221,1.221,0,1,1-1.726,1.726L20.8,44.673a1.213,1.213,0,0,1-.358-.863ZM15.225,63.3a8.705,8.705,0,0,1-1.382-3.487l2.068-2.24c0,.043,0,.085,0,.128a11.972,11.972,0,0,0,1.338,5.714H15.455A.281.281,0,0,1,15.225,63.3Zm40.907,3.251H19.656a1.046,1.046,0,1,1,0-2.092H56.132a1.046,1.046,0,0,1,0,2.092Z" transform="translate(0.001 -12.193)"/>
              <path id="Trazado_1036007" data-name="Trazado 1036007" d="M203.19,417.166a.863.863,0,1,0,0,1.726h20.1a.863.863,0,1,0,0-1.726Z" transform="translate(-179.05 -370.575)"/>
            </g>
          </g>
        </g>
      </g>
    </g>
  </g>
</svg>
