<svg xmlns="http://www.w3.org/2000/svg" width="86.369" height="86.369" viewBox="0 0 86.369 86.369">
  <g id="Grupo_1212156" data-name="Grupo 1212156" transform="translate(-431.449 -17424.381)">
    <g id="Grupo_1211608" data-name="Grupo 1211608" transform="translate(431.449 17424.381)">
      <g id="Grupo_1099347" data-name="Grupo 1099347" transform="translate(0 0)">
        <g id="Grupo_1099341" data-name="Grupo 1099341" transform="translate(0 0)">
          <g id="Rectángulo_402588" data-name="Rectángulo 402588" transform="translate(0 0)" fill="#f4c5c5" stroke="#fff" stroke-width="5">
            <rect width="86.369" height="86.369" rx="14" stroke="none"/>
            <rect x="2.5" y="2.5" width="81.369" height="81.369" rx="11.5" fill="none"/>
          </g>
        </g>
      </g>
    </g>
    <g id="Page-1" transform="translate(452.99 17437.963)">
      <g id="_002---Mattress" data-name="002---Mattress">
        <rect id="Rectangle" width="41" height="57" rx="4" transform="translate(1.417 1.205)" fill="#02a9f4"/>
        <path id="Path" d="M38.96,1H36a3.947,3.947,0,0,1,3.947,3.947V54.284A3.947,3.947,0,0,1,36,58.231h2.96a3.947,3.947,0,0,0,3.947-3.947V4.947A3.947,3.947,0,0,0,38.96,1Z" transform="translate(-0.477 -0.013)" fill="#0377bc" fill-rule="evenodd"/>
        <path id="Rectangle-2" data-name="Rectangle" d="M0,0H49.337V33.549H0Z" transform="translate(38.483 4.934) rotate(90)" fill="#00bcd4" fill-rule="evenodd"/>
        <path id="Rectangle-3" data-name="Rectangle" d="M36,5h2.96V54.337H36Z" transform="translate(-0.477 -0.066)" fill="#00838f" fill-rule="evenodd"/>
        <g id="Grupo_1212155" data-name="Grupo 1212155">
          <path id="Shape" d="M4.934,59.2H38.483a4.94,4.94,0,0,0,4.934-4.934V4.934A4.94,4.94,0,0,0,38.483,0H4.934A4.94,4.94,0,0,0,0,4.934V54.271A4.94,4.94,0,0,0,4.934,59.2ZM1.973,4.934a2.96,2.96,0,0,1,2.96-2.96H38.483a2.96,2.96,0,0,1,2.96,2.96V54.271a2.96,2.96,0,0,1-2.96,2.96H4.934a2.96,2.96,0,0,1-2.96-2.96Z"/>
          <path id="Shape-2" data-name="Shape" d="M4.987,55.311H38.536a.987.987,0,0,0,.987-.987V4.987A.987.987,0,0,0,38.536,4H4.987A.987.987,0,0,0,4,4.987V54.324A.987.987,0,0,0,4.987,55.311ZM5.973,5.973H37.549V53.337H5.973Z" transform="translate(-0.053 -0.053)"/>
          <path id="Path-2" data-name="Path" d="M11.658,8.289a.987.987,0,0,0-1.4,0l-.289.289-.289-.289a.987.987,0,0,0-1.4,1.4l.289.289-.289.289a.987.987,0,1,0,1.4,1.4l.289-.289.289.289a.987.987,0,0,0,1.4-1.4l-.289-.289.289-.289a.987.987,0,0,0,0-1.4Z" transform="translate(-0.106 -0.106)" fill-rule="evenodd"/>
          <path id="Path-3" data-name="Path" d="M11.658,16.289a.987.987,0,0,0-1.4,0l-.289.289-.289-.289a.987.987,0,0,0-1.4,1.4l.289.289-.289.289a.987.987,0,1,0,1.4,1.4l.289-.289.289.289a.987.987,0,0,0,1.4-1.4l-.289-.289.289-.289a.987.987,0,0,0,0-1.4Z" transform="translate(-0.106 -0.212)" fill-rule="evenodd"/>
          <path id="Path-4" data-name="Path" d="M11.658,24.289a.987.987,0,0,0-1.4,0l-.289.289-.289-.289a.987.987,0,0,0-1.4,1.4l.289.289-.289.289a.987.987,0,1,0,1.4,1.4l.289-.289.289.289a.987.987,0,0,0,1.4-1.4l-.289-.289.289-.289a.987.987,0,0,0,0-1.4Z" transform="translate(-0.106 -0.318)" fill-rule="evenodd"/>
          <path id="Path-5" data-name="Path" d="M11.658,32.289a.987.987,0,0,0-1.4,0l-.289.289-.289-.289a.987.987,0,0,0-1.4,1.4l.289.289-.289.289a.987.987,0,1,0,1.4,1.4l.289-.289.289.289a.987.987,0,0,0,1.4-1.4l-.289-.289.289-.289a.987.987,0,0,0,0-1.4Z" transform="translate(-0.106 -0.424)" fill-rule="evenodd"/>
          <path id="Path-6" data-name="Path" d="M11.658,40.289a.987.987,0,0,0-1.4,0l-.289.289-.289-.289a.987.987,0,0,0-1.4,1.4l.289.289-.289.289a.987.987,0,1,0,1.4,1.4l.289-.289.289.289a.987.987,0,0,0,1.4-1.4l-.289-.289.289-.289a.987.987,0,0,0,0-1.4Z" transform="translate(-0.106 -0.53)" fill-rule="evenodd"/>
          <path id="Path-7" data-name="Path" d="M11.658,48.289a.987.987,0,0,0-1.4,0l-.289.289-.289-.289a.987.987,0,0,0-1.4,1.4l.289.289-.289.289a.987.987,0,1,0,1.4,1.4l.289-.289.289.289a.987.987,0,0,0,1.4-1.4l-.289-.289.289-.289a.987.987,0,0,0,0-1.4Z" transform="translate(-0.106 -0.636)" fill-rule="evenodd"/>
          <path id="Path-8" data-name="Path" d="M23.658,8.289a.987.987,0,0,0-1.4,0l-.289.289-.289-.289a.987.987,0,0,0-1.4,1.4l.289.289-.289.289a.987.987,0,1,0,1.4,1.4l.289-.289.289.289a.987.987,0,0,0,1.4-1.4l-.289-.289.289-.289a.987.987,0,0,0,0-1.4Z" transform="translate(-0.265 -0.106)" fill-rule="evenodd"/>
          <path id="Path-9" data-name="Path" d="M23.658,16.289a.987.987,0,0,0-1.4,0l-.289.289-.289-.289a.987.987,0,0,0-1.4,1.4l.289.289-.289.289a.987.987,0,1,0,1.4,1.4l.289-.289.289.289a.987.987,0,0,0,1.4-1.4l-.289-.289.289-.289A.987.987,0,0,0,23.658,16.289Z" transform="translate(-0.265 -0.212)" fill-rule="evenodd"/>
          <path id="Path-10" data-name="Path" d="M23.658,24.289a.987.987,0,0,0-1.4,0l-.289.289-.289-.289a.987.987,0,0,0-1.4,1.4l.289.289-.289.289a.987.987,0,1,0,1.4,1.4l.289-.289.289.289a.987.987,0,0,0,1.4-1.4l-.289-.289.289-.289A.987.987,0,0,0,23.658,24.289Z" transform="translate(-0.265 -0.318)" fill-rule="evenodd"/>
          <path id="Path-11" data-name="Path" d="M23.658,32.289a.987.987,0,0,0-1.4,0l-.289.289-.289-.289a.987.987,0,0,0-1.4,1.4l.289.289-.289.289a.987.987,0,1,0,1.4,1.4l.289-.289.289.289a.987.987,0,0,0,1.4-1.4l-.289-.289.289-.289A.987.987,0,0,0,23.658,32.289Z" transform="translate(-0.265 -0.424)" fill-rule="evenodd"/>
          <path id="Path-12" data-name="Path" d="M23.658,40.289a.987.987,0,0,0-1.4,0l-.289.289-.289-.289a.987.987,0,0,0-1.4,1.4l.289.289-.289.289a.987.987,0,1,0,1.4,1.4l.289-.289.289.289a.987.987,0,0,0,1.4-1.4l-.289-.289.289-.289A.987.987,0,0,0,23.658,40.289Z" transform="translate(-0.265 -0.53)" fill-rule="evenodd"/>
          <path id="Path-13" data-name="Path" d="M23.658,48.289a.987.987,0,0,0-1.4,0l-.289.289-.289-.289a.987.987,0,0,0-1.4,1.4l.289.289-.289.289a.987.987,0,1,0,1.4,1.4l.289-.289.289.289a.987.987,0,0,0,1.4-1.4l-.289-.289.289-.289A.987.987,0,0,0,23.658,48.289Z" transform="translate(-0.265 -0.636)" fill-rule="evenodd"/>
          <path id="Path-14" data-name="Path" d="M35.658,8.289a.987.987,0,0,0-1.4,0l-.289.289-.289-.289a.987.987,0,0,0-1.4,1.4l.289.289-.289.289a.987.987,0,1,0,1.4,1.4l.289-.289.289.289a.987.987,0,0,0,1.4-1.4l-.289-.289.289-.289a.987.987,0,0,0,0-1.4Z" transform="translate(-0.424 -0.106)" fill-rule="evenodd"/>
          <path id="Path-15" data-name="Path" d="M35.658,16.289a.987.987,0,0,0-1.4,0l-.289.289-.289-.289a.987.987,0,0,0-1.4,1.4l.289.289-.289.289a.987.987,0,1,0,1.4,1.4l.289-.289.289.289a.987.987,0,0,0,1.4-1.4l-.289-.289.289-.289A.987.987,0,0,0,35.658,16.289Z" transform="translate(-0.424 -0.212)" fill-rule="evenodd"/>
          <path id="Path-16" data-name="Path" d="M35.658,24.289a.987.987,0,0,0-1.4,0l-.289.289-.289-.289a.987.987,0,0,0-1.4,1.4l.289.289-.289.289a.987.987,0,1,0,1.4,1.4l.289-.289.289.289a.987.987,0,0,0,1.4-1.4l-.289-.289.289-.289A.987.987,0,0,0,35.658,24.289Z" transform="translate(-0.424 -0.318)" fill-rule="evenodd"/>
          <path id="Path-17" data-name="Path" d="M35.658,32.289a.987.987,0,0,0-1.4,0l-.289.289-.289-.289a.987.987,0,0,0-1.4,1.4l.289.289-.289.289a.987.987,0,1,0,1.4,1.4l.289-.289.289.289a.987.987,0,0,0,1.4-1.4l-.289-.289.289-.289A.987.987,0,0,0,35.658,32.289Z" transform="translate(-0.424 -0.424)" fill-rule="evenodd"/>
          <path id="Path-18" data-name="Path" d="M35.658,40.289a.987.987,0,0,0-1.4,0l-.289.289-.289-.289a.987.987,0,0,0-1.4,1.4l.289.289-.289.289a.987.987,0,1,0,1.4,1.4l.289-.289.289.289a.987.987,0,0,0,1.4-1.4l-.289-.289.289-.289A.987.987,0,0,0,35.658,40.289Z" transform="translate(-0.424 -0.53)" fill-rule="evenodd"/>
          <path id="Path-19" data-name="Path" d="M35.658,48.289a.987.987,0,0,0-1.4,0l-.289.289-.289-.289a.987.987,0,0,0-1.4,1.4l.289.289-.289.289a.987.987,0,1,0,1.4,1.4l.289-.289.289.289a.987.987,0,0,0,1.4-1.4l-.289-.289.289-.289A.987.987,0,0,0,35.658,48.289Z" transform="translate(-0.424 -0.636)" fill-rule="evenodd"/>
        </g>
      </g>
    </g>
  </g>
</svg>
