<svg xmlns="http://www.w3.org/2000/svg" width="86.369" height="86.369" viewBox="0 0 86.369 86.369">
  <g id="Grupo_1212173" data-name="Grupo 1212173" transform="translate(8899.457 -6199.381)">
    <g id="Grupo_1211614" data-name="Grupo 1211614" transform="translate(-8899.457 6199.381)">
      <g id="Grupo_1099347" data-name="Grupo 1099347" transform="translate(0 0)">
        <g id="Grupo_1099341" data-name="Grupo 1099341" transform="translate(0 0)">
          <g id="Rectángulo_402588" data-name="Rectángulo 402588" transform="translate(0 0)" fill="#f4c5c5" stroke="#fff" stroke-width="5">
            <rect width="86.369" height="86.369" rx="14" stroke="none"/>
            <rect x="2.5" y="2.5" width="81.369" height="81.369" rx="11.5" fill="none"/>
          </g>
        </g>
      </g>
    </g>
    <g id="light-bulb_252640" transform="translate(-8957.619 6217.771)">
      <path id="Trazado_1036078" data-name="Trazado 1036078" d="M125.3,22.408A16.812,16.812,0,0,0,110.507,7.62c-.43,0-.946-.086-1.462-.086a8.345,8.345,0,0,0-1.462.086A16.9,16.9,0,0,0,92.8,22.408a16.568,16.568,0,0,0,5.073,13.929,14.2,14.2,0,0,1,4.3,7.308h13.757a14.2,14.2,0,0,1,4.3-7.308A16.568,16.568,0,0,0,125.3,22.408" transform="translate(-7.698 -7.674)" fill="#ffdd09"/>
      <path id="Trazado_1036079" data-name="Trazado 1036079" d="M259.74,22.407A16.812,16.812,0,0,0,244.951,7.619a7.861,7.861,0,0,0-1.462-.086,6.51,6.51,0,0,0-1.29.086h.172A16.9,16.9,0,0,1,257.16,22.407a16.568,16.568,0,0,1-5.073,13.929,14.2,14.2,0,0,0-4.3,7.308h2.579a14.2,14.2,0,0,1,4.3-7.308,16.568,16.568,0,0,0,5.073-13.929" transform="translate(-142.142 -7.673)" fill="#fd9808"/>
      <path id="Trazado_1036080" data-name="Trazado 1036080" d="M92.8,22.408A16.812,16.812,0,0,1,107.584,7.62c.516,0,.946-.086,1.462-.086a6.51,6.51,0,0,1,1.29.086h-.172A16.9,16.9,0,0,0,95.375,22.408a16.568,16.568,0,0,0,5.073,13.929,14.2,14.2,0,0,1,4.3,7.308h-2.579a14.2,14.2,0,0,0-4.3-7.308A16.568,16.568,0,0,1,92.8,22.408" transform="translate(-7.698 -7.674)" fill="#fff"/>
      <path id="Trazado_1036081" data-name="Trazado 1036081" d="M186.733,365.933v10.317H200.49V365.933Z" transform="translate(-92.264 -329.962)" fill="#ffdd09"/>
      <path id="Trazado_1036082" data-name="Trazado 1036082" d="M297.667,376.251h2.579V365.933h-2.579Z" transform="translate(-192.021 -329.962)" fill="#fd9808"/>
      <path id="Trazado_1036083" data-name="Trazado 1036083" d="M186.733,376.251h2.579V365.933h-2.579Z" transform="translate(-92.264 -329.962)" fill="#fff"/>
      <path id="Trazado_1036084" data-name="Trazado 1036084" d="M210.248,471.773h-2.579a2.564,2.564,0,0,1-2.063-1.032l-1.806-2.407h10.317l-1.806,2.407a2.451,2.451,0,0,1-2.064,1.032" transform="translate(-107.611 -422.045)" fill="#ffdd09"/>
      <path id="Trazado_1036085" data-name="Trazado 1036085" d="M173.235,77.584A10.317,10.317,0,1,0,162.917,87.9a10.348,10.348,0,0,0,10.317-10.317" transform="translate(-61.57 -61.389)" fill="#1cd759"/>
      <path id="Trazado_1036086" data-name="Trazado 1036086" d="M251.228,77.585A10.315,10.315,0,0,0,242.2,67.353a6.51,6.51,0,0,1,1.29-.086,10.317,10.317,0,1,1,0,20.635,6.51,6.51,0,0,1-1.29-.086,10.315,10.315,0,0,0,9.028-10.232" transform="translate(-142.142 -61.389)" fill="#15a143"/>
      <path id="Trazado_1036087" data-name="Trazado 1036087" d="M192.816,369.438H179.06a.812.812,0,0,1-.86-.86V358.261a.812.812,0,0,1,.86-.86h13.757a.812.812,0,0,1,.86.86v10.318A.812.812,0,0,1,192.816,369.438Zm-12.9-1.72h12.037v-8.6H179.92Z" transform="translate(-84.591 -322.29)"/>
      <path id="Trazado_1036088" data-name="Trazado 1036088" d="M202.505,464.96h-2.579a3.462,3.462,0,0,1-2.751-1.376l-1.806-2.407a.791.791,0,0,1-.086-.86.988.988,0,0,1,.774-.516h10.317a.826.826,0,0,1,.774.516.791.791,0,0,1-.086.86l-1.806,2.407A3.342,3.342,0,0,1,202.505,464.96Zm-4.729-3.439.774,1.032a1.8,1.8,0,0,0,1.376.688h2.579a1.8,1.8,0,0,0,1.376-.688l.774-1.032Z" transform="translate(-99.868 -414.372)"/>
      <path id="Trazado_1036089" data-name="Trazado 1036089" d="M185.079,393.254h-6.019a.86.86,0,1,1,0-1.719h6.019a.86.86,0,1,1,0,1.719Z" transform="translate(-84.592 -352.984)"/>
      <path id="Trazado_1036090" data-name="Trazado 1036090" d="M261.879,427.387h-6.019a.86.86,0,1,1,0-1.72h6.019a.86.86,0,0,1,0,1.72Z" transform="translate(-153.654 -383.677)"/>
      <path id="Trazado_1036091" data-name="Trazado 1036091" d="M284.9,393.254h-3.439a.86.86,0,1,1,0-1.719H284.9a.86.86,0,0,1,0,1.719Z" transform="translate(-176.674 -352.984)"/>
      <path id="Trazado_1036092" data-name="Trazado 1036092" d="M182.5,427.387h-3.439a.86.86,0,0,1,0-1.72H182.5a.86.86,0,1,1,0,1.72Z" transform="translate(-84.592 -383.677)"/>
      <path id="Trazado_1036093" data-name="Trazado 1036093" d="M108.226,36.831H94.469a.837.837,0,0,1-.86-.688,13.8,13.8,0,0,0-4.041-6.792A17.643,17.643,0,0,1,99.714-.914c.516,0,1.032-.086,1.634-.086s1.118.086,1.634.086a17.554,17.554,0,0,1,15.476,15.562h0a17.749,17.749,0,0,1-5.331,14.7,13.189,13.189,0,0,0-4.041,6.792A.837.837,0,0,1,108.226,36.831Zm-13.069-1.72h12.381a16.387,16.387,0,0,1,4.385-7.05,15.839,15.839,0,0,0,4.815-13.241h0A15.984,15.984,0,0,0,102.723.806c-.43,0-.86-.086-1.376-.086s-.946.086-1.376.086A16.068,16.068,0,0,0,85.957,14.82a15.839,15.839,0,0,0,4.815,13.241A16.389,16.389,0,0,1,95.157,35.111Z" transform="translate(0)"/>
      <path id="Trazado_1036094" data-name="Trazado 1036094" d="M155.244,81.088A11.177,11.177,0,1,1,166.421,69.91,11.155,11.155,0,0,1,155.244,81.088Zm0-20.635A9.458,9.458,0,1,0,164.7,69.91,9.485,9.485,0,0,0,155.244,60.453Z" transform="translate(-53.897 -53.715)"/>
      <path id="Trazado_1036095" data-name="Trazado 1036095" d="M208.1,174.826a.78.78,0,0,1-.6-.258l-3.439-3.439a.851.851,0,0,1,1.2-1.2l3.439,3.439a.831.831,0,0,1,0,1.2A.781.781,0,0,1,208.1,174.826Z" transform="translate(-107.613 -153.471)"/>
      <path id="Trazado_1036096" data-name="Trazado 1036096" d="M238.99,136.653a1.221,1.221,0,0,1-.516-.172.925.925,0,0,1-.172-1.2l6.018-7.738a.86.86,0,1,1,1.376,1.032l-6.019,7.738A.782.782,0,0,1,238.99,136.653Z" transform="translate(-138.502 -115.299)"/>
    </g>
  </g>
</svg>
