<svg xmlns="http://www.w3.org/2000/svg" xmlns:xlink="http://www.w3.org/1999/xlink" width="103" height="103" viewBox="0 0 103 103">
  <defs>
    <filter id="Trazado_896985" x="0" y="0" width="103" height="103" filterUnits="userSpaceOnUse">
      <feOffset dy="3" input="SourceAlpha"/>
      <feGaussianBlur stdDeviation="3" result="blur"/>
      <feFlood flood-opacity="0.161"/>
      <feComposite operator="in" in2="blur"/>
      <feComposite in="SourceGraphic"/>
    </filter>
  </defs>
  <g id="Grupo_1213734" data-name="Grupo 1213734" transform="translate(-831.887 -3221.999)">
    <g id="Grupo_1200182" data-name="Grupo 1200182" transform="translate(632.047 -5649.137)">
      <g id="Grupo_1198723" data-name="Grupo 1198723" transform="translate(208.84 8877.136)">
        <g id="Grupo_1198139" data-name="Grupo 1198139" transform="translate(0 0)">
          <g id="Grupo_1111318" data-name="Grupo 1111318" transform="translate(0 0)">
            <g id="Grupo_1109826" data-name="Grupo 1109826" transform="translate(0)">
              <g id="Grupo_1098742" data-name="Grupo 1098742" transform="translate(0)">
                <g transform="matrix(1, 0, 0, 1, -9, -6)" filter="url(#Trazado_896985)">
                  <g id="Trazado_896985-2" data-name="Trazado 896985" transform="translate(9 6)" fill="#efd026" opacity="0.859">
                    <path d="M 42.49993133544922 84.49998474121094 C 36.82975387573242 84.49998474121094 31.32945442199707 83.38957977294922 26.15180969238281 81.19962310791016 C 21.15055274963379 79.08426666259766 16.65885353088379 76.05584716796875 12.80149841308594 72.19849395751953 C 8.944130897521973 68.34112548828125 5.915709018707275 63.84943771362305 3.800353527069092 58.84817123413086 C 1.610398054122925 53.67052459716797 0.4999980032444 48.17022705078125 0.4999980032444 42.50004959106445 C 0.4999980032444 36.82975769042969 1.610398054122925 31.32945823669434 3.800353527069092 26.15181541442871 C 5.915709018707275 21.15055847167969 8.944130897521973 16.65885925292969 12.80149841308594 12.80150318145752 C 16.65885353088379 8.944136619567871 21.15055274963379 5.915714740753174 26.15180969238281 3.800359010696411 C 31.32945442199707 1.610403537750244 36.82975387573242 0.500003457069397 42.49993133544922 0.500003457069397 C 48.17010879516602 0.500003457069397 53.67041015625 1.610403537750244 58.84805297851562 3.800359010696411 C 63.84930801391602 5.915714740753174 68.34101104736328 8.944136619567871 72.1983642578125 12.80150318145752 C 76.05573272705078 16.65885925292969 79.08415222167969 21.15055847167969 81.19950866699219 26.15181541442871 C 83.38946533203125 31.32945823669434 84.49986267089844 36.82975769042969 84.49986267089844 42.49993515014648 C 84.49986267089844 48.17022705078125 83.38946533203125 53.67052459716797 81.19950866699219 58.84817123413086 C 79.08415222167969 63.84943771362305 76.05573272705078 68.34112548828125 72.1983642578125 72.19849395751953 C 68.34101104736328 76.05584716796875 63.84930801391602 79.08426666259766 58.84805297851562 81.19962310791016 C 53.67041015625 83.38957977294922 48.17010879516602 84.49998474121094 42.49993133544922 84.49998474121094 Z" stroke="none"/>
                    <path d="M 42.49993133544922 1.000007629394531 C 36.89703750610352 1.000007629394531 31.46226119995117 2.097122192382812 26.34659194946289 4.2608642578125 C 21.40493011474609 6.35101318359375 16.96665191650391 9.343452453613281 13.15505218505859 13.15505218505859 C 9.343452453613281 16.96665954589844 6.351005554199219 21.40493392944336 4.2608642578125 26.34659194946289 C 2.09710693359375 31.46227645874023 1 36.89704132080078 1 42.50004959106445 C 1 48.10294342041016 2.09710693359375 53.5377197265625 4.2608642578125 58.65339279174805 C 6.351005554199219 63.59505081176758 9.343452453613281 68.03333282470703 13.15505218505859 71.84493255615234 C 16.96665191650391 75.65653228759766 21.40493011474609 78.64897918701172 26.34659194946289 80.73912048339844 C 31.46226119995117 82.90287780761719 36.89703750610352 83.99997711181641 42.49993133544922 83.99997711181641 C 48.10282516479492 83.99997711181641 53.53759002685547 82.90287780761719 58.65327453613281 80.73912048339844 C 63.59493255615234 78.64897918701172 68.033203125 75.65653228759766 71.84481048583984 71.84493255615234 C 75.65641784667969 68.03333282470703 78.64884948730469 63.59505081176758 80.73899841308594 58.65339279174805 C 82.90274047851562 53.5377197265625 83.99986267089844 48.10294342041016 83.99986267089844 42.49993515014648 C 83.99986267089844 36.89704132080078 82.90274047851562 31.46227645874023 80.73899841308594 26.34659194946289 C 78.64884948730469 21.40493392944336 75.65641784667969 16.96665954589844 71.84481048583984 13.15505218505859 C 68.033203125 9.343452453613281 63.59493255615234 6.35101318359375 58.65327453613281 4.2608642578125 C 53.53759002685547 2.097122192382812 48.10282516479492 1.000007629394531 42.49993133544922 1.000007629394531 M 42.49993133544922 7.62939453125e-06 C 65.97199249267578 7.62939453125e-06 84.99986267089844 19.02787780761719 84.99986267089844 42.49993515014648 L 84.99986267089844 42.50004959106445 C 84.99986267089844 65.97212219238281 65.97199249267578 84.99997711181641 42.49993133544922 84.99997711181641 C 19.02786254882812 84.99997711181641 0 65.97212219238281 0 42.50004959106445 L 0 42.49993515014648 C 0 19.02787780761719 19.02786254882812 7.62939453125e-06 42.49993133544922 7.62939453125e-06 Z" stroke="none" fill="#fff"/>
                  </g>
                </g>
                <g id="Rectángulo_400907" data-name="Rectángulo 400907" transform="translate(0)" fill="none" stroke="#fff" stroke-width="1">
                  <rect width="85" height="85" rx="42.5" stroke="none"/>
                  <rect x="0.5" y="0.5" width="84" height="84" rx="42" fill="none"/>
                </g>
              </g>
            </g>
          </g>
        </g>
      </g>
    </g>
    <g id="cow_6253858" transform="translate(856.693 3244)">
      <g id="Grupo_1211865" data-name="Grupo 1211865" transform="translate(0.861 1.594)">
        <g id="Grupo_1211853" data-name="Grupo 1211853" transform="translate(44.776 6.889)">
          <path id="Trazado_1034287" data-name="Trazado 1034287" d="M57.305,9.851h2.583a4.307,4.307,0,0,1-4.305,4.305h-.861L53,10.712l1.257-.422a8.614,8.614,0,0,1,2.721-.439Z" transform="translate(-53 -9.851)" fill="#969faa"/>
        </g>
        <g id="Grupo_1211854" data-name="Grupo 1211854" transform="translate(44.32)">
          <path id="Trazado_1034288" data-name="Trazado 1034288" d="M58.093,5.769a5.29,5.29,0,0,1-.56,2.368l-.3.6H56.9a8.614,8.614,0,0,0-2.721.439L52.926,9.6V7.879a1.694,1.694,0,0,0-.456-1.162l.861-.646a8.734,8.734,0,0,0,3.04-4.219l.172.172A5.306,5.306,0,0,1,58.093,5.769Z" transform="translate(-52.47 -1.851)" fill="#838f9b"/>
        </g>
        <g id="Grupo_1211855" data-name="Grupo 1211855" transform="translate(32.721 7.75)">
          <path id="Trazado_1034289" data-name="Trazado 1034289" d="M51.055,10.851,52.777,14.3l-2.084,4.857a2.791,2.791,0,0,0-2.428-1.412,2.822,2.822,0,0,0-1.24.293l-1.137.568-1.137-.568a2.822,2.822,0,0,0-1.24-.293,2.764,2.764,0,0,0-1.972.818,3.11,3.11,0,0,0-.456.594l-.241-.551L39,14.3l1.722-3.444Z" transform="translate(-39 -10.851)" fill="#aab2bd"/>
        </g>
        <g id="Grupo_1211856" data-name="Grupo 1211856" transform="translate(34.443 14.638)">
          <path id="Trazado_1034290" data-name="Trazado 1034290" d="M51.333,21.641v1.516a2.556,2.556,0,0,1-1.722,2.428,2.387,2.387,0,0,1-.861.155H43.583a2.387,2.387,0,0,1-.861-.155A2.555,2.555,0,0,1,41,23.156V21.641a2.739,2.739,0,0,1,.362-1.378,3.111,3.111,0,0,1,.456-.594,2.764,2.764,0,0,1,1.972-.818,2.822,2.822,0,0,1,1.24.293l1.137.568,1.137-.568a2.822,2.822,0,0,1,1.24-.293,2.791,2.791,0,0,1,2.428,1.412,2.739,2.739,0,0,1,.362,1.378Z" transform="translate(-41 -18.851)" fill="#ccd1d9"/>
        </g>
        <g id="Grupo_1211857" data-name="Grupo 1211857" transform="translate(34.443 4.305)">
          <path id="Trazado_1034291" data-name="Trazado 1034291" d="M51.333,8.573V10.3H41V8.573a1.694,1.694,0,0,1,.456-1.162,1.717,1.717,0,0,1,1.266-.56h6.889a1.717,1.717,0,0,1,1.266.56A1.694,1.694,0,0,1,51.333,8.573Z" transform="translate(-41 -6.851)" fill="#aab2bd"/>
        </g>
        <g id="Grupo_1211858" data-name="Grupo 1211858" transform="translate(36.165 21.372)">
          <path id="Trazado_1034292" data-name="Trazado 1034292" d="M49.889,26.68v1.007a2.555,2.555,0,0,1-1.722,2.428,2.387,2.387,0,0,1-.861.155H45.583A2.58,2.58,0,0,1,43,27.687V26.671a2.387,2.387,0,0,0,.861.155h5.166a2.387,2.387,0,0,0,.861-.155Z" transform="translate(-43 -26.671)" fill="#ff826e"/>
        </g>
        <g id="Grupo_1211859" data-name="Grupo 1211859" transform="translate(0 15.499)">
          <path id="Trazado_1034293" data-name="Trazado 1034293" d="M28.865,44.822h-6.63a11.727,11.727,0,0,1-5.855-1.559l-.009-.009a3.311,3.311,0,0,1-.2.327L15.5,44.6a4.291,4.291,0,0,0-.723,2.385v4.727H11.333v-1.3a5.16,5.16,0,0,0-1.516-3.66L9.4,46.338a5.16,5.16,0,0,1-1.516-3.66V41.464a5.146,5.146,0,0,0-1.128-3.22l-.293-.37a9.225,9.225,0,0,1-2.024-5.761v7.336a3.111,3.111,0,0,1-1.722,2.79A3.111,3.111,0,0,1,1,39.449V32.767A15,15,0,0,1,6.227,21.392a2.854,2.854,0,0,1,3.126-.379l.663.327a10.225,10.225,0,0,0,4.615,1.094H29.416a8.589,8.589,0,0,0,6.148-2.583l.241.551a2.739,2.739,0,0,0-.362,1.378V23.3a2.555,2.555,0,0,0,1.722,2.428V26.74a2.58,2.58,0,0,0,2.583,2.583h1.722a2.387,2.387,0,0,0,.861-.155V33.06a11.734,11.734,0,0,1-3.823,8.68A8.529,8.529,0,0,1,37,44.6l-.8,1a3.435,3.435,0,0,0-.758,2.153v3.961H32V49.7a3.448,3.448,0,0,0-1.007-2.437L29.562,45.83A3.521,3.521,0,0,1,28.865,44.822Z" transform="translate(-1 -19.851)" fill="#aab2bd"/>
        </g>
        <g id="Grupo_1211860" data-name="Grupo 1211860" transform="translate(29.277 47.36)">
          <path id="Trazado_1034294" data-name="Trazado 1034294" d="M41.889,58.78v.654a.864.864,0,0,1-.861.861H35.861A.864.864,0,0,1,35,59.434V58.78a1.722,1.722,0,0,1,.956-1.541l.766-.387h3.444l.766.387A1.722,1.722,0,0,1,41.889,58.78Z" transform="translate(-35 -56.851)" fill="#969faa"/>
        </g>
        <g id="Grupo_1211861" data-name="Grupo 1211861" transform="translate(29.277 0)">
          <path id="Trazado_1034295" data-name="Trazado 1034295" d="M39.762,6.07l.861.646a1.694,1.694,0,0,0-.456,1.162V9.6l-1.257-.422a8.614,8.614,0,0,0-2.721-.439h-.327l-.3-.6a5.3,5.3,0,0,1,.99-6.114l.172-.172a8.734,8.734,0,0,0,3.04,4.219Z" transform="translate(-35 -1.851)" fill="#838f9b"/>
        </g>
        <g id="Grupo_1211862" data-name="Grupo 1211862" transform="translate(27.555 6.889)">
          <path id="Trazado_1034296" data-name="Trazado 1034296" d="M39.889,10.712l-1.722,3.444h-.861A4.292,4.292,0,0,1,33,9.851h2.91a8.614,8.614,0,0,1,2.721.439Z" transform="translate(-33 -9.851)" fill="#969faa"/>
        </g>
        <g id="Grupo_1211863" data-name="Grupo 1211863" transform="translate(8.611 47.36)">
          <path id="Trazado_1034297" data-name="Trazado 1034297" d="M17.889,58.78v.654a.864.864,0,0,1-.861.861H11.861A.864.864,0,0,1,11,59.434V58.78a1.722,1.722,0,0,1,.956-1.541l.766-.387h3.444l.766.387A1.722,1.722,0,0,1,17.889,58.78Z" transform="translate(-11 -56.851)" fill="#969faa"/>
        </g>
        <g id="Grupo_1211864" data-name="Grupo 1211864" transform="translate(0 37.888)">
          <path id="Trazado_1034298" data-name="Trazado 1034298" d="M4.444,49.063a3.563,3.563,0,0,1-.6,2L2.722,52.74,1.6,51.061a3.6,3.6,0,0,1,.456-4.547l.663-.663.663.663A3.6,3.6,0,0,1,4.444,49.063Z" transform="translate(-1 -45.851)" fill="#969faa"/>
        </g>
      </g>
      <g id="Grupo_1211866" data-name="Grupo 1211866" transform="translate(0 0)">
        <circle id="Elipse_12158" data-name="Elipse 12158" cx="0.861" cy="0.861" r="0.861" transform="translate(36.165 11.927)"/>
        <circle id="Elipse_12159" data-name="Elipse 12159" cx="0.861" cy="0.861" r="0.861" transform="translate(43.054 11.927)"/>
        <circle id="Elipse_12160" data-name="Elipse 12160" cx="0.861" cy="0.861" r="0.861" transform="translate(41.332 18.816)"/>
        <circle id="Elipse_12161" data-name="Elipse 12161" cx="0.861" cy="0.861" r="0.861" transform="translate(37.888 18.816)"/>
        <path id="Trazado_1034299" data-name="Trazado 1034299" d="M51.29,7.621a6.2,6.2,0,0,0,.375-2.111,6.118,6.118,0,0,0-1.8-4.354L48.705,0l-.441,1.322a7.82,7.82,0,0,1-2.741,3.8l-.345.259a2.558,2.558,0,0,0-1.263-.344H37.027a2.556,2.556,0,0,0-1.263.344l-.347-.26a7.825,7.825,0,0,1-2.74-3.8L32.236,0,31.081,1.156a6.118,6.118,0,0,0-1.8,4.354,6.2,6.2,0,0,0,.375,2.111h-2.1v.861a5.172,5.172,0,0,0,5.166,5.166h.294L34.4,16.873a7.8,7.8,0,0,1-5.12,1.943H14.495a9.521,9.521,0,0,1-4.237-1L9.6,17.484a3.775,3.775,0,0,0-4.066.5A15.822,15.822,0,0,0,0,30.009V36.7a3.952,3.952,0,0,0,1.259,2.9A4.45,4.45,0,0,0,.75,45.172l1.833,2.75,1.833-2.75a4.452,4.452,0,0,0,.75-2.476,4.429,4.429,0,0,0-1.259-3.1,3.954,3.954,0,0,0,1.259-2.9v-1.7c.153.228.315.451.487.666l.291.363a4.322,4.322,0,0,1,.944,2.69v1.214a5.987,5.987,0,0,0,1.765,4.261l.418.418a4.277,4.277,0,0,1,1.261,3.044v.772l-.294.147a2.572,2.572,0,0,0-1.428,2.311v.658a1.724,1.724,0,0,0,1.722,1.722H15.5a1.724,1.724,0,0,0,1.722-1.722v-.658a2.57,2.57,0,0,0-1.428-2.31l-.294-.147V44.229a3.431,3.431,0,0,1,.579-1.911l.456-.684a12.641,12.641,0,0,0,5.559,1.291h6.13a4.257,4.257,0,0,0,.593.756l1.426,1.427A2.6,2.6,0,0,1,31,46.936v1.485l-.294.147a2.57,2.57,0,0,0-1.428,2.31v.658A1.724,1.724,0,0,0,31,53.259h5.166a1.724,1.724,0,0,0,1.722-1.722v-.658a2.57,2.57,0,0,0-1.428-2.31l-.294-.147V44.995a2.593,2.593,0,0,1,.567-1.615l.8-1a9.455,9.455,0,0,0,1.584-2.93A12.64,12.64,0,0,0,43.054,30.3V26.947a3.433,3.433,0,0,0,1.722-2.966V23.5A3.433,3.433,0,0,0,46.5,20.537V19.018a3.62,3.62,0,0,0-.278-1.388l1.707-3.982h.294a5.172,5.172,0,0,0,5.166-5.166V7.621h-2.1ZM46.558,6.5a9.522,9.522,0,0,0,2.761-3.261,4.41,4.41,0,0,1,.623,2.271,4.46,4.46,0,0,1-.468,1.984l-.068.136a9.45,9.45,0,0,0-2.783.478l-.125.041V7.621a2.563,2.563,0,0,0-.183-.939Zm-9.531.26h6.889a.862.862,0,0,1,.861.861v.861H36.165V7.621A.862.862,0,0,1,37.027,6.76Zm-5.4-3.521A9.535,9.535,0,0,0,34.383,6.5l.244.183a2.546,2.546,0,0,0-.183.939v.528l-.125-.041a9.451,9.451,0,0,0-2.784-.478l-.068-.136A4.47,4.47,0,0,1,31,5.51a4.41,4.41,0,0,1,.623-2.271Zm-2.236,6.1h1.937a7.721,7.721,0,0,1,2.451.4l.316.105-1.04,2.08h-.329A3.45,3.45,0,0,1,29.386,9.344ZM2.984,44.217l-.4.6-.4-.6a2.74,2.74,0,0,1,.343-3.459l.058-.059.058.059a2.72,2.72,0,0,1,.8,1.938,2.734,2.734,0,0,1-.461,1.522ZM15.5,51.537H10.333v-.658a.856.856,0,0,1,.476-.77l.589-.294h3.037l.589.294a.856.856,0,0,1,.475.77Zm20.666,0H31v-.658a.856.856,0,0,1,.476-.77l.589-.294H35.1l.589.294a.856.856,0,0,1,.475.77ZM41.332,30.3a10.909,10.909,0,0,1-1.722,5.85V32.593H37.888v3.868a7.774,7.774,0,0,1-1.7,4.842l-.8,1a4.331,4.331,0,0,0-.943,2.689v3.1H32.721V46.936a4.278,4.278,0,0,0-1.261-3.044l-1.426-1.427a2.6,2.6,0,0,1-.757-1.827v-1.67a4.329,4.329,0,0,0-.944-2.69L27.087,34.72a5.726,5.726,0,0,1-.293-6.753l.616-.924-1.433-.955-.616.924a7.447,7.447,0,0,0,.381,8.785l1.245,1.558a2.59,2.59,0,0,1,.567,1.614v1.671a4.416,4.416,0,0,0,.055.566H22.093a10.9,10.9,0,0,1-4.654-1.068,12.986,12.986,0,0,0,1.505-6.065,13.125,13.125,0,0,0-2.608-7.826l-.146-.2L14.81,27.081l.147.2a11.392,11.392,0,0,1,2.265,6.793,11.29,11.29,0,0,1-1.9,6.28l-.675,1.013a5.154,5.154,0,0,0-.868,2.867v3.863H12.055v-.443a5.987,5.987,0,0,0-1.765-4.262l-.418-.418a4.275,4.275,0,0,1-1.261-3.044V38.711A6.057,6.057,0,0,0,7.29,34.944L7,34.581a8.36,8.36,0,0,1-.428-9.861l.173-.26L5.311,23.5l-.173.26a10.045,10.045,0,0,0-1.694,5.593V36.7a2.231,2.231,0,0,1-.758,1.671l-.1-.1-.1.1A2.234,2.234,0,0,1,1.722,36.7V30.009a14.1,14.1,0,0,1,4.93-10.716,2.019,2.019,0,0,1,2.174-.267l.662.331a11.253,11.253,0,0,0,5.006,1.182H29.277a9.523,9.523,0,0,0,5.169-1.547c0,.009,0,.018,0,.028v1.519A3.433,3.433,0,0,0,36.165,23.5v.479a3.448,3.448,0,0,0,3.444,3.444h1.722Zm0-4.6H39.61a1.724,1.724,0,0,1-1.722-1.722h5.166A1.724,1.724,0,0,1,41.332,25.7Zm3.444-5.166a1.724,1.724,0,0,1-1.722,1.722H37.888a1.724,1.724,0,0,1-1.722-1.722V19.019A1.925,1.925,0,0,1,38.952,17.3l1.519.759L41.99,17.3a1.925,1.925,0,0,1,2.786,1.722Zm.231-4.445a3.611,3.611,0,0,0-2.156-.721,3.675,3.675,0,0,0-1.632.385l-.748.374-.748-.375a3.672,3.672,0,0,0-1.632-.385,3.619,3.619,0,0,0-2.156.721l-1.4-3.276L35.837,10.2h9.269l1.306,2.611Zm3.214-4.166h-.329l-1.04-2.08.316-.105a7.721,7.721,0,0,1,2.451-.4h1.937A3.45,3.45,0,0,1,48.221,11.927Z" transform="translate(0 0)"/>
      </g>
    </g>
  </g>
</svg>
