<svg xmlns="http://www.w3.org/2000/svg" xmlns:xlink="http://www.w3.org/1999/xlink" width="118" height="118" viewBox="0 0 118 118">
  <defs>
    <filter id="Trazado_896985" x="0" y="0" width="118" height="118" filterUnits="userSpaceOnUse">
      <feOffset dy="3" input="SourceAlpha"/>
      <feGaussianBlur stdDeviation="3" result="blur"/>
      <feFlood flood-opacity="0.161"/>
      <feComposite operator="in" in2="blur"/>
      <feComposite in="SourceGraphic"/>
    </filter>
  </defs>
  <g id="Grupo_1212198" data-name="Grupo 1212198" transform="translate(-196.891 -17929)">
    <g id="Grupo_1200012" data-name="Grupo 1200012" transform="translate(-0.949 13650.111)">
      <g id="Grupo_1198723" data-name="Grupo 1198723" transform="translate(0.95 -182.434)">
        <g id="Grupo_1198139" data-name="Grupo 1198139" transform="translate(-129 615.322)">
          <g id="Grupo_1111318" data-name="Grupo 1111318" transform="translate(334.891 3852)">
            <g id="Grupo_1109826" data-name="Grupo 1109826" transform="translate(0)">
              <g id="Grupo_1098742" data-name="Grupo 1098742" transform="translate(0 0)">
                <g transform="matrix(1, 0, 0, 1, -9, -6)" filter="url(#Trazado_896985)">
                  <g id="Trazado_896985-2" data-name="Trazado 896985" transform="translate(9 6)" fill="#efd026" opacity="0.859">
                    <path d="M 49.99993515014648 99.5 C 43.31726837158203 99.5 36.83476257324219 98.19129943847656 30.73248100280762 95.61025238037109 C 24.83812141418457 93.11714172363281 19.54434776306152 89.54795837402344 14.99820137023926 85.00179290771484 C 10.45204162597656 80.45565032958984 6.88285493850708 75.16187286376953 4.389748573303223 69.26751708984375 C 1.808695197105408 63.16523742675781 0.5000017881393433 56.6827278137207 0.5000017881393433 50.00006103515625 C 0.5000017881393433 43.31726455688477 1.808695197105408 36.83475494384766 4.389748573303223 30.73247528076172 C 6.88285493850708 24.83811569213867 10.45204162597656 19.54434204101562 14.99820137023926 14.99819660186768 C 19.54434776306152 10.45203590393066 24.83812141418457 6.88284969329834 30.73248100280762 4.389742851257324 C 36.83476257324219 1.808689475059509 43.31726837158203 0.4999961853027344 49.99993515014648 0.4999961853027344 C 56.68260192871094 0.4999961853027344 63.16510772705078 1.808689475059509 69.26738739013672 4.389742851257324 C 75.16175079345703 6.88284969329834 80.45552062988281 10.45203590393066 85.00167083740234 14.99819660186768 C 89.54782867431641 19.54434204101562 93.11701202392578 24.83811569213867 95.61012268066406 30.73247528076172 C 98.19117736816406 36.83475494384766 99.49987030029297 43.31726455688477 99.49987030029297 49.99993133544922 C 99.49987030029297 56.6827278137207 98.19117736816406 63.16523742675781 95.61012268066406 69.26751708984375 C 93.11701202392578 75.16187286376953 89.54782867431641 80.45565032958984 85.00167083740234 85.00179290771484 C 80.45552062988281 89.54795837402344 75.16175079345703 93.11714172363281 69.26738739013672 95.61025238037109 C 63.16510772705078 98.19129943847656 56.68260192871094 99.5 49.99993515014648 99.5 Z" stroke="none"/>
                    <path d="M 49.99993515014648 0.9999923706054688 C 43.38454818725586 0.9999923706054688 36.96757507324219 2.29541015625 30.92725372314453 4.850250244140625 C 25.09249877929688 7.318145751953125 19.85213470458984 10.85135650634766 15.35174560546875 15.35174560546875 C 10.85136413574219 19.85212707519531 7.318145751953125 25.09249114990234 4.850257873535156 30.92724609375 C 2.295417785644531 36.96757125854492 1 43.38454437255859 1 50.00006103515625 C 1 56.61544799804688 2.295417785644531 63.03242111206055 4.850257873535156 69.07273864746094 C 7.318145751953125 74.90750122070312 10.85136413574219 80.14786529541016 15.35174560546875 84.64824676513672 C 19.85213470458984 89.14863586425781 25.09249877929688 92.68184661865234 30.92725372314453 95.14974212646484 C 36.96757507324219 97.70458221435547 43.38454818725586 99 49.99993515014648 99 C 56.61532211303711 99 63.03229522705078 97.70458221435547 69.07261657714844 95.14974212646484 C 74.90737915039062 92.68184661865234 80.14773559570312 89.14863586425781 84.64812469482422 84.64824676513672 C 89.14850616455078 80.14786529541016 92.68172454833984 74.90750122070312 95.14961242675781 69.07273864746094 C 97.70445251464844 63.03242111206055 98.99987030029297 56.61544799804688 98.99987030029297 49.99993133544922 C 98.99987030029297 43.38454437255859 97.70445251464844 36.96757125854492 95.14961242675781 30.92724609375 C 92.68172454833984 25.09249114990234 89.14850616455078 19.85212707519531 84.64812469482422 15.35174560546875 C 80.14773559570312 10.85135650634766 74.90737915039062 7.318145751953125 69.07261657714844 4.850250244140625 C 63.03229522705078 2.29541015625 56.61532211303711 0.9999923706054688 49.99993515014648 0.9999923706054688 M 49.99993515014648 -7.62939453125e-06 C 77.6141357421875 -7.62939453125e-06 99.99987030029297 22.38572692871094 99.99987030029297 49.99993133544922 L 99.99987030029297 50.00006103515625 C 99.99987030029297 77.61426544189453 77.6141357421875 100 49.99993515014648 100 C 22.38573455810547 100 0 77.61426544189453 0 50.00006103515625 L 0 49.99993133544922 C 0 22.38572692871094 22.38573455810547 -7.62939453125e-06 49.99993515014648 -7.62939453125e-06 Z" stroke="none" fill="#fff"/>
                  </g>
                </g>
                <g id="Rectángulo_400907" data-name="Rectángulo 400907" transform="translate(0)" fill="none" stroke="#fff" stroke-width="1">
                  <rect width="100" height="100" rx="50" stroke="none"/>
                  <rect x="0.5" y="0.5" width="99" height="99" rx="49.5" fill="none"/>
                </g>
              </g>
            </g>
          </g>
        </g>
      </g>
    </g>
    <g id="tension_12969078" transform="translate(135.492 17901.777)">
      <g id="Grupo_1212192" data-name="Grupo 1212192" transform="translate(86.427 49.252)">
        <g id="Grupo_1212188" data-name="Grupo 1212188" transform="translate(0 0)">
          <path id="Trazado_1036160" data-name="Trazado 1036160" d="M153.709,83.224a32.853,32.853,0,0,1-33.31,33.31c-11.635,0-21.9-5.187-28.026-14.105a33.976,33.976,0,0,1,47.02-47.375C148.429,61.16,153.709,71.5,153.709,83.224Z" transform="translate(-86.427 -49.253)" fill="#918291"/>
          <path id="Trazado_1036161" data-name="Trazado 1036161" d="M160.413,75.565a34.45,34.45,0,0,1,6.157,19.349,33.976,33.976,0,0,1-53.177,28.025,33.974,33.974,0,0,0,62-19.2A34.387,34.387,0,0,0,160.413,75.565Z" transform="translate(-107.447 -69.763)" fill="#7a6d79"/>
        </g>
        <g id="Grupo_1212189" data-name="Grupo 1212189" transform="translate(6.57 8.636)">
          <path id="Trazado_1036163" data-name="Trazado 1036163" d="M168.84,109.93c0,6-4.265,10.487-11,10.487-1.59,0-3,.292-4.39-.2-.553-.2-.889-.844-1.4-1.109s-1.2-.143-1.66-.467a14.713,14.713,0,0,1-19.706-.265c-.5.335-1.513-.011-2.084.223-.5.2-.553,1-1.094,1.12a9.734,9.734,0,0,1-2.092.227,8.7,8.7,0,1,1,0-17.38c.04,0,.077,0,.115,0l0,0c.234-.593,1.083-.992,1.468-1.521.364-.5.26-1.131.736-1.55a8.977,8.977,0,0,1,5.643-2.234.656.656,0,0,0,.62-.5,11.373,11.373,0,0,1,11.174-8.346,11.491,11.491,0,0,1,10.972,7.642c.2.6-.454,1.175-.373,1.815.062.463.886.979.882,1.457C161.085,99.007,168.9,103.519,168.84,109.93Z" transform="translate(-116.226 -88.42)" fill="#eaf6ff"/>
          <path id="Trazado_1036164" data-name="Trazado 1036164" d="M301.76,148.455c0,6-5.459,10.855-12.191,10.855a13.447,13.447,0,0,1-4.5-.765c12.507-9.267,3.2-20.881,3.2-20.881C295.267,136.914,301.824,142.043,301.76,148.455Z" transform="translate(-247.841 -126.749)" fill="#d8ecfe"/>
        </g>
        <g id="Grupo_1212190" data-name="Grupo 1212190" transform="translate(24.919 26.14)">
          <path id="Trazado_1036165" data-name="Trazado 1036165" d="M208.355,199.184c-.181,1.37.839,1.4,1.415.342l8.714-17.591a1.189,1.189,0,0,0-1.065-1.717l-3.528-.441h-2.424l-.2-.833,3.018-9.049A1.325,1.325,0,0,0,213,168.247l-3.969-.441H205.45a1.4,1.4,0,0,0-1.315,1.167l-4.643,16.057a1.189,1.189,0,0,0,1.142,1.519h8.627a.441.441,0,0,1,.436.505l-.87,5.914Z" transform="translate(-199.445 -167.806)" fill="#ffe177"/>
        </g>
        <g id="Grupo_1212191" data-name="Grupo 1212191" transform="translate(32.57 26.14)">
          <path id="Trazado_1036166" data-name="Trazado 1036166" d="M236.919,169.453l-2.712,8.6a1.323,1.323,0,0,0,1.262,1.721h3.047l3.255-10.323a1.325,1.325,0,0,0-1.284-1.648h-4.851A1.325,1.325,0,0,1,236.919,169.453Z" transform="translate(-234.144 -167.805)" fill="#ffd15b"/>
          <path id="Trazado_1036167" data-name="Trazado 1036167" d="M248.2,222.1h-4.851a1.189,1.189,0,0,1,1.065,1.717l-5.687,11.474-.914,6.215a1.248,1.248,0,0,0,2.3.783l9.155-18.473A1.189,1.189,0,0,0,248.2,222.1Z" transform="translate(-236.995 -210.128)" fill="#ffd15b"/>
        </g>
      </g>
      <g id="Grupo_1212197" data-name="Grupo 1212197" transform="translate(86.428 49.252)">
        <path id="Trazado_1036173" data-name="Trazado 1036173" d="M142.325,109.173a33.855,33.855,0,1,0-6.432,4.291" transform="translate(-86.43 -49.252)" fill="none" stroke="#000" stroke-linecap="round" stroke-linejoin="round" stroke-miterlimit="10" stroke-width="2"/>
        <g id="Grupo_1212195" data-name="Grupo 1212195" transform="translate(6.57 8.637)">
          <path id="Trazado_1036174" data-name="Trazado 1036174" d="M134.9,121.187a12.3,12.3,0,0,1-4.213-2.81,9.519,9.519,0,0,1-5.269,1.57,8.7,8.7,0,1,1,0-17.378l.114,0a8.818,8.818,0,0,1,8.36-5.306,11.331,11.331,0,0,1,11.283-8.841c6.282-.013,11.541,4.9,11.482,10.914,6.994-.751,13.551,4.379,13.487,10.791,0,5.994-5.458,10.853-12.191,10.853a13.571,13.571,0,0,1-3.333-.412" transform="translate(-116.227 -88.424)" fill="none" stroke="#000" stroke-linecap="round" stroke-linejoin="round" stroke-miterlimit="10" stroke-width="2"/>
          <path id="Trazado_1036175" data-name="Trazado 1036175" d="M281.093,138.965a13.262,13.262,0,0,1,4.088-1.05" transform="translate(-244.742 -127.003)" fill="none" stroke="#000" stroke-linecap="round" stroke-linejoin="round" stroke-miterlimit="10" stroke-width="2"/>
          <path id="Trazado_1036176" data-name="Trazado 1036176" d="M157.925,152.573a9.531,9.531,0,0,1,5.141,1.484" transform="translate(-148.731 -138.429)" fill="none" stroke="#000" stroke-linecap="round" stroke-linejoin="round" stroke-miterlimit="10" stroke-width="2"/>
          <path id="Trazado_1036177" data-name="Trazado 1036177" d="M172.934,207.886a10.192,10.192,0,0,1-2.513-4.634" transform="translate(-158.472 -177.933)" fill="none" stroke="#000" stroke-linecap="round" stroke-linejoin="round" stroke-miterlimit="10" stroke-width="2"/>
        </g>
        <g id="Grupo_1212196" data-name="Grupo 1212196" transform="translate(24.919 26.14)">
          <path id="Trazado_1036178" data-name="Trazado 1036178" d="M207.914,199.183a1.248,1.248,0,0,0,2.3.783l9.155-18.473a1.189,1.189,0,0,0-1.065-1.717h-6.835l3.255-10.323a1.325,1.325,0,0,0-1.284-1.648H205.45a1.4,1.4,0,0,0-1.315,1.167l-4.643,16.057a1.189,1.189,0,0,0,1.142,1.519h9.138Z" transform="translate(-199.445 -167.805)" fill="none" stroke="#000" stroke-linecap="round" stroke-linejoin="round" stroke-miterlimit="10" stroke-width="2"/>
        </g>
      </g>
    </g>
  </g>
</svg>
