<svg xmlns="http://www.w3.org/2000/svg" xmlns:xlink="http://www.w3.org/1999/xlink" width="118" height="118" viewBox="0 0 118 118">
  <defs>
    <filter id="Trazado_896985" x="0" y="0" width="118" height="118" filterUnits="userSpaceOnUse">
      <feOffset dy="3" input="SourceAlpha"/>
      <feGaussianBlur stdDeviation="3" result="blur"/>
      <feFlood flood-opacity="0.161"/>
      <feComposite operator="in" in2="blur"/>
      <feComposite in="SourceGraphic"/>
    </filter>
  </defs>
  <g id="Grupo_1212199" data-name="Grupo 1212199" transform="translate(-616.891 -17929)">
    <g id="Grupo_1200068" data-name="Grupo 1200068" transform="translate(-0.949 13650.111)">
      <g id="Grupo_1198724" data-name="Grupo 1198724" transform="translate(0.95 -182.434)">
        <g id="Grupo_1198140" data-name="Grupo 1198140" transform="translate(291 615.322)">
          <g id="Grupo_1111318" data-name="Grupo 1111318" transform="translate(334.891 3852)">
            <g id="Grupo_1109826" data-name="Grupo 1109826" transform="translate(0)">
              <g id="Grupo_1098742" data-name="Grupo 1098742" transform="translate(0 0)">
                <g transform="matrix(1, 0, 0, 1, -9, -6)" filter="url(#Trazado_896985)">
                  <g id="Trazado_896985-2" data-name="Trazado 896985" transform="translate(9 6)" fill="#efd026" opacity="0.859">
                    <path d="M 49.99993515014648 99.5 C 43.31726837158203 99.5 36.83476257324219 98.19129943847656 30.73248100280762 95.61025238037109 C 24.83812141418457 93.11714172363281 19.54434776306152 89.54795837402344 14.99820137023926 85.00179290771484 C 10.45204162597656 80.45565032958984 6.88285493850708 75.16187286376953 4.389748573303223 69.26751708984375 C 1.808695197105408 63.16523742675781 0.5000017881393433 56.6827278137207 0.5000017881393433 50.00006103515625 C 0.5000017881393433 43.31726455688477 1.808695197105408 36.83475494384766 4.389748573303223 30.73247528076172 C 6.88285493850708 24.83811569213867 10.45204162597656 19.54434204101562 14.99820137023926 14.99819660186768 C 19.54434776306152 10.45203590393066 24.83812141418457 6.88284969329834 30.73248100280762 4.389742851257324 C 36.83476257324219 1.808689475059509 43.31726837158203 0.4999961853027344 49.99993515014648 0.4999961853027344 C 56.68260192871094 0.4999961853027344 63.16510772705078 1.808689475059509 69.26738739013672 4.389742851257324 C 75.16175079345703 6.88284969329834 80.45552062988281 10.45203590393066 85.00167083740234 14.99819660186768 C 89.54782867431641 19.54434204101562 93.11701202392578 24.83811569213867 95.61012268066406 30.73247528076172 C 98.19117736816406 36.83475494384766 99.49987030029297 43.31726455688477 99.49987030029297 49.99993133544922 C 99.49987030029297 56.6827278137207 98.19117736816406 63.16523742675781 95.61012268066406 69.26751708984375 C 93.11701202392578 75.16187286376953 89.54782867431641 80.45565032958984 85.00167083740234 85.00179290771484 C 80.45552062988281 89.54795837402344 75.16175079345703 93.11714172363281 69.26738739013672 95.61025238037109 C 63.16510772705078 98.19129943847656 56.68260192871094 99.5 49.99993515014648 99.5 Z" stroke="none"/>
                    <path d="M 49.99993515014648 0.9999923706054688 C 43.38454818725586 0.9999923706054688 36.96757507324219 2.29541015625 30.92725372314453 4.850250244140625 C 25.09249877929688 7.318145751953125 19.85213470458984 10.85135650634766 15.35174560546875 15.35174560546875 C 10.85136413574219 19.85212707519531 7.318145751953125 25.09249114990234 4.850257873535156 30.92724609375 C 2.295417785644531 36.96757125854492 1 43.38454437255859 1 50.00006103515625 C 1 56.61544799804688 2.295417785644531 63.03242111206055 4.850257873535156 69.07273864746094 C 7.318145751953125 74.90750122070312 10.85136413574219 80.14786529541016 15.35174560546875 84.64824676513672 C 19.85213470458984 89.14863586425781 25.09249877929688 92.68184661865234 30.92725372314453 95.14974212646484 C 36.96757507324219 97.70458221435547 43.38454818725586 99 49.99993515014648 99 C 56.61532211303711 99 63.03229522705078 97.70458221435547 69.07261657714844 95.14974212646484 C 74.90737915039062 92.68184661865234 80.14773559570312 89.14863586425781 84.64812469482422 84.64824676513672 C 89.14850616455078 80.14786529541016 92.68172454833984 74.90750122070312 95.14961242675781 69.07273864746094 C 97.70445251464844 63.03242111206055 98.99987030029297 56.61544799804688 98.99987030029297 49.99993133544922 C 98.99987030029297 43.38454437255859 97.70445251464844 36.96757125854492 95.14961242675781 30.92724609375 C 92.68172454833984 25.09249114990234 89.14850616455078 19.85212707519531 84.64812469482422 15.35174560546875 C 80.14773559570312 10.85135650634766 74.90737915039062 7.318145751953125 69.07261657714844 4.850250244140625 C 63.03229522705078 2.29541015625 56.61532211303711 0.9999923706054688 49.99993515014648 0.9999923706054688 M 49.99993515014648 -7.62939453125e-06 C 77.6141357421875 -7.62939453125e-06 99.99987030029297 22.38572692871094 99.99987030029297 49.99993133544922 L 99.99987030029297 50.00006103515625 C 99.99987030029297 77.61426544189453 77.6141357421875 100 49.99993515014648 100 C 22.38573455810547 100 0 77.61426544189453 0 50.00006103515625 L 0 49.99993133544922 C 0 22.38572692871094 22.38573455810547 -7.62939453125e-06 49.99993515014648 -7.62939453125e-06 Z" stroke="none" fill="#fff"/>
                  </g>
                </g>
                <g id="Rectángulo_400907" data-name="Rectángulo 400907" transform="translate(0)" fill="none" stroke="#fff" stroke-width="1">
                  <rect width="100" height="100" rx="50" stroke="none"/>
                  <rect x="0.5" y="0.5" width="99" height="99" rx="49.5" fill="none"/>
                </g>
              </g>
            </g>
          </g>
        </g>
      </g>
    </g>
    <g id="cancel_1168582" transform="translate(641.245 17950.438)">
      <path id="Trazado_1036179" data-name="Trazado 1036179" d="M74.763,41.131A33.631,33.631,0,1,1,41.131,7.5,33.632,33.632,0,0,1,74.763,41.131Zm0,0" transform="translate(-6.485 -6.486)" fill="#ff929f"/>
      <path id="Trazado_1036180" data-name="Trazado 1036180" d="M37.61,26.151C44.529,20.812,48,13.214,49.575,8.569a33.632,33.632,0,1,0-4.332,65.945C30.626,62.244,28.439,49.646,29.4,40.838A21.489,21.489,0,0,1,37.61,26.151Zm0,0" transform="translate(-6.485 -6.485)" fill="#ff737d"/>
      <path id="Trazado_1036181" data-name="Trazado 1036181" d="M139.833,127.817l7.8-7.8a5.99,5.99,0,1,0-8.472-8.471l-7.8,7.8a2.506,2.506,0,0,1-3.544,0l-7.8-7.8a5.99,5.99,0,0,0-8.471,8.471l7.8,7.8a2.506,2.506,0,0,1,0,3.544l-7.8,7.8a5.99,5.99,0,0,0,8.471,8.471l7.8-7.8a2.506,2.506,0,0,1,3.544,0l7.8,7.8a5.99,5.99,0,0,0,8.472-8.471l-7.8-7.8A2.505,2.505,0,0,1,139.833,127.817Zm0,0" transform="translate(-94.943 -94.944)" fill="#fff"/>
      <path id="Trazado_1036182" data-name="Trazado 1036182" d="M124.458,115.982l-4.435-4.435a5.99,5.99,0,0,0-8.471,8.472l6.734,6.734a21.483,21.483,0,0,1,6.173-10.77Zm0,0" transform="translate(-94.944 -94.94)" fill="#bdfaff"/>
      <path id="Trazado_1036183" data-name="Trazado 1036183" d="M120.019,296.121l.775-.775a33.1,33.1,0,0,1-3.136-13.808l-6.111,6.111a5.99,5.99,0,1,0,8.472,8.471Zm0,0" transform="translate(-94.941 -243.437)" fill="#ccf8ff"/>
      <path id="Trazado_1036184" data-name="Trazado 1036184" d="M34.646,69.292a34.647,34.647,0,0,1-24.5-59.145A34.662,34.662,0,0,1,52.189,4.762,34.846,34.846,0,0,1,64.626,17.269a1.015,1.015,0,0,1-1.756,1.02A32.6,32.6,0,0,0,34.646,2.029a32.617,32.617,0,0,0-23.063,55.68A32.625,32.625,0,0,0,64.836,22.277a1.015,1.015,0,1,1,1.878-.77A34.655,34.655,0,0,1,34.646,69.292Zm0,0"/>
      <path id="Trazado_1036185" data-name="Trazado 1036185" d="M131.927,141.831l-7.8-7.8a1.492,1.492,0,0,0-2.108,0l-7.8,7.8a7.005,7.005,0,1,1-9.907-9.907,1.015,1.015,0,0,1,1.435,1.435c-.935.935-2.595,4.571,0,7.036s6.1.935,7.036,0l7.8-7.8a3.526,3.526,0,0,1,4.979,0l7.8,7.8c.935.935,4.369,2.806,7.036,0a4.763,4.763,0,0,0,0-7.036l-7.8-7.8a3.525,3.525,0,0,1,0-4.979l7.8-7.8c.935-.935,2.613-4.436,0-7.036a4.717,4.717,0,0,0-7.036,0l-7.8,7.8a3.525,3.525,0,0,1-4.979,0l-7.8-7.8a5.128,5.128,0,0,0-7.036,0c-2.93,2.645-.935,6.1,0,7.036l7.8,7.8a3.525,3.525,0,0,1,0,4.979l-4.8,4.8a1.015,1.015,0,0,1-1.435-1.435l4.8-4.8a1.494,1.494,0,0,0,0-2.109l-7.8-7.8a7.005,7.005,0,1,1,9.907-9.907l7.8,7.8a1.492,1.492,0,0,0,2.108,0l7.8-7.8a7.005,7.005,0,0,1,9.907,9.907l-7.8,7.8a1.493,1.493,0,0,0,0,2.108l7.8,7.8a7.013,7.013,0,0,1,0,9.907C140.469,143.2,136.013,145.872,131.927,141.831Zm0,0" transform="translate(-88.432 -88.429)"/>
    </g>
  </g>
</svg>
