<svg xmlns="http://www.w3.org/2000/svg" xmlns:xlink="http://www.w3.org/1999/xlink" width="118" height="118" viewBox="0 0 118 118">
  <defs>
    <filter id="Trazado_896985" x="0" y="0" width="118" height="118" filterUnits="userSpaceOnUse">
      <feOffset dy="3" input="SourceAlpha"/>
      <feGaussianBlur stdDeviation="3" result="blur"/>
      <feFlood flood-opacity="0.161"/>
      <feComposite operator="in" in2="blur"/>
      <feComposite in="SourceGraphic"/>
    </filter>
  </defs>
  <g id="Grupo_1212202" data-name="Grupo 1212202" transform="translate(-1036.891 -17927)">
    <g id="Grupo_1200070" data-name="Grupo 1200070" transform="translate(-0.949 13648.111)">
      <g id="Grupo_1198726" data-name="Grupo 1198726" transform="translate(0.95 -182.434)">
        <g id="Grupo_1198141" data-name="Grupo 1198141" transform="translate(711 615.322)">
          <g id="Grupo_1111318" data-name="Grupo 1111318" transform="translate(334.891 3852)">
            <g id="Grupo_1109826" data-name="Grupo 1109826" transform="translate(0)">
              <g id="Grupo_1098742" data-name="Grupo 1098742" transform="translate(0 0)">
                <g transform="matrix(1, 0, 0, 1, -9, -6)" filter="url(#Trazado_896985)">
                  <g id="Trazado_896985-2" data-name="Trazado 896985" transform="translate(9 6)" fill="#efd026" opacity="0.859">
                    <path d="M 49.99993515014648 99.5 C 43.31726837158203 99.5 36.83476257324219 98.19129943847656 30.73248100280762 95.61025238037109 C 24.83812141418457 93.11714172363281 19.54434776306152 89.54795837402344 14.99820137023926 85.00179290771484 C 10.45204162597656 80.45565032958984 6.88285493850708 75.16187286376953 4.389748573303223 69.26751708984375 C 1.808695197105408 63.16523742675781 0.5000017881393433 56.6827278137207 0.5000017881393433 50.00006103515625 C 0.5000017881393433 43.31726455688477 1.808695197105408 36.83475494384766 4.389748573303223 30.73247528076172 C 6.88285493850708 24.83811569213867 10.45204162597656 19.54434204101562 14.99820137023926 14.99819660186768 C 19.54434776306152 10.45203590393066 24.83812141418457 6.88284969329834 30.73248100280762 4.389742851257324 C 36.83476257324219 1.808689475059509 43.31726837158203 0.4999961853027344 49.99993515014648 0.4999961853027344 C 56.68260192871094 0.4999961853027344 63.16510772705078 1.808689475059509 69.26738739013672 4.389742851257324 C 75.16175079345703 6.88284969329834 80.45552062988281 10.45203590393066 85.00167083740234 14.99819660186768 C 89.54782867431641 19.54434204101562 93.11701202392578 24.83811569213867 95.61012268066406 30.73247528076172 C 98.19117736816406 36.83475494384766 99.49987030029297 43.31726455688477 99.49987030029297 49.99993133544922 C 99.49987030029297 56.6827278137207 98.19117736816406 63.16523742675781 95.61012268066406 69.26751708984375 C 93.11701202392578 75.16187286376953 89.54782867431641 80.45565032958984 85.00167083740234 85.00179290771484 C 80.45552062988281 89.54795837402344 75.16175079345703 93.11714172363281 69.26738739013672 95.61025238037109 C 63.16510772705078 98.19129943847656 56.68260192871094 99.5 49.99993515014648 99.5 Z" stroke="none"/>
                    <path d="M 49.99993515014648 0.9999923706054688 C 43.38454818725586 0.9999923706054688 36.96757507324219 2.29541015625 30.92725372314453 4.850250244140625 C 25.09249877929688 7.318145751953125 19.85213470458984 10.85135650634766 15.35174560546875 15.35174560546875 C 10.85136413574219 19.85212707519531 7.318145751953125 25.09249114990234 4.850257873535156 30.92724609375 C 2.295417785644531 36.96757125854492 1 43.38454437255859 1 50.00006103515625 C 1 56.61544799804688 2.295417785644531 63.03242111206055 4.850257873535156 69.07273864746094 C 7.318145751953125 74.90750122070312 10.85136413574219 80.14786529541016 15.35174560546875 84.64824676513672 C 19.85213470458984 89.14863586425781 25.09249877929688 92.68184661865234 30.92725372314453 95.14974212646484 C 36.96757507324219 97.70458221435547 43.38454818725586 99 49.99993515014648 99 C 56.61532211303711 99 63.03229522705078 97.70458221435547 69.07261657714844 95.14974212646484 C 74.90737915039062 92.68184661865234 80.14773559570312 89.14863586425781 84.64812469482422 84.64824676513672 C 89.14850616455078 80.14786529541016 92.68172454833984 74.90750122070312 95.14961242675781 69.07273864746094 C 97.70445251464844 63.03242111206055 98.99987030029297 56.61544799804688 98.99987030029297 49.99993133544922 C 98.99987030029297 43.38454437255859 97.70445251464844 36.96757125854492 95.14961242675781 30.92724609375 C 92.68172454833984 25.09249114990234 89.14850616455078 19.85212707519531 84.64812469482422 15.35174560546875 C 80.14773559570312 10.85135650634766 74.90737915039062 7.318145751953125 69.07261657714844 4.850250244140625 C 63.03229522705078 2.29541015625 56.61532211303711 0.9999923706054688 49.99993515014648 0.9999923706054688 M 49.99993515014648 -7.62939453125e-06 C 77.6141357421875 -7.62939453125e-06 99.99987030029297 22.38572692871094 99.99987030029297 49.99993133544922 L 99.99987030029297 50.00006103515625 C 99.99987030029297 77.61426544189453 77.6141357421875 100 49.99993515014648 100 C 22.38573455810547 100 0 77.61426544189453 0 50.00006103515625 L 0 49.99993133544922 C 0 22.38572692871094 22.38573455810547 -7.62939453125e-06 49.99993515014648 -7.62939453125e-06 Z" stroke="none" fill="#fff"/>
                  </g>
                </g>
                <g id="Rectángulo_400907" data-name="Rectángulo 400907" transform="translate(0)" fill="none" stroke="#fff" stroke-width="1">
                  <rect width="100" height="100" rx="50" stroke="none"/>
                  <rect x="0.5" y="0.5" width="99" height="99" rx="49.5" fill="none"/>
                </g>
              </g>
            </g>
          </g>
        </g>
      </g>
    </g>
    <g id="Grupo_1212201" data-name="Grupo 1212201">
      <g id="trojan_4046419" transform="translate(1059.524 17948.717)">
        <path id="Trazado_1036186" data-name="Trazado 1036186" d="M108.421,111.308a6.927,6.927,0,0,1,.622.564,7.005,7.005,0,0,0-1.372-1.09,1.217,1.217,0,0,0-1.708.455l-3.21,5.964-16.33,11.35a2.866,2.866,0,0,0-.986,3.509c.432.979-.54-1.231,1.553,3.516a2.864,2.864,0,0,0,3.395,1.6l8.444-2.37a5.819,5.819,0,0,0,6.458,3.069c-.023,7.4-6.9,6.688-11.127,17.733a29.262,29.262,0,0,0,39.728-10.621c1.738-16.124-7.737-30.941-25.468-33.682Z" transform="translate(-72.287 -93.846)" fill="#ffbd7b"/>
        <path id="Trazado_1036187" data-name="Trazado 1036187" d="M238.514,115.264c17.731,2.741,27.205,17.558,25.468,33.682a29.4,29.4,0,0,1-10.006,10.188l0-.008c6.969-14.863,3.01-31.79-12.823-37.783-.027,0-.05-.006-.064-.008a6.95,6.95,0,0,0-2.571-6.072Z" transform="translate(-202.38 -97.802)" fill="#ffaa64"/>
        <path id="Trazado_1036188" data-name="Trazado 1036188" d="M109.27,116.484c-.422.821-1.039,2.025-2.03,3.812a4.359,4.359,0,0,1-1.323,1.465l-15.5,10.777a2.667,2.667,0,0,0-1.2,2.507,1.159,1.159,0,0,1-2.206.565c-.008-.017-.031-.066-1.568-3.55a2.866,2.866,0,0,1,.986-3.509l16.33-11.35,3.21-5.964a1.217,1.217,0,0,1,1.707-.455A4.334,4.334,0,0,1,109.27,116.484Z" transform="translate(-72.288 -93.845)" fill="#ffd3a6"/>
        <path id="Trazado_1036189" data-name="Trazado 1036189" d="M158.6,320.279c-1.656,3.094-5.294,4.624-8.37,9.91a2.734,2.734,0,0,1-3.492,1.139q-1.206-.552-2.352-1.208c2.969-7.762,7.25-9.715,9.539-12.761a2.767,2.767,0,0,1,4.674,2.92Z" transform="translate(-122.51 -268.355)" fill="#ffd3a6"/>
        <path id="Trazado_1036190" data-name="Trazado 1036190" d="M25.043,66.117A29.239,29.239,0,0,0,66.117,25.043ZM43.2,8.054A35.147,35.147,0,1,1,8.054,43.2,35.147,35.147,0,0,1,43.2,8.054ZM61.529,20.418A29.24,29.24,0,0,0,20.417,61.529L61.529,20.418Z" transform="translate(-6.834 -6.834)" fill="#fe4f60"/>
        <path id="Trazado_1036191" data-name="Trazado 1036191" d="M43.2,8.054a35.146,35.146,0,0,0-24.134,60.7,2.427,2.427,0,0,0,3.385-.042L68.708,22.452a2.428,2.428,0,0,0,.042-3.385A35.046,35.046,0,0,0,43.2,8.054ZM20.417,61.529A29.24,29.24,0,0,1,61.529,20.417Z" transform="translate(-6.834 -6.834)" fill="#ff6d7a"/>
        <g id="Grupo_1212200" data-name="Grupo 1212200" transform="translate(0 0)">
          <path id="Trazado_1036192" data-name="Trazado 1036192" d="M62.076,10.658a36.359,36.359,0,1,0,0,51.419A36.339,36.339,0,0,0,62.076,10.658ZM36.367,70.3A33.935,33.935,0,1,1,70.3,36.367,33.973,33.973,0,0,1,36.367,70.3Z" transform="translate(0 0)"/>
          <path id="Trazado_1036193" data-name="Trazado 1036193" d="M195.841,186.538a1.212,1.212,0,0,0-1.67.385l-.9,1.433a1.212,1.212,0,1,0,2.055,1.285l.9-1.433A1.212,1.212,0,0,0,195.841,186.538Z" transform="translate(-163.838 -158.122)"/>
          <path id="Trazado_1036194" data-name="Trazado 1036194" d="M157.922,146.8a30.393,30.393,0,0,0-2.49-34.148,1.212,1.212,0,0,0-1.806-.1l-6.971,6.971a1.212,1.212,0,1,0,1.714,1.714l5.987-5.987a27.98,27.98,0,0,1,3.8,25.194,32.438,32.438,0,0,0-3.245-12.418,1.212,1.212,0,1,0-2.173,1.074,30.98,30.98,0,0,1,2.891,16.829,28.236,28.236,0,0,1-6.154,7.183c3.474-10.252,2.183-21.607-5.378-29.3a1.215,1.215,0,0,0-1.719-.009L112.55,153.624a1.212,1.212,0,0,0,.1,1.806,30.4,30.4,0,0,0,34.611,2.216,1.214,1.214,0,0,0,.3-.185,30.685,30.685,0,0,0,10.18-10.362,1.211,1.211,0,0,0,.176-.3Zm-42.673,7.553,27.946-27.946c6.443,7.348,7.5,18.649,2.653,29.262A27.983,27.983,0,0,1,115.248,154.354Z" transform="translate(-95.198 -95.198)"/>
          <path id="Trazado_1036195" data-name="Trazado 1036195" d="M88.688,47.577a1.212,1.212,0,0,0-.1-1.8A30.453,30.453,0,0,0,45.776,88.591a1.212,1.212,0,0,0,1.8.1L88.688,47.577ZM46.84,86A27.7,27.7,0,0,1,41.477,69.5,28.058,28.058,0,0,1,69.5,41.477,27.7,27.7,0,0,1,86,46.84l-5.981,5.981a33.572,33.572,0,0,0-10.237-3.367A8.372,8.372,0,0,0,67.8,48.374a1.213,1.213,0,0,0-1.5.558l-3.624,6.73L46.582,66.846a4.085,4.085,0,0,0-1.4,4.994l1.551,3.516a4.1,4.1,0,0,0,4.832,2.28,1.212,1.212,0,1,0-.655-2.334,1.663,1.663,0,0,1-1.96-.925L47.4,70.862a1.656,1.656,0,0,1,.569-2.025l16.328-11.35a1.215,1.215,0,0,0,.375-.421L67.882,51.1a5.72,5.72,0,0,1,2.752,5.46,1.212,1.212,0,1,0,2.414.22,8.207,8.207,0,0,0-.777-4.334,30.441,30.441,0,0,1,5.943,2.177Z" transform="translate(-33.137 -33.137)"/>
        </g>
      </g>
      <path id="Trazado_1036196" data-name="Trazado 1036196" d="M-7597.338,6369.28l13.6,5.958" transform="translate(8654.051 11608)" fill="none" stroke="#000" stroke-linecap="round" stroke-width="2"/>
      <path id="Trazado_1036197" data-name="Trazado 1036197" d="M-7597.18,6378.408l13.442-3.17" transform="translate(8653.972 11614.804)" fill="none" stroke="#000" stroke-linecap="round" stroke-width="2"/>
      <path id="Trazado_1036198" data-name="Trazado 1036198" d="M-7593.933,6383.441l9.121-11.267" transform="translate(8656.705 11622.804)" fill="none" stroke="#000" stroke-linecap="round" stroke-width="2"/>
    </g>
  </g>
</svg>
