<svg xmlns="http://www.w3.org/2000/svg" xmlns:xlink="http://www.w3.org/1999/xlink" width="118" height="118" viewBox="0 0 118 118">
  <defs>
    <filter id="Trazado_896985" x="0" y="0" width="118" height="118" filterUnits="userSpaceOnUse">
      <feOffset dy="3" input="SourceAlpha"/>
      <feGaussianBlur stdDeviation="3" result="blur"/>
      <feFlood flood-opacity="0.161"/>
      <feComposite operator="in" in2="blur"/>
      <feComposite in="SourceGraphic"/>
    </filter>
  </defs>
  <g id="Grupo_1212204" data-name="Grupo 1212204" transform="translate(-196.891 -18119)">
    <g id="Grupo_1211615" data-name="Grupo 1211615" transform="translate(-0.949 13840.111)">
      <g id="Grupo_1198723" data-name="Grupo 1198723" transform="translate(0.95 -182.434)">
        <g id="Grupo_1198139" data-name="Grupo 1198139" transform="translate(-129 615.322)">
          <g id="Grupo_1111318" data-name="Grupo 1111318" transform="translate(334.891 3852)">
            <g id="Grupo_1109826" data-name="Grupo 1109826" transform="translate(0)">
              <g id="Grupo_1098742" data-name="Grupo 1098742" transform="translate(0 0)">
                <g transform="matrix(1, 0, 0, 1, -9, -6)" filter="url(#Trazado_896985)">
                  <g id="Trazado_896985-2" data-name="Trazado 896985" transform="translate(9 6)" fill="#efd026" opacity="0.859">
                    <path d="M 49.99993515014648 99.5 C 43.31726837158203 99.5 36.83476257324219 98.19129943847656 30.73248100280762 95.61025238037109 C 24.83812141418457 93.11714172363281 19.54434776306152 89.54795837402344 14.99820137023926 85.00179290771484 C 10.45204162597656 80.45565032958984 6.88285493850708 75.16187286376953 4.389748573303223 69.26751708984375 C 1.808695197105408 63.16523742675781 0.5000017881393433 56.6827278137207 0.5000017881393433 50.00006103515625 C 0.5000017881393433 43.31726455688477 1.808695197105408 36.83475494384766 4.389748573303223 30.73247528076172 C 6.88285493850708 24.83811569213867 10.45204162597656 19.54434204101562 14.99820137023926 14.99819660186768 C 19.54434776306152 10.45203590393066 24.83812141418457 6.88284969329834 30.73248100280762 4.389742851257324 C 36.83476257324219 1.808689475059509 43.31726837158203 0.4999961853027344 49.99993515014648 0.4999961853027344 C 56.68260192871094 0.4999961853027344 63.16510772705078 1.808689475059509 69.26738739013672 4.389742851257324 C 75.16175079345703 6.88284969329834 80.45552062988281 10.45203590393066 85.00167083740234 14.99819660186768 C 89.54782867431641 19.54434204101562 93.11701202392578 24.83811569213867 95.61012268066406 30.73247528076172 C 98.19117736816406 36.83475494384766 99.49987030029297 43.31726455688477 99.49987030029297 49.99993133544922 C 99.49987030029297 56.6827278137207 98.19117736816406 63.16523742675781 95.61012268066406 69.26751708984375 C 93.11701202392578 75.16187286376953 89.54782867431641 80.45565032958984 85.00167083740234 85.00179290771484 C 80.45552062988281 89.54795837402344 75.16175079345703 93.11714172363281 69.26738739013672 95.61025238037109 C 63.16510772705078 98.19129943847656 56.68260192871094 99.5 49.99993515014648 99.5 Z" stroke="none"/>
                    <path d="M 49.99993515014648 0.9999923706054688 C 43.38454818725586 0.9999923706054688 36.96757507324219 2.29541015625 30.92725372314453 4.850250244140625 C 25.09249877929688 7.318145751953125 19.85213470458984 10.85135650634766 15.35174560546875 15.35174560546875 C 10.85136413574219 19.85212707519531 7.318145751953125 25.09249114990234 4.850257873535156 30.92724609375 C 2.295417785644531 36.96757125854492 1 43.38454437255859 1 50.00006103515625 C 1 56.61544799804688 2.295417785644531 63.03242111206055 4.850257873535156 69.07273864746094 C 7.318145751953125 74.90750122070312 10.85136413574219 80.14786529541016 15.35174560546875 84.64824676513672 C 19.85213470458984 89.14863586425781 25.09249877929688 92.68184661865234 30.92725372314453 95.14974212646484 C 36.96757507324219 97.70458221435547 43.38454818725586 99 49.99993515014648 99 C 56.61532211303711 99 63.03229522705078 97.70458221435547 69.07261657714844 95.14974212646484 C 74.90737915039062 92.68184661865234 80.14773559570312 89.14863586425781 84.64812469482422 84.64824676513672 C 89.14850616455078 80.14786529541016 92.68172454833984 74.90750122070312 95.14961242675781 69.07273864746094 C 97.70445251464844 63.03242111206055 98.99987030029297 56.61544799804688 98.99987030029297 49.99993133544922 C 98.99987030029297 43.38454437255859 97.70445251464844 36.96757125854492 95.14961242675781 30.92724609375 C 92.68172454833984 25.09249114990234 89.14850616455078 19.85212707519531 84.64812469482422 15.35174560546875 C 80.14773559570312 10.85135650634766 74.90737915039062 7.318145751953125 69.07261657714844 4.850250244140625 C 63.03229522705078 2.29541015625 56.61532211303711 0.9999923706054688 49.99993515014648 0.9999923706054688 M 49.99993515014648 -7.62939453125e-06 C 77.6141357421875 -7.62939453125e-06 99.99987030029297 22.38572692871094 99.99987030029297 49.99993133544922 L 99.99987030029297 50.00006103515625 C 99.99987030029297 77.61426544189453 77.6141357421875 100 49.99993515014648 100 C 22.38573455810547 100 0 77.61426544189453 0 50.00006103515625 L 0 49.99993133544922 C 0 22.38572692871094 22.38573455810547 -7.62939453125e-06 49.99993515014648 -7.62939453125e-06 Z" stroke="none" fill="#fff"/>
                  </g>
                </g>
                <g id="Rectángulo_400907" data-name="Rectángulo 400907" transform="translate(0)" fill="none" stroke="#fff" stroke-width="1">
                  <rect width="100" height="100" rx="50" stroke="none"/>
                  <rect x="0.5" y="0.5" width="99" height="99" rx="49.5" fill="none"/>
                </g>
              </g>
            </g>
          </g>
        </g>
      </g>
    </g>
    <g id="horse_1943650" transform="translate(206.145 18141.992)">
      <path id="Trazado_1036199" data-name="Trazado 1036199" d="M393.2,149.428l4.66-9.65.186.03a8.01,8.01,0,0,1,6.693,8.51l-9.654,2.93Z" transform="translate(-325.479 -121.653)" fill="#d77f4a"/>
      <path id="Trazado_1036200" data-name="Trazado 1036200" d="M404.464,139.809l-.186-.03-.6,1.24a8.01,8.01,0,0,1,3.589,7.3l-6.695,2.032.931.9,9.654-2.931a8.01,8.01,0,0,0-6.693-8.51Z" transform="translate(-331.895 -121.654)" fill="#c86d36"/>
      <path id="Trazado_1036201" data-name="Trazado 1036201" d="M103.484,32.5l1.333-3.018s6.089-2.236,11.983,7.369a59.831,59.831,0,0,1,7.5,17.755l-8.7,1.565Z" transform="translate(-73.327 -25.465)" fill="#fec165"/>
      <path id="Trazado_1036202" data-name="Trazado 1036202" d="M61.8,239.569l-20.3,4.461.289,14.463a1.945,1.945,0,0,0,1.945,1.906h.143a1.945,1.945,0,0,0,1.945-1.906l.209-10.487H61.8v-8.437Z" transform="translate(-19.375 -208.505)" fill="#d77f4a"/>
      <path id="Trazado_1036203" data-name="Trazado 1036203" d="M286.453,288.255l-.593,15.312a1.945,1.945,0,0,0,1.944,2.02h.81a1.945,1.945,0,0,0,1.94-1.807l1.078-15.182a6.307,6.307,0,1,0-5.179-.342Z" transform="translate(-229.666 -240.545)" fill="#c86d36"/>
      <path id="Trazado_1036204" data-name="Trazado 1036204" d="M68.169,31.905c-13.2.311-16.049,2.157-16.049,2.157-.44-7.838-6.2-15.972-11.033-19.484a8.284,8.284,0,0,0-1.836-1.029c-.4-4.558-3.1-6.05-3.1-6.05-1.844,1.476-1.79,4.389-1.5,6.35a6.547,6.547,0,0,0-2.714,3.137s-4.181,8.191-5.132,10.476c-.963,2.313,4.2,6.3,7.01,2.721,4.581-5.833,5.358-6.749,5.358-6.749l-.2,6.405a30.474,30.474,0,0,1-.611,5.257c-.665,3.2-2.96,10.789,2.511,14.453a9.1,9.1,0,0,0,2.6,1.163l.536,18.827a1.945,1.945,0,0,0,1.944,1.89h.788a1.945,1.945,0,0,0,1.945-1.945V51.258a43.838,43.838,0,0,0,11.435-2.152s5.473,3.314,11.339,2.346l.512,18.088a1.945,1.945,0,0,0,1.944,1.89h.788a1.945,1.945,0,0,0,1.945-1.945V49.24C83.595,43.821,79.888,31.629,68.169,31.905Z" transform="translate(-6.49 -6.527)" fill="#d77f4a"/>
      <g id="Grupo_1212203" data-name="Grupo 1212203" transform="translate(28.118 0.973)">
        <path id="Trazado_1036205" data-name="Trazado 1036205" d="M88.513,13.55a8.284,8.284,0,0,1,1.836,1.029c4.829,3.511,10.593,11.645,11.033,19.484a12.238,12.238,0,0,1,3.793-1.1c-.882-7.486-6.334-15.032-10.937-18.379A8.283,8.283,0,0,0,92.4,13.55C92,8.992,89.3,7.5,89.3,7.5a4.579,4.579,0,0,0-1.541,2.945A9.986,9.986,0,0,1,88.513,13.55Z" transform="translate(-87.76 -7.5)" fill="#c86d36"/>
        <path id="Trazado_1036206" data-name="Trazado 1036206" d="M339.6,346.514q.156.02.314.037l0-.084C339.8,346.484,339.7,346.5,339.6,346.514Z" transform="translate(-306.943 -302.516)" fill="#c86d36"/>
        <path id="Trazado_1036207" data-name="Trazado 1036207" d="M332.781,195.691c-.717.017-1.4.039-2.057.064,9.23.867,12.552,10.011,8.338,15.568a8.091,8.091,0,0,0-1.686,4.881V233.27a1.945,1.945,0,1,0,3.89,0V213.026c6.941-5.419,3.234-17.611-8.485-17.335Z" transform="translate(-299.221 -171.286)" fill="#c86d36"/>
      </g>
      <path id="Trazado_1036208" data-name="Trazado 1036208" d="M261.4,195.772A74.5,74.5,0,0,0,249,196.9v3.42a6.2,6.2,0,0,0,12.4,0Z" transform="translate(-199.977 -170.387)" fill="#596c76"/>
      <path id="Trazado_1036209" data-name="Trazado 1036209" d="M286.084,195.928v4.386a6.2,6.2,0,0,1-4.256,5.888,6.2,6.2,0,0,0,8.146-5.888v-4.543C288.56,195.807,287.267,195.861,286.084,195.928Z" transform="translate(-228.546 -170.386)" fill="#465a61"/>
      <path id="Trazado_1036210" data-name="Trazado 1036210" d="M78.336,20.507A8.96,8.96,0,0,0,72.727,17.2l-.186-.03a.972.972,0,0,0-1.033.537l-3.763,7.792A14.287,14.287,0,0,0,62.078,24.4q-.209,0-.422.005A89.984,89.984,0,0,0,50.9,25.2a65.8,65.8,0,0,0-6.6-14.317c-4.611-7.514-9.483-8.2-11.735-8.038A6.9,6.9,0,0,0,30.13.122a.972.972,0,0,0-1.078.092C27.071,1.8,26.871,4.58,27.121,6.842a7.482,7.482,0,0,0-2.562,3.227c-.387.758-4.212,8.269-5.138,10.493-.634,1.522.387,3.549,2.376,4.715a4.648,4.648,0,0,0,6.3-1.019l.109-.138a27.88,27.88,0,0,0,1.45,3.117,19.021,19.021,0,0,0,1.126,1.82l-.049.217c-.215.956-.488,2.176-.67,3.512l-8.148,1.79a.972.972,0,0,0-.764.969l.289,14.463a2.933,2.933,0,0,0,2.917,2.859H24.5a2.933,2.933,0,0,0,2.917-2.859l.19-9.534h3.3a8.464,8.464,0,0,0,2.949,3.359A9.641,9.641,0,0,0,36.034,44.9L36.55,63.04a2.9,2.9,0,0,0,2.916,2.834h.788a2.921,2.921,0,0,0,2.917-2.917V57.214a.972.972,0,1,0-1.945,0v5.743a.974.974,0,0,1-.972.972h-.788a.968.968,0,0,1-.972-.945l-.536-18.827a.973.973,0,0,0-.707-.908,8.156,8.156,0,0,1-2.32-1.035,7.155,7.155,0,0,1-3.1-5.941,20.563,20.563,0,0,1,.534-5.369,5.693,5.693,0,0,0,3.528,1.68c.1.006.194.009.291.009,2.806,0,5.477-2.517,8.118-7.665a17.979,17.979,0,0,1,.359,2.66.973.973,0,0,0,.532.834.938.938,0,0,0,.961-.068,8.15,8.15,0,0,1,1.9-.644v2.215a7.174,7.174,0,1,0,14.347,0V26.352c3.793.1,8.155,1.8,9.773,6.328a8.106,8.106,0,0,1-2.609,9.266.973.973,0,0,0-.374.766v2.768a.972.972,0,1,0,1.945,0V43.173A10.023,10.023,0,0,0,74,32.026,10.838,10.838,0,0,0,72.8,29.644L79.545,27.6a.973.973,0,0,0,.687-.857,8.958,8.958,0,0,0-1.9-6.231ZM22.78,23.6C21.622,22.92,21,21.831,21.216,21.31c.262-.63.782-1.732,1.393-2.989a10.115,10.115,0,0,1,4.758,3.714l-.8,1.022a2.8,2.8,0,0,1-3.784.543Zm6.829-1.268c.837-1.063,1.5-1.9,2.016-2.55l-.107,3.5c-.03.981-.108,1.95-.229,2.9a26.014,26.014,0,0,1-1.68-3.855Zm-2.959,16.2a.972.972,0,0,0-.972.953l-.209,10.487a.978.978,0,0,1-.972.953h-.143a.978.978,0,0,1-.972-.953L23.108,36.3l6.768-1.487c-.021.522-.02,1.049.012,1.576a12.108,12.108,0,0,0,.317,2.136H26.65Zm9.361-7.884A4.77,4.77,0,0,1,32.864,28.6a31.615,31.615,0,0,0,.6-5.255l.2-6.405a.972.972,0,0,0-1.714-.659c-.026.031-.582.69-3.311,4.148a12.378,12.378,0,0,0-5.165-3.858c1.374-2.778,2.823-5.618,2.848-5.666a.94.94,0,0,0,.048-.111,5.576,5.576,0,0,1,2.288-2.627.972.972,0,0,0,.472-.985c-.2-1.313-.339-3.538.627-4.9a7.433,7.433,0,0,1,2.04,4.827.973.973,0,0,0,.613.82,7.353,7.353,0,0,1,1.619.91A29.509,29.509,0,0,1,43.507,22.1c-3.286,7.23-5.883,8.647-7.5,8.546ZM35.169,7.266a9.807,9.807,0,0,0-1.5-.907A11.4,11.4,0,0,0,33.34,4.77c2.021.066,5.646,1.166,9.305,7.128a63.965,63.965,0,0,1,6.321,13.628,22.191,22.191,0,0,0-2.487.618C45.512,18.51,40.086,10.841,35.169,7.266ZM60.455,29.928a5.229,5.229,0,1,1-10.457,0V27.315l.148-.026a76.654,76.654,0,0,1,9.6-.879l.2-.008.116,0,.389-.013Zm11.187-1.966a.975.975,0,0,0-.162.067A11.432,11.432,0,0,0,69.466,26.4l3.468-7.18a7.038,7.038,0,0,1,5.379,6.717Z" transform="translate(0 0)"/>
      <path id="Trazado_1036211" data-name="Trazado 1036211" d="M217.8,327.669a.972.972,0,0,0-.972.972v13.586a.974.974,0,0,1-.972.972h-.788a.967.967,0,0,1-.972-.945l-.512-18.088a.972.972,0,0,0-1.13-.932c-5.427.9-10.626-2.188-10.677-2.218a.973.973,0,0,0-.822-.087,43.077,43.077,0,0,1-11.143,2.1.972.972,0,0,0-.946.972V332.6a.972.972,0,1,0,1.945,0v-7.663a44.538,44.538,0,0,0,9.517-1.765,7.306,7.306,0,0,0,3.1,4.354l-.57,14.733a2.917,2.917,0,0,0,2.915,3.03h.81a2.927,2.927,0,0,0,2.91-2.711l1.036-14.591a7.361,7.361,0,0,0,1.194-.722l.426,15.051a2.9,2.9,0,0,0,2.916,2.835h.788a2.921,2.921,0,0,0,2.917-2.917V328.641a.972.972,0,0,0-.972-.972Zm-8.539-1.258a.972.972,0,0,0-.629.842l-1.078,15.182a.976.976,0,0,1-.97.9h-.81a.973.973,0,0,1-.972-1.01l.593-15.312a.973.973,0,0,0-.514-.9,5.354,5.354,0,0,1-2.37-2.558,19.605,19.605,0,0,0,8.5,1.767A5.38,5.38,0,0,1,209.257,326.411Z" transform="translate(-147.632 -279.27)"/>
    </g>
  </g>
</svg>
