<svg xmlns="http://www.w3.org/2000/svg" xmlns:xlink="http://www.w3.org/1999/xlink" width="118" height="118" viewBox="0 0 118 118">
  <defs>
    <filter id="Trazado_896985" x="0" y="0" width="118" height="118" filterUnits="userSpaceOnUse">
      <feOffset dy="3" input="SourceAlpha"/>
      <feGaussianBlur stdDeviation="3" result="blur"/>
      <feFlood flood-opacity="0.161"/>
      <feComposite operator="in" in2="blur"/>
      <feComposite in="SourceGraphic"/>
    </filter>
  </defs>
  <g id="Grupo_1212205" data-name="Grupo 1212205" transform="translate(-616.891 -18119)">
    <g id="Grupo_1211616" data-name="Grupo 1211616" transform="translate(-0.949 13840.111)">
      <g id="Grupo_1198724" data-name="Grupo 1198724" transform="translate(0.95 -182.434)">
        <g id="Grupo_1198140" data-name="Grupo 1198140" transform="translate(291 615.322)">
          <g id="Grupo_1111318" data-name="Grupo 1111318" transform="translate(334.891 3852)">
            <g id="Grupo_1109826" data-name="Grupo 1109826" transform="translate(0)">
              <g id="Grupo_1098742" data-name="Grupo 1098742" transform="translate(0 0)">
                <g transform="matrix(1, 0, 0, 1, -9, -6)" filter="url(#Trazado_896985)">
                  <g id="Trazado_896985-2" data-name="Trazado 896985" transform="translate(9 6)" fill="#efd026" opacity="0.859">
                    <path d="M 49.99993515014648 99.5 C 43.31726837158203 99.5 36.83476257324219 98.19129943847656 30.73248100280762 95.61025238037109 C 24.83812141418457 93.11714172363281 19.54434776306152 89.54795837402344 14.99820137023926 85.00179290771484 C 10.45204162597656 80.45565032958984 6.88285493850708 75.16187286376953 4.389748573303223 69.26751708984375 C 1.808695197105408 63.16523742675781 0.5000017881393433 56.6827278137207 0.5000017881393433 50.00006103515625 C 0.5000017881393433 43.31726455688477 1.808695197105408 36.83475494384766 4.389748573303223 30.73247528076172 C 6.88285493850708 24.83811569213867 10.45204162597656 19.54434204101562 14.99820137023926 14.99819660186768 C 19.54434776306152 10.45203590393066 24.83812141418457 6.88284969329834 30.73248100280762 4.389742851257324 C 36.83476257324219 1.808689475059509 43.31726837158203 0.4999961853027344 49.99993515014648 0.4999961853027344 C 56.68260192871094 0.4999961853027344 63.16510772705078 1.808689475059509 69.26738739013672 4.389742851257324 C 75.16175079345703 6.88284969329834 80.45552062988281 10.45203590393066 85.00167083740234 14.99819660186768 C 89.54782867431641 19.54434204101562 93.11701202392578 24.83811569213867 95.61012268066406 30.73247528076172 C 98.19117736816406 36.83475494384766 99.49987030029297 43.31726455688477 99.49987030029297 49.99993133544922 C 99.49987030029297 56.6827278137207 98.19117736816406 63.16523742675781 95.61012268066406 69.26751708984375 C 93.11701202392578 75.16187286376953 89.54782867431641 80.45565032958984 85.00167083740234 85.00179290771484 C 80.45552062988281 89.54795837402344 75.16175079345703 93.11714172363281 69.26738739013672 95.61025238037109 C 63.16510772705078 98.19129943847656 56.68260192871094 99.5 49.99993515014648 99.5 Z" stroke="none"/>
                    <path d="M 49.99993515014648 0.9999923706054688 C 43.38454818725586 0.9999923706054688 36.96757507324219 2.29541015625 30.92725372314453 4.850250244140625 C 25.09249877929688 7.318145751953125 19.85213470458984 10.85135650634766 15.35174560546875 15.35174560546875 C 10.85136413574219 19.85212707519531 7.318145751953125 25.09249114990234 4.850257873535156 30.92724609375 C 2.295417785644531 36.96757125854492 1 43.38454437255859 1 50.00006103515625 C 1 56.61544799804688 2.295417785644531 63.03242111206055 4.850257873535156 69.07273864746094 C 7.318145751953125 74.90750122070312 10.85136413574219 80.14786529541016 15.35174560546875 84.64824676513672 C 19.85213470458984 89.14863586425781 25.09249877929688 92.68184661865234 30.92725372314453 95.14974212646484 C 36.96757507324219 97.70458221435547 43.38454818725586 99 49.99993515014648 99 C 56.61532211303711 99 63.03229522705078 97.70458221435547 69.07261657714844 95.14974212646484 C 74.90737915039062 92.68184661865234 80.14773559570312 89.14863586425781 84.64812469482422 84.64824676513672 C 89.14850616455078 80.14786529541016 92.68172454833984 74.90750122070312 95.14961242675781 69.07273864746094 C 97.70445251464844 63.03242111206055 98.99987030029297 56.61544799804688 98.99987030029297 49.99993133544922 C 98.99987030029297 43.38454437255859 97.70445251464844 36.96757125854492 95.14961242675781 30.92724609375 C 92.68172454833984 25.09249114990234 89.14850616455078 19.85212707519531 84.64812469482422 15.35174560546875 C 80.14773559570312 10.85135650634766 74.90737915039062 7.318145751953125 69.07261657714844 4.850250244140625 C 63.03229522705078 2.29541015625 56.61532211303711 0.9999923706054688 49.99993515014648 0.9999923706054688 M 49.99993515014648 -7.62939453125e-06 C 77.6141357421875 -7.62939453125e-06 99.99987030029297 22.38572692871094 99.99987030029297 49.99993133544922 L 99.99987030029297 50.00006103515625 C 99.99987030029297 77.61426544189453 77.6141357421875 100 49.99993515014648 100 C 22.38573455810547 100 0 77.61426544189453 0 50.00006103515625 L 0 49.99993133544922 C 0 22.38572692871094 22.38573455810547 -7.62939453125e-06 49.99993515014648 -7.62939453125e-06 Z" stroke="none" fill="#fff"/>
                  </g>
                </g>
                <g id="Rectángulo_400907" data-name="Rectángulo 400907" transform="translate(0)" fill="none" stroke="#fff" stroke-width="1">
                  <rect width="100" height="100" rx="50" stroke="none"/>
                  <rect x="0.5" y="0.5" width="99" height="99" rx="49.5" fill="none"/>
                </g>
              </g>
            </g>
          </g>
        </g>
      </g>
    </g>
    <g id="_014---Feed-Animal" data-name="014---Feed-Animal" transform="translate(642.983 18142.1)">
      <g id="Icons" transform="translate(1.097 1.842)">
        <path id="Shape" d="M61.267,4.322H37.134a5.55,5.55,0,0,0-3.181-2.194L28.151.7a1.1,1.1,0,0,0-1.1,1.744l3.115,4.07A4.388,4.388,0,0,0,28.578,8.15L15.2,33.062C14.011,35.255,13.188,36.594,13,39.27A7.327,7.327,0,0,0,19.353,47.1a7.119,7.119,0,0,0,7.327-4.278c.11-.11-.208.132,15.565-9.938A13.558,13.558,0,0,0,45.669,27.4c8.545,0,13.558,1.492,16.7,9.872V5.419a1.1,1.1,0,0,0-1.1-1.1Z" transform="translate(1.258 -0.678)" fill="sienna"/>
        <path id="Shape-2" data-name="Shape" d="M58.388,5.1V36.908A17.43,17.43,0,0,0,55.1,31.193V5.1A1.1,1.1,0,0,0,54,4h3.291A1.1,1.1,0,0,1,58.388,5.1Z" transform="translate(5.234 -0.356)" fill="#783e22"/>
        <path id="Shape-3" data-name="Shape" d="M33.145,50.631,21.551,57.486a4.179,4.179,0,0,1-2.194.581H4.8c.186-.318-.8-.7-.8-1.1V46c2.4,0,4.212-.241,6.022,1.1a5.649,5.649,0,0,0,3.422,1.1h3.719a2.194,2.194,0,1,1,0,4.388c2.117,0-.318.669,14.556-4.914a1.744,1.744,0,0,1,1.9.527,1.6,1.6,0,0,1-.472,2.435Z" transform="translate(0.388 3.714)" fill="#ffe0b2"/>
        <path id="Shape-4" data-name="Shape" d="M5.485,46.2c0,11.7.121,11.342-.3,12.066a2.194,2.194,0,0,1-1.9,1.1h-1.1A2.194,2.194,0,0,1,0,57.166V46.2A2.194,2.194,0,0,1,1.645,44.08,5.221,5.221,0,0,1,3.291,44,2.194,2.194,0,0,1,5.485,46.2Z" transform="translate(0 3.519)" fill="#6a1b9a"/>
        <path id="Shape-5" data-name="Shape" d="M3.291,46.187c0,11.7.121,11.342-.3,12.066a2.194,2.194,0,0,1-1.349,1.02A2.194,2.194,0,0,1,0,57.156V46.187A2.194,2.194,0,0,1,1.645,44.07,2.194,2.194,0,0,1,3.291,46.187Z" transform="translate(0 3.528)" fill="#9d27b0"/>
        <path id="Shape-6" data-name="Shape" d="M26.692,39.908a7.119,7.119,0,0,1-7.338,4.333A7.24,7.24,0,0,1,13,37.495c-.252-3.126,1.1-5.4,2.194-7.295A23.781,23.781,0,0,1,26.692,39.908Z" transform="translate(1.257 2.184)" fill="#ffe0b2"/>
      </g>
      <g id="Layer_2" transform="translate(0 -0.02)">
        <path id="Shape-7" data-name="Shape" d="M62.362,5.39H38.767a6.735,6.735,0,0,0-3.433-2.128L26.426,1a1.1,1.1,0,0,0-1.1,1.733L29.574,8.22,14.217,36.674l-.132.285c-3.192,7.306,1.108,13.4,7.141,13.4a8.183,8.183,0,0,0,7.382-4.651C44.624,35.489,43.966,35.95,44.032,35.84a10.871,10.871,0,0,0,3.543-5.221c7.679,0,12.066,1.58,14.852,9.126a1.1,1.1,0,0,0,2.128-.351V7.584A2.194,2.194,0,0,0,62.362,5.39Zm0,29.343c-3.554-5.375-8.622-6.2-14.326-6.274a10.969,10.969,0,0,0-10.9-12.1,1.1,1.1,0,0,0,0,2.194,8.775,8.775,0,0,1,5.561,15.565c-16.915,10.8-15.533,9.872-15.741,10.125l-.186.274a6.033,6.033,0,0,1-11.573-2.38,9.664,9.664,0,0,1,.987-4.454L31.022,10.128l1.953,2.512A1.1,1.1,0,1,0,34.708,11.3L28.982,3.931,34.807,5.39a4.552,4.552,0,0,1,3.291,3.5,1.117,1.117,0,1,0,2.194-.417,5.879,5.879,0,0,0-.241-.889h2.567a3.291,3.291,0,0,1,3.291,3.291,1.1,1.1,0,0,0,2.194,0A5.4,5.4,0,0,0,47,7.584h1.1a3.291,3.291,0,0,1,3.291,3.291,1.1,1.1,0,0,0,2.194,0,5.4,5.4,0,0,0-1.1-3.291h1.1a3.291,3.291,0,0,1,3.291,3.291,1.1,1.1,0,0,0,2.194,0,5.4,5.4,0,0,0-1.1-3.291h4.388Z" transform="translate(1.26 -0.98)"/>
        <path id="Shape-8" data-name="Shape" d="M3.291,62.551c1.272,0,2.424.132,3.521-1.1h14.03a5.276,5.276,0,0,0,2.7-.735c12.889-7.613,11.562-6.856,11.649-6.856a2.7,2.7,0,0,0,.856-3.883,2.83,2.83,0,0,0-3.225-1.1L21.939,53.04a3.291,3.291,0,0,0-3.291-3.653H14.929a4.7,4.7,0,0,1-2.764-.889A6.922,6.922,0,0,0,8.1,47.194H7.481A3.291,3.291,0,0,0,4.388,45h-1.1A3.291,3.291,0,0,0,0,48.291V59.26a3.291,3.291,0,0,0,3.291,3.291Zm7.58-12.286a6.8,6.8,0,0,0,4.059,1.316h3.719a1.1,1.1,0,1,1,0,2.194c-5.145,0-6-.263-8.26,1.163A1.1,1.1,0,1,0,11.551,56.8c1.678-1.1,1.788-.834,8.161-.834.878,0,0,.23,13.821-4.969a.56.56,0,0,1,.537.976L22.421,58.832a3.049,3.049,0,0,1-1.58.428H7.679V49.388H8.1a4.794,4.794,0,0,1,2.775.878ZM2.194,48.291a1.1,1.1,0,0,1,1.1-1.1h1.1a1.1,1.1,0,0,1,1.1,1.1V59.26a1.1,1.1,0,0,1-1.1,1.1h-1.1a1.1,1.1,0,0,1-1.1-1.1Z" transform="translate(0 3.287)"/>
      </g>
    </g>
  </g>
</svg>
