<svg xmlns="http://www.w3.org/2000/svg" xmlns:xlink="http://www.w3.org/1999/xlink" width="418" height="168" viewBox="0 0 418 168">
  <defs>
    <filter id="Rectángulo_408663" x="0" y="0" width="418" height="168" filterUnits="userSpaceOnUse">
      <feOffset dy="3" input="SourceAlpha"/>
      <feGaussianBlur stdDeviation="3" result="blur"/>
      <feFlood flood-opacity="0.161"/>
      <feComposite operator="in" in2="blur"/>
      <feComposite in="SourceGraphic"/>
    </filter>
  </defs>
  <g id="Grupo_1213737" data-name="Grupo 1213737" transform="translate(-1011.051 -18428.264)">
    <g transform="matrix(1, 0, 0, 1, 1011.05, 18428.26)" filter="url(#Rectángulo_408663)">
      <rect id="Rectángulo_408663-2" data-name="Rectángulo 408663" width="400" height="150" rx="23" transform="translate(9 6)" fill="#f9eca8"/>
    </g>
    <g id="inspire-idea_14781822_1_" data-name="inspire-idea_14781822 (1)" transform="translate(1152.301 18457.256)">
      <g id="Grupo_1212178" data-name="Grupo 1212178" transform="translate(7.75 7.5)">
        <path id="Trazado_1036097" data-name="Trazado 1036097" d="M118.589,362.116v-8.744a5.317,5.317,0,0,0,4.321-5.223V333.114h27.462v15.035a5.317,5.317,0,0,0,4.321,5.223l.748,7.531Z" transform="translate(-91.937 -254.819)" fill="#ca6e59"/>
        <path id="Trazado_1036098" data-name="Trazado 1036098" d="M92.27,31.166c0,17.3-9.31,37.853-33.012,31.054l-19.777-9a7.81,7.81,0,0,1-.515-11.549l2-.551,1.38-1.373A8.252,8.252,0,0,1,44,25.6a.728.728,0,0,0,.426-.847,7.833,7.833,0,0,1-.219-1.844,7.624,7.624,0,0,1,7.541-7.7,7.548,7.548,0,0,1,1.467.147,3.579,3.579,0,0,1,.57-.577,3.045,3.045,0,0,0,1.265-2.657,8.5,8.5,0,0,1,11.906-.84.717.717,0,0,0,1.076-.173,7.46,7.46,0,0,1,12.769,0,.718.718,0,0,0,1.078.172,8.471,8.471,0,0,1,1.694-1.125C92.27,12.786,92.27,24.924,92.27,31.166Z" transform="translate(-29.708 -7.5)" fill="#73788c"/>
        <path id="Trazado_1036099" data-name="Trazado 1036099" d="M183.547,52.687a7.751,7.751,0,0,1-2.821,6.007l-22.62,12.292h-20.22l-7.247-3.3a35.53,35.53,0,0,0,24.31-52.073,8.416,8.416,0,0,1,3.828-.916,8.533,8.533,0,0,1,6.384,2.883l.4,1.94L167,20.817a7.542,7.542,0,0,1,1.464-.147,7.625,7.625,0,0,1,7.543,7.7,7.876,7.876,0,0,1-.4,2.465,8.244,8.244,0,0,1,2.258,14.382A7.679,7.679,0,0,1,183.547,52.687Z" transform="translate(-101.091 -12.969)" fill="#5e6577"/>
        <path id="Trazado_1036100" data-name="Trazado 1036100" d="M104.138,210.569a13.164,13.164,0,0,0,10.028-12.785h0a5.235,5.235,0,0,0-5.234-5.235h-4.794l-52.734.007H46.609a5.235,5.235,0,0,0-5.234,5.235h0A13.164,13.164,0,0,0,51.4,210.576Z" transform="translate(-33.29 -148.053)" fill="#ca6e59"/>
        <path id="Trazado_1036101" data-name="Trazado 1036101" d="M122.988,131.237a5.209,5.209,0,0,1,6.8,2.241,20.916,20.916,0,0,0,1.744,2.65l1.137,1.512c.481,1.4,1.552,7.963,3.038,7.963v19.972a16.661,16.661,0,0,1-5.69,12.541l-10.346,9.055a11.105,11.105,0,0,1-7.312,2.746h-6.136a11.106,11.106,0,0,1-7.312-2.746l-10.346-9.055a16.66,16.66,0,0,1-5.69-12.541V145.6a3.536,3.536,0,0,0,3.287-2.416l2.279-8.89a5.208,5.208,0,0,1,7.173-3.01l.333.159,2.68,1.027a29.676,29.676,0,0,0,21.236,0l2.68-1.027Z" transform="translate(-64.811 -101.106)" fill="#d78878"/>
        <path id="Trazado_1036102" data-name="Trazado 1036102" d="M174.039,304.617c-5.7,0-5.958-5.265-5.863-7.175a.72.72,0,0,1,.72-.682h10.267a.719.719,0,0,1,.721.7C179.933,299.384,179.556,304.617,174.039,304.617Z" transform="translate(-129.59 -227.206)" fill="#eaf6ff"/>
        <path id="Trazado_1036103" data-name="Trazado 1036103" d="M23.564,449.671l-15.093-.035a.72.72,0,0,1-.721-.721v-13.4a.723.723,0,0,1,.387-.642,23.317,23.317,0,0,1,6.288-2.164l1.738-.349L31.5,438.049Z" transform="translate(-7.75 -330.2)" fill="#9be69d"/>
        <path id="Trazado_1036104" data-name="Trazado 1036104" d="M316.964,439.772l-5.822,9.5-20.1.015-7.272-12.734c.079-.082,14.7-4.672,14.7-4.672l.993.19a23.331,23.331,0,0,1,6.572,2.313Z" transform="translate(-217.401 -329.836)" fill="#9be69d"/>
        <path id="Trazado_1036105" data-name="Trazado 1036105" d="M144.6,418.39l2.2,11.033-7.938,9.61-24.1.028-9.143-10.079,3.41-10.536A24.69,24.69,0,0,0,144.6,418.39Z" transform="translate(-82.077 -319.59)" fill="#eaf6ff"/>
        <path id="Trazado_1036106" data-name="Trazado 1036106" d="M63.746,423.668,57.18,400.058a2.643,2.643,0,0,0-3.314-1.82l-14.6,4.448a1.144,1.144,0,0,0-.715,1.56l3.079,6.972a.721.721,0,0,0,.5.412l7.5,1.721a.721.721,0,0,1,.43,1.116L45.993,420.3a.721.721,0,0,0-.088.656l.981,2.71Z" transform="translate(-31.072 -304.197)" fill="#bbf49b"/>
        <path id="Trazado_1036107" data-name="Trazado 1036107" d="M243.879,423.466l6.574-23.637a2.641,2.641,0,0,1,3.314-1.819l14.6,4.446a1.147,1.147,0,0,1,.715,1.56L266,410.989a.721.721,0,0,1-.5.412l-7.5,1.72a.721.721,0,0,0-.43,1.116l4.072,5.836a.721.721,0,0,1,.087.656l-.984,2.744Z" transform="translate(-187.101 -304.023)" fill="#bbf49b"/>
        <g id="Grupo_1212175" data-name="Grupo 1212175" transform="translate(89.012 65.228)">
          <path id="Trazado_1036108" data-name="Trazado 1036108" d="M406.5,387.922v9.247a28.169,28.169,0,0,1-.634,5.606,19.69,19.69,0,0,1-2.278,4.1c-1.457,2.453-.819,4.978-.81,7.829l-1.848,1.182H382.711v-3.958a9.944,9.944,0,0,0-2.616-6.721,8.232,8.232,0,0,1-2.162-5.555v-3.984a4.877,4.877,0,0,1,2.082-4Z" transform="translate(-377.933 -361.676)" fill="#d78878"/>
          <g id="Grupo_1212174" data-name="Grupo 1212174" transform="translate(22.24 15.526)">
            <path id="Trazado_1036109" data-name="Trazado 1036109" d="M476.756,344.9v9.168a1.923,1.923,0,0,1-.772,1.721c-.577.577-2.6-.305-3.485-.3l-1.568-1.676-.507-5.96,1.664-1.285a3.224,3.224,0,0,1,3.14-3.22C476.288,343.742,476.756,344.287,476.756,344.9Z" transform="translate(-470.425 -343.348)" fill="#d78878"/>
            <path id="Trazado_1036110" data-name="Trazado 1036110" d="M485.1,346.562v7.245a3.227,3.227,0,0,1-5.836,1.895l-.207-.219a3.227,3.227,0,0,0,3.2-3.227v-7.238a3.206,3.206,0,0,0-.469-1.676c.029,0,.058,0,.086,0A3.225,3.225,0,0,1,485.1,346.562Z" transform="translate(-476.979 -343.34)" fill="#ca6e59"/>
          </g>
          <path id="Trazado_1036111" data-name="Trazado 1036111" d="M480.919,386.87v9.645a15.726,15.726,0,0,1-2.212,8.043,15.731,15.731,0,0,0-2.21,8.1l.007,1.7a.721.721,0,0,1-.721.724h-2.219l-.01-2.424a15.757,15.757,0,0,1,2.212-8.1,15.726,15.726,0,0,0,2.212-8.043v-9.229Z" transform="translate(-450.561 -360.877)" fill="#ca6e59"/>
          <path id="Trazado_1036112" data-name="Trazado 1036112" d="M394.592,283.127v26.046c0,1.871-3.061,3.4-4.932,3.4l1.59-4.249-2.2-2.091V283.127a3.4,3.4,0,0,1,2.005-3.1C393.658,280.03,394.592,281.754,394.592,283.127Z" transform="translate(-386.378 -279.727)" fill="#d78878"/>
          <path id="Trazado_1036113" data-name="Trazado 1036113" d="M421.274,333.949V342.5c0,1.378-2.237,2.57-3.42,3.1a3.408,3.408,0,0,1-2.013-3.1l-.83-.184v-8.068l.83-.294a3.407,3.407,0,0,1,2.013-3.1C420.706,331.214,421.274,332.574,421.274,333.949Z" transform="translate(-406.095 -318.327)" fill="#d78878"/>
          <path id="Trazado_1036114" data-name="Trazado 1036114" d="M451.008,333.949v9.063c0,1.375-2.488,2.568-3.671,3.1a3.4,3.4,0,0,1-2.013-3.1l-.81-.517v-8.178l.81-.367a3.407,3.407,0,0,1,2.013-3.1C450.561,331.288,451.008,332.574,451.008,333.949Z" transform="translate(-428.504 -318.327)" fill="#d78878"/>
          <path id="Trazado_1036115" data-name="Trazado 1036115" d="M402.46,282.17v24.66c0,1.871-3.063,1.871-3.063,0V282.17a3.408,3.408,0,0,0-2-3.1,3.348,3.348,0,0,1,1.395-.3h.272A3.409,3.409,0,0,1,402.46,282.17Z" transform="translate(-392.715 -278.77)" fill="#ca6e59"/>
          <path id="Trazado_1036116" data-name="Trazado 1036116" d="M431.9,333v8.546a3.411,3.411,0,0,1-3.4,3.4h-.274a3.321,3.321,0,0,1-1.387-.3,3.408,3.408,0,0,0,2.013-3.1V333a3.407,3.407,0,0,0-2.013-3.1,3.321,3.321,0,0,1,1.387-.3h.274A3.411,3.411,0,0,1,431.9,333Z" transform="translate(-415.076 -317.378)" fill="#ca6e59"/>
          <path id="Trazado_1036117" data-name="Trazado 1036117" d="M461.316,333v9.063a3.411,3.411,0,0,1-3.4,3.4h-.272a3.314,3.314,0,0,1-1.387-.3,3.405,3.405,0,0,0,2.01-3.1V333a3.408,3.408,0,0,0-2.01-3.1,3.314,3.314,0,0,1,1.387-.3h.272A3.413,3.413,0,0,1,461.316,333Z" transform="translate(-437.421 -317.378)" fill="#ca6e59"/>
          <path id="Trazado_1036118" data-name="Trazado 1036118" d="M412.926,369.351a7.3,7.3,0,0,1-.155,1.5c-.632,3.024-5.132,3.4-8.32,3.731,0,0-3.464-1.613-6.027-.821-1.907.59-3.1,3.651-3.132,3.631l-6.242-3.265V371.05l6.027-4.334a6.753,6.753,0,0,1,3.859-1.256l10.006-.095A3.989,3.989,0,0,1,412.926,369.351Z" transform="translate(-386.377 -344.544)" fill="#ca6e59"/>
          <path id="Trazado_1036119" data-name="Trazado 1036119" d="M395.762,387.332l2.847-3.831a.722.722,0,0,1,.492-.286l6.152-.746a4.883,4.883,0,0,0,3.366-4.683,1.642,1.642,0,0,0-1.653-1.607h-9.052a6.11,6.11,0,0,0-3.506,1.1l-7.813,5.468Z" transform="translate(-384.512 -352.757)" fill="#d78878"/>
        </g>
        <g id="Grupo_1212177" data-name="Grupo 1212177" transform="translate(66.069 3.399)">
          <path id="Trazado_1036120" data-name="Trazado 1036120" d="M330.747,40.9c0,15.63-12.183,28.443-27.813,28.443-5.074,0-16.213-3.723-17.662-7.767l.274-1.106a.714.714,0,0,0-.062-.5,26.256,26.256,0,0,1,40.656-31.786C329.512,33.458,330.747,37.842,330.747,40.9Z" transform="translate(-282.517 -21.635)" fill="#eaf6ff"/>
          <path id="Trazado_1036121" data-name="Trazado 1036121" d="M335.482,74.12a26.3,26.3,0,0,1-39.41,16.791.717.717,0,0,0-.51-.094L284.735,92.88A.723.723,0,0,1,283.9,92l2.407-9.738a28.315,28.315,0,0,0,40.868-33.394A26.192,26.192,0,0,1,335.482,74.12Z" transform="translate(-283.549 -42.317)" fill="#d8ecfe"/>
          <g id="Grupo_1212176" data-name="Grupo 1212176" transform="translate(12.707 6.541)">
            <path id="Trazado_1036122" data-name="Trazado 1036122" d="M359.356,62.8c0,7.035-7.389,13.841-14.569,13.841-1.089,0-2.266.74-4.168-2.069a15.3,15.3,0,0,0-1.881-3.309,13.032,13.032,0,0,1,7.355-21.58C355.956,49.682,359.356,56.541,359.356,62.8Z" transform="translate(-335.361 -49.479)" fill="#ffe177"/>
            <path id="Trazado_1036123" data-name="Trazado 1036123" d="M376.773,61.869a12.986,12.986,0,0,1-3.316,8.683,15.735,15.735,0,0,0-3.156,9.382v.815l-13.12.042v-.719a22.027,22.027,0,0,0-1.613-7.169,13.2,13.2,0,0,0,3.157.379c7.18,0,13.4-4.675,13.4-11.71A12.813,12.813,0,0,0,361.44,49.04a13.042,13.042,0,0,1,15.334,12.829Z" transform="translate(-350.709 -48.837)" fill="#ffd15b"/>
            <path id="Trazado_1036124" data-name="Trazado 1036124" d="M371.8,179.51l2.04,3.983c0,2.162-1.3,3.983-5.951,3.983h-1.022a3.913,3.913,0,0,1-3.913-3.913V179.51H371.8Z" transform="translate(-356.317 -148.089)" fill="#5e6577"/>
            <path id="Trazado_1036125" data-name="Trazado 1036125" d="M391.335,179.511v4.054a3.913,3.913,0,0,1-3.913,3.913h-3.948a3.911,3.911,0,0,0,3.911-3.913v-4.054Z" transform="translate(-371.905 -148.09)" fill="#4d5263"/>
            <path id="Trazado_1036126" data-name="Trazado 1036126" d="M364.263,162.056c0,.866.525,1.847,0,2.417s-4.427,1.241-5.23,1.241h-9.624a3.027,3.027,0,0,1-2.905-3.136,3.268,3.268,0,0,1,.85-2.22,2.8,2.8,0,0,1,2.055-.918h9.624C360.638,159.439,364.263,160.322,364.263,162.056Z" transform="translate(-343.825 -132.844)" fill="#73788c"/>
            <path id="Trazado_1036127" data-name="Trazado 1036127" d="M406.787,162.577a3.263,3.263,0,0,1-.85,2.218,2.8,2.8,0,0,1-2.055.918h-5.271a2.8,2.8,0,0,0,2.055-.918,3.263,3.263,0,0,0,.85-2.218,3.028,3.028,0,0,0-2.905-3.138h5.271A3.028,3.028,0,0,1,406.787,162.577Z" transform="translate(-383.402 -132.844)" fill="#5e6577"/>
          </g>
        </g>
      </g>
      <g id="Grupo_1212187" data-name="Grupo 1212187" transform="translate(7.75 7.5)">
        <g id="Grupo_1212179" data-name="Grupo 1212179" transform="translate(8.086 44.503)">
          <path id="Trazado_1036128" data-name="Trazado 1036128" d="M51.283,210.567a13.165,13.165,0,0,1-9.907-12.755h0a5.235,5.235,0,0,1,5.234-5.235H51.4" transform="translate(-41.376 -192.577)" fill="none" stroke="#000" stroke-linecap="round" stroke-linejoin="round" stroke-miterlimit="10" stroke-width="2.5"/>
          <path id="Trazado_1036129" data-name="Trazado 1036129" d="M312.22,232.041a13.187,13.187,0,0,1-9.163,8.484" transform="translate(-240.135 -222.552)" fill="none" stroke="#000" stroke-linecap="round" stroke-linejoin="round" stroke-miterlimit="10" stroke-width="2.5"/>
        </g>
        <path id="Trazado_1036130" data-name="Trazado 1036130" d="M209.872,134.144a29.669,29.669,0,0,0,6.451-1.671l2.68-1.027.445-.209a5.207,5.207,0,0,1,7.143,3.025" transform="translate(-161.271 -101.106)" fill="none" stroke="#000" stroke-linecap="round" stroke-linejoin="round" stroke-miterlimit="10" stroke-width="2.5"/>
        <path id="Trazado_1036131" data-name="Trazado 1036131" d="M135.708,155.419v10.268a16.661,16.661,0,0,1-5.69,12.541l-10.346,9.055a11.105,11.105,0,0,1-7.312,2.746h-6.136a11.105,11.105,0,0,1-7.312-2.746l-10.346-9.055a16.66,16.66,0,0,1-5.69-12.541V145.715a3.536,3.536,0,0,0,3.287-2.416l2.279-8.89a5.208,5.208,0,0,1,7.173-3.01l.333.159,2.68,1.027a29.66,29.66,0,0,0,6.411,1.665" transform="translate(-64.811 -101.218)" fill="none" stroke="#000" stroke-linecap="round" stroke-linejoin="round" stroke-miterlimit="10" stroke-width="2.5"/>
        <g id="Grupo_1212181" data-name="Grupo 1212181" transform="translate(29.219 42.217)">
          <g id="Grupo_1212180" data-name="Grupo 1212180">
            <path id="Trazado_1036132" data-name="Trazado 1036132" d="M187.144,262.089a5.574,5.574,0,0,1-5.055,0" transform="translate(-169.387 -243.089)" fill="none" stroke="#000" stroke-linecap="round" stroke-linejoin="round" stroke-miterlimit="10" stroke-width="2.5"/>
            <path id="Trazado_1036133" data-name="Trazado 1036133" d="M138.511,184.257a9.617,9.617,0,0,0-9.245,0" transform="translate(-129.266 -183.073)" fill="none" stroke="#000" stroke-linecap="round" stroke-linejoin="round" stroke-miterlimit="10" stroke-width="2.5"/>
            <path id="Trazado_1036134" data-name="Trazado 1036134" d="M226.731,184.257a9.617,9.617,0,0,0-9.246,0" transform="translate(-196.273 -183.073)" fill="none" stroke="#000" stroke-linecap="round" stroke-linejoin="round" stroke-miterlimit="10" stroke-width="2.5"/>
            <line id="Línea_669" data-name="Línea 669" y1="4.096" transform="translate(25.836 6.943)" fill="none" stroke="#000" stroke-linecap="round" stroke-linejoin="round" stroke-miterlimit="10" stroke-width="2.5"/>
            <line id="Línea_670" data-name="Línea 670" y1="4.096" transform="translate(4.623 6.943)" fill="none" stroke="#000" stroke-linecap="round" stroke-linejoin="round" stroke-miterlimit="10" stroke-width="2.5"/>
          </g>
          <path id="Trazado_1036135" data-name="Trazado 1036135" d="M174.039,304.617c-6.969,0-5.8-7.857-5.8-7.857h11.606S180.8,304.617,174.039,304.617Z" transform="translate(-158.81 -269.423)" fill="none" stroke="#000" stroke-linecap="round" stroke-linejoin="round" stroke-miterlimit="10" stroke-width="2.5"/>
        </g>
        <path id="Trazado_1036136" data-name="Trazado 1036136" d="M102.815,17.9a7.435,7.435,0,0,0-7.2-2.55A8.655,8.655,0,0,0,87.4,9.231a8.517,8.517,0,0,0-6.174,2.658,7.477,7.477,0,0,0-13.619,0,8.517,8.517,0,0,0-6.174-2.658,8.654,8.654,0,0,0-8.218,6.118,7.43,7.43,0,0,0-1.467-.147,7.623,7.623,0,0,0-7.542,7.7,7.84,7.84,0,0,0,.4,2.464,8.245,8.245,0,0,0-2.258,14.383,7.77,7.77,0,0,0-2.861,13.472" transform="translate(-29.711 -7.5)" fill="none" stroke="#000" stroke-linecap="round" stroke-linejoin="round" stroke-miterlimit="10" stroke-width="2.5"/>
        <path id="Trazado_1036137" data-name="Trazado 1036137" d="M63.73,143.02a7.548,7.548,0,0,1-3.4-1.379" transform="translate(-47.685 -109.386)" fill="none" stroke="#000" stroke-linecap="round" stroke-linejoin="round" stroke-miterlimit="10" stroke-width="2.5"/>
        <path id="Trazado_1036138" data-name="Trazado 1036138" d="M105.6,40.2a7.157,7.157,0,0,1,4.536,3.013" transform="translate(-82.072 -32.336)" fill="none" stroke="#000" stroke-linecap="round" stroke-linejoin="round" stroke-miterlimit="10" stroke-width="2.5"/>
        <path id="Trazado_1036139" data-name="Trazado 1036139" d="M270.189,40.183a7.168,7.168,0,0,0-3.643,2.776" transform="translate(-204.317 -32.324)" fill="none" stroke="#000" stroke-linecap="round" stroke-linejoin="round" stroke-miterlimit="10" stroke-width="2.5"/>
        <path id="Trazado_1036140" data-name="Trazado 1036140" d="M333.046,50.836q-.121.762-.287,1.525A27.069,27.069,0,0,1,291.943,69.5l-12.566,2.4,3.1-12.561A27,27,0,0,1,301.8,20" transform="translate(-214 -16.996)" fill="none" stroke="#000" stroke-linecap="round" stroke-linejoin="round" stroke-miterlimit="10" stroke-width="2.5"/>
        <path id="Trazado_1036141" data-name="Trazado 1036141" d="M407.545,19.544q.97.139,1.944.349a27.03,27.03,0,0,1,20.975,22.18" transform="translate(-311.413 -16.648)" fill="none" stroke="#000" stroke-linecap="round" stroke-linejoin="round" stroke-miterlimit="10" stroke-width="2.5"/>
        <g id="Grupo_1212182" data-name="Grupo 1212182" transform="translate(78.774 9.946)">
          <path id="Trazado_1036142" data-name="Trazado 1036142" d="M341.019,75.008a15.371,15.371,0,0,0-2.293-4.413,13.018,13.018,0,1,1,19.353-.066,16.055,16.055,0,0,0-2.333,4.426" transform="translate(-335.355 -48.863)" fill="none" stroke="#000" stroke-linecap="round" stroke-linejoin="round" stroke-miterlimit="10" stroke-width="2.5"/>
          <line id="Línea_671" data-name="Línea 671" y1="9.571" transform="translate(13.018 16.522)" fill="none" stroke="#000" stroke-linecap="round" stroke-linejoin="round" stroke-miterlimit="10" stroke-width="2.5"/>
          <path id="Trazado_1036143" data-name="Trazado 1036143" d="M375.7,186.134v1.481a4.809,4.809,0,0,1-4.809,4.809h-3.163a4.809,4.809,0,0,1-4.809-4.809v-1.481" transform="translate(-356.29 -153.127)" fill="none" stroke="#000" stroke-linecap="round" stroke-linejoin="round" stroke-miterlimit="10" stroke-width="2.5"/>
          <path id="Trazado_1036144" data-name="Trazado 1036144" d="M365.114,164.372H352.158a3.291,3.291,0,0,1-3.291-3.291v-.194a3.291,3.291,0,0,1,3.291-3.291h12.956a3.291,3.291,0,0,1,3.291,3.291v.194A3.291,3.291,0,0,1,365.114,164.372Z" transform="translate(-345.618 -131.45)" fill="none" stroke="#000" stroke-linecap="round" stroke-linejoin="round" stroke-miterlimit="10" stroke-width="2.5"/>
          <line id="Línea_672" data-name="Línea 672" x2="8.334" transform="translate(9.024 16.501)" fill="none" stroke="#000" stroke-linecap="round" stroke-linejoin="round" stroke-miterlimit="10" stroke-width="2.5"/>
        </g>
        <path id="Trazado_1036145" data-name="Trazado 1036145" d="M346.53,432.2l.6.115a23.284,23.284,0,0,1,6.57,2.313" transform="translate(-265.069 -330.075)" fill="none" stroke="#000" stroke-linecap="round" stroke-linejoin="round" stroke-miterlimit="10" stroke-width="2.5"/>
        <path id="Trazado_1036146" data-name="Trazado 1036146" d="M250.768,358.351v8.966a5.317,5.317,0,0,0,4.321,5.223" transform="translate(-192.333 -273.987)" fill="none" stroke="#000" stroke-linecap="round" stroke-linejoin="round" stroke-miterlimit="10" stroke-width="2.5"/>
        <path id="Trazado_1036147" data-name="Trazado 1036147" d="M118.589,417.362h0a24.7,24.7,0,0,0,36.1,0h0" transform="translate(-91.937 -318.809)" fill="none" stroke="#000" stroke-linecap="round" stroke-linejoin="round" stroke-miterlimit="10" stroke-width="2.5"/>
        <path id="Trazado_1036148" data-name="Trazado 1036148" d="M15.372,376.305l-.946.189a23.285,23.285,0,0,0-6.676,2.37m30.973-20.513v8.966A5.317,5.317,0,0,1,34.4,372.54l-.276.053" transform="translate(-7.75 -273.987)" fill="none" stroke="#000" stroke-linecap="round" stroke-linejoin="round" stroke-miterlimit="10" stroke-width="2.5"/>
        <g id="Grupo_1212183" data-name="Grupo 1212183" transform="translate(6.722 93.927)">
          <path id="Trazado_1036149" data-name="Trazado 1036149" d="M58.2,413.625l-3.773-13.567a2.643,2.643,0,0,0-3.314-1.82l-14.6,4.448a1.144,1.144,0,0,0-.715,1.56l3.225,7.3,8.9,2.041-4.9,7.017,1.11,3.1" transform="translate(-35.703 -398.124)" fill="none" stroke="#000" stroke-linecap="round" stroke-linejoin="round" stroke-miterlimit="10" stroke-width="2.5"/>
          <line id="Línea_673" data-name="Línea 673" x1="0.548" y1="1.969" transform="translate(24.753 23.61)" fill="none" stroke="#000" stroke-linecap="round" stroke-linejoin="round" stroke-miterlimit="10" stroke-width="2.5"/>
          <path id="Trazado_1036150" data-name="Trazado 1036150" d="M244.868,423.7l6.577-23.644a2.641,2.641,0,0,1,3.314-1.819l14.6,4.446a1.147,1.147,0,0,1,.715,1.56l-3.225,7.3-8.9,2.04,4.9,7.018-1.11,3.095" transform="translate(-194.573 -398.125)" fill="none" stroke="#000" stroke-linecap="round" stroke-linejoin="round" stroke-miterlimit="10" stroke-width="2.5"/>
        </g>
        <g id="Grupo_1212186" data-name="Grupo 1212186" transform="translate(89.028 65.297)">
          <g id="Grupo_1212184" data-name="Grupo 1212184" transform="translate(23.904 15.526)">
            <path id="Trazado_1036151" data-name="Trazado 1036151" d="M483.865,346.849a3.222,3.222,0,0,0-3.223-3.223h0a3.227,3.227,0,0,0-3.227,3.227v7.237a3.227,3.227,0,0,0,3.227,3.227h0a3.227,3.227,0,0,0,3.227-3.227Z" transform="translate(-477.412 -343.626)" fill="none" stroke="#000" stroke-linecap="round" stroke-linejoin="round" stroke-miterlimit="10" stroke-width="2.5"/>
            <path id="Trazado_1036152" data-name="Trazado 1036152" d="M490.831,400.563" transform="translate(-487.604 -386.872)" fill="none" stroke="#000" stroke-linecap="round" stroke-linejoin="round" stroke-miterlimit="10" stroke-width="2.5"/>
          </g>
          <g id="Grupo_1212185" data-name="Grupo 1212185" transform="translate(25.935 26.083)">
            <path id="Trazado_1036153" data-name="Trazado 1036153" d="M490.28,387.53v9.644a15.662,15.662,0,0,1-2.211,7.955h0a15.74,15.74,0,0,0-2.211,8.1l.009,2.424" transform="translate(-485.857 -387.53)" fill="none" stroke="#000" stroke-linecap="round" stroke-linejoin="round" stroke-miterlimit="10" stroke-width="2.5"/>
          </g>
          <path id="Trazado_1036154" data-name="Trazado 1036154" d="M433.859,414.75a13.192,13.192,0,0,1,2.817,12.061l-.1.385" transform="translate(-420.427 -382.122)" fill="none" stroke="#000" stroke-linecap="round" stroke-linejoin="round" stroke-miterlimit="10" stroke-width="2.5"/>
          <path id="Trazado_1036155" data-name="Trazado 1036155" d="M389.115,308.486V282.457a3.41,3.41,0,0,1,3.4-3.4h.273a3.41,3.41,0,0,1,3.4,3.4v21.149" transform="translate(-386.442 -279.057)" fill="none" stroke="#000" stroke-linecap="round" stroke-linejoin="round" stroke-miterlimit="10" stroke-width="2.5"/>
          <path id="Trazado_1036156" data-name="Trazado 1036156" d="M418.532,333.293a3.41,3.41,0,0,1,3.4-3.4h.273a3.41,3.41,0,0,1,3.4,3.4v7.74" transform="translate(-408.786 -317.669)" fill="none" stroke="#000" stroke-linecap="round" stroke-linejoin="round" stroke-miterlimit="10" stroke-width="2.5"/>
          <path id="Trazado_1036157" data-name="Trazado 1036157" d="M447.947,340.951v-7.657a3.41,3.41,0,0,1,3.4-3.4h.273a3.41,3.41,0,0,1,3.4,3.4v3.246" transform="translate(-431.128 -317.669)" fill="none" stroke="#000" stroke-linecap="round" stroke-linejoin="round" stroke-miterlimit="10" stroke-width="2.5"/>
          <path id="Trazado_1036158" data-name="Trazado 1036158" d="M389.248,387.621l3.032-4.079,6.075-.783a4.883,4.883,0,0,0,3.366-4.639,1.653,1.653,0,0,0-1.653-1.651H391.4a6.11,6.11,0,0,0-3.506,1.1l-7.813,5.468a4.88,4.88,0,0,0-2.083,4v3.983a8.222,8.222,0,0,0,2.162,5.554,9.947,9.947,0,0,1,2.616,6.722v3.957" transform="translate(-377.999 -353.045)" fill="none" stroke="#000" stroke-linecap="round" stroke-linejoin="round" stroke-miterlimit="10" stroke-width="2.5"/>
        </g>
      </g>
    </g>
  </g>
</svg>
