<svg xmlns="http://www.w3.org/2000/svg" width="127" height="205.715" viewBox="0 0 127 205.715">
  <g id="Grupo_1212206" data-name="Grupo 1212206" transform="translate(-180.051 -19787)">
    <rect id="Rectángulo_408672" data-name="Rectángulo 408672" width="127" height="205.714" rx="12" transform="translate(180.051 19787)" fill="#0a3adb"/>
    <g id="Filled_outline" data-name="Filled outline" transform="translate(195.051 19842)">
      <path id="Trazado_1036212" data-name="Trazado 1036212" d="M22.979,21.831,67.546,8H81.377L92.135,47.957a5.732,5.732,0,0,1,0,3.074,6.916,6.916,0,0,1-6.147,4.61A7.9,7.9,0,0,1,78.3,49.494c-.307-1.36.307-1.844,0-3.074-.436-1.706-2.027-2.193-6.147-4.61a21.217,21.217,0,0,1-4.61-3.074c-1.076-1.292-2.062-3.535-1.537-7.684L42.957,54.1a22.007,22.007,0,0,1,0,6.147c-1.69,11.921-12.892,18.58-15.368,19.979v9.221h-16.9V87.914A7.684,7.684,0,0,0,3,80.23V32.589h9.221A10.758,10.758,0,0,0,22.979,21.831Z" transform="translate(0.537 3.22)" fill="#995f5b"/>
      <path id="Trazado_1036213" data-name="Trazado 1036213" d="M52.031,34.6c.307,1.229-.307,1.714,0,3.074a7.9,7.9,0,0,0,7.684,6.147,6.916,6.916,0,0,0,6.147-4.61,5.733,5.733,0,0,0,0-3.074l-1.644-6.107Z" transform="translate(26.809 15.044)" fill="#ceac9a"/>
      <path id="Trazado_1036214" data-name="Trazado 1036214" d="M18.368,11a4.61,4.61,0,0,0-4.61,4.61A6.147,6.147,0,0,1,7.61,21.758H3v9.221h9.221A10.758,10.758,0,0,0,22.979,20.221V15.61A4.61,4.61,0,0,0,18.368,11Z" transform="translate(0.537 4.831)" fill="#d3843d"/>
      <path id="Trazado_1036215" data-name="Trazado 1036215" d="M64.758,10.684V3L54,10.684l2.613,9.682,5.071-3.535A8.669,8.669,0,0,0,64.758,10.684Z" transform="translate(27.914 0.536)" fill="#66342e"/>
      <path id="Trazado_1036216" data-name="Trazado 1036216" d="M3,24H15.294V36.294A12.294,12.294,0,0,1,3,48.589H3Z" transform="translate(0.537 11.809)" fill="#f9bb4b"/>
      <path id="Trazado_1036217" data-name="Trazado 1036217" d="M11,34.758,37.991,54.647a21.152,21.152,0,0,0,.672-2.984,22.007,22.007,0,0,0,0-6.147L11,24Z" transform="translate(4.831 11.809)" fill="#d3843d"/>
      <path id="Trazado_1036218" data-name="Trazado 1036218" d="M60.567,8c0,6.424-3.126,11.8-9.221,13.831L19.074,32.589,16,21.831Z" transform="translate(7.515 3.22)" fill="#66342e"/>
      <path id="Trazado_1036219" data-name="Trazado 1036219" d="M86.286,21.549l4.248-2.963A10.077,10.077,0,0,0,94.2,11.411a1.309,1.309,0,0,0,.012-.191V3.536a1.537,1.537,0,0,0-2.43-1.249l-10.357,7.4H68.083a1.57,1.57,0,0,0-.461.069L25.052,22.966V20.441a6.147,6.147,0,1,0-12.294,0,4.61,4.61,0,0,1-4.61,4.61H3.537A1.537,1.537,0,0,0,2,26.588V83.45a1.537,1.537,0,0,0,1.537,1.537,6.147,6.147,0,0,1,6.147,6.147v1.537a1.537,1.537,0,0,0,1.537,1.537h16.9a1.537,1.537,0,0,0,1.537-1.537V84.334c4.632-2.766,13.771-9.547,15.353-20.644a23.513,23.513,0,0,0,.1-5.809l.261-.261A20.45,20.45,0,0,0,61.662,74.2a19.429,19.429,0,0,0,3.472.307A20.788,20.788,0,0,0,84.614,60.245a7.806,7.806,0,0,0,2,.144,8.474,8.474,0,0,0,7.53-5.712,7.211,7.211,0,0,0,.009-3.905ZM89.18,44.122l-8.874,3.327-1.36-10.888L85.9,31.927Zm1.955-37.6v4.6a7.034,7.034,0,0,1-2.416,4.984L85.438,18.4,83.675,11.85ZM69.558,12.757H80.735L85.054,28.8l-7.49,4.995L66.518,21.363a16.362,16.362,0,0,0,3.04-8.606ZM77.331,50.85a5.47,5.47,0,0,0-.1,1.537c-1.18,1.81-5.565,7.775-12.281,8.019-5.761.169-10.495-3.842-12.78-5.783a25.7,25.7,0,0,1-1.939-1.86l14.72-14.72a9.119,9.119,0,0,0,1.944,4.9,20.816,20.816,0,0,0,5.018,3.418c.9.529,1.681.967,2.357,1.345,2.35,1.317,2.92,1.69,3.074,2.322a1.69,1.69,0,0,1-.015.822ZM60.4,15.216l6.015-1.867A11.806,11.806,0,0,1,60.4,22.7Zm4.028,8.422L75.837,36.475l1.156,9.239c-.378-.22-.768-.446-1.219-.695-.661-.37-1.423-.8-2.305-1.312a24.707,24.707,0,0,1-4.2-2.729c-1.162-1.4-1.566-3.595-1.2-6.51a1.537,1.537,0,0,0-2.613-1.28L48.327,50.318l-11.219-16.4,22.239-7.414a14.827,14.827,0,0,0,5.079-2.872ZM54.251,17.122l3.074-.954v7.778l-3.074,1.024ZM48.1,19.029l3.074-.953v7.918L48.1,27.017Zm-6.147,1.909,3.074-.954v8.059l-3.074,1.025ZM35.81,22.845l3.074-.953v8.2L35.81,31.116Zm-3.074.954v3.733l-2.107-3.074Zm-5.178,1.608,4.716,6.888-4.646,1.549-2.224-7.77ZM5.074,28.125H8.147a7.693,7.693,0,0,0,7.684-7.684,3.074,3.074,0,1,1,6.147,0v4.61a9.23,9.23,0,0,1-9.221,9.221H5.074Zm0,9.221h9.221V48.1A10.775,10.775,0,0,1,5.074,58.752ZM29.807,80.6a17.581,17.581,0,0,0-5.225-12.082,17.049,17.049,0,0,0-5.071-3.381L18.281,67.95a13.985,13.985,0,0,1,4.149,2.766,14.581,14.581,0,0,1,4.159,8.337c.214,1.385,0,12.081,0,12.081H12.758a9.236,9.236,0,0,0-7.684-9.093v-20.2A13.853,13.853,0,0,0,17.291,49.55l23.753,17.5c-2.274,6.531-7.5,11.028-11.237,13.545ZM41.972,63.255c-.029.2-.078.387-.112.582L17.368,45.8V38.951L42.034,58.135a20.51,20.51,0,0,1-.061,5.121Zm1.394-7.976L18.481,35.925a12.381,12.381,0,0,0,5.1-5.048l1.537,5.354a1.537,1.537,0,0,0,1.471,1.116,1.511,1.511,0,0,0,.486-.08l7-2.333,12.039,17.6Zm18.844,15.9A17.426,17.426,0,0,1,48.155,55.032c.65.675,1.32,1.326,2.027,1.927,2.318,1.972,7.664,6.522,14.351,6.522.177,0,.353,0,.532-.011,6.513-.237,11.125-4.732,13.442-7.633a10.192,10.192,0,0,0,3.253,3.275A17.54,17.54,0,0,1,62.211,71.18ZM91.2,53.815a5.416,5.416,0,0,1-4.767,3.51,6.407,6.407,0,0,1-6.09-4.955,2.167,2.167,0,0,1,.018-.993c.035-.2.071-.44.091-.7L89.976,47.1l1.2,4.466a4.159,4.159,0,0,1,.017,2.253Z" transform="translate(0 0)"/>
      <path id="Trazado_1036220" data-name="Trazado 1036220" d="M51,13h3.074v3.074H51Z" transform="translate(26.304 5.904)"/>
      <path id="Trazado_1036221" data-name="Trazado 1036221" d="M9,52h3.074v3.074H9Z" transform="translate(3.758 26.84)"/>
      <path id="Trazado_1036222" data-name="Trazado 1036222" d="M6,48H9.074v3.074H6Z" transform="translate(2.147 24.693)"/>
    </g>
  </g>
</svg>
