<svg xmlns="http://www.w3.org/2000/svg" width="85" height="85" viewBox="0 0 85 85">
  <g id="Grupo_1212207" data-name="Grupo 1212207" transform="translate(-620.975 -20472.926)">
    <g id="Grupo_1211619" data-name="Grupo 1211619" transform="translate(620.975 20472.926)">
      <path id="Trazado_1034100" data-name="Trazado 1034100" d="M42.5,0A42.5,42.5,0,1,1,0,42.5,42.5,42.5,0,0,1,42.5,0Z" fill="#efd026"/>
    </g>
    <g id="oveja" transform="translate(623.074 20485.379)">
      <path id="Trazado_1036223" data-name="Trazado 1036223" d="M72.894,32.161a1.443,1.443,0,0,1-.3-1.7,5.967,5.967,0,0,0-3.047-8.092,1.438,1.438,0,0,1-.852-1.641A5.964,5.964,0,0,0,62.22,13.5a1.442,1.442,0,0,1-1.469-.845,5.97,5.97,0,0,0-7.378-3.216,1.433,1.433,0,0,1-1.458-.292,6.337,6.337,0,0,0-5.064-1.611,5.949,5.949,0,0,0-4.735,1.612,1.433,1.433,0,0,1-1.458.292,5.97,5.97,0,0,0-7.378,3.216,1.442,1.442,0,0,1-1.469.845,5.964,5.964,0,0,0-6.476,7.236,1.438,1.438,0,0,1-.852,1.641,5.967,5.967,0,0,0-3.047,8.092,1.443,1.443,0,0,1-.3,1.7,6.265,6.265,0,0,0,0,9.008,1.443,1.443,0,0,1,.3,1.7,5.967,5.967,0,0,0,3.047,8.092,1.438,1.438,0,0,1,.852,1.641,5.964,5.964,0,0,0,6.476,7.236,1.442,1.442,0,0,1,1.469.845,5.97,5.97,0,0,0,7.378,3.216,1.433,1.433,0,0,1,1.458.292A6.337,6.337,0,0,0,47.18,65.8a5.949,5.949,0,0,0,4.735-1.612,1.433,1.433,0,0,1,1.458-.292,5.97,5.97,0,0,0,7.378-3.216,1.442,1.442,0,0,1,1.469-.845A5.964,5.964,0,0,0,68.7,52.6a1.438,1.438,0,0,1,.852-1.641,5.967,5.967,0,0,0,3.047-8.092,1.443,1.443,0,0,1,.3-1.7A6.265,6.265,0,0,0,72.894,32.161Z" transform="translate(-6.615 -6.619)" fill="#f1faff"/>
      <path id="Trazado_1036224" data-name="Trazado 1036224" d="M327.852,53.329a6.265,6.265,0,0,0,0-9.008,1.443,1.443,0,0,1-.3-1.7,5.967,5.967,0,0,0-3.047-8.092,1.438,1.438,0,0,1-.852-1.641,5.964,5.964,0,0,0-6.476-7.236,1.442,1.442,0,0,1-1.469-.845,5.97,5.97,0,0,0-7.378-3.216,1.553,1.553,0,0,1-.245.062,5.982,5.982,0,0,1,3.344,3.154,1.442,1.442,0,0,0,1.469.845,5.964,5.964,0,0,1,6.476,7.236,1.438,1.438,0,0,0,.852,1.641,5.967,5.967,0,0,1,3.047,8.092,1.443,1.443,0,0,0,.3,1.7,6.265,6.265,0,0,1,0,9.008,1.443,1.443,0,0,0-.3,1.7,5.967,5.967,0,0,1-3.047,8.092,1.438,1.438,0,0,0-.852,1.641,5.964,5.964,0,0,1-6.476,7.236,1.442,1.442,0,0,0-1.469.845,5.982,5.982,0,0,1-3.344,3.154,1.553,1.553,0,0,1,.245.062,5.97,5.97,0,0,0,7.378-3.216,1.442,1.442,0,0,1,1.469-.845,5.964,5.964,0,0,0,6.476-7.236,1.438,1.438,0,0,1,.852-1.641,5.967,5.967,0,0,0,3.047-8.092A1.443,1.443,0,0,1,327.852,53.329Z" transform="translate(-261.573 -18.779)" fill="#dcf5ff"/>
      <path id="Trazado_1036225" data-name="Trazado 1036225" d="M99.567,175.776c-.83-2.466-2.053-6.44-8.184-9.7a17.416,17.416,0,0,0-2.643-1.055,2.284,2.284,0,0,0-3.425-1.006,3.92,3.92,0,0,1-3.845.325,1.63,1.63,0,0,0-1.891.423,5.268,5.268,0,0,1-7.865,0,1.63,1.63,0,0,0-1.891-.423,3.921,3.921,0,0,1-3.845-.325,2.283,2.283,0,0,0-3.426,1.008,17.539,17.539,0,0,0-2.63,1.054c-6.131,3.261-7.354,7.235-8.184,9.7a1.216,1.216,0,0,0,1.087,1.609,15.436,15.436,0,0,0,8.025-1.674A10.36,10.36,0,0,0,62.271,182c1.867,3.125,2.432,3.886,2.9,5.562.543,1.244.84,6.558,6,9.119a10.035,10.035,0,0,0,8.936,0c5.163-2.561,5.459-7.875,6-9.119.472-1.676,1.037-2.436,2.9-5.562a10.361,10.361,0,0,0,1.42-6.292,15.433,15.433,0,0,0,8.038,1.681A1.216,1.216,0,0,0,99.567,175.776Z" transform="translate(-35.252 -144.4)" fill="#daeaef"/>
      <path id="Trazado_1036226" data-name="Trazado 1036226" d="M252.46,253.1a1.147,1.147,0,0,0-1.719.9,18.985,18.985,0,0,1-1.762,6.856c-1.867,3.125-2.432,3.886-2.9,5.562-.543,1.244-.84,6.558-6,9.119a10.077,10.077,0,0,1-2.326.819,10.019,10.019,0,0,0,6.6-.819c5.163-2.561,5.459-7.875,6-9.119.472-1.676,1.037-2.436,2.9-5.562a10.361,10.361,0,0,0,1.42-6.292A14.13,14.13,0,0,0,252.46,253.1Z" transform="translate(-199.488 -223.258)" fill="#c9e2e7"/>
      <path id="Trazado_1036227" data-name="Trazado 1036227" d="M336.217,166.077a17.417,17.417,0,0,0-2.643-1.055,2.284,2.284,0,0,0-3.426-1.007,3.9,3.9,0,0,1-1.084.517h0a26.415,26.415,0,0,1,11.14,12.733,16.184,16.184,0,0,0,3.113.12,1.216,1.216,0,0,0,1.087-1.609C343.571,173.312,342.348,169.338,336.217,166.077Z" transform="translate(-280.086 -144.402)" fill="#c9e2e7"/>
      <path id="Trazado_1036228" data-name="Trazado 1036228" d="M213.556,337.658l3.531,3.244a1.708,1.708,0,0,0,2.311,0l3.531-3.244a1.02,1.02,0,0,0-.829-1.761,28.209,28.209,0,0,1-7.716,0A1.02,1.02,0,0,0,213.556,337.658Z" transform="translate(-177.843 -296.465)" fill="#7ba0b0"/>
      <path id="Trazado_1036229" data-name="Trazado 1036229" d="M167.651,246.309a.88.88,0,0,0,1.245,1.245,1.7,1.7,0,0,1,2.4,0,.88.88,0,0,0,1.245-1.245A3.461,3.461,0,0,0,167.651,246.309Z" transform="translate(-137.392 -216.508)"/>
      <path id="Trazado_1036230" data-name="Trazado 1036230" d="M300.058,247.553a1.7,1.7,0,0,1,2.4,0,.88.88,0,0,0,1.245-1.245,3.461,3.461,0,0,0-4.889,0,.88.88,0,0,0,1.245,1.245Z" transform="translate(-253.161 -216.507)"/>
      <path id="Trazado_1036231" data-name="Trazado 1036231" d="M66.878,35.195a7.146,7.146,0,0,0,0-10.3.564.564,0,0,1-.106-.666,6.846,6.846,0,0,0-3.5-9.287.561.561,0,0,1-.336-.637,6.822,6.822,0,0,0-.177-3.644.88.88,0,0,0-1.672.552,5.063,5.063,0,0,1,.131,2.7,2.32,2.32,0,0,0,1.368,2.646,5.086,5.086,0,0,1,2.6,6.9,2.314,2.314,0,0,0,.493,2.725,5.385,5.385,0,0,1,0,7.717,2.314,2.314,0,0,0-.493,2.725,5.085,5.085,0,0,1-2.6,6.9,2.32,2.32,0,0,0-1.368,2.646,5.091,5.091,0,0,1-5.52,6.167A2.308,2.308,0,0,0,53.332,53.7a5.092,5.092,0,0,1-6.289,2.742,2.306,2.306,0,0,0-2.35.488A5.08,5.08,0,0,1,40.656,58.3a5.684,5.684,0,0,1-4.549-1.374,2.306,2.306,0,0,0-2.35-.488A5.092,5.092,0,0,1,27.469,53.7,2.308,2.308,0,0,0,25.1,52.338a5.09,5.09,0,0,1-5.52-6.167,2.32,2.32,0,0,0-1.368-2.646,5.086,5.086,0,0,1-2.6-6.9A2.315,2.315,0,0,0,15.12,33.9a5.386,5.386,0,0,1,0-7.717,2.315,2.315,0,0,0,.493-2.725,5.085,5.085,0,0,1,2.6-6.9,2.32,2.32,0,0,0,1.368-2.646A5.091,5.091,0,0,1,25.1,7.752a2.308,2.308,0,0,0,2.371-1.361,5.092,5.092,0,0,1,6.289-2.742,2.306,2.306,0,0,0,2.35-.488,5.081,5.081,0,0,1,4.037-1.374,5.688,5.688,0,0,1,4.549,1.374,2.306,2.306,0,0,0,2.35.488,5.092,5.092,0,0,1,6.289,2.742A2.309,2.309,0,0,0,55.7,7.752a5.111,5.111,0,0,1,3.189.7A.88.88,0,1,0,59.8,6.947,6.881,6.881,0,0,0,55.507,6a.563.563,0,0,1-.567-.329,6.854,6.854,0,0,0-8.467-3.69.554.554,0,0,1-.566-.1,7.014,7.014,0,0,0-5.6-1.851,6.839,6.839,0,0,0-5.415,1.852.554.554,0,0,1-.566.1,6.854,6.854,0,0,0-8.467,3.69A.562.562,0,0,1,25.294,6a6.853,6.853,0,0,0-7.432,8.3.561.561,0,0,1-.336.637,6.846,6.846,0,0,0-3.5,9.287.564.564,0,0,1-.106.666,7.146,7.146,0,0,0,0,10.3.564.564,0,0,1,.106.666,6.846,6.846,0,0,0,3.5,9.287.561.561,0,0,1,.336.637,6.853,6.853,0,0,0,7.432,8.3.561.561,0,0,1,.567.329,6.854,6.854,0,0,0,8.467,3.69.554.554,0,0,1,.566.1,7.014,7.014,0,0,0,5.6,1.851A6.838,6.838,0,0,0,45.907,58.2a.554.554,0,0,1,.566-.1,6.854,6.854,0,0,0,8.467-3.69.56.56,0,0,1,.568-.329,6.852,6.852,0,0,0,7.432-8.3.561.561,0,0,1,.336-.637,6.846,6.846,0,0,0,3.5-9.287.564.564,0,0,1,.106-.666Z" transform="translate(0 0)"/>
      <path id="Trazado_1036232" data-name="Trazado 1036232" d="M56.167,176.244a.88.88,0,0,0-.3,1.208A13.929,13.929,0,0,1,58,182.21c.515,2.065,1.585,6.361,6.157,8.629a10.849,10.849,0,0,0,9.719,0c4.572-2.268,5.642-6.565,6.157-8.63.624-2.5,1.117-3.046,3.114-6.389a11.157,11.157,0,0,0,1.585-5.344,16.742,16.742,0,0,0,7.17,1.159,2.091,2.091,0,0,0,1.624-.921,2.195,2.195,0,0,0,.192-2.009c-.839-2.5-2.243-6.68-8.551-10.035a17.02,17.02,0,0,0-2.445-1.006,3.153,3.153,0,0,0-4.534-1,3.048,3.048,0,0,1-2.98.252,2.5,2.5,0,0,0-2.916.637,4.387,4.387,0,0,1-6.551,0,2.5,2.5,0,0,0-2.916-.637,3.048,3.048,0,0,1-2.98-.252,3.152,3.152,0,0,0-4.536,1.007,17.147,17.147,0,0,0-2.431,1c-6.308,3.355-7.712,7.537-8.551,10.035a2.147,2.147,0,0,0,.192,2.009,2.091,2.091,0,0,0,1.624.921,16.739,16.739,0,0,0,7.158-1.155,11.182,11.182,0,0,0,.575,3.142.88.88,0,0,0,1.669-.559,9.42,9.42,0,0,1-.449-3.9.88.88,0,0,0-1.288-.861,14.656,14.656,0,0,1-7.562,1.574.336.336,0,0,1-.305-.449l.055-.163c.8-2.4,2.02-6.015,7.708-9.041a16.753,16.753,0,0,1,2.473-.989.88.88,0,0,0,.547-.481,1.4,1.4,0,0,1,2.126-.642,4.817,4.817,0,0,0,4.71.4.747.747,0,0,1,.866.21,6.148,6.148,0,0,0,9.179,0,.746.746,0,0,1,.866-.21,4.817,4.817,0,0,0,4.71-.4,1.4,1.4,0,0,1,2.126.641.88.88,0,0,0,.549.481,16.541,16.541,0,0,1,2.484.99c5.689,3.026,6.9,6.646,7.709,9.041.01.083.149.269.018.464a.338.338,0,0,1-.268.149,14.655,14.655,0,0,1-7.575-1.58.88.88,0,0,0-1.289.861,9.417,9.417,0,0,1-1.3,5.758c-2.063,3.453-2.623,4.1-3.311,6.866-.485,1.947-1.388,5.572-5.231,7.478a9.1,9.1,0,0,1-8.154,0c-3.843-1.907-4.746-5.531-5.231-7.478a15.362,15.362,0,0,0-2.333-5.241A.88.88,0,0,0,56.167,176.244Z" transform="translate(-28.622 -137.773)"/>
      <path id="Trazado_1036233" data-name="Trazado 1036233" d="M215.354,328.4a27.321,27.321,0,0,1-7.475,0,1.9,1.9,0,0,0-1.545,3.281l3.531,3.244a2.608,2.608,0,0,0,.871.53v.383a1.379,1.379,0,0,1-1.173,1.357l-1.723.252a.88.88,0,0,0,.126,1.751c.114,0,.021,0,1.852-.262a3.12,3.12,0,0,0,1.8-.931,3.12,3.12,0,0,0,1.8.931l1.723.252a.88.88,0,0,0,.255-1.742l-1.723-.252a1.379,1.379,0,0,1-1.173-1.357v-.383a2.607,2.607,0,0,0,.871-.53l3.531-3.244A1.9,1.9,0,0,0,215.354,328.4Zm.354,1.985-3.531,3.244a.823.823,0,0,1-1.12,0l-3.531-3.244a.14.14,0,0,1,.082-.244,28.994,28.994,0,0,0,7.988,0A.139.139,0,0,1,215.708,330.384Z" transform="translate(-171.216 -289.84)"/>
    </g>
  </g>
</svg>
