<svg xmlns="http://www.w3.org/2000/svg" width="86.369" height="86.369" viewBox="0 0 86.369 86.369">
  <g id="Grupo_1212430" data-name="Grupo 1212430" transform="translate(-284.74 -2892.256)">
    <g id="Grupo_1211653" data-name="Grupo 1211653" transform="translate(284.739 2892.257)">
      <g id="Grupo_1099347" data-name="Grupo 1099347" transform="translate(0 0)">
        <g id="Grupo_1099341" data-name="Grupo 1099341">
          <g id="Rectángulo_402588" data-name="Rectángulo 402588" transform="translate(0 0)" fill="#efd026" stroke="#fff" stroke-width="5">
            <rect width="86.369" height="86.369" rx="14" stroke="none"/>
            <rect x="2.5" y="2.5" width="81.369" height="81.369" rx="11.5" fill="none"/>
          </g>
        </g>
      </g>
    </g>
    <g id="ship_1756855" transform="translate(299.401 2910.371)">
      <path id="Trazado_1036881" data-name="Trazado 1036881" d="M390.927,83.877a2.228,2.228,0,0,0-2.228-2.228h-1.578a5.587,5.587,0,0,0-1.864-2.3,5.577,5.577,0,0,0-4.451,3.3h-1.578a2.227,2.227,0,0,0-1.86,3.454H388.7a2.228,2.228,0,0,0,2.228-2.228Zm0,0" transform="translate(-334.995 -70.507)" fill="#f2f2fc"/>
      <path id="Trazado_1036882" data-name="Trazado 1036882" d="M73.2,274.612a92.9,92.9,0,0,1-17.495-1.691,89.464,89.464,0,0,1-10.628-2.244,15.6,15.6,0,0,0,7.753,12.969h0a17.6,17.6,0,0,1,3.339,1.336c2.046-.438,3.45-2.125,5.722-2.125a5.841,5.841,0,0,1,2.776.809,4.6,4.6,0,0,1,1.124-.141,8.242,8.242,0,0,1,3.909,1.419c1.96-.488,3.35-2.088,5.561-2.088a5.841,5.841,0,0,1,2.776.809,4.6,4.6,0,0,1,1.124-.141,8.259,8.259,0,0,1,3.915,1.423c2.041-.484,3.672-2.091,5.89-2.091a11.125,11.125,0,0,0,4.437-8.245H73.2Zm0,0" transform="translate(-40.055 -240.518)" fill="#7c8388"/>
      <path id="Trazado_1036883" data-name="Trazado 1036883" d="M93.17,23.118H90.452A5.592,5.592,0,0,0,88.831,21H88.8a5.573,5.573,0,0,0-5.107,3.343h-.464a2.225,2.225,0,0,0-1.988,3.231h11.9a2.225,2.225,0,0,0,1.988-3.231H93.906a5.576,5.576,0,0,0-.736-1.224Zm0,0" transform="translate(-71.975 -18.66)" fill="#f2f2fc"/>
      <path id="Trazado_1036884" data-name="Trazado 1036884" d="M195.194,251.128V245H165v5.472a92.3,92.3,0,0,0,10.139.652C175.657,251.129,174.024,251.128,195.194,251.128Zm0,0" transform="translate(-146.616 -217.702)" fill="#6aa9ff"/>
      <path id="Trazado_1036885" data-name="Trazado 1036885" d="M334.228,171.114a1.114,1.114,0,1,0-1.114,1.114A1.115,1.115,0,0,0,334.228,171.114Zm0,0" transform="translate(-295.009 -151.059)"/>
      <path id="Trazado_1036886" data-name="Trazado 1036886" d="M206,131.114A1.114,1.114,0,1,0,207.114,130,1.115,1.115,0,0,0,206,131.114Zm0,0" transform="translate(-183.048 -115.516)"/>
      <path id="Trazado_1036887" data-name="Trazado 1036887" d="M55.932,247.827a6.851,6.851,0,0,1-3.007-.995,17.577,17.577,0,0,0-1.65-.761,12.141,12.141,0,0,0,3.209-8.272,1.114,1.114,0,0,0-1.114-1.114H49.692v-5.571A1.114,1.114,0,0,0,48.578,230H15.153a1.114,1.114,0,0,0-1.114,1.114v4.277a84.4,84.4,0,0,1-12.572-3.105A1.114,1.114,0,0,0,0,233.343,16.726,16.726,0,0,0,.63,237.9a1.114,1.114,0,1,0,2.144-.607,14.393,14.393,0,0,1-.464-2.4A92.676,92.676,0,0,0,28.48,238.91l.043,0,23.672,0a9.928,9.928,0,0,1-3.686,6.7,9.428,9.428,0,0,0-3.609,1.218,6.851,6.851,0,0,1-3.007.995,5.809,5.809,0,0,1-2.808-.978,7.825,7.825,0,0,0-3.877-1.251,7.825,7.825,0,0,0-3.877,1.251,5.809,5.809,0,0,1-2.808.978,5.809,5.809,0,0,1-2.808-.978,7.825,7.825,0,0,0-3.877-1.251,7.825,7.825,0,0,0-3.877,1.251,5.809,5.809,0,0,1-2.808.978,7.9,7.9,0,0,1-3.2-1.008A14.14,14.14,0,0,0,9.3,245.791a14.561,14.561,0,0,1-2.169-1.583,1.114,1.114,0,0,0-1.474,1.671l.1.091a13.032,13.032,0,0,0-1.842.88,5.809,5.809,0,0,1-2.808.978,1.114,1.114,0,0,0,0,2.228A7.826,7.826,0,0,0,4.991,248.8a5.809,5.809,0,0,1,2.808-.978,8.037,8.037,0,0,1,3.2,1.008,9.664,9.664,0,0,0,4.151,1.22A7.825,7.825,0,0,0,19.03,248.8a5.809,5.809,0,0,1,2.808-.978,5.809,5.809,0,0,1,2.808.978,7.825,7.825,0,0,0,3.877,1.251A7.825,7.825,0,0,0,32.4,248.8a5.809,5.809,0,0,1,2.808-.978,5.809,5.809,0,0,1,2.808.978,7.825,7.825,0,0,0,3.877,1.251,8.774,8.774,0,0,0,4.012-1.234,6.853,6.853,0,0,1,3.006-.995h0a6.86,6.86,0,0,1,3,.995,8.774,8.774,0,0,0,4.012,1.234,1.114,1.114,0,1,0,0-2.228Zm-8.468-11.142H43.007v-4.457h4.457Zm-24.512-4.457h4.457v4.436c-1.478-.031-2.97-.1-4.457-.206Zm6.685,0h4.457v4.457H29.637Zm6.685,0h4.457v4.457H36.322Zm-15.6,0v4.045c-1.488-.141-2.979-.319-4.457-.532v-3.512Zm0,0" transform="translate(0 -204.374)"/>
      <path id="Trazado_1036888" data-name="Trazado 1036888" d="M55.932,412.228a6.851,6.851,0,0,1-3.007-.994A8.774,8.774,0,0,0,48.913,410a8.774,8.774,0,0,0-4.012,1.234,6.851,6.851,0,0,1-3.007.994,5.809,5.809,0,0,1-2.808-.978A7.825,7.825,0,0,0,35.208,410a7.825,7.825,0,0,0-3.877,1.251,5.809,5.809,0,0,1-2.808.978,5.809,5.809,0,0,1-2.808-.978A7.825,7.825,0,0,0,21.838,410a7.825,7.825,0,0,0-3.877,1.251,5.809,5.809,0,0,1-2.808.978,7.9,7.9,0,0,1-3.2-1.008A9.665,9.665,0,0,0,7.8,410a7.825,7.825,0,0,0-3.877,1.251,5.809,5.809,0,0,1-2.808.978,1.114,1.114,0,0,0,0,2.228,7.826,7.826,0,0,0,3.877-1.251,5.809,5.809,0,0,1,2.808-.978,7.894,7.894,0,0,1,3.2,1.008,9.666,9.666,0,0,0,4.151,1.22,7.825,7.825,0,0,0,3.877-1.251,5.809,5.809,0,0,1,2.808-.978,5.809,5.809,0,0,1,2.808.978,7.825,7.825,0,0,0,3.877,1.251,7.825,7.825,0,0,0,3.877-1.251,5.809,5.809,0,0,1,2.808-.978,5.809,5.809,0,0,1,2.808.978,7.825,7.825,0,0,0,3.877,1.251,8.774,8.774,0,0,0,4.012-1.234,6.851,6.851,0,0,1,3.007-.995,6.851,6.851,0,0,1,3.007.995,8.774,8.774,0,0,0,4.012,1.234,1.114,1.114,0,0,0,0-2.228Zm0,0" transform="translate(0 -364.318)"/>
      <path id="Trazado_1036889" data-name="Trazado 1036889" d="M272.295,63.343H271.4a6.687,6.687,0,0,0-11.581,0h-.894a3.342,3.342,0,0,0-3.151,4.457h-8.659a1.114,1.114,0,0,0,0,2.228h25.181a3.343,3.343,0,0,0,0-6.685Zm0,4.457h-13.37a1.114,1.114,0,0,1,0-2.228H260.5a1.115,1.115,0,0,0,1.021-.668,4.459,4.459,0,0,1,8.173,0,1.114,1.114,0,0,0,1.021.668h1.578a1.114,1.114,0,0,1,0,2.228Zm0,0" transform="translate(-218.591 -53.315)"/>
      <path id="Trazado_1036890" data-name="Trazado 1036890" d="M379.8,172.228a1.114,1.114,0,0,0,0-2.228h-6.685a1.114,1.114,0,0,0,0,2.228Zm0,0" transform="translate(-330.553 -151.059)"/>
      <path id="Trazado_1036891" data-name="Trazado 1036891" d="M0,8.913a1.114,1.114,0,0,0,1.114,1.114H21.169a3.343,3.343,0,1,0,0-6.685H19.161A6.687,6.687,0,0,0,7.575,3.35,3.342,3.342,0,0,0,4.648,7.8H1.114A1.114,1.114,0,0,0,0,8.913ZM6.685,6.685A1.115,1.115,0,0,1,7.8,5.571h.464A1.115,1.115,0,0,0,9.284,4.9a4.459,4.459,0,0,1,8.173,0,1.114,1.114,0,0,0,1.021.668h2.692a1.114,1.114,0,1,1,0,2.228H7.8A1.115,1.115,0,0,1,6.685,6.685Zm0,0" transform="translate(0)"/>
      <path id="Trazado_1036892" data-name="Trazado 1036892" d="M23.228,326.114A1.114,1.114,0,1,1,22.114,325,1.114,1.114,0,0,1,23.228,326.114Zm0,0" transform="translate(-18.66 -288.789)"/>
    </g>
  </g>
</svg>
