<svg xmlns="http://www.w3.org/2000/svg" xmlns:xlink="http://www.w3.org/1999/xlink" width="118" height="118" viewBox="0 0 118 118">
  <defs>
    <filter id="Trazado_896985" x="0" y="0" width="118" height="118" filterUnits="userSpaceOnUse">
      <feOffset dy="3" input="SourceAlpha"/>
      <feGaussianBlur stdDeviation="3" result="blur"/>
      <feFlood flood-opacity="0.161"/>
      <feComposite operator="in" in2="blur"/>
      <feComposite in="SourceGraphic"/>
    </filter>
  </defs>
  <g id="Grupo_1213671" data-name="Grupo 1213671" transform="translate(-1036.891 -3920.662)">
    <g id="Grupo_1211774" data-name="Grupo 1211774" transform="translate(-0.949 -358.227)">
      <g id="Grupo_1198726" data-name="Grupo 1198726" transform="translate(0.95 -182.434)">
        <g id="Grupo_1198141" data-name="Grupo 1198141" transform="translate(711 615.322)">
          <g id="Grupo_1111318" data-name="Grupo 1111318" transform="translate(334.891 3852)">
            <g id="Grupo_1109826" data-name="Grupo 1109826" transform="translate(0)">
              <g id="Grupo_1098742" data-name="Grupo 1098742" transform="translate(0 0)">
                <g transform="matrix(1, 0, 0, 1, -9, -6)" filter="url(#Trazado_896985)">
                  <g id="Trazado_896985-2" data-name="Trazado 896985" transform="translate(9 6)" fill="#efd026" opacity="0.859">
                    <path d="M 49.99993515014648 99.5 C 43.31726837158203 99.5 36.83476257324219 98.19129943847656 30.73248100280762 95.61025238037109 C 24.83812141418457 93.11714172363281 19.54434776306152 89.54795837402344 14.99820137023926 85.00179290771484 C 10.45204162597656 80.45565032958984 6.88285493850708 75.16187286376953 4.389748573303223 69.26751708984375 C 1.808695197105408 63.16523742675781 0.5000017881393433 56.6827278137207 0.5000017881393433 50.00006103515625 C 0.5000017881393433 43.31726455688477 1.808695197105408 36.83475494384766 4.389748573303223 30.73247528076172 C 6.88285493850708 24.83811569213867 10.45204162597656 19.54434204101562 14.99820137023926 14.99819660186768 C 19.54434776306152 10.45203590393066 24.83812141418457 6.88284969329834 30.73248100280762 4.389742851257324 C 36.83476257324219 1.808689475059509 43.31726837158203 0.4999961853027344 49.99993515014648 0.4999961853027344 C 56.68260192871094 0.4999961853027344 63.16510772705078 1.808689475059509 69.26738739013672 4.389742851257324 C 75.16175079345703 6.88284969329834 80.45552062988281 10.45203590393066 85.00167083740234 14.99819660186768 C 89.54782867431641 19.54434204101562 93.11701202392578 24.83811569213867 95.61012268066406 30.73247528076172 C 98.19117736816406 36.83475494384766 99.49987030029297 43.31726455688477 99.49987030029297 49.99993133544922 C 99.49987030029297 56.6827278137207 98.19117736816406 63.16523742675781 95.61012268066406 69.26751708984375 C 93.11701202392578 75.16187286376953 89.54782867431641 80.45565032958984 85.00167083740234 85.00179290771484 C 80.45552062988281 89.54795837402344 75.16175079345703 93.11714172363281 69.26738739013672 95.61025238037109 C 63.16510772705078 98.19129943847656 56.68260192871094 99.5 49.99993515014648 99.5 Z" stroke="none"/>
                    <path d="M 49.99993515014648 0.9999923706054688 C 43.38454818725586 0.9999923706054688 36.96757507324219 2.29541015625 30.92725372314453 4.850250244140625 C 25.09249877929688 7.318145751953125 19.85213470458984 10.85135650634766 15.35174560546875 15.35174560546875 C 10.85136413574219 19.85212707519531 7.318145751953125 25.09249114990234 4.850257873535156 30.92724609375 C 2.295417785644531 36.96757125854492 1 43.38454437255859 1 50.00006103515625 C 1 56.61544799804688 2.295417785644531 63.03242111206055 4.850257873535156 69.07273864746094 C 7.318145751953125 74.90750122070312 10.85136413574219 80.14786529541016 15.35174560546875 84.64824676513672 C 19.85213470458984 89.14863586425781 25.09249877929688 92.68184661865234 30.92725372314453 95.14974212646484 C 36.96757507324219 97.70458221435547 43.38454818725586 99 49.99993515014648 99 C 56.61532211303711 99 63.03229522705078 97.70458221435547 69.07261657714844 95.14974212646484 C 74.90737915039062 92.68184661865234 80.14773559570312 89.14863586425781 84.64812469482422 84.64824676513672 C 89.14850616455078 80.14786529541016 92.68172454833984 74.90750122070312 95.14961242675781 69.07273864746094 C 97.70445251464844 63.03242111206055 98.99987030029297 56.61544799804688 98.99987030029297 49.99993133544922 C 98.99987030029297 43.38454437255859 97.70445251464844 36.96757125854492 95.14961242675781 30.92724609375 C 92.68172454833984 25.09249114990234 89.14850616455078 19.85212707519531 84.64812469482422 15.35174560546875 C 80.14773559570312 10.85135650634766 74.90737915039062 7.318145751953125 69.07261657714844 4.850250244140625 C 63.03229522705078 2.29541015625 56.61532211303711 0.9999923706054688 49.99993515014648 0.9999923706054688 M 49.99993515014648 -7.62939453125e-06 C 77.6141357421875 -7.62939453125e-06 99.99987030029297 22.38572692871094 99.99987030029297 49.99993133544922 L 99.99987030029297 50.00006103515625 C 99.99987030029297 77.61426544189453 77.6141357421875 100 49.99993515014648 100 C 22.38573455810547 100 0 77.61426544189453 0 50.00006103515625 L 0 49.99993133544922 C 0 22.38572692871094 22.38573455810547 -7.62939453125e-06 49.99993515014648 -7.62939453125e-06 Z" stroke="none" fill="#fff"/>
                  </g>
                </g>
                <g id="Rectángulo_400907" data-name="Rectángulo 400907" transform="translate(0)" fill="none" stroke="#fff" stroke-width="1">
                  <rect width="100" height="100" rx="50" stroke="none"/>
                  <rect x="0.5" y="0.5" width="99" height="99" rx="49.5" fill="none"/>
                </g>
              </g>
            </g>
          </g>
        </g>
      </g>
    </g>
    <g id="animal_1_" data-name="animal (1)" transform="translate(1059.269 3887.263)">
      <g id="Grupo_1213666" data-name="Grupo 1213666" transform="translate(1.073 62.66)">
        <g id="Grupo_1213664" data-name="Grupo 1213664" transform="translate(0 0)">
          <path id="Trazado_1039277" data-name="Trazado 1039277" d="M51.822,124.557l1.623-9.73,2.98-8.16a3.075,3.075,0,1,0-5.778-2.106l-3.391,9.32-1.609,9.646Z" transform="translate(-40.191 -97.752)" fill="#f9a08f"/>
          <path id="Trazado_1039278" data-name="Trazado 1039278" d="M44.335,91.131V81.267l1.6-8.539A3.075,3.075,0,1,0,39.887,71.6l-1.811,9.751v9.779h6.259Z" transform="translate(-33.702 -69.088)" fill="#fdb0a0"/>
          <path id="Trazado_1039279" data-name="Trazado 1039279" d="M19.6,135.088v-2.757a4.784,4.784,0,0,0-1.19-3.157L9.084,118.557a6.368,6.368,0,0,1-1.584-4.2V95.964l1.811-9.751a3.075,3.075,0,1,1,6.045,1.127l-1.6,8.539v12.193l12.156,12.156,8.949,3.342v11.519H19.6Z" transform="translate(-7.5 -81.61)" fill="#ffcec0"/>
          <path id="Trazado_1039280" data-name="Trazado 1039280" d="M44.029,178.729l1.319-6.757a3.41,3.41,0,0,0-6.618-1.614l-2.562,8.731a4.008,4.008,0,0,0,.515,3.458L46.817,197.39H59.274V194.32C59.274,185.982,44.029,178.729,44.029,178.729Z" transform="translate(-31.909 -153.772)" fill="#ffcec0"/>
          <path id="Trazado_1039281" data-name="Trazado 1039281" d="M61.79,178.729l1.319-6.757a3.41,3.41,0,0,0-2.946-4.04,3.508,3.508,0,0,0-.4-.024,3.413,3.413,0,0,0-3.05,1.89,3.411,3.411,0,0,1,2.2,3.865l-1.058,5.422a1.8,1.8,0,0,0,.923,1.939c3.581,1.906,14.061,8.073,14.061,14.986v11.24h4.2V194.319C77.034,185.982,61.79,178.729,61.79,178.729Z" transform="translate(-49.67 -153.771)" fill="#fdb0a0"/>
        </g>
        <g id="Grupo_1213665" data-name="Grupo 1213665" transform="translate(43.735 0)">
          <path id="Trazado_1039282" data-name="Trazado 1039282" d="M394.491,124.557l-1.623-9.73-2.98-8.16a3.075,3.075,0,1,1,5.778-2.106l3.391,9.32,1.609,9.646Z" transform="translate(-378.758 -97.752)" fill="#f9a08f"/>
          <path id="Trazado_1039283" data-name="Trazado 1039283" d="M420.283,91.131V81.267l-1.6-8.539a3.075,3.075,0,1,1,6.045-1.127l1.811,9.751v9.779h-6.259Z" transform="translate(-403.552 -69.088)" fill="#fdb0a0"/>
          <path id="Trazado_1039284" data-name="Trazado 1039284" d="M328.478,135.088v-2.757a4.784,4.784,0,0,1,1.19-3.157L339,118.557a6.368,6.368,0,0,0,1.584-4.2V95.965l-1.811-9.751a3.075,3.075,0,1,0-6.045,1.127l1.6,8.539v12.193l-12.156,12.156-8.949,3.342v11.519h15.262Z" transform="translate(-313.216 -81.61)" fill="#ffcec0"/>
          <path id="Trazado_1039285" data-name="Trazado 1039285" d="M409.517,95.962v18.389a6.376,6.376,0,0,1-1.584,4.2L398.6,129.173a4.782,4.782,0,0,0-1.19,3.157v2.757H393.66v-2.757a4.782,4.782,0,0,1,1.19-3.157l9.329-10.618a6.369,6.369,0,0,0,1.584-4.2V95.962l-1.811-9.751a3.069,3.069,0,0,0-1.147-1.874,3.076,3.076,0,0,1,4.9,1.874Z" transform="translate(-382.152 -81.608)" fill="#fdb0a0"/>
          <path id="Trazado_1039286" data-name="Trazado 1039286" d="M328.461,178.729l-1.319-6.757a3.41,3.41,0,0,1,6.618-1.614l2.562,8.731a4.008,4.008,0,0,1-.515,3.458l-10.135,14.842H313.216V194.32C313.216,185.982,328.461,178.729,328.461,178.729Z" transform="translate(-313.216 -153.772)" fill="#ffcec0"/>
        </g>
      </g>
      <g id="Grupo_1213670" data-name="Grupo 1213670" transform="translate(0 61.587)">
        <g id="Grupo_1213667" data-name="Grupo 1213667" transform="translate(20.672 3.168)">
          <path id="Trazado_1039287" data-name="Trazado 1039287" d="M178.618,121.6v2.19a1.846,1.846,0,0,1-.732,1.472l-2.241,1.7a1.827,1.827,0,0,1-.817.35l-3.034.5a10.6,10.6,0,0,0-8.789,9.049,1.383,1.383,0,0,1-1.736,1.147c-15.154-4.136-16.89-17.055-16.762-23.529a1.378,1.378,0,0,1,1.384-1.347l4.967.014,11.437-3.01,3.272.531a1.854,1.854,0,0,1,1.395,1.078L168,114.1l9.731,5.926A1.851,1.851,0,0,1,178.618,121.6Z" transform="translate(-144.501 -106.356)" fill="#fff2e3"/>
          <path id="Trazado_1039288" data-name="Trazado 1039288" d="M251.346,171.373v2.189a1.848,1.848,0,0,1-.733,1.472l-2.24,1.7a1.841,1.841,0,0,1-.817.35l-3.034.5a10.6,10.6,0,0,0-8.789,9.049A1.384,1.384,0,0,1,234,187.776a26.9,26.9,0,0,1-4.626-1.71c.161.048.324.093.488.138a1.447,1.447,0,0,0,1.819-1.2,11.111,11.111,0,0,1,9.21-9.484l3.181-.522a1.907,1.907,0,0,0,.855-.366l2.348-1.781a1.932,1.932,0,0,0,.766-1.542v-2.295a1.939,1.939,0,0,0-.173-.8l2.593,1.58a1.852,1.852,0,0,1,.887,1.58Z" transform="translate(-217.229 -156.127)" fill="#fee7c9"/>
          <path id="Trazado_1039289" data-name="Trazado 1039289" d="M173.453,117.415c-2.988,10.053-11.156,2.266-16.323,7.048a11.422,11.422,0,0,1-10,2.595,27.189,27.189,0,0,1-2.622-12.585,1.377,1.377,0,0,1,1.385-1.346l4.966.014,11.438-3.011,3.271.531a1.856,1.856,0,0,1,1.4,1.079L168,114.092Z" transform="translate(-144.499 -106.354)" fill="#3f5959"/>
          <path id="Trazado_1039290" data-name="Trazado 1039290" d="M347.639,165.24v2.189a1.848,1.848,0,0,1-.733,1.472l-2.24,1.7c0-2.459-.646-2.868-2.191-4.772a4.232,4.232,0,0,1,0-4.772l4.276,2.6A1.852,1.852,0,0,1,347.639,165.24Z" transform="translate(-313.522 -149.994)" fill="#fcac8d"/>
          <path id="Trazado_1039291" data-name="Trazado 1039291" d="M357.277,171.381v2.189a1.848,1.848,0,0,1-.733,1.472l-2.24,1.7a4.736,4.736,0,0,0-1.319-3.718l.217-.165a1.932,1.932,0,0,0,.767-1.542v-2.295a1.931,1.931,0,0,0-.173-.8l2.593,1.579a1.852,1.852,0,0,1,.887,1.58Z" transform="translate(-323.16 -156.135)" fill="#f9a08f"/>
          <path id="Trazado_1039292" data-name="Trazado 1039292" d="M215.044,86.149a5.438,5.438,0,0,1,.484,5.165,1.818,1.818,0,0,1-1.645,1.1,5.444,5.444,0,0,1-5.074-7.58,1.817,1.817,0,0,1,1.645-1.1A5.438,5.438,0,0,1,215.044,86.149Z" transform="translate(-199.234 -83.732)" fill="#3f5959"/>
        </g>
        <g id="Grupo_1213669" data-name="Grupo 1213669" transform="translate(0)">
          <path id="Trazado_1039293" data-name="Trazado 1039293" d="M199.728,123.449h-2.205a1.53,1.53,0,0,1-1.53-1.53v-3.3a1.53,1.53,0,0,1,1.53-1.53h2.205a1.53,1.53,0,0,1,1.53,1.53v3.3A1.53,1.53,0,0,1,199.728,123.449Z" transform="translate(-167.955 -109.149)" fill="#fcc16d"/>
          <path id="Trazado_1039294" data-name="Trazado 1039294" d="M209.148,118.622v3.3a1.529,1.529,0,0,1-1.53,1.53h-2.2a1.39,1.39,0,0,1-.213-.015,1.531,1.531,0,0,0,1.316-1.515v-3.3a1.529,1.529,0,0,0-1.316-1.515,1.39,1.39,0,0,1,.213-.015h2.2A1.529,1.529,0,0,1,209.148,118.622Z" transform="translate(-175.845 -109.152)" fill="#fca62f"/>
          <g id="Grupo_1213668" data-name="Grupo 1213668">
            <path id="Trazado_1039295" data-name="Trazado 1039295" d="M173.148,301.272a1.073,1.073,0,0,0-.157,1.509A9.169,9.169,0,0,1,175.4,308.4v12.93a1.073,1.073,0,1,0,2.146,0V308.4a11.213,11.213,0,0,0-2.891-6.97A1.073,1.073,0,0,0,173.148,301.272Z" transform="translate(-148.037 -266.778)"/>
            <path id="Trazado_1039296" data-name="Trazado 1039296" d="M15.577,79.428l2.738-7.484a4.139,4.139,0,0,0-3.938-5.569,4.146,4.146,0,0,0-7.734-2.631,4.145,4.145,0,0,0-4.815,3.324L.018,76.82a1.057,1.057,0,0,0-.018.2V95.4a7.439,7.439,0,0,0,1.851,4.911l9.329,10.618a3.71,3.71,0,0,1,.923,2.449v2.757a1.073,1.073,0,1,0,2.146,0v-2.757a5.854,5.854,0,0,0-1.457-3.866L3.463,98.9a5.293,5.293,0,0,1-1.317-3.5V77.115l1.793-9.654a2,2,0,1,1,3.936.734l-1.6,8.539a1.075,1.075,0,0,0-.018.2v3.9a1.079,1.079,0,0,0,.011.143L4.3,87.668a5.051,5.051,0,0,0,.656,4.374L12.167,102.6a1.073,1.073,0,1,0,1.772-1.21L6.732,90.831A2.918,2.918,0,0,1,6.355,88.3l.006-.019L8.923,79.55a2.337,2.337,0,0,1,4.536,1.106l-1.319,6.757a1.073,1.073,0,0,0,.592,1.174,48.97,48.97,0,0,1,8.709,5.553A1.073,1.073,0,0,0,22.8,92.481a50.3,50.3,0,0,0-8.4-5.457l1.163-5.957a4.477,4.477,0,0,0,.013-1.639ZM8.483,76.612l1.5-8.024A4.145,4.145,0,0,0,8.59,64.663a2,2,0,0,1,3.659,1.44l-1.6,8.539a1.075,1.075,0,0,0-.018.2v.916a4.461,4.461,0,0,0-2.15.856Zm4.3-.584V74.939l1.191-6.369A2,2,0,0,1,16.3,71.208l-2.087,5.715a4.515,4.515,0,0,0-1.433-.895Z" transform="translate(0 -61.588)"/>
            <path id="Trazado_1039297" data-name="Trazado 1039297" d="M319.65,79.428a4.477,4.477,0,0,0,.013,1.638l1.163,5.955c-3.178,1.633-15.108,8.293-15.108,16.187v12.886a1.1,1.1,0,0,0,1.04,1.117,1.073,1.073,0,0,0,1.106-1.073v-12.93c0-3.856,3.9-7.59,7.167-10.044a49.964,49.964,0,0,1,7.467-4.579,1.073,1.073,0,0,0,.592-1.174l-1.307-6.692a2.419,2.419,0,0,1,.394-1.891,2.313,2.313,0,0,1,1.618-.943,2.384,2.384,0,0,1,2.529,1.725l2.544,8.669.006.018a2.918,2.918,0,0,1-.377,2.532l-7.182,10.517a1.1,1.1,0,0,0,.229,1.509,1.073,1.073,0,0,0,1.518-.262l7.207-10.554a5.052,5.052,0,0,0,.656-4.374l-1.981-6.752a1.075,1.075,0,0,0,.026-.234V76.929a1.073,1.073,0,0,0-.018-.2l-1.588-8.489a2.065,2.065,0,0,1,.25-1.462,2,2,0,0,1,3.677.679l1.793,9.654V95.4a5.293,5.293,0,0,1-1.317,3.5l-9.328,10.618a5.854,5.854,0,0,0-1.457,3.866v2.712a1.1,1.1,0,0,0,1.04,1.117,1.073,1.073,0,0,0,1.106-1.073v-2.757a3.71,3.71,0,0,1,.923-2.449l9.329-10.618a7.438,7.438,0,0,0,1.851-4.911V77.015a1.071,1.071,0,0,0-.018-.2L333.4,67.068a4.145,4.145,0,0,0-4.815-3.324,4.146,4.146,0,0,0-7.734,2.631,4.146,4.146,0,0,0-4.19,4.124,1.069,1.069,0,0,0,1.437,1.016l.013,0a1.089,1.089,0,0,0,.7-1.022,2,2,0,0,1,2.451-1.918l1.191,6.369v1.089a4.508,4.508,0,0,0-1.433.9l-.316-.864a1.1,1.1,0,0,0-1.36-.693,1.073,1.073,0,0,0-.671,1.387Zm4.944-3.673v-.916a1.073,1.073,0,0,0-.018-.2l-1.6-8.539a2,2,0,0,1,3.659-1.44,4.145,4.145,0,0,0-1.394,3.925l1.5,8.023A4.464,4.464,0,0,0,324.594,75.755Z" transform="translate(-261.982 -61.587)"/>
            <path id="Trazado_1039298" data-name="Trazado 1039298" d="M173.542,90.058c-1.507,2.87-3.662,2.878-7.054,2.654-2.674-.177-5.7-.377-8.183,1.917a10.4,10.4,0,0,1-9.09,2.325,1.073,1.073,0,0,0-.368,2.114,15.866,15.866,0,0,0,2.715.241,11.751,11.751,0,0,0,8.2-3.105c1.8-1.667,4.124-1.514,6.584-1.351,2.6.172,5.49.362,7.678-1.827a4.109,4.109,0,0,0,.5.791c.2.25.39.475.563.682.943,1.129,1.279,1.535,1.364,2.723l-2.929.481a11.666,11.666,0,0,0-3.186,1.008,1.073,1.073,0,1,0,.934,1.932,9.519,9.519,0,0,1,2.6-.823l3.029-.5a2.908,2.908,0,0,0,1.3-.555l2.24-1.7a2.934,2.934,0,0,0,1.157-2.327v-2.19a2.943,2.943,0,0,0-1.4-2.5l-9.444-5.751-.9-2.048a2.918,2.918,0,0,0-2.2-1.7l-3.272-.531a1.075,1.075,0,0,0-.445.021l-.277.073a6.492,6.492,0,0,0-5.96-3.885h-.077a2.885,2.885,0,0,0-2.62,1.754,6.5,6.5,0,0,0-.5,3.147,2.61,2.61,0,0,0-1.717,1.845l-.154.04-4.826-.014h0a1.073,1.073,0,0,0,0,2.146l4.906.014v1.742a2.606,2.606,0,0,0,2.6,2.6h2.205a2.606,2.606,0,0,0,2.6-2.6v-3.3a2.606,2.606,0,0,0-2.6-2.6h-.865a4.365,4.365,0,0,1,.325-2.177.748.748,0,0,1,.67-.449,4.37,4.37,0,0,1,4.306,5.377,1.073,1.073,0,1,0,2.088.495,6.506,6.506,0,0,0,.149-2.053l.072-.019,3.047.495a.777.777,0,0,1,.585.452l1.037,2.353a1.072,1.072,0,0,0,.424.484l4.616,2.811A7.7,7.7,0,0,0,173.542,90.058Zm-15.58-6.449v3.3a.457.457,0,0,1-.457.457H155.3a.457.457,0,0,1-.457-.457v-3.3a.458.458,0,0,1,.457-.457h2.205A.458.458,0,0,1,157.962,83.609Zm21.111,8.279a.773.773,0,0,1,.374.664v2.19a.777.777,0,0,1-.307.617l-.731.554a6.8,6.8,0,0,0-1.676-2.79c-.167-.2-.348-.417-.544-.658a2.861,2.861,0,0,1-.357-2.549Z" transform="translate(-125.731 -74.139)"/>
            <path id="Trazado_1039299" data-name="Trazado 1039299" d="M270.008,255.774a1.073,1.073,0,0,0-1.5.232,11.7,11.7,0,0,0-2.15,5.338,1.073,1.073,0,0,0,.921,1.206,1.09,1.09,0,0,0,.144.01,1.073,1.073,0,0,0,1.062-.93,9.543,9.543,0,0,1,1.755-4.355,1.073,1.073,0,0,0-.232-1.5Z" transform="translate(-228.245 -227.816)"/>
          </g>
        </g>
      </g>
    </g>
  </g>
</svg>
