<svg xmlns="http://www.w3.org/2000/svg" xmlns:xlink="http://www.w3.org/1999/xlink" width="118" height="118" viewBox="0 0 118 118">
  <defs>
    <filter id="Trazado_896985" x="0" y="0" width="118" height="118" filterUnits="userSpaceOnUse">
      <feOffset dy="3" input="SourceAlpha"/>
      <feGaussianBlur stdDeviation="3" result="blur"/>
      <feFlood flood-opacity="0.161"/>
      <feComposite operator="in" in2="blur"/>
      <feComposite in="SourceGraphic"/>
    </filter>
  </defs>
  <g id="Grupo_1213673" data-name="Grupo 1213673" transform="translate(-196.891 -4112.662)">
    <g id="Grupo_1211775" data-name="Grupo 1211775" transform="translate(-0.949 -166.227)">
      <g id="Grupo_1198723" data-name="Grupo 1198723" transform="translate(0.95 -182.434)">
        <g id="Grupo_1198139" data-name="Grupo 1198139" transform="translate(-129 615.322)">
          <g id="Grupo_1111318" data-name="Grupo 1111318" transform="translate(334.891 3852)">
            <g id="Grupo_1109826" data-name="Grupo 1109826" transform="translate(0)">
              <g id="Grupo_1098742" data-name="Grupo 1098742" transform="translate(0 0)">
                <g transform="matrix(1, 0, 0, 1, -9, -6)" filter="url(#Trazado_896985)">
                  <g id="Trazado_896985-2" data-name="Trazado 896985" transform="translate(9 6)" fill="#efd026" opacity="0.859">
                    <path d="M 49.99993515014648 99.5 C 43.31726837158203 99.5 36.83476257324219 98.19129943847656 30.73248100280762 95.61025238037109 C 24.83812141418457 93.11714172363281 19.54434776306152 89.54795837402344 14.99820137023926 85.00179290771484 C 10.45204162597656 80.45565032958984 6.88285493850708 75.16187286376953 4.389748573303223 69.26751708984375 C 1.808695197105408 63.16523742675781 0.5000017881393433 56.6827278137207 0.5000017881393433 50.00006103515625 C 0.5000017881393433 43.31726455688477 1.808695197105408 36.83475494384766 4.389748573303223 30.73247528076172 C 6.88285493850708 24.83811569213867 10.45204162597656 19.54434204101562 14.99820137023926 14.99819660186768 C 19.54434776306152 10.45203590393066 24.83812141418457 6.88284969329834 30.73248100280762 4.389742851257324 C 36.83476257324219 1.808689475059509 43.31726837158203 0.4999961853027344 49.99993515014648 0.4999961853027344 C 56.68260192871094 0.4999961853027344 63.16510772705078 1.808689475059509 69.26738739013672 4.389742851257324 C 75.16175079345703 6.88284969329834 80.45552062988281 10.45203590393066 85.00167083740234 14.99819660186768 C 89.54782867431641 19.54434204101562 93.11701202392578 24.83811569213867 95.61012268066406 30.73247528076172 C 98.19117736816406 36.83475494384766 99.49987030029297 43.31726455688477 99.49987030029297 49.99993133544922 C 99.49987030029297 56.6827278137207 98.19117736816406 63.16523742675781 95.61012268066406 69.26751708984375 C 93.11701202392578 75.16187286376953 89.54782867431641 80.45565032958984 85.00167083740234 85.00179290771484 C 80.45552062988281 89.54795837402344 75.16175079345703 93.11714172363281 69.26738739013672 95.61025238037109 C 63.16510772705078 98.19129943847656 56.68260192871094 99.5 49.99993515014648 99.5 Z" stroke="none"/>
                    <path d="M 49.99993515014648 0.9999923706054688 C 43.38454818725586 0.9999923706054688 36.96757507324219 2.29541015625 30.92725372314453 4.850250244140625 C 25.09249877929688 7.318145751953125 19.85213470458984 10.85135650634766 15.35174560546875 15.35174560546875 C 10.85136413574219 19.85212707519531 7.318145751953125 25.09249114990234 4.850257873535156 30.92724609375 C 2.295417785644531 36.96757125854492 1 43.38454437255859 1 50.00006103515625 C 1 56.61544799804688 2.295417785644531 63.03242111206055 4.850257873535156 69.07273864746094 C 7.318145751953125 74.90750122070312 10.85136413574219 80.14786529541016 15.35174560546875 84.64824676513672 C 19.85213470458984 89.14863586425781 25.09249877929688 92.68184661865234 30.92725372314453 95.14974212646484 C 36.96757507324219 97.70458221435547 43.38454818725586 99 49.99993515014648 99 C 56.61532211303711 99 63.03229522705078 97.70458221435547 69.07261657714844 95.14974212646484 C 74.90737915039062 92.68184661865234 80.14773559570312 89.14863586425781 84.64812469482422 84.64824676513672 C 89.14850616455078 80.14786529541016 92.68172454833984 74.90750122070312 95.14961242675781 69.07273864746094 C 97.70445251464844 63.03242111206055 98.99987030029297 56.61544799804688 98.99987030029297 49.99993133544922 C 98.99987030029297 43.38454437255859 97.70445251464844 36.96757125854492 95.14961242675781 30.92724609375 C 92.68172454833984 25.09249114990234 89.14850616455078 19.85212707519531 84.64812469482422 15.35174560546875 C 80.14773559570312 10.85135650634766 74.90737915039062 7.318145751953125 69.07261657714844 4.850250244140625 C 63.03229522705078 2.29541015625 56.61532211303711 0.9999923706054688 49.99993515014648 0.9999923706054688 M 49.99993515014648 -7.62939453125e-06 C 77.6141357421875 -7.62939453125e-06 99.99987030029297 22.38572692871094 99.99987030029297 49.99993133544922 L 99.99987030029297 50.00006103515625 C 99.99987030029297 77.61426544189453 77.6141357421875 100 49.99993515014648 100 C 22.38573455810547 100 0 77.61426544189453 0 50.00006103515625 L 0 49.99993133544922 C 0 22.38572692871094 22.38573455810547 -7.62939453125e-06 49.99993515014648 -7.62939453125e-06 Z" stroke="none" fill="#fff"/>
                  </g>
                </g>
                <g id="Rect치ngulo_400907" data-name="Rect치ngulo 400907" transform="translate(0)" fill="none" stroke="#fff" stroke-width="1">
                  <rect width="100" height="100" rx="50" stroke="none"/>
                  <rect x="0.5" y="0.5" width="99" height="99" rx="49.5" fill="none"/>
                </g>
              </g>
            </g>
          </g>
        </g>
      </g>
    </g>
    <g id="depreciation_17231672" transform="translate(219.434 4129.061)">
      <rect id="Rect치ngulo_409238" data-name="Rect치ngulo 409238" width="49.605" height="6.764" rx="1" transform="translate(67.325 66.37) rotate(180)" fill="#536882"/>
      <g id="Grupo_1213672" data-name="Grupo 1213672" transform="translate(30.121 19.02)">
        <path id="Trazado_1039300" data-name="Trazado 1039300" d="M0,0H7.892V39.459a1.131,1.131,0,0,1-1.127,1.127H1.127A1.131,1.131,0,0,1,0,39.459Z" transform="translate(7.892 40.586) rotate(180)" fill="#e26677"/>
        <path id="Trazado_1039301" data-name="Trazado 1039301" d="M0,0H7.892V31.567a1.131,1.131,0,0,1-1.127,1.127H1.127A1.131,1.131,0,0,1,0,31.567Z" transform="translate(21.42 40.586) rotate(180)" fill="#e26677"/>
        <path id="Trazado_1039302" data-name="Trazado 1039302" d="M0,0H7.892V23.675A1.131,1.131,0,0,1,6.764,24.8H1.127A1.131,1.131,0,0,1,0,23.675Z" transform="translate(34.949 40.586) rotate(180)" fill="#e26677"/>
      </g>
      <circle id="Elipse_12233" data-name="Elipse 12233" cx="15.22" cy="15.22" r="15.22" transform="translate(3.627 35.93)" fill="#edae65"/>
      <circle id="Elipse_12234" data-name="Elipse 12234" cx="10.71" cy="10.71" r="10.71" transform="translate(8.137 40.44)" fill="#d88852"/>
      <path id="Trazado_1039303" data-name="Trazado 1039303" d="M66.2,58.478V35.93a2.261,2.261,0,0,0-2.255-2.255H58.306a2.261,2.261,0,0,0-2.255,2.255V58.478H52.669V28.039a2.261,2.261,0,0,0-2.255-2.255H44.777a2.261,2.261,0,0,0-2.255,2.255V58.478H39.14V20.147a2.261,2.261,0,0,0-2.255-2.255H31.248a2.261,2.261,0,0,0-2.255,2.255V38.354A16.34,16.34,0,1,0,18.847,67.5H66.2a2.261,2.261,0,0,0,2.255-2.255v-4.51A2.261,2.261,0,0,0,66.2,58.478ZM58.306,35.93h5.637V58.478H58.306ZM44.777,28.039h5.637V58.478H44.777Zm-7.892-7.892V58.478h-3.45A16.218,16.218,0,0,0,31.248,40.53V20.147Zm-32.131,31A14.092,14.092,0,1,1,18.847,65.243,14.112,14.112,0,0,1,4.755,51.15ZM66.2,65.243H27.088a16.539,16.539,0,0,0,4.972-4.51H66.2Zm-47.35-25.93A11.838,11.838,0,1,0,30.685,51.15,11.851,11.851,0,0,0,18.847,39.313Zm0,21.42A9.583,9.583,0,1,1,28.43,51.15,9.589,9.589,0,0,1,18.847,60.733Zm-.958-12.187v.327a1.121,1.121,0,0,0,.857,1.094l.755.192a3.367,3.367,0,0,1,2.559,3.281v.327a3.209,3.209,0,0,1-2.086,3v.8a1.127,1.127,0,1,1-2.255,0v-.8a3.209,3.209,0,0,1-2.086-3,1.127,1.127,0,0,1,2.255,0,.958.958,0,0,0,1.917,0v-.327a1.121,1.121,0,0,0-.857-1.094l-.755-.192a3.367,3.367,0,0,1-2.559-3.281v-.327a3.209,3.209,0,0,1,2.086-3v-.8a1.127,1.127,0,0,1,2.255,0v.8a3.209,3.209,0,0,1,2.086,3,1.127,1.127,0,1,1-2.255,0,.958.958,0,0,0-1.917,0ZM36.265,12.064a1.13,1.13,0,1,1,1.251-1.883l9.684,6.46,6.246-2.086a1.11,1.11,0,0,1,1.15.271l6.629,6.629-.316-2.232a1.127,1.127,0,0,1,2.232-.316l.8,5.581a1.152,1.152,0,0,1-.316.958,1.116,1.116,0,0,1-.8.327.744.744,0,0,1-.158-.011l-5.581-.8a1.127,1.127,0,1,1,.316-2.232l2.232.316L53.5,16.911l-6.1,2.029a1.12,1.12,0,0,1-.981-.135L36.277,12.041Z" fill="#1a2c3d"/>
    </g>
  </g>
</svg>
