<svg xmlns="http://www.w3.org/2000/svg" xmlns:xlink="http://www.w3.org/1999/xlink" width="118" height="118" viewBox="0 0 118 118">
  <defs>
    <filter id="Trazado_896985" x="0" y="0" width="118" height="118" filterUnits="userSpaceOnUse">
      <feOffset dy="3" input="SourceAlpha"/>
      <feGaussianBlur stdDeviation="3" result="blur"/>
      <feFlood flood-opacity="0.161"/>
      <feComposite operator="in" in2="blur"/>
      <feComposite in="SourceGraphic"/>
    </filter>
  </defs>
  <g id="Grupo_1213679" data-name="Grupo 1213679" transform="translate(-616.891 -4112.662)">
    <g id="Grupo_1211776" data-name="Grupo 1211776" transform="translate(-0.949 -166.227)">
      <g id="Grupo_1198724" data-name="Grupo 1198724" transform="translate(0.95 -182.434)">
        <g id="Grupo_1198140" data-name="Grupo 1198140" transform="translate(291 615.322)">
          <g id="Grupo_1111318" data-name="Grupo 1111318" transform="translate(334.891 3852)">
            <g id="Grupo_1109826" data-name="Grupo 1109826" transform="translate(0)">
              <g id="Grupo_1098742" data-name="Grupo 1098742" transform="translate(0 0)">
                <g transform="matrix(1, 0, 0, 1, -9, -6)" filter="url(#Trazado_896985)">
                  <g id="Trazado_896985-2" data-name="Trazado 896985" transform="translate(9 6)" fill="#efd026" opacity="0.859">
                    <path d="M 49.99993515014648 99.5 C 43.31726837158203 99.5 36.83476257324219 98.19129943847656 30.73248100280762 95.61025238037109 C 24.83812141418457 93.11714172363281 19.54434776306152 89.54795837402344 14.99820137023926 85.00179290771484 C 10.45204162597656 80.45565032958984 6.88285493850708 75.16187286376953 4.389748573303223 69.26751708984375 C 1.808695197105408 63.16523742675781 0.5000017881393433 56.6827278137207 0.5000017881393433 50.00006103515625 C 0.5000017881393433 43.31726455688477 1.808695197105408 36.83475494384766 4.389748573303223 30.73247528076172 C 6.88285493850708 24.83811569213867 10.45204162597656 19.54434204101562 14.99820137023926 14.99819660186768 C 19.54434776306152 10.45203590393066 24.83812141418457 6.88284969329834 30.73248100280762 4.389742851257324 C 36.83476257324219 1.808689475059509 43.31726837158203 0.4999961853027344 49.99993515014648 0.4999961853027344 C 56.68260192871094 0.4999961853027344 63.16510772705078 1.808689475059509 69.26738739013672 4.389742851257324 C 75.16175079345703 6.88284969329834 80.45552062988281 10.45203590393066 85.00167083740234 14.99819660186768 C 89.54782867431641 19.54434204101562 93.11701202392578 24.83811569213867 95.61012268066406 30.73247528076172 C 98.19117736816406 36.83475494384766 99.49987030029297 43.31726455688477 99.49987030029297 49.99993133544922 C 99.49987030029297 56.6827278137207 98.19117736816406 63.16523742675781 95.61012268066406 69.26751708984375 C 93.11701202392578 75.16187286376953 89.54782867431641 80.45565032958984 85.00167083740234 85.00179290771484 C 80.45552062988281 89.54795837402344 75.16175079345703 93.11714172363281 69.26738739013672 95.61025238037109 C 63.16510772705078 98.19129943847656 56.68260192871094 99.5 49.99993515014648 99.5 Z" stroke="none"/>
                    <path d="M 49.99993515014648 0.9999923706054688 C 43.38454818725586 0.9999923706054688 36.96757507324219 2.29541015625 30.92725372314453 4.850250244140625 C 25.09249877929688 7.318145751953125 19.85213470458984 10.85135650634766 15.35174560546875 15.35174560546875 C 10.85136413574219 19.85212707519531 7.318145751953125 25.09249114990234 4.850257873535156 30.92724609375 C 2.295417785644531 36.96757125854492 1 43.38454437255859 1 50.00006103515625 C 1 56.61544799804688 2.295417785644531 63.03242111206055 4.850257873535156 69.07273864746094 C 7.318145751953125 74.90750122070312 10.85136413574219 80.14786529541016 15.35174560546875 84.64824676513672 C 19.85213470458984 89.14863586425781 25.09249877929688 92.68184661865234 30.92725372314453 95.14974212646484 C 36.96757507324219 97.70458221435547 43.38454818725586 99 49.99993515014648 99 C 56.61532211303711 99 63.03229522705078 97.70458221435547 69.07261657714844 95.14974212646484 C 74.90737915039062 92.68184661865234 80.14773559570312 89.14863586425781 84.64812469482422 84.64824676513672 C 89.14850616455078 80.14786529541016 92.68172454833984 74.90750122070312 95.14961242675781 69.07273864746094 C 97.70445251464844 63.03242111206055 98.99987030029297 56.61544799804688 98.99987030029297 49.99993133544922 C 98.99987030029297 43.38454437255859 97.70445251464844 36.96757125854492 95.14961242675781 30.92724609375 C 92.68172454833984 25.09249114990234 89.14850616455078 19.85212707519531 84.64812469482422 15.35174560546875 C 80.14773559570312 10.85135650634766 74.90737915039062 7.318145751953125 69.07261657714844 4.850250244140625 C 63.03229522705078 2.29541015625 56.61532211303711 0.9999923706054688 49.99993515014648 0.9999923706054688 M 49.99993515014648 -7.62939453125e-06 C 77.6141357421875 -7.62939453125e-06 99.99987030029297 22.38572692871094 99.99987030029297 49.99993133544922 L 99.99987030029297 50.00006103515625 C 99.99987030029297 77.61426544189453 77.6141357421875 100 49.99993515014648 100 C 22.38573455810547 100 0 77.61426544189453 0 50.00006103515625 L 0 49.99993133544922 C 0 22.38572692871094 22.38573455810547 -7.62939453125e-06 49.99993515014648 -7.62939453125e-06 Z" stroke="none" fill="#fff"/>
                  </g>
                </g>
                <g id="Rectángulo_400907" data-name="Rectángulo 400907" transform="translate(0)" fill="none" stroke="#fff" stroke-width="1">
                  <rect width="100" height="100" rx="50" stroke="none"/>
                  <rect x="0.5" y="0.5" width="99" height="99" rx="49.5" fill="none"/>
                </g>
              </g>
            </g>
          </g>
        </g>
      </g>
    </g>
    <g id="cosecha_1_" data-name="cosecha (1)" transform="translate(623.553 4135.222)">
      <g id="Grupo_1213677" data-name="Grupo 1213677" transform="translate(24.169 0.938)">
        <ellipse id="Elipse_12235" data-name="Elipse 12235" cx="4.691" cy="2.998" rx="4.691" ry="2.998" transform="translate(6.173 31.371) rotate(-39.85)" fill="#8c8585"/>
        <ellipse id="Elipse_12236" data-name="Elipse 12236" cx="2.998" cy="4.691" rx="2.998" ry="4.691" transform="translate(39.081 29.955) rotate(-50.15)" fill="#9e9797"/>
        <path id="Trazado_1039304" data-name="Trazado 1039304" d="M367.165,223.918c-1.744-1.455-3.859-1.877-5.069-1.1a6.905,6.905,0,0,1,1.815,1.1c1.989,1.66,2.741,4.036,1.681,5.307a1.975,1.975,0,0,1-.453.4c1.495.606,2.955.5,3.707-.4C369.907,227.954,369.154,225.578,367.165,223.918Z" transform="translate(-320.659 -195.557)" fill="#8c8585"/>
        <path id="Trazado_1039305" data-name="Trazado 1039305" d="M224.873,252.707h7.785v6.561h-7.785Z" transform="translate(-200.596 -222.044)" fill="#ffcebf"/>
        <path id="Trazado_1039306" data-name="Trazado 1039306" d="M261.108,252.707h3.254v6.561h-3.254Z" transform="translate(-232.3 -222.044)" fill="#ffb09e"/>
        <path id="Trazado_1039307" data-name="Trazado 1039307" d="M152.317,9.68a4.583,4.583,0,0,0-3.9-2.18h-6.269a10.679,10.679,0,0,0-10.607,9.438c-.641,5.478-1.345,11.642-1.483,13.427A8.172,8.172,0,0,0,138.2,39.17h15.162a8.172,8.172,0,0,0,8.147-8.805c-.155-2-.978-8.756-1.634-14.008A7.619,7.619,0,0,0,152.317,9.68Z" transform="translate(-117.614 -7.5)" fill="#9e9797"/>
        <path id="Trazado_1039308" data-name="Trazado 1039308" d="M180.953,100.274H175.74a8.492,8.492,0,0,1-8.492-8.492V77.338h22.2V91.782A8.492,8.492,0,0,1,180.953,100.274Z" transform="translate(-150.177 -68.605)" fill="#ffdfcf"/>
        <path id="Trazado_1039309" data-name="Trazado 1039309" d="M284.773,77.34V91.783a8.491,8.491,0,0,1-8.492,8.492l-.08.015a8.49,8.49,0,0,0,5.318-7.878V77.34Z" transform="translate(-245.506 -68.606)" fill="#ffcebf"/>
        <path id="Trazado_1039310" data-name="Trazado 1039310" d="M152.88,305.177h25.791v21.512H152.88Z" transform="translate(-137.606 -267.952)" fill="#fef48b"/>
        <path id="Trazado_1039311" data-name="Trazado 1039311" d="M333.1,305.177h3.254v21.512H333.1Z" transform="translate(-295.29 -267.952)" fill="#fef056"/>
        <path id="Trazado_1039312" data-name="Trazado 1039312" d="M374.392,330.1h-8.951l-3.047-6.271-3.277-6.748V305.178a6.015,6.015,0,0,1,5.424,3.415l5.092,11.119Z" transform="translate(-318.053 -267.953)" fill="#ffcebf"/>
        <path id="Trazado_1039313" data-name="Trazado 1039313" d="M369.634,319.713l-5.092-11.119a6.015,6.015,0,0,0-5.424-3.415v.957a6.008,6.008,0,0,1,2.17,2.458l9.851,21.509h3.254Z" transform="translate(-318.054 -267.953)" fill="#ffb09e"/>
        <path id="Trazado_1039314" data-name="Trazado 1039314" d="M212.786,288.687l2.2,3.13a.763.763,0,0,0,1.271-.035l1.933-3.1L214.3,286.33Z" transform="translate(-190.021 -251.462)" fill="#99e6fc"/>
        <path id="Trazado_1039315" data-name="Trazado 1039315" d="M261.405,288.687l-2.2,3.13a.763.763,0,0,1-1.271-.035l-1.933-3.1,3.893-2.357Z" transform="translate(-227.832 -251.462)" fill="#62dbfb"/>
        <path id="Trazado_1039316" data-name="Trazado 1039316" d="M157.224,77.86s11.4-.235,16.226-7.887c0,0,1.642,5.591,5.971,5.591l.965-7.338h-24.6Z" transform="translate(-140.153 -60.632)" fill="#9e9797"/>
        <path id="Trazado_1039317" data-name="Trazado 1039317" d="M267.37,30.364c-.155-2-.978-8.756-1.634-14.008a7.619,7.619,0,0,0-7.561-6.676,4.583,4.583,0,0,0-3.9-2.18h-3.254a4.583,4.583,0,0,1,3.9,2.18,7.619,7.619,0,0,1,7.561,6.676c.655,5.253,1.478,12.008,1.634,14.008a8.172,8.172,0,0,1-8.147,8.805h3.254a8.172,8.172,0,0,0,8.147-8.805Z" transform="translate(-223.473 -7.5)" fill="#8c8585"/>
        <path id="Trazado_1039318" data-name="Trazado 1039318" d="M46.011,305.178v11.906l-3.287,6.768L39.687,330.1H30.736l4.749-10.371,5.1-11.138a6.014,6.014,0,0,1,5.424-3.415Z" transform="translate(-30.736 -267.953)" fill="#ffcebf"/>
        <g id="Grupo_1213674" data-name="Grupo 1213674" transform="translate(4.749 37.225)">
          <path id="Trazado_1039319" data-name="Trazado 1039319" d="M79.239,305.178v11.906l-3.287,6.768-7.238-4.121,5.1-11.138A6.015,6.015,0,0,1,79.239,305.178Z" transform="translate(-68.713 -305.178)" fill="#fef48b"/>
          <path id="Trazado_1039320" data-name="Trazado 1039320" d="M369.634,319.713l-7.238,4.119-3.277-6.748V305.178a6.015,6.015,0,0,1,5.424,3.415Z" transform="translate(-322.803 -305.178)" fill="#fef48b"/>
          <path id="Trazado_1039321" data-name="Trazado 1039321" d="M369.634,319.713l-7.238,4.119-3.277-6.748V305.178a6.015,6.015,0,0,1,5.424,3.415Z" transform="translate(-322.803 -305.178)" fill="#fef48b"/>
        </g>
        <path id="Trazado_1039322" data-name="Trazado 1039322" d="M361.287,308.594l5.765,12.588,2.581-1.469-5.092-11.119a6.015,6.015,0,0,0-5.424-3.415v.957A6.006,6.006,0,0,1,361.287,308.594Z" transform="translate(-318.053 -267.954)" fill="#fef056"/>
        <g id="Grupo_1213676" data-name="Grupo 1213676" transform="translate(8.928 43.877)">
          <g id="Grupo_1213675" data-name="Grupo 1213675" transform="translate(2.792)">
            <path id="Trazado_1039323" data-name="Trazado 1039323" d="M129.936,365.706h-5.483v-2.523a5.144,5.144,0,0,1,1.617-3.744l1.125-1.06,1.125,1.06a5.145,5.145,0,0,1,1.617,3.744v2.523Z" transform="translate(-124.453 -358.378)" fill="#80d261"/>
            <path id="Trazado_1039324" data-name="Trazado 1039324" d="M173.786,365.706H168.3v-2.523a5.144,5.144,0,0,1,1.617-3.744l1.125-1.06,1.125,1.06a5.145,5.145,0,0,1,1.617,3.744v2.523Z" transform="translate(-162.82 -358.378)" fill="#80d261"/>
            <path id="Trazado_1039325" data-name="Trazado 1039325" d="M217.635,365.706h-5.483v-2.523a5.144,5.144,0,0,1,1.617-3.744l1.125-1.06,1.125,1.06a5.145,5.145,0,0,1,1.617,3.744v2.523Z" transform="translate(-201.185 -358.378)" fill="#80d261"/>
            <path id="Trazado_1039326" data-name="Trazado 1039326" d="M261.484,365.706H256v-2.523a5.144,5.144,0,0,1,1.617-3.744l1.125-1.06,1.125,1.06a5.145,5.145,0,0,1,1.617,3.744v2.523Z" transform="translate(-239.551 -358.378)" fill="#80d261"/>
            <path id="Trazado_1039327" data-name="Trazado 1039327" d="M305.333,365.706H299.85v-2.523a5.144,5.144,0,0,1,1.617-3.744l1.125-1.06,1.125,1.06a5.144,5.144,0,0,1,1.617,3.744Z" transform="translate(-277.917 -358.378)" fill="#80d261"/>
            <path id="Trazado_1039328" data-name="Trazado 1039328" d="M349.183,365.706H343.7v-2.523a5.144,5.144,0,0,1,1.617-3.744l1.125-1.06,1.125,1.06a5.144,5.144,0,0,1,1.617,3.744v2.523Z" transform="translate(-316.283 -358.378)" fill="#80d261"/>
          </g>
          <path id="Trazado_1039329" data-name="Trazado 1039329" d="M136.119,359.438l-1.125-1.06-1.125,1.06a5.129,5.129,0,0,0-.5.548,5.144,5.144,0,0,1,1.115,3.2v2.523h3.254v-2.523A5.144,5.144,0,0,0,136.119,359.438Z" transform="translate(-129.461 -358.378)" fill="#68ca44"/>
          <path id="Trazado_1039330" data-name="Trazado 1039330" d="M179.968,359.438l-1.125-1.06-1.125,1.06a5.129,5.129,0,0,0-.5.548,5.144,5.144,0,0,1,1.115,3.2v2.523h3.254v-2.523A5.144,5.144,0,0,0,179.968,359.438Z" transform="translate(-167.826 -358.378)" fill="#68ca44"/>
          <path id="Trazado_1039331" data-name="Trazado 1039331" d="M223.817,359.438l-1.125-1.06-1.125,1.06a5.125,5.125,0,0,0-.5.548,5.144,5.144,0,0,1,1.115,3.2v2.523h3.254v-2.523A5.143,5.143,0,0,0,223.817,359.438Z" transform="translate(-206.192 -358.378)" fill="#68ca44"/>
          <path id="Trazado_1039332" data-name="Trazado 1039332" d="M267.667,359.438l-1.125-1.06-1.125,1.06a5.131,5.131,0,0,0-.5.548,5.144,5.144,0,0,1,1.115,3.2v2.523h3.254v-2.523A5.144,5.144,0,0,0,267.667,359.438Z" transform="translate(-244.558 -358.378)" fill="#68ca44"/>
          <path id="Trazado_1039333" data-name="Trazado 1039333" d="M311.516,359.438l-1.125-1.06-1.125,1.06a5.134,5.134,0,0,0-.5.548,5.144,5.144,0,0,1,1.115,3.2v2.523h3.254v-2.523A5.144,5.144,0,0,0,311.516,359.438Z" transform="translate(-282.924 -358.378)" fill="#68ca44"/>
          <path id="Trazado_1039334" data-name="Trazado 1039334" d="M355.365,359.438l-1.125-1.06-1.125,1.06a5.128,5.128,0,0,0-.5.548,5.144,5.144,0,0,1,1.115,3.2v2.523h3.254v-2.523A5.144,5.144,0,0,0,355.365,359.438Z" transform="translate(-321.29 -358.378)" fill="#68ca44"/>
          <path id="Trazado_1039335" data-name="Trazado 1039335" d="M140.569,427.921H102.128V418.4a1.422,1.422,0,0,1,1.422-1.422h35.6a1.422,1.422,0,0,1,1.422,1.422Z" transform="translate(-102.128 -409.648)" fill="#b98080"/>
          <path id="Trazado_1039336" data-name="Trazado 1039336" d="M368.29,416.976h-4.27a1.422,1.422,0,0,1,1.422,1.422v9.523h4.27V418.4A1.422,1.422,0,0,0,368.29,416.976Z" transform="translate(-331.27 -409.648)" fill="#ae6c6c"/>
        </g>
      </g>
      <g id="Grupo_1213678" data-name="Grupo 1213678" transform="translate(23.23 0)">
        <path id="Trazado_1039337" data-name="Trazado 1039337" d="M81.361,62.7l-9.851-21.51a7.054,7.054,0,0,0-6.276-3.963H58.255l-1.086-1.694V33.545h2.75a9.056,9.056,0,0,0,4.458-1.164,7.648,7.648,0,0,0,1.855,2.241c1.834,1.573,5.015,2.579,6.843.585a3.531,3.531,0,0,0,.478-3.392,7.174,7.174,0,0,0-2.277-3.236,7.563,7.563,0,0,0-2.651-1.46A9.114,9.114,0,0,0,69,23.73c-.09-1.156-.406-3.977-.94-8.386a.938.938,0,0,0-1.862.226c.531,4.382.845,7.177.932,8.306a7.288,7.288,0,0,1-6.5,7.761,9.42,9.42,0,0,0,3.748-7.52V15.87a.938.938,0,0,0-.938-.938c-3.567,0-5.057-4.87-5.071-4.918a.938.938,0,0,0-1.693-.236c-4.491,7.12-15.329,7.447-15.453,7.449a.947.947,0,0,0-.918.938v5.949a9.42,9.42,0,0,0,3.748,7.52,7.309,7.309,0,0,1-6.5-7.761c.111-1.434.623-6.064,1.48-13.39A9.741,9.741,0,0,1,48.7,1.876h6.269a3.668,3.668,0,0,1,3.1,1.734.938.938,0,0,0,.8.446A6.692,6.692,0,0,1,65.5,9.909l.16,1.287a.938.938,0,1,0,1.861-.231l-.16-1.287a8.572,8.572,0,0,0-7.989-7.483A5.562,5.562,0,0,0,54.969,0H48.7A11.618,11.618,0,0,0,37.162,10.266c-.872,7.455-1.372,11.984-1.487,13.463a9.11,9.11,0,0,0,.372,3.374,7.619,7.619,0,0,0-2.715,1.475,7.176,7.176,0,0,0-2.278,3.237,3.53,3.53,0,0,0,.478,3.391c1.717,1.951,4.874,1.066,6.843-.585a7.621,7.621,0,0,0,1.87-2.271,9.055,9.055,0,0,0,4.511,1.194h2.75v1.986l-1.363,2.125a.938.938,0,0,0,.022,1.046l2.2,3.131a1.767,1.767,0,0,0,3.033-.4v3.792l-.036-.035-1.125-1.06a.938.938,0,0,0-1.286,0l-1.125,1.06a6.058,6.058,0,0,0-.973,1.185,6.055,6.055,0,0,0-.974-1.186l-1.125-1.06a.938.938,0,0,0-1.286,0l-1.125,1.06a6.058,6.058,0,0,0-.973,1.185,6.058,6.058,0,0,0-.974-1.185l-.017-.016V39.1h2.171a.938.938,0,1,0,0-1.876H39.443a7.054,7.054,0,0,0-6.276,3.962L23.315,62.7a.938.938,0,1,0,1.705.781l4.323-9.44,2.815,1.6v7.448a.938.938,0,1,0,1.876,0V53.564a.484.484,0,0,1,.484-.484h35.6a.484.484,0,0,1,.484.484v9.523a.938.938,0,0,0,.938.938h.021a.937.937,0,0,0,.917-1.126V55.639l2.848-1.62,4.332,9.46a.938.938,0,0,0,1.705-.781ZM64.3,45.176a6.688,6.688,0,0,0-.991,1.2,6.059,6.059,0,0,0-.974-1.185l-1.125-1.06a.938.938,0,0,0-1.286,0l-1.125,1.06a6.051,6.051,0,0,0-.974,1.186,6.055,6.055,0,0,0-.974-1.186l-1.125-1.06a.938.938,0,0,0-1.286,0l-1.125,1.06-.036.035V41.435a1.768,1.768,0,0,0,3.033.4l1.92-2.731H64.3Zm-8.361-8.1.678,1.057-1.686,2.4-1.289-2.065Zm11.946-8.22a5.611,5.611,0,0,1,2.193,1.158,5.363,5.363,0,0,1,1.691,2.363c.848,2.992-2.88,2.18-4.331.8a5.686,5.686,0,0,1-1.508-1.9A9.554,9.554,0,0,0,67.88,28.862Zm-25.7-4.747V19.049a28.963,28.963,0,0,0,5.63-1.057,18.869,18.869,0,0,0,9.426-5.8c.826,1.679,2.474,4.087,5.266,4.538v7.382a7.563,7.563,0,0,1-7.554,7.554H49.732a7.563,7.563,0,0,1-7.554-7.554Zm-5,9.067c-1.211.913-2.872,1.845-4.2.823a1.781,1.781,0,0,1-.129-1.623,5.366,5.366,0,0,1,1.692-2.363,5.561,5.561,0,0,1,2.253-1.172A9.432,9.432,0,0,0,38.7,31.239,5.639,5.639,0,0,1,37.174,33.182ZM49.75,40.537l-1.686-2.4.678-1.057,2.3,1.391Zm-.367-5.26V33.545h5.91v1.732l-2.955,1.789ZM32.162,53.484l-2.035-1.158,4.741-10.35a5.263,5.263,0,0,1,3.636-2.784v4.694c-.269-.091-1.44,1.129-1.644,1.306a6.105,6.105,0,0,0-1.911,4.427V51.2h-.432a2.36,2.36,0,0,0-2.355,2.279Zm4.663-3.864a4.662,4.662,0,0,1,1.8-3.516,4.653,4.653,0,0,1,1.8,3.516V51.2H36.826Zm5.483,0a4.662,4.662,0,0,1,1.8-3.516,4.652,4.652,0,0,1,1.8,3.516V51.2H42.309Zm5.483,0A4.662,4.662,0,0,1,49.6,46.1a4.653,4.653,0,0,1,1.8,3.516V51.2H47.793Zm5.483,0a4.662,4.662,0,0,1,1.8-3.516,4.653,4.653,0,0,1,1.8,3.516V51.2H53.276Zm5.483,0a4.662,4.662,0,0,1,1.8-3.516,4.653,4.653,0,0,1,1.8,3.516V51.2H58.759ZM64.243,51.2V49.619a4.655,4.655,0,0,1,1.8-3.516,4.652,4.652,0,0,1,1.8,3.516V51.2Zm8.228,2.278A2.36,2.36,0,0,0,70.116,51.2h-.39V49.619a6.105,6.105,0,0,0-1.911-4.427c-.613-.479-.905-1.1-1.644-1.306V39.192a5.1,5.1,0,0,1,3.636,2.784l4.731,10.331Z" transform="translate(-23.23 0)"/>
        <path id="Trazado_1039338" data-name="Trazado 1039338" d="M249.439,157.506a.938.938,0,0,0,.938-.938V153.8a.938.938,0,1,0-1.876,0v2.768A.938.938,0,0,0,249.439,157.506Z" transform="translate(-220.331 -133.747)"/>
        <path id="Trazado_1039339" data-name="Trazado 1039339" d="M230.624,206.486a5.439,5.439,0,0,0,2.717.678,6.613,6.613,0,0,0,2.748-.619.938.938,0,1,0-.775-1.708,4.126,4.126,0,0,1-3.7.055.938.938,0,0,0-.988,1.594Z" transform="translate(-204.304 -179.149)"/>
        <path id="Trazado_1039340" data-name="Trazado 1039340" d="M218.595,446.849H208.308a.938.938,0,0,0,0,1.876h10.287a.938.938,0,1,0,0-1.876Z" transform="translate(-184.343 -390.97)"/>
        <path id="Trazado_1039341" data-name="Trazado 1039341" d="M36.441,156.122h.446v.446a.938.938,0,0,0,1.876,0v-.446h.446a.938.938,0,1,0,0-1.876h-.446V153.8a.938.938,0,0,0-1.876,0v.446h-.446a.938.938,0,1,0,0,1.876Z" transform="translate(-33.968 -133.747)"/>
        <circle id="Elipse_12237" data-name="Elipse 12237" cx="0.938" cy="0.938" r="0.938" transform="translate(7.163 15.354)"/>
      </g>
    </g>
  </g>
</svg>
