<svg xmlns="http://www.w3.org/2000/svg" width="86.369" height="86.369" viewBox="0 0 86.369 86.369">
  <g id="Grupo_1213155" data-name="Grupo 1213155" transform="translate(-915.212 -4824.813)">
    <g id="Grupo_1211702" data-name="Grupo 1211702" transform="translate(915.212 4824.813)">
      <g id="Grupo_1099347" data-name="Grupo 1099347" transform="translate(0 0)">
        <g id="Grupo_1099341" data-name="Grupo 1099341">
          <g id="Rectángulo_402588" data-name="Rectángulo 402588" transform="translate(0 0)" fill="#efd026" stroke="#fff" stroke-width="5">
            <rect width="86.369" height="86.369" rx="14" stroke="none"/>
            <rect x="2.5" y="2.5" width="81.369" height="81.369" rx="11.5" fill="none"/>
          </g>
        </g>
      </g>
    </g>
    <g id="cargo_3143266" transform="translate(926.732 4837.947)">
      <g id="Grupo_1213148" data-name="Grupo 1213148" transform="translate(25.497 41.048)">
        <path id="Trazado_1037702" data-name="Trazado 1037702" d="M208.473,357.564V352.21a2.51,2.51,0,1,0-5.021,0v8.059a2.51,2.51,0,1,0,5.021,0Z" transform="translate(-203.452 -349.698)" fill="#cbf4fb" fill-rule="evenodd"/>
      </g>
      <g id="Grupo_1213149" data-name="Grupo 1213149" transform="translate(14.753 1.173)">
        <path id="Trazado_1037703" data-name="Trazado 1037703" d="M131.985,48.615l.732-11.09.722-10.917.1-1.524c.433-4.1-.3-7.224-1.667-9.416-1.627-2.622-4.156-5.657-6.661-5.666h-.063c-2.5.01-5.031,3.044-6.661,5.666-1.361,2.193-2.1,5.32-1.664,9.416l.1,1.524.722,10.917.732,11.09-6.452,8.472.935,4.316,9.809-3.66V52.388a2.51,2.51,0,1,1,5.021,0v5.354l9.439,3.524v-5.9Z" transform="translate(-111.925 -10.001)" fill="#fff" fill-rule="evenodd"/>
      </g>
      <g id="Grupo_1213150" data-name="Grupo 1213150" transform="translate(35.545 17.78)">
        <path id="Trazado_1037704" data-name="Trazado 1037704" d="M289.055,162.391,306.51,167.4v-5.254c0-1.284.306-1.91-1.67-2.735l-3.141-1.654-5.264-2.775-6.658-3.507Z" transform="translate(-289.055 -151.474)" fill="#98eaf9" fill-rule="evenodd"/>
      </g>
      <g id="Grupo_1213151" data-name="Grupo 1213151" transform="translate(3.001 17.78)">
        <path id="Trazado_1037705" data-name="Trazado 1037705" d="M11.824,167.4l17.455-5.008-.722-10.917L21.9,154.982l-5.267,2.775-3.138,1.654c-1.976.825-1.67,1.451-1.67,2.735Z" transform="translate(-11.807 -151.475)" fill="#98eaf9" fill-rule="evenodd"/>
      </g>
      <g id="Grupo_1213152" data-name="Grupo 1213152" transform="translate(39.957 38.556)">
        <path id="Trazado_1037706" data-name="Trazado 1037706" d="M326.641,348.837h20.37v-20.37h-6.551v8.318l-3.633-2.239-3.637,2.239v-8.318h-6.548v20.37Z" transform="translate(-326.641 -328.467)" fill="#ffd47b" fill-rule="evenodd"/>
      </g>
      <g id="Grupo_1213153" data-name="Grupo 1213153" transform="translate(46.505 38.556)">
        <path id="Trazado_1037707" data-name="Trazado 1037707" d="M389.694,336.785v-8.318h-7.27v8.318l3.637-2.239Z" transform="translate(-382.424 -328.467)" fill="#fff1d8" fill-rule="evenodd"/>
      </g>
      <g id="Grupo_1213154" data-name="Grupo 1213154" transform="translate(1.83 -0.001)">
        <path id="Trazado_1037708" data-name="Trazado 1037708" d="M194.915,73.474c-2.745-2.292-5.592-2.287-8.232.017a1.174,1.174,0,0,0,1.543,1.769c1.746-1.524,3.345-1.519,5.184.017a1.174,1.174,0,1,0,1.5-1.8Z" transform="translate(-164.629 -63.335)"/>
        <path id="Trazado_1037709" data-name="Trazado 1037709" d="M60.327,37.382H39.957a1.174,1.174,0,0,0-1.174,1.174v4.507l-2.77-3.637.607-9.2,16.055,4.606a1.174,1.174,0,0,0,1.5-1.128s0-5.539.009-5.669c.042-1.333-.1-2.429-2.35-3.382l-2.469-1.3V19.161a1.174,1.174,0,1,0-2.348,0v2.955L44.1,20.579V16.386a1.174,1.174,0,0,0-2.348,0v2.957L37.488,17.1l.049-.74c.421-4.021-.215-7.525-1.84-10.136C34.253,3.894,31.341,0,28.029,0h-.041c-3.14,0-5.9,3.38-7.671,6.221-1.622,2.613-2.257,6.117-1.836,10.136l.049.74-4.263,2.246V16.386a1.174,1.174,0,0,0-2.348,0v4.193L9,22.117V19.161a1.174,1.174,0,0,0-2.348,0v4.193l-2.466,1.3c-2.246.953-2.393,2.049-2.351,3.382,0,.13.009,5.669.009,5.669a1.174,1.174,0,0,0,1.5,1.128l2.166-.622a1.174,1.174,0,1,0-.648-2.256l-.668.192v-3.7c0-.174,0-.337-.01-.49a2.383,2.383,0,0,1,.021-.614c.012-.021.143-.216.938-.548q.048-.02.095-.045L18.7,19.661l.539,8.169L15,29.046a1.174,1.174,0,1,0,.647,2.257L19.4,30.226l.607,9.2-6.185,8.122a1.174,1.174,0,0,0-.213.96l.935,4.316a1.186,1.186,0,0,0,1.558.851L24.323,50.6v1.014a3.684,3.684,0,1,0,7.369,0V50.605l7.092,2.647v5.674A1.174,1.174,0,0,0,39.957,60.1H60.327A1.174,1.174,0,0,0,61.5,58.926V38.556a1.174,1.174,0,0,0-1.174-1.174ZM47.679,39.73H52.6v5.042l-1.844-1.136a1.174,1.174,0,0,0-1.231,0l-1.847,1.137V39.73Zm-.066-14.645.044.023,3.125,1.646c.031.016.063.031.095.045.795.332.926.527.938.548a2.385,2.385,0,0,1,.02.614c0,.153-.01.316-.01.49v3.7L36.779,27.83l.54-8.169ZM29.344,51.619a1.337,1.337,0,1,1-2.673,0V43.56a1.337,1.337,0,1,1,2.673,0Zm2.348-3.52V43.56a3.684,3.684,0,1,0-7.369,0V48.1L16.548,51l-.533-2.461L22.139,40.5a1.174,1.174,0,0,0,.237-.788l-.732-11.092c0-.006,0-.012,0-.017l-.82-12.422c0-.015,0-.031,0-.046-.37-3.5.146-6.5,1.493-8.673,1.992-3.2,4.113-5.113,5.677-5.113h.041c1.566,0,3.686,1.909,5.674,5.113,1.349,2.169,1.867,5.168,1.5,8.673,0,.015,0,.031,0,.046l-.82,12.42c0,.008,0,.015,0,.023L33.642,39.71a1.174,1.174,0,0,0,.237.788l4.9,6.439v3.809Zm27.461,9.653H41.131V39.73h4.2v7.145a1.185,1.185,0,0,0,1.789,1l3.021-1.86,3.018,1.86a1.174,1.174,0,0,0,1.79-1V39.73h4.2Z" transform="translate(-1.83 0.001)"/>
        <path id="Trazado_1037710" data-name="Trazado 1037710" d="M64.749,259.451a1.174,1.174,0,1,0,0,2.348h.007a1.174,1.174,0,1,0-.007-2.348Z" transform="translate(-56.327 -228.995)"/>
      </g>
    </g>
  </g>
</svg>
