<svg xmlns="http://www.w3.org/2000/svg" width="127" height="184" viewBox="0 0 127 184">
  <g id="Grupo_1212615" data-name="Grupo 1212615" transform="translate(-180 -539.271)">
    <rect id="Rectángulo_408736" data-name="Rectángulo 408736" width="127" height="184" rx="12" transform="translate(180 539.271)" fill="#f4c5c5"/>
    <g id="livestock_17043100" transform="translate(170.089 558.508)">
      <g id="Grupo_1212614" data-name="Grupo 1212614" transform="translate(25.046 27.482)">
        <path id="Trazado_1037282" data-name="Trazado 1037282" d="M51.54,370.86h87.708V376.1H51.54Z" transform="translate(-47.023 -297.734)" fill="#664a49" fill-rule="evenodd"/>
        <path id="Trazado_1037283" data-name="Trazado 1037283" d="M51.54,429.02h87.708v5.241H51.54Z" transform="translate(-47.023 -343.391)" fill="#664a49" fill-rule="evenodd"/>
        <path id="Trazado_1037284" data-name="Trazado 1037284" d="M419.007,316.229V343.3h-11.1V316.229l5.551-9.379Z" transform="translate(-326.782 -247.485)" fill="#81655c" fill-rule="evenodd"/>
        <path id="Trazado_1037285" data-name="Trazado 1037285" d="M439.276,333.343v27.068H433.73V333.343l2.773-4.693Z" transform="translate(-347.052 -264.599)" fill="#e9d0b9" fill-rule="evenodd"/>
        <path id="Trazado_1037286" data-name="Trazado 1037286" d="M300.231,316.229V343.3H289.14V316.229l5.544-9.379Z" transform="translate(-233.545 -247.485)" fill="#81655c" fill-rule="evenodd"/>
        <path id="Trazado_1037287" data-name="Trazado 1037287" d="M320.476,333.343v27.068H314.93V333.343l2.773-4.693Z" transform="translate(-253.791 -264.599)" fill="#e9d0b9" fill-rule="evenodd"/>
        <path id="Trazado_1037288" data-name="Trazado 1037288" d="M181.437,316.229V343.3h-11.1V316.229l5.544-9.379Z" transform="translate(-140.284 -247.485)" fill="#81655c" fill-rule="evenodd"/>
        <path id="Trazado_1037289" data-name="Trazado 1037289" d="M201.243,332.966v27.068H195.57V332.966l2.84-4.8Z" transform="translate(-160.09 -264.222)" fill="#e9d0b9" fill-rule="evenodd"/>
        <path id="Trazado_1037290" data-name="Trazado 1037290" d="M62.637,316.229V343.3H51.54V316.229l5.551-9.379Z" transform="translate(-47.023 -247.485)" fill="#81655c" fill-rule="evenodd"/>
        <path id="Trazado_1037291" data-name="Trazado 1037291" d="M82.906,333.343v27.068H77.36V333.343l2.773-4.693Z" transform="translate(-67.293 -264.599)" fill="#e9d0b9" fill-rule="evenodd"/>
        <path id="Trazado_1037292" data-name="Trazado 1037292" d="M240.729,262.26c2.242,0,4.059,3.235,4.059,7.234s-1.817,7.234-4.059,7.234-4.059-3.235-4.059-7.234S238.487,262.26,240.729,262.26Z" transform="translate(-192.355 -212.481)" fill="#b92025" fill-rule="evenodd"/>
        <path id="Trazado_1037293" data-name="Trazado 1037293" d="M251.957,264.16c1.578,1,2.707,3.674,2.707,6.825s-1.126,5.826-2.707,6.819c-1.578-.993-2.707-3.668-2.707-6.819S250.379,265.16,251.957,264.16Z" transform="translate(-202.23 -213.972)" fill="#cf2429" fill-rule="evenodd"/>
        <path id="Trazado_1037294" data-name="Trazado 1037294" d="M227.783,134.435a4.116,4.116,0,0,1,4.039,2.206,4.13,4.13,0,1,1-.9,4.964,4.053,4.053,0,0,1-2.395,1.049,4.126,4.126,0,1,1-.748-8.219Z" transform="translate(-182.432 -112.121)" fill="#cf2429" fill-rule="evenodd"/>
        <path id="Trazado_1037295" data-name="Trazado 1037295" d="M239.389,151.428a4.132,4.132,0,0,1-7.55.488,4.053,4.053,0,0,1-2.395,1.049,4.127,4.127,0,0,1-4.254-2.7,4.13,4.13,0,0,1,7.544-.494,4.133,4.133,0,0,1,6.656,1.657Z" transform="translate(-183.343 -122.429)" fill="#b92025" fill-rule="evenodd"/>
        <path id="Trazado_1037296" data-name="Trazado 1037296" d="M202.074,164.64a14.484,14.484,0,0,1,14.644,14.315c0,7.9-6.112,11.25-14.206,11.25s-15.083-3.351-15.083-11.25A14.484,14.484,0,0,1,202.074,164.64Z" transform="translate(-153.7 -135.847)" fill="#e0cdaf" fill-rule="evenodd"/>
        <path id="Trazado_1037297" data-name="Trazado 1037297" d="M231.76,182.353a14.079,14.079,0,0,1,3.82,9.64c0,7.9-6.112,11.25-14.206,11.25a22.453,22.453,0,0,1-7.812-1.273,9.974,9.974,0,0,1-2.1-6.411A14.478,14.478,0,0,1,226.1,181.25,14.882,14.882,0,0,1,231.76,182.353Z" transform="translate(-172.564 -148.886)" fill="#fff6d9" fill-rule="evenodd"/>
        <path id="Trazado_1037298" data-name="Trazado 1037298" d="M238.82,225.892l3.6-5.132L246,225.892l-3.588,5.131Z" transform="translate(-194.043 -179.902)" fill="#fdb614" fill-rule="evenodd"/>
        <path id="Trazado_1037299" data-name="Trazado 1037299" d="M221.477,191.51c1.006,0,1.823,1.152,1.823,2.578s-.817,2.571-1.823,2.571-1.817-1.152-1.817-2.571S220.47,191.51,221.477,191.51Z" transform="translate(-179.002 -156.94)" fill-rule="evenodd"/>
        <path id="Trazado_1037300" data-name="Trazado 1037300" d="M276.327,191.51c1.006,0,1.823,1.152,1.823,2.578s-.817,2.571-1.823,2.571-1.817-1.152-1.817-2.571S275.32,191.51,276.327,191.51Z" transform="translate(-222.06 -156.94)" fill-rule="evenodd"/>
        <path id="Trazado_1037301" data-name="Trazado 1037301" d="M219.263,194.68a1.1,1.1,0,1,1-1.1,1.1A1.1,1.1,0,0,1,219.263,194.68Z" transform="translate(-177.824 -159.429)" fill="#fff" fill-rule="evenodd"/>
        <path id="Trazado_1037302" data-name="Trazado 1037302" d="M285.446,194.68a1.1,1.1,0,1,1-1.1,1.1A1.1,1.1,0,0,1,285.446,194.68Z" transform="translate(-229.785 -159.429)" fill="#fff" fill-rule="evenodd"/>
        <path id="Trazado_1037303" data-name="Trazado 1037303" d="M80.452,62.568c-.006-10.964-9.489-20.646,1.6-26.369a21.932,21.932,0,0,1,14.016,0c13.5,5.912,1.176,14.76.877,25.715C96.685,71.486,80.457,69.237,80.452,62.568Z" transform="translate(-66.752 -34.106)" fill="#e0cdaf" fill-rule="evenodd"/>
        <path id="Trazado_1037304" data-name="Trazado 1037304" d="M80.445,78.85c-.006-7.178-4.076-13.814-3.766-19.146a11.608,11.608,0,0,1,3.644-2.767,22,22,0,0,1,14.023,0c6.411,2.81,7,6.277,5.807,10.323A60.173,60.173,0,0,0,97.9,72.94a27.2,27.2,0,0,0-2.674,9.536C91,86.731,80.449,84.226,80.445,78.85Z" transform="translate(-66.745 -50.387)" fill="#fff6d9" fill-rule="evenodd"/>
        <path id="Trazado_1037305" data-name="Trazado 1037305" d="M93.774,137.352a19.175,19.175,0,0,1,12.705,0,3.237,3.237,0,0,1,2.547,3.119v2.156c0,1.718-1.75,5.179-3.152,5.179H94.522c-1.4,0-3.3-3.461-3.3-5.179v-2.156A3.329,3.329,0,0,1,93.774,137.352Z" transform="translate(-78.173 -113.57)" fill="#f9bdad" fill-rule="evenodd"/>
        <path id="Trazado_1037306" data-name="Trazado 1037306" d="M108.346,160.854c-.641,1.382-1.614,2.644-2.461,2.644H94.532c-1.4,0-3.3-3.461-3.3-5.179v-1.236a16.839,16.839,0,0,1,8.092-.608A15.761,15.761,0,0,1,108.346,160.854Z" transform="translate(-78.181 -129.257)" fill="#fbd0c4" fill-rule="evenodd"/>
        <path id="Trazado_1037307" data-name="Trazado 1037307" d="M193.113,40.292q-1.316-4.369-2.023-4.527a9.33,9.33,0,0,1,11.323-4.54A9.4,9.4,0,0,1,193.113,40.292Z" transform="translate(-156.573 -30.714)" fill="#f9bdad" fill-rule="evenodd"/>
        <path id="Trazado_1037308" data-name="Trazado 1037308" d="M192.04,37.648c-.348-.787-.707-1.84-.95-1.9A9.334,9.334,0,0,1,201.267,30.9,18.7,18.7,0,0,1,192.04,37.648Z" transform="translate(-156.573 -30.703)" fill="#fbd0c4" fill-rule="evenodd"/>
        <path id="Trazado_1037309" data-name="Trazado 1037309" d="M39.83,40.292q1.316-4.369,2.023-4.527a9.332,9.332,0,0,0-11.323-4.54A9.4,9.4,0,0,0,39.83,40.292Z" transform="translate(-30.53 -30.714)" fill="#f9bdad" fill-rule="evenodd"/>
        <path id="Trazado_1037310" data-name="Trazado 1037310" d="M47.59,37.648c.458-1.2.841-1.823,1.139-1.89a9.339,9.339,0,0,0-9.44-4.979A9.412,9.412,0,0,0,47.59,37.648Z" transform="translate(-37.407 -30.707)" fill="#fbd0c4" fill-rule="evenodd"/>
        <path id="Trazado_1037311" data-name="Trazado 1037311" d="M429.284,36.451c-2.262,5.447-4.112,11.121-9.147,12.443a17.8,17.8,0,0,0-4.886-5.374,11.564,11.564,0,0,1,14.034-7.068Z" transform="translate(-332.544 -34.861)" fill="#fac5c2" fill-rule="evenodd"/>
        <path id="Trazado_1037312" data-name="Trazado 1037312" d="M285.03,36.451c2.262,5.447,4.112,11.121,9.154,12.443a17.754,17.754,0,0,1,4.882-5.374,11.567,11.567,0,0,0-14.036-7.068Z" transform="translate(-230.319 -34.861)" fill="#fac5c2" fill-rule="evenodd"/>
        <path id="Trazado_1037313" data-name="Trazado 1037313" d="M433.762,56.543c-1.713,3.962-3.7,7.4-7.477,8.4a18.788,18.788,0,0,0-3.205-4,11.519,11.519,0,0,1,9.141-4.5A11.8,11.8,0,0,1,433.762,56.543Z" transform="translate(-338.691 -50.907)" fill="#f7a6ad" fill-rule="evenodd"/>
        <path id="Trazado_1037314" data-name="Trazado 1037314" d="M292.79,56.543c1.713,3.962,3.7,7.4,7.483,8.4a18.591,18.591,0,0,1,3.205-4,11.532,11.532,0,0,0-9.147-4.5A11.8,11.8,0,0,0,292.79,56.543Z" transform="translate(-236.41 -50.907)" fill="#f7a6ad" fill-rule="evenodd"/>
        <path id="Trazado_1037315" data-name="Trazado 1037315" d="M329.534,60.01c8.051,0,14.575,9,14.575,17.05S337.894,87.6,329.837,87.6,314.95,85.115,314.95,77.06s6.529-17.05,14.584-17.05Z" transform="translate(-253.806 -53.71)" fill="#fac5c2" fill-rule="evenodd"/>
        <path id="Trazado_1037316" data-name="Trazado 1037316" d="M349.7,60.01c8.051,0,14.575,9,14.575,17.05,0,3.687-1.3,6.2-3.485,7.855a28.667,28.667,0,0,1-5.265.439c-8.051,0-14.887-2.487-14.887-10.536a18.881,18.881,0,0,1,7.623-14.711,11.352,11.352,0,0,1,1.438-.1Z" transform="translate(-273.974 -53.71)" fill="#fcd7d1" fill-rule="evenodd"/>
        <path id="Trazado_1037317" data-name="Trazado 1037317" d="M70.907,371.28a1.767,1.767,0,1,1-1.767,1.767A1.763,1.763,0,0,1,70.907,371.28Z" transform="translate(-60.84 -298.064)" fill="#fce7d7" fill-rule="evenodd"/>
        <path id="Trazado_1037318" data-name="Trazado 1037318" d="M189.677,371.28a1.767,1.767,0,1,1-1.767,1.767A1.768,1.768,0,0,1,189.677,371.28Z" transform="translate(-154.077 -298.064)" fill="#fce7d7" fill-rule="evenodd"/>
        <path id="Trazado_1037319" data-name="Trazado 1037319" d="M308.477,371.28a1.767,1.767,0,1,1-1.767,1.767A1.768,1.768,0,0,1,308.477,371.28Z" transform="translate(-247.338 -298.064)" fill="#fce7d7" fill-rule="evenodd"/>
        <path id="Trazado_1037320" data-name="Trazado 1037320" d="M427.277,371.28a1.767,1.767,0,1,1-1.767,1.767A1.768,1.768,0,0,1,427.277,371.28Z" transform="translate(-340.599 -298.064)" fill="#fce7d7" fill-rule="evenodd"/>
      </g>
      <path id="Trazado_1037321" data-name="Trazado 1037321" d="M111.724,99.814a3.266,3.266,0,1,1-2.315.957A3.252,3.252,0,0,1,111.724,99.814Zm.183,3.083a.274.274,0,0,0-.183-.073.251.251,0,0,0-.262.262.274.274,0,0,0,.073.183.267.267,0,0,0,.189.08.272.272,0,0,0,.262-.262A.267.267,0,0,0,111.907,102.9ZM86.185,99.814a3.266,3.266,0,1,1-2.315.957A3.279,3.279,0,0,1,86.185,99.814Zm.183,3.083a.265.265,0,0,0-.365,0,.267.267,0,0,0-.08.189.252.252,0,0,0,.08.183.25.25,0,0,0,.365,0,.252.252,0,0,0,.08-.183A.267.267,0,0,0,86.367,102.9ZM60.646,99.814a3.277,3.277,0,1,1-2.309.957A3.26,3.26,0,0,1,60.646,99.814Zm.189,3.083a.291.291,0,0,0-.189-.073.274.274,0,0,0-.183.073.267.267,0,0,0-.08.189.272.272,0,0,0,.262.262.267.267,0,0,0,.189-.08.274.274,0,0,0,.073-.183A.291.291,0,0,0,60.835,102.9ZM35.113,99.814a3.266,3.266,0,1,1-2.315.957A3.252,3.252,0,0,1,35.113,99.814ZM35.3,102.9a.287.287,0,0,0-.183-.073.291.291,0,0,0-.189.073.261.261,0,0,0-.073.189.246.246,0,0,0,.073.183.267.267,0,0,0,.189.08.263.263,0,0,0,.183-.08.252.252,0,0,0,.08-.183A.267.267,0,0,0,35.3,102.9ZM97.3,53.179a1.5,1.5,0,0,1,3.01,0v.585a1.5,1.5,0,1,1-3.01,0Zm3.936,0a1.5,1.5,0,1,1,3,0v.585a1.5,1.5,0,1,1-3,0Zm-.464-5.467a8.644,8.644,0,0,1,5.039,1.535,4.966,4.966,0,0,1,0,8.444,9.039,9.039,0,0,1-10.078,0,4.959,4.959,0,0,1,0-8.444A8.649,8.649,0,0,1,100.773,47.712Zm3.285,3.966a6.129,6.129,0,0,0-6.576,0,2.011,2.011,0,0,0,0,3.582,6.129,6.129,0,0,0,6.576,0,2.011,2.011,0,0,0,0-3.582ZM93.023,43.2a1.5,1.5,0,1,1,3.01,0v1.64a1.5,1.5,0,1,1-3.01,0Zm12.486,0a1.5,1.5,0,1,1,3.01,0v1.64a1.5,1.5,0,1,1-3.01,0Zm-4.736-10.3A13.062,13.062,0,0,1,107.1,34.58a13.051,13.051,0,0,1,15.1-6.329,1.5,1.5,0,0,1,1.017,1.86.665.665,0,0,1-.056.159h.013c-.159.378-.389.944-.615,1.5-1.9,4.667-3.741,9.2-7.782,11.17a19.6,19.6,0,0,1,2.079,8.52c0,4.607-1.817,7.647-4.813,9.556-2.827,1.8-6.673,2.487-10.964,2.487-4.637,0-8.939-.81-11.987-2.962a10.437,10.437,0,0,1-4.4-9.081,19.542,19.542,0,0,1,2.083-8.52c-4.039-1.969-5.886-6.5-7.789-11.17-.226-.555-.458-1.122-.608-1.5l-.056-.159a1.5,1.5,0,0,1,1.023-1.86,13.074,13.074,0,0,1,3.624-.514A13.016,13.016,0,0,1,94.44,34.58a13.1,13.1,0,0,1,6.333-1.681Zm8.825,3.375a18.341,18.341,0,0,1,2.309,2.279,20.1,20.1,0,0,1,1.352,1.767c3.126-1.438,4.772-5.4,6.447-9.519a11.166,11.166,0,0,0-1.133-.06,10.011,10.011,0,0,0-5.716,1.786A10.2,10.2,0,0,0,109.6,36.274ZM88.287,40.319a21.844,21.844,0,0,1,1.346-1.767,18.984,18.984,0,0,1,2.315-2.279,10.184,10.184,0,0,0-3.261-3.747,10.027,10.027,0,0,0-5.723-1.786,11.137,11.137,0,0,0-1.126.06c1.673,4.115,3.324,8.081,6.449,9.519Zm21.341.189c-2.341-2.737-5.46-4.6-8.855-4.6s-6.514,1.864-8.861,4.6a17.6,17.6,0,0,0-1.7,2.365.492.492,0,0,1-.037.06,16.97,16.97,0,0,0-2.481,8.52,7.585,7.585,0,0,0,3.126,6.63c2.461,1.75,6.172,2.4,10.257,2.4,3.76,0,7.058-.555,9.354-2.016,2.12-1.346,3.412-3.577,3.412-7.015a16.92,16.92,0,0,0-2.474-8.513l-.037-.067a17.5,17.5,0,0,0-1.7-2.365ZM33.266,36.091c.312-.957.6-1.737.871-2.341a7.151,7.151,0,0,1,.389-.761,7.845,7.845,0,0,0-7.853-3.259,7.914,7.914,0,0,0,6.593,6.361Zm.2,3.042a10.888,10.888,0,0,1-9.908-10.347,1.5,1.5,0,0,1,1.006-1.6,10.833,10.833,0,0,1,12.1,3.627,16.282,16.282,0,0,1,3-1.956,1.329,1.329,0,0,1,.243-.1,20.532,20.532,0,0,1,7.142-1.232,25.954,25.954,0,0,1,7.769,1.236.493.493,0,0,1,.146.056l.006-.006a19.974,19.974,0,0,1,4.072,2.322,10.826,10.826,0,0,1,12.333-3.949,1.5,1.5,0,0,1,1.006,1.6A10.895,10.895,0,0,1,62.1,39.163a34.313,34.313,0,0,1-2.438,6.789,38.194,38.194,0,0,0-2.6,7.281,4.681,4.681,0,0,1,.335,1.774v2.156A9.376,9.376,0,0,1,56,61.4c-.834,1.378-2.006,2.438-3.248,2.438H41.394c-1.232,0-2.438-1.066-3.321-2.451a9.071,9.071,0,0,1-1.488-4.229V55.007a4.567,4.567,0,0,1,.359-1.81,51.809,51.809,0,0,0-1.724-6.752,40.664,40.664,0,0,1-1.759-7.311Zm28.33-5.381a24.116,24.116,0,0,1,.871,2.341,7.914,7.914,0,0,0,6.593-6.361A7.85,7.85,0,0,0,61.4,32.991,7.134,7.134,0,0,1,61.791,33.752ZM41.517,56.268a1.5,1.5,0,0,1,2.8-1.083l.877,2.262a1.5,1.5,0,0,1-2.8,1.077Zm8.16-1.086a1.5,1.5,0,0,1,2.8,1.083L51.6,58.521a1.5,1.5,0,1,1-2.8-1.077Zm-9.543-4.71A19.058,19.058,0,0,1,47.3,49.3a24.973,24.973,0,0,1,6.477,1.139,6.183,6.183,0,0,1,.823.316,50.673,50.673,0,0,1,2.315-6.009c2.345-5.394,4.3-9.891-3.1-13.157a22.959,22.959,0,0,0-6.77-1.053,17.747,17.747,0,0,0-6.069,1.017c-6.168,3.225-4.656,8.191-2.883,14.016.5,1.657,1.023,3.375,1.425,5.149C39.72,50.632,39.928,50.546,40.135,50.473ZM47.222,52.3a16.007,16.007,0,0,0-6.062.993,3.079,3.079,0,0,0-1.2.714,1.419,1.419,0,0,0-.365,1v2.156a5.925,5.925,0,0,0,1.006,2.621,4.067,4.067,0,0,0,.793,1.049H52.752a4.5,4.5,0,0,0,.688-.987,6.251,6.251,0,0,0,.957-2.681V55.009a1.535,1.535,0,0,0-.316-.987,2.378,2.378,0,0,0-1.159-.694,21.934,21.934,0,0,0-5.7-1.028ZM41.367,38.193a1.5,1.5,0,1,1,3.01,0v2.266a1.5,1.5,0,1,1-3.01,0Zm9.9,0a1.5,1.5,0,1,1,3,0v2.266a1.5,1.5,0,1,1-3,0Zm28.05,22.968a3.078,3.078,0,0,1,2.517,1.4,4.86,4.86,0,0,1,0,5.374,2.969,2.969,0,0,1-5.035,0,4.893,4.893,0,0,1,0-5.374A3.084,3.084,0,0,1,79.312,61.161Zm.06,3.126c-.049-.073-.043-.116-.06-.116s-.006.043-.056.116a1.917,1.917,0,0,0,0,1.913c.049.073.043.116.056.116s.013-.043.06-.116a1.917,1.917,0,0,0,0-1.913ZM67.521,61.161a3.087,3.087,0,0,1,2.517,1.4,4.86,4.86,0,0,1,0,5.374,2.969,2.969,0,0,1-5.035,0,4.893,4.893,0,0,1,0-5.374A3.084,3.084,0,0,1,67.521,61.161Zm.06,3.126c-.049-.073-.043-.116-.06-.116s-.006.043-.056.116a1.876,1.876,0,0,0,0,1.913c.049.073.043.116.056.116s.013-.043.06-.116a1.917,1.917,0,0,0,0-1.913ZM68.617,73.2l3.571-5.1a1.492,1.492,0,0,1,2.083-.372,1.389,1.389,0,0,1,.389.4l3.577,5.106a1.491,1.491,0,0,1-.024,1.743l-3.571,5.106a1.494,1.494,0,0,1-2.083.365,1.479,1.479,0,0,1-.389-.4l-3.577-5.106a1.487,1.487,0,0,1,.024-1.741Zm4.8-1.632-1.767,2.524,1.767,2.517,1.761-2.517Zm0-16.179a16.341,16.341,0,0,1,6.247,1.232c.013-.024.017-.049.03-.073A2.628,2.628,0,0,0,75.5,53.684a1.6,1.6,0,0,1-.378.275,1.509,1.509,0,0,1-2.023-.645,2.61,2.61,0,0,0-1.066-1.1,2.637,2.637,0,0,0-3.285.621,2.635,2.635,0,0,0-.282,2.956,3.328,3.328,0,0,0,.189.3,16.249,16.249,0,0,1,4.76-.7Zm8.909,2.625a16.287,16.287,0,0,1,2.492,1.993A15.613,15.613,0,0,1,89.566,71.2a11.461,11.461,0,0,1-4.259,9.476,15.158,15.158,0,0,1-6.423,2.81,14.545,14.545,0,0,1,.1,1.621,12.185,12.185,0,0,1-1.382,5.85,4.468,4.468,0,0,1-8.363,0,12.093,12.093,0,0,1-1.382-5.85,14.337,14.337,0,0,1,.1-1.7l.013-.086a16.474,16.474,0,0,1-6.118-2.7,11.2,11.2,0,0,1-4.577-9.42,15.587,15.587,0,0,1,4.747-11.194,16.2,16.2,0,0,1,3.82-2.773,5.524,5.524,0,0,1-.671-2.206,5.626,5.626,0,0,1,8.3-5.45A5.528,5.528,0,0,1,74.8,50.593c.049-.024.1-.043.146-.067a5.546,5.546,0,0,1,1.75-.445,5.636,5.636,0,0,1,5.832,7.438,4.682,4.682,0,0,1-.2.5ZM75.9,83.884q-1,.074-2.047.073a29.171,29.171,0,0,1-2.926-.146,12.538,12.538,0,0,0-.073,1.3,9.116,9.116,0,0,0,1,4.381c.462.834,1.023,1.352,1.561,1.352s1.09-.518,1.561-1.352a9.213,9.213,0,0,0,.993-4.381A11.759,11.759,0,0,0,75.9,83.884Zm6.819-21.723a13.4,13.4,0,0,0-18.617,0A12.612,12.612,0,0,0,60.28,71.2a8.305,8.305,0,0,0,3.371,7.008c2.517,1.883,6.2,2.737,10.207,2.737,3.936,0,7.318-.823,9.592-2.621A8.576,8.576,0,0,0,86.559,71.2a12.6,12.6,0,0,0-3.835-9.044Zm-40.56,34.68v2.883H53.6V96.841A1.51,1.51,0,0,1,53.852,96l5.5-9.3a1.5,1.5,0,0,1,2.6.017l5.533,9.36a1.5,1.5,0,0,1,.206.761H67.7v2.883H79.136V96.839A1.477,1.477,0,0,1,79.391,96l5.5-9.3a1.492,1.492,0,0,1,2.053-.531,1.4,1.4,0,0,1,.542.548l5.54,9.36a1.5,1.5,0,0,1,.206.761v2.883h11.432V96.837a1.466,1.466,0,0,1,.262-.841l5.5-9.3a1.492,1.492,0,0,1,2.053-.531,1.4,1.4,0,0,1,.542.548l5.533,9.36a1.442,1.442,0,0,1,.213.761V123.9a1.505,1.505,0,0,1-1.5,1.5h-11.1a1.508,1.508,0,0,1-1.5-1.5v-3.431H93.236V123.9a1.505,1.505,0,0,1-1.5,1.5H80.64a1.505,1.505,0,0,1-1.5-1.5v-3.431H67.7V123.9a1.509,1.509,0,0,1-1.5,1.5H55.1a1.505,1.505,0,0,1-1.5-1.5v-3.431H42.164V123.9a1.509,1.509,0,0,1-1.5,1.5h-11.1a1.508,1.508,0,0,1-1.5-1.5V96.834a1.466,1.466,0,0,1,.262-.841l5.5-9.3a1.5,1.5,0,0,1,2.6.017l5.533,9.36a1.434,1.434,0,0,1,.206.761h.006Zm0,5.892v2.229H53.6v-2.229Zm0,5.241v4.254H53.6v-4.254Zm0,7.264v2.231H53.6v-2.231Zm-3.01,7.165V97.247l-4.039-6.836-4.046,6.836V122.4ZM67.7,102.733v2.229H79.136v-2.229Zm0,5.241v4.254H79.136v-4.254Zm0,7.264v2.231H79.136v-2.231Zm-3.01,7.165V97.247l-4.046-6.836-4.039,6.836V122.4Zm28.542-19.67v2.229h11.432v-2.229Zm0,5.241v4.254h11.432v-4.254Zm0,7.264v2.231h11.432v-2.231Zm-3,7.165V97.247l-4.046-6.836-4.039,6.836V122.4Zm25.533,0V97.247l-4.039-6.836-4.046,6.836V122.4Z"/>
    </g>
  </g>
</svg>
