<svg xmlns="http://www.w3.org/2000/svg" width="90" height="90" viewBox="0 0 90 90">
  <g id="Grupo_1213142" data-name="Grupo 1213142" transform="translate(-200.15 -3223.104)">
    <g id="Grupo_1211683" data-name="Grupo 1211683" transform="translate(200.15 3223.104)">
      <circle id="Elipse_11588" data-name="Elipse 11588" cx="45" cy="45" r="45" fill="#efd026"/>
    </g>
    <g id="obediente_23_" data-name="obediente (23)" transform="translate(211.735 3240.118)">
      <g id="Grupo_1213132" data-name="Grupo 1213132" transform="translate(9.711 0.82)">
        <g id="Grupo_1213130" data-name="Grupo 1213130">
          <g id="Grupo_1213127" data-name="Grupo 1213127" transform="translate(0 21.42)">
            <g id="Grupo_1213120" data-name="Grupo 1213120" transform="translate(0 0)">
              <path id="Trazado_1037654" data-name="Trazado 1037654" d="M39.2,203.932l1.969,3.411a.328.328,0,0,0,.284.164H54.951a.328.328,0,0,0,.284-.164l1.969-3.411a.328.328,0,0,0-.284-.492H39.489A.328.328,0,0,0,39.2,203.932Z" transform="translate(-39.16 -203.44)" fill="#fed402"/>
            </g>
            <g id="Grupo_1213126" data-name="Grupo 1213126">
              <g id="Grupo_1213121" data-name="Grupo 1213121" transform="translate(29.322 0)">
                <path id="Trazado_1037655" data-name="Trazado 1037655" d="M307.426,203.932l1.969,3.411a.328.328,0,0,0,.284.164h13.493a.328.328,0,0,0,.284-.164l1.969-3.411a.328.328,0,0,0-.284-.492H307.71A.328.328,0,0,0,307.426,203.932Z" transform="translate(-307.382 -203.44)" fill="#fed402"/>
              </g>
              <g id="Grupo_1213122" data-name="Grupo 1213122" transform="translate(0 0)">
                <path id="Trazado_1037656" data-name="Trazado 1037656" d="M39.2,203.932l1.969,3.411a.328.328,0,0,0,.284.164H54.951a.328.328,0,0,0,.284-.164l1.969-3.411a.328.328,0,0,0-.284-.492H39.489A.328.328,0,0,0,39.2,203.932Z" transform="translate(-39.16 -203.44)" fill="#ca6e59"/>
              </g>
              <g id="Grupo_1213123" data-name="Grupo 1213123" transform="translate(0)">
                <path id="Trazado_1037657" data-name="Trazado 1037657" d="M45.807,207.342l-1.969-3.411a.328.328,0,0,1,.284-.492H39.489a.328.328,0,0,0-.284.492l1.969,3.411a.328.328,0,0,0,.284.164h4.633A.328.328,0,0,1,45.807,207.342Z" transform="translate(-39.161 -203.439)" fill="#bb5d4c"/>
              </g>
              <g id="Grupo_1213124" data-name="Grupo 1213124" transform="translate(29.322 0)">
                <path id="Trazado_1037658" data-name="Trazado 1037658" d="M307.426,203.932l1.969,3.411a.328.328,0,0,0,.284.164h13.493a.328.328,0,0,0,.284-.164l1.969-3.411a.328.328,0,0,0-.284-.492H307.71A.328.328,0,0,0,307.426,203.932Z" transform="translate(-307.382 -203.44)" fill="#ca6e59"/>
              </g>
              <g id="Grupo_1213125" data-name="Grupo 1213125" transform="translate(29.322)">
                <path id="Trazado_1037659" data-name="Trazado 1037659" d="M314.6,207.342l-1.969-3.411a.328.328,0,0,1,.284-.492h-5.206a.328.328,0,0,0-.284.492l1.969,3.411a.328.328,0,0,0,.284.164h5.206A.328.328,0,0,1,314.6,207.342Z" transform="translate(-307.382 -203.439)" fill="#bb5d4c"/>
              </g>
            </g>
          </g>
          <path id="Trazado_1037660" data-name="Trazado 1037660" d="M240.346,123.715V103.67a.547.547,0,0,0-.547-.547h-3.287a.547.547,0,0,0-.547.547v20.045h4.38Z" transform="translate(-214.451 -92.669)" fill="#bb5d4c"/>
          <path id="Trazado_1037661" data-name="Trazado 1037661" d="M237.821,123.715V103.67a.547.547,0,0,1,.547-.547h-1.855a.547.547,0,0,0-.547.547v20.045h1.855Z" transform="translate(-214.451 -92.669)" fill="#a44f3e"/>
          <g id="Grupo_1213128" data-name="Grupo 1213128" transform="translate(20.645 0)">
            <circle id="Elipse_12219" data-name="Elipse 12219" cx="3.06" cy="3.06" r="3.06" fill="#883f2e"/>
          </g>
          <g id="Grupo_1213129" data-name="Grupo 1213129" transform="translate(20.645)">
            <path id="Trazado_1037662" data-name="Trazado 1037662" d="M230.739,10.56a3.06,3.06,0,0,1,1.694-2.738,3.06,3.06,0,1,0,0,5.476A3.06,3.06,0,0,1,230.739,10.56Z" transform="translate(-228.005 -7.5)" fill="#6d3326"/>
          </g>
        </g>
        <g id="Grupo_1213131" data-name="Grupo 1213131" transform="translate(4.213 31.045)">
          <path id="Trazado_1037663" data-name="Trazado 1037663" d="M219.476,296.183v-2.511a2.186,2.186,0,0,0-2.186-2.186h-5.847a2.186,2.186,0,0,0-2.186,2.186v2.511Z" transform="translate(-194.875 -291.485)" fill="#883f2e"/>
          <path id="Trazado_1037664" data-name="Trazado 1037664" d="M212.944,296.183v-2.511a2.186,2.186,0,0,1,2.186-2.186h-3.689a2.186,2.186,0,0,0-2.186,2.186v2.511Z" transform="translate(-194.874 -291.485)" fill="#6d3326"/>
          <path id="Trazado_1037665" data-name="Trazado 1037665" d="M189.719,339.436v-3.106a1.874,1.874,0,0,0-1.874-1.874h-14.8a1.874,1.874,0,0,0-1.874,1.874v3.106Z" transform="translate(-160.954 -329.759)" fill="#bb5d4c"/>
          <path id="Trazado_1037666" data-name="Trazado 1037666" d="M175.783,339.436v-3.106a1.874,1.874,0,0,1,1.874-1.874h-4.61a1.874,1.874,0,0,0-1.874,1.874v3.106Z" transform="translate(-160.955 -329.759)" fill="#a44f3e"/>
          <path id="Trazado_1037667" data-name="Trazado 1037667" d="M80.623,379.006a2.92,2.92,0,0,0-2.92,2.92v5.548a2.92,2.92,0,0,0,2.92,2.92h1.184v-7.738h5.971v7.738h33.435V379.006Z" transform="translate(-77.703 -369.438)" fill="#fff3de"/>
        </g>
      </g>
      <g id="Grupo_1213141" data-name="Grupo 1213141" transform="translate(6.916 41.433)">
        <g id="Grupo_1213136" data-name="Grupo 1213136" transform="translate(0)">
          <g id="Grupo_1213133" data-name="Grupo 1213133">
            <path id="Trazado_1037668" data-name="Trazado 1037668" d="M23.524,390.394a2.92,2.92,0,0,1-2.92-2.92v-5.548a2.92,2.92,0,0,1,2.92-2.92H19.29a5.694,5.694,0,1,0,0,11.388h4.234Z" transform="translate(-13.596 -379.006)" fill="#3675bb"/>
          </g>
          <g id="Grupo_1213134" data-name="Grupo 1213134">
            <path id="Trazado_1037669" data-name="Trazado 1037669" d="M16.362,384.7a5.694,5.694,0,0,1,5.694-5.694H19.29a5.694,5.694,0,1,0,0,11.388h2.766A5.694,5.694,0,0,1,16.362,384.7Z" transform="translate(-13.596 -379.006)" fill="#2b68b6"/>
          </g>
          <g id="Grupo_1213135" data-name="Grupo 1213135" transform="translate(7.008 0.004)">
            <path id="Trazado_1037670" data-name="Trazado 1037670" d="M81.807,387.226a2.917,2.917,0,0,1-1.338-2.454v-5.548c0-.061,0-.122.006-.183a2.92,2.92,0,0,0-2.772,2.916v5.548a2.92,2.92,0,0,0,2.92,2.92h1.184Z" transform="translate(-77.703 -379.041)" fill="#ffe5c2"/>
            <path id="Trazado_1037671" data-name="Trazado 1037671" d="M169.857,458.174h33.435v2.734H169.857Z" transform="translate(-159.783 -449.523)" fill="#ffe5c2"/>
          </g>
        </g>
        <g id="Grupo_1213140" data-name="Grupo 1213140" transform="translate(11.112 3.65)">
          <g id="Grupo_1213137" data-name="Grupo 1213137">
            <path id="Trazado_1037672" data-name="Trazado 1037672" d="M121.211,422.135v-9.74H115.24v9.74a.328.328,0,0,0,.515.27l2.471-1.71,2.471,1.71A.328.328,0,0,0,121.211,422.135Z" transform="translate(-115.24 -412.395)" fill="#fb2b3a"/>
          </g>
          <g id="Grupo_1213139" data-name="Grupo 1213139" transform="translate(0)">
            <g id="Grupo_1213138" data-name="Grupo 1213138">
              <path id="Trazado_1037673" data-name="Trazado 1037673" d="M117.989,412.395H115.24v9.74a.328.328,0,0,0,.515.27l2.234-1.546Z" transform="translate(-115.24 -412.395)" fill="#e41f2d"/>
            </g>
          </g>
        </g>
      </g>
      <path id="Trazado_1037674" data-name="Trazado 1037674" d="M59.915,52H58.253V42.253h1.662a.82.82,0,1,0,0-1.64H43.509V38.437a2.7,2.7,0,0,0-2.694-2.694h-1.47V34.052a3.009,3.009,0,0,0-2.92-3V17.819a.82.82,0,0,0-1.64,0V31.045h-2.74V12.093h2.74v1.9a.82.82,0,0,0,1.64,0V11.82a1.368,1.368,0,0,0-1.367-1.367h-.824V7.673A3.891,3.891,0,0,0,37.208,4.7H47.257V6.2L39.24,21.428a1.146,1.146,0,0,0-.873,1.714l1.969,3.411a1.151,1.151,0,0,0,.994.574h7.718a.82.82,0,1,0,0-1.64H41.614l-1.4-2.427H55.94l-1.4,2.427H52.875a.82.82,0,1,0,0,1.64h1.948a1.151,1.151,0,0,0,.994-.574l1.969-3.411a1.146,1.146,0,0,0-.873-1.714L48.9,6.2V4.7h3.069a.82.82,0,0,0,0-1.64H37.208a3.88,3.88,0,0,0-7.585,0H14.866a.82.82,0,0,0,0,1.64h3.069V6.2L9.918,21.428a1.146,1.146,0,0,0-.873,1.714h0l1.969,3.411a1.151,1.151,0,0,0,.994.574H25.5a1.151,1.151,0,0,0,.994-.574l1.969-3.411a1.146,1.146,0,0,0-.873-1.714L19.574,6.2V4.7H29.623A3.891,3.891,0,0,0,32.6,7.673v2.781h-.824a1.368,1.368,0,0,0-1.367,1.367V31.047a3.009,3.009,0,0,0-2.92,3v1.691h-1.47a2.7,2.7,0,0,0-2.694,2.694v2.176H12.61a6.514,6.514,0,1,0,0,13.028h4.6v1.182a1.148,1.148,0,0,0,1.8.944l2-1.387,2,1.387a1.148,1.148,0,0,0,1.8-.944V53.641h35.1a.82.82,0,1,0,0-1.64ZM47.257,21.42H41.1l6.16-11.7Zm1.64-11.7,6.16,11.7H48.9Zm-30.962,0v11.7h-6.16Zm7.282,15.77H12.292l-1.4-2.427H26.618Zm.517-4.067h-6.16V9.717ZM31.175,3.88a2.241,2.241,0,1,1,2.241,2.241A2.243,2.243,0,0,1,31.175,3.88Zm-2.05,30.171a1.368,1.368,0,0,1,1.367-1.367h5.847a1.368,1.368,0,0,1,1.367,1.367v1.691h-8.58ZM12.61,52a4.874,4.874,0,1,1,0-9.748h1.141a3.718,3.718,0,0,0-.647,2.1V49.9a3.718,3.718,0,0,0,.647,2.1Zm10.568,1.883-1.7-1.176a.82.82,0,0,0-.933,0l-1.7,1.176V45.9h4.331Zm33.435-9.622H38.891a.82.82,0,1,0,0,1.64H56.613v2.448H38.891a.82.82,0,1,0,0,1.64H56.613V52h-31.8V45.9h6.918a.82.82,0,0,0,0-1.64H16.844a.82.82,0,0,0,0,1.64h.364V52h-.364a2.1,2.1,0,0,1-2.1-2.1V44.353a2.1,2.1,0,0,1,2.1-2.1H30.027a.82.82,0,1,0,0-1.64H24.962V38.437a1.055,1.055,0,0,1,1.054-1.054h14.8a1.055,1.055,0,0,1,1.054,1.054v2.176H33.853a.82.82,0,1,0,0,1.64h22.76Z"/>
    </g>
  </g>
</svg>
