<svg xmlns="http://www.w3.org/2000/svg" width="51" height="51" viewBox="0 0 51 51">
  <g id="Grupo_1213739" data-name="Grupo 1213739" transform="translate(-180 -1311.611)">
    <g id="Grupo_1098793" data-name="Grupo 1098793" transform="translate(-1 -4460.389)">
      <path id="Trazado_872996" data-name="Trazado 872996" d="M25.5,0A25.5,25.5,0,1,1,0,25.5,25.5,25.5,0,0,1,25.5,0Z" transform="translate(181 5772)" fill="#f9eca8"/>
    </g>
    <g id="FILLED_OUTLINE" data-name="FILLED OUTLINE" transform="translate(189.001 1320.611)">
      <rect id="Rectángulo_402616" data-name="Rectángulo 402616" width="1.174" height="2.349" transform="translate(15.136 13.962)" fill="#575757"/>
      <rect id="Rectángulo_402617" data-name="Rectángulo 402617" width="1.174" height="2.349" transform="translate(12.2 13.962)" fill="#575757"/>
      <path id="Trazado_873266" data-name="Trazado 873266" d="M58.628,53.069V63.208a1.127,1.127,0,0,0,2.253,0,1.127,1.127,0,0,0,2.253,0V59.265h1.223a1.127,1.127,0,0,1,.8.33l.37.37a3.38,3.38,0,0,0,2.39.99h.017a3.38,3.38,0,0,0,2.389-.99l.37-.37a1.127,1.127,0,0,1,.8-.33h1.065a3.362,3.362,0,0,1,.158,1.015v2.928a1.127,1.127,0,0,0,2.253,0,1.127,1.127,0,0,0,2.253,0V57.14A2.381,2.381,0,0,1,79.6,54.759h3.032a1.717,1.717,0,0,0,.774-.184,1.684,1.684,0,0,0,.287-.182,1.723,1.723,0,0,0,.158-2.578L80.692,48.66A2.253,2.253,0,0,0,79.1,48H77.216l-.294,1.69H62.008a3.38,3.38,0,0,0-3.38,3.38Z" transform="translate(-53.559 -45.747)" fill="#dfdfdf"/>
      <rect id="Rectángulo_402618" data-name="Rectángulo 402618" width="1.174" height="5.285" transform="translate(5.153 28.643)" fill="#dfdfdf"/>
      <rect id="Rectángulo_402619" data-name="Rectángulo 402619" width="1.174" height="5.285" transform="translate(2.804 28.643)" fill="#dfdfdf"/>
      <rect id="Rectángulo_402620" data-name="Rectángulo 402620" width="1.762" height="1.174" transform="translate(8.089 22.183)" fill="#e2662b"/>
      <path id="Trazado_873267" data-name="Trazado 873267" d="M24,277.633v8.449a1.127,1.127,0,1,0,2.253,0,1.127,1.127,0,0,0,2.253,0v-3.394h.015l.212.132a7.391,7.391,0,0,0,7.437.011l.229-.12a1.925,1.925,0,0,1,.556,1.352v2.02a1.127,1.127,0,0,0,2.253,0,1.127,1.127,0,0,0,2.253,0v-4.506l3.26-1.4a1.127,1.127,0,0,0,.683-1.036v-.068a1.127,1.127,0,0,0-.853-1.093l-.841-.211a1.126,1.126,0,0,1-.773-.675l-.912-2.281.1-.1a3.516,3.516,0,0,0,1.03-2.486V272a3.516,3.516,0,0,0-2.745,1.319l-.86,1.075a1.126,1.126,0,0,1-.879.422H26.816A2.816,2.816,0,0,0,24,277.633Z" transform="translate(-12.171 -253.975)" fill="#e8bdac"/>
      <path id="Trazado_873268" data-name="Trazado 873268" d="M378.817,316.506h1.126a1.126,1.126,0,0,0,1.126-1.127v-1.971A1.408,1.408,0,0,1,382.478,312h0a1.408,1.408,0,0,1,1.408,1.408,3.58,3.58,0,0,1-.378,1.6l-.185.371v2.748a2.885,2.885,0,0,1-.845,2.04h0a2.885,2.885,0,0,1-2.04.845H379.38a3.38,3.38,0,0,1-3.38-3.38V313.69A2.816,2.816,0,0,0,378.817,316.506Z" transform="translate(-375.437 -291.159)" fill="#f4c44d"/>
      <path id="Trazado_873269" data-name="Trazado 873269" d="M139.314,24a4.079,4.079,0,0,1,2.885,1.195l1.786,1.786a.563.563,0,0,1,0,.8h0a.563.563,0,0,1-.4.165H141.8a.563.563,0,0,1-.4-.165l-.893-.893A4.079,4.079,0,0,1,139.314,24Z" transform="translate(-119.036 -23.436)" fill="#bebebe"/>
      <path id="Trazado_873270" data-name="Trazado 873270" d="M104,18.253h1.127a1.128,1.128,0,0,1,1.127-1.127h1.127V16h-1.127A2.256,2.256,0,0,0,104,18.253Z" transform="translate(-79.78 -16)" fill="#575757"/>
      <path id="Trazado_873271" data-name="Trazado 873271" d="M376,81.012h1.126v-6.2a1.692,1.692,0,0,1,1.69-1.69h3.38V72h-3.38A2.819,2.819,0,0,0,376,74.816Z" transform="translate(-373.747 -68.057)" fill="#bebebe"/>
      <rect id="Rectángulo_402621" data-name="Rectángulo 402621" width="1.174" height="1.174" transform="translate(25.706 4.566)" fill="#575757"/>
      <path id="Trazado_873272" data-name="Trazado 873272" d="M232,72l1.9,1.9a1.2,1.2,0,0,1,.35.845,1.2,1.2,0,0,0,1.195,1.195h1.69a1.2,1.2,0,0,0,.845-.35l.99-.99a1.2,1.2,0,0,0,.35-.845V72Z" transform="translate(-220.735 -68.057)" fill="#575757"/>
      <path id="Trazado_873273" data-name="Trazado 873273" d="M368,75.38v1.69h1.058a1.2,1.2,0,0,0,1.195-1.195,1.2,1.2,0,0,1,.35-.845l.99-.99a1.2,1.2,0,0,0,.35-.845V72h-.563A3.38,3.38,0,0,0,368,75.38Z" transform="translate(-362.931 -68.057)" fill="#575757"/>
      <path id="Trazado_873274" data-name="Trazado 873274" d="M72.12,116.185l.918,1.377H73.5a1.717,1.717,0,0,0,.774-.184l-1.212-1.819Z" transform="translate(-44.426 -108.55)" fill="#bebebe"/>
      <rect id="Rectángulo_402622" data-name="Rectángulo 402622" width="1.174" height="1.174" transform="translate(27.468 22.771)" fill="#575757"/>
      <path id="Trazado_873275" data-name="Trazado 873275" d="M288,322.951l.917.611a1.125,1.125,0,0,1,.5.937v.786h1.127V324.5a2.249,2.249,0,0,0-1-1.874l-.863-.575A2.8,2.8,0,0,0,288,322.951Z" transform="translate(-275.9 -300.501)" fill="#c49178"/>
      <path id="Trazado_873276" data-name="Trazado 873276" d="M241.6,382.759h.019a.554.554,0,0,0,.554-.554v-1.4a2.1,2.1,0,0,1,.933-1.744l1.258-.839a2.662,2.662,0,0,0,1.1-1.52.555.555,0,0,0-.535-.7H244.9a.562.562,0,0,0-.537.419,1.538,1.538,0,0,1-.629.864l-1.258.839a3.222,3.222,0,0,0-1.435,2.681v1.4A.554.554,0,0,0,241.6,382.759Z" transform="translate(-227.527 -350.653)" fill="#c5a192"/>
      <rect id="Rectángulo_402623" data-name="Rectángulo 402623" width="1.174" height="5.285" rx="0.587" transform="translate(26.293 26.881)" fill="#c5a192"/>
      <path id="Trazado_873277" data-name="Trazado 873277" d="M152.587,378.783l.006,0a.569.569,0,0,0,.322-.594,1.371,1.371,0,0,1-.01-.166v-1.46a.56.56,0,0,0-.56-.56h-.007a.56.56,0,0,0-.56.56v1.46a2.5,2.5,0,0,0,.023.337.558.558,0,0,0,.786.426Z" transform="translate(-128.684 -350.653)" fill="#c5a192"/>
      <path id="Trazado_873278" data-name="Trazado 873278" d="M336.563,159.886h0a.563.563,0,0,0,.563-.563v-1.528a2.46,2.46,0,0,1,1.379-2.193,3.6,3.6,0,0,0,2-3.238h0a.364.364,0,0,0-.364-.364h-.4a.364.364,0,0,0-.364.364v.037A2.46,2.46,0,0,1,338,154.594a3.6,3.6,0,0,0-2,3.238v1.49A.563.563,0,0,0,336.563,159.886Z" transform="translate(-329.241 -142.424)" fill="#bebebe"/>
      <rect id="Rectángulo_402624" data-name="Rectángulo 402624" width="0.587" height="1.174" rx="0.294" transform="translate(9.264 12.2)" fill="#bebebe"/>
      <rect id="Rectángulo_402625" data-name="Rectángulo 402625" width="1.174" height="7.634" rx="0.587" transform="translate(21.008 9.851)" fill="#bebebe"/>
      <path id="Trazado_873279" data-name="Trazado 873279" d="M222.776,155.957h0a.561.561,0,0,0,.335-.786,3.919,3.919,0,0,0-.219-.374,2.828,2.828,0,0,1-.476-1.559v-.674a.563.563,0,0,0-.563-.563h0a.563.563,0,0,0-.563.563v.689a3.993,3.993,0,0,0,.672,2.18,2.786,2.786,0,0,1,.145.249A.561.561,0,0,0,222.776,155.957Z" transform="translate(-203.828 -142.424)" fill="#bebebe"/>
      <path id="Trazado_873280" data-name="Trazado 873280" d="M353.126,306.252a2.256,2.256,0,0,0,2.253,2.253h1.127a.564.564,0,0,0,.563-.563V305.97a1.971,1.971,0,0,1,3.922-.282h1.147v1.126h-1.216a4.151,4.151,0,0,1-.348,1.008l-.126.252v2.615a3.452,3.452,0,0,1-2.253,3.236v3.592h-1.127v-3.381l-.068,0h-1.058v3.38h-1.127v-3.544A3.949,3.949,0,0,1,352,310.195v-3.943Zm0,3.943a2.82,2.82,0,0,0,2.816,2.816H357a2.321,2.321,0,0,0,2.321-2.321v-2.881l.245-.49a3.03,3.03,0,0,0,.318-1.349.845.845,0,1,0-1.69,0v1.971a1.692,1.692,0,0,1-1.69,1.69H355.38a3.366,3.366,0,0,1-2.253-.863Z" transform="translate(-352 -283.721)"/>
      <path id="Trazado_873281" data-name="Trazado 873281" d="M19.38,266.816H31.23a.561.561,0,0,0,.44-.211l.859-1.074A4.059,4.059,0,0,1,35.714,264h.563v.8a4.049,4.049,0,0,1-1.032,2.712l.777,1.943a.565.565,0,0,0,.386.337l.841.21a1.687,1.687,0,0,1,1.28,1.639v.067a1.688,1.688,0,0,1-1.024,1.553l-2.919,1.251v4.135a1.689,1.689,0,0,1-2.816,1.258,1.689,1.689,0,0,1-2.816-1.258v-2.02A1.353,1.353,0,0,0,28.8,276a7.968,7.968,0,0,1-7.17.195v2.45a1.689,1.689,0,0,1-2.816,1.258A1.689,1.689,0,0,1,16,278.645V270.2A3.383,3.383,0,0,1,19.38,266.816Zm0,11.828a.563.563,0,1,0,1.127,0v-3.829l-.44.293a1.538,1.538,0,0,0-.686,1.283Zm-2.253,0a.563.563,0,1,0,1.127,0v-2.253a2.663,2.663,0,0,1,1.188-2.22l1.5-1a1.538,1.538,0,0,0,.687-1.283h1.127a2.661,2.661,0,0,1-1.127,2.176v.864a6.843,6.843,0,0,0,6.491.157,2.473,2.473,0,0,1-.3-1.178v-2.02h1.127v2.02a1.351,1.351,0,0,0,.4.962,2.47,2.47,0,0,1,.728,1.758v2.02a.563.563,0,1,0,1.127,0v-5.069h1.127v5.069a.563.563,0,1,0,1.127,0v-4.878l3.6-1.543a.563.563,0,0,0,.341-.518v-.067a.563.563,0,0,0-.427-.546l-.841-.21a1.694,1.694,0,0,1-1.159-1.012l-1.05-2.626.359-.359a2.931,2.931,0,0,0,.84-1.7,2.937,2.937,0,0,0-1.717,1.05l-.859,1.074a1.681,1.681,0,0,1-1.32.634H19.38a2.241,2.241,0,0,0-1.376.471l.373.249a2.249,2.249,0,0,1,1,1.875v.785H18.253v-.785a1.124,1.124,0,0,0-.5-.937l-.441-.294a2.24,2.24,0,0,0-.184.89Z" transform="translate(-4.735 -246.538)"/>
      <rect id="Rectángulo_402626" data-name="Rectángulo 402626" width="1.174" height="1.174" transform="translate(27.468 22.771)"/>
      <rect id="Rectángulo_402627" data-name="Rectángulo 402627" width="1.174" height="1.174" transform="translate(25.706 4.566)"/>
      <path id="Trazado_873282" data-name="Trazado 873282" d="M53.447,19.943H54.8a3.918,3.918,0,0,1,2.028-.563H69.044a4.607,4.607,0,0,1-.952-2.816V16h.563a4.612,4.612,0,0,1,3.283,1.36l.33.33h.4A2.257,2.257,0,0,1,74.851,16h1.127v1.127H74.851a1.126,1.126,0,0,0-.974.563h.041a2.8,2.8,0,0,1,1.991.825l3.156,3.156a2.287,2.287,0,0,1-1.617,3.9H74.416A1.82,1.82,0,0,0,72.6,27.393v6.068a1.689,1.689,0,0,1-2.816,1.258,1.689,1.689,0,0,1-2.816-1.258V30.533a2.8,2.8,0,0,0-.038-.452h-.622a.56.56,0,0,0-.4.165l-.37.37a3.963,3.963,0,0,1-.825.632v1.086H63.586v-.653a3.976,3.976,0,0,1-.837.089h-.017a3.977,3.977,0,0,1-.837-.089v.653H60.769V31.248a3.962,3.962,0,0,1-.825-.632l-.37-.37a.559.559,0,0,0-.4-.165h-.66v3.38A1.689,1.689,0,0,1,55.7,34.719a1.689,1.689,0,0,1-2.816-1.258V23.322a3.92,3.92,0,0,1,.71-2.253h-.147a1.692,1.692,0,0,0-1.69,1.69v6.2H50.631v-6.2a2.82,2.82,0,0,1,2.816-2.816Zm.563,3.38v1.127h.495a.632.632,0,0,0,.632-.632,1.747,1.747,0,0,1,.515-1.243l.99-.99a.628.628,0,0,0,.185-.447v-.632A2.82,2.82,0,0,0,54.01,23.322ZM66.4,20.506H61l.942.942a1.747,1.747,0,0,1,.515,1.243.632.632,0,0,0,.632.632h1.69a.636.636,0,0,0,.447-.185l.99-.99A.628.628,0,0,0,66.4,21.7ZM56.263,33.461a.563.563,0,0,0,1.127,0V29.323a2.477,2.477,0,0,0-1.127,2.084Zm-1.69.563a.564.564,0,0,0,.563-.563V31.208h.006a3.6,3.6,0,0,1,2-3.038,2.48,2.48,0,0,0,1.378-2.23v-.364h1.127v.364a3.6,3.6,0,0,1-1.127,2.625v.391h.66a1.678,1.678,0,0,1,1.195.495l.37.37a2.8,2.8,0,0,0,1.991.825h.017a2.8,2.8,0,0,0,1.991-.825l.37-.37a1.679,1.679,0,0,1,1.195-.495h.172a3.9,3.9,0,0,1-.638-2.142V25.575h1.127v1.238a2.782,2.782,0,0,0,.469,1.548,3.9,3.9,0,0,1,.658,2.173v2.927a.563.563,0,1,0,1.127,0V25.575h1.127v7.886a.563.563,0,1,0,1.127,0V27.393a2.948,2.948,0,0,1,2.944-2.944h2.2l-.543-.814.937-.625.9,1.345a1.161,1.161,0,0,0,.363-1.887l-3.156-3.156a1.679,1.679,0,0,0-1.195-.495h-.523l.728.728-.8.8-2.185-2.185a3.491,3.491,0,0,0-1.87-.976,3.491,3.491,0,0,0,.976,1.87l1.058,1.058-.8.8-.4-.4H67.529V21.7a1.747,1.747,0,0,1-.515,1.243l-.99.99a1.747,1.747,0,0,1-1.243.515h-1.69a1.76,1.76,0,0,1-1.758-1.758.628.628,0,0,0-.185-.447L59.41,20.506H57.953v.632a1.747,1.747,0,0,1-.515,1.243l-.99.99a.628.628,0,0,0-.185.447,1.76,1.76,0,0,1-1.758,1.758H54.01v7.886A.564.564,0,0,0,54.574,34.024Z" transform="translate(-48.378 -15.999)"/>
    </g>
  </g>
</svg>
