<svg xmlns="http://www.w3.org/2000/svg" xmlns:xlink="http://www.w3.org/1999/xlink" width="80.865" height="80.865" viewBox="0 0 80.865 80.865">
  <defs>
    <filter id="Rect치ngulo_402588" x="0" y="0" width="80.865" height="80.865" filterUnits="userSpaceOnUse">
      <feOffset dy="3" input="SourceAlpha"/>
      <feGaussianBlur stdDeviation="3" result="blur"/>
      <feFlood flood-opacity="0.161"/>
      <feComposite operator="in" in2="blur"/>
      <feComposite in="SourceGraphic"/>
    </filter>
    <clipPath id="clip-path">
      <path id="path2877" d="M0-682.665H43.551v43.551H0Z" transform="translate(0 682.665)"/>
    </clipPath>
  </defs>
  <g id="Grupo_1213700" data-name="Grupo 1213700" transform="translate(-258.201 -11374)">
    <g id="Grupo_1211544" data-name="Grupo 1211544" transform="translate(-8.949 8550)">
      <g id="Grupo_1099341" data-name="Grupo 1099341" transform="translate(276.15 2830)">
        <g transform="matrix(1, 0, 0, 1, -9, -6)" filter="url(#Rect치ngulo_402588)">
          <g id="Rect치ngulo_402588-2" data-name="Rect치ngulo 402588" transform="translate(9 6)" fill="#efd026" stroke="#fff" stroke-width="5">
            <rect width="62.865" height="62.865" rx="14" stroke="none"/>
            <rect x="2.5" y="2.5" width="57.865" height="57.865" rx="11.5" fill="none"/>
          </g>
        </g>
        <g id="g2871" transform="translate(10.657 691.322)">
          <g id="g2873" transform="translate(0 -682.665)">
            <g id="g2875" clip-path="url(#clip-path)">
              <g id="g2881" transform="translate(5.274 14.334)">
                <path id="path2883" d="M-435.041,0h-1.715a1.528,1.528,0,0,0-1.238.633L-439.7,2.995a.84.84,0,0,1-.68.347h-19.9a4.4,4.4,0,0,0-4.4,4.4V25.739a.517.517,0,0,0,.517.517h2.15a.517.517,0,0,0,.517-.517V21.6a.436.436,0,0,1,.234-.386c.859-.451,3.8-2.168,4.044-4.612a.519.519,0,0,1,.45-.459c4.235-.562,10.161,3.977,14.907,1.539a.39.39,0,0,1,.569.346v7.707a.517.517,0,0,0,.517.517h1.673a.517.517,0,0,0,.513-.452l1.163-9.248a1.382,1.382,0,0,1,.2-.566l3.495-5.522a1,1,0,0,1,.663-.447l5.094-.926a1.133,1.133,0,0,0,.93-1.114V6.852a1.133,1.133,0,0,0-.4-.862l-6.6-5.625A1.528,1.528,0,0,0-435.041,0" transform="translate(464.686)" fill="#f2fbff"/>
              </g>
              <g id="g2885" transform="translate(13.368 17.676)">
                <path id="path2887" d="M0-111.417H4.376a2.859,2.859,0,0,0,2.519-1.506l.236-.44a2.859,2.859,0,0,1,2.519-1.506h1.107a2.779,2.779,0,0,0,2.779-2.779,2.77,2.77,0,0,0-.356-1.36H.53Z" transform="translate(0 119.009)" fill="#678d98"/>
              </g>
              <g id="g2889" transform="translate(29.079 14.334)">
                <path id="path2891" d="M-197.165-87.9l-6.6-5.625a1.528,1.528,0,0,0-.991-.365h-1.715a1.529,1.529,0,0,0-.344.04,1.528,1.528,0,0,1,.652.325l6.59,5.476a1.133,1.133,0,0,1,.4.862v.358a1.133,1.133,0,0,1-.93,1.114l-3.719.7a1,1,0,0,0-.663.447L-208.82-77.9a1.381,1.381,0,0,0-.2.566l-1.163,9.248a.516.516,0,0,1-.414.442.517.517,0,0,0,.1.01h1.673a.517.517,0,0,0,.513-.452l1.163-9.248a1.381,1.381,0,0,1,.2-.566l3.495-5.522a1,1,0,0,1,.663-.447l5.094-.926a1.133,1.133,0,0,0,.93-1.114v-1.127a1.133,1.133,0,0,0-.4-.862" transform="translate(210.601 93.89)" fill="#dff6fd"/>
              </g>
              <g id="g2893" transform="translate(39.225 18.713)">
                <path id="path2895" d="M-48.272-23.63l-1.891-1.61a5.181,5.181,0,0,0-1.4,3.547,5.192,5.192,0,0,0,.259,1.621l2.5-.454a1.133,1.133,0,0,0,.93-1.114v-1.127a1.133,1.133,0,0,0-.4-.862" transform="translate(51.561 25.24)" fill="#ffa78f"/>
              </g>
              <g id="g2897" transform="translate(39.236 18.713)">
                <path id="path2899" d="M-48.12-23.63l-1.891-1.61a5.219,5.219,0,0,0-.838,1.2l.316.263a1.133,1.133,0,0,1,.4.862v.358a1.133,1.133,0,0,1-.93,1.114l-.335.063a5.189,5.189,0,0,0,.249,1.31l2.5-.454a1.133,1.133,0,0,0,.93-1.114v-1.127a1.133,1.133,0,0,0-.4-.862" transform="translate(51.399 25.24)" fill="#f89580"/>
              </g>
              <g id="g2901" transform="translate(29.469 13.354)">
                <path id="path2903" d="M-6.794-.128A.383.383,0,0,0-7.25.319,5.057,5.057,0,0,0-6.165,2.75c.972.993,2.16,1.406,2.653.924S-3.408,2-4.38,1A5.038,5.038,0,0,0-6.794-.128" transform="translate(7.257 0.137)" fill="#f2fbff"/>
              </g>
              <g id="g2905" transform="translate(0.638 13.845)">
                <path id="path2907" d="M0-17.385V9.274a1.185,1.185,0,0,0,1.185,1.185H19.318A1.185,1.185,0,0,0,20.5,9.274V-17.385a1.185,1.185,0,0,0-1.185-1.185H1.185A1.185,1.185,0,0,0,0-17.385" transform="translate(0 18.569)" fill="#68ca44"/>
              </g>
              <g id="g2909" transform="translate(17.914 13.845)">
                <path id="path2911" d="M-29.958,0H-32a1.185,1.185,0,0,1,1.185,1.185V27.844A1.185,1.185,0,0,1-32,29.028h2.041a1.185,1.185,0,0,0,1.185-1.185V1.185A1.185,1.185,0,0,0-29.958,0" transform="translate(32)" fill="#4fc123"/>
              </g>
              <g id="g2913" transform="translate(18.333 0.678)">
                <path id="path2915" d="M-61.789-82.386a1.4,1.4,0,0,1-1.4-1.4,1.4,1.4,0,0,1,1.4-1.4,1.4,1.4,0,0,1,1.4,1.4,1.4,1.4,0,0,1-1.4,1.4m0-5.614A4.215,4.215,0,0,0-66-83.789c0,3.418,4.21,6,4.21,6s4.21-2.7,4.21-6A4.215,4.215,0,0,0-61.789-88" transform="translate(66 88)" fill="#fd8087"/>
              </g>
              <g id="g2917" transform="translate(3.445 16.652)">
                <path id="path2919" d="M-210.189,0h-4.647a.582.582,0,0,0-.582.582,1.65,1.65,0,0,1-1.65,1.65,1.65,1.65,0,0,1-1.65-1.65A.582.582,0,0,0-219.3,0h-4.647a.566.566,0,0,0-.566.566V22.849a.566.566,0,0,0,.566.566h13.757a.566.566,0,0,0,.566-.566V.566A.566.566,0,0,0-210.189,0" transform="translate(224.511)" fill="#f2fbff"/>
              </g>
              <g id="g2921" transform="translate(21.14 17.676)">
                <path id="path2923" d="M-79.352,0A2.769,2.769,0,0,1-79,1.36a2.779,2.779,0,0,1-2.779,2.779h-1.107a2.854,2.854,0,0,0-1.877.7" transform="translate(84.76)" fill="none" stroke="#000" stroke-linecap="round" stroke-linejoin="round" stroke-miterlimit="10" stroke-width="1.2"/>
              </g>
              <g id="g2925" transform="translate(21.14 16.514)">
                <path id="path2927" d="M0-17.064H8.437a.84.84,0,0,0,.68-.348l.589-.815" transform="translate(0 18.227)" fill="none" stroke="#000" stroke-linecap="round" stroke-linejoin="round" stroke-miterlimit="10" stroke-width="1.2"/>
              </g>
              <g id="g2929" transform="translate(32.409 14.334)">
                <path id="path2931" d="M0-3.308a1.511,1.511,0,0,1,.8-.225H2.51a1.528,1.528,0,0,1,.991.365l6.6,5.625a1.133,1.133,0,0,1,.4.863V4.446a1.132,1.132,0,0,1-.93,1.114L4.48,6.487a.994.994,0,0,0-.663.447l-1,1.585" transform="translate(0 3.533)" fill="none" stroke="#000" stroke-linecap="round" stroke-linejoin="round" stroke-miterlimit="10" stroke-width="1.2"/>
              </g>
              <g id="g2933" transform="translate(21.14 28.898)">
                <path id="path2935" d="M0-47.684c2.382.645,4.79.982,6.953-.128a.39.39,0,0,1,.569.345v7.707a.517.517,0,0,0,.517.517H9.712a.516.516,0,0,0,.512-.453l1.164-9.248a1.381,1.381,0,0,1,.2-.567l.9-1.424" transform="translate(0 50.933)" fill="none" stroke="#000" stroke-linecap="round" stroke-linejoin="round" stroke-miterlimit="10" stroke-width="1.2"/>
              </g>
              <g id="g2937" transform="translate(35.241 18.542)">
                <path id="path2939" d="M0,0V.507" fill="none" stroke="#000" stroke-linecap="round" stroke-linejoin="round" stroke-miterlimit="10" stroke-width="1.2"/>
              </g>
              <g id="g2941" transform="translate(39.225 18.713)">
                <path id="path2943" d="M-20.525,0a5.181,5.181,0,0,0-1.4,3.547,5.193,5.193,0,0,0,.259,1.621" transform="translate(21.924)" fill="none" stroke="#000" stroke-linecap="round" stroke-linejoin="round" stroke-miterlimit="10" stroke-width="1.2"/>
              </g>
              <g id="g2945" transform="translate(29.469 13.354)">
                <path id="path2947" d="M-54.428-33.662a4.486,4.486,0,0,0-.832-1.154,5.038,5.038,0,0,0-2.414-1.131.383.383,0,0,0-.456.448,5.059,5.059,0,0,0,1.085,2.431,4.535,4.535,0,0,0,1.082.827" transform="translate(58.137 35.956)" fill="none" stroke="#000" stroke-linecap="round" stroke-linejoin="round" stroke-miterlimit="10" stroke-width="1.2"/>
              </g>
              <g id="g2949" transform="translate(0.638 13.845)">
                <path id="path2951" d="M0-156.337v17.19a1.185,1.185,0,0,0,1.185,1.185H19.318a1.185,1.185,0,0,0,1.185-1.185v-26.659a1.185,1.185,0,0,0-1.185-1.185H1.185A1.185,1.185,0,0,0,0-165.806v6.491" transform="translate(0 166.99)" fill="none" stroke="#000" stroke-linecap="round" stroke-linejoin="round" stroke-miterlimit="10" stroke-width="1.2"/>
              </g>
              <g id="g2953" transform="translate(18.333 0.678)">
                <path id="path2955" d="M-61.789-82.386a1.4,1.4,0,0,1-1.4-1.4,1.4,1.4,0,0,1,1.4-1.4,1.4,1.4,0,0,1,1.4,1.4A1.4,1.4,0,0,1-61.789-82.386Zm0-5.614A4.215,4.215,0,0,0-66-83.789c0,3.418,4.21,6,4.21,6s4.21-2.7,4.21-6A4.215,4.215,0,0,0-61.789-88Z" transform="translate(66 88)" fill="none" stroke="#000" stroke-linecap="round" stroke-linejoin="round" stroke-miterlimit="10" stroke-width="1.2"/>
              </g>
              <g id="g2957" transform="translate(3.445 16.652)">
                <path id="path2959" d="M-210.189,0h-4.647a.582.582,0,0,0-.582.582,1.65,1.65,0,0,1-1.65,1.65,1.65,1.65,0,0,1-1.65-1.65A.582.582,0,0,0-219.3,0h-4.647a.566.566,0,0,0-.566.566V22.849a.566.566,0,0,0,.566.566h13.757a.566.566,0,0,0,.566-.566V.566A.566.566,0,0,0-210.189,0Z" transform="translate(224.511)" fill="none" stroke="#000" stroke-linecap="round" stroke-linejoin="round" stroke-miterlimit="10" stroke-width="1.2"/>
              </g>
              <g id="g2961" transform="translate(6.799 33.105)">
                <path id="path2963" d="M0,0V1.089" fill="none" stroke="#000" stroke-linecap="round" stroke-linejoin="round" stroke-miterlimit="10" stroke-width="1.2"/>
              </g>
              <g id="g2965" transform="translate(9.526 31.669)">
                <path id="path2967" d="M0,0V2.525" fill="none" stroke="#000" stroke-linecap="round" stroke-linejoin="round" stroke-miterlimit="10" stroke-width="1.2"/>
              </g>
              <g id="g2969" transform="translate(12.253 30.233)">
                <path id="path2971" d="M0,0V3.961" fill="none" stroke="#000" stroke-linecap="round" stroke-linejoin="round" stroke-miterlimit="10" stroke-width="1.2"/>
              </g>
              <g id="g2973" transform="translate(14.979 28.797)">
                <path id="path2975" d="M0,0V5.4" fill="none" stroke="#000" stroke-linecap="round" stroke-linejoin="round" stroke-miterlimit="10" stroke-width="1.2"/>
              </g>
              <g id="g2977" transform="translate(7.036 22.996)">
                <path id="path2979" d="M0-63.733l8.532-4.343" transform="translate(0 68.076)" fill="none" stroke="#000" stroke-linecap="round" stroke-linejoin="round" stroke-miterlimit="10" stroke-width="1.2"/>
              </g>
              <g id="g2981" transform="translate(13.517 22.231)">
                <path id="path2983" d="M0,0,2.05.765,1.462,2.872" fill="none" stroke="#000" stroke-linecap="round" stroke-linejoin="round" stroke-miterlimit="10" stroke-width="1.2"/>
              </g>
            </g>
          </g>
        </g>
      </g>
    </g>
  </g>
</svg>
