<svg xmlns="http://www.w3.org/2000/svg" width="62.865" height="62.865" viewBox="0 0 62.865 62.865">
  <g id="Grupo_1211966" data-name="Grupo 1211966" transform="translate(-267.201 -11380)">
    <g id="Grupo_1211544" data-name="Grupo 1211544" transform="translate(-8.949 8550)">
      <g id="Grupo_1099341" data-name="Grupo 1099341" transform="translate(276.15 2830)">
        <g id="Rectángulo_402588" data-name="Rectángulo 402588" transform="translate(0 0)" fill="#efd026" stroke="#fff" stroke-width="5">
          <rect width="62.865" height="62.865" rx="14" stroke="none"/>
          <rect x="2.5" y="2.5" width="57.865" height="57.865" rx="11.5" fill="none"/>
        </g>
      </g>
    </g>
    <g id="jaula-de-pajaros" transform="translate(280.637 11393.435)">
      <g id="Grupo_1211964" data-name="Grupo 1211964" transform="translate(0.527 0.527)">
        <path id="Trazado_1034530" data-name="Trazado 1034530" d="M55.106,438.274H27.73a.844.844,0,0,1-.785-.536l-1.754-4.473H57.645l-1.754,4.473A.844.844,0,0,1,55.106,438.274Z" transform="translate(-23.947 -403.332)" fill="#b57f5f"/>
        <path id="Trazado_1034531" data-name="Trazado 1034531" d="M29.487,438.278H27.729a.843.843,0,0,1-.785-.536L25.19,433.27h1.758l1.754,4.472A.843.843,0,0,0,29.487,438.278Z" transform="translate(-23.946 -403.336)" fill="#966a5b"/>
        <path id="Trazado_1034532" data-name="Trazado 1034532" d="M192.414,7.5h-5.08a2.461,2.461,0,0,0-2.461,2.461v4.008h10V9.961A2.461,2.461,0,0,0,192.414,7.5Zm.352,5.894h-5.783V9.961a.352.352,0,0,1,.352-.352h5.08a.352.352,0,0,1,.352.352Z" transform="translate(-172.403 -7.5)" fill="#ffe07d"/>
        <path id="Trazado_1034533" data-name="Trazado 1034533" d="M187.331,7.5a2.461,2.461,0,0,0-2.461,2.461v4.008h1.758V9.961A2.461,2.461,0,0,1,189.088,7.5Z" transform="translate(-172.4 -7.5)" fill="#ffd064"/>
        <path id="Trazado_1034534" data-name="Trazado 1034534" d="M60.8,85.213H41.028A5.624,5.624,0,0,0,35.4,90.837v17.756h2.109V90.837a3.515,3.515,0,0,1,3.515-3.515h2.813a.281.281,0,0,1,.235.435,5.6,5.6,0,0,0-.918,3.08v17.756h2.109V90.837a3.515,3.515,0,0,1,3.515-3.515h.794a.281.281,0,0,1,.281.281v20.99h2.109V87.6a.281.281,0,0,1,.281-.281h.794a3.515,3.515,0,0,1,3.515,3.515v17.756h2.109V90.837a5.6,5.6,0,0,0-.918-3.08.281.281,0,0,1,.235-.435H60.8a3.515,3.515,0,0,1,3.515,3.515v17.756h2.109V90.837A5.624,5.624,0,0,0,60.8,85.213Z" transform="translate(-33.442 -79.749)" fill="#fff5c6"/>
        <path id="Trazado_1034535" data-name="Trazado 1034535" d="M42.782,85.21a5.625,5.625,0,0,0-5.624,5.624v17.756H35.4V90.834a5.625,5.625,0,0,1,5.624-5.624Z" transform="translate(-33.438 -79.747)" fill="#ffe07d"/>
        <path id="Trazado_1034536" data-name="Trazado 1034536" d="M47.868,224.9H15.03a.562.562,0,0,1-.562-.562v-.984a.562.562,0,0,1,.562-.562H47.868a.562.562,0,0,1,.562.562v.984A.562.562,0,0,1,47.868,224.9Z" transform="translate(-13.978 -207.651)" fill="#ffd064"/>
        <path id="Trazado_1034537" data-name="Trazado 1034537" d="M47.868,319.9H15.03a.562.562,0,0,1-.562-.562v-.984a.562.562,0,0,1,.562-.562H47.868a.562.562,0,0,1,.562.562v.984A.562.562,0,0,1,47.868,319.9Z" transform="translate(-13.978 -295.972)" fill="#ffd064"/>
        <path id="Trazado_1034538" data-name="Trazado 1034538" d="M41.739,415.8H8.2a.7.7,0,0,1-.7-.7v-1.61a.7.7,0,0,1,.7-.7H41.739a.7.7,0,0,1,.7.7v1.61A.7.7,0,0,1,41.739,415.8Z" transform="translate(-7.5 -384.293)" fill="#c38c66"/>
        <path id="Trazado_1034539" data-name="Trazado 1034539" d="M9.961,415.805H8.2a.7.7,0,0,1-.7-.7v-1.609a.7.7,0,0,1,.7-.7H9.961a.7.7,0,0,0-.7.7V415.1A.7.7,0,0,0,9.961,415.805Z" transform="translate(-7.5 -384.296)" fill="#b57f5f"/>
      </g>
      <g id="Grupo_1211965" data-name="Grupo 1211965" transform="translate(0 0)">
        <path id="Trazado_1034540" data-name="Trazado 1034540" d="M34.766,28.494h-.731V24.979h.382a1.091,1.091,0,0,0,1.09-1.09V22.9a1.091,1.091,0,0,0-1.09-1.09h-.382V18.3h.382a1.091,1.091,0,0,0,1.09-1.09v-.984a1.091,1.091,0,0,0-1.09-1.09h-.382V13.925a.527.527,0,1,0-1.055,0v1.211H31.926V11.615a4.047,4.047,0,0,0-4.043-4.043H25.07a.808.808,0,0,0-.676,1.252,5.075,5.075,0,0,1,.831,2.791v3.521H24.171V11.615a4.047,4.047,0,0,0-4.043-4.043h-.794a.809.809,0,0,0-.809.809v6.755H17.471V8.381a.809.809,0,0,0-.809-.809h-.794a4.047,4.047,0,0,0-4.043,4.043v3.521H10.771V11.615a5.075,5.075,0,0,1,.831-2.79.808.808,0,0,0-.675-1.252H8.113a4.047,4.047,0,0,0-4.043,4.043v3.521H3.016V11.615a5.1,5.1,0,0,1,5.1-5.1h19.77a5.068,5.068,0,0,1,5.1,4.96.527.527,0,0,0,1.054-.028,6.152,6.152,0,0,0-6.149-5.987H23.526V2.988A2.991,2.991,0,0,0,20.538,0h-5.08A2.991,2.991,0,0,0,12.47,2.988V5.463H8.113a6.159,6.159,0,0,0-6.152,6.152v3.521H1.58a1.091,1.091,0,0,0-1.09,1.09v.984A1.091,1.091,0,0,0,1.58,18.3h.382v3.515H1.58A1.091,1.091,0,0,0,.49,22.9v.984a1.091,1.091,0,0,0,1.09,1.09h.382v3.515H1.23A1.232,1.232,0,0,0,0,29.725v1.609a1.232,1.232,0,0,0,1.23,1.23h.8l1,2.561A1.362,1.362,0,0,0,4.31,36H31.686a1.362,1.362,0,0,0,1.276-.87l1-2.562h.8A1.232,1.232,0,0,0,36,31.334V29.725A1.232,1.232,0,0,0,34.766,28.494ZM20.363,5.463H15.634v-2.3h4.729ZM13.525,2.988a1.936,1.936,0,0,1,1.933-1.933h5.08a1.936,1.936,0,0,1,1.933,1.933V5.463H21.417V2.988a.88.88,0,0,0-.879-.879h-5.08a.88.88,0,0,0-.879.879V5.463H13.525ZM32.98,28.494H31.926V24.979H32.98ZM9.716,24.979v3.515H5.125V24.979Zm1.055,0h1.055v3.515H10.771Zm2.109,0h3.536v3.515H12.88Zm4.591,0h1.055v3.515H17.471Zm2.109,0h3.536v3.515H19.58Zm4.591,0h1.055v3.515H24.171Zm2.109,0h4.591v3.515H26.28Zm6.7-3.164H31.926V18.3H32.98ZM9.716,18.3v3.515H5.125V18.3Zm1.055,0h1.055v3.515H10.771Zm2.109,0h3.536v3.515H12.88Zm4.591,0h1.055v3.515H17.471Zm2.109,0h3.536v3.515H19.58Zm4.591,0h1.055v3.515H24.171Zm2.109,0h4.591v3.515H26.28Zm-.773-9.672h2.376a2.991,2.991,0,0,1,2.988,2.988v3.521H26.28V11.615A6.13,6.13,0,0,0,25.507,8.627Zm-5.927,0h.548a2.991,2.991,0,0,1,2.988,2.988v3.521H19.58Zm-6.7,2.988a2.991,2.991,0,0,1,2.988-2.988h.548v6.509H12.88Zm-7.755,0A2.991,2.991,0,0,1,8.113,8.627h2.376a6.13,6.13,0,0,0-.773,2.988v3.521H5.125ZM1.544,17.21v-.984a.035.035,0,0,1,.035-.035H34.417a.035.035,0,0,1,.035.035v.984a.035.035,0,0,1-.035.035H1.58a.035.035,0,0,1-.035-.035ZM3.016,18.3H4.071v3.515H3.016ZM1.544,23.889V22.9a.035.035,0,0,1,.035-.035H34.417a.035.035,0,0,1,.035.035v.984a.035.035,0,0,1-.035.035H1.58a.035.035,0,0,1-.035-.035Zm1.472,1.09H4.071v3.515H3.016Zm31.926,6.355a.176.176,0,0,1-.176.176H9.58a.527.527,0,0,0,0,1.055H32.834l-.854,2.177a.314.314,0,0,1-.294.2H4.31a.314.314,0,0,1-.294-.2l-.854-2.177H7.119a.527.527,0,0,0,0-1.055H1.23a.176.176,0,0,1-.176-.176V29.725a.176.176,0,0,1,.176-.176H34.766a.176.176,0,0,1,.176.176Z" transform="translate(0 0)"/>
      </g>
    </g>
  </g>
</svg>
