<svg xmlns="http://www.w3.org/2000/svg" width="62.865" height="62.865" viewBox="0 0 62.865 62.865">
  <g id="Grupo_1211970" data-name="Grupo 1211970" transform="translate(-507.301 -11380)">
    <g id="Grupo_1211545" data-name="Grupo 1211545" transform="translate(-17.85 8550)">
      <g id="Grupo_1099341" data-name="Grupo 1099341" transform="translate(525.15 2830)">
        <g id="Rectángulo_402588" data-name="Rectángulo 402588" transform="translate(0 0)" fill="#efd026" stroke="#fff" stroke-width="5">
          <rect width="62.865" height="62.865" rx="14" stroke="none"/>
          <rect x="2.5" y="2.5" width="57.865" height="57.865" rx="11.5" fill="none"/>
        </g>
      </g>
    </g>
    <g id="soil_5016674" transform="translate(520.259 11392.958)">
      <g id="Grupo_1211968" data-name="Grupo 1211968" transform="translate(0.505 0.505)">
        <path id="Trazado_1034541" data-name="Trazado 1034541" d="M1.75,88.531H8.967L12.8,86.438l4.173,1.606,5.629-1.606,3.464,1.533,3.175-.144,6.784,1.155,1.66.216V97.93H1.75Z" transform="translate(-1.75 -61.991)" fill="#40322f"/>
        <path id="Trazado_1034542" data-name="Trazado 1034542" d="M34.207,56.416l-8.642,1.443-6.711-3.1-5.99.444L6.729,57.067l-4.979-.8V66H8.967L12.8,63.9l4.173,1.606L22.606,63.9l3.464,1.533,3.175-.144,6.784,1.155,1.66.217V56.416Z" transform="translate(-1.75 -39.456)" fill="#76625f"/>
        <path id="Trazado_1034543" data-name="Trazado 1034543" d="M1.75,46.655v3.031l4.979.8,6.134-1.864,5.99-.445,6.711,3.1,8.642-1.443h3.482V46.655A1.155,1.155,0,0,0,36.534,45.5H2.9A1.155,1.155,0,0,0,1.75,46.655Z" transform="translate(-1.75 -32.871)" fill="#a9db1f"/>
        <path id="Trazado_1034544" data-name="Trazado 1034544" d="M48.3,14.379c-.68-3.525,2.624-9.418,2.624-9.418A11.066,11.066,0,0,0,44.139,12.4C43.218,7.914,46.033,1.75,46.033,1.75c-4.417,1.817-5.99,5.713-6.495,8.974a10.861,10.861,0,0,0-6.477-5.329s3.475,5.884,3.753,8.985Z" transform="translate(-24.023 -1.75)" fill="#00a400"/>
        <g id="Grupo_1211967" data-name="Grupo 1211967" transform="translate(3.374 27.631)">
          <path id="Trazado_1034545" data-name="Trazado 1034545" d="M13.438,107.7l.379-2.165,3.6.541,1,1.624L17.2,109.834l-2.246-1.57Z" transform="translate(-13.438 -103.204)" fill="#76625f"/>
          <path id="Trazado_1034546" data-name="Trazado 1034546" d="M39.361,97.469l2.76,1.353-.352,3.126-2.679.8-1.84-2.219Z" transform="translate(-30.376 -97.469)" fill="#76625f"/>
          <path id="Trazado_1034547" data-name="Trazado 1034547" d="M66.046,104.942l-.108-3.311,2.544-1.912,2.381,1.912L69.51,103.21l.108,1.136Z" transform="translate(-50.783 -99.07)" fill="#76625f"/>
          <path id="Trazado_1034548" data-name="Trazado 1034548" d="M93.736,107.707c.081-.027-2.111-1.407-2.111-1.407l2.113-2.761,4.274-.352.217,2.26-2.436.852Z" transform="translate(-69.055 -101.537)" fill="#76625f"/>
        </g>
      </g>
      <g id="Grupo_1211969" data-name="Grupo 1211969" transform="translate(0 0)">
        <path id="Trazado_1034549" data-name="Trazado 1034549" d="M96.521,62.158a.519.519,0,0,0,.084-.007l.837-.14a.505.505,0,1,0-.167-1l-.837.14a.5.5,0,0,0,.083,1Z" transform="translate(-68.298 -43.397)"/>
        <path id="Trazado_1034550" data-name="Trazado 1034550" d="M35.289,12.629H25.221c-.329-3.342,2.594-8.61,2.625-8.666a.5.5,0,0,0-.6-.725,10.962,10.962,0,0,0-6.3,5.779,24.649,24.649,0,0,1,2.032-8.3.505.505,0,0,0-.652-.677,11.041,11.041,0,0,0-6.556,8.105A10.875,10.875,0,0,0,9.673,3.662a.5.5,0,0,0-.564.745c.032.054,3.031,5.16,3.605,8.223H1.66A1.662,1.662,0,0,0,0,14.289V36.443a.505.505,0,0,0,.505.506H36.444a.505.505,0,0,0,.505-.505V14.289a1.662,1.662,0,0,0-1.66-1.66ZM10.637,5.058a10.7,10.7,0,0,1,4.949,4.676.5.5,0,0,0,.936-.177A10.74,10.74,0,0,1,21.547,1.54c-.784,2.068-2.12,6.31-1.42,9.717a.505.505,0,0,0,.975.054,10.891,10.891,0,0,1,5.223-6.6c-.881,1.824-2.329,5.28-2.12,7.916H13.74c-.389-2.362-2.131-5.789-3.1-7.572ZM1.66,13.64h33.63a.65.65,0,0,1,.649.649v2.67H32.962a.505.505,0,0,0,0,1.01h2.977v9.167L34.869,27l-6.784-1.155a.517.517,0,0,0-.108-.006l-3.056.139L21.566,24.49a.5.5,0,0,0-.343-.024l-5.466,1.559L11.74,24.48a.5.5,0,0,0-.423.029L7.592,26.54H1.01V17.912l4.395.7a.5.5,0,0,0,.227-.016l6.08-1.849,5.8-.43,6.594,3.046a.505.505,0,0,0,.424-.917l-6.711-3.1a.508.508,0,0,0-.249-.045l-5.99.444a.5.5,0,0,0-.11.02L5.449,17.6l-4.439-.71v-2.6a.65.65,0,0,1,.649-.649Zm-.649,22.3V27.55H7.722a.506.506,0,0,0,.242-.062L11.6,25.507l3.955,1.522a.5.5,0,0,0,.32.014l5.453-1.556,3.3,1.46a.508.508,0,0,0,.227.042l3.121-.142L34.718,28l1.22.159v7.783Z" transform="translate(0 0)"/>
        <path id="Trazado_1034551" data-name="Trazado 1034551" d="M16.6,104.561a.505.505,0,0,0-.355-.234l-3.6-.542a.5.5,0,0,0-.573.412l-.379,2.165a.505.505,0,0,0,.32.56l1.456.546L15.665,109a.5.5,0,0,0,.728-.164l1.218-2.138a.5.5,0,0,0-.009-.515Zm-.811,3.295L14,106.6a.506.506,0,0,0-.112-.058l-1.123-.421.221-1.266,2.88.433.722,1.169Z" transform="translate(-8.314 -73.822)"/>
        <path id="Trazado_1034552" data-name="Trazado 1034552" d="M41.1,98.381l-1.718-.842a.506.506,0,1,0-.447.907l1.4.686-.275,2.44-2.039.606-1.627-1.963a.506.506,0,1,0-.778.647l1.84,2.219a.506.506,0,0,0,.389.183.493.493,0,0,0,.144-.021l2.679-.8a.5.5,0,0,0,.358-.428l.352-3.126a.5.5,0,0,0-.278-.51Z" transform="translate(-25.249 -69.345)"/>
        <path id="Trazado_1034553" data-name="Trazado 1034553" d="M69.935,99.991l-2.381-1.912a.505.505,0,0,0-.621-.01l-2.544,1.912a.5.5,0,0,0-.2.42l.108,3.311a.5.5,0,0,0,.588.482l3.572-.6a.506.506,0,0,0,.42-.546l-.088-.924L70,100.713a.5.5,0,0,0-.067-.722Zm-2.053,1.645a.5.5,0,0,0-.12.375l.064.668-2.539.423-.081-2.472,2.021-1.518,1.669,1.34Z" transform="translate(-45.658 -69.688)"/>
        <path id="Trazado_1034554" data-name="Trazado 1034554" d="M96.728,101.439l-4.272.352a.5.5,0,0,0-.36.2l-2.113,2.76a.5.5,0,0,0,.132.734c.832.524,1.764,1.128,1.989,1.3a.5.5,0,0,0,.551.16.5.5,0,0,0,.125-.062l2-1.369,2.373-.83a.505.505,0,0,0,.336-.525l-.217-2.26a.506.506,0,0,0-.546-.456Zm-2.345,3.139a.518.518,0,0,0-.118.06l-1.745,1.194c-.281-.2-.722-.481-1.4-.909l1.64-2.143,3.553-.293.131,1.369Z" transform="translate(-63.934 -72.156)"/>
      </g>
    </g>
  </g>
</svg>
