<svg xmlns="http://www.w3.org/2000/svg" width="62.865" height="62.865" viewBox="0 0 62.865 62.865">
  <g id="Grupo_1211971" data-name="Grupo 1211971" transform="translate(-749.766 -11380)">
    <g id="Grupo_1211546" data-name="Grupo 1211546" transform="translate(-18.385 8550)">
      <g id="Grupo_1099341" data-name="Grupo 1099341" transform="translate(768.15 2830)">
        <g id="Rect치ngulo_402588" data-name="Rect치ngulo 402588" transform="translate(0 0)" fill="#efd026" stroke="#fff" stroke-width="5">
          <rect width="62.865" height="62.865" rx="14" stroke="none"/>
          <rect x="2.5" y="2.5" width="57.865" height="57.865" rx="11.5" fill="none"/>
        </g>
      </g>
    </g>
    <g id="Layer_34" data-name="Layer 34" transform="translate(759.601 11390.24)">
      <path id="Trazado_1034555" data-name="Trazado 1034555" d="M17.767,4.875c-.581-.581-1.684-.461-2.734.2C14.76,3.865,14.064,3,13.242,3s-1.517.865-1.792,2.075c-1.05-.662-2.153-.781-2.734-.2-.75.749-.344,2.368.9,3.62s2.871,1.655,3.621.9c.75.75,2.368.344,3.62-.9S18.518,5.624,17.767,4.875Z" transform="translate(-2.283 -0.36)" fill="#e2a7a2"/>
      <path id="Trazado_1034556" data-name="Trazado 1034556" d="M12.84,23.84c0,1.414-.859,2.56-1.92,2.56S9,25.254,9,23.84,9.859,20,10.92,20,12.84,22.426,12.84,23.84Z" transform="translate(-2.52 -6.48)" fill="#e2a7a2"/>
      <path id="Trazado_1034557" data-name="Trazado 1034557" d="M7.48,16h-.6a3.84,3.84,0,0,0-3.565,2.414L3,19.2l1.131-.377a5.12,5.12,0,0,1,1.62-.263H7.48Z" transform="translate(-0.36 -5.04)" fill="#e2a7a2"/>
      <path id="Trazado_1034558" data-name="Trazado 1034558" d="M42.279,14.625V13.48l-4.608,3.456a11.52,11.52,0,0,1-6.912,2.3H28.5a11.52,11.52,0,0,1-10.786-7.475l-.1-.273A3.84,3.84,0,0,0,14.019,9H12.84A3.84,3.84,0,0,0,9,12.84V14.8a5.12,5.12,0,0,0,2.83,4.579l1.01.505-.192,2.2A11.52,11.52,0,0,0,20.24,33.917a5.113,5.113,0,0,0,9.361.356A11.516,11.516,0,0,0,38.439,23.08H41a1.621,1.621,0,0,0-.551-2.074l-.729-.486h2.56v-.075a2.56,2.56,0,0,0-1.751-2.429l-.169-.056.21-.14A3.84,3.84,0,0,0,42.279,14.625Z" transform="translate(-2.52 -2.52)" fill="#f6f2dd"/>
      <path id="Trazado_1034559" data-name="Trazado 1034559" d="M23,31.56v2.56a5.12,5.12,0,0,0,5.12,5.12H29.4a5.12,5.12,0,0,0,5.12-5.12v-.64H35.8a3.84,3.84,0,0,0,3.84-3.84V29H25.56A2.56,2.56,0,0,0,23,31.56Z" transform="translate(-7.56 -9.72)" fill="#e2decf"/>
      <path id="Trazado_1034560" data-name="Trazado 1034560" d="M40.4,10.96a.64.64,0,0,0-1.024-.512L34.767,13.9a10.952,10.952,0,0,1-6.528,2.176H25.983A10.93,10.93,0,0,1,15.8,9.02l-.1-.273a4.4,4.4,0,0,0-.279-.6c1.2-1.459,1.443-3.168.524-4.087a2.5,2.5,0,0,0-2.8-.27A2.5,2.5,0,0,0,10.96,2,2.5,2.5,0,0,0,8.787,3.792a2.5,2.5,0,0,0-2.805.268c-.9.9-.68,2.575.465,4.016A4.445,4.445,0,0,0,5.84,10.32v.064a4.48,4.48,0,0,0-3.48,2.752l-.314.787a.64.64,0,0,0,.595.877.632.632,0,0,0,.2-.033l1.132-.377a4.484,4.484,0,0,1,1.418-.23h.774a5.892,5.892,0,0,0,.247.611A7.216,7.216,0,0,0,5.84,17.36c0,1.764,1.148,3.2,2.56,3.2a2.122,2.122,0,0,0,1.057-.293A12.16,12.16,0,0,0,17.239,31.9,5.792,5.792,0,0,0,18,33.123v3.552l-2.688.537.251,1.254L18.6,37.86l1.759.586.4-1.216-1.48-.492V34.306a5.717,5.717,0,0,0,2.56.925v3.362l-2.688.537.251,1.254,3.034-.607,1.759.586.4-1.216-1.48-.49V35.236a5.7,5.7,0,0,0,4.4-2.933,12.109,12.109,0,0,0,9.026-11.1h1.936a.64.64,0,0,0,.576-.354,2.266,2.266,0,0,0-.108-2.206h.812A.64.64,0,0,0,40.4,18v-.075a3.2,3.2,0,0,0-1.352-2.613A4.472,4.472,0,0,0,40.4,12.1ZM6.887,4.967c.332-.333,1.148-.21,1.94.289a.64.64,0,0,0,.966-.4c.207-.913.7-1.576,1.167-1.576s.96.663,1.167,1.576a.64.64,0,0,0,.966.4c.792-.5,1.608-.623,1.94-.289s.221,1.242-.422,2.141A4.489,4.489,0,0,0,11.5,5.84H10.32A4.459,4.459,0,0,0,7.268,7.049C6.664,6.169,6.557,5.3,6.887,4.967Zm-1.5,7.913a5.73,5.73,0,0,0-1.583.222A3.206,3.206,0,0,1,5.84,11.678v.6a5.9,5.9,0,0,0,.042.6ZM8.4,19.28c-.694,0-1.28-.879-1.28-1.92a5.2,5.2,0,0,1,.189-1.252,5.76,5.76,0,0,0,1.715,1.32l.621.311-.006.073C9.5,18.64,8.99,19.28,8.4,19.28Zm29.294-4.513-.21.14a.64.64,0,0,0,.154,1.14l.168.056a1.92,1.92,0,0,1,1.229,1.257H37.2a.64.64,0,0,0-.355,1.172l.73.486a.984.984,0,0,1,.433.9H35.919a.64.64,0,0,0-.64.64A10.834,10.834,0,0,1,26.932,31.13a.64.64,0,0,0-.427.342,4.473,4.473,0,0,1-8.192-.311.64.64,0,0,0-.379-.367,10.883,10.883,0,0,1-7.167-11.177l.186-2.257a.636.636,0,0,0-.348-.573l-1.01-.5A4.454,4.454,0,0,1,7.12,12.276V10.32a3.2,3.2,0,0,1,3.2-3.2H11.5a3.213,3.213,0,0,1,3,2.077l.1.273a12.216,12.216,0,0,0,11.385,7.89h2.257a12.236,12.236,0,0,0,7.3-2.432l3.584-2.688a3.193,3.193,0,0,1-1.425,2.527Z"/>
      <rect id="Rect치ngulo_408849" data-name="Rect치ngulo 408849" width="1.28" height="1.28" transform="translate(8.4 9.68)"/>
      <path id="Trazado_1034561" data-name="Trazado 1034561" d="M39.28,28H28.4v1.28H38.64a3.2,3.2,0,0,1-3.2,3.2H30.96v1.28h2.56a4.486,4.486,0,0,1-4.48,4.48H27.76a4.486,4.486,0,0,1-4.48-4.48H22a5.766,5.766,0,0,0,5.76,5.76h1.28a5.766,5.766,0,0,0,5.76-5.76h.64a4.486,4.486,0,0,0,4.48-4.48v-.64A.64.64,0,0,0,39.28,28Z" transform="translate(-7.2 -9.36)"/>
    </g>
  </g>
</svg>
