<svg xmlns="http://www.w3.org/2000/svg" width="62.865" height="62.865" viewBox="0 0 62.865 62.865">
  <g id="Grupo_1211977" data-name="Grupo 1211977" transform="translate(-999.701 -11380.298)">
    <g id="Grupo_1211547" data-name="Grupo 1211547" transform="translate(-11.449 8550)">
      <g id="Grupo_1099341" data-name="Grupo 1099341" transform="translate(1011.15 2830.298)">
        <g id="Rectángulo_402588" data-name="Rectángulo 402588" transform="translate(0 0)" fill="#efd026" stroke="#fff" stroke-width="5">
          <rect width="62.865" height="62.865" rx="14" stroke="none"/>
          <rect x="2.5" y="2.5" width="57.865" height="57.865" rx="11.5" fill="none"/>
        </g>
      </g>
    </g>
    <g id="no-cage_8418323" transform="translate(1005.383 11358.646)">
      <g id="Grupo_1211972" data-name="Grupo 1211972" transform="translate(7.5 37)">
        <path id="Trazado_1034562" data-name="Trazado 1034562" d="M43.561,39.938H7.941A.441.441,0,0,1,7.5,39.5V37.441A.441.441,0,0,1,7.941,37h35.62a.441.441,0,0,1,.441.441V39.5A.441.441,0,0,1,43.561,39.938Z" transform="translate(-7.5 -37)" fill="#d77f4a"/>
        <path id="Trazado_1034563" data-name="Trazado 1034563" d="M43.561,437.938H7.941A.441.441,0,0,1,7.5,437.5v-2.056A.441.441,0,0,1,7.941,435h35.62a.441.441,0,0,1,.441.441V437.5A.441.441,0,0,1,43.561,437.938Z" transform="translate(-7.5 -405.769)" fill="#d77f4a"/>
        <path id="Trazado_1034564" data-name="Trazado 1034564" d="M470.7,435h-2.2a.441.441,0,0,1,.441.441V437.5a.441.441,0,0,1-.441.441h2.2a.441.441,0,0,0,.441-.441v-2.056A.441.441,0,0,0,470.7,435Z" transform="translate(-434.642 -405.769)" fill="#c86d36"/>
      </g>
      <path id="Trazado_1034565" data-name="Trazado 1034565" d="M470.7,37h-2.2a.441.441,0,0,1,.441.441V39.5a.441.441,0,0,1-.441.441h2.2a.441.441,0,0,0,.441-.441V37.441A.441.441,0,0,0,470.7,37Z" transform="translate(-427.142)" fill="#c86d36"/>
      <g id="Grupo_1211973" data-name="Grupo 1211973" transform="translate(9.928 39.938)">
        <rect id="Rectángulo_408850" data-name="Rectángulo 408850" width="2.35" height="26.293" transform="translate(0 0)" fill="#c5d3dd"/>
        <rect id="Rectángulo_408851" data-name="Rectángulo 408851" width="2.35" height="26.293" transform="translate(5.859 0)" fill="#c5d3dd"/>
        <rect id="Rectángulo_408852" data-name="Rectángulo 408852" width="2.35" height="26.293" transform="translate(11.718 0)" fill="#c5d3dd"/>
        <rect id="Rectángulo_408853" data-name="Rectángulo 408853" width="2.35" height="26.293" transform="translate(17.577 0)" fill="#c5d3dd"/>
        <rect id="Rectángulo_408854" data-name="Rectángulo 408854" width="2.35" height="26.293" transform="translate(23.437 0)" fill="#c5d3dd"/>
        <rect id="Rectángulo_408855" data-name="Rectángulo 408855" width="2.35" height="26.293" transform="translate(29.296 0)" fill="#c5d3dd"/>
      </g>
      <path id="Trazado_1034566" data-name="Trazado 1034566" d="M191.4,192.017h-9.793A.612.612,0,0,1,181,191.4v-9.793a.612.612,0,0,1,.612-.612H191.4a.612.612,0,0,1,.612.612V191.4A.612.612,0,0,1,191.4,192.017Z" transform="translate(-160.757 -133.424)" fill="#ffead8"/>
      <path id="Trazado_1034567" data-name="Trazado 1034567" d="M294.87,181h-2.2a.612.612,0,0,1,.612.612V191.4a.612.612,0,0,1-.612.612h2.2a.612.612,0,0,0,.612-.612v-9.792A.612.612,0,0,0,294.87,181Z" transform="translate(-264.223 -133.424)" fill="#ffd1be"/>
      <path id="Trazado_1034568" data-name="Trazado 1034568" d="M215.115,213.557l1.484-1.484a1.1,1.1,0,1,0-1.558-1.558L213.557,212l-1.484-1.484a1.1,1.1,0,1,0-1.558,1.558L212,213.557l-1.484,1.484a1.1,1.1,0,1,0,1.558,1.558l1.484-1.484,1.484,1.484a1.1,1.1,0,1,0,1.558-1.558Z" transform="translate(-187.806 -160.473)" fill="#fd4755"/>
      <g id="Grupo_1211976" data-name="Grupo 1211976" transform="translate(7.5 37)">
        <g id="Grupo_1211974" data-name="Grupo 1211974" transform="translate(0 0)">
          <path id="Trazado_1034569" data-name="Trazado 1034569" d="M14.008,37H43.561a.441.441,0,0,1,.441.441V39.5a.441.441,0,0,1-.441.441H7.941A.441.441,0,0,1,7.5,39.5V37.441A.441.441,0,0,1,7.941,37H11.4" transform="translate(-7.5 -37)" fill="none" stroke="#000" stroke-linecap="round" stroke-linejoin="round" stroke-miterlimit="10" stroke-width="1"/>
          <path id="Trazado_1034570" data-name="Trazado 1034570" d="M43.561,437.938H7.941A.441.441,0,0,1,7.5,437.5v-2.056A.441.441,0,0,1,7.941,435h35.62a.441.441,0,0,1,.441.441V437.5A.441.441,0,0,1,43.561,437.938Z" transform="translate(-7.5 -405.769)" fill="none" stroke="#000" stroke-linecap="round" stroke-linejoin="round" stroke-miterlimit="10" stroke-width="1"/>
        </g>
        <g id="Grupo_1211975" data-name="Grupo 1211975" transform="translate(2.428 2.938)">
          <rect id="Rectángulo_408856" data-name="Rectángulo 408856" width="2.35" height="26.293" fill="none" stroke="#000" stroke-linecap="round" stroke-linejoin="round" stroke-miterlimit="10" stroke-width="1"/>
          <rect id="Rectángulo_408857" data-name="Rectángulo 408857" width="2.35" height="26.293" transform="translate(5.859)" fill="none" stroke="#000" stroke-linecap="round" stroke-linejoin="round" stroke-miterlimit="10" stroke-width="1"/>
          <path id="Trazado_1034571" data-name="Trazado 1034571" d="M200.11,84.494V77h2.35v7.494" transform="translate(-188.392 -77)" fill="none" stroke="#000" stroke-linecap="round" stroke-linejoin="round" stroke-miterlimit="10" stroke-width="1"/>
          <path id="Trazado_1034572" data-name="Trazado 1034572" d="M202.46,331v7.638h-2.35V331" transform="translate(-188.392 -312.345)" fill="none" stroke="#000" stroke-linecap="round" stroke-linejoin="round" stroke-miterlimit="10" stroke-width="1"/>
          <path id="Trazado_1034573" data-name="Trazado 1034573" d="M282.24,84.494V77h-2.35v7.494" transform="translate(-262.313 -77)" fill="none" stroke="#000" stroke-linecap="round" stroke-linejoin="round" stroke-miterlimit="10" stroke-width="1"/>
          <path id="Trazado_1034574" data-name="Trazado 1034574" d="M279.89,331v7.638h2.35V331" transform="translate(-262.313 -312.345)" fill="none" stroke="#000" stroke-linecap="round" stroke-linejoin="round" stroke-miterlimit="10" stroke-width="1"/>
          <rect id="Rectángulo_408858" data-name="Rectángulo 408858" width="2.35" height="26.293" transform="translate(23.437)" fill="none" stroke="#000" stroke-linecap="round" stroke-linejoin="round" stroke-miterlimit="10" stroke-width="1"/>
          <path id="Trazado_1034575" data-name="Trazado 1034575" d="M441.792,101.481v1.812h-2.35V77h2.35V98.834" transform="translate(-410.146 -77)" fill="none" stroke="#000" stroke-linecap="round" stroke-linejoin="round" stroke-miterlimit="10" stroke-width="1"/>
        </g>
        <path id="Trazado_1034576" data-name="Trazado 1034576" d="M191.4,192.017h-9.793A.612.612,0,0,1,181,191.4v-9.793a.612.612,0,0,1,.612-.612H191.4a.612.612,0,0,1,.612.612V191.4A.612.612,0,0,1,191.4,192.017Z" transform="translate(-168.257 -170.424)" fill="none" stroke="#000" stroke-linecap="round" stroke-linejoin="round" stroke-miterlimit="10" stroke-width="1"/>
        <path id="Trazado_1034577" data-name="Trazado 1034577" d="M215.115,213.557l1.484-1.484a1.1,1.1,0,1,0-1.558-1.558L213.557,212l-1.484-1.484a1.1,1.1,0,1,0-1.558,1.558L212,213.557l-1.484,1.484a1.1,1.1,0,1,0,1.558,1.558l1.484-1.484,1.484,1.484a1.1,1.1,0,1,0,1.558-1.558Z" transform="translate(-195.306 -197.473)" fill="none" stroke="#000" stroke-linecap="round" stroke-linejoin="round" stroke-miterlimit="10" stroke-width="1"/>
      </g>
    </g>
  </g>
</svg>
