<svg xmlns="http://www.w3.org/2000/svg" width="62.865" height="62.865" viewBox="0 0 62.865 62.865">
  <g id="Grupo_1211986" data-name="Grupo 1211986" transform="translate(-1267 -11380)">
    <g id="Grupo_1211548" data-name="Grupo 1211548" transform="translate(-9.15 8550)">
      <g id="Grupo_1099341" data-name="Grupo 1099341" transform="translate(1276.15 2830)">
        <g id="Rectángulo_402588" data-name="Rectángulo 402588" transform="translate(0 0)" fill="#efd026" stroke="#fff" stroke-width="5">
          <rect width="62.865" height="62.865" rx="14" stroke="none"/>
          <rect x="2.5" y="2.5" width="57.865" height="57.865" rx="11.5" fill="none"/>
        </g>
      </g>
    </g>
    <g id="viento" transform="translate(1278.841 11391.911)">
      <g id="Grupo_1211984" data-name="Grupo 1211984" transform="translate(1 1.597)">
        <g id="Grupo_1211978" data-name="Grupo 1211978" transform="translate(0 10.754)">
          <path id="Trazado_1034578" data-name="Trazado 1034578" d="M27.288,33.144A6.561,6.561,0,0,1,22.1,30.611c-1.189-2.2-1.386-3.1-1.386-4.039,0-.215.012-.43.03-.639h.006A6.57,6.57,0,0,1,27.288,20h1.195A8.962,8.962,0,0,1,33.86,36.131a18.539,18.539,0,0,1-7.169,1.792H1v-2.39H9.054v-.006a1.788,1.788,0,0,0,.7-.185l2-1-2-1a1.876,1.876,0,0,0-.824-.191Z" transform="translate(-1 -20)" fill="#ccd1d9"/>
        </g>
        <g id="Grupo_1211979" data-name="Grupo 1211979" transform="translate(0.597 8.364)">
          <path id="Trazado_1034579" data-name="Trazado 1034579" d="M21.119,24.962c0,.938.2,1.834,1.386,4.039l-.185.143H8.572A6.572,6.572,0,0,1,8.572,16H9.767a4.157,4.157,0,0,1,2.957,1.225,4.214,4.214,0,0,1,1.225,2.957,4.179,4.179,0,0,1-4.182,4.182l11.382-.042c-.018.209-.03.424-.03.639Z" transform="translate(-2 -16)" fill="#e6e9ed"/>
        </g>
        <g id="Grupo_1211980" data-name="Grupo 1211980" transform="translate(7.169 0)">
          <path id="Trazado_1034580" data-name="Trazado 1034580" d="M13,4.39l.263-.52A3.367,3.367,0,0,1,16.286,2a4.913,4.913,0,0,1,2.736.83L21.364,4.39,19.022,5.949a4.913,4.913,0,0,1-2.736.83,3.353,3.353,0,0,1-3.023-1.87Z" transform="translate(-13 -2)" fill="#b4dd7f"/>
        </g>
        <g id="Grupo_1211981" data-name="Grupo 1211981" transform="translate(10.157 31.068)">
          <path id="Trazado_1034581" data-name="Trazado 1034581" d="M23.975,55.792,22.32,57.035a2.756,2.756,0,0,1-3.943-.675L18,55.792l.376-.568a2.756,2.756,0,0,1,3.943-.675Z" transform="translate(-18 -54)" fill="#b4dd7f"/>
        </g>
        <g id="Grupo_1211982" data-name="Grupo 1211982" transform="translate(5.975 23.898)">
          <path id="Trazado_1034582" data-name="Trazado 1034582" d="M15.78,43.195l-2,1a1.788,1.788,0,0,1-.7.185.882.882,0,0,1-.125.006,1.832,1.832,0,0,1-1.3-.538L11,43.195l.657-.657a1.832,1.832,0,0,1,1.3-.538,1.876,1.876,0,0,1,.824.191Z" transform="translate(-11 -42)" fill="#a0d468"/>
        </g>
        <g id="Grupo_1211983" data-name="Grupo 1211983" transform="translate(31.068 7.169)">
          <path id="Trazado_1034583" data-name="Trazado 1034583" d="M57.78,15.195l-2,1a1.876,1.876,0,0,1-.824.191,1.832,1.832,0,0,1-1.3-.538L53,15.195l.657-.657a1.832,1.832,0,0,1,1.3-.538,1.876,1.876,0,0,1,.824.191Z" transform="translate(-53 -14)" fill="#a0d468"/>
        </g>
      </g>
      <g id="Grupo_1211985" data-name="Grupo 1211985" transform="translate(1 1)">
        <path id="Trazado_1034584" data-name="Trazado 1034584" d="M40.559,36.144H31v1.195h9.559a7.169,7.169,0,1,0,0-14.339H39.364a4.78,4.78,0,1,0,0,9.559h1.792a2.987,2.987,0,0,0,0-5.975H39.962a1.792,1.792,0,0,0,0,3.585h1.792V28.975H39.962a.6.6,0,0,1,0-1.195h1.195a1.792,1.792,0,0,1,0,3.585H39.364a3.585,3.585,0,1,1,0-7.169h1.195a5.975,5.975,0,1,1,0,11.949Z" transform="translate(-13.076 -9.856)"/>
        <path id="Trazado_1034585" data-name="Trazado 1034585" d="M1,49H6.975v1.195H1Z" transform="translate(-1 -20.322)"/>
        <path id="Trazado_1034586" data-name="Trazado 1034586" d="M15,49h2.39v1.195H15Z" transform="translate(-6.636 -20.322)"/>
        <path id="Trazado_1034587" data-name="Trazado 1034587" d="M40.326,49H23v1.195H40.326a2.987,2.987,0,1,1,0,5.975h-.6a1.792,1.792,0,0,1,0-3.585.6.6,0,0,1,0,1.195h-.6v1.195h.6a1.792,1.792,0,1,0,0-3.585,2.987,2.987,0,0,0,0,5.975h.6a4.182,4.182,0,0,0,0-8.364Z" transform="translate(-9.856 -20.322)"/>
        <path id="Trazado_1034588" data-name="Trazado 1034588" d="M18.655,53a3.342,3.342,0,0,0-2.787,1.491l-.2.3H13v1.195h2.668l.2.3a3.349,3.349,0,0,0,4.8.822l2.294-1.72-2.293-1.72A3.372,3.372,0,0,0,18.655,53Zm1.292,3.154a2.154,2.154,0,0,1-3.085-.528l-.157-.236.157-.236a2.154,2.154,0,0,1,3.085-.528l1.019.764Z" transform="translate(-5.831 -21.932)"/>
        <path id="Trazado_1034589" data-name="Trazado 1034589" d="M10.311,4.775a3.956,3.956,0,0,0,3.558,2.2,5.52,5.52,0,0,0,3.071-.93l3.086-2.058L16.94,1.93A5.518,5.518,0,0,0,13.869,1a3.957,3.957,0,0,0-3.558,2.2l-.095.191H7V4.585h3.216ZM11.38,3.733a2.768,2.768,0,0,1,2.489-1.538,4.331,4.331,0,0,1,2.408.729l1.595,1.063L16.277,5.051a4.328,4.328,0,0,1-2.408.729,2.768,2.768,0,0,1-2.49-1.538l-.127-.254Z" transform="translate(-3.415 -1)"/>
        <path id="Trazado_1034590" data-name="Trazado 1034590" d="M11.63,44.336,14.7,42.8l-3.071-1.536a2.5,2.5,0,0,0-2.81.457l-.482.482H5V43.4H8.337l.482.482a2.437,2.437,0,0,0,2.811.456ZM9.43,42.8l.234-.235a1.276,1.276,0,0,1,1.432-.232l.934.467-.933.466a1.271,1.271,0,0,1-1.432-.232Z" transform="translate(-2.61 -17.11)"/>
        <path id="Trazado_1034591" data-name="Trazado 1034591" d="M28.483,13.364H27.272a6.017,6.017,0,0,0,1.2-1.2H31.82l.482.482a2.436,2.436,0,0,0,2.811.456l3.07-1.535-3.071-1.535a2.494,2.494,0,0,0-2.81.456l-.482.482H29.175a5.932,5.932,0,0,0,.5-2.39,3.585,3.585,0,1,0-7.169,0,2.39,2.39,0,0,0,4.78,0H26.093a1.195,1.195,0,1,1-2.39,0,2.39,2.39,0,0,1,4.78,0,4.785,4.785,0,0,1-4.78,4.78H13.5a4.779,4.779,0,0,0-4.133-2.39H8.169a7.169,7.169,0,0,0,0,14.339h9.559V24.119H8.169a5.975,5.975,0,0,1,0-11.949H9.364a3.585,3.585,0,1,1,0,7.169H7.572a1.792,1.792,0,0,1,0-3.585H8.767a.6.6,0,0,1,0,1.195H6.975v1.195H8.767a1.792,1.792,0,1,0,0-3.585H7.572a2.987,2.987,0,0,0,0,5.975H9.364a4.761,4.761,0,0,0,4.623-5.975h9.347a7.086,7.086,0,0,0-3.107,7.169H10.559v1.195h9.978a7.176,7.176,0,0,0,6.751,4.78h1.195V26.508H27.288a5.975,5.975,0,0,1,0-11.949h1.195A8.365,8.365,0,0,1,33.5,29.615l.718.956a9.56,9.56,0,0,0-5.737-17.207Zm4.664-2.027a1.271,1.271,0,0,1,1.431-.232l.933.467-.933.467a1.268,1.268,0,0,1-1.431-.232l-.234-.234Z" transform="translate(-1 -2.61)"/>
        <path id="Trazado_1034592" data-name="Trazado 1034592" d="M25,15h5.975v1.195H25Z" transform="translate(-10.661 -6.636)"/>
      </g>
    </g>
  </g>
</svg>
