<svg xmlns="http://www.w3.org/2000/svg" xmlns:xlink="http://www.w3.org/1999/xlink" width="118" height="118" viewBox="0 0 118 118">
  <defs>
    <filter id="Trazado_896985" x="0" y="0" width="118" height="118" filterUnits="userSpaceOnUse">
      <feOffset dy="3" input="SourceAlpha"/>
      <feGaussianBlur stdDeviation="3" result="blur"/>
      <feFlood flood-opacity="0.161"/>
      <feComposite operator="in" in2="blur"/>
      <feComposite in="SourceGraphic"/>
    </filter>
  </defs>
  <g id="Grupo_1213647" data-name="Grupo 1213647" transform="translate(-196.891 -3922.662)">
    <g id="Grupo_1211772" data-name="Grupo 1211772" transform="translate(-0.949 -356.227)">
      <g id="Grupo_1198723" data-name="Grupo 1198723" transform="translate(0.95 -182.434)">
        <g id="Grupo_1198139" data-name="Grupo 1198139" transform="translate(-129 615.322)">
          <g id="Grupo_1111318" data-name="Grupo 1111318" transform="translate(334.891 3852)">
            <g id="Grupo_1109826" data-name="Grupo 1109826" transform="translate(0)">
              <g id="Grupo_1098742" data-name="Grupo 1098742" transform="translate(0 0)">
                <g transform="matrix(1, 0, 0, 1, -9, -6)" filter="url(#Trazado_896985)">
                  <g id="Trazado_896985-2" data-name="Trazado 896985" transform="translate(9 6)" fill="#efd026" opacity="0.859">
                    <path d="M 49.99993515014648 99.5 C 43.31726837158203 99.5 36.83476257324219 98.19129943847656 30.73248100280762 95.61025238037109 C 24.83812141418457 93.11714172363281 19.54434776306152 89.54795837402344 14.99820137023926 85.00179290771484 C 10.45204162597656 80.45565032958984 6.88285493850708 75.16187286376953 4.389748573303223 69.26751708984375 C 1.808695197105408 63.16523742675781 0.5000017881393433 56.6827278137207 0.5000017881393433 50.00006103515625 C 0.5000017881393433 43.31726455688477 1.808695197105408 36.83475494384766 4.389748573303223 30.73247528076172 C 6.88285493850708 24.83811569213867 10.45204162597656 19.54434204101562 14.99820137023926 14.99819660186768 C 19.54434776306152 10.45203590393066 24.83812141418457 6.88284969329834 30.73248100280762 4.389742851257324 C 36.83476257324219 1.808689475059509 43.31726837158203 0.4999961853027344 49.99993515014648 0.4999961853027344 C 56.68260192871094 0.4999961853027344 63.16510772705078 1.808689475059509 69.26738739013672 4.389742851257324 C 75.16175079345703 6.88284969329834 80.45552062988281 10.45203590393066 85.00167083740234 14.99819660186768 C 89.54782867431641 19.54434204101562 93.11701202392578 24.83811569213867 95.61012268066406 30.73247528076172 C 98.19117736816406 36.83475494384766 99.49987030029297 43.31726455688477 99.49987030029297 49.99993133544922 C 99.49987030029297 56.6827278137207 98.19117736816406 63.16523742675781 95.61012268066406 69.26751708984375 C 93.11701202392578 75.16187286376953 89.54782867431641 80.45565032958984 85.00167083740234 85.00179290771484 C 80.45552062988281 89.54795837402344 75.16175079345703 93.11714172363281 69.26738739013672 95.61025238037109 C 63.16510772705078 98.19129943847656 56.68260192871094 99.5 49.99993515014648 99.5 Z" stroke="none"/>
                    <path d="M 49.99993515014648 0.9999923706054688 C 43.38454818725586 0.9999923706054688 36.96757507324219 2.29541015625 30.92725372314453 4.850250244140625 C 25.09249877929688 7.318145751953125 19.85213470458984 10.85135650634766 15.35174560546875 15.35174560546875 C 10.85136413574219 19.85212707519531 7.318145751953125 25.09249114990234 4.850257873535156 30.92724609375 C 2.295417785644531 36.96757125854492 1 43.38454437255859 1 50.00006103515625 C 1 56.61544799804688 2.295417785644531 63.03242111206055 4.850257873535156 69.07273864746094 C 7.318145751953125 74.90750122070312 10.85136413574219 80.14786529541016 15.35174560546875 84.64824676513672 C 19.85213470458984 89.14863586425781 25.09249877929688 92.68184661865234 30.92725372314453 95.14974212646484 C 36.96757507324219 97.70458221435547 43.38454818725586 99 49.99993515014648 99 C 56.61532211303711 99 63.03229522705078 97.70458221435547 69.07261657714844 95.14974212646484 C 74.90737915039062 92.68184661865234 80.14773559570312 89.14863586425781 84.64812469482422 84.64824676513672 C 89.14850616455078 80.14786529541016 92.68172454833984 74.90750122070312 95.14961242675781 69.07273864746094 C 97.70445251464844 63.03242111206055 98.99987030029297 56.61544799804688 98.99987030029297 49.99993133544922 C 98.99987030029297 43.38454437255859 97.70445251464844 36.96757125854492 95.14961242675781 30.92724609375 C 92.68172454833984 25.09249114990234 89.14850616455078 19.85212707519531 84.64812469482422 15.35174560546875 C 80.14773559570312 10.85135650634766 74.90737915039062 7.318145751953125 69.07261657714844 4.850250244140625 C 63.03229522705078 2.29541015625 56.61532211303711 0.9999923706054688 49.99993515014648 0.9999923706054688 M 49.99993515014648 -7.62939453125e-06 C 77.6141357421875 -7.62939453125e-06 99.99987030029297 22.38572692871094 99.99987030029297 49.99993133544922 L 99.99987030029297 50.00006103515625 C 99.99987030029297 77.61426544189453 77.6141357421875 100 49.99993515014648 100 C 22.38573455810547 100 0 77.61426544189453 0 50.00006103515625 L 0 49.99993133544922 C 0 22.38572692871094 22.38573455810547 -7.62939453125e-06 49.99993515014648 -7.62939453125e-06 Z" stroke="none" fill="#fff"/>
                  </g>
                </g>
                <g id="Rectángulo_400907" data-name="Rectángulo 400907" transform="translate(0)" fill="none" stroke="#fff" stroke-width="1">
                  <rect width="100" height="100" rx="50" stroke="none"/>
                  <rect x="0.5" y="0.5" width="99" height="99" rx="49.5" fill="none"/>
                </g>
              </g>
            </g>
          </g>
        </g>
      </g>
    </g>
    <g id="Page-1" transform="translate(223.884 3948.79)">
      <g id="_061---Delivery-Alert" data-name="061---Delivery-Alert" transform="translate(0 0)">
        <path id="Shape" d="M7.977,45a6.328,6.328,0,0,0-1.643,4.268h-3.2a2.086,2.086,0,0,1-1.5-.629A2.086,2.086,0,0,1,1,47.134,2.14,2.14,0,0,1,3.134,45Z" transform="translate(0.067 3.01)" fill="#607d8b"/>
        <path id="Shape-2" data-name="Shape" d="M59.437,47.134A2.14,2.14,0,0,1,57.3,49.268H54.1A6.328,6.328,0,0,0,52.46,45H57.3A2.15,2.15,0,0,1,59.437,47.134Z" transform="translate(3.509 3.01)" fill="#607d8b"/>
        <path id="Shape-3" data-name="Shape" d="M45.351,45a6.328,6.328,0,0,0-1.643,4.268H18.1A6.328,6.328,0,0,0,16.46,45Z" transform="translate(1.101 3.01)" fill="#607d8b"/>
        <path id="Shape-4" data-name="Shape" d="M54.8,49.4A6.4,6.4,0,1,1,48.4,43,6.4,6.4,0,0,1,54.8,49.4Z" transform="translate(2.81 2.876)" fill="#7f8e94"/>
        <path id="Shape-5" data-name="Shape" d="M52.859,45.134a6.333,6.333,0,0,0-6.359-1.92,6.388,6.388,0,0,1,0,12.376,6.389,6.389,0,0,0,6.359-10.456Z" transform="translate(3.111 2.876)" fill="#545c60"/>
        <path id="Shape-6" data-name="Shape" d="M18.8,49.4a6.417,6.417,0,1,1-1.643-4.268A6.328,6.328,0,0,1,18.8,49.4Z" transform="translate(0.401 2.876)" fill="#7f8e94"/>
        <path id="Shape-7" data-name="Shape" d="M16.859,45.134a6.333,6.333,0,0,0-6.359-1.92,6.388,6.388,0,0,1,0,12.376,6.389,6.389,0,0,0,6.359-10.456Z" transform="translate(0.702 2.876)" fill="#545c60"/>
        <path id="Shape-8" data-name="Shape" d="M58.338,33.268v12.8H53.494a6.373,6.373,0,0,0-9.517,0H37V29H50.87v2.134A2.14,2.14,0,0,0,53,33.268Z" transform="translate(2.475 1.94)" fill="#ffdf00"/>
        <path id="Rectangle-path" d="M54,33h3.2V45.8H54Z" transform="translate(3.612 2.207)" fill="#fec108"/>
        <path id="Shape-9" data-name="Shape" d="M57.468,32.2v1.067H52.134A2.14,2.14,0,0,1,50,31.134V29h4.268A3.2,3.2,0,0,1,57.468,32.2Z" transform="translate(3.345 1.94)" fill="#ff9801"/>
        <path id="Shape-10" data-name="Shape" d="M51.937,29.937H37V15h8.29a4.278,4.278,0,0,1,4.172,3.371Z" transform="translate(2.475 1.003)" fill="#02a9f4"/>
        <path id="Shape-11" data-name="Shape" d="M49.142,18.371A4.278,4.278,0,0,0,44.971,15h-3.2a4.278,4.278,0,0,1,4.172,3.371l2.475,11.565h3.2Z" transform="translate(2.794 1.003)" fill="#0377bc"/>
        <path id="Shape-12" data-name="Shape" d="M39.274,13.268V47.408H17.36a6.373,6.373,0,0,0-9.517,0H3V13.268A4.268,4.268,0,0,1,7.268,9H35.007A4.268,4.268,0,0,1,39.274,13.268Z" transform="translate(0.201 0.602)" fill="#ffeb3a"/>
        <circle id="Oval" cx="13.87" cy="13.87" r="13.87" transform="translate(7.468 1.067)" fill="#f44335"/>
        <path id="Shape-13" data-name="Shape" d="M20.1,1a13.9,13.9,0,0,0-1.6.1,13.862,13.862,0,0,1,0,27.541A13.87,13.87,0,1,0,20.1,1Z" transform="translate(1.238 0.067)" fill="#c81e1e"/>
        <circle id="Oval-2" data-name="Oval" cx="2.134" cy="2.134" r="2.134" transform="translate(19.204 20.271)" fill="#f5f5f5"/>
        <rect id="Rectangle-path-2" data-name="Rectangle-path" width="4.268" height="10.669" rx="2" transform="translate(19.204 5.334)" fill="#f5f5f5"/>
        <g id="Grupo_1213646" data-name="Grupo 1213646">
          <path id="Shape-14" data-name="Shape" d="M61.88,47.137v-13a4.268,4.268,0,0,0-4.268-4.268H55.275l-2.3-10.72a5.361,5.361,0,0,0-5.216-4.216H40.542V13.87a5.341,5.341,0,0,0-5.334-5.334h-.395a14.9,14.9,0,0,0-26.95,0H7.468A5.341,5.341,0,0,0,2.134,13.87V47.14a3.2,3.2,0,0,0-2.134,3,3.12,3.12,0,0,0,.932,2.248,3.131,3.131,0,0,0,2.268.953H5.42a7.459,7.459,0,0,0,14.766,0H43.828a7.459,7.459,0,0,0,14.766,0h2.219a3.194,3.194,0,0,0,1.067-6.207Zm-5.453-.194a7.443,7.443,0,0,0-10.432,0H40.542V32.007H52.278v1.067a3.2,3.2,0,0,0,3.2,3.2h4.268v2.134H58.679a1.067,1.067,0,1,0,0,2.134h1.067v6.4ZM19.54,49.077H44.473a7.4,7.4,0,0,0-.645,2.134H20.186A7.4,7.4,0,0,0,19.54,49.077ZM59.746,34.141H55.479a1.067,1.067,0,0,1-1.067-1.067V32.007h3.2A2.134,2.134,0,0,1,59.746,34.141ZM47.761,17.07a3.218,3.218,0,0,1,3.13,2.531l2.2,10.272H40.542V17.07ZM21.338,2.134a12.8,12.8,0,1,1-12.8,12.8A12.8,12.8,0,0,1,21.338,2.134ZM4.268,13.87a3.2,3.2,0,0,1,2.752-3.155,14.937,14.937,0,1,0,28.638,0,3.2,3.2,0,0,1,2.752,3.155V46.943H18.019a7.443,7.443,0,0,0-10.432,0H4.268ZM2.441,50.884a1.021,1.021,0,0,1-.307-.74A1.067,1.067,0,0,1,3.2,49.077H6.065a7.4,7.4,0,0,0-.64,2.134H3.2A1.043,1.043,0,0,1,2.441,50.884ZM12.8,57.612a5.334,5.334,0,1,1,5.334-5.334A5.334,5.334,0,0,1,12.8,57.612Zm38.408,0a5.334,5.334,0,1,1,5.334-5.334A5.334,5.334,0,0,1,51.211,57.612Zm9.6-6.4H58.594a7.4,7.4,0,0,0-.645-2.134h2.865a1.043,1.043,0,0,1,.76.326,1.021,1.021,0,0,1,.307.74,1.067,1.067,0,0,1-1.067,1.067Z" transform="translate(0 0)"/>
          <path id="Shape-15" data-name="Shape" d="M42.2,33H40.067a1.067,1.067,0,0,0,0,2.134H42.2A1.067,1.067,0,0,0,42.2,33Z" transform="translate(2.609 2.207)"/>
          <path id="Shape-16" data-name="Shape" d="M20.2,24.4A3.2,3.2,0,1,0,17,21.2,3.2,3.2,0,0,0,20.2,24.4Zm0-4.268A1.067,1.067,0,1,1,19.134,21.2,1.067,1.067,0,0,1,20.2,20.134Z" transform="translate(1.137 1.204)"/>
          <path id="Shape-17" data-name="Shape" d="M20.2,16.8a3.2,3.2,0,0,0,3.2-3.2V7.2a3.2,3.2,0,1,0-6.4,0v6.4A3.2,3.2,0,0,0,20.2,16.8ZM19.134,7.2a1.067,1.067,0,0,1,2.134,0v6.4a1.067,1.067,0,0,1-2.134,0Z" transform="translate(1.137 0.267)"/>
        </g>
      </g>
    </g>
  </g>
</svg>
