<svg xmlns="http://www.w3.org/2000/svg" width="86.369" height="86.369" viewBox="0 0 86.369 86.369">
  <g id="Grupo_1211700" data-name="Grupo 1211700" transform="translate(0 0)">
    <g id="Grupo_1099347" data-name="Grupo 1099347" transform="translate(0 0)">
      <g id="Grupo_1099341" data-name="Grupo 1099341">
        <g id="Rectángulo_402588" data-name="Rectángulo 402588" transform="translate(0 0)" fill="#efd026" stroke="#fff" stroke-width="5">
          <rect width="86.369" height="86.369" rx="14" stroke="none"/>
          <rect x="2.5" y="2.5" width="81.369" height="81.369" rx="11.5" fill="none"/>
        </g>
      </g>
      <g id="Grupo_1099346" data-name="Grupo 1099346" transform="translate(11 26)">
        <g id="Grupo_1099344" data-name="Grupo 1099344" transform="translate(0.938 0.938)">
          <g id="Grupo_1099342" data-name="Grupo 1099342">
            <path id="Trazado_873212" data-name="Trazado 873212" d="M49.482,127.072H7.5v24.745H49.482Z" transform="translate(12.675 -127.072)" fill="#fec463" fill-rule="evenodd"/>
            <path id="Trazado_873213" data-name="Trazado 873213" d="M48.976,178.064a3.752,3.752,0,0,0-3.752,3.752H19.694a3.752,3.752,0,1,0-7.5,0H7.5V169.3H20.171v-6.847H8.438l6.32-5.382h9.165v20.993H69.657v3.752H63.984a3.752,3.752,0,1,0-7.5,0H52.728A3.752,3.752,0,0,0,48.976,178.064Z" transform="translate(-7.5 -153.319)" fill="#f05776" fill-rule="evenodd"/>
            <path id="Trazado_873214" data-name="Trazado 873214" d="M60.366,328.68a3.752,3.752,0,1,1-3.752-3.752A3.752,3.752,0,0,1,60.366,328.68Zm40.538,3.752a3.752,3.752,0,1,1,3.752-3.752A3.752,3.752,0,0,1,100.9,332.432ZM85.9,328.68a3.752,3.752,0,1,1,3.752,3.752A3.752,3.752,0,0,1,85.9,328.68Z" transform="translate(-48.172 -300.183)" fill="#acc5e3" fill-rule="evenodd"/>
            <path id="Trazado_873215" data-name="Trazado 873215" d="M415.856,206.951H403.185l.938-6.847h11.733Z" transform="translate(-403.185 -190.97)" fill="#acf3f9" fill-rule="evenodd"/>
            <path id="Trazado_873216" data-name="Trazado 873216" d="M10.314,127.072H7.5v24.745h2.814Z" transform="translate(51.843 -127.072)" fill="#fb8e4b" fill-rule="evenodd"/>
            <path id="Trazado_873217" data-name="Trazado 873217" d="M7.5,157.071h2.814V179H7.5Zm45.734,20.993h2.814v3.752H53.234Z" transform="translate(6.109 -153.319)" fill="#df1843" fill-rule="evenodd"/>
            <path id="Trazado_873218" data-name="Trazado 873218" d="M58.021,328.68a3.754,3.754,0,0,1-5.159,3.479,3.753,3.753,0,0,0,0-6.958,3.754,3.754,0,0,1,5.159,3.479Zm40.538,3.752a3.739,3.739,0,0,1-1.407-.273,3.753,3.753,0,0,0,0-6.958,3.752,3.752,0,1,1,1.407,7.231ZM85.9,325.2a3.752,3.752,0,1,1,0,6.958,3.753,3.753,0,0,0,0-6.958Z" transform="translate(-45.827 -300.183)" fill="#6696c4" fill-rule="evenodd"/>
            <path id="Trazado_873219" data-name="Trazado 873219" d="M406,200.1h-2.814v6.847H406Z" transform="translate(-393.328 -190.97)" fill="#5ceaee" fill-rule="evenodd"/>
          </g>
          <g id="Grupo_1099343" data-name="Grupo 1099343" transform="translate(22.989 2.814)">
            <path id="Trazado_873220" data-name="Trazado 873220" d="M305.686,155.2h1.876v-1.876h-1.876Zm0-3.752h1.876v-1.876h-1.876Z" transform="translate(-305.686 -149.571)" fill="#fff"/>
          </g>
        </g>
        <g id="Grupo_1099345" data-name="Grupo 1099345" transform="translate(0 0)">
          <path id="Trazado_873221" data-name="Trazado 873221" d="M0,136.426l1-7.265,6.855-5.838H18.3v20.993h1.876V119.572H64.033V125.2H62.157v-3.752H22.051v22.869H62.157V127.076h1.876v22.869H58.265a4.69,4.69,0,0,1-9.191,0H47.01a4.69,4.69,0,0,1-9.191,0H19.7v-1.876H37.819a4.672,4.672,0,0,1,.846-1.876H16.423V125.2H8.541l-4.117,3.506H14.547v8.722H1.876v5.013H4.69v1.876H1.876v3.752H4.784a4.69,4.69,0,0,1,9.191,0h3.846v1.876H13.975a4.69,4.69,0,0,1-9.191,0H0Zm62.157,9.767H57.419a4.67,4.67,0,0,1,.846,1.876h3.892Zm-8.487,5.628a2.814,2.814,0,1,0-2.814-2.814A2.817,2.817,0,0,0,53.67,151.821Zm-11.256,0a2.814,2.814,0,1,0-2.814-2.814A2.817,2.817,0,0,0,42.414,151.821Zm4.6-3.752h2.065a4.672,4.672,0,0,1,.846-1.876H46.163A4.669,4.669,0,0,1,47.01,148.069ZM9.38,151.821a2.814,2.814,0,1,0-2.814-2.814A2.817,2.817,0,0,0,9.38,151.821Zm3.291-21.239H2.694l-.681,4.971H12.671Z" transform="translate(0 -119.572)"/>
          <path id="Trazado_873222" data-name="Trazado 873222" d="M399.437,277.348h-3.752v1.876h3.752Z" transform="translate(-384.89 -257.616)"/>
          <path id="Trazado_873223" data-name="Trazado 873223" d="M188.469,165.666h-1.876v15.091h1.876Z" transform="translate(-147.772 -159.901)"/>
          <path id="Trazado_873224" data-name="Trazado 873224" d="M225.969,165.666h-1.876v15.091h1.876Z" transform="translate(-189.962 -159.901)"/>
          <path id="Trazado_873225" data-name="Trazado 873225" d="M263.468,165.666h-1.876v15.091h1.876Z" transform="translate(-232.151 -159.901)"/>
          <path id="Trazado_873226" data-name="Trazado 873226" d="M150.969,165.666h-1.876v15.091h1.876Z" transform="translate(-105.582 -159.901)"/>
          <path id="Trazado_873227" data-name="Trazado 873227" d="M113.469,165.666h-1.876v15.091h1.876Z" transform="translate(-63.392 -159.901)"/>
          <path id="Trazado_873228" data-name="Trazado 873228" d="M75.97,165.666H74.094v15.091H75.97Z" transform="translate(-21.204 -159.901)"/>
        </g>
      </g>
    </g>
  </g>
</svg>
