<svg xmlns="http://www.w3.org/2000/svg" width="86.369" height="86.369" viewBox="0 0 86.369 86.369">
  <g id="Grupo_1212429" data-name="Grupo 1212429" transform="translate(-284.74 -2892.256)">
    <g id="Grupo_1211653" data-name="Grupo 1211653" transform="translate(284.739 2892.257)">
      <g id="Grupo_1099347" data-name="Grupo 1099347" transform="translate(0 0)">
        <g id="Grupo_1099341" data-name="Grupo 1099341">
          <g id="Rectángulo_402588" data-name="Rectángulo 402588" transform="translate(0 0)" fill="#efd026" stroke="#fff" stroke-width="5">
            <rect width="86.369" height="86.369" rx="14" stroke="none"/>
            <rect x="2.5" y="2.5" width="81.369" height="81.369" rx="11.5" fill="none"/>
          </g>
        </g>
      </g>
    </g>
    <g id="yacht_1557539" transform="translate(295.615 2900)">
      <g id="Grupo_1212427" data-name="Grupo 1212427">
        <path id="Trazado_1036864" data-name="Trazado 1036864" d="M49,8v9H41l5-9Z" fill="#aab2bd"/>
        <path id="Trazado_1036865" data-name="Trazado 1036865" d="M52,18v2a1,1,0,0,1-1,1H13a1,1,0,0,1-1-1V18a1,1,0,0,1,1-1H51A1,1,0,0,1,52,18Z" fill="#ff826e"/>
        <path id="Trazado_1036866" data-name="Trazado 1036866" d="M50,21l3,16H46V25H18v4H12l2-8Z" fill="#e6e9ed"/>
        <path id="Trazado_1036867" data-name="Trazado 1036867" d="M37,25V37H33V30a1,1,0,0,0-1-1H27V25Z" fill="#69d6f4"/>
        <rect id="Rectángulo_408960" data-name="Rectángulo 408960" width="9" height="12" transform="translate(37 25)" fill="#69d6f4"/>
        <path id="Trazado_1036868" data-name="Trazado 1036868" d="M27,25v4H18V25Z" fill="#69d6f4"/>
        <rect id="Rectángulo_408961" data-name="Rectángulo 408961" width="4" height="4" transform="translate(21 29)" fill="#cf9e76"/>
        <path id="Trazado_1036869" data-name="Trazado 1036869" d="M13,29v4H9V29h4Z" fill="#dfb28b"/>
        <rect id="Rectángulo_408962" data-name="Rectángulo 408962" width="4" height="4" transform="translate(5 29)" fill="#cf9e76"/>
        <path id="Trazado_1036870" data-name="Trazado 1036870" d="M29,29v8l-4-4V29h4Z" fill="#dfb28b"/>
        <rect id="Rectángulo_408963" data-name="Rectángulo 408963" width="4" height="4" transform="translate(13 29)" fill="#cf9e76"/>
        <path id="Trazado_1036871" data-name="Trazado 1036871" d="M18,29h3v4H17V29Z" fill="#dfb28b"/>
        <path id="Trazado_1036872" data-name="Trazado 1036872" d="M33,30v7H29V29h3A1,1,0,0,1,33,30Z" fill="#cf9e76"/>
        <path id="Trazado_1036873" data-name="Trazado 1036873" d="M61.17,49.46C60.16,50.05,59.6,51,57.83,51c-2.59,0-2.59-2-5.18-2s-2.58,2-5.17,2-2.58-2-5.16-2-2.59,2-5.17,2-2.58-2-5.17-2-2.58,2-5.16,2-2.59-2-5.17-2-2.58,2-5.16,2c-2.39,0-2.57-1.72-4.64-1.97a4.333,4.333,0,0,0-.53-.03c-2.58,0-2.58,2-5.16,2S3.58,49,1,49V63H63V49A3.539,3.539,0,0,0,61.17,49.46Z" fill="#69d6f4"/>
        <path id="Trazado_1036874" data-name="Trazado 1036874" d="M29,37H3l-.52.12A17.469,17.469,0,0,1,2,33H25Z" fill="#ff826e"/>
        <path id="Trazado_1036875" data-name="Trazado 1036875" d="M61,49v.12l.17.34C60.16,50.05,59.6,51,57.83,51c-2.59,0-2.59-2-5.18-2s-2.58,2-5.17,2-2.58-2-5.16-2-2.59,2-5.17,2-2.58-2-5.17-2-2.58,2-5.16,2-2.59-2-5.17-2-2.58,2-5.16,2c-2.39,0-2.57-1.72-4.64-1.97A18,18,0,0,1,2.48,37.12L3,37H56Z" fill="#ccd1d9"/>
        <circle id="Elipse_12180" data-name="Elipse 12180" cx="2" cy="2" r="2" transform="translate(46 41)" fill="#69d6f4"/>
        <circle id="Elipse_12181" data-name="Elipse 12181" cx="2" cy="2" r="2" transform="translate(36 41)" fill="#69d6f4"/>
        <rect id="Rectángulo_408964" data-name="Rectángulo 408964" width="10" height="4" transform="translate(18 41)" fill="#dfb28b"/>
      </g>
      <g id="Grupo_1212428" data-name="Grupo 1212428">
        <path id="Trazado_1036876" data-name="Trazado 1036876" d="M48,40a3,3,0,1,0,3,3A3,3,0,0,0,48,40Zm0,4a1,1,0,1,1,1-1A1,1,0,0,1,48,44Z"/>
        <path id="Trazado_1036877" data-name="Trazado 1036877" d="M38,40a3,3,0,1,0,3,3A3,3,0,0,0,38,40Zm0,4a1,1,0,1,1,1-1A1,1,0,0,1,38,44Z"/>
        <path id="Trazado_1036878" data-name="Trazado 1036878" d="M17,46H29V40H17Zm2-4h8v2H19Z"/>
        <path id="Trazado_1036879" data-name="Trazado 1036879" d="M61.734,48.162,56.667,36H53.83L51.2,21.98A2,2,0,0,0,53,20V18a2,2,0,0,0-2-2H50V7H45.412l-5,9H13a2,2,0,0,0-2,2v2a2,2,0,0,0,1.726,1.972L11.219,28H4v4H1v1A18.9,18.9,0,0,0,9.1,48.547a7.573,7.573,0,0,0-.968.662,2.846,2.846,0,0,1-3.937,0A4.707,4.707,0,0,0,1,48v2a2.778,2.778,0,0,1,1.967.79A4.709,4.709,0,0,0,6.16,52a4.718,4.718,0,0,0,3.195-1.209,2.849,2.849,0,0,1,3.939,0,4.821,4.821,0,0,0,6.387,0,2.85,2.85,0,0,1,3.941,0,4.828,4.828,0,0,0,6.391,0,2.851,2.851,0,0,1,3.942,0,4.829,4.829,0,0,0,6.392,0,2.851,2.851,0,0,1,3.942,0,4.829,4.829,0,0,0,6.392,0,2.859,2.859,0,0,1,3.948,0,4.835,4.835,0,0,0,6.4,0A2.791,2.791,0,0,1,63,50V48A4.832,4.832,0,0,0,61.734,48.162ZM46.588,9H48v7H42.7ZM13,18H51v2H13Zm1.781,4H49.17l2.625,14H47V24H17v4H13.281ZM10,32V30h2v2Zm4-2h2v2H14Zm5-2V26h7v2Zm-1,2h2v2H18Zm4,0h2v2H22Zm4,0h2v4.586l-2-2Zm4,0h2v6H30Zm2-2H28V26h8V36H34V30A2,2,0,0,0,32,28Zm6-2h7V36H38ZM6,30H8v2H6ZM57.827,50a2.8,2.8,0,0,1-1.975-.791,4.833,4.833,0,0,0-6.4,0,2.852,2.852,0,0,1-3.943,0,4.828,4.828,0,0,0-6.391,0,2.852,2.852,0,0,1-3.943,0,4.828,4.828,0,0,0-6.391,0,2.852,2.852,0,0,1-3.943,0,4.825,4.825,0,0,0-6.389,0,2.849,2.849,0,0,1-3.939,0,4.935,4.935,0,0,0-2.34-1.135A16.945,16.945,0,0,1,3.755,38H19V36H3.27a16.984,16.984,0,0,1-.241-2H24.586l2,2H21v2H55.333l4.622,11.092-.153.117A2.8,2.8,0,0,1,57.827,50Z"/>
        <path id="Trazado_1036880" data-name="Trazado 1036880" d="M57.827,55a2.8,2.8,0,0,1-1.975-.791,4.833,4.833,0,0,0-6.4,0,2.852,2.852,0,0,1-3.943,0,4.828,4.828,0,0,0-6.391,0,2.852,2.852,0,0,1-3.943,0,4.828,4.828,0,0,0-6.391,0,2.852,2.852,0,0,1-3.943,0,4.825,4.825,0,0,0-6.389,0,2.849,2.849,0,0,1-3.939,0,4.821,4.821,0,0,0-6.387,0,2.847,2.847,0,0,1-3.938,0A4.707,4.707,0,0,0,1,53v2a2.778,2.778,0,0,1,1.967.79A4.709,4.709,0,0,0,6.16,57a4.718,4.718,0,0,0,3.195-1.209,2.849,2.849,0,0,1,3.939,0,4.821,4.821,0,0,0,6.387,0,2.85,2.85,0,0,1,3.941,0,4.828,4.828,0,0,0,6.391,0,2.851,2.851,0,0,1,3.942,0,4.829,4.829,0,0,0,6.392,0,2.851,2.851,0,0,1,3.942,0,4.829,4.829,0,0,0,6.392,0,2.859,2.859,0,0,1,3.948,0,4.835,4.835,0,0,0,6.4,0A2.791,2.791,0,0,1,63,55V53a4.719,4.719,0,0,0-3.2,1.209A2.8,2.8,0,0,1,57.827,55Z"/>
      </g>
    </g>
  </g>
</svg>
