<svg xmlns="http://www.w3.org/2000/svg" xmlns:xlink="http://www.w3.org/1999/xlink" width="118" height="118" viewBox="0 0 118 118">
  <defs>
    <filter id="Trazado_896985" x="0" y="0" width="118" height="118" filterUnits="userSpaceOnUse">
      <feOffset dy="3" input="SourceAlpha"/>
      <feGaussianBlur stdDeviation="3" result="blur"/>
      <feFlood flood-opacity="0.161"/>
      <feComposite operator="in" in2="blur"/>
      <feComposite in="SourceGraphic"/>
    </filter>
  </defs>
  <g id="Grupo_1213663" data-name="Grupo 1213663" transform="translate(-616.891 -3922.662)">
    <g id="Grupo_1211773" data-name="Grupo 1211773" transform="translate(-0.949 -356.227)">
      <g id="Grupo_1198724" data-name="Grupo 1198724" transform="translate(0.95 -182.434)">
        <g id="Grupo_1198140" data-name="Grupo 1198140" transform="translate(291 615.322)">
          <g id="Grupo_1111318" data-name="Grupo 1111318" transform="translate(334.891 3852)">
            <g id="Grupo_1109826" data-name="Grupo 1109826" transform="translate(0)">
              <g id="Grupo_1098742" data-name="Grupo 1098742" transform="translate(0 0)">
                <g transform="matrix(1, 0, 0, 1, -9, -6)" filter="url(#Trazado_896985)">
                  <g id="Trazado_896985-2" data-name="Trazado 896985" transform="translate(9 6)" fill="#efd026" opacity="0.859">
                    <path d="M 49.99993515014648 99.5 C 43.31726837158203 99.5 36.83476257324219 98.19129943847656 30.73248100280762 95.61025238037109 C 24.83812141418457 93.11714172363281 19.54434776306152 89.54795837402344 14.99820137023926 85.00179290771484 C 10.45204162597656 80.45565032958984 6.88285493850708 75.16187286376953 4.389748573303223 69.26751708984375 C 1.808695197105408 63.16523742675781 0.5000017881393433 56.6827278137207 0.5000017881393433 50.00006103515625 C 0.5000017881393433 43.31726455688477 1.808695197105408 36.83475494384766 4.389748573303223 30.73247528076172 C 6.88285493850708 24.83811569213867 10.45204162597656 19.54434204101562 14.99820137023926 14.99819660186768 C 19.54434776306152 10.45203590393066 24.83812141418457 6.88284969329834 30.73248100280762 4.389742851257324 C 36.83476257324219 1.808689475059509 43.31726837158203 0.4999961853027344 49.99993515014648 0.4999961853027344 C 56.68260192871094 0.4999961853027344 63.16510772705078 1.808689475059509 69.26738739013672 4.389742851257324 C 75.16175079345703 6.88284969329834 80.45552062988281 10.45203590393066 85.00167083740234 14.99819660186768 C 89.54782867431641 19.54434204101562 93.11701202392578 24.83811569213867 95.61012268066406 30.73247528076172 C 98.19117736816406 36.83475494384766 99.49987030029297 43.31726455688477 99.49987030029297 49.99993133544922 C 99.49987030029297 56.6827278137207 98.19117736816406 63.16523742675781 95.61012268066406 69.26751708984375 C 93.11701202392578 75.16187286376953 89.54782867431641 80.45565032958984 85.00167083740234 85.00179290771484 C 80.45552062988281 89.54795837402344 75.16175079345703 93.11714172363281 69.26738739013672 95.61025238037109 C 63.16510772705078 98.19129943847656 56.68260192871094 99.5 49.99993515014648 99.5 Z" stroke="none"/>
                    <path d="M 49.99993515014648 0.9999923706054688 C 43.38454818725586 0.9999923706054688 36.96757507324219 2.29541015625 30.92725372314453 4.850250244140625 C 25.09249877929688 7.318145751953125 19.85213470458984 10.85135650634766 15.35174560546875 15.35174560546875 C 10.85136413574219 19.85212707519531 7.318145751953125 25.09249114990234 4.850257873535156 30.92724609375 C 2.295417785644531 36.96757125854492 1 43.38454437255859 1 50.00006103515625 C 1 56.61544799804688 2.295417785644531 63.03242111206055 4.850257873535156 69.07273864746094 C 7.318145751953125 74.90750122070312 10.85136413574219 80.14786529541016 15.35174560546875 84.64824676513672 C 19.85213470458984 89.14863586425781 25.09249877929688 92.68184661865234 30.92725372314453 95.14974212646484 C 36.96757507324219 97.70458221435547 43.38454818725586 99 49.99993515014648 99 C 56.61532211303711 99 63.03229522705078 97.70458221435547 69.07261657714844 95.14974212646484 C 74.90737915039062 92.68184661865234 80.14773559570312 89.14863586425781 84.64812469482422 84.64824676513672 C 89.14850616455078 80.14786529541016 92.68172454833984 74.90750122070312 95.14961242675781 69.07273864746094 C 97.70445251464844 63.03242111206055 98.99987030029297 56.61544799804688 98.99987030029297 49.99993133544922 C 98.99987030029297 43.38454437255859 97.70445251464844 36.96757125854492 95.14961242675781 30.92724609375 C 92.68172454833984 25.09249114990234 89.14850616455078 19.85212707519531 84.64812469482422 15.35174560546875 C 80.14773559570312 10.85135650634766 74.90737915039062 7.318145751953125 69.07261657714844 4.850250244140625 C 63.03229522705078 2.29541015625 56.61532211303711 0.9999923706054688 49.99993515014648 0.9999923706054688 M 49.99993515014648 -7.62939453125e-06 C 77.6141357421875 -7.62939453125e-06 99.99987030029297 22.38572692871094 99.99987030029297 49.99993133544922 L 99.99987030029297 50.00006103515625 C 99.99987030029297 77.61426544189453 77.6141357421875 100 49.99993515014648 100 C 22.38573455810547 100 0 77.61426544189453 0 50.00006103515625 L 0 49.99993133544922 C 0 22.38572692871094 22.38573455810547 -7.62939453125e-06 49.99993515014648 -7.62939453125e-06 Z" stroke="none" fill="#fff"/>
                  </g>
                </g>
                <g id="Rectángulo_400907" data-name="Rectángulo 400907" transform="translate(0)" fill="none" stroke="#fff" stroke-width="1">
                  <rect width="100" height="100" rx="50" stroke="none"/>
                  <rect x="0.5" y="0.5" width="99" height="99" rx="49.5" fill="none"/>
                </g>
              </g>
            </g>
          </g>
        </g>
      </g>
    </g>
    <g id="ley_14_" data-name="ley (14)" transform="translate(641.052 3934.188)">
      <g id="Grupo_1213654" data-name="Grupo 1213654" transform="translate(13.642 50.354)">
        <g id="Grupo_1213649" data-name="Grupo 1213649" transform="translate(0 3.345)">
          <path id="Trazado_1039251" data-name="Trazado 1039251" d="M150.033,357.6a10.647,10.647,0,0,0,2.556,7.012H114.061a1.219,1.219,0,0,1-.995-.509,12.412,12.412,0,0,1,0-13.006,1.219,1.219,0,0,1,.995-.509h38.529A10.648,10.648,0,0,0,150.033,357.6Z" transform="translate(-111.226 -350.585)" fill="#fb3a82"/>
          <path id="Trazado_1039252" data-name="Trazado 1039252" d="M122.984,350.587l-10.865,11.769a12.312,12.312,0,0,1-.889-4.757,11.128,11.128,0,0,1,1.84-6.5,1.217,1.217,0,0,1,.995-.509Z" transform="translate(-111.229 -350.587)" fill="#fb1466"/>
          <path id="Trazado_1039253" data-name="Trazado 1039253" d="M184.6,357.6a10.647,10.647,0,0,0,2.556,7.012H148.039s-2.248-2.277-2.248-7.012,2.248-7.012,2.248-7.012h39.115A10.648,10.648,0,0,0,184.6,357.6Z" transform="translate(-141.551 -350.585)" fill="#e0d3ce"/>
          <g id="Grupo_1213648" data-name="Grupo 1213648" transform="translate(4.239 0)">
            <path id="Trazado_1039254" data-name="Trazado 1039254" d="M153.305,350.587l-7.475,8.1c-.026-.346-.04-.708-.04-1.084,0-4.736,2.248-7.012,2.248-7.012Z" transform="translate(-145.79 -350.587)" fill="#cdbfbb"/>
            <path id="Trazado_1039255" data-name="Trazado 1039255" d="M429.034,357.6a10.646,10.646,0,0,0,2.556,7.011h-4.635a10.894,10.894,0,0,1,0-14.023h4.635A10.643,10.643,0,0,0,429.034,357.6Z" transform="translate(-390.226 -350.591)" fill="#cdbfbb"/>
          </g>
        </g>
        <g id="Grupo_1213653" data-name="Grupo 1213653" transform="translate(5.278)">
          <g id="Grupo_1213651" data-name="Grupo 1213651" transform="translate(0)">
            <path id="Trazado_1039256" data-name="Trazado 1039256" d="M197.218,325.353a2.035,2.035,0,0,1-2.035,2.035H156.295a2.035,2.035,0,0,1,0-4.071h38.888A2.035,2.035,0,0,1,197.218,325.353Z" transform="translate(-154.26 -323.317)" fill="#fb3a82"/>
            <g id="Grupo_1213650" data-name="Grupo 1213650">
              <path id="Trazado_1039257" data-name="Trazado 1039257" d="M163.823,323.317l-3.757,4.071h-3.772a2.035,2.035,0,0,1,0-4.071Z" transform="translate(-154.26 -323.317)" fill="#fb1466"/>
              <path id="Trazado_1039258" data-name="Trazado 1039258" d="M461.7,325.356a2.037,2.037,0,0,1-2.036,2.036h-3.948a2.036,2.036,0,0,0,0-4.071h3.948A2.036,2.036,0,0,1,461.7,325.356Z" transform="translate(-418.738 -323.321)" fill="#fb1466"/>
            </g>
          </g>
          <g id="Grupo_1213652" data-name="Grupo 1213652" transform="translate(0 16.642)">
            <path id="Trazado_1039259" data-name="Trazado 1039259" d="M195.18,463.067H156.292a2.035,2.035,0,0,1,0-4.071H195.18a2.035,2.035,0,1,1,0,4.071Z" transform="translate(-154.257 -458.996)" fill="#fb3a82"/>
            <path id="Trazado_1039260" data-name="Trazado 1039260" d="M461.7,461.035a2.034,2.034,0,0,1-2.036,2.035h-3.948a2.035,2.035,0,1,0,0-4.069h3.948A2.036,2.036,0,0,1,461.7,461.035Z" transform="translate(-418.738 -459)" fill="#fb1466"/>
          </g>
        </g>
      </g>
      <g id="Grupo_1213662" data-name="Grupo 1213662" transform="translate(-0.001 12.193)">
        <g id="Grupo_1213657" data-name="Grupo 1213657" transform="translate(0.92 24.309)">
          <g id="Grupo_1213655" data-name="Grupo 1213655" transform="translate(0 7.786)">
            <path id="Trazado_1039261" data-name="Trazado 1039261" d="M34.293,277.143l-3.286-3.286L8.64,294.506a3.542,3.542,0,1,0,5.005,5.005Z" transform="translate(-7.5 -273.857)" fill="#873f30"/>
            <path id="Trazado_1039262" data-name="Trazado 1039262" d="M14.79,306.842a3.543,3.543,0,0,1-5.008,0,3.507,3.507,0,0,1-.864-1.411,3.537,3.537,0,0,0,3.594-.861c.034-.034.068-.07.1-.1L33.262,282.1l2.275,2.275L14.888,306.739C14.856,306.775,14.823,306.809,14.79,306.842Z" transform="translate(-8.744 -281.085)" fill="#6c3328"/>
          </g>
          <path id="Trazado_1039263" data-name="Trazado 1039263" d="M198.2,210.382l-7.566,9.025,3.091,3.091,9.025-7.566Z" transform="translate(-168.173 -210.382)" fill="#873f30"/>
          <path id="Trazado_1039264" data-name="Trazado 1039264" d="M206.911,210.382l-2.445,2.916.734.734a1.383,1.383,0,0,1,0,1.955l-4.637,4.637,1.873,1.873,9.025-7.566Z" transform="translate(-176.882 -210.382)" fill="#6c3328"/>
          <g id="Grupo_1213656" data-name="Grupo 1213656" transform="translate(19.959 7.177)">
            <path id="Trazado_1039265" data-name="Trazado 1039265" d="M173.873,275.691l-3-3a2.221,2.221,0,0,1,3.141-3.141l3,3a2.221,2.221,0,0,1-3.141,3.141Z" transform="translate(-170.222 -268.899)" fill="#ba5d4f"/>
            <path id="Trazado_1039266" data-name="Trazado 1039266" d="M186.856,285.538a2.221,2.221,0,0,1-3.141,0l-2.274-2.274a2.221,2.221,0,0,0,3.141-3.141l2.274,2.274A2.22,2.22,0,0,1,186.856,285.538Z" transform="translate(-180.065 -278.746)" fill="#a34f41"/>
          </g>
        </g>
        <g id="Grupo_1213658" data-name="Grupo 1213658" transform="translate(24.41 3.681)">
          <path id="Trazado_1039267" data-name="Trazado 1039267" d="M0,0H9.423V14.794H0Z" transform="translate(10.459 0) rotate(45)" fill="#ba5d4f"/>
          <path id="Trazado_1039268" data-name="Trazado 1039268" d="M0,0H9.423V14.794H0Z" transform="translate(21.255 31.723) rotate(-135)" fill="#a34f41"/>
        </g>
        <g id="Grupo_1213661" data-name="Grupo 1213661" transform="translate(0 0)">
          <path id="Trazado_1039269" data-name="Trazado 1039269" d="M177.369,35.209l-.231-.231a2.247,2.247,0,0,1,0-3.178l11.448-11.448a2.247,2.247,0,0,1,3.178,0l.231.231a2.247,2.247,0,0,1,0,3.178L180.547,35.209a2.247,2.247,0,0,1-3.178,0Z" transform="translate(-154.834 -18.774)" fill="#873f30"/>
          <path id="Trazado_1039270" data-name="Trazado 1039270" d="M348.9,206.741l.231.231a2.247,2.247,0,0,0,3.178,0l11.448-11.448a2.247,2.247,0,0,0,0-3.178l-.231-.231a2.247,2.247,0,0,0-3.178,0L348.9,203.563A2.247,2.247,0,0,0,348.9,206.741Z" transform="translate(-305.53 -169.469)" fill="#6c3328"/>
          <g id="Grupo_1213660" data-name="Grupo 1213660">
            <path id="Trazado_1039271" data-name="Trazado 1039271" d="M0,0H10.582V22.343H0Z" transform="translate(44.422 7.895) rotate(45)" fill="#fcc16d"/>
            <path id="Trazado_1039272" data-name="Trazado 1039272" d="M0,0H22.343V5.356H0Z" transform="translate(32.316 27.395) rotate(-45)" fill="#fca62f"/>
            <path id="Trazado_1039273" data-name="Trazado 1039273" d="M240.679,67.741l-1.833-.749a1.685,1.685,0,0,0-1.83.368L224.146,80.23a1.686,1.686,0,0,0-.368,1.83l.749,1.833a1.124,1.124,0,0,0,1.834.369l14.687-14.687A1.124,1.124,0,0,0,240.679,67.741Z" transform="translate(-196.22 -60.16)" fill="#873f30"/>
            <path id="Trazado_1039274" data-name="Trazado 1039274" d="M305.271,132.334l.749,1.833a1.685,1.685,0,0,1-.368,1.83l-12.871,12.871a1.686,1.686,0,0,1-1.83.368l-1.833-.749a1.123,1.123,0,0,1-.369-1.834l14.687-14.687A1.124,1.124,0,0,1,305.271,132.334Z" transform="translate(-253.044 -116.985)" fill="#6c3328"/>
            <g id="Grupo_1213659" data-name="Grupo 1213659">
              <path id="Trazado_1039275" data-name="Trazado 1039275" d="M59.843,66.076h-.684a9.514,9.514,0,0,1-.792-1.51.92.92,0,0,0-1.7.7c.114.275.241.543.375.807H20.955a2.943,2.943,0,0,0-.8.111A10.694,10.694,0,0,1,18.8,60.71c0-.4.018-.8.052-1.184H36.479a.92.92,0,1,0,0-1.84H19.629l2.162-2.341H57.036a11.483,11.483,0,0,0-.886,2.341H44.059a.92.92,0,1,0,0,1.84h11.77c-.036.374-.057.751-.059,1.132a.92.92,0,0,0,.916.924h0a.92.92,0,0,0,.92-.916,9.843,9.843,0,0,1,1.547-5.321h.686a2.955,2.955,0,1,0,0-5.911h-11.5L58.879,38.9a3.167,3.167,0,0,0,0-4.479l-.232-.232a3.165,3.165,0,0,0-4.316-.151L52.7,32.409l.554-.554a2.6,2.6,0,0,0,.569-2.828l-.749-1.833a2.039,2.039,0,0,0-1.48-1.228l-1.279-1.279a.92.92,0,0,0-1.3,1.3l.629.629-14.5,14.5-4.264-4.264,14.5-14.5.564.564a.92.92,0,1,0,1.3-1.3L46.035,20.4a2.039,2.039,0,0,0-1.228-1.48h0l-1.833-.749a2.6,2.6,0,0,0-2.828.569l-.554.554-1.629-1.628a3.165,3.165,0,0,0-.151-4.316l-.232-.232a3.167,3.167,0,0,0-4.479,0L21.653,24.569a3.167,3.167,0,0,0,0,4.479l.231.231a3.166,3.166,0,0,0,4.316.151l1.628,1.629-.555.555a2.6,2.6,0,0,0-.569,2.828l.749,1.833A2.038,2.038,0,0,0,28.914,37.5L24.3,43a3.143,3.143,0,0,0-4.152,3.985l-2.092,1.931a.92.92,0,0,0,1.248,1.352l1.933-1.784,2.279,2.279L6.388,69.317a2.622,2.622,0,1,1-3.705-3.705l13.437-12.4a.92.92,0,0,0-1.248-1.352L1.435,64.26A4.462,4.462,0,0,0,4.458,72H4.55A4.424,4.424,0,0,0,7.74,70.565l5.513-5.972a10.6,10.6,0,0,0,1.479,3.154,2.142,2.142,0,0,0,1.745.9h1.55a2.95,2.95,0,0,0,2.929,3.344H59.843a2.955,2.955,0,1,0,0-5.911ZM60.958,52.39a1.117,1.117,0,0,1-1.115,1.115H23.489l1.529-1.656a3.144,3.144,0,0,0,3.138-.574H59.843a1.117,1.117,0,0,1,1.115,1.115ZM33.206,41.773,27.88,46.239l-2.118-2.118,4.466-5.327Zm-4.013,7.661A3.159,3.159,0,0,0,29,47.7l5.5-4.613a2.039,2.039,0,0,0,1.223,1.459l1.833.749a2.6,2.6,0,0,0,2.828-.569l.555-.555L42.57,45.8a3.173,3.173,0,0,0-.366,3.635H29.193ZM56.409,35.1a1.319,1.319,0,0,1,.938.389l.232.232a1.327,1.327,0,0,1,0,1.877L46.13,49.046a1.327,1.327,0,0,1-1.877,0l-.231-.231a1.329,1.329,0,0,1,0-1.877L55.47,35.489A1.318,1.318,0,0,1,56.409,35.1Zm-3.384.232-9.16,9.16L42.243,42.87l9.16-9.16ZM36.356,42.51,51.043,27.823a.194.194,0,0,1,.141-.06.224.224,0,0,1,.044,0,.2.2,0,0,1,.148.123l.749,1.833a.763.763,0,0,1-.167.831L39.086,43.425a.764.764,0,0,1-.831.167l-1.833-.749a.2.2,0,0,1-.067-.333ZM24.124,28.367a1.318,1.318,0,0,1-.938-.389l-.231-.231a1.327,1.327,0,0,1,0-1.877L34.4,14.422a1.327,1.327,0,0,1,1.877,0l.232.232a1.327,1.327,0,0,1,0,1.877L25.063,27.979a1.32,1.32,0,0,1-.938.388Zm3.384-.232,9.16-9.16L38.29,20.6l-9.16,9.16Zm1.068,4.779L41.446,20.043a.764.764,0,0,1,.831-.167l1.833.749a.2.2,0,0,1,.067.332L29.49,35.644a.2.2,0,0,1-.332-.067l-.749-1.833a.764.764,0,0,1,.167-.831ZM21.8,45.9a1.3,1.3,0,0,1,2.221-.92l3,3a1.3,1.3,0,1,1-1.84,1.84l-3-3a1.293,1.293,0,0,1-.381-.92ZM16.231,66.68a9.281,9.281,0,0,1-1.473-3.718l2.205-2.389c0,.046,0,.091,0,.137A12.764,12.764,0,0,0,18.389,66.8H16.477A.3.3,0,0,1,16.231,66.68Zm43.612,3.466H20.955a1.115,1.115,0,1,1,0-2.231H59.843a1.115,1.115,0,0,1,0,2.231Z" transform="translate(0.001 -12.193)"/>
              <path id="Trazado_1039276" data-name="Trazado 1039276" d="M203.247,417.166a.92.92,0,1,0,0,1.84h21.431a.92.92,0,0,0,0-1.84Z" transform="translate(-177.51 -367.494)"/>
            </g>
          </g>
        </g>
      </g>
    </g>
  </g>
</svg>
