<svg xmlns="http://www.w3.org/2000/svg" width="86.369" height="86.369" viewBox="0 0 86.369 86.369">
  <g id="Grupo_1212431" data-name="Grupo 1212431" transform="translate(-284.74 -2892.256)">
    <g id="Grupo_1211653" data-name="Grupo 1211653" transform="translate(284.739 2892.257)">
      <g id="Grupo_1099347" data-name="Grupo 1099347" transform="translate(0 0)">
        <g id="Grupo_1099341" data-name="Grupo 1099341">
          <g id="Rectángulo_402588" data-name="Rectángulo 402588" transform="translate(0 0)" fill="#efd026" stroke="#fff" stroke-width="5">
            <rect width="86.369" height="86.369" rx="14" stroke="none"/>
            <rect x="2.5" y="2.5" width="81.369" height="81.369" rx="11.5" fill="none"/>
          </g>
        </g>
      </g>
    </g>
    <g id="boat-toy_4002563" transform="translate(297.027 2904.556)">
      <path id="Trazado_1036893" data-name="Trazado 1036893" d="M32,28H43.568v3.856H32Z" transform="translate(-1.103 -0.973)" fill="#ccc"/>
      <path id="Trazado_1036894" data-name="Trazado 1036894" d="M41.64,28.964V28H32v1.928h8.676A.964.964,0,0,0,41.64,28.964Z" transform="translate(-1.103 -0.973)" fill="#d8d8d8"/>
      <path id="Trazado_1036895" data-name="Trazado 1036895" d="M18,28H31.5v3.856H18Z" transform="translate(-0.598 -0.973)" fill="#b5b5b5"/>
      <path id="Trazado_1036896" data-name="Trazado 1036896" d="M29.568,28.964V28H18v1.928H28.6A.964.964,0,0,0,29.568,28.964Z" transform="translate(-0.598 -0.973)" fill="#ccc"/>
      <path id="Trazado_1036897" data-name="Trazado 1036897" d="M32,6A20.334,20.334,0,0,1,45.5,25.15v2.057H32" transform="translate(-1.103 -0.18)" fill="#f3a748"/>
      <path id="Trazado_1036898" data-name="Trazado 1036898" d="M44.39,19A20.305,20.305,0,0,1,45.5,25.619v2.057H32V19Z" transform="translate(-1.103 -0.649)" fill="#d5883e"/>
      <path id="Trazado_1036899" data-name="Trazado 1036899" d="M31.424,27.063V2A25.738,25.738,0,0,0,16,25.583v1.481Z" transform="translate(-0.526 -0.036)" fill="#fce797"/>
      <path id="Trazado_1036900" data-name="Trazado 1036900" d="M18.135,15.784H31.5V10H21.551a25.747,25.747,0,0,0-3.416,5.784Z" transform="translate(-0.603 -0.324)" fill="#f9d266"/>
      <path id="Trazado_1036901" data-name="Trazado 1036901" d="M31.424,22H16.361A25.768,25.768,0,0,0,16,26.3v1.481H31.424Z" transform="translate(-0.526 -0.757)" fill="#f9d266"/>
      <path id="Trazado_1036902" data-name="Trazado 1036902" d="M46.523,45.5l.495-.424A32.028,32.028,0,0,0,56.162,32H7a32.021,32.021,0,0,0,9.142,13.07l.418.358a5.773,5.773,0,0,0,2.585-1.088l.771-.578a5.784,5.784,0,0,1,6.941,0l.771.578a5.784,5.784,0,0,0,6.941,0l.771-.578a5.784,5.784,0,0,1,6.941,0l.771.578a5.784,5.784,0,0,0,3.47,1.157Z" transform="translate(-0.202 -1.117)" fill="#d5883e"/>
      <path id="Trazado_1036903" data-name="Trazado 1036903" d="M7,32a32.021,32.021,0,0,0,9.142,13.07l.418.358a5.784,5.784,0,0,0,2.585-1.088l.771-.578a5.784,5.784,0,0,1,6.941,0l.771.578A5.784,5.784,0,0,0,31.1,45.5c.128,0,.254-.022.386-.031s.264-.038.4-.038h.034a5.77,5.77,0,0,0,2.654-1.088l.771-.578a5.784,5.784,0,0,1,6.941,0l.771.578a5.8,5.8,0,0,0,1.42.771A45.245,45.245,0,0,0,51.422,32Z" transform="translate(-0.202 -1.117)" fill="#f4a93c"/>
      <path id="Trazado_1036904" data-name="Trazado 1036904" d="M54.418,35.856H8.744A32.124,32.124,0,0,1,7,32H56.162a31.979,31.979,0,0,1-1.745,3.856Z" transform="translate(-0.202 -1.117)" fill="#f9d266"/>
      <path id="Trazado_1036905" data-name="Trazado 1036905" d="M7,32q.367.979.8,1.928H52.49Q53,32.982,53.438,32Z" transform="translate(-0.202 -1.117)" fill="#fce797"/>
      <path id="Trazado_1036906" data-name="Trazado 1036906" d="M2,53.892l2.314-1.735a5.784,5.784,0,0,1,6.941,0l.771.578a5.784,5.784,0,0,0,6.941,0l.771-.578a5.784,5.784,0,0,1,6.941,0l.771.578a5.784,5.784,0,0,0,6.941,0l.771-.578a5.784,5.784,0,0,1,6.941,0l.771.578a5.784,5.784,0,0,0,6.941,0l.771-.578a5.784,5.784,0,0,1,6.941,0l2.314,1.735V61.6l-2.314-1.735a5.784,5.784,0,0,0-6.941,0l-.771.578a5.784,5.784,0,0,1-6.941,0l-.771-.578a5.784,5.784,0,0,0-6.941,0l-.771.578a5.784,5.784,0,0,1-6.941,0l-.771-.578a5.784,5.784,0,0,0-6.941,0l-.771.578a5.784,5.784,0,0,1-6.941,0l-.771-.578a5.784,5.784,0,0,0-6.941,0L2,61.6Z" transform="translate(-0.022 -1.802)" fill="#9bc1ea"/>
      <path id="Trazado_1036907" data-name="Trazado 1036907" d="M2,45.892l2.314-1.735a5.784,5.784,0,0,1,6.941,0l.771.578a5.784,5.784,0,0,0,6.941,0l.771-.578a5.784,5.784,0,0,1,6.941,0l.771.578a5.784,5.784,0,0,0,6.941,0l.771-.578a5.784,5.784,0,0,1,6.941,0l.771.578a5.784,5.784,0,0,0,6.941,0l.771-.578a5.784,5.784,0,0,1,6.941,0l2.314,1.735V53.6l-2.314-1.735a5.784,5.784,0,0,0-6.941,0l-.771.578a5.784,5.784,0,0,1-6.941,0l-.771-.578a5.784,5.784,0,0,0-6.941,0l-.771.578a5.784,5.784,0,0,1-6.941,0l-.771-.578a5.784,5.784,0,0,0-6.941,0l-.771.578a5.784,5.784,0,0,1-6.941,0l-.771-.578a5.784,5.784,0,0,0-6.941,0L2,53.6Z" transform="translate(-0.022 -1.513)" fill="#c0dafc"/>
      <path id="Trazado_1036908" data-name="Trazado 1036908" d="M55.784,31.784V26H50v5.784" transform="translate(-1.751 -0.901)" fill="#939393"/>
      <path id="Trazado_1036909" data-name="Trazado 1036909" d="M53.856,28.892V26H50v3.856h2.892A.964.964,0,0,0,53.856,28.892Z" transform="translate(-1.751 -0.901)" fill="#a3a3a3"/>
      <path id="Trazado_1036910" data-name="Trazado 1036910" d="M51,25.712V19.928a1.928,1.928,0,1,1,3.856,0v5.784" transform="translate(-1.787 -0.612)" fill="#b5b5b5"/>
      <path id="Trazado_1036911" data-name="Trazado 1036911" d="M51,19.928v3.856h.964a.964.964,0,0,0,.964-.964V18A1.928,1.928,0,0,0,51,19.928Z" transform="translate(-1.787 -0.612)" fill="#ccc"/>
      <path id="Trazado_1036912" data-name="Trazado 1036912" d="M49.984,59.351l-.771.578a4.953,4.953,0,0,1-5.784,0l-.771-.578a6.93,6.93,0,0,0-8.1,0l-.771.578a4.953,4.953,0,0,1-5.784,0l-.771-.578a6.93,6.93,0,0,0-8.1,0l-.771.578a4.953,4.953,0,0,1-5.784,0l-.771-.578a6.93,6.93,0,0,0-8.1,0L1.4,61.086l1.157,1.542L4.87,60.894a4.953,4.953,0,0,1,5.784,0l.771.578a6.93,6.93,0,0,0,8.1,0l.771-.578a4.953,4.953,0,0,1,5.784,0l.771.578a6.93,6.93,0,0,0,8.1,0l.771-.578a4.953,4.953,0,0,1,5.784,0l.771.578a6.748,6.748,0,0,0,8.1,0l.771-.578a4.953,4.953,0,0,1,5.784,0l2.314,1.735,1.157-1.542-2.314-1.735A6.93,6.93,0,0,0,49.984,59.351Z" transform="translate(0 -2.055)"/>
      <path id="Trazado_1036913" data-name="Trazado 1036913" d="M49.984,51.351l-.771.578a4.953,4.953,0,0,1-5.784,0l-.771-.578a6.93,6.93,0,0,0-8.1,0l-.771.578a4.953,4.953,0,0,1-5.784,0l-.771-.578a6.93,6.93,0,0,0-8.1,0l-.771.578a4.953,4.953,0,0,1-5.784,0l-.771-.578a6.93,6.93,0,0,0-8.1,0L1.4,53.086l1.157,1.542L4.87,52.894a4.953,4.953,0,0,1,5.784,0l.771.578a6.93,6.93,0,0,0,8.1,0l.771-.578a4.953,4.953,0,0,1,5.784,0l.771.578a6.93,6.93,0,0,0,8.1,0l.771-.578a4.953,4.953,0,0,1,5.784,0l.771.578a6.748,6.748,0,0,0,8.1,0l.771-.578a4.953,4.953,0,0,1,5.784,0l2.314,1.735,1.157-1.542-2.314-1.735A6.93,6.93,0,0,0,49.984,51.351Z" transform="translate(0 -1.767)"/>
      <path id="Trazado_1036914" data-name="Trazado 1036914" d="M4.87,43.415a4.953,4.953,0,0,1,5.784,0l.771.578a6.93,6.93,0,0,0,8.1,0l.771-.578a4.953,4.953,0,0,1,5.784,0l.771.578a6.93,6.93,0,0,0,8.1,0l.771-.578a4.953,4.953,0,0,1,5.784,0l.771.578a6.748,6.748,0,0,0,8.1,0l.771-.578a4.953,4.953,0,0,1,5.784,0l2.314,1.735,1.157-1.542-2.314-1.735a6.95,6.95,0,0,0-7.326-.482A33.019,33.019,0,0,0,56.861,31.22a.964.964,0,0,0-.9-1.3H55V25.1a.964.964,0,0,0-.964-.964v-4.82a2.892,2.892,0,1,0-5.784,0v4.82a.964.964,0,0,0-.964.964v4.82H43.429V27.991h.964a.964.964,0,0,0,.964-.964V24.97a21.337,21.337,0,0,0-13.5-19.8V1.964a.964.964,0,0,0-1.35-.883,26.7,26.7,0,0,0-16,24.466v1.481a.964.964,0,0,0,.964.964h.964v1.928H6.8a.964.964,0,0,0-.9,1.3,33.075,33.075,0,0,0,7.561,11.727,4.505,4.505,0,0,1-.874-.5l-.771-.578a6.93,6.93,0,0,0-8.1,0L1.4,43.607,2.557,45.15Zm37.788-1.542a6.93,6.93,0,0,0-8.1,0l-.771.578a4.953,4.953,0,0,1-5.784,0l-.771-.578a6.93,6.93,0,0,0-8.1,0l-.771.578a4.648,4.648,0,0,1-1.772.792l-.026-.022A31.1,31.1,0,0,1,10.216,35.7H52.541a31.1,31.1,0,0,1-6.354,7.519l-.16.137a4.784,4.784,0,0,1-2.6-.908Zm7.519-22.557a.964.964,0,1,1,1.928,0v4.82H50.177Zm-.964,6.748h3.856v3.856H49.213ZM41.5,29.919h-9.64V27.991H41.5ZM16.438,26.063v-.517a24.751,24.751,0,0,1,.229-3.339H29.934v3.856ZM29.934,14.5H19.051a24.925,24.925,0,0,1,2.39-3.856h8.493Zm0,1.928v3.856H17.008a24.613,24.613,0,0,1,1.186-3.856Zm13.5,9.64H31.861V19.315H42.573a19.27,19.27,0,0,1,.856,5.655Zm-1.563-8.676H31.861V7.246A19.412,19.412,0,0,1,41.866,17.388ZM29.934,3.487V8.712H23.041a24.72,24.72,0,0,1,6.892-5.225Zm-11.568,24.5H29.934v1.928H18.366Zm36.169,3.856c-.28.655-.589,1.3-.913,1.928H9.137c-.324-.633-.633-1.273-.914-1.928Z"/>
    </g>
  </g>
</svg>
