<svg xmlns="http://www.w3.org/2000/svg" width="86.369" height="86.369" viewBox="0 0 86.369 86.369">
  <g id="Grupo_1213162" data-name="Grupo 1213162" transform="translate(-1230.212 -4824.813)">
    <g id="Grupo_1211703" data-name="Grupo 1211703" transform="translate(1230.212 4824.813)">
      <g id="Grupo_1099347" data-name="Grupo 1099347" transform="translate(0 0)">
        <g id="Grupo_1099341" data-name="Grupo 1099341">
          <g id="Rectángulo_402588" data-name="Rectángulo 402588" transform="translate(0 0)" fill="#efd026" stroke="#fff" stroke-width="5">
            <rect width="86.369" height="86.369" rx="14" stroke="none"/>
            <rect x="2.5" y="2.5" width="81.369" height="81.369" rx="11.5" fill="none"/>
          </g>
        </g>
      </g>
    </g>
    <g id="farmer_4168840" transform="translate(1188.005 4838.825)">
      <g id="Grupo_1213160" data-name="Grupo 1213160" transform="translate(64.305 0.854)">
        <g id="Grupo_1213159" data-name="Grupo 1213159" transform="translate(0)">
          <path id="Trazado_1037711" data-name="Trazado 1037711" d="M110.844,347.9h-5.816l-10.3-.632-15.642.632h-7a1.14,1.14,0,0,1-1.14-1.14V334.026a6.268,6.268,0,0,1,6.268-6.268h1.874l13.88,2.171,12.057-2.171h.688a6.268,6.268,0,0,1,6.268,6.268v12.733A1.139,1.139,0,0,1,110.844,347.9Z" transform="translate(-70.949 -291.261)" fill="#c3ddff"/>
          <path id="Trazado_1037712" data-name="Trazado 1037712" d="M359.453,327.758h-1.827l-1.591.287a6.5,6.5,0,0,1,1.591-.083,6.27,6.27,0,0,1,4.676,6.064v12.733a1.14,1.14,0,0,1-1.14,1.14h3.419a1.14,1.14,0,0,0,1.14-1.14V334.026A6.268,6.268,0,0,0,359.453,327.758Z" transform="translate(-323.547 -291.261)" fill="#a4ccff"/>
          <path id="Trazado_1037713" data-name="Trazado 1037713" d="M166.053,347.9l1.14-11.333-1.14-8.807h-2.235v11.609a1.14,1.14,0,0,1-1.14,1.14h-14.63a1.14,1.14,0,0,1-1.14-1.14V327.758h-4.514V347.9Z" transform="translate(-134.253 -291.261)" fill="#ffe07d"/>
          <g id="Grupo_1213156" data-name="Grupo 1213156" transform="translate(31.8 36.497)">
            <path id="Trazado_1037714" data-name="Trazado 1037714" d="M350,327.758h2.279V347.9H350Z" transform="translate(-349.999 -327.758)" fill="#ffd064"/>
          </g>
          <g id="Grupo_1213157" data-name="Grupo 1213157" transform="translate(7.219 16.324)">
            <path id="Trazado_1037715" data-name="Trazado 1037715" d="M190.46,262.755a8.455,8.455,0,0,0,8.454-8.454v-1.14H196.2a.57.57,0,0,1-.57-.57v-9.025H185.286v9.025a.57.57,0,0,1-.57.57h-2.71v1.14a8.455,8.455,0,0,0,8.454,8.454Z" transform="translate(-176.57 -232.988)" fill="#f6a96c"/>
            <path id="Trazado_1037716" data-name="Trazado 1037716" d="M139.359,153.421l-1.762.776a3.3,3.3,0,1,0,0,6.594h1.762Z" transform="translate(-134.3 -153.115)" fill="#f6a96c"/>
            <path id="Trazado_1037717" data-name="Trazado 1037717" d="M335.049,151.821l-1.762-1.082v7.676h1.762a3.3,3.3,0,0,0,0-6.594Z" transform="translate(-310.611 -150.739)" fill="#f6a96c"/>
          </g>
          <path id="Trazado_1037718" data-name="Trazado 1037718" d="M183.268,89.872a14.553,14.553,0,0,1-9.043-3.152.527.527,0,0,0-.634-.015,10.019,10.019,0,0,0-4.177,8.164v6.919a9.23,9.23,0,0,0,9.866,9.888c5.449,0,8.808-4.369,8.808-9.889V94.869a11.644,11.644,0,0,0-1.064-5h-3.756Z" transform="translate(-158.193 -77.591)" fill="#fed2a4"/>
          <path id="Trazado_1037719" data-name="Trazado 1037719" d="M251.888,115.262h-2.862a10.044,10.044,0,0,1,1.322,5v6.919a9.959,9.959,0,0,1-8.279,9.865,9.8,9.8,0,0,0,1.587.129,9.931,9.931,0,0,0,9.866-9.994v-6.919a10.053,10.053,0,0,0-1.164-4.713A.532.532,0,0,0,251.888,115.262Z" transform="translate(-222.569 -102.981)" fill="#ffbd86"/>
          <path id="Trazado_1037720" data-name="Trazado 1037720" d="M183.52,8.073l-1.552,1.1a3.155,3.155,0,0,1-3.643,0l-1.552-1.1a3.155,3.155,0,0,0-4.883,1.814l-1.5,6.017,8.8,2,7.795-2,1.176-4.368c-.526-2.11-2.727-4.705-4.53-3.539C183.594,8.021,183.557,8.047,183.52,8.073Z" transform="translate(-159.06 -7.492)" fill="#ffe07d"/>
          <g id="Grupo_1213158" data-name="Grupo 1213158" transform="translate(24.573 0.001)">
            <path id="Trazado_1037721" data-name="Trazado 1037721" d="M291.352,9.9a3.154,3.154,0,0,0-4.77-1.888A3.121,3.121,0,0,1,287.933,9.9L290.6,20.616h2.133l.114-4.7Z" transform="translate(-286.582 -7.502)" fill="#ffd064"/>
          </g>
          <path id="Trazado_1037722" data-name="Trazado 1037722" d="M160.109,86.01l10.927,1.14,7.508-1.14.648-2.839-1.819-1.864H161.281Z" transform="translate(-149.949 -72.894)" fill="#ee6161"/>
          <path id="Trazado_1037723" data-name="Trazado 1037723" d="M315.011,81.306h-3.419l1.172,4.7,2.133,1.14,1.286-1.14Z" transform="translate(-284.169 -72.894)" fill="#e94444"/>
          <path id="Trazado_1037724" data-name="Trazado 1037724" d="M133.648,122.583H103.932a2.145,2.145,0,0,0,0,4.29h29.715a2.145,2.145,0,0,0,0-4.29Z" transform="translate(-98.273 -109.468)" fill="#ffe07d"/>
          <path id="Trazado_1037725" data-name="Trazado 1037725" d="M364.791,122.583h-3.419a2.145,2.145,0,1,1,0,4.29h3.419a2.145,2.145,0,0,0,0-4.29Z" transform="translate(-328.276 -109.468)" fill="#ffd064"/>
        </g>
      </g>
      <g id="Grupo_1213161" data-name="Grupo 1213161" transform="translate(63.45 0)">
        <path id="Trazado_1037726" data-name="Trazado 1037726" d="M182.861,464.443a.855.855,0,1,0,.855.855A.855.855,0,0,0,182.861,464.443Z" transform="translate(-168.496 -411.516)"/>
        <path id="Trazado_1037727" data-name="Trazado 1037727" d="M316.242,464.443a.855.855,0,1,0,.855.855A.855.855,0,0,0,316.242,464.443Z" transform="translate(-286.677 -411.516)"/>
        <path id="Trazado_1037728" data-name="Trazado 1037728" d="M91.444,36.5V34a10.879,10.879,0,0,0,4.648-8.3,4.148,4.148,0,0,0,3.224-6.591h1.5a3,3,0,1,0,0-6H96.986L94.477,3.041a4.01,4.01,0,0,0-6.206-2.3l-1.552,1.1a2.3,2.3,0,0,1-2.656,0L82.512.736a4.01,4.01,0,0,0-6.206,2.3L73.8,13.114H69.964a3,3,0,0,0,0,6h1.5A4.148,4.148,0,0,0,74.691,25.7a10.879,10.879,0,0,0,4.7,8.328V36.5H70.572a7.13,7.13,0,0,0-7.122,7.122v4.606a.855.855,0,1,0,1.709,0V43.617A5.419,5.419,0,0,1,70.572,38.2h1.019V56.635H65.444a.285.285,0,0,1-.285-.285v-4.4a.855.855,0,1,0-1.709,0v4.4a2,2,0,0,0,1.994,1.994h39.895a2,2,0,0,0,1.994-1.994V43.617a7.13,7.13,0,0,0-7.122-7.122Zm4.668-12.5v-4.87a2.439,2.439,0,0,1,0,4.87ZM76.3,10.119h3.7a.855.855,0,0,0,0-1.709H76.73l1.235-4.956a2.3,2.3,0,0,1,3.56-1.322l1.552,1.1a4.016,4.016,0,0,0,4.629,0l1.552-1.1a2.3,2.3,0,0,1,3.56,1.322L94.052,8.41H83.732a.855.855,0,1,0,0,1.709H94.478l.746,2.994H75.559ZM69.964,17.4a1.291,1.291,0,1,1,0-2.581h30.855a1.291,1.291,0,1,1,0,2.581Zm2.415,4.152a2.443,2.443,0,0,1,2.292-2.435v4.87A2.443,2.443,0,0,1,72.379,21.556Zm4,3.494V19.114H94.4v5.937a9.012,9.012,0,1,1-18.023,0ZM79.671,38.2A1.426,1.426,0,0,0,81.1,36.78V34.989a10.593,10.593,0,0,0,8.639-.021V36.78A1.426,1.426,0,0,0,91.159,38.2h1.856v.289a7.6,7.6,0,0,1-15.2,0V38.2h1.856Zm15.053,0h2.8V56.635H73.3V38.2h2.8V48.959A2,2,0,0,0,78.1,50.953h7.858a.855.855,0,1,0,0-1.709H78.1a.285.285,0,0,1-.285-.285v-5.1a9.3,9.3,0,0,0,15.2,0v5.1a.285.285,0,0,1-.285.285H89.683a.855.855,0,1,0,0,1.709H92.73a2,2,0,0,0,1.994-1.994Zm10.9,18.146a.285.285,0,0,1-.285.285h-6.1V38.2h.973a5.419,5.419,0,0,1,5.413,5.413Z" transform="translate(-63.45 0)"/>
      </g>
    </g>
  </g>
</svg>
