<svg xmlns="http://www.w3.org/2000/svg" width="86.369" height="86.369" viewBox="0 0 86.369 86.369">
  <g id="Grupo_1212432" data-name="Grupo 1212432" transform="translate(-284.74 -2892.256)">
    <g id="Grupo_1211653" data-name="Grupo 1211653" transform="translate(284.739 2892.257)">
      <g id="Grupo_1099347" data-name="Grupo 1099347" transform="translate(0 0)">
        <g id="Grupo_1099341" data-name="Grupo 1099341">
          <g id="Rectángulo_402588" data-name="Rectángulo 402588" transform="translate(0 0)" fill="#efd026" stroke="#fff" stroke-width="5">
            <rect width="86.369" height="86.369" rx="14" stroke="none"/>
            <rect x="2.5" y="2.5" width="81.369" height="81.369" rx="11.5" fill="none"/>
          </g>
        </g>
      </g>
    </g>
    <g id="cargo-ship_897381" transform="translate(300.388 2884.68)">
      <path id="Trazado_1036915" data-name="Trazado 1036915" d="M96,143.975h33.044v17.44H96Z" transform="translate(-84.986 -106.231)" fill="#fcf05a"/>
      <path id="Trazado_1036916" data-name="Trazado 1036916" d="M55.732,263.975,53.9,267.647H15.344l-1.836-3.672H8l6.524,14.677a11.621,11.621,0,0,0,6.555,1.845c6.537,0,6.537-3.672,13.075-3.672S40.7,280.5,47.238,280.5c4.072,0,5.61-1.422,7.768-2.5l6.233-14.026Z" transform="translate(-7.083 -212.463)" fill="#e9686a"/>
      <path id="Trazado_1036917" data-name="Trazado 1036917" d="M48,335.975H71.866v1.836H48Z" transform="translate(-42.493 -276.202)" fill="#cfdfe8"/>
      <g id="Grupo_1212433" data-name="Grupo 1212433" transform="translate(13.769 23.975)">
        <path id="Trazado_1036918" data-name="Trazado 1036918" d="M184,143.975h1.836v15.237H184Z" transform="translate(-176.658 -130.206)" fill="#e97424"/>
        <path id="Trazado_1036919" data-name="Trazado 1036919" d="M152,143.975h1.836v15.237H152Z" transform="translate(-148.329 -130.206)" fill="#e97424"/>
        <path id="Trazado_1036920" data-name="Trazado 1036920" d="M120,143.975h1.836v15.237H120Z" transform="translate(-120.001 -130.206)" fill="#e97424"/>
        <path id="Trazado_1036921" data-name="Trazado 1036921" d="M216,143.975h1.836v15.237H216Z" transform="translate(-204.986 -130.206)" fill="#e97424"/>
        <path id="Trazado_1036922" data-name="Trazado 1036922" d="M248,143.975h1.836v15.237H248Z" transform="translate(-233.315 -130.206)" fill="#e97424"/>
        <path id="Trazado_1036923" data-name="Trazado 1036923" d="M280,143.975h1.836v15.237H280Z" transform="translate(-261.643 -130.206)" fill="#e97424"/>
        <path id="Trazado_1036924" data-name="Trazado 1036924" d="M312,143.975h1.836v15.237H312Z" transform="translate(-289.971 -130.206)" fill="#e97424"/>
        <path id="Trazado_1036925" data-name="Trazado 1036925" d="M344,143.975h1.836v15.237H344Z" transform="translate(-318.3 -130.206)" fill="#e97424"/>
        <path id="Trazado_1036926" data-name="Trazado 1036926" d="M348.852,52.43a.918.918,0,0,1-.918-.918v-25.7h-10.1v2.754a.918.918,0,0,1-1.836,0V24.893a.918.918,0,0,1,.918-.918h11.933a.918.918,0,0,1,.918.918V51.512A.918.918,0,0,1,348.852,52.43Z" transform="translate(-311.218 -23.975)" fill="#e97424"/>
      </g>
      <circle id="Elipse_12182" data-name="Elipse 12182" cx="3.062" cy="3.062" r="3.062" transform="translate(36.747 28.058)" fill="#fcf05a"/>
      <g id="Grupo_1212434" data-name="Grupo 1212434" transform="translate(34.88 59.773)">
        <path id="Trazado_1036927" data-name="Trazado 1036927" d="M400,335.975h1.836v1.836H400Z" transform="translate(-388.986 -335.975)" fill="#cfdfe8"/>
        <path id="Trazado_1036928" data-name="Trazado 1036928" d="M368,335.975h1.836v1.836H368Z" transform="translate(-360.658 -335.975)" fill="#cfdfe8"/>
        <path id="Trazado_1036929" data-name="Trazado 1036929" d="M336,335.975h1.836v1.836H336Z" transform="translate(-332.329 -335.975)" fill="#cfdfe8"/>
        <path id="Trazado_1036930" data-name="Trazado 1036930" d="M304,335.975h1.836v1.836H304Z" transform="translate(-304.001 -335.975)" fill="#cfdfe8"/>
      </g>
      <g id="Grupo_1212435" data-name="Grupo 1212435" transform="translate(0.918 63.441)">
        <path id="Trazado_1036931" data-name="Trazado 1036931" d="M47.238,373.456a12.451,12.451,0,0,1-6.991-1.953,10.763,10.763,0,0,0-6.093-1.718,10.748,10.748,0,0,0-6.088,1.718,12.434,12.434,0,0,1-6.986,1.953,12.442,12.442,0,0,1-6.988-1.953A10.754,10.754,0,0,0,8,369.785v-1.836a12.442,12.442,0,0,1,6.988,1.953,10.753,10.753,0,0,0,6.09,1.718,10.747,10.747,0,0,0,6.088-1.718,12.435,12.435,0,0,1,6.986-1.953,12.451,12.451,0,0,1,6.991,1.953,10.762,10.762,0,0,0,6.093,1.718,10.762,10.762,0,0,0,6.093-1.718,12.451,12.451,0,0,1,6.991-1.953v1.836a10.763,10.763,0,0,0-6.093,1.718A12.451,12.451,0,0,1,47.238,373.456Z" transform="translate(-8.001 -367.945)" fill="#195c85"/>
        <path id="Trazado_1036932" data-name="Trazado 1036932" d="M298.758,430.047a12.2,12.2,0,0,1-6.637-1.756l.89-1.6a10.445,10.445,0,0,0,5.747,1.525,10.268,10.268,0,0,0,4.449-.862l.747,1.676a12.159,12.159,0,0,1-5.2,1.022Z" transform="translate(-259.522 -419.947)" fill="#195c85"/>
        <path id="Trazado_1036933" data-name="Trazado 1036933" d="M82.325,430a12.165,12.165,0,0,1-5.14-1l.741-1.68a10.258,10.258,0,0,0,4.4.84,10.446,10.446,0,0,0,5.752-1.53l.892,1.605A12.213,12.213,0,0,1,82.325,430Z" transform="translate(-69.247 -419.905)" fill="#195c85"/>
      </g>
      <path id="Trazado_1036934" data-name="Trazado 1036934" d="M400,335.975h1.836v1.836H400Z" transform="translate(-354.106 -276.202)"/>
      <path id="Trazado_1036935" data-name="Trazado 1036935" d="M368,335.975h1.836v1.836H368Z" transform="translate(-325.777 -276.202)"/>
      <path id="Trazado_1036936" data-name="Trazado 1036936" d="M336,335.975h1.836v1.836H336Z" transform="translate(-297.449 -276.202)"/>
      <path id="Trazado_1036937" data-name="Trazado 1036937" d="M304,335.975h1.836v1.836H304Z" transform="translate(-269.121 -276.202)"/>
      <path id="Trazado_1036938" data-name="Trazado 1036938" d="M5.573,64.245a12.347,12.347,0,0,0-4.655-.8v1.836A10.758,10.758,0,0,1,7.007,67,12.443,12.443,0,0,0,14,68.952,12.435,12.435,0,0,0,20.982,67a10.747,10.747,0,0,1,6.088-1.718A10.762,10.762,0,0,1,33.164,67a12.451,12.451,0,0,0,6.991,1.953q.658,0,1.238-.045A12.416,12.416,0,0,0,47.146,67c.379-.212.758-.425,1.158-.625a10.235,10.235,0,0,1,4.934-1.093V63.445a13.28,13.28,0,0,0-3.58.444l5.335-12a.918.918,0,0,0-.837-1.291H52.321v-25.7a.918.918,0,0,0-.918-.918H39.47a.918.918,0,0,0-.918.918v2.884a3.672,3.672,0,1,0,1.836,0V25.811h10.1V50.594H48.649a.918.918,0,0,0-.826.508l-1.577,3.164H44.977V36.826H10.1v17.44H8.828L7.252,51.1a.918.918,0,0,0-.826-.508H.918a.918.918,0,0,0-.839,1.291ZM41.306,31.318a1.836,1.836,0,1,1-1.836-1.836A1.836,1.836,0,0,1,41.306,31.318ZM11.933,38.661h1.836V52.981H15.6V38.661H17.44V52.981h1.836V38.661h1.836V52.981h1.836V38.661h1.836V52.981h1.836V38.661h1.836V52.981h1.836V38.661h1.836V52.981h1.836V38.661H35.8V52.981h1.836V38.661H39.47V52.981h1.836V38.661h1.836v15.6H11.933ZM5.858,52.43,7.44,55.594a.918.918,0,0,0,.822.508H46.813a.918.918,0,0,0,.826-.508l1.577-3.164h3.527L47.215,64.868c-.04.021-.08.044-.12.066q-.431.23-.847.464a10.762,10.762,0,0,1-6.093,1.718A10.762,10.762,0,0,1,34.062,65.4a12.45,12.45,0,0,0-6.991-1.953A12.435,12.435,0,0,0,20.085,65.4,10.747,10.747,0,0,1,14,67.116c-.367,0-.713-.013-1.039-.037-.116-.008-.218-.024-.329-.035-.2-.02-.4-.039-.59-.067-.128-.019-.243-.045-.367-.068-.152-.029-.308-.056-.452-.092-.126-.03-.242-.065-.361-.1s-.254-.069-.374-.108-.233-.082-.348-.125-.217-.079-.319-.121-.228-.1-.34-.149c-.092-.043-.19-.086-.282-.13-.114-.055-.225-.112-.335-.169-.092-.046-.176-.092-.263-.138q-.184-.1-.36-.2l-.085-.048L6.41,61.609H29.373V59.773H5.6L2.331,52.43Z"/>
      <path id="Trazado_1036939" data-name="Trazado 1036939" d="M303.207,427.35a10.268,10.268,0,0,1-4.449.862,10.445,10.445,0,0,1-5.747-1.525l-.89,1.6a13.551,13.551,0,0,0,11.834.734Z" transform="translate(-258.604 -356.506)"/>
      <path id="Trazado_1036940" data-name="Trazado 1036940" d="M77.95,427.329l-.741,1.68a13.557,13.557,0,0,0,11.781-.765l-.892-1.605a10.446,10.446,0,0,1-5.752,1.53A10.258,10.258,0,0,1,77.95,427.329Z" transform="translate(-68.35 -356.463)"/>
    </g>
  </g>
</svg>
