<svg xmlns="http://www.w3.org/2000/svg" width="86.369" height="86.369" viewBox="0 0 86.369 86.369">
  <g id="Grupo_1213273" data-name="Grupo 1213273" transform="translate(-7105.398 7573.566)">
    <g id="Grupo_1211746" data-name="Grupo 1211746" transform="translate(7105.398 -7573.566)">
      <g id="Grupo_1099347" data-name="Grupo 1099347" transform="translate(0 0)">
        <g id="Grupo_1099341" data-name="Grupo 1099341" transform="translate(0 0)">
          <g id="Rectángulo_402588" data-name="Rectángulo 402588" transform="translate(0 0)" fill="#f4c5c5" stroke="#fff" stroke-width="5">
            <rect width="86.369" height="86.369" rx="14" stroke="none"/>
            <rect x="2.5" y="2.5" width="81.369" height="81.369" rx="11.5" fill="none"/>
          </g>
        </g>
      </g>
    </g>
    <g id="XMLID_70_" transform="translate(7123.17 -7555.61)">
      <g id="XMLID_1916_" transform="translate(5.716 0.985)">
        <path id="XMLID_1914_" d="M68.66,93.137v.1a3.218,3.218,0,0,0,2.551,3.149h0a3.219,3.219,0,0,1,2.551,3.149v19.729a3.71,3.71,0,0,1-3.71,3.71H61.71a3.71,3.71,0,0,1-3.71-3.71V99.532a3.218,3.218,0,0,1,2.551-3.148A3.218,3.218,0,0,0,63.1,93.235v-.1H68.66Z" transform="translate(-58 -84.944)" fill="#c5d3de"/>
        <g id="Grupo_1213272" data-name="Grupo 1213272" transform="translate(4.303)">
          <path id="XMLID_1912_" d="M101.66,50h7.162v4.251H101.66Z" transform="translate(-101.66 -46.058)" fill="#ffcd69"/>
          <path id="XMLID_1911_" d="M112.554,10H108.3a.887.887,0,0,0-.887.887v3.055h6.029V10.887A.887.887,0,0,0,112.554,10Z" transform="translate(-106.845 -10)" fill="#ffcd69"/>
        </g>
      </g>
      <g id="XMLID_1103_" transform="translate(23.835 0.985)">
        <path id="XMLID_1860_" d="M270.241,116.616a36.052,36.052,0,0,0-2.553,13.325v11.475a3.817,3.817,0,0,0,3.817,3.817H281.64a3.817,3.817,0,0,0,3.817-3.817v-13.2a6.138,6.138,0,0,0-4.131-5.8,6.138,6.138,0,0,1-4.131-5.8Z" transform="translate(-265.143 -106.109)" fill="#ccf5fc"/>
        <path id="XMLID_1857_" d="M293.593,74.553h6.955V78.7h-6.955Z" transform="translate(-288.496 -68.191)" fill="#fff"/>
        <path id="XMLID_1856_" d="M261.334,10h-13.1a6.368,6.368,0,0,0-6.368,6.368v1.2a7.207,7.207,0,0,1,4-1.209h8.056l2.178-1.908h5.235a.848.848,0,0,0,.848-.848V10.848A.848.848,0,0,0,261.334,10Z" transform="translate(-241.868 -10)" fill="#ffcd69"/>
        <path id="XMLID_1854_" d="M411.388,10h-3.061v4.453h3.061a.848.848,0,0,0,.848-.848V10.848A.848.848,0,0,0,411.388,10Z" transform="translate(-391.923 -10)" fill="#e2e9ee"/>
      </g>
      <path id="XMLID_1802_" d="M68.313,304.582H40.437a5.551,5.551,0,0,1-5.485-4.7L32.333,283H76.416L73.8,299.882A5.551,5.551,0,0,1,68.313,304.582Z" transform="translate(-29.147 -255.111)" fill="#d5ea79"/>
      <path id="XMLID_1801_" d="M55.726,232.519H12.759a2.759,2.759,0,1,1,0-5.519H55.726a2.759,2.759,0,1,1,0,5.519Z" transform="translate(-9.014 -204.63)" fill="#d5ea79"/>
      <path id="XMLID_8_" d="M137.867,227.127v13.065a1.974,1.974,0,0,0,3.947,0V236.8l-.02.033v8.609a1.974,1.974,0,0,0,3.947,0v-8.61s0,10.614,0,10.614a1.974,1.974,0,1,0,3.947,0v-2.005a1.974,1.974,0,0,0,3.947,0V232.892h0v3.736a2.365,2.365,0,1,0,4.73,0v-5.267l-1.256-4.234Z" transform="translate(-124.281 -204.744)" fill="#9d9ae8"/>
      <g id="XMLID_650_" transform="translate(0 0)">
        <path id="XMLID_690_" d="M50.456,25.129a3.749,3.749,0,0,0-3.745-3.745H44.925a7.17,7.17,0,0,0-4.584-5.023,5.156,5.156,0,0,1-3.468-4.869v-.461a4.966,4.966,0,0,0,3.355,1.3.985.985,0,0,0,0-1.971,3.018,3.018,0,0,1-3.011-2.869l1.22-1.068H43.3A1.836,1.836,0,0,0,45.134,4.59V1.834A1.836,1.836,0,0,0,43.3,0H30.2A7.362,7.362,0,0,0,22.85,7.354v1.2a.985.985,0,0,0,1.532.82,6.2,6.2,0,0,1,3.45-1.044h.116v2.976a36.942,36.942,0,0,0-2.392,10.076H22.469V15.574a4.222,4.222,0,0,0-3.325-4.111l-.012,0A2.242,2.242,0,0,1,17.523,10.1a.985.985,0,0,0,.643-.923V4.927a.985.985,0,0,0-.567-.891V1.872A1.874,1.874,0,0,0,15.727,0H11.472A1.874,1.874,0,0,0,9.6,1.872V4.036a.985.985,0,0,0-.567.891V9.178a.985.985,0,0,0,.638.921,2.243,2.243,0,0,1-1.608,1.361A4.224,4.224,0,0,0,4.73,15.573v5.812H3.745a3.745,3.745,0,0,0-1.448,7.2L4.831,44.922a6.536,6.536,0,0,0,6.459,5.534h9.5a.985.985,0,1,0,0-1.971h-9.5A4.542,4.542,0,0,1,6.779,44.62L4.337,28.874H12.6v6.573a2.957,2.957,0,0,0,3.927,2.8V40.7a2.957,2.957,0,0,0,4.043,2.752,2.959,2.959,0,0,0,5.726,0A2.957,2.957,0,0,0,30.339,40.7V34.936a3.348,3.348,0,0,0,4.73-3.052V28.874H46.12L43.678,44.62a4.542,4.542,0,0,1-4.511,3.866h-9.5a.985.985,0,0,0,0,1.971h9.5a6.536,6.536,0,0,0,6.459-5.534l2.534-16.339a3.751,3.751,0,0,0,2.3-3.453ZM43.164,4.453H41.225V1.971h1.939ZM24.838,6.927A5.39,5.39,0,0,1,30.2,1.971h9.051V4.453H38.066a.986.986,0,0,0-.649.244l-1.9,1.664H27.832a8.172,8.172,0,0,0-2.994.566ZM34.9,8.332v2.174H29.918V8.332Zm-5.294,4.145H34.97A7.129,7.129,0,0,0,39.7,18.224a5.186,5.186,0,0,1,3.174,3.161H27.535A34.966,34.966,0,0,1,29.608,12.478ZM11,5.913H16.2v2.28H11Zm.567-3.942h4.058V3.942H11.571ZM6.7,15.573a2.244,2.244,0,0,1,1.77-2.184,4.229,4.229,0,0,0,3.236-3.225h3.78a4.224,4.224,0,0,0,3.229,3.223l.012,0a2.244,2.244,0,0,1,1.77,2.185v5.811H6.7ZM3.745,26.9a1.774,1.774,0,1,1,0-3.548H12.6V26.9ZM33.1,31.883a1.38,1.38,0,1,1-2.759,0V28.148a.986.986,0,0,0-.985-.985h0a.986.986,0,0,0-.985.985V40.7a.988.988,0,0,1-1.976,0V32.09a.985.985,0,1,0-1.971,0V42.7a.988.988,0,1,1-1.976,0V32.09a.986.986,0,0,0-.985-.985h0a.986.986,0,0,0-.985.985V40.7a.988.988,0,0,1-1.976,0l.02-8.642a1,1,0,0,0-1.991.032v3.557a.988.988,0,0,1-1.956-.2V23.356H32.089l1.01,3.4v5.124ZM46.711,26.9H35.07v-.287a.989.989,0,0,0-.041-.28l-.884-2.98H46.711a1.774,1.774,0,1,1,0,3.548Z" transform="translate(0 0)"/>
        <path id="XMLID_700_" d="M246.985,492a.986.986,0,1,0,.7.289A.992.992,0,0,0,246.985,492Z" transform="translate(-221.757 -443.515)"/>
      </g>
    </g>
  </g>
</svg>
