<svg xmlns="http://www.w3.org/2000/svg" width="85" height="85" viewBox="0 0 85 85">
  <g id="Grupo_1212453" data-name="Grupo 1212453" transform="translate(-201.025 -520.819)">
    <g id="Grupo_1211659" data-name="Grupo 1211659" transform="translate(201.025 520.819)">
      <path id="Trazado_1034100" data-name="Trazado 1034100" d="M42.5,0A42.5,42.5,0,1,1,0,42.5,42.5,42.5,0,0,1,42.5,0Z" fill="#f4c5c5"/>
    </g>
    <g id="furgoneta-de-reparto" transform="translate(213.741 465.164)">
      <g id="Grupo_1212451" data-name="Grupo 1212451" transform="translate(0.873 78.247)">
        <path id="Trazado_1036941" data-name="Trazado 1036941" d="M33.942,333.788V329.86H27.615l1.831,4.084a1.164,1.164,0,0,0,1.062.688h2.851A4.463,4.463,0,0,1,33.942,333.788Z" transform="translate(-25.275 -301.357)" fill="#8d9ca8"/>
        <path id="Trazado_1036942" data-name="Trazado 1036942" d="M82,329.86v3.928a4.451,4.451,0,0,1,7.8,2.936c0,.083,0,.166-.007.248H93.06c0-.082-.007-.165-.007-.248a4.452,4.452,0,0,1,8.9,0c0,.083,0,.166-.007.248H116.4c0-.082-.007-.165-.007-.248a4.452,4.452,0,0,1,8.9,0c0,.083,0,.166-.007.248h4.705a1.163,1.163,0,0,0,1.163-1.163V329.86Z" transform="translate(-73.332 -301.357)" fill="#9facba"/>
        <g id="Grupo_1212436" data-name="Grupo 1212436" transform="translate(41.367 10.515)">
          <path id="Trazado_1036943" data-name="Trazado 1036943" d="M363.054,175.251v17.988h16.457V184.08a2.907,2.907,0,0,0-.33-1.346l-3.09-5.921a2.909,2.909,0,0,0-2.579-1.563H363.054Z" transform="translate(-363.054 -175.251)" fill="#faea5e"/>
        </g>
        <g id="Grupo_1212437" data-name="Grupo 1212437" transform="translate(47.062 13.424)">
          <path id="Trazado_1036944" data-name="Trazado 1036944" d="M419.676,205.832l-2.749-5.268a.582.582,0,0,0-.516-.313h-4.178a.233.233,0,0,0-.233.233v4.524a1.163,1.163,0,0,0,1.163,1.163h6.306A.233.233,0,0,0,419.676,205.832Z" transform="translate(-412 -200.252)" fill="#fff"/>
        </g>
        <g id="Grupo_1212438" data-name="Grupo 1212438" transform="translate(47.062 13.424)">
          <path id="Trazado_1036945" data-name="Trazado 1036945" d="M414.443,205.009v-4.524a.233.233,0,0,1,.233-.233h-2.443a.233.233,0,0,0-.233.233v4.524a1.163,1.163,0,0,0,1.163,1.163h2.443A1.163,1.163,0,0,1,414.443,205.009Z" transform="translate(-412 -200.252)" fill="#f2fbff"/>
        </g>
        <g id="Grupo_1212439" data-name="Grupo 1212439" transform="translate(43.058 30.915)">
          <circle id="Elipse_12183" data-name="Elipse 12183" cx="4.452" cy="4.452" r="4.452" fill="#596c76"/>
        </g>
        <g id="Grupo_1212440" data-name="Grupo 1212440" transform="translate(43.058 30.915)">
          <path id="Trazado_1036946" data-name="Trazado 1036946" d="M380.015,355.042a4.453,4.453,0,0,1,3.238-4.283,4.452,4.452,0,1,0,0,8.567A4.453,4.453,0,0,1,380.015,355.042Z" transform="translate(-377.586 -350.59)" fill="#465a61"/>
        </g>
        <path id="Trazado_1036947" data-name="Trazado 1036947" d="M404.13,378.677a1.544,1.544,0,1,1,1.544-1.544A1.545,1.545,0,0,1,404.13,378.677Z" transform="translate(-356.619 -341.766)" fill="#fff"/>
        <g id="Grupo_1212441" data-name="Grupo 1212441" transform="translate(19.721 30.915)">
          <circle id="Elipse_12184" data-name="Elipse 12184" cx="4.452" cy="4.452" r="4.452" fill="#596c76"/>
        </g>
        <g id="Grupo_1212442" data-name="Grupo 1212442" transform="translate(19.721 30.915)">
          <path id="Trazado_1036948" data-name="Trazado 1036948" d="M179.443,355.042a4.453,4.453,0,0,1,3.231-4.281,4.452,4.452,0,1,0,0,8.562A4.453,4.453,0,0,1,179.443,355.042Z" transform="translate(-177 -350.59)" fill="#465a61"/>
        </g>
        <circle id="Elipse_12185" data-name="Elipse 12185" cx="1.544" cy="1.544" r="1.544" transform="translate(22.629 33.824)" fill="#fff"/>
        <g id="Grupo_1212443" data-name="Grupo 1212443" transform="translate(7.561 30.915)">
          <circle id="Elipse_12186" data-name="Elipse 12186" cx="4.452" cy="4.452" r="4.452" fill="#596c76"/>
        </g>
        <g id="Grupo_1212444" data-name="Grupo 1212444" transform="translate(7.561 30.915)">
          <path id="Trazado_1036949" data-name="Trazado 1036949" d="M74.93,355.042a4.453,4.453,0,0,1,3.232-4.282,4.452,4.452,0,1,0,0,8.563A4.453,4.453,0,0,1,74.93,355.042Z" transform="translate(-72.49 -350.59)" fill="#465a61"/>
        </g>
        <circle id="Elipse_12187" data-name="Elipse 12187" cx="1.544" cy="1.544" r="1.544" transform="translate(10.47 33.824)" fill="#fff"/>
        <g id="Grupo_1212445" data-name="Grupo 1212445" transform="translate(0 0)">
          <path id="Trazado_1036950" data-name="Trazado 1036950" d="M48.867,113.377H8.082A.582.582,0,0,1,7.5,112.8V85.456a.582.582,0,0,1,.582-.582h40.2a.582.582,0,0,1,.582.582Z" transform="translate(-7.5 -84.874)" fill="#01c0fa"/>
        </g>
        <g id="Grupo_1212446" data-name="Grupo 1212446" transform="translate(0 0)">
          <path id="Trazado_1036951" data-name="Trazado 1036951" d="M12.38,112.8V85.456a.582.582,0,0,1,.582-.582H8.082a.582.582,0,0,0-.582.582V112.8a.582.582,0,0,0,.582.582h4.88A.582.582,0,0,1,12.38,112.8Z" transform="translate(-7.5 -84.874)" fill="#08a9f1"/>
        </g>
        <g id="Grupo_1212447" data-name="Grupo 1212447" transform="translate(0 4.538)">
          <path id="Trazado_1036952" data-name="Trazado 1036952" d="M7.5,123.874H48.867V143.3H7.5Z" transform="translate(-7.5 -123.874)" fill="#08a9f1"/>
        </g>
        <g id="Grupo_1212448" data-name="Grupo 1212448" transform="translate(0 4.538)">
          <path id="Trazado_1036953" data-name="Trazado 1036953" d="M7.5,123.874h4.88V143.3H7.5Z" transform="translate(-7.5 -123.874)" fill="#0290cf"/>
        </g>
        <g id="Grupo_1212449" data-name="Grupo 1212449" transform="translate(13.813 12.739)">
          <path id="Trazado_1036954" data-name="Trazado 1036954" d="M139.613,197.392H126.569a.349.349,0,0,1-.349-.349v-2.327a.349.349,0,0,1,.349-.349h13.044a.349.349,0,0,1,.349.349v2.327A.349.349,0,0,1,139.613,197.392Z" transform="translate(-126.22 -194.367)" fill="#fff"/>
        </g>
        <g id="Grupo_1212450" data-name="Grupo 1212450" transform="translate(13.813 12.739)">
          <path id="Trazado_1036955" data-name="Trazado 1036955" d="M129.9,197.043v-2.327a.349.349,0,0,1,.349-.349h-3.684a.349.349,0,0,0-.349.349v2.327a.349.349,0,0,0,.349.349h3.684A.349.349,0,0,1,129.9,197.043Z" transform="translate(-126.22 -194.367)" fill="#f2fbff"/>
        </g>
      </g>
      <g id="Grupo_1212452" data-name="Grupo 1212452" transform="translate(0 77.374)">
        <path id="Trazado_1036956" data-name="Trazado 1036956" d="M397.5,368.09a2.416,2.416,0,1,0,2.416,2.416A2.419,2.419,0,0,0,397.5,368.09Zm0,3.087a.671.671,0,1,1,.671-.671A.672.672,0,0,1,397.5,371.177Z" transform="translate(-349.119 -334.266)"/>
        <path id="Trazado_1036957" data-name="Trazado 1036957" d="M196.916,372.923a2.416,2.416,0,1,0-2.416-2.416A2.419,2.419,0,0,0,196.916,372.923Zm0-3.087a.671.671,0,1,1-.671.671A.672.672,0,0,1,196.916,369.835Z" transform="translate(-171.871 -334.266)"/>
        <path id="Trazado_1036958" data-name="Trazado 1036958" d="M92.405,372.923a2.416,2.416,0,1,0-2.416-2.416A2.419,2.419,0,0,0,92.405,372.923Zm0-3.087a.671.671,0,1,1-.671.671A.672.672,0,0,1,92.405,369.835Z" transform="translate(-79.519 -334.266)"/>
        <path id="Trazado_1036959" data-name="Trazado 1036959" d="M119.942,191.637h13.044a1.223,1.223,0,0,0,1.222-1.222v-2.327a1.223,1.223,0,0,0-1.222-1.222H119.942a1.223,1.223,0,0,0-1.222,1.222v2.327A1.223,1.223,0,0,0,119.942,191.637Zm.524-3.025h12v1.28h-12Z" transform="translate(-104.907 -174.128)"/>
        <path id="Trazado_1036960" data-name="Trazado 1036960" d="M411.072,193.533a1.45,1.45,0,0,0-1.289-.781h-4.178a1.107,1.107,0,0,0-1.105,1.105v4.524a2.038,2.038,0,0,0,2.036,2.036h6.306a1.105,1.105,0,0,0,.98-1.617Zm-4.536,5.139a.291.291,0,0,1-.291-.291V194.5h3.362l2.179,4.175Z" transform="translate(-357.438 -179.328)"/>
        <path id="Trazado_1036961" data-name="Trazado 1036961" d="M59.14,95.841l-3.09-5.921A3.769,3.769,0,0,0,52.7,87.889H43.112V78.828a1.456,1.456,0,0,0-1.454-1.454H1.454A1.456,1.456,0,0,0,0,78.828v27.34a1.456,1.456,0,0,0,1.454,1.454H2.648l1.6,3.569a2.039,2.039,0,0,0,1.858,1.2H7.7a5.324,5.324,0,1,0,10.388,2.341H19.84a5.324,5.324,0,0,0,10.41,0h2.21a.873.873,0,1,0,0-1.745H30.333a5.324,5.324,0,0,0-10.574,0H18.173a5.32,5.32,0,0,0-7.76-4.089v-1.278H57.824V112.7a.291.291,0,0,1-.291.291H53.67a5.324,5.324,0,0,0-10.574,0H36.533a.873.873,0,1,0,0,1.745h6.645a5.324,5.324,0,0,0,10.41,0h3.945a2.038,2.038,0,0,0,2.036-2.036V97.591a3.8,3.8,0,0,0-.429-1.75ZM25.046,110.034a3.58,3.58,0,1,1-3.58,3.58A3.584,3.584,0,0,1,25.046,110.034Zm-12.159,0a3.58,3.58,0,1,1-3.58,3.58,3.584,3.584,0,0,1,3.58-3.58Zm-4.218.336c-.07.091-.138.184-.2.279H6.105a.291.291,0,0,1-.265-.172l-1.28-2.855H8.668Zm32.7-4.493H1.745v-2.792H41.367Zm0-23.966h-28.8a.873.873,0,1,0,0,1.745h28.8V101.34H1.745V83.657H8.493a.873.873,0,0,0,0-1.745H1.745V79.119H41.367Zm7.016,35.282a3.58,3.58,0,1,1,3.58-3.58A3.584,3.584,0,0,1,48.383,117.194Zm-5.27-27.559H44.5v4.028h-1.39Zm14.712,16.243H46.248v-2.136a.873.873,0,1,0-1.745,0v2.136h-1.39V95.408H44.5v4.261a.873.873,0,1,0,1.745,0V89.634H52.7A2.03,2.03,0,0,1,54.5,90.728l3.09,5.921a2.044,2.044,0,0,1,.231.942Z" transform="translate(0 -77.374)"/>
        <path id="Trazado_1036962" data-name="Trazado 1036962" d="M405.373,266.374a.873.873,0,0,0-.873.873v2.676a.873.873,0,1,0,1.745,0v-2.676A.873.873,0,0,0,405.373,266.374Z" transform="translate(-357.438 -244.385)"/>
      </g>
    </g>
  </g>
</svg>
