<svg xmlns="http://www.w3.org/2000/svg" width="86.369" height="86.369" viewBox="0 0 86.369 86.369">
  <g id="Grupo_1211870" data-name="Grupo 1211870" transform="translate(-757.5 -5599.098)">
    <g id="Grupo_1200194" data-name="Grupo 1200194" transform="translate(12438 17501.447)">
      <g id="Grupo_1099347" data-name="Grupo 1099347" transform="translate(-11585.5 -12119)">
        <g id="Grupo_1099341" data-name="Grupo 1099341" transform="translate(-95 216.65)">
          <g id="Rectángulo_402588" data-name="Rectángulo 402588" transform="translate(0 0)" fill="#efd026" stroke="#fff" stroke-width="5">
            <rect width="86.369" height="86.369" rx="14" stroke="none"/>
            <rect x="2.5" y="2.5" width="81.369" height="81.369" rx="11.5" fill="none"/>
          </g>
        </g>
      </g>
    </g>
    <g id="truck_4333618" transform="translate(768.5 5610.269)">
      <path id="Trazado_1034313" data-name="Trazado 1034313" d="M15.7,18.469,14,14.5l-2-3-2,3L6.014,17.689a1.863,1.863,0,0,0,1.752,3.222l1.6-.533A2,2,0,0,1,12,22.275V26.5l1,4H31v-6a3,3,0,0,0-3-3H20.3a5,5,0,0,1-4.6-3.031Z" fill="#c18875"/>
      <path id="Trazado_1034314" data-name="Trazado 1034314" d="M12.5,28.5l.5,2H31v-2Z" fill="#b26a52"/>
      <path id="Trazado_1034315" data-name="Trazado 1034315" d="M3,37.5H38v9H4a1,1,0,0,1-1-1Z" fill="#aff08c"/>
      <path id="Trazado_1034316" data-name="Trazado 1034316" d="M5,37.5H38v9H5Z" fill="#90dc64"/>
      <path id="Trazado_1034317" data-name="Trazado 1034317" d="M14,38.5a8.009,8.009,0,0,0-8,8H22A8.009,8.009,0,0,0,14,38.5Z" fill="#7dcf56"/>
      <path id="Trazado_1034318" data-name="Trazado 1034318" d="M58.412,30.03l-5.64-8.774A6,6,0,0,0,47.724,18.5H38v28H58a2,2,0,0,0,2-2V35.437a10,10,0,0,0-1.588-5.407Z" fill="#aff08c"/>
      <path id="Trazado_1034319" data-name="Trazado 1034319" d="M60,44.5V35.437a10,10,0,0,0-1.588-5.408l-5.64-8.774A6,6,0,0,0,47.724,18.5H40v28H58A2,2,0,0,0,60,44.5Z" fill="#90dc64"/>
      <path id="Trazado_1034320" data-name="Trazado 1034320" d="M48,38.5a8.009,8.009,0,0,0-8,8H56A8.009,8.009,0,0,0,48,38.5Z" fill="#7dcf56"/>
      <path id="Trazado_1034321" data-name="Trazado 1034321" d="M3,30.5H38v7H3Z" fill="#c18875"/>
      <path id="Trazado_1034322" data-name="Trazado 1034322" d="M5,32.5H38v5H5Z" fill="#b26a52"/>
      <circle id="Elipse_12162" data-name="Elipse 12162" cx="6" cy="6" r="6" transform="translate(42 40.5)" fill="#40485a"/>
      <circle id="Elipse_12163" data-name="Elipse 12163" cx="6" cy="6" r="6" transform="translate(8 40.5)" fill="#40485a"/>
      <circle id="Elipse_12164" data-name="Elipse 12164" cx="2" cy="2" r="2" transform="translate(46 44.5)" fill="#ededf2"/>
      <circle id="Elipse_12165" data-name="Elipse 12165" cx="2" cy="2" r="2" transform="translate(12 44.5)" fill="#ededf2"/>
      <path id="Trazado_1034323" data-name="Trazado 1034323" d="M60,36.5H58a2,2,0,0,0,0,4h2Z" fill="#ffdc60"/>
      <path id="Trazado_1034324" data-name="Trazado 1034324" d="M53.571,22.5H45a2,2,0,0,0-2,2v4a2,2,0,0,0,2,2H58.714Z" fill="#a1eef0"/>
      <path id="Trazado_1034325" data-name="Trazado 1034325" d="M59.253,29.489l-5.64-8.774A6.972,6.972,0,0,0,47.724,17.5H38a1,1,0,0,0-1,1v11H32V25.778A1.993,1.993,0,0,1,33,27.5a1,1,0,1,0,2,0,4,4,0,0,0-3.108-3.892A4,4,0,0,0,28,20.5H20.3a4,4,0,0,1-3.676-2.425l-1.7-3.969a1.025,1.025,0,0,0-.087-.161l-2-3a1.038,1.038,0,0,0-1.664,0L9.254,13.816,5.39,16.908a2.862,2.862,0,0,0,2.693,4.951l1.6-.533A1,1,0,0,1,11,22.275V26.5a1.021,1.021,0,0,0,.03.243l.689,2.757H4v-5a1,1,0,0,0-2,0v21a2,2,0,0,0,2,2H7.08a6.991,6.991,0,0,0,13.84,0H41.08a6.991,6.991,0,0,0,13.84,0H58a3,3,0,0,0,3-3V35.437a10.977,10.977,0,0,0-1.747-5.948Zm-50.2-10.06-1.6.533a.845.845,0,0,1-.659-.047.856.856,0,0,1-.433-.5.866.866,0,0,1,.28-.946l3.986-3.189a.994.994,0,0,0,.208-.226L12,13.3l1.117,1.675,1.664,3.885A5.994,5.994,0,0,0,20.3,22.5H28a2,2,0,0,1,2,2v5H13.781L13,26.377v-4.1a3,3,0,0,0-3.948-2.846ZM14,51.5a5,5,0,1,1,5-5,5,5,0,0,1-5,5Zm23-6H20.92a6.991,6.991,0,0,0-13.84,0H4v-7H37Zm0-9H4v-5H7v2a1,1,0,0,0,2,0v-2h3v2a1,1,0,0,0,2,0v-2h3v2a1,1,0,0,0,2,0v-2h3v2a1,1,0,0,0,2,0v-2h3v2a1,1,0,0,0,2,0v-2h3v2a1,1,0,0,0,2,0v-2h3Zm16.026-13,3.857,6H45a1,1,0,0,1-1-1v-4a1,1,0,0,1,1-1ZM48,51.5a5,5,0,1,1,5-5,5,5,0,0,1-5,5Zm11-12H58a1,1,0,0,1,0-2h1Zm0-4H58a3,3,0,0,0,0,6h1v3a1,1,0,0,1-1,1H54.92a6.991,6.991,0,0,0-13.84,0H39v-26h8.724a4.971,4.971,0,0,1,3.988,2H45a3,3,0,0,0-3,3v4a3,3,0,0,0,3,3H58.079A8.969,8.969,0,0,1,59,35.437Z"/>
      <path id="Trazado_1034326" data-name="Trazado 1034326" d="M48,43.5a3,3,0,1,0,3,3,3,3,0,0,0-3-3Zm0,4a1,1,0,1,1,1-1A1,1,0,0,1,48,47.5Z"/>
      <path id="Trazado_1034327" data-name="Trazado 1034327" d="M14,43.5a3,3,0,1,0,3,3,3,3,0,0,0-3-3Zm0,4a1,1,0,1,1,1-1A1,1,0,0,1,14,47.5Z"/>
      <path id="Trazado_1034328" data-name="Trazado 1034328" d="M46,34.5H44a1,1,0,0,0,0,2h2a1,1,0,0,0,0-2Z"/>
    </g>
  </g>
</svg>
