<svg xmlns="http://www.w3.org/2000/svg" width="86.369" height="86.369" viewBox="0 0 86.369 86.369">
  <g id="Grupo_1211869" data-name="Grupo 1211869" transform="translate(-1177.5 -5599.096)">
    <g id="Grupo_1200195" data-name="Grupo 1200195" transform="translate(12858 17501.447)">
      <g id="Grupo_1099347" data-name="Grupo 1099347" transform="translate(-11585.5 -12119)">
        <g id="Grupo_1099341" data-name="Grupo 1099341" transform="translate(-95 216.65)">
          <g id="Rectángulo_402588" data-name="Rectángulo 402588" transform="translate(0 0)" fill="#efd026" stroke="#fff" stroke-width="5">
            <rect width="86.369" height="86.369" rx="14" stroke="none"/>
            <rect x="2.5" y="2.5" width="81.369" height="81.369" rx="11.5" fill="none"/>
          </g>
        </g>
      </g>
    </g>
    <g id="classroom_2125110" transform="translate(1190.866 5613.566)">
      <path id="Trazado_1039415" data-name="Trazado 1039415" d="M54.758,47.46a3.734,3.734,0,0,1-3.758,0v2.386h3.758Z" transform="translate(-2.964 -2.75)" fill="#ffc477"/>
      <path id="Trazado_1039416" data-name="Trazado 1039416" d="M54.4,50H50.637A5.637,5.637,0,0,0,45,55.637v4.7H60.032v-4.7A5.637,5.637,0,0,0,54.4,50Z" transform="translate(-2.601 -2.904)" fill="#00ccb3"/>
      <path id="Trazado_1039417" data-name="Trazado 1039417" d="M58.58,3V6.758H21V3Z" transform="translate(-1.149 -0.06)" fill="#898890"/>
      <path id="Trazado_1039418" data-name="Trazado 1039418" d="M23,7H56.822V29.548H23Z" transform="translate(-1.27 -0.302)" fill="#d1d3d4"/>
      <path id="Trazado_1039419" data-name="Trazado 1039419" d="M56.516,41.758v1.879a3.781,3.781,0,0,1-1.1,2.659,3.97,3.97,0,0,1-.78.592A3.758,3.758,0,0,1,49,43.637V41.758a3.758,3.758,0,0,1,7.516,0Z" transform="translate(-2.843 -2.178)" fill="#57565c"/>
      <path id="Trazado_1039420" data-name="Trazado 1039420" d="M34.758,47.46a3.734,3.734,0,0,1-3.758,0v2.386h3.758Z" transform="translate(-1.754 -2.75)" fill="#ffc477"/>
      <path id="Trazado_1039421" data-name="Trazado 1039421" d="M34.4,50H30.637A5.637,5.637,0,0,0,25,55.637v4.7H40.032v-4.7A5.637,5.637,0,0,0,34.4,50Z" transform="translate(-1.391 -2.904)" fill="#00ccb3"/>
      <path id="Trazado_1039422" data-name="Trazado 1039422" d="M36.516,41.758v1.879a3.781,3.781,0,0,1-1.1,2.659,3.969,3.969,0,0,1-.78.592A3.758,3.758,0,0,1,29,43.637V41.758a3.758,3.758,0,0,1,7.516,0Z" transform="translate(-1.633 -2.178)" fill="#57565c"/>
      <path id="Trazado_1039423" data-name="Trazado 1039423" d="M27,11h9.4v7.516H27Z" transform="translate(-1.512 -0.544)" fill="#ff9811"/>
      <path id="Trazado_1039424" data-name="Trazado 1039424" d="M18.516,58.879v1.879H12.879L11,59.819V57h5.637a1.885,1.885,0,0,1,1.879,1.879Z" transform="translate(-0.544 -3.327)" fill="#ee8700"/>
      <path id="Trazado_1039425" data-name="Trazado 1039425" d="M15.214,33.972H3V23.637A5.637,5.637,0,0,1,8.637,18l1.879,1.879L12.4,18a5.637,5.637,0,0,1,5.637,5.637V33.972Z" transform="translate(-0.06 -0.968)" fill="#3d9ae2"/>
      <path id="Trazado_1039426" data-name="Trazado 1039426" d="M10.7,55.669H6V35h9.4V55.669Z" transform="translate(-0.242 -1.996)" fill="#787680"/>
      <path id="Trazado_1039427" data-name="Trazado 1039427" d="M15.4,7.7V9.577H14.3a1.885,1.885,0,0,1-1.334-.554L11.637,7.7l-.78.78A3.758,3.758,0,0,1,8.2,9.577H6V7.7a4.7,4.7,0,0,1,9.4,0Z" transform="translate(-0.242 -0.06)" fill="#57565c"/>
      <path id="Trazado_1039428" data-name="Trazado 1039428" d="M14.516,9.879v1.879a3.752,3.752,0,0,1-5.637,3.251,3.969,3.969,0,0,1-.78-.592A3.781,3.781,0,0,1,7,11.758V9.879H8.259a3.758,3.758,0,0,0,2.659-1.1L11.7,8l1.325,1.325a1.885,1.885,0,0,0,1.334.554Z" transform="translate(-0.302 -0.363)" fill="#ffc477"/>
      <path id="Trazado_1039429" data-name="Trazado 1039429" d="M12.758,15.46v2.386l-1.879,1.879L9,17.846V15.46a3.734,3.734,0,0,0,3.758,0Z" transform="translate(-0.423 -0.814)" fill="#ffb655"/>
      <path id="Trazado_1039430" data-name="Trazado 1039430" d="M10.516,57v2.819l-1.879.94H3V58.879A1.885,1.885,0,0,1,4.879,57Z" transform="translate(-0.06 -3.327)" fill="#ee8700"/>
      <path id="Trazado_1039431" data-name="Trazado 1039431" d="M12.758,15.46V16.4A3.734,3.734,0,0,1,9,16.4v-.94a3.734,3.734,0,0,0,3.758,0Z" transform="translate(-0.423 -0.814)" fill="#ffa733"/>
      <path id="Trazado_1039432" data-name="Trazado 1039432" d="M6,35h9.4v1.879H6Z" transform="translate(-0.242 -1.996)" fill="#57565c"/>
      <path id="Trazado_1039433" data-name="Trazado 1039433" d="M23,7H56.822V8.879H23Z" transform="translate(-1.27 -0.302)" fill="#bcbec0"/>
      <path id="Trazado_1039434" data-name="Trazado 1039434" d="M13.274,16.159V15.126A4.676,4.676,0,0,0,15.153,11.4v-.94a.94.94,0,0,0,.94-.94V7.637a5.637,5.637,0,1,0-11.274,0V9.516a.94.94,0,0,0,.94.94v.94a4.676,4.676,0,0,0,1.879,3.734v1.033A6.587,6.587,0,0,0,2,22.669V33a.94.94,0,0,0,.94.94H4.819v18.79A2.819,2.819,0,0,0,2,55.552v1.879a.94.94,0,0,0,.94.939H8.577A.94.94,0,0,0,9,58.276l1.459-.735,1.459.73a.939.939,0,0,0,.42.1h5.637a.94.94,0,0,0,.94-.939V55.552a2.819,2.819,0,0,0-2.819-2.819V33.943h1.879a.94.94,0,0,0,.94-.94V22.669A6.587,6.587,0,0,0,13.274,16.159ZM6.7,7.637a3.758,3.758,0,0,1,7.516,0v.94h-.161a.94.94,0,0,1-.665-.275L12.059,6.973a.94.94,0,0,0-1.328,0l-.779.779a2.837,2.837,0,0,1-1.993.825H6.7Zm1.262,2.819A4.666,4.666,0,0,0,11.28,9.08l.115-.115.664.664a2.781,2.781,0,0,0,1.215.7V11.4a2.819,2.819,0,1,1-5.637,0v-.94Zm2.5,5.637A4.7,4.7,0,0,0,11.4,16v.645l-.94.94-.94-.94V16a4.7,4.7,0,0,0,.94.094Zm-2.1,40.4H3.879v-.94a.94.94,0,0,1,.94-.94h4.7v1.3Zm8.677-.94v.94H12.556L11.4,55.91v-1.3h4.7A.94.94,0,0,1,17.032,55.552Zm-2.819-2.819H11.4V37.7H9.516V52.733H6.7V33.943h7.516Zm2.819-20.669h-.94V21.73H14.214V32.064H6.7V21.73H4.819V32.064h-.94v-9.4a4.689,4.689,0,0,1,4.344-4.662L9.516,19.3v9.006H11.4V19.3l1.293-1.293a4.689,4.689,0,0,1,4.344,4.662Z" transform="translate(0)"/>
      <path id="Trazado_1039435" data-name="Trazado 1039435" d="M58.52,2H20.94a.94.94,0,0,0-.94.94V6.7a.94.94,0,0,0,.94.94h.94V29.246a.94.94,0,0,0,.94.94H56.641a.94.94,0,0,0,.94-.94V7.637h.94a.94.94,0,0,0,.939-.94V2.94A.94.94,0,0,0,58.52,2ZM55.7,28.306H23.758V7.637H55.7ZM57.58,5.758h-35.7V3.879h35.7Z" transform="translate(-1.089 0)"/>
      <path id="Trazado_1039436" data-name="Trazado 1039436" d="M35.274,48.341V47.307a4.676,4.676,0,0,0,1.879-3.731V41.7a4.7,4.7,0,0,0-9.4,0v1.879a4.676,4.676,0,0,0,1.879,3.734v1.033A6.587,6.587,0,0,0,24,54.851v4.7a.94.94,0,0,0,.94.939H39.972a.939.939,0,0,0,.939-.939v-4.7a6.587,6.587,0,0,0-5.637-6.51ZM29.637,41.7a2.819,2.819,0,0,1,5.637,0v1.879a2.819,2.819,0,0,1-5.637,0Zm9.4,16.911h-.94v-4.7H36.214v4.7H28.7v-4.7H26.819v4.7h-.94V54.851a4.7,4.7,0,0,1,4.7-4.7.94.94,0,0,0,.94-.94V48.18a4.7,4.7,0,0,0,1.879,0v1.033a.94.94,0,0,0,.94.94,4.7,4.7,0,0,1,4.7,4.7Z" transform="translate(-1.331 -2.117)"/>
      <path id="Trazado_1039437" data-name="Trazado 1039437" d="M55.274,48.341V47.307a4.676,4.676,0,0,0,1.879-3.731V41.7a4.7,4.7,0,0,0-9.4,0v1.879a4.676,4.676,0,0,0,1.879,3.734v1.033A6.587,6.587,0,0,0,44,54.851v4.7a.94.94,0,0,0,.94.939H59.972a.939.939,0,0,0,.939-.939v-4.7a6.587,6.587,0,0,0-5.637-6.51ZM49.637,41.7a2.819,2.819,0,0,1,5.637,0v1.879a2.819,2.819,0,1,1-5.637,0Zm9.4,16.911h-.94v-4.7H56.214v4.7H48.7v-4.7H46.819v4.7h-.939V54.851a4.7,4.7,0,0,1,4.7-4.7.94.94,0,0,0,.939-.94V48.18a4.7,4.7,0,0,0,1.879,0v1.033a.94.94,0,0,0,.94.94,4.7,4.7,0,0,1,4.7,4.7Z" transform="translate(-2.541 -2.117)"/>
      <path id="Trazado_1039438" data-name="Trazado 1039438" d="M26.94,19.4h9.4a.94.94,0,0,0,.94-.94V10.94a.94.94,0,0,0-.94-.94h-9.4a.94.94,0,0,0-.94.94v7.516A.94.94,0,0,0,26.94,19.4Zm.94-7.516H35.4v5.637H27.879Z" transform="translate(-1.452 -0.484)"/>
      <path id="Trazado_1039439" data-name="Trazado 1039439" d="M40,10h5.637v1.879H40Z" transform="translate(-2.299 -0.484)"/>
      <path id="Trazado_1039440" data-name="Trazado 1039440" d="M48,10h1.879v1.879H48Z" transform="translate(-2.783 -0.484)"/>
      <path id="Trazado_1039441" data-name="Trazado 1039441" d="M52,10h3.758v1.879H52Z" transform="translate(-3.025 -0.484)"/>
      <path id="Trazado_1039442" data-name="Trazado 1039442" d="M48,14h7.516v1.879H48Z" transform="translate(-2.783 -0.726)"/>
      <path id="Trazado_1039443" data-name="Trazado 1039443" d="M40,14h1.879v1.879H40Z" transform="translate(-2.299 -0.726)"/>
      <path id="Trazado_1039444" data-name="Trazado 1039444" d="M44,14h1.879v1.879H44Z" transform="translate(-2.541 -0.726)"/>
      <path id="Trazado_1039445" data-name="Trazado 1039445" d="M40,18h9.4v1.879H40Z" transform="translate(-2.299 -0.968)"/>
      <path id="Trazado_1039446" data-name="Trazado 1039446" d="M52,18h3.758v1.879H52Z" transform="translate(-3.025 -0.968)"/>
      <path id="Trazado_1039447" data-name="Trazado 1039447" d="M26,22H37.274v1.879H26Z" transform="translate(-1.452 -1.21)"/>
      <path id="Trazado_1039448" data-name="Trazado 1039448" d="M26,26H37.274v1.879H26Z" transform="translate(-1.452 -1.452)"/>
      <path id="Trazado_1039449" data-name="Trazado 1039449" d="M40,22h3.758v1.879H40Z" transform="translate(-2.299 -1.21)"/>
      <path id="Trazado_1039450" data-name="Trazado 1039450" d="M46,22h9.4v1.879H46Z" transform="translate(-2.662 -1.21)"/>
      <path id="Trazado_1039451" data-name="Trazado 1039451" d="M40,26h9.4v1.879H40Z" transform="translate(-2.299 -1.452)"/>
      <path id="Trazado_1039452" data-name="Trazado 1039452" d="M52,26h3.758v1.879H52Z" transform="translate(-3.025 -1.452)"/>
    </g>
  </g>
</svg>
