<svg xmlns="http://www.w3.org/2000/svg" width="86.369" height="86.369" viewBox="0 0 86.369 86.369">
  <g id="Grupo_1211930" data-name="Grupo 1211930" transform="translate(-1082.051 -8299.999)">
    <g id="Grupo_1200217" data-name="Grupo 1200217" transform="translate(12762.551 20202.35)">
      <g id="Grupo_1099347" data-name="Grupo 1099347" transform="translate(-11585.5 -12119)">
        <g id="Grupo_1099341" data-name="Grupo 1099341" transform="translate(-95 216.65)">
          <g id="Rectángulo_402588" data-name="Rectángulo 402588" transform="translate(0 0)" fill="#f4c5c5" stroke="#fff" stroke-width="5">
            <rect width="86.369" height="86.369" rx="14" stroke="none"/>
            <rect x="2.5" y="2.5" width="81.369" height="81.369" rx="11.5" fill="none"/>
          </g>
        </g>
      </g>
    </g>
    <g id="hot-weather_1503692" transform="translate(1097.607 8315.512)">
      <g id="Grupo_1211904" data-name="Grupo 1211904" transform="translate(1.861 1.86)">
        <path id="Trazado_1034473" data-name="Trazado 1034473" d="M16.627,36.234V7.163A5.162,5.162,0,0,0,11.465,2h0A5.162,5.162,0,0,0,6.3,7.163V36.234a9.465,9.465,0,1,0,10.325,0Z" transform="translate(-2 -2)" fill="#9c9c9c"/>
      </g>
      <g id="Grupo_1211905" data-name="Grupo 1211905" transform="translate(1.861 2.03)">
        <path id="Trazado_1034474" data-name="Trazado 1034474" d="M10.156,53.558a9.454,9.454,0,0,0,3.89-17.3V7.19A5.16,5.16,0,0,0,10.174,2.2,5.16,5.16,0,0,0,6.3,7.19V36.262a9.457,9.457,0,0,0,3.854,17.3Z" transform="translate(-2 -2.197)" fill="#bdbdbd"/>
      </g>
      <g id="Grupo_1211906" data-name="Grupo 1211906" transform="translate(5.302 20.79)">
        <path id="Trazado_1034475" data-name="Trazado 1034475" d="M13.744,41.462V24H10.3V41.462a6.023,6.023,0,1,0,3.442,0Z" transform="translate(-6 -24)" fill="#00c0f1"/>
      </g>
      <g id="Grupo_1211907" data-name="Grupo 1211907" transform="translate(36.278 7.023)">
        <circle id="Elipse_12168" data-name="Elipse 12168" cx="6.023" cy="6.023" r="6.023" fill="#bf9f00"/>
      </g>
      <g id="Grupo_1211908" data-name="Grupo 1211908" transform="translate(36.278 7.165)">
        <ellipse id="Elipse_12169" data-name="Elipse 12169" cx="4.732" cy="5.881" rx="4.732" ry="5.881" fill="#ffd400"/>
      </g>
      <g id="Grupo_1211909" data-name="Grupo 1211909" transform="translate(1.001 1)">
        <path id="Trazado_1034476" data-name="Trazado 1034476" d="M11.3,54.345a10.32,10.32,0,0,1-6-18.7V7.023a6.023,6.023,0,1,1,12.046,0V35.641a10.321,10.321,0,0,1-6.048,18.7Zm.025-51.625a4.307,4.307,0,0,0-4.3,4.3V36.095a.86.86,0,0,1-.39.72,8.605,8.605,0,1,0,9.384,0,.863.863,0,0,1-.39-.721V7.023A4.307,4.307,0,0,0,11.325,2.721Z" transform="translate(-1.001 -1)"/>
      </g>
      <g id="Grupo_1211910" data-name="Grupo 1211910" transform="translate(4.442 19.93)">
        <path id="Trazado_1034477" data-name="Trazado 1034477" d="M11.884,53.976A6.882,6.882,0,0,1,9.3,40.713V23.86a.86.86,0,0,1,.86-.86H13.6a.86.86,0,0,1,.86.86V40.713a6.882,6.882,0,0,1-2.581,13.263Zm-.86-29.255v16.6a.86.86,0,0,1-.615.824,5.163,5.163,0,1,0,2.951,0,.86.86,0,0,1-.615-.824v-16.6Z" transform="translate(-5 -23)"/>
      </g>
      <g id="Grupo_1211911" data-name="Grupo 1211911" transform="translate(5.302 41.44)">
        <path id="Trazado_1034478" data-name="Trazado 1034478" d="M13.744,53.163a.858.858,0,0,1-.608-.252L10.3,50.077,9.19,51.19a.857.857,0,0,1-.608.252H6V49.721H8.225l1.469-1.469a.859.859,0,0,1,1.217,0l2.833,2.833,1.113-1.113a.857.857,0,0,1,.608-.252h2.581v1.721H15.821L14.352,52.91A.858.858,0,0,1,13.744,53.163Z" transform="translate(-6 -48)"/>
      </g>
      <g id="Grupo_1211912" data-name="Grupo 1211912" transform="translate(12.186 16.488)">
        <rect id="Rectángulo_408835" data-name="Rectángulo 408835" width="4.302" height="1.721"/>
      </g>
      <g id="Grupo_1211913" data-name="Grupo 1211913" transform="translate(12.186 13.046)">
        <rect id="Rectángulo_408836" data-name="Rectángulo 408836" width="4.302" height="1.721"/>
      </g>
      <g id="Grupo_1211914" data-name="Grupo 1211914" transform="translate(12.186 9.604)">
        <rect id="Rectángulo_408837" data-name="Rectángulo 408837" width="4.302" height="1.721"/>
      </g>
      <g id="Grupo_1211915" data-name="Grupo 1211915" transform="translate(35.418 6.163)">
        <path id="Trazado_1034479" data-name="Trazado 1034479" d="M47.884,20.767a6.884,6.884,0,1,1,6.883-6.884A6.892,6.892,0,0,1,47.884,20.767Zm0-12.046a5.163,5.163,0,1,0,5.163,5.163A5.168,5.168,0,0,0,47.884,8.721Z" transform="translate(-41 -7)"/>
      </g>
      <g id="Grupo_1211916" data-name="Grupo 1211916" transform="translate(41.441 1)">
        <rect id="Rectángulo_408838" data-name="Rectángulo 408838" width="1.721" height="3.442"/>
      </g>
      <g id="Grupo_1211917" data-name="Grupo 1211917" transform="translate(41.441 21.651)">
        <rect id="Rectángulo_408839" data-name="Rectángulo 408839" width="1.721" height="3.442"/>
      </g>
      <g id="Grupo_1211918" data-name="Grupo 1211918" transform="translate(50.905 12.186)">
        <rect id="Rectángulo_408840" data-name="Rectángulo 408840" width="3.442" height="1.721" transform="translate(0 0)"/>
      </g>
      <g id="Grupo_1211919" data-name="Grupo 1211919" transform="translate(30.255 12.186)">
        <rect id="Rectángulo_408841" data-name="Rectángulo 408841" width="3.442" height="1.721" transform="translate(0 0)"/>
      </g>
      <g id="Grupo_1211920" data-name="Grupo 1211920" transform="translate(47.716 18.461)">
        <rect id="Rectángulo_408842" data-name="Rectángulo 408842" width="1.721" height="3.651" transform="translate(0 1.217) rotate(-45)"/>
      </g>
      <g id="Grupo_1211921" data-name="Grupo 1211921" transform="translate(33.088 3.834)">
        <rect id="Rectángulo_408843" data-name="Rectángulo 408843" width="1.721" height="3.651" transform="translate(0 1.217) rotate(-45)"/>
      </g>
      <g id="Grupo_1211922" data-name="Grupo 1211922" transform="translate(47.716 3.833)">
        <rect id="Rectángulo_408844" data-name="Rectángulo 408844" width="3.651" height="1.721" transform="translate(0 2.582) rotate(-45)"/>
      </g>
      <g id="Grupo_1211923" data-name="Grupo 1211923" transform="translate(33.088 18.46)">
        <rect id="Rectángulo_408845" data-name="Rectángulo 408845" width="3.651" height="1.721" transform="translate(0 2.582) rotate(-45)"/>
      </g>
      <g id="Grupo_1211924" data-name="Grupo 1211924" transform="translate(28.534 44.882)">
        <rect id="Rectángulo_408846" data-name="Rectángulo 408846" width="1.721" height="8.604"/>
      </g>
      <g id="Grupo_1211925" data-name="Grupo 1211925" transform="translate(25.344 44.022)">
        <path id="Trazado_1034480" data-name="Trazado 1034480" d="M36.176,55.91l-2.833-2.833L30.51,55.91l-1.217-1.217,3.442-3.442a.859.859,0,0,1,1.217,0l3.442,3.442Z" transform="translate(-29.293 -51)"/>
      </g>
      <g id="Grupo_1211926" data-name="Grupo 1211926" transform="translate(38.859 37.999)">
        <rect id="Rectángulo_408847" data-name="Rectángulo 408847" width="1.721" height="15.488"/>
      </g>
      <g id="Grupo_1211927" data-name="Grupo 1211927" transform="translate(35.67 37.138)">
        <path id="Trazado_1034481" data-name="Trazado 1034481" d="M48.176,47.91l-2.833-2.833L42.51,47.91l-1.217-1.217,3.442-3.442a.859.859,0,0,1,1.217,0l3.442,3.442Z" transform="translate(-41.293 -43)"/>
      </g>
      <g id="Grupo_1211928" data-name="Grupo 1211928" transform="translate(49.185 31.115)">
        <rect id="Rectángulo_408848" data-name="Rectángulo 408848" width="1.721" height="22.371"/>
      </g>
      <g id="Grupo_1211929" data-name="Grupo 1211929" transform="translate(45.995 30.255)">
        <path id="Trazado_1034482" data-name="Trazado 1034482" d="M60.177,39.91l-2.833-2.833L54.51,39.91l-1.217-1.217,3.442-3.442a.859.859,0,0,1,1.217,0l3.442,3.442Z" transform="translate(-53.293 -35)"/>
      </g>
    </g>
  </g>
</svg>
