<svg xmlns="http://www.w3.org/2000/svg" width="86.369" height="86.369" viewBox="0 0 86.369 86.369">
  <g id="Grupo_1211937" data-name="Grupo 1211937" transform="translate(6601.269 3308.299)">
    <g id="Grupo_1200220" data-name="Grupo 1200220" transform="translate(5079.23 8594.051)">
      <g id="Grupo_1099347" data-name="Grupo 1099347" transform="translate(-11585.5 -12119)">
        <g id="Grupo_1099341" data-name="Grupo 1099341" transform="translate(-95 216.65)">
          <g id="Rectángulo_402588" data-name="Rectángulo 402588" transform="translate(0 0)" fill="#f4c5c5" stroke="#fff" stroke-width="5">
            <rect width="86.369" height="86.369" rx="14" stroke="none"/>
            <rect x="2.5" y="2.5" width="81.369" height="81.369" rx="11.5" fill="none"/>
          </g>
        </g>
      </g>
    </g>
    <g id="humidity_5027747" transform="translate(-6601.28 -3292.624)">
      <g id="Grupo_1211933" data-name="Grupo 1211933" transform="translate(18.65 1.075)">
        <path id="Trazado_1034489" data-name="Trazado 1034489" d="M60.906,37.151l0,0L48.076,11.758a3.2,3.2,0,0,0-5.715,0L29.527,37.149a18.315,18.315,0,0,0-1.949,8.405,17.644,17.644,0,1,0,33.329-8.4Z" transform="translate(-27.574 -10)" fill="#b2daff"/>
      </g>
      <g id="Grupo_1211934" data-name="Grupo 1211934" transform="translate(24.053 24.15)">
        <path id="Trazado_1034490" data-name="Trazado 1034490" d="M102.352,237A12.254,12.254,0,1,1,89.13,224.78q.483-.038.968-.038A12.254,12.254,0,0,1,102.352,237Z" transform="translate(-77.856 -224.742)" fill="#ff5c7d"/>
      </g>
      <g id="Grupo_1211935" data-name="Grupo 1211935" transform="translate(45.864 1.075)">
        <path id="Trazado_1034491" data-name="Trazado 1034491" d="M302.714,33.4A12.308,12.308,0,0,1,290.4,45.709a12.16,12.16,0,0,1-1.5-.093c0-.129,0-.261,0-.39a17.568,17.568,0,0,0-1.957-8.074l0,0-6.122-12.112,6.71-13.278a3.2,3.2,0,0,1,5.716,0l8.089,16.005a12.585,12.585,0,0,1,1.362,5.634Z" transform="translate(-280.837 -10.003)" fill="#8cc8ff"/>
      </g>
      <g id="Grupo_1211936" data-name="Grupo 1211936" transform="translate(17.575 0)">
        <path id="Trazado_1034492" data-name="Trazado 1034492" d="M86.071,223.257a1.075,1.075,0,0,0-.813,1.989,11.181,11.181,0,0,1-4.148,21.533,11.3,11.3,0,0,1-11.258-11.1,11.134,11.134,0,0,1,6.936-10.424,1.075,1.075,0,0,0-.816-1.988A13.333,13.333,0,0,0,67.7,235.693a13.468,13.468,0,0,0,13.422,13.236,13.331,13.331,0,0,0,4.946-25.671Z" transform="translate(-62.316 -199.195)"/>
        <path id="Trazado_1034493" data-name="Trazado 1034493" d="M67.371,18.425q-.015-.036-.033-.072L59.249,2.348a4.277,4.277,0,0,0-7.634,0L45.864,13.729,40.111,2.347a4.277,4.277,0,0,0-7.633,0L19.643,27.739A18.725,18.725,0,0,0,36.295,55.018,18.719,18.719,0,0,0,54.949,37.846c.161.006.322.01.483.01A13.4,13.4,0,0,0,68.816,24.472a13.243,13.243,0,0,0-1.445-6.047ZM47.983,48.042a16.458,16.458,0,0,1-11.689,4.826A16.753,16.753,0,0,1,19.727,36.609a20.225,20.225,0,0,1,1.88-7.993L34.4,3.317a2.127,2.127,0,0,1,3.8,0l12.788,25.3a17.045,17.045,0,0,1,1.879,8.058,16.451,16.451,0,0,1-4.876,11.369Zm7.449-12.336q-.214,0-.429-.008a18.968,18.968,0,0,0-2.058-7.961L47.068,16.111,53.533,3.317a2.127,2.127,0,0,1,3.8,0l8.052,15.931a13.261,13.261,0,0,1,1.284,5.223A11.247,11.247,0,0,1,55.432,35.707Z" transform="translate(-17.575 0)"/>
        <path id="Trazado_1034494" data-name="Trazado 1034494" d="M145.769,287.808a1.074,1.074,0,0,0,1.49-.3l7.83-11.779a1.075,1.075,0,1,0-1.79-1.19l-7.83,11.779A1.075,1.075,0,0,0,145.769,287.808Z" transform="translate(-131.565 -244.61)"/>
        <path id="Trazado_1034495" data-name="Trazado 1034495" d="M122.235,272.565a3.391,3.391,0,1,0,3.384-3.613A3.508,3.508,0,0,0,122.235,272.565Zm4.619,0a1.253,1.253,0,1,1-1.235-1.464A1.366,1.366,0,0,1,126.854,272.565Z" transform="translate(-110.989 -240.051)"/>
        <path id="Trazado_1034496" data-name="Trazado 1034496" d="M196.652,347.51a3.391,3.391,0,1,0,3.384-3.613,3.508,3.508,0,0,0-3.384,3.613Zm4.619,0a1.253,1.253,0,1,1-1.235-1.464A1.366,1.366,0,0,1,201.271,347.51Z" transform="translate(-177.409 -306.943)"/>
        <path id="Trazado_1034497" data-name="Trazado 1034497" d="M182.268,216.713a1.075,1.075,0,1,0-.4-1.28A1.083,1.083,0,0,0,182.268,216.713Z" transform="translate(-164.146 -191.669)"/>
      </g>
    </g>
  </g>
</svg>
