<svg xmlns="http://www.w3.org/2000/svg" width="86.369" height="86.369" viewBox="0 0 86.369 86.369">
  <g id="Grupo_1211939" data-name="Grupo 1211939" transform="translate(6916.269 2943.299)">
    <g id="Grupo_1200221" data-name="Grupo 1200221" transform="translate(4764.23 8959.051)">
      <g id="Grupo_1099347" data-name="Grupo 1099347" transform="translate(-11585.5 -12119)">
        <g id="Grupo_1099341" data-name="Grupo 1099341" transform="translate(-95 216.65)">
          <g id="Rectángulo_402588" data-name="Rectángulo 402588" transform="translate(0 0)" fill="#f4c5c5" stroke="#fff" stroke-width="5">
            <rect width="86.369" height="86.369" rx="14" stroke="none"/>
            <rect x="2.5" y="2.5" width="81.369" height="81.369" rx="11.5" fill="none"/>
          </g>
        </g>
      </g>
    </g>
    <g id="renewable-energy_2321478" transform="translate(-6901.866 -2933.823)">
      <path id="Trazado_1034498" data-name="Trazado 1034498" d="M58.542,199.725l-2.9-3.1a20.892,20.892,0,0,1-38.75,13.829l2.727-.637a.314.314,0,0,0,.158-.521l-8.232-8.779a.314.314,0,0,0-.53.124L7.521,212.162a.314.314,0,0,0,.373.4l2.977-.7a26.888,26.888,0,0,0,50.154-18.708L59.072,199.6a.314.314,0,0,1-.53.124Z" transform="translate(-6.675 -166.411)" fill="#698ed5"/>
      <path id="Trazado_1034499" data-name="Trazado 1034499" d="M16.9,40.833l2.9,3.1A20.892,20.892,0,0,1,58.558,30.1l-2.727.637a.314.314,0,0,0-.158.521l8.232,8.779a.314.314,0,0,0,.53-.124L67.924,28.4a.314.314,0,0,0-.373-.4l-2.977.7A26.888,26.888,0,0,0,14.421,47.4l1.952-6.446a.314.314,0,0,1,.53-.124Z" transform="translate(-12.039 -6.724)" fill="#80cb8e"/>
      <path id="Trazado_1034500" data-name="Trazado 1034500" d="M168.049,193.156,166.1,199.6a.314.314,0,0,1-.53.124l-1.076-1.148a26.888,26.888,0,0,1-36.622,24.367,26.9,26.9,0,0,0,40.181-29.789Z" transform="translate(-113.7 -166.411)" fill="#4073c8"/>
      <path id="Trazado_1034501" data-name="Trazado 1034501" d="M361.526,42.666l-2.977.7a26.812,26.812,0,0,0-14.4-13.3,27.316,27.316,0,0,1,12.777,23.618l.959,1.022a.314.314,0,0,0,.53-.124L361.9,43.063A.315.315,0,0,0,361.526,42.666Z" transform="translate(-306.014 -21.391)" fill="#66b49d"/>
      <g id="Grupo_1211938" data-name="Grupo 1211938" transform="translate(12.077 22.4)">
        <path id="Trazado_1034502" data-name="Trazado 1034502" d="M168.674,157.174a3.227,3.227,0,0,1-3.227,3.227H149.9a1.649,1.649,0,0,1-1.667-1.584,1.614,1.614,0,0,1,1.613-1.644H162.4a1.649,1.649,0,0,1-1.667-1.584,1.614,1.614,0,0,1,1.613-1.644h3.1A3.227,3.227,0,0,1,168.674,157.174Z" transform="translate(-143.883 -153.947)" fill="#f9efaf"/>
        <path id="Trazado_1034503" data-name="Trazado 1034503" d="M161.712,303.1a3.227,3.227,0,0,0-3.227-3.227H138.247a1.649,1.649,0,0,0-1.667,1.584,1.614,1.614,0,0,0,1.613,1.644h15.951a1.649,1.649,0,0,0-1.667,1.584,1.614,1.614,0,0,0,1.613,1.644h4.393A3.227,3.227,0,0,0,161.712,303.1Z" transform="translate(-133.523 -283.705)" fill="#f9efaf"/>
        <path id="Trazado_1034504" data-name="Trazado 1034504" d="M138.345,218.8H110.662a1.649,1.649,0,0,1-1.667-1.584,1.614,1.614,0,0,1,1.613-1.644h26.624a1.649,1.649,0,0,1-1.667-1.583,1.614,1.614,0,0,1,1.613-1.644h1.166a3.227,3.227,0,0,1,0,6.455Z" transform="translate(-108.995 -205.875)" fill="#f9efaf"/>
      </g>
      <path id="Trazado_1034505" data-name="Trazado 1034505" d="M1.408,46.958l2.338-.546a27.7,27.7,0,0,0,51.819-7.459.831.831,0,1,0-1.632-.314A26.041,26.041,0,0,1,4.943,45.09a.831.831,0,0,0-.937-.446L1.9,45.136,4.87,35.33,11.879,42.8l-1.855.434a.831.831,0,0,0-.533,1.22A21.719,21.719,0,0,0,50.052,32.594l1.209,1.289a1.147,1.147,0,0,0,1.932-.451l.976-3.224a26.832,26.832,0,0,1,.215,4.426.831.831,0,1,0,1.661.058,29.035,29.035,0,0,0-.834-7.925l1.47-4.853a1.147,1.147,0,0,0-1.357-1.447l-2.338.546A27.694,27.694,0,0,0,15.761,9.053a28.013,28.013,0,0,0-9.589,8.106.831.831,0,0,0,1.331,1A26.182,26.182,0,0,1,28.366,7.678,25.846,25.846,0,0,1,51.788,22.333a.831.831,0,0,0,.937.446l2.106-.492-2.97,9.806L44.852,24.62l1.855-.434a.831.831,0,0,0,.533-1.22A21.719,21.719,0,0,0,6.679,34.829L5.47,33.54a1.147,1.147,0,0,0-1.932.452l-.973,3.214A26.191,26.191,0,0,1,5.422,21.417a.831.831,0,0,0-1.464-.787A27.874,27.874,0,0,0,1.52,40.657L.051,45.511a1.147,1.147,0,0,0,1.357,1.447Zm26.958-33.3a20.089,20.089,0,0,1,16.849,9.168l-1.612.377a1.146,1.146,0,0,0-.575,1.9L48.181,30.6a20.061,20.061,0,0,1-36.665,14l1.612-.377a1.147,1.147,0,0,0,.575-1.9l-5.153-5.5A20.086,20.086,0,0,1,28.366,13.66Z" transform="translate(0)"/>
      <path id="Trazado_1034506" data-name="Trazado 1034506" d="M143.228,154.564h15.549a4.058,4.058,0,1,0,0-8.117h-3.1a2.441,2.441,0,0,0-2.312,3.227H143.175a2.443,2.443,0,0,0-2.444,2.49A2.484,2.484,0,0,0,143.228,154.564Zm-.053-3.227h15.6a.831.831,0,0,0,0-1.662h-3.049a.815.815,0,0,1-.836-.768.782.782,0,0,1,.783-.8h3.1a2.4,2.4,0,1,1,0,4.793H143.228a.815.815,0,0,1-.836-.768A.782.782,0,0,1,143.175,151.336Z" transform="translate(-125.137 -124.878)"/>
      <path id="Trazado_1034507" data-name="Trazado 1034507" d="M151.815,292.374H131.577a2.484,2.484,0,0,0-2.5,2.4,2.443,2.443,0,0,0,2.444,2.49h13.585a2.441,2.441,0,0,0,2.312,3.227h4.394a4.058,4.058,0,0,0,0-8.117Zm2.4,4.058a2.4,2.4,0,0,1-2.4,2.4h-4.394a.782.782,0,0,1-.783-.8.815.815,0,0,1,.836-.768h4.34a.831.831,0,0,0,0-1.662H131.524a.782.782,0,0,1-.783-.8.815.815,0,0,1,.836-.768h20.238a2.4,2.4,0,0,1,2.4,2.4Z" transform="translate(-114.777 -254.636)"/>
      <path id="Trazado_1034508" data-name="Trazado 1034508" d="M131.676,212.963a4.058,4.058,0,0,0,0-8.117h-1.166a2.441,2.441,0,0,0-2.312,3.227h-1.033a.831.831,0,0,0,0,1.662h4.512a.831.831,0,0,0,0-1.662h-1.113a.815.815,0,0,1-.836-.768.782.782,0,0,1,.783-.8h1.166a2.4,2.4,0,1,1,0,4.793H103.993a.815.815,0,0,1-.836-.768.782.782,0,0,1,.783-.8h19.347a.831.831,0,1,0,0-1.662H103.939a2.443,2.443,0,0,0-2.444,2.49,2.484,2.484,0,0,0,2.5,2.4Z" transform="translate(-90.249 -176.806)"/>
    </g>
  </g>
</svg>
