<svg xmlns="http://www.w3.org/2000/svg" width="90" height="90" viewBox="0 0 90 90">
  <g id="Grupo_1212617" data-name="Grupo 1212617" transform="translate(-200.15 -1587.045)">
    <g id="Grupo_1211677" data-name="Grupo 1211677" transform="translate(200.15 1587.045)">
      <circle id="Elipse_11588" data-name="Elipse 11588" cx="45" cy="45" r="45" fill="#efd026"/>
    </g>
    <g id="no-meat_10750991" transform="translate(215.151 1602.42)">
      <path id="Trazado_1037322" data-name="Trazado 1037322" d="M42.358,28.484l1.2-.433c3.894-1.211,5.07-4.935,5.426-7.076a1.7,1.7,0,0,0-1.6-1.878,15.425,15.425,0,0,0-7.17.887H9.785a15.425,15.425,0,0,0-7.17-.887,1.7,1.7,0,0,0-1.6,1.878c.356,2.142,1.532,5.865,5.426,7.076l1.2.433Z" fill="#f5f5f5"/>
      <g id="Grupo_1212616" data-name="Grupo 1212616">
        <path id="Trazado_1037323" data-name="Trazado 1037323" d="M6.785,19.983h3a15.349,15.349,0,0,0-6.919-.909A14.87,14.87,0,0,1,6.785,19.983Z" fill="#dfc49c"/>
        <path id="Trazado_1037324" data-name="Trazado 1037324" d="M47.385,19.1a16.064,16.064,0,0,0-3.251-.022c.082.008.173.014.251.022a1.7,1.7,0,0,1,1.6,1.878c-.356,2.142-1.532,5.865-5.426,7.076l-1.2.433h3l1.2-.433c3.894-1.211,5.07-4.935,5.426-7.076A1.7,1.7,0,0,0,47.385,19.1Z" fill="#cfd8dc"/>
      </g>
      <path id="Trazado_1037325" data-name="Trazado 1037325" d="M36.25,11.96a42.7,42.7,0,0,1,6.46,19.23L31.07,46.46A31.9,31.9,0,0,1,25,47c-7.45,0-11.86-2.07-14.44-4.29a11.973,11.973,0,0,1-2.89-3.65A6.657,6.657,0,0,1,7,36.05c.21-10.99,3.29-18.64,6.46-23.64Z" fill="#ffe0b2"/>
      <path id="Trazado_1037326" data-name="Trazado 1037326" d="M36.25,11.96l-2.963.059A42.728,42.728,0,0,1,39.71,31.191L28.07,46.461a30.435,30.435,0,0,1-4.59.508c.493.02,1,.032,1.52.032a31.9,31.9,0,0,0,6.07-.54l11.64-15.27a42.7,42.7,0,0,0-6.46-19.23Z" fill="#dfc49c"/>
      <path id="Trazado_1037327" data-name="Trazado 1037327" d="M33.495,13.934a3.625,3.625,0,0,1,.144,1.027,4.33,4.33,0,0,1-8.64,0v.558A3.613,3.613,0,0,1,21.275,19a3.609,3.609,0,0,1-3.719-3.481,2.979,2.979,0,0,1,.033-.461A4.747,4.747,0,0,1,13,10.47a4.657,4.657,0,0,1,3.5-4.4A3.625,3.625,0,0,1,16.36,5.04,4.191,4.191,0,0,1,20.68,1,4.191,4.191,0,0,1,25,5.04V4.482a3.73,3.73,0,0,1,7.443,0,2.979,2.979,0,0,1-.033.461A4.747,4.747,0,0,1,37,9.531a4.657,4.657,0,0,1-3.505,4.4Z" fill="#f5f5f5"/>
      <path id="Trazado_1037328" data-name="Trazado 1037328" d="M37,9.53a4.746,4.746,0,0,0-4.59-4.588,3.108,3.108,0,0,0,.033-.461A3.612,3.612,0,0,0,28.724,1a3.922,3.922,0,0,0-1.5.3,3.486,3.486,0,0,1,2.221,3.18,2.979,2.979,0,0,1-.033.461A4.747,4.747,0,0,1,34,9.53a4.657,4.657,0,0,1-3.505,4.4,3.625,3.625,0,0,1,.144,1.027,4.056,4.056,0,0,1-2.82,3.773,4.525,4.525,0,0,0,1.5.266,4.191,4.191,0,0,0,4.32-4.039,3.656,3.656,0,0,0-.144-1.027A4.659,4.659,0,0,0,37,9.53Z" fill="#cfd8dc"/>
      <ellipse id="Elipse_12208" data-name="Elipse 12208" cx="2" cy="3" rx="2" ry="3" transform="translate(17 24)" fill="#607d8b"/>
      <ellipse id="Elipse_12209" data-name="Elipse 12209" cx="2" cy="3" rx="2" ry="3" transform="translate(29 24)" fill="#607d8b"/>
      <circle id="Elipse_12210" data-name="Elipse 12210" cx="14" cy="14" r="14" transform="translate(31 31)" fill="#f5f5f5"/>
      <path id="Trazado_1037329" data-name="Trazado 1037329" d="M45,31a14.021,14.021,0,0,0-1.5.083,14,14,0,0,1,0,27.834A14,14,0,1,0,45,31Z" fill="#cfd8dc"/>
      <path id="Trazado_1037330" data-name="Trazado 1037330" d="M52.12,47.88a3,3,0,0,1,0,4.24,2.994,2.994,0,0,1-4.24,0L45,49.24l-2.88,2.88a3,3,0,0,1-4.24,0,2.994,2.994,0,0,1,0-4.24L40.76,45l-2.88-2.88a3,3,0,0,1,4.24-4.24L45,40.76l2.88-2.88a3,3,0,0,1,4.24,4.24L49.24,45Z" fill="#f44335"/>
      <path id="Trazado_1037331" data-name="Trazado 1037331" d="M49.24,45l2.88-2.88a2.992,2.992,0,0,0-3.62-4.7,2.946,2.946,0,0,1,.62.463,3,3,0,0,1,0,4.24L46.24,45l2.88,2.88a3,3,0,0,1,0,4.24,2.883,2.883,0,0,1-.62.467,2.994,2.994,0,0,0,3.62-4.707Z" fill="#c81e1e"/>
      <path id="Trazado_1037332" data-name="Trazado 1037332" d="M31,45c0,.49.03.98.07,1.46A31.9,31.9,0,0,1,25,47c-7.45,0-11.86-2.07-14.44-4.29C13.75,39.26,19.03,37,25,37a22.152,22.152,0,0,1,7.68,1.34A13.973,13.973,0,0,0,31,45Z" fill="#f5f5f5"/>
      <path id="Trazado_1037333" data-name="Trazado 1037333" d="M32.68,38.34A22.152,22.152,0,0,0,25,37c-.488,0-.962.038-1.44.068a21.861,21.861,0,0,1,6.12,1.272A13.973,13.973,0,0,0,28,45c0,.49.03.98.07,1.46a30.435,30.435,0,0,1-4.59.508c.493.02,1,.032,1.52.032a31.9,31.9,0,0,0,6.07-.54c-.04-.48-.07-.97-.07-1.46A13.973,13.973,0,0,1,32.68,38.34Z" fill="#cfd8dc"/>
      <path id="Trazado_1037334" data-name="Trazado 1037334" d="M6.777,39.511a12.978,12.978,0,0,0,3.13,3.957C13.4,46.475,18.479,48,25,48a34.157,34.157,0,0,0,5.243-.39A14.994,14.994,0,1,0,45,30c-.482,0-.957.028-1.427.072-.038-.309-.077-.617-.12-.922l.4-.144c4.413-1.373,5.726-5.518,6.116-7.874a2.518,2.518,0,0,0-.494-1.935,2.893,2.893,0,0,0-1.979-1.1,16.632,16.632,0,0,0-6.692.626,38.982,38.982,0,0,0-3.4-6.788A5.3,5.3,0,0,0,38,9.53a5.69,5.69,0,0,0-4.576-5.453A4.638,4.638,0,0,0,28.723,0a4.8,4.8,0,0,0-3.871,1.916A5.423,5.423,0,0,0,20.68,0a5.191,5.191,0,0,0-5.319,5.039q0,.19.015.378A5.626,5.626,0,0,0,12,10.469a5.293,5.293,0,0,0,.343,1.874A39.237,39.237,0,0,0,9.2,18.729,16.637,16.637,0,0,0,2.5,18.1,2.89,2.89,0,0,0,.526,19.2a2.515,2.515,0,0,0-.493,1.94c.39,2.35,1.7,6.495,6.072,7.853l.427.154A58.2,58.2,0,0,0,6,36.039a7.692,7.692,0,0,0,.777,3.47ZM26,45.979V43.42l1.7-1.668a1,1,0,0,0-1.4-1.428l-1.293,1.269-1.3-1.3a1,1,0,1,0-1.414,1.414L24,43.414v2.557c-5.013-.132-9.009-1.254-11.9-3.346A19.214,19.214,0,0,1,25,38a21.261,21.261,0,0,1,6.288.944A14.9,14.9,0,0,0,30,45c0,.209.023.412.031.619a30.976,30.976,0,0,1-4.031.36ZM58,45A13,13,0,1,1,45,32,13.015,13.015,0,0,1,58,45ZM47.274,20.09a.887.887,0,0,1,.609.319.531.531,0,0,1,.112.4c-.515,3.1-1.945,5.275-4.865,6.33a47.136,47.136,0,0,0-1.639-6.536,14.637,14.637,0,0,1,5.784-.516ZM16.776,7.029a1,1,0,0,0,.688-1.244,2.647,2.647,0,0,1-.1-.746A3.192,3.192,0,0,1,20.679,2,3.193,3.193,0,0,1,24,5.039a1,1,0,0,0,2,0V4.481a2.733,2.733,0,0,1,5.443,0,2.01,2.01,0,0,1-.021.31,1,1,0,0,0,.927,1.149A3.75,3.75,0,0,1,36,9.53a3.682,3.682,0,0,1-2.776,3.441,1,1,0,0,0-.688,1.244,2.647,2.647,0,0,1,.1.746,3.332,3.332,0,0,1-6.639,0,1,1,0,0,0-2,0v.558A2.614,2.614,0,0,1,21.276,18a2.609,2.609,0,0,1-2.719-2.481,2.01,2.01,0,0,1,.021-.31,1,1,0,0,0-.927-1.149A3.75,3.75,0,0,1,14,10.47a3.682,3.682,0,0,1,2.776-3.441Zm-.2,8.894A4.638,4.638,0,0,0,21.276,20a4.8,4.8,0,0,0,3.871-1.916A5.423,5.423,0,0,0,29.319,20a5.167,5.167,0,0,0,5.305-5.417,5.949,5.949,0,0,0,1.469-.957A42,42,0,0,1,41.6,30.4a15.027,15.027,0,0,0-9.358,6.748A23.141,23.141,0,0,0,25,36a21.15,21.15,0,0,0-14.442,5.332,10.7,10.7,0,0,1-1.992-2.716A5.656,5.656,0,0,1,8,36.069c.161-8.425,2.046-15.753,5.562-21.842a5.967,5.967,0,0,0,3.014,1.7ZM6.742,27.1c-3.388-1.053-4.421-4.39-4.735-6.279a.53.53,0,0,1,.111-.408.879.879,0,0,1,.607-.318,14.577,14.577,0,0,1,5.793.518,46.66,46.66,0,0,0-1.647,6.534l-.13-.047Z"/>
      <path id="Trazado_1037335" data-name="Trazado 1037335" d="M37.173,52.827a4,4,0,0,0,5.654,0L45,50.654l2.167,2.167a3.993,3.993,0,0,0,5.66.006,4,4,0,0,0,0-5.654L50.654,45l2.173-2.173a4,4,0,0,0-5.654-5.654L45,39.346l-2.173-2.173a4,4,0,0,0-5.654,5.654L39.346,45l-2.167,2.167A3.99,3.99,0,0,0,37.173,52.827Zm1.414-4.24,2.88-2.88a1,1,0,0,0,0-1.414l-2.88-2.88a2,2,0,0,1,2.826-2.826l2.88,2.88a1,1,0,0,0,1.414,0l2.88-2.88a2,2,0,0,1,2.826,2.826l-2.88,2.88a1,1,0,0,0,0,1.414l2.88,2.88a2,2,0,0,1-.006,2.832,2.039,2.039,0,0,1-2.82-.006l-2.88-2.88a1,1,0,0,0-1.414,0l-2.88,2.88a2,2,0,1,1-2.826-2.826Z"/>
      <path id="Trazado_1037336" data-name="Trazado 1037336" d="M19,31c1.682,0,3-1.757,3-4s-1.318-4-3-4-3,1.757-3,4S17.318,31,19,31Zm0-6c.408,0,1,.779,1,2s-.592,2-1,2-1-.779-1-2S18.592,25,19,25Z"/>
      <path id="Trazado_1037337" data-name="Trazado 1037337" d="M31,31c1.682,0,3-1.757,3-4s-1.318-4-3-4-3,1.757-3,4S29.318,31,31,31Zm0-6c.408,0,1,.779,1,2s-.592,2-1,2-1-.779-1-2S30.592,25,31,25Z"/>
    </g>
  </g>
</svg>
