<svg xmlns="http://www.w3.org/2000/svg" width="86.369" height="86.369" viewBox="0 0 86.369 86.369">
  <g id="Grupo_1212026" data-name="Grupo 1212026" transform="translate(-284.265 -12573.919)">
    <g id="Grupo_1211570" data-name="Grupo 1211570" transform="translate(284.265 12573.92)">
      <g id="Grupo_1099347" data-name="Grupo 1099347" transform="translate(0 0)">
        <g id="Grupo_1099341" data-name="Grupo 1099341">
          <g id="Rectángulo_402588" data-name="Rectángulo 402588" transform="translate(0 0)" fill="#efd026" stroke="#fff" stroke-width="5">
            <rect width="86.369" height="86.369" rx="14" stroke="none"/>
            <rect x="2.5" y="2.5" width="81.369" height="81.369" rx="11.5" fill="none"/>
          </g>
        </g>
      </g>
    </g>
    <g id="viento" transform="translate(297.095 12586.861)">
      <g id="Grupo_1211984" data-name="Grupo 1211984" transform="translate(1 1.943)">
        <g id="Grupo_1211978" data-name="Grupo 1211978" transform="translate(0 16.98)">
          <path id="Trazado_1034578" data-name="Trazado 1034578" d="M42.506,40.753a10.359,10.359,0,0,1-8.188-4c-1.877-3.481-2.188-4.9-2.188-6.377,0-.34.019-.679.047-1.009h.009A10.373,10.373,0,0,1,42.506,20h1.887a14.15,14.15,0,0,1,8.49,25.469,29.271,29.271,0,0,1-11.32,2.83H1V44.526H13.716v-.009a2.822,2.822,0,0,0,1.1-.292l3.16-1.585-3.16-1.585a2.961,2.961,0,0,0-1.3-.3Z" transform="translate(-1 -20)" fill="#ccd1d9"/>
        </g>
        <g id="Grupo_1211979" data-name="Grupo 1211979" transform="translate(0.943 13.206)">
          <path id="Trazado_1034579" data-name="Trazado 1034579" d="M32.186,30.15c0,1.481.311,2.9,2.188,6.377l-.292.226H12.376a10.376,10.376,0,1,1,0-20.753h1.887a6.564,6.564,0,0,1,4.669,1.934A6.654,6.654,0,0,1,20.866,22.6a6.6,6.6,0,0,1-6.6,6.6l17.97-.066C32.2,29.47,32.186,29.81,32.186,30.15Z" transform="translate(-2 -16)" fill="#e6e9ed"/>
        </g>
        <g id="Grupo_1211980" data-name="Grupo 1211980" transform="translate(11.32 0)">
          <path id="Trazado_1034580" data-name="Trazado 1034580" d="M13,5.773l.415-.821A5.317,5.317,0,0,1,18.188,2a7.757,7.757,0,0,1,4.32,1.311l3.7,2.462-3.7,2.462a7.757,7.757,0,0,1-4.32,1.311,5.294,5.294,0,0,1-4.773-2.953Z" transform="translate(-13 -2)" fill="#b4dd7f"/>
        </g>
        <g id="Grupo_1211981" data-name="Grupo 1211981" transform="translate(16.036 49.052)">
          <path id="Trazado_1034581" data-name="Trazado 1034581" d="M27.433,56.83,24.82,58.792a4.352,4.352,0,0,1-6.226-1.066L18,56.83l.594-.9a4.352,4.352,0,0,1,6.226-1.066Z" transform="translate(-18 -54)" fill="#b4dd7f"/>
        </g>
        <g id="Grupo_1211982" data-name="Grupo 1211982" transform="translate(9.433 37.732)">
          <path id="Trazado_1034582" data-name="Trazado 1034582" d="M18.546,43.887l-3.16,1.585a2.822,2.822,0,0,1-1.1.292,1.392,1.392,0,0,1-.2.009,2.892,2.892,0,0,1-2.047-.849L11,43.887l1.038-1.038A2.892,2.892,0,0,1,14.085,42a2.961,2.961,0,0,1,1.3.3Z" transform="translate(-11 -42)" fill="#a0d468"/>
        </g>
        <g id="Grupo_1211983" data-name="Grupo 1211983" transform="translate(49.052 11.32)">
          <path id="Trazado_1034583" data-name="Trazado 1034583" d="M60.546,15.887l-3.16,1.585a2.961,2.961,0,0,1-1.3.3,2.892,2.892,0,0,1-2.047-.849L53,15.887l1.038-1.038A2.892,2.892,0,0,1,56.085,14a2.961,2.961,0,0,1,1.3.3Z" transform="translate(-53 -14)" fill="#a0d468"/>
        </g>
      </g>
      <g id="Grupo_1211985" data-name="Grupo 1211985" transform="translate(1 1)">
        <path id="Trazado_1034584" data-name="Trazado 1034584" d="M46.093,43.753H31v1.887H46.093a11.32,11.32,0,1,0,0-22.639H44.206a7.546,7.546,0,1,0,0,15.093h2.83a4.717,4.717,0,0,0,0-9.433H45.15a2.83,2.83,0,0,0,0,5.66h2.83V32.433H45.15a.943.943,0,1,1,0-1.887h1.887a2.83,2.83,0,0,1,0,5.66h-2.83a5.66,5.66,0,1,1,0-11.32h1.887a9.433,9.433,0,1,1,0,18.866Z" transform="translate(-2.701 -2.247)"/>
        <path id="Trazado_1034585" data-name="Trazado 1034585" d="M1,49h9.433v1.887H1Z" transform="translate(-1 -3.721)"/>
        <path id="Trazado_1034586" data-name="Trazado 1034586" d="M15,49h3.773v1.887H15Z" transform="translate(-1.794 -3.721)"/>
        <path id="Trazado_1034587" data-name="Trazado 1034587" d="M50.356,49H23v1.887H50.356a4.717,4.717,0,1,1,0,9.433h-.943a2.83,2.83,0,0,1,0-5.66.943.943,0,0,1,0,1.887h-.943v1.887h.943a2.83,2.83,0,1,0,0-5.66,4.717,4.717,0,0,0,0,9.433h.943a6.6,6.6,0,0,0,0-13.206Z" transform="translate(-2.247 -3.721)"/>
        <path id="Trazado_1034588" data-name="Trazado 1034588" d="M21.928,53a5.277,5.277,0,0,0-4.4,2.354l-.317.475H13v1.887h4.212l.317.475a5.288,5.288,0,0,0,7.572,1.3l3.621-2.716L25.1,54.057A5.324,5.324,0,0,0,21.928,53Zm2.04,4.98a3.4,3.4,0,0,1-4.87-.834l-.248-.373L19.1,56.4a3.4,3.4,0,0,1,4.87-.834l1.608,1.206Z" transform="translate(-1.68 -3.948)"/>
        <path id="Trazado_1034589" data-name="Trazado 1034589" d="M12.228,6.961a6.245,6.245,0,0,0,5.617,3.472,8.715,8.715,0,0,0,4.849-1.468l4.873-3.249L22.694,2.468A8.712,8.712,0,0,0,17.845,1a6.248,6.248,0,0,0-5.618,3.472l-.15.3H7V6.66h5.077Zm1.688-1.645a4.37,4.37,0,0,1,3.93-2.429,6.838,6.838,0,0,1,3.8,1.151l2.518,1.679L21.648,7.4a6.833,6.833,0,0,1-3.8,1.151,4.371,4.371,0,0,1-3.931-2.429l-.2-.4Z" transform="translate(-1.34 -1)"/>
        <path id="Trazado_1034590" data-name="Trazado 1034590" d="M15.468,46.255l4.847-2.424-4.849-2.425a3.94,3.94,0,0,0-4.436.722l-.76.76H5v1.887h5.269l.76.761a3.847,3.847,0,0,0,4.438.72Zm-3.474-2.424.37-.371a2.014,2.014,0,0,1,2.26-.367l1.474.738-1.473.736a2.006,2.006,0,0,1-2.261-.366Z" transform="translate(-1.227 -3.269)"/>
        <path id="Trazado_1034591" data-name="Trazado 1034591" d="M44.392,18.206H42.48a9.5,9.5,0,0,0,1.894-1.888h5.287l.76.76a3.846,3.846,0,0,0,4.438.721l4.848-2.424-4.849-2.424a3.937,3.937,0,0,0-4.437.721l-.76.76H45.485a9.367,9.367,0,0,0,.793-3.773,5.66,5.66,0,1,0-11.32,0,3.773,3.773,0,1,0,7.546,0H40.619a1.887,1.887,0,1,1-3.773,0,3.773,3.773,0,0,1,7.546,0,7.555,7.555,0,0,1-7.546,7.546H20.732a7.545,7.545,0,0,0-6.526-3.773H12.32a11.32,11.32,0,1,0,0,22.639H27.413V35.186H12.32a9.433,9.433,0,0,1,0-18.866h1.887a5.66,5.66,0,1,1,0,11.32h-2.83a2.83,2.83,0,0,1,0-5.66h1.887a.943.943,0,1,1,0,1.887h-2.83v1.887h2.83a2.83,2.83,0,1,0,0-5.66H11.376a4.717,4.717,0,0,0,0,9.433h2.83a7.518,7.518,0,0,0,7.3-9.433H36.263a11.188,11.188,0,0,0-4.906,11.32H16.093V33.3H31.846a11.329,11.329,0,0,0,10.659,7.546h1.887V38.959H42.506a9.433,9.433,0,0,1,0-18.866h1.887a13.207,13.207,0,0,1,7.925,23.771l1.133,1.509a15.094,15.094,0,0,0-9.058-27.167Zm7.363-3.2a2.006,2.006,0,0,1,2.26-.367l1.473.737-1.473.737a2,2,0,0,1-2.26-.367l-.37-.37Z" transform="translate(-1 -1.227)"/>
        <path id="Trazado_1034592" data-name="Trazado 1034592" d="M25,15h9.433v1.887H25Z" transform="translate(-2.361 -1.794)"/>
      </g>
    </g>
  </g>
</svg>
