<svg xmlns="http://www.w3.org/2000/svg" width="86.369" height="86.369" viewBox="0 0 86.369 86.369">
  <g id="Grupo_1212102" data-name="Grupo 1212102" transform="translate(6916.269 3308.299)">
    <g id="Grupo_1200219" data-name="Grupo 1200219" transform="translate(4764.23 8594.051)">
      <g id="Grupo_1099347" data-name="Grupo 1099347" transform="translate(-11585.5 -12119)">
        <g id="Grupo_1099341" data-name="Grupo 1099341" transform="translate(-95 216.65)">
          <g id="Rectángulo_402588" data-name="Rectángulo 402588" transform="translate(0 0)" fill="#f4c5c5" stroke="#fff" stroke-width="5">
            <rect width="86.369" height="86.369" rx="14" stroke="none"/>
            <rect x="2.5" y="2.5" width="81.369" height="81.369" rx="11.5" fill="none"/>
          </g>
        </g>
      </g>
    </g>
    <g id="low-temperature_4270930" transform="translate(-6984.68 -3295.853)">
      <g id="Grupo_1211931" data-name="Grupo 1211931" transform="translate(93.173 0.902)">
        <path id="Trazado_1034483" data-name="Trazado 1034483" d="M113.3,7.512a7.731,7.731,0,0,1,7.709,7.709v26.4a1.755,1.755,0,0,0,.749,1.494,13.52,13.52,0,1,1-16.909-.01c.848-.667.742-.926.742-1.484v-26.4A7.731,7.731,0,0,1,113.3,7.512Z" transform="translate(-99.78 -7.512)" fill="#afd2fc" fill-rule="evenodd"/>
        <path id="Trazado_1034484" data-name="Trazado 1034484" d="M201.726,7.512a7.731,7.731,0,0,1,7.709,7.709v26.4a1.755,1.755,0,0,0,.749,1.494,13.523,13.523,0,0,1-8.458,24.074,13.736,13.736,0,0,1-1.457-.078,13.523,13.523,0,0,0,7-24,1.754,1.754,0,0,1-.749-1.494v-26.4a7.735,7.735,0,0,0-6.252-7.57,7.628,7.628,0,0,1,1.457-.14Z" transform="translate(-188.203 -7.512)" fill="#8fb2f7" fill-rule="evenodd"/>
        <path id="Trazado_1034485" data-name="Trazado 1034485" d="M138.558,253.137a.851.851,0,0,0-.933.933v5.694a1.806,1.806,0,0,1-.766,1.464l-.885.616a9.676,9.676,0,1,0,11.028,0l-.871-.609a1.651,1.651,0,0,1-.779-1.463v-5.7a.827.827,0,0,0-.933-.933h-5.861Z" transform="translate(-127.966 -223.645)" fill="#61a3fa" fill-rule="evenodd"/>
        <path id="Trazado_1034486" data-name="Trazado 1034486" d="M200.27,279.365a9.774,9.774,0,0,0,1.457.109,9.678,9.678,0,0,0,5.514-17.631l-.871-.609a1.651,1.651,0,0,1-.779-1.463v-5.7a.827.827,0,0,0-.933-.933h-2.914a.828.828,0,0,1,.933.933v5.7a1.656,1.656,0,0,0,.776,1.463l.875.609a9.679,9.679,0,0,1-4.057,17.522Z" transform="translate(-188.204 -223.645)" fill="#5391f8" fill-rule="evenodd"/>
        <path id="Trazado_1034487" data-name="Trazado 1034487" d="M334.7,72.6h4.033a.934.934,0,0,1,.933.933V93.876h1.154c.453,0,.6.327.272.657l-3.713,3.693a.826.826,0,0,1-1.324,0l-3.713-3.693c-.364-.361-.238-.657.272-.657h1.154V73.529A.934.934,0,0,1,334.7,72.6Z" transform="translate(-304.232 -64.782)" fill="#ff6270" fill-rule="evenodd"/>
      </g>
      <path id="Trazado_1034488" data-name="Trazado 1034488" d="M113.506,20.762a.9.9,0,0,1,1.8,0V35.483a14.548,14.548,0,0,1,4.176,4.9A14.417,14.417,0,0,1,98.149,58.668a.9.9,0,1,1,1.062-1.447A12.625,12.625,0,1,0,113.924,36.7a.9.9,0,0,1-.419-.763Zm14.2-.507a.9.9,0,1,1,1.8,0v8.839h1.184a.9.9,0,0,1,.585,1.586l-4.986,4.959a.9.9,0,0,1-1.27,0l-5.034-5.007a.9.9,0,0,1,.633-1.538H121.8V8.717a.9.9,0,0,1,.9-.9h5.9a.9.9,0,0,1,.9.9v7.457a.9.9,0,1,1-1.8,0V9.615h-4.1V30a.9.9,0,0,1-.81.9l2.859,2.845,2.862-2.845a.9.9,0,0,1-.81-.9V20.255ZM99.885,10.844h2.947a.9.9,0,0,1,0,1.8H99.885v2.859h2.947a.9.9,0,0,1,0,1.8H99.885V20.17h2.947a.9.9,0,0,1,0,1.8H99.885v2.862h2.947a.9.9,0,0,1,0,1.8H99.885v9.278a.9.9,0,0,1-.388.769,12.719,12.719,0,0,0-4,4.527,12.6,12.6,0,0,0,1.028,13.328.9.9,0,0,1-1.45,1.065,14.422,14.422,0,0,1,3.006-20.119V8.611a8.611,8.611,0,0,1,17.222,0v8.073a.9.9,0,0,1-1.8,0V8.611a6.811,6.811,0,0,0-13.621,0v2.233ZM103.731,31.3v6.658a.9.9,0,0,1-.419.762L101.7,39.839a8.8,8.8,0,1,0,10,0l-1.647-1.147a.9.9,0,0,1-.388-.759V31.3Zm-1.8,6.188v-7.09a.9.9,0,0,1,.9-.9h7.726a.9.9,0,0,1,.9.9v7.09l1.263.878a10.577,10.577,0,1,1-12.056,0Z"/>
    </g>
  </g>
</svg>
