<svg xmlns="http://www.w3.org/2000/svg" width="86.369" height="86.369" viewBox="0 0 86.369 86.369">
  <g id="Grupo_1212107" data-name="Grupo 1212107" transform="translate(6589 -3830.779)">
    <g id="Grupo_1211589" data-name="Grupo 1211589" transform="translate(5091.5 15733.129)">
      <g id="Grupo_1099347" data-name="Grupo 1099347" transform="translate(-11585.5 -12119)">
        <g id="Grupo_1099341" data-name="Grupo 1099341" transform="translate(-95 216.65)">
          <g id="Rect치ngulo_402588" data-name="Rect치ngulo 402588" transform="translate(0 0)" fill="#f4c5c5" stroke="#fff" stroke-width="5">
            <rect width="86.369" height="86.369" rx="14" stroke="none"/>
            <rect x="2.5" y="2.5" width="81.369" height="81.369" rx="11.5" fill="none"/>
          </g>
        </g>
      </g>
    </g>
    <g id="zapper_18585330" transform="translate(-6578 3841.963)">
      <path id="Trazado_1035923" data-name="Trazado 1035923" d="M13.386,20.724H50.615v32.7H13.386Z" fill="#d3dce5"/>
      <path id="Trazado_1035924" data-name="Trazado 1035924" d="M53.885,19.8l-1.312-3.953a2.485,2.485,0,0,0-2.359-1.7H13.785a2.484,2.484,0,0,0-2.358,1.7L10.115,19.8a.7.7,0,0,0,.664.92H53.222a.7.7,0,0,0,.664-.919Z" fill="#536882"/>
      <rect id="Rect치ngulo_408876" data-name="Rect치ngulo 408876" width="43.289" height="6.575" rx="1.793" transform="translate(10.355 53.425)" fill="#536882"/>
      <g id="Grupo_1212106" data-name="Grupo 1212106">
        <path id="Trazado_1035925" data-name="Trazado 1035925" d="M35.206,20.724h4.5v32.7h-4.5Z" fill="#737e9b"/>
        <path id="Trazado_1035926" data-name="Trazado 1035926" d="M46.116,20.724h4.5v32.7h-4.5Z" fill="#737e9b"/>
        <path id="Trazado_1035927" data-name="Trazado 1035927" d="M24.3,20.724h4.5v32.7H24.3Z" fill="#737e9b"/>
        <path id="Trazado_1035928" data-name="Trazado 1035928" d="M13.386,20.724h4.5v32.7h-4.5Z" fill="#737e9b"/>
      </g>
      <path id="Trazado_1035929" data-name="Trazado 1035929" d="M32.129,9.681h-.258A1.924,1.924,0,0,0,29.947,11.6v2.543h4.107V11.6A1.924,1.924,0,0,0,32.13,9.681Z" fill="#737e9b"/>
      <path id="Trazado_1035930" data-name="Trazado 1035930" d="M55.14,20.409l-1.617-4.873a3.481,3.481,0,0,0-3.308-2.387H35.178a5.532,5.532,0,0,0,2.4-4.567,5.582,5.582,0,0,0-11.164,0,5.532,5.532,0,0,0,2.4,4.567H13.785a3.481,3.481,0,0,0-3.308,2.387L8.86,20.409a1,1,0,0,0,.95,1.315h2.576v5.623H10.18a1,1,0,0,0,0,2h2.206v6.728H10.18a1,1,0,0,0,0,2h2.206V44.8H10.18a1,1,0,0,0,0,2h2.206v5.622h-.238a2.8,2.8,0,0,0-2.792,2.793v2.989A2.8,2.8,0,0,0,12.148,61H51.853a2.8,2.8,0,0,0,2.792-2.793V55.219a2.8,2.8,0,0,0-2.792-2.793h-.238V46.8h2.206a1,1,0,0,0,0-2H51.615V38.075h2.206a1,1,0,0,0,0-2H51.615V29.347h2.206a1,1,0,0,0,0-2H51.615V21.724h2.576a1,1,0,0,0,.95-1.315Zm-22.086-7.26H30.947V11.606a.926.926,0,0,1,.925-.925h.258a.926.926,0,0,1,.925.925v1.543ZM32,5a3.585,3.585,0,0,1,3.582,3.582,3.521,3.521,0,0,1-.695,2.091,2.919,2.919,0,0,0-2.758-1.991h-.258a2.92,2.92,0,0,0-2.758,1.991,3.519,3.519,0,0,1-.695-2.091A3.586,3.586,0,0,1,32,5ZM14.386,21.724h2.5v5.623h-2.5ZM40.7,52.425V46.8h4.412v5.622ZM29.794,38.074h4.412V44.8H29.794Zm-2,6.729H25.3V38.074h2.5Zm8.412-6.729h2.5V44.8h-2.5Zm0-2V29.346h2.5v6.728Zm-2,0H29.794V29.346h4.412Zm-6.412,0H25.3V29.346h2.5Zm-4.5,0H18.884V29.346H23.3Zm0,2V44.8H18.884V38.074Zm0,8.729v5.622H18.884V46.8Zm2,0h2.5v5.622H25.3Zm4.5,0h4.412v5.622H29.794Zm6.412,0h2.5v5.622h-2.5Zm4.5-2V38.074h4.412V44.8Zm0-8.729V29.346h4.412v6.728Zm0-8.727V21.724h4.412v5.623Zm-2,0h-2.5V21.724h2.5Zm-4.5,0H29.794V21.724h4.412Zm-6.412,0H25.3V21.724h2.5Zm-4.5,0H18.884V21.724H23.3Zm-8.91,2h2.5v6.728h-2.5Zm0,8.727h2.5V44.8h-2.5Zm0,8.729h2.5v5.622h-2.5Zm38.259,8.415v2.989a.793.793,0,0,1-.792.793H12.147a.793.793,0,0,1-.792-.793V55.218a.793.793,0,0,1,.792-.793H51.852a.793.793,0,0,1,.792.793Zm-3.031-2.793h-2.5V46.8h2.5Zm0-7.622h-2.5V38.074h2.5Zm0-8.729h-2.5V29.346h2.5Zm0-8.727h-2.5V21.724h2.5ZM11.2,19.724l1.181-3.557a1.485,1.485,0,0,1,1.409-1.018h36.43a1.483,1.483,0,0,1,1.409,1.017l1.181,3.558Z" fill="#1a2c3d"/>
    </g>
  </g>
</svg>
