<svg xmlns="http://www.w3.org/2000/svg" width="85" height="85" viewBox="0 0 85 85">
  <g id="Grupo_1212115" data-name="Grupo 1212115" transform="translate(-620.975 -16419.819)">
    <g id="Grupo_1211601" data-name="Grupo 1211601" transform="translate(620.975 16419.82)">
      <path id="Trazado_1034100" data-name="Trazado 1034100" d="M42.5,0A42.5,42.5,0,1,1,0,42.5,42.5,42.5,0,0,1,42.5,0Z" fill="#efd026"/>
    </g>
    <g id="caballo" transform="translate(549.431 16433.451)">
      <path id="Trazado_1035949" data-name="Trazado 1035949" d="M134.773,104.766a35.583,35.583,0,0,0-3.313-2.8h0L112.429,103.1c-.625.515-1.257,1.07-1.871,1.661-2.568,2.474-4.809,5.573-4.809,8.936,0,4.874,3.073,16.408,6.429,24.279h20.973c3.356-7.87,6.429-19.4,6.429-24.279C139.582,110.338,137.34,107.239,134.773,104.766Z" transform="translate(-8.65 -90.471)" fill="#a0785b"/>
      <path id="Trazado_1035950" data-name="Trazado 1035950" d="M180.924,18.085a3.739,3.739,0,0,1,.8,2.287c-.06,3.476-5.815,5.82-6.917,3.605a4.513,4.513,0,0,0,2.375,6.781,9.165,9.165,0,0,1-1.995.218c-4.037,0-7.366-2.6-7.837-5.949l-2.29,5.2c-1.909-.9-3.281-5.009-2.365-8.721a8.118,8.118,0,0,1,2.112-3.842c.074-.076.151-.149.23-.221,1.723-1.584,6.481-2.417,6.481-2.417,2.61-.436,2.537-3.3,3.755-5.026.815,1.292,3.3,2.932,1.041,7.443-.373.745,2.087-2.108,4.112.038A5.9,5.9,0,0,1,180.924,18.085Z" transform="translate(-58.912 -8.872)" fill="#787880"/>
      <g id="Grupo_1212112" data-name="Grupo 1212112" transform="translate(97.1 1.128)">
        <path id="Trazado_1035951" data-name="Trazado 1035951" d="M114.542,17.664a8.118,8.118,0,0,0-2.112,3.842c-.625.515-1.257,1.07-1.871,1.661a9.021,9.021,0,0,1-4.809-7.98V10C110.033,10,113.619,13.661,114.542,17.664Z" transform="translate(-105.75 -10)" fill="#73553f"/>
        <path id="Trazado_1035952" data-name="Trazado 1035952" d="M327.457,20.372h0a3.738,3.738,0,0,0-.8-2.287l.047-.034c.775-4.2,4.452-8.051,8.872-8.051v5.188a9.021,9.021,0,0,1-4.809,7.98A35.579,35.579,0,0,0,327.457,20.372Z" transform="translate(-301.747 -10)" fill="#73553f"/>
      </g>
      <g id="Grupo_1212113" data-name="Grupo 1212113" transform="translate(101.61 26.614)">
        <path id="Trazado_1035953" data-name="Trazado 1035953" d="M177.514,395.3a3.8,3.8,0,0,1,.791,2.336c0,3.737-5.049,6.766-11.277,6.766s-11.277-3.029-11.277-6.766a3.8,3.8,0,0,1,.791-2.336c1.655-2.192,5.727-3.3,10.487-3.3S175.858,393.111,177.514,395.3Z" transform="translate(-154.622 -374.408)" fill="#787880"/>
        <path id="Trazado_1035954" data-name="Trazado 1035954" d="M330.261,238.255a2.255,2.255,0,1,0-2.255,2.255A2.255,2.255,0,0,0,330.261,238.255Z" transform="translate(-305.451 -236)" fill="#787880"/>
        <path id="Trazado_1035955" data-name="Trazado 1035955" d="M150.261,238.255a2.255,2.255,0,1,0-2.255,2.255A2.255,2.255,0,0,0,150.261,238.255Z" transform="translate(-145.75 -236)" fill="#787880"/>
      </g>
      <g id="Grupo_1212114" data-name="Grupo 1212114" transform="translate(96)">
        <path id="Trazado_1035956" data-name="Trazado 1035956" d="M197.128,432a1.128,1.128,0,0,0,0,2.255,1.129,1.129,0,0,1,1.128,1.128,1.128,1.128,0,0,0,2.255,0A3.387,3.387,0,0,0,197.128,432Z" transform="translate(-184.723 -383.282)" fill="#020202"/>
        <path id="Trazado_1035957" data-name="Trazado 1035957" d="M279.383,432A3.387,3.387,0,0,0,276,435.383a1.128,1.128,0,0,0,2.255,0,1.129,1.129,0,0,1,1.128-1.128,1.128,1.128,0,0,0,0-2.255Z" transform="translate(-255.701 -383.282)" fill="#020202"/>
        <path id="Trazado_1035958" data-name="Trazado 1035958" d="M316,229.383A3.383,3.383,0,1,0,319.383,226,3.387,3.387,0,0,0,316,229.383Zm4.511,0a1.128,1.128,0,1,1-1.128-1.128A1.129,1.129,0,0,1,320.511,229.383Z" transform="translate(-291.19 -200.513)" fill="#020202"/>
        <path id="Trazado_1035959" data-name="Trazado 1035959" d="M139.383,226a3.383,3.383,0,1,0,3.383,3.383A3.387,3.387,0,0,0,139.383,226Zm0,4.511a1.128,1.128,0,1,1,1.128-1.128A1.129,1.129,0,0,1,139.383,230.511Z" transform="translate(-131.489 -200.513)" fill="#020202"/>
        <path id="Trazado_1035960" data-name="Trazado 1035960" d="M102.285,47.395a4.868,4.868,0,0,0-.646,2.451c0,2.219,1.367,4.262,3.85,5.752a18.15,18.15,0,0,0,17.109,0c2.483-1.49,3.851-3.532,3.851-5.752a4.869,4.869,0,0,0-.646-2.451c3.374-8.106,6.285-19.253,6.285-24.164,0-2.846-1.4-5.777-4.15-8.728a10.128,10.128,0,0,0,4.15-8.187V1.128A1.128,1.128,0,0,0,130.959,0c-4.255,0-7.985,3.141-9.469,7.133a3.339,3.339,0,0,0-2.177-.436,6.013,6.013,0,0,0-1.542-5.6,7.018,7.018,0,0,1-.432-.569,1.128,1.128,0,0,0-1.875-.048,9.569,9.569,0,0,0-1.043,2.158c-.557,1.457-.9,2.226-1.985,2.407a21.97,21.97,0,0,0-5.92,1.905C105.073,3.346,101.616,0,97.128,0A1.128,1.128,0,0,0,96,1.128V6.315a10.128,10.128,0,0,0,4.15,8.187C97.4,17.454,96,20.386,96,23.231,96,28.142,98.911,39.289,102.285,47.395Zm11.759,8.089c-5.5,0-10.15-2.582-10.15-5.639,0-3.579,6.481-4.511,10.15-4.511s10.15.93,10.15,4.511C124.193,52.9,119.545,55.484,114.044,55.484Zm10.073-9.929c-2.154-1.59-5.7-2.476-10.073-2.476s-7.918.887-10.073,2.476c-3.063-7.674-5.715-17.925-5.715-22.324,0-2.443,1.394-5.069,4.142-7.809.09,3.115,1.369,6.046,3.293,6.953a1.128,1.128,0,0,0,1.513-.566l1.18-2.679a9.3,9.3,0,0,0,7.915,4.1,10.308,10.308,0,0,0,2.24-.245,1.128,1.128,0,0,0,.1-2.174,3.389,3.389,0,0,1-2.269-3.919,4.353,4.353,0,0,0,2.434.065,7.146,7.146,0,0,0,4.677-3.521c.683.56,1.314,1.118,1.886,1.67,2.962,2.854,4.463,5.587,4.463,8.124C129.832,27.63,127.18,37.881,124.116,45.555Zm5.715-43.2V6.315a7.88,7.88,0,0,1-3.529,6.579c-.722-.658-1.515-1.32-2.37-1.978a4.815,4.815,0,0,0-.662-1.884C123.974,5.976,126.486,2.924,129.832,2.351ZM112.817,7.266c2.4-.4,3.159-2.38,3.712-3.825l.064-.167c.669,1.009,1.056,2.333-.174,4.792a1.185,1.185,0,0,0,.217,1.461A1.313,1.313,0,0,0,118.3,9.5c1.468-.914,2.049-.7,2.826.378a2.656,2.656,0,0,1,.581,1.6c-.026,1.507-1.78,2.912-3.4,3.278-.678.153-1.258.087-1.379-.156a1.128,1.128,0,0,0-1.949-.12,5.652,5.652,0,0,0,.122,6.406c-2.886-.43-5.171-2.389-5.521-4.889a1.128,1.128,0,0,0-2.149-.3l-1.658,3.764c-1.571-2.412-1.787-7.388,1.14-10.064C107.988,8.412,111.11,7.566,112.817,7.266ZM98.255,6.315V2.356c3.1.553,5.55,3.31,6.414,6.128A9.2,9.2,0,0,0,102.81,12q-.534.449-1.025.9A7.88,7.88,0,0,1,98.255,6.315Z" transform="translate(-96)" fill="#020202"/>
      </g>
    </g>
  </g>
</svg>
