<svg xmlns="http://www.w3.org/2000/svg" width="86.369" height="86.369" viewBox="0 0 86.369 86.369">
  <g id="Grupo_1212158" data-name="Grupo 1212158" transform="translate(-746.449 -17424.381)">
    <g id="Grupo_1211609" data-name="Grupo 1211609" transform="translate(746.45 17424.381)">
      <g id="Grupo_1099347" data-name="Grupo 1099347" transform="translate(0 0)">
        <g id="Grupo_1099341" data-name="Grupo 1099341" transform="translate(0 0)">
          <g id="Rectángulo_402588" data-name="Rectángulo 402588" transform="translate(0 0)" fill="#f4c5c5" stroke="#fff" stroke-width="5">
            <rect width="86.369" height="86.369" rx="14" stroke="none"/>
            <rect x="2.5" y="2.5" width="81.369" height="81.369" rx="11.5" fill="none"/>
          </g>
        </g>
      </g>
    </g>
    <g id="tabique" transform="translate(761.292 17424.563)">
      <path id="Trazado_1036008" data-name="Trazado 1036008" d="M268.98,24.284l-12.225,3.73a2.587,2.587,0,0,1-.755.113V74.908a.268.268,0,0,0,.346.256l2.283-.7a.268.268,0,0,0,.189-.256v-4.2l8.031-2.451V71.6a.268.268,0,0,0,.346.256l2.283-.7a.268.268,0,0,0,.189-.256V24.181A2.353,2.353,0,0,0,268.98,24.284Z" transform="translate(-227.843 -6.675)" fill="#ecb780"/>
      <path id="Trazado_1036009" data-name="Trazado 1036009" d="M20.479,24.284l-12.446,3.8A.754.754,0,0,0,7.5,28.8V74.908a.268.268,0,0,0,.346.256l2.283-.7a.268.268,0,0,0,.19-.256v-4.2l8.031-2.451V71.6a.268.268,0,0,0,.346.256l2.283-.7a.268.268,0,0,0,.19-.256V24.181A2.353,2.353,0,0,0,20.479,24.284Z" transform="translate(-6.675 -6.675)" fill="#ecb780"/>
      <path id="Trazado_1036010" data-name="Trazado 1036010" d="M380.938,24.284l12.446,3.8a.754.754,0,0,1,.534.721V74.908a.268.268,0,0,1-.346.256l-2.283-.7a.268.268,0,0,1-.19-.256v-4.2l-8.031-2.451V71.6a.268.268,0,0,1-.346.256l-2.283-.7a.268.268,0,0,1-.19-.256V24.181A2.353,2.353,0,0,1,380.938,24.284Z" transform="translate(-338.427 -6.675)" fill="#e7a561"/>
      <path id="Trazado_1036011" data-name="Trazado 1036011" d="M144.662,28.015l-12.225-3.73a2.352,2.352,0,0,0-.687-.1V70.9a.268.268,0,0,0,.19.256l2.283.7a.268.268,0,0,0,.346-.256V67.561l8.031,2.451v4.2a.268.268,0,0,0,.19.256l2.283.7a.268.268,0,0,0,.346-.256V28.127A2.583,2.583,0,0,1,144.662,28.015Z" transform="translate(-117.259 -6.676)" fill="#e7a561"/>
      <path id="Trazado_1036012" data-name="Trazado 1036012" d="M32.5,76.287V59.594a.036.036,0,0,1,.025-.034l8.1-2.47a.036.036,0,0,1,.046.034V73.817a.036.036,0,0,1-.025.034l-8.1,2.47A.036.036,0,0,1,32.5,76.287Z" transform="translate(-28.925 -35.963)" fill="#f4d8bc"/>
      <path id="Trazado_1036013" data-name="Trazado 1036013" d="M40.667,235.709v17.159a.035.035,0,0,1-.025.034l-8.1,2.47a.036.036,0,0,1-.046-.034V238.179a.036.036,0,0,1,.025-.034l8.1-2.47A.036.036,0,0,1,40.667,235.709Z" transform="translate(-28.925 -194.906)" fill="#f4d8bc"/>
      <g id="Grupo_1212157" data-name="Grupo 1212157" transform="translate(17.241 21.125)">
        <path id="Trazado_1036014" data-name="Trazado 1036014" d="M164.917,76.287V59.594a.036.036,0,0,0-.025-.034l-8.1-2.47a.036.036,0,0,0-.046.034V73.817a.035.035,0,0,0,.025.034l8.1,2.47A.036.036,0,0,0,164.917,76.287Z" transform="translate(-156.75 -57.088)" fill="#efc89d"/>
        <path id="Trazado_1036015" data-name="Trazado 1036015" d="M156.75,235.709v17.159a.035.035,0,0,0,.025.034l8.1,2.47a.036.036,0,0,0,.046-.034V238.179a.035.035,0,0,0-.025-.034l-8.1-2.47A.036.036,0,0,0,156.75,235.709Z" transform="translate(-156.75 -216.031)" fill="#efc89d"/>
        <path id="Trazado_1036016" data-name="Trazado 1036016" d="M413.417,76.287V59.594a.036.036,0,0,0-.025-.034l-8.1-2.47a.036.036,0,0,0-.046.034V73.817a.035.035,0,0,0,.025.034l8.1,2.47A.036.036,0,0,0,413.417,76.287Z" transform="translate(-377.917 -57.088)" fill="#efc89d"/>
        <path id="Trazado_1036017" data-name="Trazado 1036017" d="M405.25,235.709v17.159a.035.035,0,0,0,.025.034l8.1,2.47a.036.036,0,0,0,.046-.034V238.179a.035.035,0,0,0-.025-.034l-8.1-2.47A.036.036,0,0,0,405.25,235.709Z" transform="translate(-377.917 -216.031)" fill="#efc89d"/>
      </g>
      <path id="Trazado_1036018" data-name="Trazado 1036018" d="M281,76.287V59.594a.036.036,0,0,1,.025-.034l8.1-2.47a.036.036,0,0,1,.046.034V73.817a.036.036,0,0,1-.025.034l-8.1,2.47A.036.036,0,0,1,281,76.287Z" transform="translate(-250.093 -35.963)" fill="#f4d8bc"/>
      <path id="Trazado_1036019" data-name="Trazado 1036019" d="M289.167,235.709v17.159a.035.035,0,0,1-.025.034l-8.1,2.47a.036.036,0,0,1-.046-.034V238.179a.035.035,0,0,1,.025-.034l8.1-2.47A.036.036,0,0,1,289.167,235.709Z" transform="translate(-250.093 -194.906)" fill="#f4d8bc"/>
      <path id="Trazado_1036020" data-name="Trazado 1036020" d="M33.678,49.62l-8.1,2.471a.856.856,0,0,0-.607.822V65.447c-.007.394,0-1.454,0,4.16a.861.861,0,0,0,1.112.823l8.1-2.471a.856.856,0,0,0,.607-.822V50.443a.861.861,0,0,0-1.112-.823Zm-.538,8.548-6.517,1.989V57.689L33.14,55.7Zm-6.517,3.714,6.517-1.989V62.36l-6.517,1.989ZM33.14,51.509v2.467l-6.517,1.989V53.5ZM26.623,68.54V66.073l6.517-1.989v2.467Z" transform="translate(-22.224 -29.282)"/>
      <path id="Trazado_1036021" data-name="Trazado 1036021" d="M34.817,229.03a.861.861,0,0,0-1.112-.823l-8.1,2.471A.856.856,0,0,0,25,231.5v17.159a.861.861,0,0,0,1.112.823l8.093-2.469a.855.855,0,0,0,.612-.824Zm-1.65,7.958-6.517,1.989v-2.467l6.517-1.989ZM26.65,240.7l6.517-1.989v2.467l-6.517,1.989ZM33.167,230.1v2.7l-6.517,1.989v-2.7Zm-6.517,17.5v-2.7l6.517-1.989v2.7Z" transform="translate(-22.25 -188.226)"/>
      <path id="Trazado_1036022" data-name="Trazado 1036022" d="M159.067,231.5a.857.857,0,0,0-.609-.823l-8.1-2.47a.861.861,0,0,0-1.112.823V246.19a.854.854,0,0,0,.609.823l8.1,2.47a.861.861,0,0,0,1.112-.823Zm-1.65,7.476-6.517-1.989v-2.467l6.517,1.989Zm-6.517-.264,6.517,1.989v2.467L150.9,241.18Zm6.517-6.628v2.7L150.9,232.8v-2.7Zm-6.517,13.52v-2.7l6.517,1.989v2.7Z" transform="translate(-132.834 -188.227)"/>
      <path id="Trazado_1036023" data-name="Trazado 1036023" d="M149.249,62.987v4.15a.857.857,0,0,0,.609.823l8.1,2.47a.861.861,0,0,0,1.112-.823V52.913a.857.857,0,0,0-.609-.823l-8.1-2.47a.861.861,0,0,0-1.112.823v12.51Q149.248,62.97,149.249,62.987Zm1.65-3.094,6.517,1.989v2.467L150.9,62.36Zm6.517.264L150.9,58.168V55.7l6.517,1.989Zm-6.517,6.4V64.085l6.517,1.989v2.467ZM157.415,53.5v2.467L150.9,53.976V51.509Z" transform="translate(-132.833 -29.282)"/>
      <path id="Trazado_1036024" data-name="Trazado 1036024" d="M397.748,62.991v4.147a.857.857,0,0,0,.609.823l8.1,2.47a.861.861,0,0,0,1.112-.823V65.483c0-.012,0-.025,0-.037V61.291c0-.012,0-.025,0-.037V57.1c0-.012,0-.025,0-.037V52.915a.857.857,0,0,0-.609-.823l-8.1-2.47a.861.861,0,0,0-1.112.823V54.57c0,.012,0,.025,0,.037v4.155c0,.012,0,.025,0,.037v4.155Q397.748,62.972,397.748,62.991Zm1.65-3.1,6.517,1.989V64.35L399.4,62.362Zm6.517.264L399.4,58.17V55.7l6.517,1.989Zm-6.517,6.4V64.087l6.517,1.989v2.467ZM405.915,53.5v2.467L399.4,53.978V51.511Z" transform="translate(-353.999 -29.284)"/>
      <path id="Trazado_1036025" data-name="Trazado 1036025" d="M397.748,237.618v4.155c0,.012,0,.025,0,.037v4.38a.854.854,0,0,0,.609.823l2.109.643a.825.825,0,0,0,.481-1.578l-1.55-.473v-2.7l6.517,1.989v2.7l-1.223-.373a.825.825,0,1,0-.481,1.578l2.242.684a.861.861,0,0,0,1.112-.823V244.3c0-.012,0-.025,0-.037V240.11c0-.012,0-.025,0-.037v-4.155c0-.012,0-.025,0-.037V231.5a.857.857,0,0,0-.609-.823l-8.1-2.47a.861.861,0,0,0-1.112.823v4.358c0,.012,0,.025,0,.037v4.155C397.748,237.593,397.748,237.605,397.748,237.618Zm8.167,1.359-6.517-1.989v-2.467l6.517,1.989Zm-6.517,2.2v-2.467l6.517,1.989v2.467Zm6.517-9.1v2.7L399.4,232.8v-2.7Z" transform="translate(-353.999 -188.227)"/>
      <path id="Trazado_1036026" data-name="Trazado 1036026" d="M283.316,54.57V50.445a.861.861,0,0,0-1.112-.823l-8.1,2.471a.856.856,0,0,0-.608.823v4.147c0,.012,0,.025,0,.037v4.155c0,.012,0,.025,0,.037v4.155c0,.012,0,.025,0,.037v4.125a.861.861,0,0,0,1.112.823l8.1-2.471a.856.856,0,0,0,.608-.823V62.991c0-.012,0-.025,0-.037V58.8c0-.012,0-.025,0-.037V54.607C283.316,54.595,283.316,54.582,283.316,54.57Zm-1.65,3.6-6.517,1.989V57.692l6.517-1.989Zm-6.517,3.714,6.517-1.989v2.467l-6.517,1.989Zm6.517-10.373v2.467l-6.517,1.989V53.5Zm-6.517,17.031V66.075l6.517-1.989v2.467Z" transform="translate(-243.417 -29.284)"/>
      <path id="Trazado_1036027" data-name="Trazado 1036027" d="M283.316,233.388V229.03a.861.861,0,0,0-1.112-.823l-8.1,2.471a.856.856,0,0,0-.608.823v4.38c0,.012,0,.025,0,.037v4.155c0,.012,0,.025,0,.037v4.155c0,.012,0,.025,0,.037v4.358a.861.861,0,0,0,1.112.823l8.092-2.469a.855.855,0,0,0,.613-.824v-4.38c0-.012,0-.025,0-.037v-4.155c0-.012,0-.025,0-.037v-4.155C283.316,233.413,283.316,233.4,283.316,233.388Zm-1.65,3.6-6.517,1.989v-2.467l6.517-1.989Zm-6.517,3.714,6.517-1.989v2.467l-6.517,1.989Zm6.517-10.605v2.7l-6.517,1.989v-2.7Zm-6.517,17.5v-2.7l6.517-1.989v2.7Z" transform="translate(-243.417 -188.226)"/>
      <path id="Trazado_1036028" data-name="Trazado 1036028" d="M55.2,20.617l-12.446-3.8a3.176,3.176,0,0,0-1.855,0L28.671,20.55a1.758,1.758,0,0,1-1.028,0l-12.225-3.73a3.178,3.178,0,0,0-1.855,0L7.208,18.759a.825.825,0,0,0,.482,1.578l5.977-1.824v45.3L12.5,64.17V60.885a.825.825,0,0,0-1.066-.789L3.4,62.546a.825.825,0,0,0-.584.789v3.789L1.65,67.48V22.18l2.166-.661a.825.825,0,0,0-.482-1.578l-2.216.676A1.57,1.57,0,0,0,0,22.127V68.233a1.094,1.094,0,0,0,1.412,1.045l2.283-.7a1.087,1.087,0,0,0,.774-1.045V63.946L10.849,62v2.924a1.094,1.094,0,0,0,1.412,1.045l2.231-.681,2.231.681a1.093,1.093,0,0,0,1.412-1.045V62l6.381,1.947v3.591a1.087,1.087,0,0,0,.774,1.045l2.283.7a1.094,1.094,0,0,0,.586.014,1.1,1.1,0,0,0,.587-.014l2.282-.7a1.087,1.087,0,0,0,.774-1.045V63.946L38.181,62v2.924a1.093,1.093,0,0,0,1.411,1.045l2.231-.681,2.231.681a1.093,1.093,0,0,0,1.412-1.045V62l6.381,1.947v3.591a1.087,1.087,0,0,0,.774,1.045l2.283.7a1.094,1.094,0,0,0,1.411-1.045V22.127a1.57,1.57,0,0,0-1.118-1.51ZM25.58,62.546,17.55,60.1a.825.825,0,0,0-1.066.789V64.17l-1.168-.356v-45.3C27.99,22.38,27.2,22.142,27.332,22.175V67.48l-1.168-.356V63.335a.825.825,0,0,0-.584-.789ZM54.665,67.48,53.5,67.124V63.335a.825.825,0,0,0-.584-.789L44.882,60.1a.825.825,0,0,0-1.066.789V64.17l-1.168-.356V23.777a.825.825,0,1,0-1.65,0V63.814l-1.168.356V60.885a.825.825,0,0,0-1.066-.789l-8.031,2.45a.825.825,0,0,0-.584.789v3.789l-1.168.356V22.175c.134-.033-.656.205,12.016-3.662v1.414a.825.825,0,1,0,1.65,0V18.513L54.665,22.18Z"/>
    </g>
  </g>
</svg>
