<svg xmlns="http://www.w3.org/2000/svg" width="86.369" height="86.369" viewBox="0 0 86.369 86.369">
  <g id="Grupo_1212159" data-name="Grupo 1212159" transform="translate(9214.457 -5816.381)">
    <g id="Grupo_1211611" data-name="Grupo 1211611" transform="translate(-9214.457 5816.381)">
      <g id="Grupo_1099347" data-name="Grupo 1099347" transform="translate(0 0)">
        <g id="Grupo_1099341" data-name="Grupo 1099341" transform="translate(0 0)">
          <g id="Rectángulo_402588" data-name="Rectángulo 402588" transform="translate(0 0)" fill="#f4c5c5" stroke="#fff" stroke-width="5">
            <rect width="86.369" height="86.369" rx="14" stroke="none"/>
            <rect x="2.5" y="2.5" width="81.369" height="81.369" rx="11.5" fill="none"/>
          </g>
        </g>
      </g>
    </g>
    <g id="height_1607332" transform="translate(-9196.598 5830.558)">
      <path id="Trazado_1036029" data-name="Trazado 1036029" d="M314.138,251.333V258.1a1.948,1.948,0,0,1-1.934,1.934,1.861,1.861,0,0,1-1.335-.551,1.89,1.89,0,0,1-.6-1.325V263.9h-7.735v-5.8a1.939,1.939,0,0,1-1.934,1.934,1.766,1.766,0,0,1-.744-.154,1.717,1.717,0,0,1-.59-.4c-.01,0-.02-.01-.029-.019a1.892,1.892,0,0,1-.571-1.364v-6.768a3.866,3.866,0,0,1,3.868-3.868h7.735a3.866,3.866,0,0,1,3.868,3.868Zm0,0" transform="translate(-264.824 -219.424)" fill="#6a1b9a"/>
      <path id="Trazado_1036030" data-name="Trazado 1036030" d="M311.461,251.333V258.1a1.892,1.892,0,0,1-.571,1.364l-.019.019a44.455,44.455,0,0,0-.6,4.419h-7.735v-5.8a1.939,1.939,0,0,1-1.934,1.934,1.766,1.766,0,0,1-.745-.154V258.1a1.9,1.9,0,0,1-.59,1.383c-.01,0-.019-.01-.029-.019a1.892,1.892,0,0,1-.571-1.364v-6.768a3.866,3.866,0,0,1,3.868-3.868h5.057a3.867,3.867,0,0,1,3.868,3.868Zm0,0" transform="translate(-264.825 -219.424)" fill="#9d27b0"/>
      <path id="Trazado_1036031" data-name="Trazado 1036031" d="M9.5,8.535H30.774a.967.967,0,0,1,.967.967V63.65a.967.967,0,0,1-.967.967H9.5a.967.967,0,0,1-.967-.967V9.5A.967.967,0,0,1,9.5,8.535Zm0,0" transform="translate(-7.567 -7.568)" fill="#ffdc00"/>
      <path id="Trazado_1036032" data-name="Trazado 1036032" d="M332.8,392.535h3.868v10.636a1.934,1.934,0,1,1-3.868,0Zm0,0" transform="translate(-295.09 -348.056)" fill="#02a9f4"/>
      <path id="Trazado_1036033" data-name="Trazado 1036033" d="M366.934,392.535H370.8v10.636a1.934,1.934,0,1,1-3.868,0Zm0,0" transform="translate(-325.355 -348.056)" fill="#0377bc"/>
      <path id="Trazado_1036034" data-name="Trazado 1036034" d="M340.536,157.469a3.867,3.867,0,0,1-3.868,3.868,3.805,3.805,0,0,1-1.335-.242,3.862,3.862,0,0,1,0-7.252,3.785,3.785,0,0,1,1.335-.242,3.866,3.866,0,0,1,3.868,3.868Zm0,0" transform="translate(-295.089 -136.196)" fill="#dfc49c"/>
      <path id="Trazado_1036035" data-name="Trazado 1036035" d="M337.858,159.36a2.695,2.695,0,1,1-2.524-3.626A3.868,3.868,0,0,1,337.858,159.36Zm0,0" transform="translate(-295.09 -138.087)" fill="#ffe0b2"/>
      <path id="Trazado_1036036" data-name="Trazado 1036036" d="M332.8,366.934h7.735v2.9H332.8Zm0,0" transform="translate(-295.09 -325.356)" fill="#283593"/>
      <path id="Trazado_1036037" data-name="Trazado 1036037" d="M23.207,58.016H1.934A1.936,1.936,0,0,1,0,56.082V1.934A1.936,1.936,0,0,1,1.934,0H23.207a1.936,1.936,0,0,1,1.934,1.934V56.082A1.936,1.936,0,0,1,23.207,58.016ZM1.934,1.934V56.082H23.208V1.934Zm0,0"/>
      <path id="Trazado_1036038" data-name="Trazado 1036038" d="M332.968,385.933h-7.735a.967.967,0,1,1,0-1.934h7.735a.967.967,0,1,1,0,1.934Zm0,0" transform="translate(-287.521 -340.488)"/>
      <path id="Trazado_1036039" data-name="Trazado 1036039" d="M332.968,240.867h-7.735a.967.967,0,1,1,0-1.934h7.735a.967.967,0,1,1,0,1.934Zm0,0" transform="translate(-287.521 -211.859)"/>
      <path id="Trazado_1036040" data-name="Trazado 1036040" d="M327.166,398.5a2.9,2.9,0,0,1-2.9-2.9V384.967a.967.967,0,0,1,.967-.967H329.1a.967.967,0,0,1,.967.967V395.6a2.9,2.9,0,0,1-2.9,2.9Zm-.967-12.57V395.6a.967.967,0,1,0,1.934,0v-9.669Zm0,0" transform="translate(-287.522 -340.488)"/>
      <path id="Trazado_1036041" data-name="Trazado 1036041" d="M293.033,253.438a2.9,2.9,0,0,1-2.9-2.9v-6.768a4.84,4.84,0,0,1,4.835-4.835.967.967,0,0,1,0,1.934,2.9,2.9,0,0,0-2.9,2.9v6.768a.967.967,0,1,0,1.934,0V245.7a.967.967,0,1,1,1.934,0v4.834A2.9,2.9,0,0,1,293.033,253.438Zm0,0" transform="translate(-257.256 -211.86)"/>
      <path id="Trazado_1036042" data-name="Trazado 1036042" d="M395.436,253.438a2.9,2.9,0,0,1-2.9-2.9V245.7a.967.967,0,1,1,1.934,0v4.834a.967.967,0,1,0,1.934,0v-6.768a2.9,2.9,0,0,0-2.9-2.9.967.967,0,0,1,0-1.934,4.84,4.84,0,0,1,4.835,4.835v6.768A2.9,2.9,0,0,1,395.436,253.438Zm0,0" transform="translate(-348.056 -211.86)"/>
      <path id="Trazado_1036043" data-name="Trazado 1036043" d="M361.3,398.5a2.9,2.9,0,0,1-2.9-2.9V384.967a.967.967,0,0,1,.967-.967h3.868a.967.967,0,0,1,.967.967V395.6A2.9,2.9,0,0,1,361.3,398.5Zm-.967-12.57V395.6a.967.967,0,0,0,1.934,0v-9.669Zm0,0" transform="translate(-317.787 -340.488)"/>
      <path id="Trazado_1036044" data-name="Trazado 1036044" d="M329.1,154.735a4.835,4.835,0,1,1,4.835-4.834A4.835,4.835,0,0,1,329.1,154.735Zm0-7.735a2.9,2.9,0,1,0,2.9,2.9A2.9,2.9,0,0,0,329.1,147Zm0,0" transform="translate(-287.522 -128.628)"/>
      <path id="Trazado_1036045" data-name="Trazado 1036045" d="M325.233,332.968a.967.967,0,0,1-.967-.967v-6.769a.967.967,0,1,1,1.934,0V332A.967.967,0,0,1,325.233,332.968Zm0,0" transform="translate(-287.522 -287.522)"/>
      <path id="Trazado_1036046" data-name="Trazado 1036046" d="M393.5,325.4a.967.967,0,0,1-.967-.967V316.7a.967.967,0,0,1,1.934,0v7.736A.967.967,0,0,1,393.5,325.4Zm0,0" transform="translate(-348.055 -279.957)"/>
      <path id="Trazado_1036047" data-name="Trazado 1036047" d="M92.271,454.2h-14.5a.967.967,0,0,1,0-1.934h14.5a.967.967,0,1,1,0,1.934Zm0,0" transform="translate(-68.098 -401.018)"/>
      <path id="Trazado_1036048" data-name="Trazado 1036048" d="M145.237,420.066H137.5a.967.967,0,0,1,0-1.934h7.735a.967.967,0,1,1,0,1.934Zm0,0" transform="translate(-121.063 -370.753)"/>
      <path id="Trazado_1036049" data-name="Trazado 1036049" d="M92.271,385.933h-14.5a.967.967,0,0,1,0-1.934h14.5a.967.967,0,1,1,0,1.934Zm0,0" transform="translate(-68.098 -340.488)"/>
      <path id="Trazado_1036050" data-name="Trazado 1036050" d="M145.237,351.8H137.5a.967.967,0,0,1,0-1.934h7.735a.967.967,0,1,1,0,1.934Zm0,0" transform="translate(-121.063 -310.223)"/>
      <path id="Trazado_1036051" data-name="Trazado 1036051" d="M92.271,317.668h-14.5a.967.967,0,0,1,0-1.934h14.5a.967.967,0,1,1,0,1.934Zm0,0" transform="translate(-68.098 -279.958)"/>
      <path id="Trazado_1036052" data-name="Trazado 1036052" d="M145.237,283.535H137.5a.967.967,0,0,1,0-1.934h7.735a.967.967,0,1,1,0,1.934Zm0,0" transform="translate(-121.063 -249.692)"/>
      <path id="Trazado_1036053" data-name="Trazado 1036053" d="M92.271,249.4h-14.5a.967.967,0,0,1,0-1.934h14.5a.967.967,0,1,1,0,1.934Zm0,0" transform="translate(-68.098 -219.424)"/>
      <path id="Trazado_1036054" data-name="Trazado 1036054" d="M145.237,215.265H137.5a.967.967,0,0,1,0-1.934h7.735a.967.967,0,1,1,0,1.934Zm0,0" transform="translate(-121.063 -189.158)"/>
      <path id="Trazado_1036055" data-name="Trazado 1036055" d="M92.271,181.133h-14.5a.967.967,0,0,1,0-1.934h14.5a.967.967,0,1,1,0,1.934Zm0,0" transform="translate(-68.098 -158.894)"/>
      <path id="Trazado_1036056" data-name="Trazado 1036056" d="M145.237,147H137.5a.967.967,0,0,1,0-1.934h7.735a.967.967,0,1,1,0,1.934Zm0,0" transform="translate(-121.063 -128.629)"/>
      <path id="Trazado_1036057" data-name="Trazado 1036057" d="M92.271,112.867h-14.5a.967.967,0,0,1,0-1.934h14.5a.967.967,0,1,1,0,1.934Zm0,0" transform="translate(-68.098 -98.363)"/>
      <path id="Trazado_1036058" data-name="Trazado 1036058" d="M145.237,78.735H137.5a.967.967,0,0,1,0-1.934h7.735a.967.967,0,1,1,0,1.934Zm0,0" transform="translate(-121.063 -68.098)"/>
      <path id="Trazado_1036059" data-name="Trazado 1036059" d="M92.271,44.6h-14.5a.967.967,0,0,1,0-1.934h14.5a.967.967,0,1,1,0,1.934Zm0,0" transform="translate(-68.098 -37.833)"/>
      <path id="Trazado_1036060" data-name="Trazado 1036060" d="M242.8,127.295a.965.965,0,0,1-.683-.283l-2.9-2.9a.967.967,0,0,1,0-1.367l2.9-2.9a.967.967,0,0,1,1.367,1.367l-2.217,2.218,2.217,2.217a.967.967,0,0,1-.684,1.651Zm0,0" transform="translate(-211.859 -106.022)"/>
      <path id="Trazado_1036061" data-name="Trazado 1036061" d="M247.636,147H239.9a.967.967,0,0,1,0-1.934h7.736a.967.967,0,0,1,0,1.934Zm0,0" transform="translate(-211.859 -128.629)"/>
    </g>
  </g>
</svg>
