<svg xmlns="http://www.w3.org/2000/svg" width="86.369" height="86.369" viewBox="0 0 86.369 86.369">
  <g id="Grupo_1212161" data-name="Grupo 1212161" transform="translate(8899.457 -5816.381)">
    <g id="Grupo_1211612" data-name="Grupo 1211612" transform="translate(-8899.457 5816.381)">
      <g id="Grupo_1099347" data-name="Grupo 1099347" transform="translate(0 0)">
        <g id="Grupo_1099341" data-name="Grupo 1099341" transform="translate(0 0)">
          <g id="Rectángulo_402588" data-name="Rectángulo 402588" transform="translate(0 0)" fill="#f4c5c5" stroke="#fff" stroke-width="5">
            <rect width="86.369" height="86.369" rx="14" stroke="none"/>
            <rect x="2.5" y="2.5" width="81.369" height="81.369" rx="11.5" fill="none"/>
          </g>
        </g>
      </g>
    </g>
    <g id="Layer_x0020_1" transform="translate(-8884.642 5832.349)">
      <path id="Trazado_1036062" data-name="Trazado 1036062" d="M28.3,31.314a10.6,10.6,0,0,1-5.421-1.467A6.021,6.021,0,0,0,22.014,33v3.444l1.212-1.212a1.854,1.854,0,0,1,1.4-.574,2.136,2.136,0,0,1,1.244.574,1.856,1.856,0,0,1,0,2.71L21.5,42.411a2.136,2.136,0,0,1-1.371.542,1.785,1.785,0,0,1-1.339-.574l-4.464-4.432a1.905,1.905,0,1,1,2.679-2.71l1.212,1.212V33a9.567,9.567,0,0,1,1.818-5.772,9.962,9.962,0,0,1-1.818-5.8V17.985l-1.212,1.18a1.894,1.894,0,0,1-2.679-2.679l4.464-4.5a1.945,1.945,0,0,1,2.71,0l4.464,4.5a1.821,1.821,0,0,1,0,2.679,1.856,1.856,0,0,1-2.71,0l-1.18-1.18v3.444a6.154,6.154,0,1,0,12.309,0V17.985l-1.212,1.18a1.856,1.856,0,0,1-1.754.542,2.176,2.176,0,0,1-1.435-1.4,1.752,1.752,0,0,1,.542-1.786l4.464-4.464a1.969,1.969,0,0,1,1.339-.574,1.766,1.766,0,0,1,1.339.574l4.464,4.464a1.856,1.856,0,0,1,0,2.71,1.883,1.883,0,0,1-2.71,0l-1.244-1.244v3.444a9.817,9.817,0,0,1-1.913,5.9,10.006,10.006,0,0,1,1.786,5.708V36.48l1.212-1.244a1.874,1.874,0,0,1,2.679,0,1.958,1.958,0,0,1,.574,1.244,1.711,1.711,0,0,1-.574,1.435l-4.337,4.5a1.88,1.88,0,0,1-1.339.542,1.767,1.767,0,0,1-1.307-.574l-4.528-4.432a1.937,1.937,0,0,1-.542-1.754,2.156,2.156,0,0,1,1.435-1.435,1.682,1.682,0,0,1,1.754.542l1.212,1.18V33.036a5.991,5.991,0,0,0-.861-3.125A9.821,9.821,0,0,1,28.3,31.314Zm.191,18.941a.586.586,0,0,1-.606-.606.662.662,0,0,1,.606-.67,24.96,24.96,0,0,0,6.122-.925.615.615,0,0,1,.8.446.663.663,0,0,1-.446.8A24.446,24.446,0,0,1,28.487,50.256Zm-6.282-.8a.4.4,0,0,1-.191-.032,22.616,22.616,0,0,1-5.963-2.615.635.635,0,0,1-.223-.893.656.656,0,0,1,.893-.223,20.726,20.726,0,0,0,5.644,2.487.615.615,0,0,1,.446.8A.607.607,0,0,1,22.206,49.458Zm18.336-2.87A.681.681,0,0,1,40,46.333a.648.648,0,0,1,.191-.893,22.412,22.412,0,0,0,4.592-4.082.635.635,0,1,1,.989.8,22.467,22.467,0,0,1-4.879,4.337A1.961,1.961,0,0,1,40.541,46.588ZM11.523,42.826a.743.743,0,0,1-.478-.223A21.707,21.707,0,0,1,7.409,37.15a.633.633,0,0,1,.319-.829.661.661,0,0,1,.829.287A21.477,21.477,0,0,0,12,41.773a.606.606,0,0,1-.032.861A.76.76,0,0,1,11.523,42.826Zm37.15-5.836a.429.429,0,0,1-.255-.064A.617.617,0,0,1,48.1,36.1a20.643,20.643,0,0,0,1.69-5.931.627.627,0,0,1,1.244.159,23.635,23.635,0,0,1-1.786,6.282A.708.708,0,0,1,48.673,36.99ZM6.07,31.473a.617.617,0,0,1-.606-.51,24.553,24.553,0,0,1-.319-3.731,19.6,19.6,0,0,1,.191-2.774.646.646,0,0,1,.7-.606.694.694,0,0,1,.574.733,24.038,24.038,0,0,0-.191,2.647,21.111,21.111,0,0,0,.287,3.508.669.669,0,0,1-.542.733Zm44.292-6.952a.593.593,0,0,1-.606-.51,21.585,21.585,0,0,0-1.786-5.931.67.67,0,0,1,.319-.861.633.633,0,0,1,.829.319,21.393,21.393,0,0,1,1.85,6.25.578.578,0,0,1-.51.7C50.395,24.522,50.395,24.522,50.363,24.522ZM7.6,19.005a.474.474,0,0,1-.287-.064.677.677,0,0,1-.351-.829,23.817,23.817,0,0,1,3.412-5.58.635.635,0,0,1,.989.8,22.971,22.971,0,0,0-3.253,5.262A.464.464,0,0,1,7.6,19.005Zm37.5-5.9a.678.678,0,0,1-.478-.223A21.03,21.03,0,0,0,39.9,8.865a.621.621,0,0,1-.159-.893.6.6,0,0,1,.893-.191,24.311,24.311,0,0,1,4.943,4.273.6.6,0,0,1-.032.861A.649.649,0,0,1,45.1,13.106ZM15.637,9.311a.575.575,0,0,1-.51-.287.61.61,0,0,1,.159-.861,23.072,23.072,0,0,1,5.9-2.9.635.635,0,1,1,.383,1.212,21.038,21.038,0,0,0-5.517,2.679A1.156,1.156,0,0,1,15.637,9.311ZM34.482,6.346c-.064,0-.159,0-.191-.064a21.57,21.57,0,0,0-6.7-.829.668.668,0,0,1-.67-.638.64.64,0,0,1,.638-.638,23.109,23.109,0,0,1,7.079.925.624.624,0,0,1,.446.8A.652.652,0,0,1,34.482,6.346ZM28.169,54.433A27.216,27.216,0,1,1,55.369,27.2,27.259,27.259,0,0,1,28.169,54.433Zm0-53.157A25.957,25.957,0,1,0,54.157,27.232,25.946,25.946,0,0,0,28.169,1.276Zm-6.282,27.87a8.309,8.309,0,0,1-.989-.861A8.853,8.853,0,0,0,19.559,33v4.975a.669.669,0,0,1-.415.606.706.706,0,0,1-.7-.159l-2.3-2.3a.759.759,0,0,0-.446-.159.585.585,0,0,0-.446.223.536.536,0,0,0,0,.861l4.464,4.5a.616.616,0,0,0,.893,0l4.464-4.5a.579.579,0,0,0,0-.861.569.569,0,0,0-.893,0l-2.3,2.3a.681.681,0,0,1-.7.128.661.661,0,0,1-.415-.574V33A6.9,6.9,0,0,1,21.887,29.146Zm13.584-.861a8.62,8.62,0,0,1-.989.893A7.3,7.3,0,0,1,35.567,33v4.975a.642.642,0,0,1-.383.606.706.706,0,0,1-.7-.159l-2.328-2.3C32.123,36,32,35.97,31.8,35.97h-.128a.783.783,0,0,0-.542.51.57.57,0,0,0,.191.574l4.464,4.5a.615.615,0,0,0,.893,0l4.464-4.5a.523.523,0,0,0,.191-.446.673.673,0,0,0-.223-.415.569.569,0,0,0-.893,0l-2.3,2.3a.7.7,0,0,1-.7.128.661.661,0,0,1-.415-.574V33A8.853,8.853,0,0,0,35.471,28.285Zm-2.328.287c.032,0,.064-.032.1-.064a8.339,8.339,0,0,0,1.722-1.626c.032-.064.1-.1.128-.128a8.466,8.466,0,0,0,1.818-5.325V16.422a.63.63,0,0,1,.383-.574.767.767,0,0,1,.733.128l2.3,2.328c.383.383.8.032.893,0a.622.622,0,0,0,0-.893l-4.5-4.5a.58.58,0,0,0-.861,0l-4.5,4.5a.553.553,0,0,0-.159.574.691.691,0,0,0,.51.51.553.553,0,0,0,.574-.159l2.328-2.3a.621.621,0,0,1,.7-.128.569.569,0,0,1,.383.574v5.006a7.43,7.43,0,1,1-14.86,0v-5.07a.63.63,0,0,1,.383-.574.767.767,0,0,1,.733.128l2.3,2.328c.383.383.8.032.893,0a.617.617,0,0,0,0-.893l-4.592-4.5a.58.58,0,0,0-.861,0l-4.5,4.5c-.383.383-.032.8,0,.893a.622.622,0,0,0,.893,0l2.3-2.328a.7.7,0,0,1,.446-.159.883.883,0,0,1,.287.032.63.63,0,0,1,.383.574v5.006a8.5,8.5,0,0,0,8.8,8.61A8.612,8.612,0,0,0,33.143,28.572Z" transform="translate(0 0)" fill-rule="evenodd"/>
      <g id="Grupo_1212160" data-name="Grupo 1212160" transform="translate(15.013 12.723)">
        <path id="Trazado_1036063" data-name="Trazado 1036063" d="M444.92,407.705a8.5,8.5,0,0,0,8.8,8.61,8.613,8.613,0,0,0,4.847-1.467c.032,0,.064-.032.1-.064a8.338,8.338,0,0,0,1.722-1.626c.032-.064.1-.1.128-.128a8.467,8.467,0,0,0,1.818-5.325V402.7a.63.63,0,0,1,.383-.574.767.767,0,0,1,.733.128l2.3,2.328c.383.383.8.032.893,0a.622.622,0,0,0,0-.893l-4.5-4.5a.58.58,0,0,0-.861,0l-4.5,4.5a.553.553,0,0,0-.159.574.691.691,0,0,0,.51.51.553.553,0,0,0,.574-.159l2.328-2.3a.621.621,0,0,1,.7-.128.569.569,0,0,1,.383.574v5.006a7.43,7.43,0,1,1-14.86,0V402.7a.63.63,0,0,1,.383-.574.767.767,0,0,1,.733.128l2.3,2.328c.383.383.8.032.893,0a.617.617,0,0,0,0-.893l-4.592-4.5a.58.58,0,0,0-.861,0l-4.5,4.5c-.383.383-.032.8,0,.893a.622.622,0,0,0,.893,0l2.3-2.328a.7.7,0,0,1,.446-.159.882.882,0,0,1,.287.032.63.63,0,0,1,.383.574Z" transform="translate(-440.437 -399)" fill="#fff" fill-rule="evenodd"/>
        <path id="Trazado_1036064" data-name="Trazado 1036064" d="M447.91,887.861a8.317,8.317,0,0,1-.989-.861,8.853,8.853,0,0,0-1.339,4.719v4.975a.669.669,0,0,1-.415.606.705.705,0,0,1-.7-.16l-2.3-2.3a.759.759,0,0,0-.446-.16.585.585,0,0,0-.446.223.536.536,0,0,0,0,.861l4.464,4.5a.616.616,0,0,0,.893,0l4.464-4.5a.579.579,0,0,0,0-.861.569.569,0,0,0-.893,0l-2.3,2.3a.681.681,0,0,1-.7.128.661.661,0,0,1-.415-.574v-5.038A6.9,6.9,0,0,1,447.91,887.861Z" transform="translate(-441.036 -871.439)" fill="#fff" fill-rule="evenodd"/>
        <path id="Trazado_1036065" data-name="Trazado 1036065" d="M950.105,896.694a.642.642,0,0,1-.383.606.705.705,0,0,1-.7-.16l-2.328-2.3c-.032-.128-.16-.16-.351-.16h-.128a.784.784,0,0,0-.542.51.569.569,0,0,0,.191.574l4.464,4.5a.616.616,0,0,0,.893,0l4.464-4.5a.523.523,0,0,0,.191-.446.673.673,0,0,0-.223-.415.569.569,0,0,0-.893,0l-2.3,2.3a.694.694,0,0,1-.7.128.661.661,0,0,1-.415-.574v-5.038A8.853,8.853,0,0,0,950.01,887a8.618,8.618,0,0,1-.989.893,7.3,7.3,0,0,1,1.084,3.827Z" transform="translate(-929.552 -871.439)" fill="#fff" fill-rule="evenodd"/>
      </g>
      <path id="Trazado_1036066" data-name="Trazado 1036066" d="M73.685,81.1l-4.528-4.432a1.937,1.937,0,0,1-.542-1.754,2.156,2.156,0,0,1,1.435-1.435,1.682,1.682,0,0,1,1.754.542l1.212,1.18V71.76a5.991,5.991,0,0,0-.861-3.125,9.821,9.821,0,0,1-5.134,1.4A10.6,10.6,0,0,1,61.6,68.572a6.021,6.021,0,0,0-.861,3.157v3.444l1.212-1.212a1.854,1.854,0,0,1,1.4-.574,2.136,2.136,0,0,1,1.244.574,1.856,1.856,0,0,1,0,2.71l-4.369,4.464a2.136,2.136,0,0,1-1.371.542,1.785,1.785,0,0,1-1.339-.574l-4.464-4.432a1.905,1.905,0,1,1,2.679-2.71l1.212,1.212V71.729a9.567,9.567,0,0,1,1.818-5.772,9.962,9.962,0,0,1-1.818-5.8V56.709l-1.212,1.18a1.894,1.894,0,1,1-2.679-2.679l4.464-4.5a1.945,1.945,0,0,1,2.71,0l4.464,4.5a1.821,1.821,0,0,1,0,2.679,1.856,1.856,0,0,1-2.71,0l-1.18-1.18v3.444a6.154,6.154,0,1,0,12.309,0V56.709L71.9,57.889a1.856,1.856,0,0,1-1.754.542,2.176,2.176,0,0,1-1.435-1.4,1.752,1.752,0,0,1,.542-1.786l4.464-4.464a1.969,1.969,0,0,1,1.339-.574,1.766,1.766,0,0,1,1.339.574l4.464,4.464a1.856,1.856,0,0,1,0,2.71,1.883,1.883,0,0,1-2.71,0l-1.244-1.244v3.444a9.817,9.817,0,0,1-1.913,5.9,10.006,10.006,0,0,1,1.786,5.708V75.2l1.212-1.244a1.874,1.874,0,0,1,2.679,0,1.958,1.958,0,0,1,.574,1.244,1.711,1.711,0,0,1-.574,1.435l-4.337,4.5a1.88,1.88,0,0,1-1.339.542A1.767,1.767,0,0,1,73.685,81.1Zm-6.473,6.6a24.96,24.96,0,0,0,6.122-.925.615.615,0,0,1,.8.446.663.663,0,0,1-.446.8,24.446,24.446,0,0,1-6.473.957.586.586,0,0,1-.606-.606A.662.662,0,0,1,67.212,87.7Zm-6.122-.8a.615.615,0,0,1,.446.8.607.607,0,0,1-.606.478.4.4,0,0,1-.191-.032,22.617,22.617,0,0,1-5.963-2.615.635.635,0,0,1-.223-.893.655.655,0,0,1,.893-.223A20.726,20.726,0,0,0,61.089,86.907Zm18.176-1.594a.681.681,0,0,1-.542-.255.648.648,0,0,1,.191-.893,22.412,22.412,0,0,0,4.592-4.082.635.635,0,0,1,.989.8,22.466,22.466,0,0,1-4.879,4.337A1.96,1.96,0,0,1,79.266,85.313ZM50.694,81.359a.76.76,0,0,1-.446.191.743.743,0,0,1-.478-.223,21.707,21.707,0,0,1-3.635-5.453.633.633,0,0,1,.319-.829.661.661,0,0,1,.829.287A21.477,21.477,0,0,0,50.726,80.5.606.606,0,0,1,50.694,81.359Zm36.7-5.644a.429.429,0,0,1-.255-.064.617.617,0,0,1-.319-.829,20.643,20.643,0,0,0,1.69-5.931.627.627,0,0,1,1.244.159,23.635,23.635,0,0,1-1.786,6.282A.708.708,0,0,1,87.4,75.715ZM44.795,70.2a.617.617,0,0,1-.606-.51,24.553,24.553,0,0,1-.319-3.731,19.6,19.6,0,0,1,.191-2.774.646.646,0,0,1,.7-.606.694.694,0,0,1,.574.733,24.039,24.039,0,0,0-.191,2.647,21.111,21.111,0,0,0,.287,3.508.669.669,0,0,1-.542.733Zm44.292-6.952a.593.593,0,0,1-.606-.51A21.586,21.586,0,0,0,86.7,56.8a.67.67,0,0,1,.319-.861.633.633,0,0,1,.829.319,21.393,21.393,0,0,1,1.85,6.25.578.578,0,0,1-.51.7C89.119,63.246,89.119,63.246,89.087,63.246ZM46.325,57.73a.474.474,0,0,1-.287-.064.677.677,0,0,1-.351-.829,23.817,23.817,0,0,1,3.412-5.58.635.635,0,0,1,.989.8,22.971,22.971,0,0,0-3.253,5.262A.464.464,0,0,1,46.325,57.73Zm37.5-5.9a.678.678,0,0,1-.478-.223,21.03,21.03,0,0,0-4.719-4.018.621.621,0,0,1-.159-.893.6.6,0,0,1,.893-.191A24.311,24.311,0,0,1,84.3,50.778a.6.6,0,0,1-.032.861A.649.649,0,0,1,83.826,51.83ZM54.361,48.036a.575.575,0,0,1-.51-.287.61.61,0,0,1,.159-.861,23.072,23.072,0,0,1,5.9-2.9.635.635,0,1,1,.383,1.212,21.038,21.038,0,0,0-5.517,2.679A1.156,1.156,0,0,1,54.361,48.036ZM73.207,45.07c-.064,0-.159,0-.191-.064a21.57,21.57,0,0,0-6.7-.829.668.668,0,0,1-.67-.638.64.64,0,0,1,.638-.638,23.109,23.109,0,0,1,7.079.925.624.624,0,0,1,.446.8A.652.652,0,0,1,73.207,45.07ZM41,65.957A25.941,25.941,0,1,0,66.893,40,25.98,25.98,0,0,0,41,65.957Z" transform="translate(-38.724 -38.724)" fill="#057998" fill-rule="evenodd"/>
    </g>
  </g>
</svg>
