<svg xmlns="http://www.w3.org/2000/svg" xmlns:xlink="http://www.w3.org/1999/xlink" width="103" height="103" viewBox="0 0 103 103">
  <defs>
    <filter id="Trazado_896985" x="0" y="0" width="103" height="103" filterUnits="userSpaceOnUse">
      <feOffset dy="3" input="SourceAlpha"/>
      <feGaussianBlur stdDeviation="3" result="blur"/>
      <feFlood flood-opacity="0.161"/>
      <feComposite operator="in" in2="blur"/>
      <feComposite in="SourceGraphic"/>
    </filter>
  </defs>
  <g id="Grupo_1213736" data-name="Grupo 1213736" transform="translate(-304.148 -3366.999)">
    <g id="Grupo_1200183" data-name="Grupo 1200183" transform="translate(104.308 -5504.137)">
      <g id="Grupo_1198723" data-name="Grupo 1198723" transform="translate(208.84 8877.136)">
        <g id="Grupo_1198139" data-name="Grupo 1198139" transform="translate(0 0)">
          <g id="Grupo_1111318" data-name="Grupo 1111318" transform="translate(0 0)">
            <g id="Grupo_1109826" data-name="Grupo 1109826" transform="translate(0)">
              <g id="Grupo_1098742" data-name="Grupo 1098742" transform="translate(0)">
                <g transform="matrix(1, 0, 0, 1, -9, -6)" filter="url(#Trazado_896985)">
                  <g id="Trazado_896985-2" data-name="Trazado 896985" transform="translate(9 6)" fill="#efd026" opacity="0.859">
                    <path d="M 42.49993133544922 84.49998474121094 C 36.82975387573242 84.49998474121094 31.32945442199707 83.38957977294922 26.15180969238281 81.19962310791016 C 21.15055274963379 79.08426666259766 16.65885353088379 76.05584716796875 12.80149841308594 72.19849395751953 C 8.944130897521973 68.34112548828125 5.915709018707275 63.84943771362305 3.800353527069092 58.84817123413086 C 1.610398054122925 53.67052459716797 0.4999980032444 48.17022705078125 0.4999980032444 42.50004959106445 C 0.4999980032444 36.82975769042969 1.610398054122925 31.32945823669434 3.800353527069092 26.15181541442871 C 5.915709018707275 21.15055847167969 8.944130897521973 16.65885925292969 12.80149841308594 12.80150318145752 C 16.65885353088379 8.944136619567871 21.15055274963379 5.915714740753174 26.15180969238281 3.800359010696411 C 31.32945442199707 1.610403537750244 36.82975387573242 0.500003457069397 42.49993133544922 0.500003457069397 C 48.17010879516602 0.500003457069397 53.67041015625 1.610403537750244 58.84805297851562 3.800359010696411 C 63.84930801391602 5.915714740753174 68.34101104736328 8.944136619567871 72.1983642578125 12.80150318145752 C 76.05573272705078 16.65885925292969 79.08415222167969 21.15055847167969 81.19950866699219 26.15181541442871 C 83.38946533203125 31.32945823669434 84.49986267089844 36.82975769042969 84.49986267089844 42.49993515014648 C 84.49986267089844 48.17022705078125 83.38946533203125 53.67052459716797 81.19950866699219 58.84817123413086 C 79.08415222167969 63.84943771362305 76.05573272705078 68.34112548828125 72.1983642578125 72.19849395751953 C 68.34101104736328 76.05584716796875 63.84930801391602 79.08426666259766 58.84805297851562 81.19962310791016 C 53.67041015625 83.38957977294922 48.17010879516602 84.49998474121094 42.49993133544922 84.49998474121094 Z" stroke="none"/>
                    <path d="M 42.49993133544922 1.000007629394531 C 36.89703750610352 1.000007629394531 31.46226119995117 2.097122192382812 26.34659194946289 4.2608642578125 C 21.40493011474609 6.35101318359375 16.96665191650391 9.343452453613281 13.15505218505859 13.15505218505859 C 9.343452453613281 16.96665954589844 6.351005554199219 21.40493392944336 4.2608642578125 26.34659194946289 C 2.09710693359375 31.46227645874023 1 36.89704132080078 1 42.50004959106445 C 1 48.10294342041016 2.09710693359375 53.5377197265625 4.2608642578125 58.65339279174805 C 6.351005554199219 63.59505081176758 9.343452453613281 68.03333282470703 13.15505218505859 71.84493255615234 C 16.96665191650391 75.65653228759766 21.40493011474609 78.64897918701172 26.34659194946289 80.73912048339844 C 31.46226119995117 82.90287780761719 36.89703750610352 83.99997711181641 42.49993133544922 83.99997711181641 C 48.10282516479492 83.99997711181641 53.53759002685547 82.90287780761719 58.65327453613281 80.73912048339844 C 63.59493255615234 78.64897918701172 68.033203125 75.65653228759766 71.84481048583984 71.84493255615234 C 75.65641784667969 68.03333282470703 78.64884948730469 63.59505081176758 80.73899841308594 58.65339279174805 C 82.90274047851562 53.5377197265625 83.99986267089844 48.10294342041016 83.99986267089844 42.49993515014648 C 83.99986267089844 36.89704132080078 82.90274047851562 31.46227645874023 80.73899841308594 26.34659194946289 C 78.64884948730469 21.40493392944336 75.65641784667969 16.96665954589844 71.84481048583984 13.15505218505859 C 68.033203125 9.343452453613281 63.59493255615234 6.35101318359375 58.65327453613281 4.2608642578125 C 53.53759002685547 2.097122192382812 48.10282516479492 1.000007629394531 42.49993133544922 1.000007629394531 M 42.49993133544922 7.62939453125e-06 C 65.97199249267578 7.62939453125e-06 84.99986267089844 19.02787780761719 84.99986267089844 42.49993515014648 L 84.99986267089844 42.50004959106445 C 84.99986267089844 65.97212219238281 65.97199249267578 84.99997711181641 42.49993133544922 84.99997711181641 C 19.02786254882812 84.99997711181641 0 65.97212219238281 0 42.50004959106445 L 0 42.49993515014648 C 0 19.02787780761719 19.02786254882812 7.62939453125e-06 42.49993133544922 7.62939453125e-06 Z" stroke="none" fill="#fff"/>
                  </g>
                </g>
                <g id="Rectángulo_400907" data-name="Rectángulo 400907" transform="translate(0)" fill="none" stroke="#fff" stroke-width="1">
                  <rect width="85" height="85" rx="42.5" stroke="none"/>
                  <rect x="0.5" y="0.5" width="84" height="84" rx="42" fill="none"/>
                </g>
              </g>
            </g>
          </g>
        </g>
      </g>
    </g>
    <g id="cow_3319363" transform="translate(328.122 3351.268)">
      <g id="Grupo_1211825" data-name="Grupo 1211825" transform="translate(37.204 44.512)">
        <path id="Trazado_1034247" data-name="Trazado 1034247" d="M332.307,82.847a1.578,1.578,0,0,0-2.954.929l-.17,3.23a9.656,9.656,0,0,1,4.985-1.772Z" transform="translate(-329.183 -82.023)" fill="#2b4d66" fill-rule="evenodd"/>
      </g>
      <g id="Grupo_1211826" data-name="Grupo 1211826" transform="translate(43.474 44.512)">
        <path id="Trazado_1034248" data-name="Trazado 1034248" d="M386.521,82.847l-1.861,2.387a9.674,9.674,0,0,1,4.985,1.772l-.17-3.23a1.578,1.578,0,0,0-2.954-.929Z" transform="translate(-384.66 -82.023)" fill="#2b4d66" fill-rule="evenodd"/>
      </g>
      <g id="Grupo_1211827" data-name="Grupo 1211827" transform="translate(1.08 40.579)">
        <path id="Trazado_1034249" data-name="Trazado 1034249" d="M14.817,47.446c-1.32-.849-3.627.958-4.863,2.8a2.361,2.361,0,0,0,.644,3.268l.086.058a2.362,2.362,0,0,0,3.181-.7C15.528,50.4,16.137,48.3,14.817,47.446Z" transform="translate(-9.556 -47.23)" fill="#365e7d" fill-rule="evenodd"/>
      </g>
      <g id="Grupo_1211828" data-name="Grupo 1211828" transform="translate(37.37 75.689)">
        <path id="Trazado_1034250" data-name="Trazado 1034250" d="M337.054,357.891a20.373,20.373,0,0,1-6.4,1.009l.577,7.581h5.056Z" transform="translate(-330.656 -357.891)" fill="#d0cee7" fill-rule="evenodd"/>
      </g>
      <g id="Grupo_1211829" data-name="Grupo 1211829" transform="translate(3.928 51.944)">
        <path id="Trazado_1034251" data-name="Trazado 1034251" d="M51.434,147.789c-2.624,1.384-13.479,11.653-16.679,13.71.045,4.5.256,8.135.615,12.88l.436,5.742h5.056l.519-6.35a7.532,7.532,0,0,0,1.012.067H58.118l.474,6.283h5.056l.682-7.619c.324-.038,1.89.086,3.867.038a20.373,20.373,0,0,0,6.4-1.009c2.14-.8,3.758-2.211,3.764-4.662l0-.884c-4.54-6.414-7.9-16.238-17.25-18.173.077-.042-7.446-.023-9.679-.023Z" transform="translate(-34.755 -147.785)" fill="#dddaec" fill-rule="evenodd"/>
      </g>
      <g id="Grupo_1211830" data-name="Grupo 1211830" transform="translate(48.879 49.402)">
        <path id="Trazado_1034252" data-name="Trazado 1034252" d="M437.213,126.453a4.182,4.182,0,0,0-4.729-.746c0,2.131.652,3.191,1.245,5.033.234.718.848,1.235,2.26,1.548,2.172-.362,4.242-1.624,4.575-3.2C440.891,127.543,439.866,129.231,437.213,126.453Z" transform="translate(-432.484 -125.291)" fill="#2b4d66" fill-rule="evenodd"/>
      </g>
      <g id="Grupo_1211831" data-name="Grupo 1211831" transform="translate(28.636 49.402)">
        <path id="Trazado_1034253" data-name="Trazado 1034253" d="M256.781,126.453a7.068,7.068,0,0,1-1.759,1.407c-1.339.708-1.833.09-1.592,1.227.333,1.576,2.412,2.8,4.585,3.159,1.3-.731,3.925-4.409,3.5-6.539A4.183,4.183,0,0,0,256.781,126.453Z" transform="translate(-253.371 -125.291)" fill="#2b4d66" fill-rule="evenodd"/>
      </g>
      <g id="Grupo_1211832" data-name="Grupo 1211832" transform="translate(3.922 51.948)">
        <path id="Trazado_1034254" data-name="Trazado 1034254" d="M46.677,147.824A11.98,11.98,0,0,0,34.7,159.807c0,.59,0,1.166.006,1.727,1.288.7,6.331,2.8,8.279-1.458,3.149-6.879,9.455-.577,8.4-12.252Z" transform="translate(-34.698 -147.824)" fill="#365e7d" fill-rule="evenodd"/>
      </g>
      <g id="Grupo_1211833" data-name="Grupo 1211833" transform="translate(37.947 84.279)">
        <path id="Trazado_1034255" data-name="Trazado 1034255" d="M335.759,433.895l.17,2.236a1.293,1.293,0,0,0,1.253,1.253h3.624c1.317,0,1.56-.961,1.032-1.82l-1.022-1.669h-5.056Z" transform="translate(-335.759 -433.895)" fill="#365e7d" fill-rule="evenodd"/>
      </g>
      <g id="Grupo_1211834" data-name="Grupo 1211834" transform="translate(27.765 84.279)">
        <path id="Trazado_1034256" data-name="Trazado 1034256" d="M245.667,433.895l.17,2.236a1.3,1.3,0,0,0,1.253,1.253h3.627c1.314,0,1.557-.961,1.032-1.82l-1.025-1.669h-5.055Z" transform="translate(-245.667 -433.895)" fill="#365e7d" fill-rule="evenodd"/>
      </g>
      <g id="Grupo_1211835" data-name="Grupo 1211835" transform="translate(14.946 77.996)">
        <path id="Trazado_1034257" data-name="Trazado 1034257" d="M132.245,378.3l.477,6.283h5.056l.561-6.283Z" transform="translate(-132.245 -378.303)" fill="#d0cee7" fill-rule="evenodd"/>
      </g>
      <g id="Grupo_1211836" data-name="Grupo 1211836" transform="translate(15.424 84.279)">
        <path id="Trazado_1034258" data-name="Trazado 1034258" d="M141.525,433.895h-5.056l.17,2.236a1.293,1.293,0,0,0,1.253,1.253h3.624c1.317,0,1.56-.961,1.032-1.82Z" transform="translate(-136.469 -433.895)" fill="#365e7d" fill-rule="evenodd"/>
      </g>
      <g id="Grupo_1211837" data-name="Grupo 1211837" transform="translate(13.16 64.675)">
        <path id="Trazado_1034259" data-name="Trazado 1034259" d="M121.138,262.192a3.957,3.957,0,0,0-3.729,1.041,3.439,3.439,0,0,0,.407,5.146c1.3,1.07,3.226,1.259,4.325-.442a5.317,5.317,0,0,1,1.919-1.826c1.237-.7,2.387-.836,2.874-2.294a2.5,2.5,0,0,0-3.95-2.784C122.282,261.618,122.029,262.384,121.138,262.192Z" transform="translate(-116.436 -260.434)" fill="#365e7d" fill-rule="evenodd"/>
      </g>
      <g id="Grupo_1211838" data-name="Grupo 1211838" transform="translate(27.699 58.692)">
        <path id="Trazado_1034260" data-name="Trazado 1034260" d="M245.639,216.206c-2.96,3.938,6.693,9.218,8.548,1.762-.051-.045-.1-.09-.154-.138-2.871-2.57-3.476-4.6-2.739-6.113l-.163-2.083c-.054-.711-.17-1.423-.272-2.137C243.944,207.469,248.5,212.4,245.639,216.206Z" transform="translate(-245.079 -207.498)" fill="#365e7d" fill-rule="evenodd"/>
      </g>
      <g id="Grupo_1211839" data-name="Grupo 1211839" transform="translate(4.979 84.279)">
        <path id="Trazado_1034261" data-name="Trazado 1034261" d="M49.109,433.895H44.053l.17,2.236a1.293,1.293,0,0,0,1.253,1.253H49.1c1.314,0,1.557-.961,1.028-1.82Z" transform="translate(-44.053 -433.895)" fill="#365e7d" fill-rule="evenodd"/>
      </g>
      <g id="Grupo_1211840" data-name="Grupo 1211840" transform="translate(33.278 47.703)">
        <path id="Trazado_1034262" data-name="Trazado 1034262" d="M304,110.261a9.72,9.72,0,0,0-9.25,6.735,6.456,6.456,0,0,0-.3,1.919,15.12,15.12,0,0,0,.2,2.336c.1.714.218,1.426.272,2.137l.086,1.1.077.987c2.05-2.3,15.753-1.977,17.8.247l.234-3.057c.106-1.407.433-2.5.436-3.7a6.069,6.069,0,0,0-.307-1.961,9.72,9.72,0,0,0-9.25-6.735Z" transform="translate(-294.449 -110.261)" fill="#f9f6f6" fill-rule="evenodd"/>
      </g>
      <g id="Grupo_1211841" data-name="Grupo 1211841" transform="translate(33.627 59.674)">
        <path id="Trazado_1034263" data-name="Trazado 1034263" d="M315.62,219.664c-1.922-4.54-15.635-4.668-17.8-.247-.737,1.509-.131,3.544,2.739,6.113l.154.138a11.184,11.184,0,0,0,1.65,1.189,8.387,8.387,0,0,0,5.69,1.125,8.978,8.978,0,0,0,3.39-1.333,11.379,11.379,0,0,0,1.464-1.118C315.616,223.108,316.248,221.151,315.62,219.664Z" transform="translate(-297.532 -216.179)" fill="#d09080" fill-rule="evenodd"/>
      </g>
      <g id="Grupo_1211842" data-name="Grupo 1211842" transform="translate(43.317 47.713)">
        <path id="Trazado_1034264" data-name="Trazado 1034264" d="M388.833,112.452a9.67,9.67,0,0,0-5.562-2.1,9.779,9.779,0,0,1,5.773,6.1,6.244,6.244,0,0,1,.307,1.961c-.006,1.2-.333,2.3-.439,3.7l-.1,1.278a5.014,5.014,0,0,1,2.851,2.406l.234-3.057c.106-1.407.432-2.5.436-3.7a6.069,6.069,0,0,0-.308-1.961A9.71,9.71,0,0,0,388.833,112.452Z" transform="translate(-383.271 -110.347)" fill="#dddaec" fill-rule="evenodd"/>
      </g>
      <g id="Grupo_1211843" data-name="Grupo 1211843" transform="translate(35.477 60.753)">
        <path id="Trazado_1034265" data-name="Trazado 1034265" d="M326.112,230.009a14.267,14.267,0,0,1-1.538,1.586,11.61,11.61,0,0,1-1.464,1.118,9.043,9.043,0,0,1-3.393,1.333,8.411,8.411,0,0,1-5.69-1.125l-.125-.077A15.553,15.553,0,0,0,315.078,234l.154.138a11.188,11.188,0,0,0,1.65,1.189,8.387,8.387,0,0,0,5.69,1.125,8.976,8.976,0,0,0,3.39-1.333A11.367,11.367,0,0,0,327.426,234c2.711-2.422,3.342-4.38,2.714-5.866a5.014,5.014,0,0,0-2.851-2.406,2.841,2.841,0,0,1,.218,1.259A5.337,5.337,0,0,1,326.112,230.009Z" transform="translate(-313.902 -225.729)" fill="#ce775f" fill-rule="evenodd"/>
      </g>
      <g id="Grupo_1211844" data-name="Grupo 1211844" transform="translate(35.387 69.163)">
        <path id="Trazado_1034266" data-name="Trazado 1034266" d="M321.868,302.456a8.387,8.387,0,0,1-5.69-1.125,11.181,11.181,0,0,1-1.65-1.189,5.429,5.429,0,0,1-1.419,2.672c.029.022.055.048.08.071,2.355,2.073,6.174,2.5,11.165,1.852a4.318,4.318,0,0,0,.9-2.73l0-.884A8.973,8.973,0,0,1,321.868,302.456Z" transform="translate(-313.109 -300.143)" fill="#d0cee7" fill-rule="evenodd"/>
      </g>
      <g id="Grupo_1211845" data-name="Grupo 1211845" transform="translate(31.392 58.692)">
        <path id="Trazado_1034267" data-name="Trazado 1034267" d="M279.844,207.5a8.443,8.443,0,0,0-2.086.208c.247,1.688.365,3.316.5,5.017-.311,2.336-.183,4.591,3.5,7.917a5.429,5.429,0,0,0,1.419-2.672l-.154-.138a15.586,15.586,0,0,1-1.176-1.157c-1.852-2.031-2.185-3.681-1.564-4.956l-.077-.987-.086-1.1C280.062,208.924,279.946,208.213,279.844,207.5Z" transform="translate(-277.758 -207.498)" fill="#2b4d66" fill-rule="evenodd"/>
      </g>
      <g id="Grupo_1211846" data-name="Grupo 1211846" transform="translate(25.841 51.945)">
        <path id="Trazado_1034268" data-name="Trazado 1034268" d="M236.079,152.206a8.268,8.268,0,0,1-2.22-.7,3.982,3.982,0,0,1-2.364-2.464c-.24-1.137.253-.519,1.592-1.227.035-.019-2.323-.026-4.4-.026-.606,5.421,5.286,5.472,5.507,6.956a8.443,8.443,0,0,1,2.086-.208A15.107,15.107,0,0,1,236.079,152.206Z" transform="translate(-228.641 -147.794)" fill="#d0cee7" fill-rule="evenodd"/>
      </g>
      <g id="Grupo_1211848" data-name="Grupo 1211848" transform="translate(0 39.732)">
        <path id="Trazado_1034269" data-name="Trazado 1034269" d="M339.312,174.059a.848.848,0,0,0-.848.848v.65a.848.848,0,0,0,1.7,0v-.65A.848.848,0,0,0,339.312,174.059Z" transform="translate(-300.212 -158.878)"/>
        <path id="Trazado_1034270" data-name="Trazado 1034270" d="M405.336,174.059a.848.848,0,0,0-.848.848v.65a.848.848,0,1,0,1.7,0v-.65A.848.848,0,0,0,405.336,174.059Z" transform="translate(-358.774 -158.878)"/>
        <path id="Trazado_1034271" data-name="Trazado 1034271" d="M347.08,252.246a.848.848,0,0,0-.848.848v1.371a.848.848,0,1,0,1.7,0v-1.371A.848.848,0,0,0,347.08,252.246Z" transform="translate(-307.102 -228.228)"/>
        <path id="Trazado_1034272" data-name="Trazado 1034272" d="M397.568,255.314a.848.848,0,0,0,.848-.848v-1.371a.848.848,0,0,0-1.7,0v1.371A.848.848,0,0,0,397.568,255.314Z" transform="translate(-351.884 -228.229)"/>
        <g id="Grupo_1211847" data-name="Grupo 1211847" transform="translate(0)">
          <path id="Trazado_1034273" data-name="Trazado 1034273" d="M119.819,253.48a3.265,3.265,0,0,0-4.015.21,5.768,5.768,0,0,0-.611.611c-.36.4-.384.4-.512.37a4.8,4.8,0,0,0-4.549,1.314,4.266,4.266,0,0,0-.882,4.476,4.615,4.615,0,0,0,3.707,2.876q.177.017.351.017a3.416,3.416,0,0,0,2.908-1.65,5.006,5.006,0,0,1,2.445-1.957,3.862,3.862,0,0,0,2.44-2.355,3.344,3.344,0,0,0-1.283-3.912Zm-.325,3.375c-.243.725-.649.939-1.544,1.353a6.6,6.6,0,0,0-3.157,2.576,1.7,1.7,0,0,1-1.671.866,2.963,2.963,0,0,1-2.3-1.816,2.538,2.538,0,0,1,.586-2.736,2.892,2.892,0,0,1,2.159-.849,3.551,3.551,0,0,1,.751.08h0a2.1,2.1,0,0,0,2.133-.9,4.286,4.286,0,0,1,.435-.442,1.588,1.588,0,0,1,1.973-.109A1.663,1.663,0,0,1,119.494,256.855Z" transform="translate(-96.641 -228.799)"/>
          <path id="Trazado_1034274" data-name="Trazado 1034274" d="M57.676,52.088a1.379,1.379,0,0,0-.979-.549,4.314,4.314,0,0,1-2.477-1.561,4.986,4.986,0,0,0-4.951-1.218l-.133-2.542a2.416,2.416,0,0,0-4.469-1.4l-1.6,2.046c-.078,0-.156,0-.235,0s-.163,0-.245,0L41,44.813a2.416,2.416,0,0,0-4.468,1.407l-.134,2.543a4.993,4.993,0,0,0-4.961,1.216A6.717,6.717,0,0,1,30.1,51.1H15.9A12.849,12.849,0,0,0,3.8,59.688a12.172,12.172,0,0,1-1.13-11.674,3.163,3.163,0,0,0,.76.094,3.244,3.244,0,0,0,.625-.061,3.182,3.182,0,0,0,2.042-1.355c1.421-2.114,2.011-3.821,1.754-5.074A2.352,2.352,0,0,0,6.8,40.082C4.882,38.849,2.121,41.116.774,43.119l0,0a3.212,3.212,0,0,0,.4,4.055A14.131,14.131,0,0,0,3.249,61.82a12.864,12.864,0,0,0-.175,2.111c0,.583,0,1.147.008,1.7q0,.035,0,.07c.043,4.571.256,8.185.616,12.9L4.3,86.579a2.134,2.134,0,0,0,2.1,2.037h3.627a2.022,2.022,0,0,0,1.914-.961,2.12,2.12,0,0,0-.163-2.149L10.9,84.073l.428-5.232q.118,0,.236,0h2.6l.587,7.735a2.134,2.134,0,0,0,2.1,2.037H20.47a2.025,2.025,0,0,0,1.917-.962,2.119,2.119,0,0,0-.163-2.149l-.876-1.43.468-5.232H26.5l.416,5.5c0,.008,0,.017,0,.025l.167,2.211a2.139,2.139,0,0,0,2.1,2.033h3.627a2.024,2.024,0,0,0,1.913-.959,2.124,2.124,0,0,0-.16-2.152l-.878-1.43.588-6.56.114,0c.557.018,1.316.043,2.193.04l.686,9.02a2.134,2.134,0,0,0,2.1,2.037h3.624a2.025,2.025,0,0,0,1.917-.962,2.119,2.119,0,0,0-.163-2.149l-.876-1.43.7-7.8a7.382,7.382,0,0,0,2.214-1.417,5.144,5.144,0,0,0,1.6-3.825l0-.435a12.47,12.47,0,0,0,1.183-.939c2.652-2.372,3.676-4.567,3.043-6.525-.007-.023-.016-.045-.024-.068s.008-.055.011-.083l.163-2.086c.044-.555.125-1.111.212-1.7.1-.692.2-1.394.246-2.107,2.038-.513,4.17-1.809,4.573-3.716A1.638,1.638,0,0,0,57.676,52.088ZM2.182,44.064c1.248-1.856,3.078-2.956,3.7-2.557a.649.649,0,0,1,.3.453c.074.358.075,1.444-1.5,3.786a1.508,1.508,0,0,1-2.5-1.682ZM46,45.858c.376-.48.753-.534.878-.485A.849.849,0,0,0,47,45.41c.131.031.413.293.446.9l.086,1.639a10.54,10.54,0,0,0-2.484-.861Zm-7.783.453c.033-.608.316-.87.448-.9a.883.883,0,0,1,.207-.05,1.1,1.1,0,0,1,.784.5l.959,1.23-.073.018a10.53,10.53,0,0,0-2.411.847Zm-5.563,4.84a3.186,3.186,0,0,1,2.405-.9,10.549,10.549,0,0,0-2.283,3.926,7.267,7.267,0,0,0-.27,1.135c-1.5-.441-2.683-1.289-2.954-2.168A6.112,6.112,0,0,0,32.657,51.151Zm3.187,18.285a3.4,3.4,0,0,1-2.709,2.6,4.577,4.577,0,0,1-4.27-1.992,1.781,1.781,0,0,1,.07-2.135,7.8,7.8,0,0,0,1.253-5.168c-.018-1.273-.005-2.078.456-2.543a3.364,3.364,0,0,1,2.162-.643c.025.2.047.4.063.611l.2,2.567c-.037.088-.072.177-.1.267C32.329,64.917,33.3,67.081,35.845,69.436ZM10.463,86.828a.681.681,0,0,1-.434.092H6.4a.457.457,0,0,1-.408-.469l-.1-1.324H9.56l.775,1.266a.6.6,0,0,1,.127.435Zm10.445,0a.684.684,0,0,1-.437.093H16.846a.457.457,0,0,1-.407-.469l-.1-1.324H20l.775,1.266A.6.6,0,0,1,20.907,86.827Zm-1.2-3.4H16.21l-.348-4.588h4.253Zm13.545,3.4c-.013.018-.131.093-.435.093H29.188a.46.46,0,0,1-.408-.469l-.1-1.325h3.667l.776,1.264A.608.608,0,0,1,33.249,86.828Zm10.181,0a.684.684,0,0,1-.437.093H39.37a.457.457,0,0,1-.408-.469l-.1-1.324h3.667l.775,1.266a.6.6,0,0,1,.127.435Zm-1.2-3.4H38.732l-.45-5.918a22.554,22.554,0,0,0,4.53-.643Zm3.377-9.8a6.106,6.106,0,0,1-2.057,1.237.844.844,0,0,0-.15.056,19.665,19.665,0,0,1-5.995.923.864.864,0,0,0-.1,0H37.3c-1.154.025-2.167-.008-2.849-.03a8.757,8.757,0,0,0-1.041-.006.848.848,0,0,0-.748.767l-.613,6.847H28.552l-.416-5.5a.848.848,0,0,0-.845-.784h-12.2c-.067-.011-3.522,0-3.522,0a6.708,6.708,0,0,1-.9-.059.848.848,0,0,0-.959.771l-.455,5.572H5.765l-.376-4.958c-.322-4.228-.526-7.562-.594-11.5a9.786,9.786,0,0,0,3.347.669,5.816,5.816,0,0,0,1.851-.285,4.972,4.972,0,0,0,2.984-2.8,6.165,6.165,0,0,1,1.66-2.27.848.848,0,0,0-1.074-1.312,7.811,7.811,0,0,0-2.127,2.876,3.3,3.3,0,0,1-1.981,1.9,6.986,6.986,0,0,1-4.682-.615c0-.393,0-.792,0-1.2A11.146,11.146,0,0,1,15.9,52.8h3.922c.339,5.224-1.085,5.833-2.042,6.242a.848.848,0,1,0,.667,1.559c2.072-.886,3.39-2.585,3.073-7.8h6.267a3.007,3.007,0,0,0,.077.577c.4,1.9,2.5,3.168,4.594,3.68.023.276.057.549.1.821a4.642,4.642,0,0,0-3.115,1.132c-.986.995-.967,2.4-.947,3.76a6.256,6.256,0,0,1-.913,4.125,3.471,3.471,0,0,0-.172,4.02,6.262,6.262,0,0,0,5.21,2.858,5.245,5.245,0,0,0,.764-.055,4.873,4.873,0,0,0,3.849-3.145,9.679,9.679,0,0,0,5.594,1.866,9.217,9.217,0,0,0,3.821-.848A3.386,3.386,0,0,1,45.6,73.635ZM51.292,58.95c-.087.59-.177,1.2-.225,1.813l-.02.257a12.179,12.179,0,0,0-6.175-2.079.848.848,0,1,0-.176,1.686c3.345.35,5.818,1.538,6.3,3.026.508,1.571-1.112,3.444-2.56,4.74a10.778,10.778,0,0,1-1.323,1.016c-.022.013-.043.026-.063.04-3.193,2.036-6.771,1.685-9.831-1.057-2.147-1.921-3.061-3.6-2.644-4.858.036-.107.089-.2.134-.307.714-1.333,3.089-2.35,6.221-2.631a.848.848,0,1,0-.152-1.688,12.4,12.4,0,0,0-6.153,1.96l-.064-.83c-.05-.659-.142-1.236-.232-1.794a6.852,6.852,0,0,1,.066-3.548,8.874,8.874,0,0,1,16.888,0A9.317,9.317,0,0,1,51.292,58.95Zm1.866-3.6a6.863,6.863,0,0,0-.263-1.17,10.564,10.564,0,0,0-2.287-3.927,3.175,3.175,0,0,1,2.386.9,6.117,6.117,0,0,0,3.1,1.995A4.331,4.331,0,0,1,53.159,55.348Z" transform="translate(0 -39.732)"/>
        </g>
      </g>
    </g>
  </g>
</svg>
