<svg xmlns="http://www.w3.org/2000/svg" width="90" height="90" viewBox="0 0 90 90">
  <g id="Grupo_1212230" data-name="Grupo 1212230" transform="translate(-201.051 -21175.125)">
    <g id="Grupo_1211620" data-name="Grupo 1211620" transform="translate(201.051 21175.125)">
      <circle id="Elipse_11588" data-name="Elipse 11588" cx="45" cy="45" r="45" fill="#f4c5c5"/>
    </g>
    <g id="obediente_22_" data-name="obediente (22)" transform="translate(211.683 21191.162)">
      <g id="Grupo_1212220" data-name="Grupo 1212220" transform="translate(9.837 0.848)">
        <g id="Grupo_1212218" data-name="Grupo 1212218" transform="translate(0)">
          <g id="Grupo_1212215" data-name="Grupo 1212215" transform="translate(0 22.167)">
            <g id="Grupo_1212208" data-name="Grupo 1212208" transform="translate(0 0)">
              <path id="Trazado_1036234" data-name="Trazado 1036234" d="M39.206,203.949l2.038,3.53a.339.339,0,0,0,.294.17H55.5a.339.339,0,0,0,.294-.17l2.038-3.53a.339.339,0,0,0-.294-.509H39.5a.339.339,0,0,0-.294.509Z" transform="translate(-39.16 -203.44)" fill="#fed402"/>
            </g>
            <g id="Grupo_1212214" data-name="Grupo 1212214">
              <g id="Grupo_1212209" data-name="Grupo 1212209" transform="translate(30.345 0)">
                <path id="Trazado_1036235" data-name="Trazado 1036235" d="M307.428,203.949l2.038,3.53a.339.339,0,0,0,.294.17h13.963a.339.339,0,0,0,.294-.17l2.038-3.53a.339.339,0,0,0-.294-.509H307.722A.339.339,0,0,0,307.428,203.949Z" transform="translate(-307.382 -203.44)" fill="#fed402"/>
              </g>
              <g id="Grupo_1212210" data-name="Grupo 1212210" transform="translate(0 0)">
                <path id="Trazado_1036236" data-name="Trazado 1036236" d="M39.206,203.949l2.038,3.53a.339.339,0,0,0,.294.17H55.5a.339.339,0,0,0,.294-.17l2.038-3.53a.339.339,0,0,0-.294-.509H39.5a.339.339,0,0,0-.294.509Z" transform="translate(-39.16 -203.44)" fill="#ca6e59"/>
              </g>
              <g id="Grupo_1212211" data-name="Grupo 1212211" transform="translate(0)">
                <path id="Trazado_1036237" data-name="Trazado 1036237" d="M46.039,207.478,44,203.948a.339.339,0,0,1,.294-.509H39.5a.339.339,0,0,0-.294.509l2.038,3.53a.339.339,0,0,0,.294.17h4.795A.339.339,0,0,1,46.039,207.478Z" transform="translate(-39.161 -203.439)" fill="#bb5d4c"/>
              </g>
              <g id="Grupo_1212212" data-name="Grupo 1212212" transform="translate(30.345 0)">
                <path id="Trazado_1036238" data-name="Trazado 1036238" d="M307.428,203.949l2.038,3.53a.339.339,0,0,0,.294.17h13.963a.339.339,0,0,0,.294-.17l2.038-3.53a.339.339,0,0,0-.294-.509H307.722A.339.339,0,0,0,307.428,203.949Z" transform="translate(-307.382 -203.44)" fill="#ca6e59"/>
              </g>
              <g id="Grupo_1212213" data-name="Grupo 1212213" transform="translate(30.345)">
                <path id="Trazado_1036239" data-name="Trazado 1036239" d="M314.854,207.478l-2.038-3.53a.339.339,0,0,1,.294-.509h-5.387a.339.339,0,0,0-.294.509l2.038,3.53a.339.339,0,0,0,.294.17h5.387A.339.339,0,0,1,314.854,207.478Z" transform="translate(-307.383 -203.439)" fill="#bb5d4c"/>
              </g>
            </g>
          </g>
          <path id="Trazado_1036240" data-name="Trazado 1036240" d="M240.5,124.433V103.689a.566.566,0,0,0-.566-.566h-3.4a.566.566,0,0,0-.566.566v20.745H240.5Z" transform="translate(-213.7 -92.305)" fill="#bb5d4c"/>
          <path id="Trazado_1036241" data-name="Trazado 1036241" d="M237.886,124.433V103.689a.566.566,0,0,1,.566-.566h-1.92a.566.566,0,0,0-.566.566v20.745h1.92Z" transform="translate(-213.7 -92.305)" fill="#a44f3e"/>
          <g id="Grupo_1212216" data-name="Grupo 1212216" transform="translate(21.365 0)">
            <circle id="Elipse_12179" data-name="Elipse 12179" cx="3.167" cy="3.167" r="3.167" fill="#883f2e"/>
          </g>
          <g id="Grupo_1212217" data-name="Grupo 1212217" transform="translate(21.365)">
            <path id="Trazado_1036242" data-name="Trazado 1036242" d="M230.834,10.667a3.166,3.166,0,0,1,1.753-2.834,3.167,3.167,0,1,0,0,5.667A3.166,3.166,0,0,1,230.834,10.667Z" transform="translate(-228.005 -7.5)" fill="#6d3326"/>
          </g>
        </g>
        <g id="Grupo_1212219" data-name="Grupo 1212219" transform="translate(4.36 32.128)">
          <path id="Trazado_1036243" data-name="Trazado 1036243" d="M219.833,296.347v-2.6a2.263,2.263,0,0,0-2.263-2.263h-6.051a2.263,2.263,0,0,0-2.263,2.263v2.6Z" transform="translate(-194.373 -291.485)" fill="#883f2e"/>
          <path id="Trazado_1036244" data-name="Trazado 1036244" d="M213.073,296.347v-2.6a2.263,2.263,0,0,1,2.263-2.263h-3.818a2.263,2.263,0,0,0-2.263,2.263v2.6Z" transform="translate(-194.372 -291.485)" fill="#6d3326"/>
          <path id="Trazado_1036245" data-name="Trazado 1036245" d="M190.366,339.61V336.4a1.939,1.939,0,0,0-1.939-1.939H173.111a1.939,1.939,0,0,0-1.939,1.939v3.214Z" transform="translate(-160.597 -329.595)" fill="#bb5d4c"/>
          <path id="Trazado_1036246" data-name="Trazado 1036246" d="M175.944,339.61V336.4a1.939,1.939,0,0,1,1.939-1.939h-4.771a1.939,1.939,0,0,0-1.939,1.939v3.214Z" transform="translate(-160.598 -329.595)" fill="#a44f3e"/>
          <path id="Trazado_1036247" data-name="Trazado 1036247" d="M80.725,379.006a3.022,3.022,0,0,0-3.022,3.022v5.742a3.022,3.022,0,0,0,3.022,3.022H81.95v-8.008h6.179v8.008h34.6V379.006Z" transform="translate(-77.703 -369.104)" fill="#fff3de"/>
        </g>
      </g>
      <g id="Grupo_1212229" data-name="Grupo 1212229" transform="translate(6.944 42.879)">
        <g id="Grupo_1212224" data-name="Grupo 1212224" transform="translate(0)">
          <g id="Grupo_1212221" data-name="Grupo 1212221">
            <path id="Trazado_1036248" data-name="Trazado 1036248" d="M23.871,390.792a3.022,3.022,0,0,1-3.022-3.022v-5.742a3.022,3.022,0,0,1,3.022-3.022H19.489a5.893,5.893,0,0,0,0,11.786h4.382Z" transform="translate(-13.596 -379.006)" fill="#3675bb"/>
          </g>
          <g id="Grupo_1212222" data-name="Grupo 1212222">
            <path id="Trazado_1036249" data-name="Trazado 1036249" d="M16.458,384.9a5.893,5.893,0,0,1,5.893-5.893H19.489a5.893,5.893,0,0,0,0,11.786h2.862A5.893,5.893,0,0,1,16.458,384.9Z" transform="translate(-13.596 -379.006)" fill="#2b68b6"/>
          </g>
          <g id="Grupo_1212223" data-name="Grupo 1212223" transform="translate(7.253 0.004)">
            <path id="Trazado_1036250" data-name="Trazado 1036250" d="M81.95,387.511a3.019,3.019,0,0,1-1.385-2.539V379.23c0-.064,0-.126.006-.189a3.022,3.022,0,0,0-2.868,3.018V387.8a3.022,3.022,0,0,0,3.022,3.022H81.95Z" transform="translate(-77.703 -379.041)" fill="#ffe5c2"/>
            <path id="Trazado_1036251" data-name="Trazado 1036251" d="M169.857,458.174h34.6V461h-34.6Z" transform="translate(-159.431 -449.221)" fill="#ffe5c2"/>
          </g>
        </g>
        <g id="Grupo_1212228" data-name="Grupo 1212228" transform="translate(11.499 3.777)">
          <g id="Grupo_1212225" data-name="Grupo 1212225">
            <path id="Trazado_1036252" data-name="Trazado 1036252" d="M121.419,422.475v-10.08H115.24v10.08a.339.339,0,0,0,.533.279l2.557-1.77,2.557,1.77A.339.339,0,0,0,121.419,422.475Z" transform="translate(-115.24 -412.395)" fill="#fb2b3a"/>
          </g>
          <g id="Grupo_1212227" data-name="Grupo 1212227" transform="translate(0)">
            <g id="Grupo_1212226" data-name="Grupo 1212226">
              <path id="Trazado_1036253" data-name="Trazado 1036253" d="M118.085,412.395H115.24v10.08a.339.339,0,0,0,.533.279l2.312-1.6Z" transform="translate(-115.24 -412.395)" fill="#e41f2d"/>
            </g>
          </g>
        </g>
      </g>
      <path id="Trazado_1036254" data-name="Trazado 1036254" d="M61.793,53.816h-1.72V43.727h1.72a.849.849,0,1,0,0-1.7H44.814V39.778a2.791,2.791,0,0,0-2.788-2.788H40.506V35.24a3.114,3.114,0,0,0-3.022-3.109V18.441a.849.849,0,0,0-1.7,0V32.128H32.951V12.515h2.836v1.966a.849.849,0,0,0,1.7,0V12.232a1.416,1.416,0,0,0-1.414-1.414h-.852V7.94a4.027,4.027,0,0,0,3.076-3.076h10.4V6.412L40.4,22.176a1.186,1.186,0,0,0-.9,1.773l2.038,3.53a1.191,1.191,0,0,0,1.029.594h7.987a.849.849,0,0,0,0-1.7H42.854L41.4,23.864H57.679l-1.45,2.512H54.507a.849.849,0,0,0,0,1.7h2.016a1.191,1.191,0,0,0,1.029-.594l2.038-3.53a1.186,1.186,0,0,0-.9-1.773L50.39,6.412V4.864h3.176a.849.849,0,0,0,0-1.7H38.293a4.015,4.015,0,0,0-7.849,0H15.172a.849.849,0,1,0,0,1.7h3.176V6.412l-8.3,15.764a1.186,1.186,0,0,0-.9,1.773h0l2.038,3.53a1.191,1.191,0,0,0,1.029.594H26.178a1.191,1.191,0,0,0,1.029-.594l2.038-3.53a1.186,1.186,0,0,0-.9-1.773l-8.3-15.764V4.864h10.4A4.027,4.027,0,0,0,33.52,7.94v2.878h-.852a1.416,1.416,0,0,0-1.414,1.414v19.9a3.114,3.114,0,0,0-3.022,3.109v1.75H26.711a2.791,2.791,0,0,0-2.788,2.788V42.03H12.837a6.741,6.741,0,1,0,0,13.483H17.6v1.224a1.188,1.188,0,0,0,1.864.977l2.074-1.435,2.074,1.435a1.188,1.188,0,0,0,1.864-.977V55.512H61.793a.848.848,0,1,0,0-1.7Zm-13.1-31.648H42.318l6.374-12.112Zm1.7-12.112,6.374,12.112H50.39Zm-32.042,0V22.167H11.973Zm7.536,16.321H12.508l-1.45-2.512H27.334Zm.535-4.209H20.045V10.055ZM32.05,4.016a2.319,2.319,0,1,1,2.319,2.319A2.321,2.321,0,0,1,32.05,4.016ZM29.929,35.24a1.416,1.416,0,0,1,1.414-1.414h6.051a1.416,1.416,0,0,1,1.414,1.414v1.75h-8.88ZM12.837,53.816a5.044,5.044,0,1,1,0-10.089h1.181a3.848,3.848,0,0,0-.67,2.173v5.742a3.847,3.847,0,0,0,.67,2.173Zm10.937,1.949-1.758-1.217a.848.848,0,0,0-.966,0l-1.758,1.217V47.5h4.482Zm34.6-9.957H40.035a.849.849,0,1,0,0,1.7H58.376v2.534H40.035a.849.849,0,1,0,0,1.7H58.376v2.08h-32.9V47.5h7.16a.849.849,0,1,0,0-1.7H17.219a.849.849,0,1,0,0,1.7H17.6v6.311h-.376a2.176,2.176,0,0,1-2.173-2.173V45.9a2.176,2.176,0,0,1,2.173-2.173H30.862a.849.849,0,1,0,0-1.7H25.62V39.778a1.092,1.092,0,0,1,1.091-1.091H42.027a1.092,1.092,0,0,1,1.091,1.091V42.03h-8.3a.849.849,0,0,0,0,1.7H58.376Z"/>
    </g>
  </g>
</svg>
