<svg xmlns="http://www.w3.org/2000/svg" width="86.369" height="86.369" viewBox="0 0 86.369 86.369">
  <g id="Grupo_1212236" data-name="Grupo 1212236" transform="translate(-746.051 -21565)">
    <g id="Grupo_1212232" data-name="Grupo 1212232" transform="translate(-0.398 4140.619)">
      <g id="Grupo_1211609" data-name="Grupo 1211609" transform="translate(746.45 17424.381)">
        <g id="Grupo_1099347" data-name="Grupo 1099347" transform="translate(0 0)">
          <g id="Grupo_1099341" data-name="Grupo 1099341" transform="translate(0 0)">
            <g id="Rectángulo_402588" data-name="Rectángulo 402588" transform="translate(0 0)" fill="#f4c5c5" stroke="#fff" stroke-width="5">
              <rect width="86.369" height="86.369" rx="14" stroke="none"/>
              <rect x="2.5" y="2.5" width="81.369" height="81.369" rx="11.5" fill="none"/>
            </g>
          </g>
        </g>
      </g>
    </g>
    <g id="Grupo_1212235" data-name="Grupo 1212235" transform="translate(463.956 8993.139)">
      <g id="viento" transform="translate(298.095 12587.861)">
        <g id="Grupo_1211984" data-name="Grupo 1211984" transform="translate(0 0.888)">
          <g id="Grupo_1211978" data-name="Grupo 1211978" transform="translate(0 15.978)">
            <path id="Trazado_1034578" data-name="Trazado 1034578" d="M40.058,39.529a9.749,9.749,0,0,1-7.705-3.764c-1.767-3.276-2.059-4.607-2.059-6,0-.32.018-.639.044-.95h.009A9.761,9.761,0,0,1,40.058,20h1.775a13.315,13.315,0,0,1,7.989,23.968,27.545,27.545,0,0,1-10.652,2.663H1V43.08H12.966v-.009A2.656,2.656,0,0,0,14,42.8L16.978,41.3,14,39.813a2.787,2.787,0,0,0-1.225-.284Z" transform="translate(-1 -20)" fill="#ccd1d9"/>
          </g>
          <g id="Grupo_1211979" data-name="Grupo 1211979" transform="translate(0.888 12.428)">
            <path id="Trazado_1034579" data-name="Trazado 1034579" d="M30.406,29.315c0,1.394.293,2.725,2.059,6l-.275.213H11.765a9.765,9.765,0,1,1,0-19.529H13.54a6.177,6.177,0,0,1,4.394,1.82,6.262,6.262,0,0,1,1.82,4.394,6.209,6.209,0,0,1-6.214,6.214l16.911-.062C30.424,28.676,30.406,29,30.406,29.315Z" transform="translate(-2 -16)" fill="#e6e9ed"/>
          </g>
          <g id="Grupo_1211980" data-name="Grupo 1211980" transform="translate(10.652 0)">
            <path id="Trazado_1034580" data-name="Trazado 1034580" d="M13,5.551l.391-.772A5,5,0,0,1,17.882,2a7.3,7.3,0,0,1,4.066,1.234l3.48,2.317-3.48,2.317A7.3,7.3,0,0,1,17.882,9.1a4.982,4.982,0,0,1-4.492-2.778Z" transform="translate(-13 -2)" fill="#b4dd7f"/>
          </g>
          <g id="Grupo_1211981" data-name="Grupo 1211981" transform="translate(15.091 46.16)">
            <path id="Trazado_1034581" data-name="Trazado 1034581" d="M26.877,56.663l-2.459,1.846a4.1,4.1,0,0,1-5.859-1L18,56.663l.559-.843a4.1,4.1,0,0,1,5.859-1Z" transform="translate(-18 -54)" fill="#b4dd7f"/>
          </g>
          <g id="Grupo_1211982" data-name="Grupo 1211982" transform="translate(8.877 35.508)">
            <path id="Trazado_1034582" data-name="Trazado 1034582" d="M18.1,43.775l-2.974,1.491a2.656,2.656,0,0,1-1.039.275,1.31,1.31,0,0,1-.186.009,2.721,2.721,0,0,1-1.926-.8L11,43.775l.976-.976A2.721,2.721,0,0,1,13.9,42a2.787,2.787,0,0,1,1.225.284Z" transform="translate(-11 -42)" fill="#a0d468"/>
          </g>
          <g id="Grupo_1211983" data-name="Grupo 1211983" transform="translate(46.16 10.652)">
            <path id="Trazado_1034583" data-name="Trazado 1034583" d="M60.1,15.775l-2.974,1.491a2.787,2.787,0,0,1-1.225.284,2.721,2.721,0,0,1-1.926-.8L53,15.775l.976-.976A2.721,2.721,0,0,1,55.9,14a2.787,2.787,0,0,1,1.225.284Z" transform="translate(-53 -14)" fill="#a0d468"/>
          </g>
        </g>
        <g id="Grupo_1211985" data-name="Grupo 1211985" transform="translate(0 0)">
          <path id="Trazado_1034584" data-name="Trazado 1034584" d="M45.2,42.529H31V44.3H45.2a10.652,10.652,0,1,0,0-21.3H43.428a7.1,7.1,0,1,0,0,14.2h2.663a4.438,4.438,0,0,0,0-8.877H44.315a2.663,2.663,0,0,0,0,5.326h2.663V31.877H44.315a.888.888,0,0,1,0-1.775h1.775a2.663,2.663,0,0,1,0,5.326H43.428a5.326,5.326,0,1,1,0-10.652H45.2a8.877,8.877,0,0,1,0,17.754Z" transform="translate(-4.369 -3.471)"/>
          <path id="Trazado_1034585" data-name="Trazado 1034585" d="M1,49H9.877v1.775H1Z" transform="translate(-1 -6.391)"/>
          <path id="Trazado_1034586" data-name="Trazado 1034586" d="M15,49h3.551v1.775H15Z" transform="translate(-2.572 -6.391)"/>
          <path id="Trazado_1034587" data-name="Trazado 1034587" d="M48.743,49H23v1.775H48.743a4.438,4.438,0,0,1,0,8.877h-.888a2.663,2.663,0,0,1,0-5.326.888.888,0,1,1,0,1.775h-.888v1.775h.888a2.663,2.663,0,1,0,0-5.326,4.438,4.438,0,0,0,0,8.877h.888a6.214,6.214,0,0,0,0-12.428Z" transform="translate(-3.471 -6.391)"/>
          <path id="Trazado_1034588" data-name="Trazado 1034588" d="M21.4,53a4.966,4.966,0,0,0-4.14,2.216l-.3.447H13v1.775h3.964l.3.447a4.976,4.976,0,0,0,7.125,1.221L27.8,56.551,24.388,54A5.01,5.01,0,0,0,21.4,53Zm1.92,4.686a3.2,3.2,0,0,1-4.583-.785l-.233-.351.233-.351a3.2,3.2,0,0,1,4.583-.785l1.514,1.135Z" transform="translate(-2.348 -6.84)"/>
          <path id="Trazado_1034589" data-name="Trazado 1034589" d="M11.92,6.609a5.877,5.877,0,0,0,5.286,3.268A8.2,8.2,0,0,0,21.769,8.5l4.586-3.057L21.769,2.381A8.2,8.2,0,0,0,17.206,1a5.879,5.879,0,0,0-5.287,3.268l-.141.283H7V6.326h4.778Zm1.588-1.548a4.112,4.112,0,0,1,3.7-2.286,6.435,6.435,0,0,1,3.578,1.083l2.369,1.58-2.369,1.58A6.431,6.431,0,0,1,17.206,8.1a4.113,4.113,0,0,1-3.7-2.286l-.188-.377Z" transform="translate(-1.674 -1)"/>
          <path id="Trazado_1034590" data-name="Trazado 1034590" d="M14.851,45.947l4.561-2.281-4.563-2.282a3.708,3.708,0,0,0-4.175.679l-.715.715H5v1.775H9.959l.715.716a3.62,3.62,0,0,0,4.177.677Zm-3.269-2.281.348-.349a1.9,1.9,0,0,1,2.127-.345l1.387.694-1.386.692a1.888,1.888,0,0,1-2.128-.344Z" transform="translate(-1.449 -5.495)"/>
          <path id="Trazado_1034591" data-name="Trazado 1034591" d="M41.834,17.428h-1.8a8.941,8.941,0,0,0,1.782-1.776h4.976l.715.715a3.619,3.619,0,0,0,4.177.678l4.562-2.281-4.563-2.281a3.705,3.705,0,0,0-4.176.678l-.715.715h-3.93a8.814,8.814,0,0,0,.747-3.551,5.326,5.326,0,1,0-10.652,0,3.551,3.551,0,1,0,7.1,0H38.283a1.775,1.775,0,1,1-3.551,0,3.551,3.551,0,0,1,7.1,0,7.11,7.11,0,0,1-7.1,7.1H19.569a7.1,7.1,0,0,0-6.141-3.551H11.652a10.652,10.652,0,1,0,0,21.3h14.2V33.406h-14.2a8.877,8.877,0,0,1,0-17.754h1.775a5.326,5.326,0,1,1,0,10.652H10.765a2.663,2.663,0,0,1,0-5.326H12.54a.888.888,0,1,1,0,1.775H9.877v1.775H12.54a2.663,2.663,0,0,0,0-5.326H10.765a4.438,4.438,0,0,0,0,8.877h2.663A7.074,7.074,0,0,0,20.3,19.2H34.184a10.528,10.528,0,0,0-4.617,10.652H15.2v1.775H30.027a10.661,10.661,0,0,0,10.031,7.1h1.775V36.957H40.058a8.877,8.877,0,0,1,0-17.754h1.775a12.428,12.428,0,0,1,7.457,22.37l1.066,1.42a14.2,14.2,0,0,0-8.524-25.565Zm6.929-3.011a1.888,1.888,0,0,1,2.127-.345l1.387.693-1.387.693a1.884,1.884,0,0,1-2.127-.345l-.348-.348Z" transform="translate(-1 -1.449)"/>
          <path id="Trazado_1034592" data-name="Trazado 1034592" d="M25,15h8.877v1.775H25Z" transform="translate(-3.695 -2.572)"/>
        </g>
      </g>
    </g>
  </g>
</svg>
