<svg xmlns="http://www.w3.org/2000/svg" width="86.369" height="86.369" viewBox="0 0 86.369 86.369">
  <g id="Grupo_1212238" data-name="Grupo 1212238" transform="translate(8899.352 -10330.459)">
    <g id="Grupo_1211629" data-name="Grupo 1211629" transform="translate(-8899.352 10330.459)">
      <g id="Grupo_1099347" data-name="Grupo 1099347" transform="translate(0 0)">
        <g id="Grupo_1099341" data-name="Grupo 1099341" transform="translate(0 0)">
          <g id="Rectángulo_402588" data-name="Rectángulo 402588" transform="translate(0 0)" fill="#f4c5c5" stroke="#fff" stroke-width="5">
            <rect width="86.369" height="86.369" rx="14" stroke="none"/>
            <rect x="2.5" y="2.5" width="81.369" height="81.369" rx="11.5" fill="none"/>
          </g>
        </g>
      </g>
    </g>
    <g id="Page-1" transform="translate(-8881.514 10347.98)">
      <g id="_121---Transit" data-name="121---Transit" transform="translate(0 0)">
        <path id="Shape" d="M33.506,16.744V37.7H4.422A3.422,3.422,0,0,1,1,34.28V16.744a5.133,5.133,0,0,1,5.133-5.133H28.373A5.133,5.133,0,0,1,33.506,16.744Z" transform="translate(-0.145 -1.679)" fill="#ffdc00"/>
        <path id="Shape-2" data-name="Shape" d="M32.566,12.111H30a5.133,5.133,0,0,1,5.133,5.133v20.53H37.7V17.244A5.133,5.133,0,0,0,32.566,12.111Z" transform="translate(-4.337 -1.751)" fill="#fec108"/>
        <path id="Shape-3" data-name="Shape" d="M51.193,42.111V48.1a2.566,2.566,0,0,1-2.566,2.566H45.983a5.127,5.127,0,0,0-10.111,0H19.465a5.127,5.127,0,0,0-10.111,0H7.566A2.566,2.566,0,0,1,5,48.1V42.111Z" transform="translate(-0.723 -6.088)" fill="#9e9e9e"/>
        <path id="Shape-4" data-name="Shape" d="M55.566,42.111V48.1A2.566,2.566,0,0,1,53,50.665h2.566A2.566,2.566,0,0,0,58.133,48.1V42.111Z" transform="translate(-7.663 -6.088)" fill="#707070"/>
        <path id="Shape-5" data-name="Shape" d="M56.108,33.509v5.133H39V18.111h7.716a1.711,1.711,0,0,1,1.352.667l2.1,2.72-.043.034H44.133a1.716,1.716,0,0,0-1.711,1.711V31.8a1.716,1.716,0,0,0,1.711,1.711Z" transform="translate(-5.639 -2.618)" fill="#ff9801"/>
        <path id="Shape-6" data-name="Shape" d="M56.687,30.386v3.7H44.711A1.716,1.716,0,0,1,43,32.37V23.816a1.716,1.716,0,0,1,1.711-1.711H50.7l.043-.034,5.594,7.271a1.761,1.761,0,0,1,.351,1.044Z" transform="translate(-6.217 -3.191)" fill="#02a9f4"/>
        <path id="Shape-7" data-name="Shape" d="M20.265,52.244a5.133,5.133,0,0,1-10.265,0,4.679,4.679,0,0,1,.077-.855,5.127,5.127,0,0,1,10.111,0A4.679,4.679,0,0,1,20.265,52.244Z" transform="translate(-1.446 -6.811)" fill="#37474f"/>
        <circle id="Oval" cx="1.711" cy="1.711" r="1.711" transform="translate(11.976 43.721)" fill="#cfd8dc"/>
        <path id="Shape-8" data-name="Shape" d="M51.265,52.244a5.133,5.133,0,1,1-10.265,0,4.679,4.679,0,0,1,.077-.855,5.127,5.127,0,0,1,10.111,0A4.679,4.679,0,0,1,51.265,52.244Z" transform="translate(-5.928 -6.811)" fill="#37474f"/>
        <circle id="Oval-2" data-name="Oval" cx="1.711" cy="1.711" r="1.711" transform="translate(38.494 43.721)" fill="#cfd8dc"/>
        <path id="Shape-9" data-name="Shape" d="M14.189,6.634,9.056,1.5a1.711,1.711,0,0,0-2.419,0L1.5,6.634A1.711,1.711,0,0,0,3.924,9.053L6.136,6.841V20.675a1.711,1.711,0,0,0,3.422,0V6.841L11.77,9.053a1.711,1.711,0,0,0,2.419-2.419Z" transform="translate(-0.148 -0.145)" fill="#60a917"/>
        <path id="Shape-10" data-name="Shape" d="M28.182,16.752l-5.133,5.133a1.711,1.711,0,0,1-2.419,0L15.5,16.752a1.711,1.711,0,1,1,2.419-2.419l2.212,2.212V2.711a1.711,1.711,0,0,1,3.422,0V16.545l2.212-2.212a1.711,1.711,0,0,1,2.419,2.419Z" transform="translate(-2.165 -0.145)" fill="#ef314c"/>
        <g id="Grupo_1212237" data-name="Grupo 1212237">
          <path id="Shape-11" data-name="Shape" d="M43.107,17.133a2.585,2.585,0,0,0-2.034-1H34.148A5.993,5.993,0,0,0,28.229,11H24.807a.855.855,0,1,0,0,1.711h3.422a4.282,4.282,0,0,1,4.277,4.277V36.663H4.277A2.566,2.566,0,0,1,1.711,34.1V16.988a4.226,4.226,0,0,1,.941-2.671.855.855,0,0,0-1.335-1.069A6,6,0,0,0,0,16.988V34.1a4.285,4.285,0,0,0,3.422,4.192v5.218a3.422,3.422,0,0,0,3.422,3.422H7.7a5.988,5.988,0,0,0,11.976,0H34.217a5.988,5.988,0,0,0,11.976,0H47.9a3.422,3.422,0,0,0,3.422-3.422V28.691a2.579,2.579,0,0,0-.532-1.565Zm6.507,11.558V31.53H38.494a.855.855,0,0,1-.855-.855V22.12a.855.855,0,0,1,.855-.855h5.633l5.31,6.9A.861.861,0,0,1,49.614,28.691ZM13.687,51.2a4.277,4.277,0,1,1,4.277-4.277A4.277,4.277,0,0,1,13.687,51.2Zm26.518,0a4.277,4.277,0,1,1,4.277-4.277A4.277,4.277,0,0,1,40.2,51.2Zm7.7-5.988H45.936a5.988,5.988,0,0,0-11.463,0H19.422a5.988,5.988,0,0,0-11.467,0H6.843a1.711,1.711,0,0,1-1.711-1.711V38.373H41.916a.855.855,0,1,0,0-1.711h-7.7V17.843h6.856a.855.855,0,0,1,.678.334l1.06,1.377H38.494a2.566,2.566,0,0,0-2.566,2.566v8.554a2.566,2.566,0,0,0,2.566,2.566h11.12V43.506A1.711,1.711,0,0,1,47.9,45.217Z" transform="translate(0 -1.59)"/>
          <path id="Shape-12" data-name="Shape" d="M15.566,50a2.566,2.566,0,1,0,2.566,2.566A2.566,2.566,0,0,0,15.566,50Zm0,3.422a.855.855,0,1,1,.855-.855A.855.855,0,0,1,15.566,53.422Z" transform="translate(-1.88 -7.229)"/>
          <path id="Shape-13" data-name="Shape" d="M46.566,50a2.566,2.566,0,1,0,2.566,2.566A2.566,2.566,0,0,0,46.566,50Zm0,3.422a.855.855,0,1,1,.855-.855A.855.855,0,0,1,46.566,53.422Z" transform="translate(-6.362 -7.229)"/>
          <path id="Shape-14" data-name="Shape" d="M54.566,41H52.855a.855.855,0,1,0,0,1.711h1.711a.855.855,0,0,0,0-1.711Z" transform="translate(-7.518 -5.928)"/>
          <path id="Shape-15" data-name="Shape" d="M46.855,25a.855.855,0,0,0-.855.855v.855a.855.855,0,0,0,1.711,0v-.855A.855.855,0,0,0,46.855,25Z" transform="translate(-6.651 -3.614)"/>
          <path id="Shape-16" data-name="Shape" d="M46.855,30a.855.855,0,0,0-.855.855v.855a.855.855,0,0,0,1.711,0v-.855A.855.855,0,0,0,46.855,30Z" transform="translate(-6.651 -4.337)"/>
          <path id="Shape-17" data-name="Shape" d="M26.566,47H24.855a.855.855,0,1,0,0,1.711h1.711a.855.855,0,1,0,0-1.711Z" transform="translate(-3.47 -6.795)"/>
          <path id="Shape-18" data-name="Shape" d="M36.843,47H30.855a.855.855,0,1,0,0,1.711h5.988a.855.855,0,0,0,0-1.711Z" transform="translate(-4.337 -6.795)"/>
          <path id="Shape-19" data-name="Shape" d="M9.514.756a2.629,2.629,0,0,0-3.63,0L.752,5.889a2.566,2.566,0,0,0,0,3.629,2.629,2.629,0,0,0,3.63,0l.751-.752V20.534a2.566,2.566,0,0,0,5.133,0V8.765l.751.752a2.629,2.629,0,0,0,3.63,0,2.566,2.566,0,0,0,0-3.629Zm3.922,7.552a.873.873,0,0,1-1.21,0L10.014,6.1a.855.855,0,0,0-1.46.6V20.534a.855.855,0,0,1-1.711,0V6.7a.855.855,0,0,0-1.46-.6L3.171,8.308a.873.873,0,0,1-1.21,0,.855.855,0,0,1,0-1.21L7.094,1.966a.873.873,0,0,1,1.21,0L13.436,7.1a.855.855,0,0,1,0,1.21Z" transform="translate(0 -0.004)"/>
          <path id="Shape-20" data-name="Shape" d="M21.7,0a2.566,2.566,0,0,0-2.566,2.566V14.335l-.751-.752a2.629,2.629,0,0,0-3.63,0,2.566,2.566,0,0,0,0,3.629l5.133,5.133a2.566,2.566,0,0,0,3.63,0l5.133-5.133a2.566,2.566,0,0,0,0-3.629,2.629,2.629,0,0,0-3.63,0l-.752.752V2.566A2.566,2.566,0,0,0,21.7,0Zm4.528,14.793a.873.873,0,0,1,1.21,0,.855.855,0,0,1,0,1.21L22.3,21.135a.873.873,0,0,1-1.21,0L15.962,16a.855.855,0,1,1,1.21-1.21L19.383,17a.855.855,0,0,0,1.46-.6V2.566a.855.855,0,1,1,1.711,0V16.4a.855.855,0,0,0,1.46.6Z" transform="translate(-2.024 0)"/>
        </g>
      </g>
    </g>
  </g>
</svg>
