<svg xmlns="http://www.w3.org/2000/svg" width="97" height="97" viewBox="0 0 97 97">
  <g id="Grupo_1213690" data-name="Grupo 1213690" transform="translate(-23.411 -139.128)">
    <g id="Grupo_1111296" data-name="Grupo 1111296">
      <g id="Grupo_1099376" data-name="Grupo 1099376" transform="translate(23.813 139.607)">
        <g id="Grupo_1099348" data-name="Grupo 1099348" transform="translate(-0.402 -0.48)">
          <g id="Grupo_1099341" data-name="Grupo 1099341">
            <g id="Rectángulo_402588" data-name="Rectángulo 402588" transform="translate(0 0)" fill="#f4c5c5" stroke="#fff" stroke-width="5">
              <rect width="97" height="97" rx="14" stroke="none"/>
              <rect x="2.5" y="2.5" width="92" height="92" rx="11.5" fill="none"/>
            </g>
          </g>
        </g>
      </g>
      <g id="Layer_32" data-name="Layer 32" transform="translate(34.411 151.128)">
        <path id="Trazado_899856" data-name="Trazado 899856" d="M66.151,40.666H63.784V27.648a6.051,6.051,0,0,0-4.852-5.917l-2.2-.44-10.91-1.946.417-2.329L59.4,19.41a8.423,8.423,0,0,1,6.754,8.238Z" transform="translate(8.223 1.838)" fill="#4c4c4c"/>
        <path id="Trazado_899857" data-name="Trazado 899857" d="M5.586,14.487A7.659,7.659,0,0,1,2,8H2A11.427,11.427,0,0,1,8.362,9.935" transform="translate(0.183 0.183)" fill="#b3b3b3"/>
        <path id="Trazado_899858" data-name="Trazado 899858" d="M53.036,58.618a2.347,2.347,0,0,1-1.183.317H49.486a2.367,2.367,0,0,1-2.367-2.367h0a7.315,7.315,0,0,1,.374-2.307l.355-1.056a8.91,8.91,0,0,0,.454-2.818h0a8.913,8.913,0,0,0-.947-3.986l-1-2.012L47.119,40h9.468V57.752Z" transform="translate(8.32 6.054)" fill="#b3b3b3"/>
        <path id="Trazado_899859" data-name="Trazado 899859" d="M52.062,45.489a8.293,8.293,0,0,1-2.367.346h0a8.3,8.3,0,0,1-8.131-6.644L41,34H52.835Z" transform="translate(7.338 4.953)" fill="#e77cac"/>
        <path id="Trazado_899860" data-name="Trazado 899860" d="M17.742,38.847a11.255,11.255,0,0,1,.305,2.6h0a11.205,11.205,0,0,0,1.183,5.017h0a11.2,11.2,0,0,1,1.183,5.013v5.638h0a2.367,2.367,0,0,0,2.367,2.367h1.5a2.36,2.36,0,0,0,1.619-.64V37Z" transform="translate(3.071 5.504)" fill="#b3b3b3"/>
        <path id="Trazado_899861" data-name="Trazado 899861" d="M67.09,50.794V62.439a2.374,2.374,0,0,1-2.367,2.367H62.356a2.385,2.385,0,0,1-2.367-2.367,7.31,7.31,0,0,1,.379-2.308l.343-1.053a8.853,8.853,0,0,0-.485-6.8L58.7,49.208a10.207,10.207,0,0,1-1.077-4.568,3.5,3.5,0,0,0-5.693-2.734,17.884,17.884,0,0,1-5.313,2.947,18.289,18.289,0,0,1-5.988,1.018H36.2q-.213,4.7-.888,9.4l-1.065,7.5a2.379,2.379,0,0,1-2.343,2.036H30.4a2.374,2.374,0,0,1-2.367-2.367V56.806a11.212,11.212,0,0,0-1.183-5.018,11.212,11.212,0,0,1-1.183-5.018,8.453,8.453,0,0,0-.047-.947,11.291,11.291,0,0,1-7.03-3.29,11.48,11.48,0,0,1-3.337-7.077A11.411,11.411,0,0,0,13.669,30.6l-.97-1.621a10.422,10.422,0,0,1-1.231.32L8.746,31.113a3.24,3.24,0,0,1-1.823.556A3.305,3.305,0,0,1,4.58,30.7L3.065,29.184A3.628,3.628,0,0,1,2,26.616a3.715,3.715,0,0,1,.379-1.633l.249-.485a24.192,24.192,0,0,0,2.3-7.337A13.355,13.355,0,0,1,8.71,9.574,5.385,5.385,0,0,1,12.509,8a6.055,6.055,0,0,1,4.285,1.776l.591.591L18.7,9.716a4.963,4.963,0,0,1,4.473,0l1.314.651-.6,1.527a6.933,6.933,0,0,1-1.254,2.024H24.9a10.818,10.818,0,0,1,3.775.686l4.249,1.586a19.8,19.8,0,0,0,7.018,1.278,19.657,19.657,0,0,0,2.213-.118l8.746-.97a14.675,14.675,0,0,1,1.61-.095A14.237,14.237,0,0,1,66.451,33.87l-.036.142a22.841,22.841,0,0,0-.509,4.829,23.388,23.388,0,0,0,.45,4.544,37.989,37.989,0,0,1,.734,7.408Z" transform="translate(0.183 0.183)" fill="#e6e6e6"/>
        <path id="Trazado_899862" data-name="Trazado 899862" d="M16.835,10.364l-.592-.592a6.044,6.044,0,0,0-4.081-1.755,5.224,5.224,0,0,0-.452.37,13.355,13.355,0,0,0-3.787,7.586,24.192,24.192,0,0,1-2.3,7.337l-.249.485A3.715,3.715,0,0,0,5,25.429,3.628,3.628,0,0,0,6.065,28L7.58,29.512a3.305,3.305,0,0,0,1.666.9L10.917,29.3a10.422,10.422,0,0,0,1.231-.32l.291.485,2.028-1.349A10.421,10.421,0,0,0,15.7,27.8l.97,1.621a11.411,11.411,0,0,1,1.586,4.852,11.48,11.48,0,0,0,3.337,7.077,11.291,11.291,0,0,0,7.03,3.29,8.454,8.454,0,0,1,.047.947A11.212,11.212,0,0,0,29.853,50.6a11.212,11.212,0,0,1,1.183,5.018v5.633a2.373,2.373,0,0,0,2.36,2.367,2.412,2.412,0,0,0,.3-.851l1.065-7.5q.675-4.686.888-9.4h4.426a18.289,18.289,0,0,0,5.988-1.018A17.884,17.884,0,0,0,51.38,41.9a3.5,3.5,0,0,1,5.692,2.733A10.207,10.207,0,0,0,58.149,49.2l1.527,3.065a8.853,8.853,0,0,1,.485,6.8l-.343,1.053a7.31,7.31,0,0,0-.379,2.308A2.385,2.385,0,0,0,61.806,64.8h2.367a2.374,2.374,0,0,0,2.367-2.367V50.791a37.99,37.99,0,0,0-.734-7.408,23.388,23.388,0,0,1-.45-4.544,22.841,22.841,0,0,1,.509-4.829l.035-.142A14.237,14.237,0,0,0,51.96,16.281a14.675,14.675,0,0,0-1.61.095l-8.746.97a19.658,19.658,0,0,1-2.213.118,19.8,19.8,0,0,1-7.018-1.278L28.125,14.6a10.818,10.818,0,0,0-3.775-.686H22.077a6.933,6.933,0,0,0,1.254-2.024l.6-1.527-1.314-.651a4.963,4.963,0,0,0-4.473,0Z" transform="translate(0.734 0.187)" fill="#f2f2f2"/>
        <path id="Trazado_899863" data-name="Trazado 899863" d="M24.417,32.166h0a7.9,7.9,0,0,0-4.4-2.923h0A2.657,2.657,0,0,1,18,26.658h0A2.659,2.659,0,0,1,20.658,24h0a13.582,13.582,0,0,1,9.6,3.978l2.388,2.388a2.509,2.509,0,0,1,.735,1.775h0a2.511,2.511,0,0,1-2.51,2.51H29.4a6.225,6.225,0,0,1-4.981-2.485Z" transform="translate(3.119 3.119)" fill="#686868"/>
        <path id="Trazado_899864" data-name="Trazado 899864" d="M49,26.628a3.988,3.988,0,0,0,1.775,3.314,3.988,3.988,0,0,1,1.775,3.314,7.532,7.532,0,0,0,4.566,6.923l.4.17.03.011a23.327,23.327,0,0,1-.257-3.246,22.841,22.841,0,0,1,.509-4.828l.036-.142a14.639,14.639,0,0,0-5.294-14.728l-.355.427A13.717,13.717,0,0,0,49,26.628Z" transform="translate(8.806 1.911)" fill="#686868"/>
        <path id="Trazado_899865" data-name="Trazado 899865" d="M6.578,20.3a3.933,3.933,0,0,0,3.376-3.894,5.6,5.6,0,0,1,.592-2.507,5.6,5.6,0,0,0,.592-2.506V8.087A5.388,5.388,0,0,0,8.381,9.558a13.355,13.355,0,0,0-3.787,7.586,23.861,23.861,0,0,1-.8,3.55H3.8Z" transform="translate(0.513 0.199)" fill="#4c4c4c"/>
        <path id="Trazado_899866" data-name="Trazado 899866" d="M28.759,22.232A19.151,19.151,0,0,1,37.038,27.1a4.185,4.185,0,0,0,7.143-2.959,10.526,10.526,0,0,0-1.5-5.417,14.529,14.529,0,0,1-1.264-2.71l-3.236.355a19.657,19.657,0,0,1-2.213.118,19.8,19.8,0,0,1-7.018-1.278L24.7,13.627a10.078,10.078,0,0,0-1.04-.325l.867,4.34a5.993,5.993,0,0,0,4.231,4.591Z" transform="translate(4.157 1.156)" fill="#686868"/>
        <path id="Trazado_899867" data-name="Trazado 899867" d="M3.027,21.229H3.006c-.127.28-.237.566-.379.841l-.249.485A3.715,3.715,0,0,0,2,24.189a3.628,3.628,0,0,0,1.065,2.568L4.58,28.272a3.305,3.305,0,0,0,2.343.97,3.24,3.24,0,0,0,1.823-.556l.237-.157-.073-.434a8.743,8.743,0,0,0-5.882-6.865Z" transform="translate(0.183 2.61)" fill="#4c4c4c"/>
        <path id="Trazado_899868" data-name="Trazado 899868" d="M10.622,9.066a13.347,13.347,0,0,0-2.994,6.715,23.93,23.93,0,0,1-1.015,4.213,3.924,3.924,0,0,0,2.826-3.766,5.6,5.6,0,0,1,.592-2.507,5.6,5.6,0,0,0,.592-2.506Z" transform="translate(1.03 0.379)" fill="#686868"/>
        <path id="Trazado_899869" data-name="Trazado 899869" d="M8.236,27.361A8.72,8.72,0,0,0,5.04,22.4a3.707,3.707,0,0,0-.04.4,3.629,3.629,0,0,0,1.065,2.568L7.58,26.874a3.259,3.259,0,0,0,.656.486Z" transform="translate(0.734 2.825)" fill="#686868"/>
        <path id="Trazado_899870" data-name="Trazado 899870" d="M15,14.3v2.367A8.166,8.166,0,0,0,21.131,13.9l-1.775-1.565A5.8,5.8,0,0,1,15,14.3Z" transform="translate(2.568 0.979)" fill="#e6e6e6"/>
        <path id="Trazado_899871" data-name="Trazado 899871" d="M19.114,20.836l.131-.32-2.192-.895-.133.325a9.93,9.93,0,0,1-6.187,5.776l.362,1.127.617,1.03A12.281,12.281,0,0,0,19.114,20.836Z" transform="translate(1.786 2.316)" fill="#e6e6e6"/>
        <path id="Trazado_899872" data-name="Trazado 899872" d="M22.715,36.754a12.719,12.719,0,0,0-3.679-4.393l-.225-.166-1.4,1.907.217.159a10.3,10.3,0,0,1,2.975,3.55,9.856,9.856,0,0,1,.983,3.391,11.339,11.339,0,0,0,1.213.179l1.183-.086a12.219,12.219,0,0,0-1.264-4.54Z" transform="translate(3.01 4.622)" fill="#e6e6e6"/>
        <path id="Trazado_899873" data-name="Trazado 899873" d="M30.018,36c0,1.62-.039,3.2-.118,4.672l1.183.062h1.183c.077-1.5.118-3.095.118-4.734Z" transform="translate(5.302 5.32)" fill="#e6e6e6"/>
        <path id="Trazado_899874" data-name="Trazado 899874" d="M1.751,24.16l-.244.485a4.826,4.826,0,0,0,.9,5.562L3.93,31.726a4.488,4.488,0,0,0,5.659.56L12.124,30.6c.07-.015.135-.041.2-.058l.517.862a10.289,10.289,0,0,1,1.42,4.35,12.612,12.612,0,0,0,5.478,9.3,10.124,10.124,0,0,1,.192,1.909A12.465,12.465,0,0,0,21.243,52.5,10.085,10.085,0,0,1,22.3,56.984v5.638a3.55,3.55,0,0,0,3.55,3.55h1.5a3.53,3.53,0,0,0,1.619-.407,3.518,3.518,0,0,0,1.617.407h1.5A3.567,3.567,0,0,0,35.6,63.124l1.073-7.507c.4-2.769.662-5.573.828-8.38h3.314a19.327,19.327,0,0,0,7.337-1.47,9.529,9.529,0,0,0,5.7,5.645l.787,1.572a7.785,7.785,0,0,1,.8,3.458,7.706,7.706,0,0,1-.4,2.444l-.355,1.054a8.458,8.458,0,0,0-.431,2.682,3.55,3.55,0,0,0,3.55,3.55h2.367a3.509,3.509,0,0,0,1.167-.224,3.484,3.484,0,0,0,1.2.224h2.367a3.55,3.55,0,0,0,3.55-3.55V50.981a39.034,39.034,0,0,0-.756-7.639,21.983,21.983,0,0,1,.055-8.9l.032-.147A16.109,16.109,0,0,0,66.327,23.4l.828.164a6.051,6.051,0,0,1,4.852,5.917V42.5h2.367V29.486a8.423,8.423,0,0,0-6.754-8.238l-3.181-.638a14.864,14.864,0,0,0-3.787-3.174,15.761,15.761,0,0,0-9.695-2.056l-8.749.972a18.8,18.8,0,0,1-8.683-1.083l-4.24-1.591a11.9,11.9,0,0,0-4.2-.761H24.96c.064-.137.142-.264.2-.4l.609-1.522a1.183,1.183,0,0,0-.57-1.5L23.89,8.838a6.307,6.307,0,0,0-5.543,0L17.8,9.11A7.2,7.2,0,0,0,12.689,7,6.478,6.478,0,0,0,8.4,8.638,12.57,12.57,0,0,0,2.183,7,1.183,1.183,0,0,0,1,8.183a8.778,8.778,0,0,0,3.385,6.946,14.384,14.384,0,0,0-.454,2.049A22.8,22.8,0,0,1,1.752,24.16ZM5.6,30.049,4.085,28.532a2.46,2.46,0,0,1-.46-2.833l.173-.344a7.52,7.52,0,0,1,4.033,5.152A2.155,2.155,0,0,1,5.6,30.049ZM24.669,62.622V56.984a12.465,12.465,0,0,0-1.3-5.542A10.085,10.085,0,0,1,22.3,46.958c0-.193-.025-.386-.034-.579a12.516,12.516,0,0,0,2.4.669,12.463,12.463,0,0,0,1.3,5.452,10.085,10.085,0,0,1,1.065,4.484v5.638a3.51,3.51,0,0,0,.218,1.183h-1.4A1.183,1.183,0,0,1,24.669,62.622ZM50.3,44.727a19.116,19.116,0,0,0,2.548-1.715,2.322,2.322,0,0,1,3.773,1.812,11.442,11.442,0,0,0,1.047,4.734c-.213.019-.425.046-.639.046A7.121,7.121,0,0,1,50.3,44.727Zm6.321,17.9a6.056,6.056,0,0,1,.315-1.933l.355-1.054a10.083,10.083,0,0,0-.534-7.676c.092,0,.183.012.277.012a9.548,9.548,0,0,0,1.73-.179l.592,1.192a7.785,7.785,0,0,1,.815,3.458,7.706,7.706,0,0,1-.4,2.444l-.355,1.054a8.458,8.458,0,0,0-.431,2.682,3.51,3.51,0,0,0,.218,1.183h-1.4A1.183,1.183,0,0,1,56.622,62.622ZM65.474,33.8l-.031.147a24.346,24.346,0,0,0-.536,5.078c0,.373.038.744.056,1.117a6.335,6.335,0,0,1-2.423-4.98,5.16,5.16,0,0,0-2.3-4.3,2.8,2.8,0,0,1-1.249-2.325,12.567,12.567,0,0,1,2.528-7.532,13.417,13.417,0,0,1,3.956,12.8ZM42.468,18.7l2.344-.26a15.6,15.6,0,0,0,1.011,2.049A9.356,9.356,0,0,1,47.155,25.3a3,3,0,0,1-5.122,2.122,20.377,20.377,0,0,0-8.792-5.172,4.793,4.793,0,0,1-3.394-3.682l-.465-2.325L32.7,17.487A21.174,21.174,0,0,0,42.468,18.7ZM16.732,11.387a1.183,1.183,0,0,0,1.366.222l1.309-.654a3.894,3.894,0,0,1,3.425,0l.334.167-.2.511a5.781,5.781,0,0,1-5.393,3.651v2.367a8.127,8.127,0,0,0,5.739-2.367h1.775a9.617,9.617,0,0,1,1.722.156l.72,3.593a7.15,7.15,0,0,0,5.065,5.494A18.013,18.013,0,0,1,40.357,29.1a5.367,5.367,0,0,0,9.165-3.8,11.716,11.716,0,0,0-1.669-6.026c-.214-.355-.407-.727-.592-1.1l3.949-.439a13.409,13.409,0,0,1,8.239,1.746c.058.034.111.075.168.109a14.935,14.935,0,0,0-3,8.952,5.16,5.16,0,0,0,2.3,4.3,2.8,2.8,0,0,1,1.249,2.325,8.7,8.7,0,0,0,5.1,7.917c.04.237.059.473.105.71a36.707,36.707,0,0,1,.71,7.182V62.622a1.183,1.183,0,0,1-1.183,1.183H62.54a1.183,1.183,0,0,1-1.183-1.183,6.056,6.056,0,0,1,.315-1.933l.355-1.054a10.069,10.069,0,0,0,.518-3.2,10.178,10.178,0,0,0-1.065-4.516l-1.53-3.06a9.076,9.076,0,0,1-.96-4.039,4.689,4.689,0,0,0-7.618-3.66,16.965,16.965,0,0,1-10.565,3.707H37.623q.064-1.775.064-3.55H35.32a98.84,98.84,0,0,1-.991,13.952l-1.074,7.521a1.183,1.183,0,0,1-1.17,1.015h-1.5A1.183,1.183,0,0,1,29.4,62.625v-5.64a12.465,12.465,0,0,0-1.3-5.542,10.085,10.085,0,0,1-1.065-4.484,12.516,12.516,0,0,0-4.984-9.967l-.224-.168-1.42,1.894.225.168a10.145,10.145,0,0,1,3.742,5.681,10.251,10.251,0,0,1-7.754-9.029,12.682,12.682,0,0,0-1.748-5.354l-.264-.437a12.263,12.263,0,0,0,6.3-6.606l.127-.315-2.2-.88-.125.315a9.93,9.93,0,0,1-7.3,6.066,1.183,1.183,0,0,0-.425.175l-1.046.7a9.875,9.875,0,0,0-5.187-6c.161-.406.3-.818.44-1.231l2.063-.291a5.141,5.141,0,0,0,4.392-5.068,4.446,4.446,0,0,1,.467-1.978,6.814,6.814,0,0,0,.716-3.036V9.381a4.844,4.844,0,0,1,3.307,1.42Zm-6.264-1.372v1.579A4.446,4.446,0,0,1,10,13.572a6.814,6.814,0,0,0-.716,3.036,2.762,2.762,0,0,1-2.36,2.722l-1.012.144q.218-.972.361-1.961a12.308,12.308,0,0,1,3.46-6.921,4.109,4.109,0,0,1,.734-.576ZM3.485,9.45a10.178,10.178,0,0,1,3.256,1,14.736,14.736,0,0,0-1.45,2.343A6.4,6.4,0,0,1,3.485,9.45Z" transform="translate(0 0)"/>
        <path id="Trazado_899875" data-name="Trazado 899875" d="M19.914,30.574a6.727,6.727,0,0,1,3.743,2.485,7.447,7.447,0,0,0,5.928,2.959h1.477a3.694,3.694,0,0,0,2.612-6.305l-2.388-2.388A14.675,14.675,0,0,0,20.845,23a3.841,3.841,0,0,0-.931,7.574Zm.931-5.207A12.317,12.317,0,0,1,29.612,29L32,31.386a1.327,1.327,0,0,1-.938,2.265H29.585a5.065,5.065,0,0,1-4.034-2.012,9.119,9.119,0,0,0-5.064-3.361,1.475,1.475,0,0,1,.355-2.905Z" transform="translate(2.932 2.935)"/>
      </g>
    </g>
  </g>
</svg>
