<svg xmlns="http://www.w3.org/2000/svg" width="116.977" height="97.21" viewBox="0 0 116.977 97.21">
  <g id="Grupo_1213692" data-name="Grupo 1213692" transform="translate(9.083)">
    <rect id="Rectángulo_402595" data-name="Rectángulo 402595" width="62.405" height="27.819" transform="translate(18.203 42.104)" opacity="0.407"/>
    <g id="Grupo_1099347" data-name="Grupo 1099347" transform="translate(-4.245 0)">
      <g id="Grupo_1099341" data-name="Grupo 1099341" transform="translate(13.23 0)">
        <g id="Rectángulo_402588" data-name="Rectángulo 402588" fill="#f4c5c5" stroke="#fff" stroke-width="5">
          <rect width="67.338" height="67.338" rx="14" stroke="none"/>
          <rect x="2.5" y="2.5" width="62.338" height="62.338" rx="11.5" fill="none"/>
        </g>
      </g>
      <g id="Grupo_1111288" data-name="Grupo 1111288" transform="translate(0 3.933)">
        <g id="Grupo_1111291" data-name="Grupo 1111291" transform="translate(0.824 0.854)">
          <g id="Grupo_1111290" data-name="Grupo 1111290">
            <g id="Grupo_1111288-2" data-name="Grupo 1111288" transform="translate(0 2.601)">
              <path id="Trazado_899843" data-name="Trazado 899843" d="M102.35,47.345a7.66,7.66,0,0,0-8.182,6.143c-.487,2.048-3.312,2.925-5.163,2.243,0,0,3.409,8.484,13.734,2.535" transform="translate(-79.705 -45.394)" fill="#ffdec2"/>
              <path id="Trazado_899844" data-name="Trazado 899844" d="M49.05,84.313,40.1,65.233a5.234,5.234,0,0,0-6.606-2.71c-1.7.643-3.477,1.281-4.534,1.569-2.511.685-6.466.8-9.37-.772l-1.909,1.4a5.852,5.852,0,0,1-7.2-9.218L28.811,40.258a6.046,6.046,0,0,0,2.178-4.648V30.361a5.651,5.651,0,0,1,5.646,5.5,12.846,12.846,0,0,1,10.6,5.6L64.8,78.225v6.088" transform="translate(-8.248 -30.361)" fill="#bf7341"/>
              <path id="Trazado_899845" data-name="Trazado 899845" d="M18.622,244.748c.648-9.277-6.815-9.665-6.815-9.665L9.4,237.054a5.835,5.835,0,0,0,7.157,9.211Z" transform="translate(-7.277 -211.788)" fill="#9b4f1d"/>
            </g>
            <path id="Trazado_899846" data-name="Trazado 899846" d="M270.106,22.26S262.862,8.412,250.778,7.54a14.036,14.036,0,0,0-10.739,3.951,5.358,5.358,0,0,1,1.9,4.113s6.115,1.54,7.932,9.516a19.083,19.083,0,0,1-.194,7.761,7.536,7.536,0,0,0,3.974-4.43S252,43.264,261.128,50.8a8.042,8.042,0,0,1,1.332-5.94s1.179,8.53,7.647,13.823Z" transform="translate(-213.553 -7.503)" fill="#ffdec2"/>
            <g id="Grupo_1111289" data-name="Grupo 1111289" transform="translate(34.523 0)">
              <path id="Trazado_899847" data-name="Trazado 899847" d="M329.237,191.6c-.012.044-.027.085-.04.128q0,.3-.018.587C329.209,191.858,329.237,191.6,329.237,191.6Z" transform="translate(-327.074 -170.654)" fill="#facfaa"/>
              <path id="Trazado_899848" data-name="Trazado 899848" d="M329.292,22.261l3.414,5.148V22.261S325.461,8.413,313.377,7.54a13.766,13.766,0,0,0-2.7.069c11.655,1.35,18.616,14.652,18.616,14.652Z" transform="translate(-310.676 -7.504)" fill="#facfaa"/>
              <path id="Trazado_899849" data-name="Trazado 899849" d="M325.243,201.369a20.291,20.291,0,0,1-.481,3.319" transform="translate(-323.159 -179.309)" fill="#facfaa"/>
            </g>
          </g>
        </g>
        <g id="Grupo_1111292" data-name="Grupo 1111292" transform="translate(0 0)">
          <path id="Trazado_899850" data-name="Trazado 899850" d="M86,18.6l-1.285,1.069A.854.854,0,0,0,85.8,20.978l8.377-6.97a6.88,6.88,0,0,0,2.486-5.3V4.383a4.76,4.76,0,0,1,3.792,3.527,10.3,10.3,0,0,0,.2,1.351.852.852,0,0,0,.581.52h0a9.173,9.173,0,0,1,3.034,1.663,12.477,12.477,0,0,1,4.278,7.216,18.345,18.345,0,0,1-.189,7.362.864.864,0,0,0,1.163.995A8.948,8.948,0,0,0,112.2,25.1a36.373,36.373,0,0,0,.81,7.16.854.854,0,0,0,1.667-.366,34.666,34.666,0,0,1-.66-10,.856.856,0,0,0-1.67-.326,5.9,5.9,0,0,1-1.965,2.89,18.086,18.086,0,0,0-.162-6.179,14.183,14.183,0,0,0-4.952-8.23,11.565,11.565,0,0,0-3-1.727,6.569,6.569,0,0,0-1.474-3.469,13.268,13.268,0,0,1,9.442-3.115c5.951.43,10.682,4.254,13.6,7.386a35.8,35.8,0,0,1,5.031,6.88.854.854,0,0,0,1.512-.792A36.819,36.819,0,0,0,125.115,8c-4.5-4.834-9.6-7.585-14.759-7.958a14.884,14.884,0,0,0-10.879,3.7A6.455,6.455,0,0,0,95.812,2.6a.853.853,0,0,0-.853.853V4.536a9.614,9.614,0,0,0-3.021.575A8.254,8.254,0,0,0,86.7,11.351a2.2,2.2,0,0,1-1.172,1.374,3.718,3.718,0,0,1-2.865.266.864.864,0,0,0-1.087,1.119A9.008,9.008,0,0,0,86,18.6Zm.341-4.367a3.871,3.871,0,0,0,2.026-2.483,6.683,6.683,0,0,1,6.6-5.508V8.7A5.178,5.178,0,0,1,93.088,12.7L87.51,17.337l-.048-.017a6.8,6.8,0,0,1-3.456-2.456A5.582,5.582,0,0,0,86.337,14.229Z" transform="translate(-72.246 0)" fill="#060606"/>
          <path id="Trazado_899851" data-name="Trazado 899851" d="M33.489,215.031a6.073,6.073,0,0,0-3.259-3.1l3.465-1.4a.854.854,0,0,0-.638-1.583l-7.26,2.927c-2.045.772-3.584,1.305-4.449,1.541a13.08,13.08,0,0,1-8.264-.463,10.046,10.046,0,0,0-2.2-7.283,8.221,8.221,0,0,0-3.655-2.35l2.428-2.02A.854.854,0,0,0,8.568,200l-6.02,5.009a6.809,6.809,0,0,0-1.015,9.532,6.769,6.769,0,0,0,9.268,1.03l1.487-1.095a14.874,14.874,0,0,0,9.51.6c.93-.254,2.482-.79,4.611-1.594a4.4,4.4,0,0,1,5.532,2.274l8.947,19.08a.854.854,0,0,0,1.545-.725Zm-23.865-8.2a8.51,8.51,0,0,1,1.75,6.2L9.63,214.3c-4.893,3.588-10.751-4.029-6.112-7.862l2.13-1.742a6.805,6.805,0,0,1,3.976,2.127Z" transform="translate(-0.034 -177.06)" fill="#060606"/>
          <path id="Trazado_899852" data-name="Trazado 899852" d="M31.024,277.53c.013.777,1.044.657,1.044.657a1.368,1.368,0,0,1,1.217,1.556.853.853,0,1,0,1.707,0,3.062,3.062,0,0,0-2.785-3.257S31.005,276.411,31.024,277.53Z" transform="translate(-27.498 -245.024)" fill="#060606"/>
          <path id="Trazado_899853" data-name="Trazado 899853" d="M196.19,139.288a3.463,3.463,0,0,0-3.494,3.424.854.854,0,0,0,1.707,0,1.789,1.789,0,0,1,3.575,0,.854.854,0,0,0,1.707,0A3.463,3.463,0,0,0,196.19,139.288Z" transform="translate(-170.773 -123.439)" fill="#060606"/>
          <path id="Trazado_899854" data-name="Trazado 899854" d="M386.376,330.551c-6.12-5.009-7.331-13.2-7.342-13.28a.863.863,0,0,0-1.533-.389,8.446,8.446,0,0,0-1.583,4.4,18.942,18.942,0,0,1-3.643-5.75.854.854,0,0,0-1.576.656,19.81,19.81,0,0,0,5.614,7.8.862.862,0,0,0,1.378-.837,7.376,7.376,0,0,1,.188-3.214,23.757,23.757,0,0,0,7.415,11.936A.854.854,0,0,0,386.376,330.551Z" transform="translate(-328.459 -279.174)" fill="#060606"/>
          <path id="Trazado_899855" data-name="Trazado 899855" d="M308.342,36.747a10.464,10.464,0,0,0-6.589-.342.854.854,0,0,0,.557,1.614c2.812-.97,8.165.584,10.4,3.779a.854.854,0,0,0,1.4-.979A11.8,11.8,0,0,0,308.342,36.747Z" transform="translate(-266.929 -31.92)" fill="#060606"/>
        </g>
      </g>
      <path id="Línea_564" data-name="Línea 564" d="M1.22,41.468a.844.844,0,0,1-.844-.821L-.75.118A.844.844,0,1,1,.938.071L2.064,40.6a.844.844,0,0,1-.821.867Z" transform="translate(57.966 19.885)" fill="#060606"/>
    </g>
  </g>
</svg>
